M48
METRIC,LZ,000.000
;FILE_FORMAT=3:3
;TYPE=PLATED
;Layer: PTH_Through
;EasyEDA v6.5.1, 2022-08-10 00:04:10
;a67cddfb3fce44daa9051d46cbbcc19f,10
;Gerber Generator version 0.2
;Holesize 1 = 1.021 mm
T01C1.021
;Holesize 2 = 1.550 mm
T02C1.550
;Holesize 3 = 1.753 mm
T03C1.753
;Holesize 4 = 4.090 mm
T04C4.090
%
G05
G90
T01
X043887Y098130G85X043893Y098130
X043887Y095590G85X043893Y095590
X043887Y093050G85X043893Y093050
X043887Y090510G85X043893Y090510
X043887Y087970G85X043893Y087970
X043887Y085430G85X043893Y085430
X043887Y082890G85X043893Y082890
X043887Y080350G85X043893Y080350
X043887Y077810G85X043893Y077810
X043887Y075270G85X043893Y075270
X043887Y072730G85X043893Y072730
X043887Y070190G85X043893Y070190
X043887Y067650G85X043893Y067650
X043887Y065110G85X043893Y065110
X043887Y062570G85X043893Y062570
X043887Y060030G85X043893Y060030
X043887Y057490G85X043893Y057490
X043887Y054950G85X043893Y054950
X043887Y052410G85X043893Y052410
X043887Y049870G85X043893Y049870
X026107Y049870G85X026113Y049870
X026107Y052410G85X026113Y052410
X026107Y054950G85X026113Y054950
X026107Y057490G85X026113Y057490
X026107Y060030G85X026113Y060030
X026107Y062570G85X026113Y062570
X026107Y065110G85X026113Y065110
X026107Y067650G85X026113Y067650
X026107Y070190G85X026113Y070190
X026107Y072730G85X026113Y072730
X026107Y075270G85X026113Y075270
X026107Y077810G85X026113Y077810
X026107Y080350G85X026113Y080350
X026107Y082890G85X026113Y082890
X026107Y085430G85X026113Y085430
X026107Y087970G85X026113Y087970
X026107Y090510G85X026113Y090510
X026107Y093050G85X026113Y093050
X026107Y095590G85X026113Y095590
X026107Y098130G85X026113Y098130
X037537Y050100G85X037543Y050100
X034997Y050100G85X035003Y050100
X032457Y050100G85X032463Y050100
T02
X031187Y082540G85X031193Y082540
X037537Y085080G85X037543Y085080
X051187Y082540G85X051193Y082540
X057537Y085080G85X057543Y085080
X011187Y062540G85X011193Y062540
X017537Y065080G85X017543Y065080
X031187Y062540G85X031193Y062540
X037537Y065080G85X037543Y065080
X051187Y062540G85X051193Y062540
X057537Y065080G85X057543Y065080
X011187Y042540G85X011193Y042540
X017537Y045080G85X017543Y045080
X031187Y042540G85X031193Y042540
X037537Y045080G85X037543Y045080
X051187Y042540G85X051193Y042540
X057537Y045080G85X057543Y045080
X011187Y022540G85X011193Y022540
X017537Y025080G85X017543Y025080
X031187Y022540G85X031193Y022540
X037537Y025080G85X037543Y025080
X051187Y022540G85X051193Y022540
X057537Y025080G85X057543Y025080
X011187Y082540G85X011193Y082540
X017537Y085080G85X017543Y085080
T03
X029917Y080000G85X029923Y080000
X040077Y080000G85X040083Y080000
X049917Y080000G85X049923Y080000
X060077Y080000G85X060083Y080000
X009917Y060000G85X009923Y060000
X020077Y060000G85X020083Y060000
X029917Y060000G85X029923Y060000
X040077Y060000G85X040083Y060000
X049917Y060000G85X049923Y060000
X060077Y060000G85X060083Y060000
X009917Y040000G85X009923Y040000
X020077Y040000G85X020083Y040000
X029917Y040000G85X029923Y040000
X040077Y040000G85X040083Y040000
X049917Y040000G85X049923Y040000
X060077Y040000G85X060083Y040000
X009917Y020000G85X009923Y020000
X020077Y020000G85X020083Y020000
X029917Y020000G85X029923Y020000
X040077Y020000G85X040083Y020000
X049917Y020000G85X049923Y020000
X060077Y020000G85X060083Y020000
X009917Y080000G85X009923Y080000
X020077Y080000G85X020083Y080000
T04
X034997Y080000G85X035003Y080000
X054997Y080000G85X055003Y080000
X014997Y060000G85X015003Y060000
X034997Y060000G85X035003Y060000
X054997Y060000G85X055003Y060000
X014997Y040000G85X015003Y040000
X034997Y040000G85X035003Y040000
X054997Y040000G85X055003Y040000
X014997Y020000G85X015003Y020000
X034997Y020000G85X035003Y020000
X054997Y020000G85X055003Y020000
X014997Y080000G85X015003Y080000
M30
