G04 Layer: BottomLayer*
G04 EasyEDA v6.5.1, 2022-08-10 00:04:10*
G04 a67cddfb3fce44daa9051d46cbbcc19f,10*
G04 Gerber Generator version 0.2*
G04 Scale: 100 percent, Rotated: No, Reflected: No *
G04 Dimensions in millimeters *
G04 leading zeros omitted , absolute positions ,4 integer and 5 decimal *
%FSLAX45Y45*%
%MOMM*%

%ADD11C,2.3241*%
%ADD12C,5.1054*%
%ADD13C,2.6289*%
%ADD14C,1.7000*%

%LPD*%
G36*
X3331001Y4784219D02*
G01*
X3331001Y5134206D01*
X3160999Y5134206D01*
X3160999Y4784219D01*
G37*
G36*
X4614793Y9898001D02*
G01*
X4264807Y9898001D01*
X4264807Y9727999D01*
X4614793Y9727999D01*
G37*
G36*
X4614793Y9644001D02*
G01*
X4264807Y9644001D01*
X4264807Y9473999D01*
X4614793Y9473999D01*
G37*
G36*
X4614793Y9390001D02*
G01*
X4264807Y9390001D01*
X4264807Y9219999D01*
X4614793Y9219999D01*
G37*
G36*
X4614793Y9136001D02*
G01*
X4264807Y9136001D01*
X4264807Y8965999D01*
X4614793Y8965999D01*
G37*
G36*
X4614793Y8882001D02*
G01*
X4264807Y8882001D01*
X4264807Y8711999D01*
X4614793Y8711999D01*
G37*
G36*
X4614793Y8628001D02*
G01*
X4264807Y8628001D01*
X4264807Y8457999D01*
X4614793Y8457999D01*
G37*
G36*
X4614793Y8374001D02*
G01*
X4264807Y8374001D01*
X4264807Y8203999D01*
X4614793Y8203999D01*
G37*
G36*
X4614793Y8120001D02*
G01*
X4264807Y8120001D01*
X4264807Y7949999D01*
X4614793Y7949999D01*
G37*
G36*
X4614793Y7866001D02*
G01*
X4264807Y7866001D01*
X4264807Y7695999D01*
X4614793Y7695999D01*
G37*
G36*
X4614793Y7612001D02*
G01*
X4264807Y7612001D01*
X4264807Y7441999D01*
X4614793Y7441999D01*
G37*
G36*
X4614793Y7358001D02*
G01*
X4264807Y7358001D01*
X4264807Y7187999D01*
X4614793Y7187999D01*
G37*
G36*
X4614793Y7104001D02*
G01*
X4264807Y7104001D01*
X4264807Y6933999D01*
X4614793Y6933999D01*
G37*
G36*
X4614793Y6850001D02*
G01*
X4264807Y6850001D01*
X4264807Y6679999D01*
X4614793Y6679999D01*
G37*
G36*
X4614793Y6596001D02*
G01*
X4264807Y6596001D01*
X4264807Y6425999D01*
X4614793Y6425999D01*
G37*
G36*
X4614793Y6342001D02*
G01*
X4264807Y6342001D01*
X4264807Y6171999D01*
X4614793Y6171999D01*
G37*
G36*
X4614793Y6088001D02*
G01*
X4264807Y6088001D01*
X4264807Y5917999D01*
X4614793Y5917999D01*
G37*
G36*
X4614793Y5834001D02*
G01*
X4264807Y5834001D01*
X4264807Y5663999D01*
X4614793Y5663999D01*
G37*
G36*
X4614793Y5580001D02*
G01*
X4264807Y5580001D01*
X4264807Y5409999D01*
X4614793Y5409999D01*
G37*
G36*
X4614793Y5326001D02*
G01*
X4264807Y5326001D01*
X4264807Y5155999D01*
X4614793Y5155999D01*
G37*
G36*
X4614793Y5072001D02*
G01*
X4264807Y5072001D01*
X4264807Y4901999D01*
X4614793Y4901999D01*
G37*
G36*
X2735193Y9898001D02*
G01*
X2385207Y9898001D01*
X2385207Y9727999D01*
X2735193Y9727999D01*
G37*
G36*
X2735193Y9644001D02*
G01*
X2385207Y9644001D01*
X2385207Y9473999D01*
X2735193Y9473999D01*
G37*
G36*
X2735193Y9390001D02*
G01*
X2385207Y9390001D01*
X2385207Y9219999D01*
X2735193Y9219999D01*
G37*
G36*
X2735193Y9136001D02*
G01*
X2385207Y9136001D01*
X2385207Y8965999D01*
X2735193Y8965999D01*
G37*
G36*
X2735193Y8882001D02*
G01*
X2385207Y8882001D01*
X2385207Y8711999D01*
X2735193Y8711999D01*
G37*
G36*
X2735193Y8628001D02*
G01*
X2385207Y8628001D01*
X2385207Y8457999D01*
X2735193Y8457999D01*
G37*
G36*
X2735193Y8374001D02*
G01*
X2385207Y8374001D01*
X2385207Y8203999D01*
X2735193Y8203999D01*
G37*
G36*
X2735193Y8120001D02*
G01*
X2385207Y8120001D01*
X2385207Y7949999D01*
X2735193Y7949999D01*
G37*
G36*
X2735193Y7866001D02*
G01*
X2385207Y7866001D01*
X2385207Y7695999D01*
X2735193Y7695999D01*
G37*
G36*
X2735193Y7612001D02*
G01*
X2385207Y7612001D01*
X2385207Y7441999D01*
X2735193Y7441999D01*
G37*
G36*
X2735193Y7358001D02*
G01*
X2385207Y7358001D01*
X2385207Y7187999D01*
X2735193Y7187999D01*
G37*
G36*
X2735193Y7104001D02*
G01*
X2385207Y7104001D01*
X2385207Y6933999D01*
X2735193Y6933999D01*
G37*
G36*
X2735193Y6850001D02*
G01*
X2385207Y6850001D01*
X2385207Y6679999D01*
X2735193Y6679999D01*
G37*
G36*
X2735193Y6596001D02*
G01*
X2385207Y6596001D01*
X2385207Y6425999D01*
X2735193Y6425999D01*
G37*
G36*
X2735193Y6342001D02*
G01*
X2385207Y6342001D01*
X2385207Y6171999D01*
X2735193Y6171999D01*
G37*
G36*
X2735193Y6088001D02*
G01*
X2385207Y6088001D01*
X2385207Y5917999D01*
X2735193Y5917999D01*
G37*
G36*
X2735193Y5834001D02*
G01*
X2385207Y5834001D01*
X2385207Y5663999D01*
X2735193Y5663999D01*
G37*
G36*
X2735193Y5580001D02*
G01*
X2385207Y5580001D01*
X2385207Y5409999D01*
X2735193Y5409999D01*
G37*
G36*
X2735193Y5326001D02*
G01*
X2385207Y5326001D01*
X2385207Y5155999D01*
X2735193Y5155999D01*
G37*
G36*
X2735193Y5072001D02*
G01*
X2385207Y5072001D01*
X2385207Y4901999D01*
X2735193Y4901999D01*
G37*
G36*
X3839001Y4784219D02*
G01*
X3839001Y5134206D01*
X3668999Y5134206D01*
X3668999Y4784219D01*
G37*
G36*
X3585001Y4784219D02*
G01*
X3585001Y5134206D01*
X3414999Y5134206D01*
X3414999Y4784219D01*
G37*
D11*
G01*
X3118993Y8254009D03*
G01*
X3753993Y8508009D03*
D12*
G01*
X3499993Y8000009D03*
D13*
G01*
X2991993Y8000009D03*
G01*
X4007993Y8000009D03*
D11*
G01*
X5118988Y8254009D03*
G01*
X5753988Y8508009D03*
D12*
G01*
X5499988Y8000009D03*
D13*
G01*
X4991988Y8000009D03*
G01*
X6007988Y8000009D03*
D11*
G01*
X1118996Y6253987D03*
G01*
X1753996Y6507987D03*
D12*
G01*
X1499996Y5999987D03*
D13*
G01*
X991996Y5999987D03*
G01*
X2007997Y5999987D03*
D11*
G01*
X3118993Y6253987D03*
G01*
X3753993Y6507987D03*
D12*
G01*
X3499993Y5999987D03*
D13*
G01*
X2991993Y5999987D03*
G01*
X4007993Y5999987D03*
D11*
G01*
X5118988Y6253987D03*
G01*
X5753988Y6507987D03*
D12*
G01*
X5499988Y5999987D03*
D13*
G01*
X4991988Y5999987D03*
G01*
X6007988Y5999987D03*
D11*
G01*
X1118996Y4253992D03*
G01*
X1753996Y4507992D03*
D12*
G01*
X1499996Y3999992D03*
D13*
G01*
X991996Y3999992D03*
G01*
X2007997Y3999992D03*
D11*
G01*
X3118993Y4253992D03*
G01*
X3753993Y4507992D03*
D12*
G01*
X3499993Y3999992D03*
D13*
G01*
X2991993Y3999992D03*
G01*
X4007993Y3999992D03*
D11*
G01*
X5118988Y4253992D03*
G01*
X5753988Y4507992D03*
D12*
G01*
X5499988Y3999992D03*
D13*
G01*
X4991988Y3999992D03*
G01*
X6007988Y3999992D03*
D11*
G01*
X1118996Y2253995D03*
G01*
X1753996Y2507995D03*
D12*
G01*
X1499996Y1999995D03*
D13*
G01*
X991996Y1999995D03*
G01*
X2007997Y1999995D03*
D11*
G01*
X3118993Y2253995D03*
G01*
X3753993Y2507995D03*
D12*
G01*
X3499993Y1999995D03*
D13*
G01*
X2991993Y1999995D03*
G01*
X4007993Y1999995D03*
D11*
G01*
X5118988Y2253995D03*
G01*
X5753988Y2507995D03*
D12*
G01*
X5499988Y1999995D03*
D13*
G01*
X4991988Y1999995D03*
G01*
X6007988Y1999995D03*
D11*
G01*
X1118996Y8254009D03*
G01*
X1753996Y8508009D03*
D12*
G01*
X1499996Y8000009D03*
D13*
G01*
X991996Y8000009D03*
G01*
X2007997Y8000009D03*
D14*
G01*
X4388993Y9813010D03*
G01*
X4388993Y9559010D03*
G36*
X4474001Y9390001D02*
G01*
X4303999Y9390001D01*
X4303999Y9219999D01*
X4474001Y9219999D01*
G37*
G01*
X4388993Y9051010D03*
G01*
X4388993Y8797010D03*
G01*
X4388993Y8543010D03*
G01*
X4388993Y8289010D03*
G36*
X4474001Y8120001D02*
G01*
X4303999Y8120001D01*
X4303999Y7949999D01*
X4474001Y7949999D01*
G37*
G01*
X4388993Y7781010D03*
G01*
X4388993Y7527010D03*
G01*
X4388993Y7273010D03*
G01*
X4388993Y7019010D03*
G36*
X4474001Y6850001D02*
G01*
X4303999Y6850001D01*
X4303999Y6679999D01*
X4474001Y6679999D01*
G37*
G01*
X4388993Y6511010D03*
G01*
X4388993Y6257010D03*
G01*
X4388993Y6003010D03*
G01*
X4388993Y5749010D03*
G36*
X4474001Y5580001D02*
G01*
X4303999Y5580001D01*
X4303999Y5409999D01*
X4474001Y5409999D01*
G37*
G01*
X4388993Y5241010D03*
G01*
X4388993Y4987010D03*
G01*
X2610993Y4987010D03*
G01*
X2610993Y5241010D03*
G36*
X2696001Y5580001D02*
G01*
X2525999Y5580001D01*
X2525999Y5409999D01*
X2696001Y5409999D01*
G37*
G01*
X2610993Y5749010D03*
G01*
X2610993Y6003010D03*
G01*
X2610993Y6257010D03*
G01*
X2610993Y6511010D03*
G36*
X2696001Y6850001D02*
G01*
X2525999Y6850001D01*
X2525999Y6679999D01*
X2696001Y6679999D01*
G37*
G01*
X2610993Y7019010D03*
G01*
X2610993Y7273010D03*
G01*
X2610993Y7527010D03*
G01*
X2610993Y7781010D03*
G36*
X2696001Y8120001D02*
G01*
X2525999Y8120001D01*
X2525999Y7949999D01*
X2696001Y7949999D01*
G37*
G01*
X2610993Y8289010D03*
G01*
X2610993Y8543010D03*
G01*
X2610993Y8797010D03*
G01*
X2610993Y9051010D03*
G36*
X2696001Y9390001D02*
G01*
X2525999Y9390001D01*
X2525999Y9219999D01*
X2696001Y9219999D01*
G37*
G01*
X2610993Y9559010D03*
G01*
X2610993Y9813010D03*
G01*
X3753993Y5010022D03*
G36*
X3585001Y5095013D02*
G01*
X3414999Y5095013D01*
X3414999Y4925011D01*
X3585001Y4925011D01*
G37*
G01*
X3245993Y5010022D03*
M02*
