G04 Layer: TopLayer*
G04 EasyEDA v6.5.1, 2022-08-10 00:04:10*
G04 a67cddfb3fce44daa9051d46cbbcc19f,10*
G04 Gerber Generator version 0.2*
G04 Scale: 100 percent, Rotated: No, Reflected: No *
G04 Dimensions in millimeters *
G04 leading zeros omitted , absolute positions ,4 integer and 5 decimal *
%FSLAX45Y45*%
%MOMM*%

%ADD10C,0.2540*%
%ADD11C,2.3241*%
%ADD12C,5.1054*%
%ADD13C,2.6289*%
%ADD14C,1.7000*%

%LPD*%
G36*
X726033Y25908D02*
G01*
X722172Y26670D01*
X718921Y28803D01*
X716686Y32004D01*
X715873Y35864D01*
X716534Y39674D01*
X718616Y43027D01*
X721766Y45313D01*
X725373Y46939D01*
X752805Y61722D01*
X779272Y78130D01*
X804722Y96164D01*
X828954Y115722D01*
X851966Y136702D01*
X873607Y159105D01*
X893826Y182778D01*
X912571Y207670D01*
X929741Y233629D01*
X945286Y260654D01*
X959103Y288544D01*
X971194Y317246D01*
X981506Y346659D01*
X989990Y376631D01*
X996594Y407060D01*
X1001318Y437845D01*
X1004112Y468884D01*
X1004976Y499973D01*
X1004112Y531114D01*
X1001318Y562152D01*
X996594Y592937D01*
X989990Y623366D01*
X981506Y653338D01*
X971194Y682752D01*
X959103Y711454D01*
X945286Y739343D01*
X929741Y766368D01*
X912571Y792327D01*
X893826Y817219D01*
X873607Y840892D01*
X851966Y863295D01*
X828954Y884275D01*
X804722Y903833D01*
X779272Y921867D01*
X752805Y938276D01*
X725373Y953058D01*
X697128Y966063D01*
X668070Y977341D01*
X638403Y986790D01*
X608177Y994410D01*
X577596Y1000150D01*
X546658Y1003960D01*
X515569Y1005890D01*
X484428Y1005890D01*
X453339Y1003960D01*
X422452Y1000150D01*
X391820Y994410D01*
X361594Y986790D01*
X331927Y977341D01*
X302869Y966063D01*
X274624Y953058D01*
X247192Y938276D01*
X220725Y921867D01*
X195326Y903833D01*
X171043Y884275D01*
X148082Y863295D01*
X126390Y840892D01*
X106172Y817219D01*
X87426Y792327D01*
X70256Y766368D01*
X54711Y739343D01*
X45161Y720090D01*
X42316Y716584D01*
X38252Y714705D01*
X33731Y714705D01*
X29718Y716686D01*
X26924Y720191D01*
X25908Y724611D01*
X25908Y9275368D01*
X26924Y9279788D01*
X29718Y9283293D01*
X33731Y9285274D01*
X38252Y9285325D01*
X42316Y9283395D01*
X45161Y9279890D01*
X54711Y9260636D01*
X70256Y9233662D01*
X87426Y9207652D01*
X106172Y9182760D01*
X126390Y9159087D01*
X148082Y9136735D01*
X171043Y9115704D01*
X195326Y9096146D01*
X220725Y9078112D01*
X247192Y9061704D01*
X274624Y9046972D01*
X302869Y9033916D01*
X331927Y9022638D01*
X361594Y9013190D01*
X391820Y9005620D01*
X422452Y8999880D01*
X453339Y8996019D01*
X484428Y8994089D01*
X515569Y8994089D01*
X546658Y8996019D01*
X577596Y8999880D01*
X608177Y9005620D01*
X638403Y9013190D01*
X668070Y9022638D01*
X697128Y9033916D01*
X725373Y9046972D01*
X752805Y9061704D01*
X779272Y9078112D01*
X804722Y9096146D01*
X828954Y9115704D01*
X851966Y9136735D01*
X873607Y9159087D01*
X893826Y9182760D01*
X912571Y9207652D01*
X929741Y9233662D01*
X945286Y9260636D01*
X959103Y9288526D01*
X971194Y9317228D01*
X981506Y9346641D01*
X989990Y9376613D01*
X996594Y9407042D01*
X1001318Y9437827D01*
X1004112Y9468866D01*
X1004976Y9499955D01*
X1004112Y9531146D01*
X1001318Y9562134D01*
X996594Y9592919D01*
X989990Y9623399D01*
X981506Y9653371D01*
X971194Y9682734D01*
X959103Y9711436D01*
X945286Y9739376D01*
X929741Y9766350D01*
X912571Y9792360D01*
X893826Y9817201D01*
X873607Y9840925D01*
X851966Y9863277D01*
X828954Y9884308D01*
X804722Y9903866D01*
X779272Y9921849D01*
X752805Y9938258D01*
X725373Y9953040D01*
X721766Y9954717D01*
X718616Y9957003D01*
X716534Y9960305D01*
X715873Y9964166D01*
X716686Y9967976D01*
X718921Y9971176D01*
X722172Y9973360D01*
X726033Y9974072D01*
X6272987Y9974072D01*
X6276797Y9973360D01*
X6280048Y9971176D01*
X6282283Y9967976D01*
X6283147Y9964166D01*
X6282436Y9960305D01*
X6280404Y9957003D01*
X6277203Y9954717D01*
X6274460Y9953447D01*
X6247028Y9938664D01*
X6220561Y9922256D01*
X6195161Y9904222D01*
X6170879Y9884613D01*
X6147866Y9863582D01*
X6126226Y9841179D01*
X6106007Y9817506D01*
X6087262Y9792563D01*
X6070092Y9766554D01*
X6054598Y9739528D01*
X6040729Y9711588D01*
X6028639Y9682886D01*
X6018377Y9653473D01*
X6009944Y9623450D01*
X6003340Y9593021D01*
X5998667Y9562185D01*
X5995873Y9531146D01*
X5995009Y9500057D01*
X5995873Y9468866D01*
X5998667Y9437827D01*
X6003340Y9406991D01*
X6009944Y9376511D01*
X6018377Y9346539D01*
X6028639Y9317126D01*
X6040729Y9288373D01*
X6054598Y9260433D01*
X6070092Y9233408D01*
X6087262Y9207398D01*
X6106007Y9182506D01*
X6126226Y9158833D01*
X6147866Y9136380D01*
X6170879Y9115348D01*
X6195161Y9095790D01*
X6220561Y9077756D01*
X6247028Y9061348D01*
X6274460Y9046565D01*
X6302806Y9033510D01*
X6331813Y9022232D01*
X6361531Y9012732D01*
X6391757Y9005163D01*
X6422390Y8999423D01*
X6453327Y8995562D01*
X6484416Y8993632D01*
X6515557Y8993632D01*
X6546697Y8995562D01*
X6577634Y8999423D01*
X6608267Y9005163D01*
X6638493Y9012732D01*
X6668160Y9022232D01*
X6697218Y9033510D01*
X6725513Y9046565D01*
X6752945Y9061348D01*
X6779463Y9077756D01*
X6804863Y9095790D01*
X6829094Y9115348D01*
X6852107Y9136380D01*
X6873748Y9158833D01*
X6894017Y9182506D01*
X6912762Y9207398D01*
X6929881Y9233408D01*
X6945426Y9260433D01*
X6954824Y9279432D01*
X6957669Y9282938D01*
X6961733Y9284868D01*
X6966254Y9284817D01*
X6970318Y9282836D01*
X6973112Y9279331D01*
X6974078Y9274911D01*
X6974078Y725068D01*
X6973112Y720648D01*
X6970318Y717143D01*
X6966254Y715162D01*
X6961733Y715162D01*
X6957669Y717042D01*
X6954824Y720547D01*
X6945426Y739546D01*
X6929881Y766572D01*
X6912762Y792581D01*
X6894017Y817473D01*
X6873748Y841197D01*
X6852107Y863600D01*
X6829094Y884631D01*
X6804863Y904189D01*
X6779463Y922223D01*
X6752945Y938682D01*
X6725513Y953465D01*
X6697218Y966469D01*
X6668160Y977798D01*
X6638493Y987247D01*
X6608267Y994867D01*
X6577634Y1000607D01*
X6546697Y1004417D01*
X6515557Y1006348D01*
X6484416Y1006348D01*
X6453327Y1004417D01*
X6422390Y1000607D01*
X6391757Y994867D01*
X6361531Y987247D01*
X6331813Y977798D01*
X6302806Y966469D01*
X6274460Y953465D01*
X6247028Y938682D01*
X6220561Y922223D01*
X6195161Y904189D01*
X6170879Y884631D01*
X6147866Y863600D01*
X6126226Y841197D01*
X6106007Y817473D01*
X6087262Y792581D01*
X6070092Y766572D01*
X6054598Y739546D01*
X6040729Y711606D01*
X6028639Y682904D01*
X6018377Y653440D01*
X6009944Y623468D01*
X6003340Y592988D01*
X5998667Y562203D01*
X5995873Y531164D01*
X5995009Y500024D01*
X5995873Y468833D01*
X5998667Y437794D01*
X6003340Y407009D01*
X6009944Y376529D01*
X6018377Y346557D01*
X6028639Y317093D01*
X6040729Y288391D01*
X6054598Y260451D01*
X6070092Y233425D01*
X6087262Y207416D01*
X6106007Y182524D01*
X6126226Y158800D01*
X6147866Y136398D01*
X6170879Y115366D01*
X6195161Y95808D01*
X6220561Y77774D01*
X6247028Y61315D01*
X6274460Y46532D01*
X6277203Y45313D01*
X6280404Y43027D01*
X6282436Y39674D01*
X6283096Y35814D01*
X6282283Y32004D01*
X6280048Y28803D01*
X6276797Y26670D01*
X6272936Y25908D01*
G37*

%LPC*%
G36*
X5689549Y6381496D02*
G01*
X5689549Y6443522D01*
X5627624Y6443522D01*
X5630265Y6438138D01*
X5639054Y6424472D01*
X5649315Y6411925D01*
X5660948Y6400596D01*
X5673801Y6390690D01*
X5687669Y6382308D01*
G37*
G36*
X2614574Y9702190D02*
G01*
X2628696Y9703511D01*
X2642565Y9706711D01*
X2655874Y9711588D01*
X2668473Y9718192D01*
X2680157Y9726320D01*
X2690672Y9735870D01*
X2699867Y9746691D01*
X2707640Y9758578D01*
X2713786Y9771380D01*
X2718257Y9784892D01*
X2721000Y9798812D01*
X2721864Y9812985D01*
X2721000Y9827158D01*
X2718257Y9841128D01*
X2713786Y9854590D01*
X2707640Y9867392D01*
X2699867Y9879330D01*
X2690672Y9890150D01*
X2680157Y9899700D01*
X2668473Y9907828D01*
X2655874Y9914382D01*
X2642565Y9919309D01*
X2628696Y9922459D01*
X2614574Y9923830D01*
X2600350Y9923373D01*
X2586329Y9921087D01*
X2572715Y9917074D01*
X2559710Y9911334D01*
X2547569Y9903968D01*
X2536444Y9895078D01*
X2526588Y9884867D01*
X2518054Y9873488D01*
X2511094Y9861092D01*
X2505760Y9847935D01*
X2502154Y9834219D01*
X2500325Y9820097D01*
X2500325Y9805873D01*
X2502154Y9791801D01*
X2505760Y9778034D01*
X2511094Y9764877D01*
X2518054Y9752482D01*
X2526588Y9741103D01*
X2536444Y9730892D01*
X2547569Y9722053D01*
X2559710Y9714687D01*
X2572715Y9708946D01*
X2586329Y9704882D01*
X2600350Y9702647D01*
G37*
G36*
X1500022Y1718818D02*
G01*
X1523238Y1719783D01*
X1546301Y1722678D01*
X1569008Y1727454D01*
X1591310Y1734057D01*
X1612950Y1742490D01*
X1633829Y1752701D01*
X1653793Y1764639D01*
X1672691Y1778101D01*
X1690420Y1793138D01*
X1706880Y1809546D01*
X1721866Y1827326D01*
X1735378Y1846224D01*
X1747266Y1866188D01*
X1757476Y1887067D01*
X1765909Y1908708D01*
X1772564Y1930958D01*
X1777339Y1953717D01*
X1780184Y1976780D01*
X1781149Y1999996D01*
X1780184Y2023211D01*
X1777339Y2046274D01*
X1772564Y2069033D01*
X1765909Y2091283D01*
X1757476Y2112924D01*
X1747266Y2133803D01*
X1735378Y2153767D01*
X1721866Y2172716D01*
X1706880Y2190445D01*
X1690420Y2206853D01*
X1672691Y2221890D01*
X1653793Y2235403D01*
X1633829Y2247290D01*
X1612950Y2257501D01*
X1591310Y2265934D01*
X1569008Y2272588D01*
X1546301Y2277313D01*
X1523238Y2280208D01*
X1500022Y2281174D01*
X1476756Y2280208D01*
X1453743Y2277313D01*
X1430985Y2272588D01*
X1408684Y2265934D01*
X1387043Y2257501D01*
X1366164Y2247290D01*
X1346200Y2235403D01*
X1327302Y2221890D01*
X1309573Y2206853D01*
X1293114Y2190445D01*
X1278128Y2172716D01*
X1264615Y2153767D01*
X1252728Y2133803D01*
X1242517Y2112924D01*
X1234084Y2091283D01*
X1227429Y2069033D01*
X1222654Y2046274D01*
X1219809Y2023211D01*
X1218844Y1999996D01*
X1219809Y1976780D01*
X1222654Y1953717D01*
X1227429Y1930958D01*
X1234084Y1908708D01*
X1242517Y1887067D01*
X1252728Y1866188D01*
X1264615Y1846224D01*
X1278128Y1827326D01*
X1293114Y1809546D01*
X1309573Y1793138D01*
X1327302Y1778101D01*
X1346200Y1764639D01*
X1366164Y1752701D01*
X1387043Y1742490D01*
X1408684Y1734057D01*
X1430985Y1727454D01*
X1453743Y1722678D01*
X1476756Y1719783D01*
G37*
G36*
X3500018Y1718818D02*
G01*
X3523234Y1719783D01*
X3546297Y1722678D01*
X3569004Y1727454D01*
X3591306Y1734057D01*
X3612946Y1742490D01*
X3633825Y1752701D01*
X3653790Y1764639D01*
X3672687Y1778101D01*
X3690416Y1793138D01*
X3706876Y1809546D01*
X3721862Y1827326D01*
X3735374Y1846224D01*
X3747262Y1866188D01*
X3757472Y1887067D01*
X3765956Y1908708D01*
X3772560Y1930958D01*
X3777335Y1953717D01*
X3780231Y1976780D01*
X3781145Y1999996D01*
X3780231Y2023211D01*
X3777335Y2046274D01*
X3772560Y2069033D01*
X3765956Y2091283D01*
X3757472Y2112924D01*
X3747262Y2133803D01*
X3735374Y2153767D01*
X3721862Y2172716D01*
X3706876Y2190445D01*
X3690416Y2206853D01*
X3672687Y2221890D01*
X3653790Y2235403D01*
X3633825Y2247290D01*
X3612946Y2257501D01*
X3591306Y2265934D01*
X3569004Y2272588D01*
X3546297Y2277313D01*
X3523234Y2280208D01*
X3500018Y2281174D01*
X3476802Y2280208D01*
X3453739Y2277313D01*
X3430981Y2272588D01*
X3408679Y2265934D01*
X3387039Y2257501D01*
X3366160Y2247290D01*
X3346196Y2235403D01*
X3327298Y2221890D01*
X3309569Y2206853D01*
X3293110Y2190445D01*
X3278124Y2172716D01*
X3264611Y2153767D01*
X3252724Y2133803D01*
X3242513Y2112924D01*
X3234080Y2091283D01*
X3227425Y2069033D01*
X3222650Y2046274D01*
X3219805Y2023211D01*
X3218840Y1999996D01*
X3219805Y1976780D01*
X3222650Y1953717D01*
X3227425Y1930958D01*
X3234080Y1908708D01*
X3242513Y1887067D01*
X3252724Y1866188D01*
X3264611Y1846224D01*
X3278124Y1827326D01*
X3293110Y1809546D01*
X3309569Y1793138D01*
X3327298Y1778101D01*
X3346196Y1764639D01*
X3366160Y1752701D01*
X3387039Y1742490D01*
X3408679Y1734057D01*
X3430981Y1727454D01*
X3453739Y1722678D01*
X3476802Y1719783D01*
G37*
G36*
X5500014Y1718818D02*
G01*
X5523230Y1719783D01*
X5546293Y1722678D01*
X5569000Y1727454D01*
X5591302Y1734057D01*
X5612942Y1742490D01*
X5633821Y1752701D01*
X5653786Y1764639D01*
X5672683Y1778101D01*
X5690412Y1793138D01*
X5706872Y1809546D01*
X5721858Y1827326D01*
X5735370Y1846224D01*
X5747258Y1866188D01*
X5757468Y1887067D01*
X5765952Y1908708D01*
X5772556Y1930958D01*
X5777331Y1953717D01*
X5780227Y1976780D01*
X5781192Y1999996D01*
X5780227Y2023211D01*
X5777331Y2046274D01*
X5772556Y2069033D01*
X5765952Y2091283D01*
X5757468Y2112924D01*
X5747258Y2133803D01*
X5735370Y2153767D01*
X5721858Y2172716D01*
X5706872Y2190445D01*
X5690412Y2206853D01*
X5672683Y2221890D01*
X5653786Y2235403D01*
X5633821Y2247290D01*
X5612942Y2257501D01*
X5591302Y2265934D01*
X5569000Y2272588D01*
X5546293Y2277313D01*
X5523230Y2280208D01*
X5500014Y2281174D01*
X5476798Y2280208D01*
X5453735Y2277313D01*
X5430977Y2272588D01*
X5408726Y2265934D01*
X5387035Y2257501D01*
X5366156Y2247290D01*
X5346192Y2235403D01*
X5327294Y2221890D01*
X5309565Y2206853D01*
X5293156Y2190445D01*
X5278120Y2172716D01*
X5264607Y2153767D01*
X5252720Y2133803D01*
X5242509Y2112924D01*
X5234076Y2091283D01*
X5227421Y2069033D01*
X5222646Y2046274D01*
X5219801Y2023211D01*
X5218836Y1999996D01*
X5219801Y1976780D01*
X5222646Y1953717D01*
X5227421Y1930958D01*
X5234076Y1908708D01*
X5242509Y1887067D01*
X5252720Y1866188D01*
X5264607Y1846224D01*
X5278120Y1827326D01*
X5293156Y1809546D01*
X5309565Y1793138D01*
X5327294Y1778101D01*
X5346192Y1764639D01*
X5366156Y1752701D01*
X5387035Y1742490D01*
X5408726Y1734057D01*
X5430977Y1727454D01*
X5453735Y1722678D01*
X5476798Y1719783D01*
G37*
G36*
X1999488Y1842871D02*
G01*
X2016506Y1842871D01*
X2033473Y1844751D01*
X2050084Y1848408D01*
X2066239Y1853844D01*
X2081682Y1861007D01*
X2096312Y1869795D01*
X2109876Y1880107D01*
X2122220Y1891792D01*
X2133244Y1904796D01*
X2142794Y1918868D01*
X2150770Y1933956D01*
X2157120Y1949754D01*
X2161641Y1966163D01*
X2164435Y1982978D01*
X2165350Y1999996D01*
X2164435Y2017014D01*
X2161641Y2033828D01*
X2157120Y2050237D01*
X2150770Y2066086D01*
X2142794Y2081123D01*
X2133244Y2095195D01*
X2122220Y2108200D01*
X2109876Y2119934D01*
X2096312Y2130247D01*
X2081682Y2139035D01*
X2066239Y2146147D01*
X2050084Y2151583D01*
X2033473Y2155291D01*
X2016506Y2157120D01*
X1999488Y2157120D01*
X1982520Y2155291D01*
X1965909Y2151583D01*
X1949754Y2146147D01*
X1934311Y2139035D01*
X1919681Y2130247D01*
X1906117Y2119934D01*
X1893773Y2108200D01*
X1882749Y2095195D01*
X1873199Y2081123D01*
X1865223Y2066086D01*
X1858873Y2050237D01*
X1854352Y2033828D01*
X1851609Y2017014D01*
X1850643Y1999996D01*
X1851609Y1982978D01*
X1854352Y1966163D01*
X1858873Y1949754D01*
X1865223Y1933956D01*
X1873199Y1918868D01*
X1882749Y1904796D01*
X1893773Y1891792D01*
X1906117Y1880107D01*
X1919681Y1869795D01*
X1934311Y1861007D01*
X1949754Y1853844D01*
X1965909Y1848408D01*
X1982520Y1844751D01*
G37*
G36*
X5999480Y1842871D02*
G01*
X6016498Y1842871D01*
X6033465Y1844751D01*
X6050076Y1848408D01*
X6066231Y1853844D01*
X6081674Y1861007D01*
X6096304Y1869795D01*
X6109868Y1880107D01*
X6122212Y1891792D01*
X6133236Y1904796D01*
X6142837Y1918868D01*
X6150813Y1933956D01*
X6157112Y1949754D01*
X6161633Y1966163D01*
X6164427Y1982978D01*
X6165342Y1999996D01*
X6164427Y2017014D01*
X6161633Y2033828D01*
X6157112Y2050237D01*
X6150813Y2066086D01*
X6142837Y2081123D01*
X6133236Y2095195D01*
X6122212Y2108200D01*
X6109868Y2119934D01*
X6096304Y2130247D01*
X6081674Y2139035D01*
X6066231Y2146147D01*
X6050076Y2151583D01*
X6033465Y2155291D01*
X6016498Y2157120D01*
X5999480Y2157120D01*
X5982563Y2155291D01*
X5965901Y2151583D01*
X5949746Y2146147D01*
X5934303Y2139035D01*
X5919724Y2130247D01*
X5906160Y2119934D01*
X5893765Y2108200D01*
X5882741Y2095195D01*
X5873191Y2081123D01*
X5865215Y2066086D01*
X5858916Y2050237D01*
X5854344Y2033828D01*
X5851601Y2017014D01*
X5850636Y1999996D01*
X5851601Y1982978D01*
X5854344Y1966163D01*
X5858916Y1949754D01*
X5865215Y1933956D01*
X5873191Y1918868D01*
X5882741Y1904796D01*
X5893765Y1891792D01*
X5906160Y1880107D01*
X5919724Y1869795D01*
X5934303Y1861007D01*
X5949746Y1853844D01*
X5965901Y1848408D01*
X5982563Y1844751D01*
G37*
G36*
X3999484Y1842871D02*
G01*
X4016501Y1842871D01*
X4033469Y1844751D01*
X4050080Y1848408D01*
X4066235Y1853844D01*
X4081678Y1861007D01*
X4096308Y1869795D01*
X4109872Y1880107D01*
X4122216Y1891792D01*
X4133240Y1904796D01*
X4142790Y1918868D01*
X4150817Y1933956D01*
X4157116Y1949754D01*
X4161637Y1966163D01*
X4164431Y1982978D01*
X4165346Y1999996D01*
X4164431Y2017014D01*
X4161637Y2033828D01*
X4157116Y2050237D01*
X4150817Y2066086D01*
X4142790Y2081123D01*
X4133240Y2095195D01*
X4122216Y2108200D01*
X4109872Y2119934D01*
X4096308Y2130247D01*
X4081678Y2139035D01*
X4066235Y2146147D01*
X4050080Y2151583D01*
X4033469Y2155291D01*
X4016501Y2157120D01*
X3999484Y2157120D01*
X3982567Y2155291D01*
X3965905Y2151583D01*
X3949750Y2146147D01*
X3934307Y2139035D01*
X3919677Y2130247D01*
X3906164Y2119934D01*
X3893769Y2108200D01*
X3882745Y2095195D01*
X3873195Y2081123D01*
X3865219Y2066086D01*
X3858920Y2050237D01*
X3854348Y2033828D01*
X3851605Y2017014D01*
X3850640Y1999996D01*
X3851605Y1982978D01*
X3854348Y1966163D01*
X3858920Y1949754D01*
X3865219Y1933956D01*
X3873195Y1918868D01*
X3882745Y1904796D01*
X3893769Y1891792D01*
X3906164Y1880107D01*
X3919677Y1869795D01*
X3934307Y1861007D01*
X3949750Y1853844D01*
X3965905Y1848408D01*
X3982567Y1844751D01*
G37*
G36*
X4983480Y1842871D02*
G01*
X5000498Y1842871D01*
X5017465Y1844751D01*
X5034076Y1848408D01*
X5050231Y1853844D01*
X5065674Y1861007D01*
X5080304Y1869795D01*
X5093868Y1880107D01*
X5106212Y1891792D01*
X5117236Y1904796D01*
X5126837Y1918868D01*
X5134813Y1933956D01*
X5141112Y1949754D01*
X5145633Y1966163D01*
X5148427Y1982978D01*
X5149342Y1999996D01*
X5148427Y2017014D01*
X5145633Y2033828D01*
X5141112Y2050237D01*
X5134813Y2066086D01*
X5126837Y2081123D01*
X5117033Y2095500D01*
X5115153Y2098802D01*
X5114594Y2102510D01*
X5115458Y2106218D01*
X5117642Y2109317D01*
X5120792Y2111400D01*
X5124450Y2112213D01*
X5131155Y2112416D01*
X5147208Y2114753D01*
X5162905Y2118868D01*
X5178044Y2124760D01*
X5192369Y2132330D01*
X5205780Y2141474D01*
X5218023Y2152091D01*
X5228996Y2164029D01*
X5238546Y2177186D01*
X5246522Y2191308D01*
X5252821Y2206244D01*
X5257393Y2221839D01*
X5260187Y2237790D01*
X5261102Y2253996D01*
X5260187Y2270201D01*
X5257393Y2286203D01*
X5252821Y2301748D01*
X5246522Y2316683D01*
X5238546Y2330805D01*
X5228996Y2343962D01*
X5218023Y2355900D01*
X5205780Y2366518D01*
X5192369Y2375662D01*
X5178044Y2383231D01*
X5162905Y2389124D01*
X5147208Y2393289D01*
X5131155Y2395575D01*
X5114950Y2396032D01*
X5098796Y2394661D01*
X5082895Y2391410D01*
X5067452Y2386431D01*
X5055819Y2381097D01*
X5051856Y2380183D01*
X5047843Y2380945D01*
X5044440Y2383180D01*
X4741570Y2685999D01*
X4739386Y2689301D01*
X4738624Y2693212D01*
X4738624Y5099507D01*
X4737811Y5107533D01*
X4735626Y5114747D01*
X4732070Y5121402D01*
X4726940Y5127650D01*
X4586630Y5267960D01*
X4580432Y5273090D01*
X4573727Y5276646D01*
X4566513Y5278831D01*
X4558487Y5279593D01*
X4499610Y5279593D01*
X4495901Y5280304D01*
X4492701Y5282336D01*
X4490466Y5285384D01*
X4485640Y5295392D01*
X4477867Y5307330D01*
X4468672Y5318150D01*
X4458157Y5327700D01*
X4446473Y5335828D01*
X4433874Y5342382D01*
X4420565Y5347309D01*
X4406696Y5350459D01*
X4392574Y5351830D01*
X4378350Y5351373D01*
X4364329Y5349087D01*
X4350715Y5345074D01*
X4337710Y5339334D01*
X4325569Y5331968D01*
X4314444Y5323078D01*
X4304588Y5312867D01*
X4296054Y5301488D01*
X4289094Y5289092D01*
X4283760Y5275935D01*
X4280154Y5262219D01*
X4278325Y5248097D01*
X4278325Y5233873D01*
X4280154Y5219801D01*
X4283760Y5206034D01*
X4289094Y5192877D01*
X4296054Y5180482D01*
X4304588Y5169103D01*
X4314444Y5158892D01*
X4325569Y5150053D01*
X4337710Y5142687D01*
X4350715Y5136946D01*
X4364329Y5132882D01*
X4378350Y5130647D01*
X4392574Y5130190D01*
X4406696Y5131511D01*
X4420565Y5134711D01*
X4433874Y5139588D01*
X4446473Y5146192D01*
X4458157Y5154320D01*
X4468672Y5163870D01*
X4477867Y5174691D01*
X4485640Y5186578D01*
X4490466Y5196636D01*
X4492701Y5199684D01*
X4495901Y5201716D01*
X4499610Y5202377D01*
X4538776Y5202377D01*
X4542688Y5201615D01*
X4545990Y5199430D01*
X4658410Y5086959D01*
X4660595Y5083708D01*
X4661408Y5079796D01*
X4661408Y2673502D01*
X4662170Y2665476D01*
X4664354Y2658262D01*
X4667961Y2651556D01*
X4673041Y2645359D01*
X4989880Y2328519D01*
X4992166Y2325014D01*
X4992827Y2320899D01*
X4991811Y2316835D01*
X4988102Y2309317D01*
X4982667Y2294026D01*
X4978958Y2278227D01*
X4977130Y2262124D01*
X4977130Y2245868D01*
X4978958Y2229764D01*
X4982667Y2213965D01*
X4988102Y2198674D01*
X4995265Y2184146D01*
X5002580Y2172766D01*
X5004104Y2168702D01*
X5003800Y2164384D01*
X5001717Y2160625D01*
X4998262Y2158034D01*
X4994046Y2157120D01*
X4983480Y2157120D01*
X4966563Y2155291D01*
X4949901Y2151583D01*
X4933746Y2146147D01*
X4918303Y2139035D01*
X4903724Y2130247D01*
X4890160Y2119934D01*
X4877765Y2108200D01*
X4866741Y2095195D01*
X4857191Y2081123D01*
X4849215Y2066086D01*
X4842916Y2050237D01*
X4838344Y2033828D01*
X4835601Y2017014D01*
X4834636Y1999996D01*
X4835601Y1982978D01*
X4838344Y1966163D01*
X4842916Y1949754D01*
X4849215Y1933956D01*
X4857191Y1918868D01*
X4866741Y1904796D01*
X4877765Y1891792D01*
X4890160Y1880107D01*
X4903724Y1869795D01*
X4918303Y1861007D01*
X4933746Y1853844D01*
X4949901Y1848408D01*
X4966563Y1844751D01*
G37*
G36*
X2983484Y1842871D02*
G01*
X3000502Y1842871D01*
X3017469Y1844751D01*
X3034080Y1848408D01*
X3050235Y1853844D01*
X3065678Y1861007D01*
X3080308Y1869795D01*
X3093872Y1880107D01*
X3106216Y1891792D01*
X3117240Y1904796D01*
X3126790Y1918868D01*
X3134817Y1933956D01*
X3141116Y1949754D01*
X3145637Y1966163D01*
X3148431Y1982978D01*
X3149346Y1999996D01*
X3148431Y2017014D01*
X3145637Y2033828D01*
X3141116Y2050237D01*
X3134817Y2066086D01*
X3126790Y2081123D01*
X3117037Y2095500D01*
X3115157Y2098802D01*
X3114598Y2102510D01*
X3115462Y2106218D01*
X3117646Y2109317D01*
X3120796Y2111400D01*
X3124454Y2112213D01*
X3131159Y2112416D01*
X3147212Y2114753D01*
X3162909Y2118868D01*
X3178048Y2124760D01*
X3192373Y2132330D01*
X3205784Y2141474D01*
X3218027Y2152091D01*
X3229000Y2164029D01*
X3238550Y2177186D01*
X3246526Y2191308D01*
X3252825Y2206244D01*
X3257397Y2221839D01*
X3260191Y2237790D01*
X3261106Y2253996D01*
X3260191Y2270201D01*
X3257397Y2286203D01*
X3252825Y2301748D01*
X3246120Y2317546D01*
X3245307Y2321458D01*
X3246069Y2325370D01*
X3248304Y2328672D01*
X3878021Y2958439D01*
X3881323Y2960624D01*
X3885184Y2961386D01*
X4199483Y2961386D01*
X4207510Y2962198D01*
X4214774Y2964383D01*
X4221429Y2967939D01*
X4227677Y2973070D01*
X4415942Y3161334D01*
X4421073Y3167583D01*
X4424629Y3174238D01*
X4426813Y3181502D01*
X4427626Y3189478D01*
X4427626Y4876190D01*
X4428286Y4879797D01*
X4430166Y4882946D01*
X4433112Y4885232D01*
X4446473Y4892192D01*
X4458157Y4900320D01*
X4468672Y4909870D01*
X4477867Y4920691D01*
X4485640Y4932578D01*
X4491786Y4945380D01*
X4496257Y4958892D01*
X4499000Y4972812D01*
X4499864Y4986985D01*
X4499000Y5001158D01*
X4496257Y5015128D01*
X4491786Y5028590D01*
X4485640Y5041392D01*
X4477867Y5053330D01*
X4468672Y5064150D01*
X4458157Y5073700D01*
X4446473Y5081828D01*
X4433874Y5088382D01*
X4420565Y5093309D01*
X4406696Y5096459D01*
X4392574Y5097830D01*
X4378350Y5097373D01*
X4364329Y5095087D01*
X4350715Y5091074D01*
X4337710Y5085334D01*
X4325569Y5077968D01*
X4314444Y5069078D01*
X4304588Y5058867D01*
X4296054Y5047488D01*
X4289094Y5035092D01*
X4283760Y5021935D01*
X4280154Y5008219D01*
X4278325Y4994097D01*
X4278325Y4979873D01*
X4280154Y4965801D01*
X4283760Y4952034D01*
X4289094Y4938877D01*
X4296054Y4926482D01*
X4304588Y4915103D01*
X4314444Y4904892D01*
X4325569Y4896053D01*
X4337710Y4888687D01*
X4344365Y4885740D01*
X4347514Y4883505D01*
X4349648Y4880254D01*
X4350410Y4876444D01*
X4350410Y3209188D01*
X4349597Y3205327D01*
X4347413Y3202025D01*
X4186986Y3041599D01*
X4183684Y3039364D01*
X4179824Y3038602D01*
X3865473Y3038602D01*
X3857498Y3037840D01*
X3850233Y3035604D01*
X3843578Y3032048D01*
X3837330Y3026968D01*
X3193542Y2383180D01*
X3189986Y2380843D01*
X3185718Y2380183D01*
X3181604Y2381351D01*
X3178048Y2383231D01*
X3162909Y2389124D01*
X3147212Y2393289D01*
X3131159Y2395575D01*
X3114954Y2396032D01*
X3098800Y2394661D01*
X3082899Y2391410D01*
X3067456Y2386431D01*
X3052673Y2379675D01*
X3038805Y2371293D01*
X3025952Y2361387D01*
X3014319Y2350058D01*
X3004058Y2337511D01*
X2995269Y2323896D01*
X2988106Y2309317D01*
X2982671Y2294026D01*
X2978962Y2278227D01*
X2977134Y2262124D01*
X2977134Y2245868D01*
X2978962Y2229764D01*
X2982671Y2213965D01*
X2988106Y2198674D01*
X2995269Y2184146D01*
X3002584Y2172766D01*
X3004058Y2168702D01*
X3003753Y2164384D01*
X3001721Y2160625D01*
X2998266Y2158034D01*
X2994050Y2157120D01*
X2983484Y2157120D01*
X2966567Y2155291D01*
X2949905Y2151583D01*
X2933750Y2146147D01*
X2918307Y2139035D01*
X2903677Y2130247D01*
X2890164Y2119934D01*
X2877769Y2108200D01*
X2866745Y2095195D01*
X2857195Y2081123D01*
X2849219Y2066086D01*
X2842920Y2050237D01*
X2838348Y2033828D01*
X2835605Y2017014D01*
X2834640Y1999996D01*
X2835605Y1982978D01*
X2838348Y1966163D01*
X2842920Y1949754D01*
X2849219Y1933956D01*
X2857195Y1918868D01*
X2866745Y1904796D01*
X2877769Y1891792D01*
X2890164Y1880107D01*
X2903677Y1869795D01*
X2918307Y1861007D01*
X2933750Y1853844D01*
X2949905Y1848408D01*
X2966567Y1844751D01*
G37*
G36*
X983487Y1842871D02*
G01*
X1000506Y1842871D01*
X1017473Y1844751D01*
X1034084Y1848408D01*
X1050239Y1853844D01*
X1065682Y1861007D01*
X1080312Y1869795D01*
X1093876Y1880107D01*
X1106220Y1891792D01*
X1117244Y1904796D01*
X1126794Y1918868D01*
X1134821Y1933956D01*
X1141120Y1949754D01*
X1145641Y1966163D01*
X1148435Y1982978D01*
X1149350Y1999996D01*
X1148435Y2017014D01*
X1145641Y2033828D01*
X1141120Y2050237D01*
X1134821Y2066086D01*
X1126794Y2081123D01*
X1116990Y2095500D01*
X1115161Y2098802D01*
X1114602Y2102510D01*
X1115466Y2106218D01*
X1117650Y2109317D01*
X1120749Y2111400D01*
X1124458Y2112213D01*
X1131163Y2112416D01*
X1147216Y2114753D01*
X1162913Y2118868D01*
X1178052Y2124760D01*
X1192377Y2132330D01*
X1205788Y2141474D01*
X1218031Y2152091D01*
X1229004Y2164029D01*
X1238554Y2177186D01*
X1246530Y2191308D01*
X1252829Y2206244D01*
X1257401Y2221839D01*
X1260144Y2237790D01*
X1261110Y2253996D01*
X1260144Y2270201D01*
X1257401Y2286203D01*
X1252829Y2301748D01*
X1246530Y2316683D01*
X1238554Y2330805D01*
X1229004Y2343962D01*
X1218031Y2355900D01*
X1205788Y2366518D01*
X1192377Y2375662D01*
X1178052Y2383231D01*
X1162913Y2389124D01*
X1146302Y2393442D01*
X1142339Y2395474D01*
X1139647Y2398979D01*
X1138682Y2403297D01*
X1138682Y2779877D01*
X1139444Y2783789D01*
X1141679Y2787091D01*
X1413052Y3058464D01*
X1416354Y3060700D01*
X1420266Y3061462D01*
X2299462Y3061462D01*
X2307488Y3062274D01*
X2314702Y3064459D01*
X2321407Y3068015D01*
X2327605Y3073146D01*
X2426970Y3172510D01*
X2432100Y3178708D01*
X2435656Y3185414D01*
X2437841Y3192627D01*
X2438654Y3200654D01*
X2438654Y5009743D01*
X2439416Y5013655D01*
X2441651Y5016957D01*
X2560116Y5135422D01*
X2563469Y5137658D01*
X2567432Y5138369D01*
X2586329Y5132882D01*
X2600350Y5130647D01*
X2614574Y5130190D01*
X2628696Y5131511D01*
X2642565Y5134711D01*
X2655874Y5139588D01*
X2668473Y5146192D01*
X2680157Y5154320D01*
X2690672Y5163870D01*
X2699867Y5174691D01*
X2707640Y5186578D01*
X2713786Y5199380D01*
X2718257Y5212892D01*
X2721000Y5226812D01*
X2721864Y5240985D01*
X2721000Y5255158D01*
X2718257Y5269128D01*
X2713786Y5282590D01*
X2707640Y5295392D01*
X2699867Y5307330D01*
X2690672Y5318150D01*
X2680157Y5327700D01*
X2668473Y5335828D01*
X2655874Y5342382D01*
X2642565Y5347309D01*
X2628696Y5350459D01*
X2614574Y5351830D01*
X2600350Y5351373D01*
X2586329Y5349087D01*
X2572715Y5345074D01*
X2559710Y5339334D01*
X2547569Y5331968D01*
X2536444Y5323078D01*
X2526588Y5312867D01*
X2518054Y5301488D01*
X2511094Y5289092D01*
X2505760Y5275935D01*
X2502154Y5262219D01*
X2500325Y5248097D01*
X2500325Y5233873D01*
X2502154Y5219801D01*
X2505760Y5206034D01*
X2507792Y5201056D01*
X2508504Y5197195D01*
X2507742Y5193334D01*
X2505557Y5190083D01*
X2373122Y5057597D01*
X2367991Y5051399D01*
X2364435Y5044694D01*
X2362250Y5037480D01*
X2361438Y5029454D01*
X2361438Y3220364D01*
X2360676Y3216452D01*
X2358440Y3213150D01*
X2286965Y3141675D01*
X2283663Y3139440D01*
X2279751Y3138678D01*
X1400556Y3138678D01*
X1392529Y3137865D01*
X1385316Y3135680D01*
X1378610Y3132124D01*
X1372412Y3126994D01*
X1073150Y2827731D01*
X1068019Y2821533D01*
X1064463Y2814828D01*
X1062278Y2807614D01*
X1061466Y2799588D01*
X1061466Y2390190D01*
X1060754Y2386431D01*
X1058672Y2383180D01*
X1055522Y2380996D01*
X1052677Y2379675D01*
X1038809Y2371293D01*
X1025956Y2361387D01*
X1014323Y2350058D01*
X1004062Y2337511D01*
X995273Y2323896D01*
X988110Y2309317D01*
X982675Y2294026D01*
X978966Y2278227D01*
X977137Y2262124D01*
X977137Y2245868D01*
X978966Y2229764D01*
X982675Y2213965D01*
X988110Y2198674D01*
X995273Y2184146D01*
X1002588Y2172766D01*
X1004062Y2168702D01*
X1003757Y2164384D01*
X1001725Y2160625D01*
X998270Y2158034D01*
X994003Y2157120D01*
X983487Y2157120D01*
X966520Y2155291D01*
X949909Y2151583D01*
X933754Y2146147D01*
X918311Y2139035D01*
X903681Y2130247D01*
X890117Y2119934D01*
X877773Y2108200D01*
X866749Y2095195D01*
X857199Y2081123D01*
X849223Y2066086D01*
X842873Y2050237D01*
X838352Y2033828D01*
X835609Y2017014D01*
X834644Y1999996D01*
X835609Y1982978D01*
X838352Y1966163D01*
X842873Y1949754D01*
X849223Y1933956D01*
X857199Y1918868D01*
X866749Y1904796D01*
X877773Y1891792D01*
X890117Y1880107D01*
X903681Y1869795D01*
X918311Y1861007D01*
X933754Y1853844D01*
X949909Y1848408D01*
X966520Y1844751D01*
G37*
G36*
X4392574Y9702190D02*
G01*
X4406696Y9703511D01*
X4420565Y9706711D01*
X4433874Y9711588D01*
X4446473Y9718192D01*
X4458157Y9726320D01*
X4468672Y9735870D01*
X4477867Y9746691D01*
X4485640Y9758578D01*
X4491786Y9771380D01*
X4496257Y9784892D01*
X4499000Y9798812D01*
X4499864Y9812985D01*
X4499000Y9827158D01*
X4496257Y9841128D01*
X4491786Y9854590D01*
X4485640Y9867392D01*
X4477867Y9879330D01*
X4468672Y9890150D01*
X4458157Y9899700D01*
X4446473Y9907828D01*
X4433874Y9914382D01*
X4420565Y9919309D01*
X4406696Y9922459D01*
X4392574Y9923830D01*
X4378350Y9923373D01*
X4364329Y9921087D01*
X4350715Y9917074D01*
X4337710Y9911334D01*
X4325569Y9903968D01*
X4314444Y9895078D01*
X4304588Y9884867D01*
X4296054Y9873488D01*
X4289094Y9861092D01*
X4283760Y9847935D01*
X4280154Y9834219D01*
X4278325Y9820097D01*
X4278325Y9805873D01*
X4280154Y9791801D01*
X4283760Y9778034D01*
X4289094Y9764877D01*
X4296054Y9752482D01*
X4304588Y9741103D01*
X4314444Y9730892D01*
X4325569Y9722053D01*
X4337710Y9714687D01*
X4350715Y9708946D01*
X4364329Y9704882D01*
X4378350Y9702647D01*
G37*
G36*
X3765194Y9684359D02*
G01*
X3779774Y9684359D01*
X3794201Y9686188D01*
X3808272Y9689795D01*
X3821836Y9695129D01*
X3834587Y9702139D01*
X3846372Y9710724D01*
X3856939Y9720681D01*
X3866235Y9731908D01*
X3874008Y9744202D01*
X3880205Y9757359D01*
X3884726Y9771176D01*
X3887470Y9785502D01*
X3888384Y9799980D01*
X3887470Y9814509D01*
X3884726Y9828834D01*
X3880205Y9842652D01*
X3874008Y9855809D01*
X3866235Y9868103D01*
X3856939Y9879330D01*
X3846372Y9889286D01*
X3834587Y9897821D01*
X3821836Y9904882D01*
X3808272Y9910216D01*
X3794201Y9913823D01*
X3779774Y9915652D01*
X3765194Y9915652D01*
X3750767Y9913823D01*
X3736695Y9910216D01*
X3723132Y9904882D01*
X3710381Y9897821D01*
X3698595Y9889286D01*
X3688029Y9879330D01*
X3678732Y9868103D01*
X3670960Y9855809D01*
X3664762Y9842652D01*
X3660241Y9828834D01*
X3657498Y9814509D01*
X3656584Y9799980D01*
X3657498Y9785502D01*
X3660241Y9771176D01*
X3664762Y9757359D01*
X3670960Y9744202D01*
X3678732Y9731908D01*
X3688029Y9720681D01*
X3698595Y9710724D01*
X3710381Y9702139D01*
X3723132Y9695129D01*
X3736695Y9689795D01*
X3750767Y9686188D01*
G37*
G36*
X1689557Y2381453D02*
G01*
X1689557Y2443530D01*
X1627581Y2443530D01*
X1630273Y2438146D01*
X1639062Y2424480D01*
X1649323Y2411933D01*
X1660956Y2400604D01*
X1673809Y2390698D01*
X1687677Y2382316D01*
G37*
G36*
X3689553Y2381453D02*
G01*
X3689553Y2443530D01*
X3627628Y2443530D01*
X3630269Y2438146D01*
X3639058Y2424480D01*
X3649319Y2411933D01*
X3660952Y2400604D01*
X3673805Y2390698D01*
X3687673Y2382316D01*
G37*
G36*
X5689549Y2381453D02*
G01*
X5689549Y2443530D01*
X5627624Y2443530D01*
X5630265Y2438146D01*
X5639054Y2424480D01*
X5649315Y2411933D01*
X5660948Y2400604D01*
X5673801Y2390698D01*
X5687669Y2382316D01*
G37*
G36*
X1818436Y2381605D02*
G01*
X1827377Y2386330D01*
X1840788Y2395474D01*
X1853031Y2406091D01*
X1864004Y2418029D01*
X1873554Y2431186D01*
X1880514Y2443530D01*
X1818436Y2443530D01*
G37*
G36*
X5818428Y2381605D02*
G01*
X5827369Y2386330D01*
X5840780Y2395474D01*
X5853023Y2406091D01*
X5863996Y2418029D01*
X5873546Y2431186D01*
X5880506Y2443530D01*
X5818428Y2443530D01*
G37*
G36*
X3818432Y2381605D02*
G01*
X3827373Y2386330D01*
X3840784Y2395474D01*
X3853027Y2406091D01*
X3864000Y2418029D01*
X3873550Y2431186D01*
X3880510Y2443530D01*
X3818432Y2443530D01*
G37*
G36*
X1818436Y2572461D02*
G01*
X1880514Y2572461D01*
X1873554Y2584805D01*
X1864004Y2597962D01*
X1853031Y2609900D01*
X1840788Y2620518D01*
X1827377Y2629662D01*
X1818436Y2634386D01*
G37*
G36*
X5818428Y2572461D02*
G01*
X5880506Y2572461D01*
X5873546Y2584805D01*
X5863996Y2597962D01*
X5853023Y2609900D01*
X5840780Y2620518D01*
X5827369Y2629662D01*
X5818428Y2634386D01*
G37*
G36*
X3818432Y2572461D02*
G01*
X3880510Y2572461D01*
X3873550Y2584805D01*
X3864000Y2597962D01*
X3853027Y2609900D01*
X3840784Y2620518D01*
X3827373Y2629662D01*
X3818432Y2634386D01*
G37*
G36*
X1627581Y2572461D02*
G01*
X1689557Y2572461D01*
X1689557Y2634538D01*
X1687677Y2633675D01*
X1673809Y2625293D01*
X1660956Y2615387D01*
X1649323Y2604058D01*
X1639062Y2591511D01*
X1630273Y2577896D01*
G37*
G36*
X3627628Y2572461D02*
G01*
X3689553Y2572461D01*
X3689553Y2634538D01*
X3687673Y2633675D01*
X3673805Y2625293D01*
X3660952Y2615387D01*
X3649319Y2604058D01*
X3639058Y2591511D01*
X3630269Y2577896D01*
G37*
G36*
X5627624Y2572461D02*
G01*
X5689549Y2572461D01*
X5689549Y2634538D01*
X5687669Y2633675D01*
X5673801Y2625293D01*
X5660948Y2615387D01*
X5649315Y2604058D01*
X5639054Y2591511D01*
X5630265Y2577896D01*
G37*
G36*
X1500022Y3718814D02*
G01*
X1523238Y3719779D01*
X1546301Y3722674D01*
X1569008Y3727450D01*
X1591310Y3734054D01*
X1612950Y3742537D01*
X1633829Y3752697D01*
X1653793Y3764635D01*
X1672691Y3778097D01*
X1690420Y3793134D01*
X1706880Y3809593D01*
X1721866Y3827322D01*
X1735378Y3846220D01*
X1747266Y3866184D01*
X1757476Y3887063D01*
X1765909Y3908704D01*
X1772564Y3930954D01*
X1777339Y3953713D01*
X1780184Y3976776D01*
X1781149Y3999992D01*
X1780184Y4023207D01*
X1777339Y4046270D01*
X1772564Y4069029D01*
X1765909Y4091279D01*
X1757476Y4112971D01*
X1747266Y4133799D01*
X1735378Y4153763D01*
X1721866Y4172712D01*
X1706880Y4190441D01*
X1690420Y4206849D01*
X1672691Y4221886D01*
X1653793Y4235399D01*
X1633829Y4247286D01*
X1612950Y4257497D01*
X1591310Y4265930D01*
X1569008Y4272584D01*
X1546301Y4277360D01*
X1523238Y4280204D01*
X1500022Y4281170D01*
X1476756Y4280204D01*
X1453743Y4277360D01*
X1430985Y4272584D01*
X1408684Y4265930D01*
X1387043Y4257497D01*
X1366164Y4247286D01*
X1346200Y4235399D01*
X1327302Y4221886D01*
X1309573Y4206849D01*
X1293114Y4190441D01*
X1278128Y4172712D01*
X1264615Y4153763D01*
X1252728Y4133799D01*
X1242517Y4112971D01*
X1234084Y4091279D01*
X1227429Y4069029D01*
X1222654Y4046270D01*
X1219809Y4023207D01*
X1218844Y3999992D01*
X1219809Y3976776D01*
X1222654Y3953713D01*
X1227429Y3930954D01*
X1234084Y3908704D01*
X1242517Y3887063D01*
X1252728Y3866184D01*
X1264615Y3846220D01*
X1278128Y3827322D01*
X1293114Y3809593D01*
X1309573Y3793134D01*
X1327302Y3778097D01*
X1346200Y3764635D01*
X1366164Y3752697D01*
X1387043Y3742537D01*
X1408684Y3734054D01*
X1430985Y3727450D01*
X1453743Y3722674D01*
X1476756Y3719779D01*
G37*
G36*
X5500014Y3718814D02*
G01*
X5523230Y3719779D01*
X5546293Y3722674D01*
X5569000Y3727450D01*
X5591302Y3734054D01*
X5612942Y3742537D01*
X5633821Y3752697D01*
X5653786Y3764635D01*
X5672683Y3778097D01*
X5690412Y3793134D01*
X5706872Y3809593D01*
X5721858Y3827322D01*
X5735370Y3846220D01*
X5747258Y3866184D01*
X5757468Y3887063D01*
X5765952Y3908704D01*
X5772556Y3930954D01*
X5777331Y3953713D01*
X5780227Y3976776D01*
X5781192Y3999992D01*
X5780227Y4023207D01*
X5777331Y4046270D01*
X5772556Y4069029D01*
X5765952Y4091279D01*
X5757468Y4112971D01*
X5747258Y4133799D01*
X5735370Y4153763D01*
X5721858Y4172712D01*
X5706872Y4190441D01*
X5690412Y4206849D01*
X5672683Y4221886D01*
X5653786Y4235399D01*
X5633821Y4247286D01*
X5612942Y4257497D01*
X5591302Y4265930D01*
X5569000Y4272584D01*
X5546293Y4277360D01*
X5523230Y4280204D01*
X5500014Y4281170D01*
X5476798Y4280204D01*
X5453735Y4277360D01*
X5430977Y4272584D01*
X5408726Y4265930D01*
X5387035Y4257497D01*
X5366156Y4247286D01*
X5346192Y4235399D01*
X5327294Y4221886D01*
X5309565Y4206849D01*
X5293156Y4190441D01*
X5278120Y4172712D01*
X5264607Y4153763D01*
X5252720Y4133799D01*
X5242509Y4112971D01*
X5234076Y4091279D01*
X5227421Y4069029D01*
X5222646Y4046270D01*
X5219801Y4023207D01*
X5218836Y3999992D01*
X5219801Y3976776D01*
X5222646Y3953713D01*
X5227421Y3930954D01*
X5234076Y3908704D01*
X5242509Y3887063D01*
X5252720Y3866184D01*
X5264607Y3846220D01*
X5278120Y3827322D01*
X5293156Y3809593D01*
X5309565Y3793134D01*
X5327294Y3778097D01*
X5346192Y3764635D01*
X5366156Y3752697D01*
X5387035Y3742537D01*
X5408726Y3734054D01*
X5430977Y3727450D01*
X5453735Y3722674D01*
X5476798Y3719779D01*
G37*
G36*
X3500018Y3718814D02*
G01*
X3523234Y3719779D01*
X3546297Y3722674D01*
X3569004Y3727450D01*
X3591306Y3734054D01*
X3612946Y3742537D01*
X3633825Y3752697D01*
X3653790Y3764635D01*
X3672687Y3778097D01*
X3690416Y3793134D01*
X3706876Y3809593D01*
X3721862Y3827322D01*
X3735374Y3846220D01*
X3747262Y3866184D01*
X3757472Y3887063D01*
X3765956Y3908704D01*
X3772560Y3930954D01*
X3777335Y3953713D01*
X3780231Y3976776D01*
X3781145Y3999992D01*
X3780231Y4023207D01*
X3777335Y4046270D01*
X3772560Y4069029D01*
X3765956Y4091279D01*
X3757472Y4112971D01*
X3747262Y4133799D01*
X3735374Y4153763D01*
X3721862Y4172712D01*
X3706876Y4190441D01*
X3690416Y4206849D01*
X3672687Y4221886D01*
X3653790Y4235399D01*
X3633825Y4247286D01*
X3612946Y4257497D01*
X3591306Y4265930D01*
X3569004Y4272584D01*
X3546297Y4277360D01*
X3523234Y4280204D01*
X3500018Y4281170D01*
X3476802Y4280204D01*
X3453739Y4277360D01*
X3430981Y4272584D01*
X3408679Y4265930D01*
X3387039Y4257497D01*
X3366160Y4247286D01*
X3346196Y4235399D01*
X3327298Y4221886D01*
X3309569Y4206849D01*
X3293110Y4190441D01*
X3278124Y4172712D01*
X3264611Y4153763D01*
X3252724Y4133799D01*
X3242513Y4112971D01*
X3234080Y4091279D01*
X3227425Y4069029D01*
X3222650Y4046270D01*
X3219805Y4023207D01*
X3218840Y3999992D01*
X3219805Y3976776D01*
X3222650Y3953713D01*
X3227425Y3930954D01*
X3234080Y3908704D01*
X3242513Y3887063D01*
X3252724Y3866184D01*
X3264611Y3846220D01*
X3278124Y3827322D01*
X3293110Y3809593D01*
X3309569Y3793134D01*
X3327298Y3778097D01*
X3346196Y3764635D01*
X3366160Y3752697D01*
X3387039Y3742537D01*
X3408679Y3734054D01*
X3430981Y3727450D01*
X3453739Y3722674D01*
X3476802Y3719779D01*
G37*
G36*
X1999488Y3842918D02*
G01*
X2016506Y3842918D01*
X2033473Y3844747D01*
X2050084Y3848404D01*
X2066239Y3853840D01*
X2081682Y3861003D01*
X2096312Y3869791D01*
X2109876Y3880104D01*
X2122220Y3891787D01*
X2133244Y3904792D01*
X2142794Y3918864D01*
X2150770Y3933951D01*
X2157120Y3949750D01*
X2161641Y3966159D01*
X2164435Y3982974D01*
X2165350Y3999992D01*
X2164435Y4017010D01*
X2161641Y4033824D01*
X2157120Y4050233D01*
X2150770Y4066082D01*
X2142794Y4081119D01*
X2133244Y4095242D01*
X2122220Y4108196D01*
X2109876Y4119930D01*
X2096312Y4130243D01*
X2081682Y4139031D01*
X2066239Y4146143D01*
X2050084Y4151629D01*
X2033473Y4155287D01*
X2016506Y4157116D01*
X1999488Y4157116D01*
X1982520Y4155287D01*
X1965909Y4151629D01*
X1949754Y4146143D01*
X1934311Y4139031D01*
X1919681Y4130243D01*
X1906117Y4119930D01*
X1893773Y4108196D01*
X1882749Y4095242D01*
X1873199Y4081119D01*
X1865223Y4066082D01*
X1858873Y4050233D01*
X1854352Y4033824D01*
X1851609Y4017010D01*
X1850643Y3999992D01*
X1851609Y3982974D01*
X1854352Y3966159D01*
X1858873Y3949750D01*
X1865223Y3933951D01*
X1873199Y3918864D01*
X1882749Y3904792D01*
X1893773Y3891787D01*
X1906117Y3880104D01*
X1919681Y3869791D01*
X1934311Y3861003D01*
X1949754Y3853840D01*
X1965909Y3848404D01*
X1982520Y3844747D01*
G37*
G36*
X3999484Y3842918D02*
G01*
X4016501Y3842918D01*
X4033469Y3844747D01*
X4050080Y3848404D01*
X4066235Y3853840D01*
X4081678Y3861003D01*
X4096308Y3869791D01*
X4109872Y3880104D01*
X4122216Y3891787D01*
X4133240Y3904792D01*
X4142790Y3918864D01*
X4150817Y3933951D01*
X4157116Y3949750D01*
X4161637Y3966159D01*
X4164431Y3982974D01*
X4165346Y3999992D01*
X4164431Y4017010D01*
X4161637Y4033824D01*
X4157116Y4050233D01*
X4150817Y4066082D01*
X4142790Y4081119D01*
X4133240Y4095242D01*
X4122216Y4108196D01*
X4109872Y4119930D01*
X4096308Y4130243D01*
X4081678Y4139031D01*
X4066235Y4146143D01*
X4050080Y4151629D01*
X4033469Y4155287D01*
X4016501Y4157116D01*
X3999484Y4157116D01*
X3982567Y4155287D01*
X3965905Y4151629D01*
X3949750Y4146143D01*
X3934307Y4139031D01*
X3919677Y4130243D01*
X3906164Y4119930D01*
X3893769Y4108196D01*
X3882745Y4095242D01*
X3873195Y4081119D01*
X3865219Y4066082D01*
X3858920Y4050233D01*
X3854348Y4033824D01*
X3851605Y4017010D01*
X3850640Y3999992D01*
X3851605Y3982974D01*
X3854348Y3966159D01*
X3858920Y3949750D01*
X3865219Y3933951D01*
X3873195Y3918864D01*
X3882745Y3904792D01*
X3893769Y3891787D01*
X3906164Y3880104D01*
X3919677Y3869791D01*
X3934307Y3861003D01*
X3949750Y3853840D01*
X3965905Y3848404D01*
X3982567Y3844747D01*
G37*
G36*
X5999480Y3842918D02*
G01*
X6016498Y3842918D01*
X6033465Y3844747D01*
X6050076Y3848404D01*
X6066231Y3853840D01*
X6081674Y3861003D01*
X6096304Y3869791D01*
X6109868Y3880104D01*
X6122212Y3891787D01*
X6133236Y3904792D01*
X6142837Y3918864D01*
X6150813Y3933951D01*
X6157112Y3949750D01*
X6161633Y3966159D01*
X6164427Y3982974D01*
X6165342Y3999992D01*
X6164427Y4017010D01*
X6161633Y4033824D01*
X6157112Y4050233D01*
X6150813Y4066082D01*
X6142837Y4081119D01*
X6133236Y4095242D01*
X6122212Y4108196D01*
X6109868Y4119930D01*
X6096304Y4130243D01*
X6081674Y4139031D01*
X6066231Y4146143D01*
X6050076Y4151629D01*
X6033465Y4155287D01*
X6016498Y4157116D01*
X5999480Y4157116D01*
X5982563Y4155287D01*
X5965901Y4151629D01*
X5949746Y4146143D01*
X5934303Y4139031D01*
X5919724Y4130243D01*
X5906160Y4119930D01*
X5893765Y4108196D01*
X5882741Y4095242D01*
X5873191Y4081119D01*
X5865215Y4066082D01*
X5858916Y4050233D01*
X5854344Y4033824D01*
X5851601Y4017010D01*
X5850636Y3999992D01*
X5851601Y3982974D01*
X5854344Y3966159D01*
X5858916Y3949750D01*
X5865215Y3933951D01*
X5873191Y3918864D01*
X5882741Y3904792D01*
X5893765Y3891787D01*
X5906160Y3880104D01*
X5919724Y3869791D01*
X5934303Y3861003D01*
X5949746Y3853840D01*
X5965901Y3848404D01*
X5982563Y3844747D01*
G37*
G36*
X2983484Y3842918D02*
G01*
X3000502Y3842918D01*
X3017469Y3844747D01*
X3034080Y3848404D01*
X3050235Y3853840D01*
X3065678Y3861003D01*
X3080308Y3869791D01*
X3093872Y3880104D01*
X3106216Y3891787D01*
X3117240Y3904792D01*
X3126790Y3918864D01*
X3134817Y3933951D01*
X3141116Y3949750D01*
X3145637Y3966159D01*
X3148431Y3982974D01*
X3149346Y3999992D01*
X3148431Y4017010D01*
X3145637Y4033824D01*
X3141116Y4050233D01*
X3134817Y4066082D01*
X3126790Y4081119D01*
X3117037Y4095496D01*
X3115157Y4098798D01*
X3114598Y4102557D01*
X3115462Y4106214D01*
X3117646Y4109313D01*
X3120796Y4111447D01*
X3124454Y4112260D01*
X3131159Y4112412D01*
X3147212Y4114749D01*
X3162909Y4118864D01*
X3178048Y4124756D01*
X3192373Y4132326D01*
X3205784Y4141470D01*
X3218027Y4152087D01*
X3229000Y4164076D01*
X3238550Y4177182D01*
X3246526Y4191304D01*
X3252825Y4206240D01*
X3257397Y4221835D01*
X3260191Y4237786D01*
X3261106Y4253992D01*
X3260191Y4270197D01*
X3257397Y4286199D01*
X3252825Y4301744D01*
X3246526Y4316679D01*
X3238550Y4330801D01*
X3229000Y4343958D01*
X3218027Y4355896D01*
X3205784Y4366514D01*
X3192373Y4375708D01*
X3178048Y4383278D01*
X3162909Y4389120D01*
X3147212Y4393285D01*
X3131159Y4395571D01*
X3114954Y4396028D01*
X3098800Y4394657D01*
X3082899Y4391406D01*
X3067456Y4386427D01*
X3055823Y4381093D01*
X3051860Y4380179D01*
X3047847Y4380941D01*
X3044444Y4383176D01*
X2652572Y4774996D01*
X2650388Y4778298D01*
X2649626Y4782210D01*
X2649626Y4876190D01*
X2650286Y4879797D01*
X2652166Y4882946D01*
X2655112Y4885232D01*
X2668473Y4892192D01*
X2680157Y4900320D01*
X2690672Y4909870D01*
X2699867Y4920691D01*
X2707640Y4932578D01*
X2713786Y4945380D01*
X2718257Y4958892D01*
X2721000Y4972812D01*
X2721864Y4986985D01*
X2721000Y5001158D01*
X2718257Y5015128D01*
X2713786Y5028590D01*
X2707640Y5041392D01*
X2699867Y5053330D01*
X2690672Y5064150D01*
X2680157Y5073700D01*
X2668473Y5081828D01*
X2655874Y5088382D01*
X2642565Y5093309D01*
X2628696Y5096459D01*
X2614574Y5097830D01*
X2600350Y5097373D01*
X2586329Y5095087D01*
X2572715Y5091074D01*
X2559710Y5085334D01*
X2547569Y5077968D01*
X2536444Y5069078D01*
X2526588Y5058867D01*
X2518054Y5047488D01*
X2511094Y5035092D01*
X2505760Y5021935D01*
X2502154Y5008219D01*
X2500325Y4994097D01*
X2500325Y4979873D01*
X2502154Y4965801D01*
X2505760Y4952034D01*
X2511094Y4938877D01*
X2518054Y4926482D01*
X2526588Y4915103D01*
X2536444Y4904892D01*
X2547569Y4896053D01*
X2559710Y4888687D01*
X2566365Y4885740D01*
X2569514Y4883505D01*
X2571648Y4880254D01*
X2572410Y4876444D01*
X2572410Y4762500D01*
X2573172Y4754473D01*
X2575356Y4747260D01*
X2578963Y4740554D01*
X2584043Y4734356D01*
X2989884Y4328515D01*
X2992170Y4325010D01*
X2992831Y4320895D01*
X2991815Y4316831D01*
X2988106Y4309313D01*
X2982671Y4294022D01*
X2978962Y4278223D01*
X2977134Y4262120D01*
X2977134Y4245914D01*
X2978962Y4229760D01*
X2982671Y4213961D01*
X2988106Y4198670D01*
X2995269Y4184142D01*
X3002584Y4172762D01*
X3004058Y4168698D01*
X3003753Y4164431D01*
X3001721Y4160621D01*
X2998266Y4158030D01*
X2994050Y4157116D01*
X2983484Y4157116D01*
X2966567Y4155287D01*
X2949905Y4151629D01*
X2933750Y4146143D01*
X2918307Y4139031D01*
X2903677Y4130243D01*
X2890164Y4119930D01*
X2877769Y4108196D01*
X2866745Y4095242D01*
X2857195Y4081119D01*
X2849219Y4066082D01*
X2842920Y4050233D01*
X2838348Y4033824D01*
X2835605Y4017010D01*
X2834640Y3999992D01*
X2835605Y3982974D01*
X2838348Y3966159D01*
X2842920Y3949750D01*
X2849219Y3933951D01*
X2857195Y3918864D01*
X2866745Y3904792D01*
X2877769Y3891787D01*
X2890164Y3880104D01*
X2903677Y3869791D01*
X2918307Y3861003D01*
X2933750Y3853840D01*
X2949905Y3848404D01*
X2966567Y3844747D01*
G37*
G36*
X4983480Y3842918D02*
G01*
X5000498Y3842918D01*
X5017465Y3844747D01*
X5034076Y3848404D01*
X5050231Y3853840D01*
X5065674Y3861003D01*
X5080304Y3869791D01*
X5093868Y3880104D01*
X5106212Y3891787D01*
X5117236Y3904792D01*
X5126837Y3918864D01*
X5134813Y3933951D01*
X5141112Y3949750D01*
X5145633Y3966159D01*
X5148427Y3982974D01*
X5149342Y3999992D01*
X5148427Y4017010D01*
X5145633Y4033824D01*
X5141112Y4050233D01*
X5134813Y4066082D01*
X5126837Y4081119D01*
X5117033Y4095496D01*
X5115153Y4098798D01*
X5114594Y4102557D01*
X5115458Y4106214D01*
X5117642Y4109313D01*
X5120792Y4111447D01*
X5124450Y4112260D01*
X5131155Y4112412D01*
X5147208Y4114749D01*
X5162905Y4118864D01*
X5178044Y4124756D01*
X5192369Y4132326D01*
X5205780Y4141470D01*
X5218023Y4152087D01*
X5228996Y4164076D01*
X5238546Y4177182D01*
X5246522Y4191304D01*
X5252821Y4206240D01*
X5257393Y4221835D01*
X5260187Y4237786D01*
X5261102Y4253992D01*
X5260187Y4270197D01*
X5257393Y4286199D01*
X5252821Y4301744D01*
X5246522Y4316679D01*
X5238546Y4330801D01*
X5228996Y4343958D01*
X5218023Y4355896D01*
X5205780Y4366514D01*
X5192369Y4375708D01*
X5178044Y4383278D01*
X5164074Y4388662D01*
X5160670Y4390847D01*
X5158384Y4394200D01*
X5157622Y4398162D01*
X5157622Y5018532D01*
X5156809Y5026558D01*
X5154625Y5033772D01*
X5151069Y5040426D01*
X5145938Y5046675D01*
X4494580Y5698032D01*
X4492498Y5701080D01*
X4491634Y5704738D01*
X4492142Y5708396D01*
X4496257Y5720892D01*
X4499000Y5734812D01*
X4499864Y5748985D01*
X4499000Y5763158D01*
X4496257Y5777128D01*
X4491786Y5790590D01*
X4485640Y5803392D01*
X4477867Y5815330D01*
X4468672Y5826150D01*
X4458157Y5835700D01*
X4446473Y5843828D01*
X4433874Y5850382D01*
X4420565Y5855309D01*
X4406696Y5858459D01*
X4392574Y5859830D01*
X4378350Y5859373D01*
X4364329Y5857087D01*
X4350715Y5853074D01*
X4337710Y5847334D01*
X4325569Y5839968D01*
X4314444Y5831078D01*
X4304588Y5820867D01*
X4296054Y5809488D01*
X4289094Y5797092D01*
X4283760Y5783935D01*
X4280154Y5770219D01*
X4278325Y5756097D01*
X4278325Y5741873D01*
X4280154Y5727801D01*
X4283760Y5714034D01*
X4289094Y5700877D01*
X4296054Y5688482D01*
X4304588Y5677103D01*
X4314444Y5666892D01*
X4325569Y5658053D01*
X4337710Y5650687D01*
X4350715Y5644946D01*
X4364329Y5640882D01*
X4378350Y5638647D01*
X4392574Y5638190D01*
X4406696Y5639511D01*
X4420565Y5642711D01*
X4429201Y5645861D01*
X4432960Y5646521D01*
X4436719Y5645658D01*
X4439869Y5643524D01*
X4460138Y5623255D01*
X4462373Y5619953D01*
X4463135Y5616092D01*
X4462373Y5612180D01*
X4460138Y5608878D01*
X4456836Y5606694D01*
X4452975Y5605932D01*
X4437837Y5605932D01*
X4437837Y5543854D01*
X4499914Y5543854D01*
X4499914Y5558993D01*
X4500676Y5562854D01*
X4502861Y5566156D01*
X4506163Y5568340D01*
X4510074Y5569153D01*
X4513935Y5568340D01*
X4517237Y5566156D01*
X5077409Y5005984D01*
X5079593Y5002682D01*
X5080406Y4998821D01*
X5080406Y4398010D01*
X5079492Y4393895D01*
X5077053Y4390440D01*
X5073396Y4388358D01*
X5067452Y4386427D01*
X5052669Y4379671D01*
X5038801Y4371289D01*
X5025948Y4361383D01*
X5014315Y4350105D01*
X5004054Y4337507D01*
X4995265Y4323892D01*
X4988102Y4309313D01*
X4982667Y4294022D01*
X4978958Y4278223D01*
X4977130Y4262120D01*
X4977130Y4245914D01*
X4978958Y4229760D01*
X4982667Y4213961D01*
X4988102Y4198670D01*
X4995265Y4184142D01*
X5002580Y4172762D01*
X5004104Y4168698D01*
X5003800Y4164431D01*
X5001717Y4160621D01*
X4998262Y4158030D01*
X4994046Y4157116D01*
X4983480Y4157116D01*
X4966563Y4155287D01*
X4949901Y4151629D01*
X4933746Y4146143D01*
X4918303Y4139031D01*
X4903724Y4130243D01*
X4890160Y4119930D01*
X4877765Y4108196D01*
X4866741Y4095242D01*
X4857191Y4081119D01*
X4849215Y4066082D01*
X4842916Y4050233D01*
X4838344Y4033824D01*
X4835601Y4017010D01*
X4834636Y3999992D01*
X4835601Y3982974D01*
X4838344Y3966159D01*
X4842916Y3949750D01*
X4849215Y3933951D01*
X4857191Y3918864D01*
X4866741Y3904792D01*
X4877765Y3891787D01*
X4890160Y3880104D01*
X4903724Y3869791D01*
X4918303Y3861003D01*
X4933746Y3853840D01*
X4949901Y3848404D01*
X4966563Y3844747D01*
G37*
G36*
X983487Y3842918D02*
G01*
X1000506Y3842918D01*
X1017473Y3844747D01*
X1034084Y3848404D01*
X1050239Y3853840D01*
X1065682Y3861003D01*
X1080312Y3869791D01*
X1093876Y3880104D01*
X1106220Y3891787D01*
X1117244Y3904792D01*
X1126794Y3918864D01*
X1134821Y3933951D01*
X1141120Y3949750D01*
X1145641Y3966159D01*
X1148435Y3982974D01*
X1149350Y3999992D01*
X1148435Y4017010D01*
X1145641Y4033824D01*
X1141120Y4050233D01*
X1134821Y4066082D01*
X1126794Y4081119D01*
X1116990Y4095496D01*
X1115161Y4098798D01*
X1114602Y4102557D01*
X1115466Y4106214D01*
X1117650Y4109313D01*
X1120749Y4111447D01*
X1124458Y4112260D01*
X1131163Y4112412D01*
X1147216Y4114749D01*
X1162913Y4118864D01*
X1178052Y4124756D01*
X1192377Y4132326D01*
X1205788Y4141470D01*
X1218031Y4152087D01*
X1229004Y4164076D01*
X1238554Y4177182D01*
X1246530Y4191304D01*
X1252829Y4206240D01*
X1257401Y4221835D01*
X1260144Y4237786D01*
X1261110Y4253992D01*
X1260144Y4270197D01*
X1257401Y4286199D01*
X1252829Y4301744D01*
X1246124Y4317542D01*
X1245311Y4321454D01*
X1246073Y4325366D01*
X1248308Y4328668D01*
X1526946Y4607356D01*
X1532077Y4613605D01*
X1535633Y4620260D01*
X1537817Y4627473D01*
X1538630Y4635500D01*
X1538630Y5279796D01*
X1539392Y5283708D01*
X1541576Y5286959D01*
X1962048Y5707430D01*
X1965299Y5709615D01*
X1969211Y5710377D01*
X2500376Y5710377D01*
X2504287Y5709615D01*
X2507640Y5707380D01*
X2509824Y5704078D01*
X2511094Y5700877D01*
X2518054Y5688482D01*
X2526588Y5677103D01*
X2536444Y5666892D01*
X2547569Y5658053D01*
X2559710Y5650687D01*
X2572715Y5644946D01*
X2586329Y5640882D01*
X2600350Y5638647D01*
X2614574Y5638190D01*
X2628696Y5639511D01*
X2642565Y5642711D01*
X2655874Y5647588D01*
X2668473Y5654192D01*
X2680157Y5662320D01*
X2690672Y5671870D01*
X2699867Y5682691D01*
X2707640Y5694578D01*
X2713786Y5707380D01*
X2718257Y5720892D01*
X2721000Y5734812D01*
X2721864Y5748985D01*
X2721000Y5763158D01*
X2718257Y5777128D01*
X2713786Y5790590D01*
X2707640Y5803392D01*
X2699867Y5815330D01*
X2690672Y5826150D01*
X2680157Y5835700D01*
X2668473Y5843828D01*
X2655874Y5850382D01*
X2642565Y5855309D01*
X2628696Y5858459D01*
X2614574Y5859830D01*
X2600350Y5859373D01*
X2586329Y5857087D01*
X2572715Y5853074D01*
X2559710Y5847334D01*
X2547569Y5839968D01*
X2536444Y5831078D01*
X2526588Y5820867D01*
X2518054Y5809488D01*
X2511094Y5797092D01*
X2509824Y5793943D01*
X2507640Y5790641D01*
X2504338Y5788406D01*
X2500426Y5787593D01*
X1949500Y5787593D01*
X1941474Y5786831D01*
X1934260Y5784646D01*
X1927606Y5781090D01*
X1921357Y5775960D01*
X1473047Y5327650D01*
X1467916Y5321401D01*
X1464360Y5314746D01*
X1462176Y5307533D01*
X1461414Y5299506D01*
X1461414Y4655210D01*
X1460601Y4651298D01*
X1458417Y4647996D01*
X1193546Y4383176D01*
X1189990Y4380839D01*
X1185722Y4380179D01*
X1181608Y4381347D01*
X1178052Y4383278D01*
X1162913Y4389120D01*
X1147216Y4393285D01*
X1131163Y4395571D01*
X1114958Y4396028D01*
X1098753Y4394657D01*
X1082852Y4391406D01*
X1067460Y4386427D01*
X1052677Y4379671D01*
X1038809Y4371289D01*
X1025956Y4361383D01*
X1014323Y4350105D01*
X1004062Y4337507D01*
X995273Y4323892D01*
X988110Y4309313D01*
X982675Y4294022D01*
X978966Y4278223D01*
X977137Y4262120D01*
X977137Y4245914D01*
X978966Y4229760D01*
X982675Y4213961D01*
X988110Y4198670D01*
X995273Y4184142D01*
X1002588Y4172762D01*
X1004062Y4168698D01*
X1003757Y4164431D01*
X1001725Y4160621D01*
X998270Y4158030D01*
X994003Y4157116D01*
X983487Y4157116D01*
X966520Y4155287D01*
X949909Y4151629D01*
X933754Y4146143D01*
X918311Y4139031D01*
X903681Y4130243D01*
X890117Y4119930D01*
X877773Y4108196D01*
X866749Y4095242D01*
X857199Y4081119D01*
X849223Y4066082D01*
X842873Y4050233D01*
X838352Y4033824D01*
X835609Y4017010D01*
X834644Y3999992D01*
X835609Y3982974D01*
X838352Y3966159D01*
X842873Y3949750D01*
X849223Y3933951D01*
X857199Y3918864D01*
X866749Y3904792D01*
X877773Y3891787D01*
X890117Y3880104D01*
X903681Y3869791D01*
X918311Y3861003D01*
X933754Y3853840D01*
X949909Y3848404D01*
X966520Y3844747D01*
G37*
G36*
X3220212Y9684359D02*
G01*
X3234791Y9684359D01*
X3249218Y9686188D01*
X3263290Y9689795D01*
X3276854Y9695129D01*
X3289604Y9702139D01*
X3301390Y9710724D01*
X3311956Y9720681D01*
X3321253Y9731908D01*
X3329025Y9744202D01*
X3335223Y9757359D01*
X3339744Y9771176D01*
X3342487Y9785502D01*
X3343401Y9799980D01*
X3342487Y9814509D01*
X3339744Y9828834D01*
X3335223Y9842652D01*
X3329025Y9855809D01*
X3321253Y9868103D01*
X3311956Y9879330D01*
X3301390Y9889286D01*
X3289604Y9897821D01*
X3276854Y9904882D01*
X3263290Y9910216D01*
X3249218Y9913823D01*
X3234791Y9915652D01*
X3220212Y9915652D01*
X3205784Y9913823D01*
X3191713Y9910216D01*
X3178149Y9904882D01*
X3165398Y9897821D01*
X3153613Y9889286D01*
X3143046Y9879330D01*
X3133750Y9868103D01*
X3125978Y9855809D01*
X3119780Y9842652D01*
X3115259Y9828834D01*
X3112516Y9814509D01*
X3111601Y9799980D01*
X3112516Y9785502D01*
X3115259Y9771176D01*
X3119780Y9757359D01*
X3125978Y9744202D01*
X3133750Y9731908D01*
X3143046Y9720681D01*
X3153613Y9710724D01*
X3165398Y9702139D01*
X3178149Y9695129D01*
X3191713Y9689795D01*
X3205784Y9686188D01*
G37*
G36*
X2929839Y9619691D02*
G01*
X2945282Y9621062D01*
X2960471Y9624263D01*
X2975152Y9629241D01*
X2989122Y9635896D01*
X3002280Y9644176D01*
X3014319Y9653930D01*
X3025089Y9665055D01*
X3034538Y9677400D01*
X3042412Y9690760D01*
X3048660Y9704933D01*
X3053181Y9719767D01*
X3055924Y9735058D01*
X3056839Y9750501D01*
X3055924Y9765995D01*
X3053181Y9781286D01*
X3048660Y9796119D01*
X3042412Y9810292D01*
X3034538Y9823653D01*
X3025089Y9835997D01*
X3014319Y9847122D01*
X3002280Y9856876D01*
X2989122Y9865156D01*
X2975152Y9871811D01*
X2960471Y9876790D01*
X2945282Y9879990D01*
X2929839Y9881362D01*
X2914345Y9880904D01*
X2899003Y9878618D01*
X2884017Y9874504D01*
X2869641Y9868712D01*
X2856077Y9861194D01*
X2843479Y9852152D01*
X2832049Y9841687D01*
X2821889Y9829952D01*
X2813253Y9817100D01*
X2806192Y9803282D01*
X2800756Y9788753D01*
X2797149Y9773666D01*
X2795270Y9758273D01*
X2795270Y9742779D01*
X2797149Y9727387D01*
X2800756Y9712299D01*
X2806192Y9697770D01*
X2813253Y9683953D01*
X2821889Y9671100D01*
X2832049Y9659366D01*
X2843479Y9648901D01*
X2856077Y9639858D01*
X2869641Y9632340D01*
X2884017Y9626549D01*
X2899003Y9622434D01*
X2914345Y9620148D01*
G37*
G36*
X1689557Y4381500D02*
G01*
X1689557Y4443526D01*
X1627581Y4443526D01*
X1630273Y4438142D01*
X1639062Y4424476D01*
X1649323Y4411929D01*
X1660956Y4400600D01*
X1673809Y4390694D01*
X1687677Y4382312D01*
G37*
G36*
X3689553Y4381500D02*
G01*
X3689553Y4443526D01*
X3627628Y4443526D01*
X3630269Y4438142D01*
X3639058Y4424476D01*
X3649319Y4411929D01*
X3660952Y4400600D01*
X3673805Y4390694D01*
X3687673Y4382312D01*
G37*
G36*
X5689549Y4381500D02*
G01*
X5689549Y4443526D01*
X5627624Y4443526D01*
X5630265Y4438142D01*
X5639054Y4424476D01*
X5649315Y4411929D01*
X5660948Y4400600D01*
X5673801Y4390694D01*
X5687669Y4382312D01*
G37*
G36*
X1818436Y4381601D02*
G01*
X1827377Y4386326D01*
X1840788Y4395470D01*
X1853031Y4406087D01*
X1864004Y4418076D01*
X1873554Y4431182D01*
X1880514Y4443526D01*
X1818436Y4443526D01*
G37*
G36*
X3818432Y4381601D02*
G01*
X3827373Y4386326D01*
X3840784Y4395470D01*
X3853027Y4406087D01*
X3864000Y4418076D01*
X3873550Y4431182D01*
X3880510Y4443526D01*
X3818432Y4443526D01*
G37*
G36*
X5818428Y4381601D02*
G01*
X5827369Y4386326D01*
X5840780Y4395470D01*
X5853023Y4406087D01*
X5863996Y4418076D01*
X5873546Y4431182D01*
X5880506Y4443526D01*
X5818428Y4443526D01*
G37*
G36*
X1818436Y4572457D02*
G01*
X1880514Y4572457D01*
X1873554Y4584801D01*
X1864004Y4597958D01*
X1853031Y4609896D01*
X1840788Y4620514D01*
X1827377Y4629708D01*
X1818436Y4634382D01*
G37*
G36*
X5818428Y4572457D02*
G01*
X5880506Y4572457D01*
X5873546Y4584801D01*
X5863996Y4597958D01*
X5853023Y4609896D01*
X5840780Y4620514D01*
X5827369Y4629708D01*
X5818428Y4634382D01*
G37*
G36*
X3818432Y4572457D02*
G01*
X3880510Y4572457D01*
X3873550Y4584801D01*
X3864000Y4597958D01*
X3853027Y4609896D01*
X3840784Y4620514D01*
X3827373Y4629708D01*
X3818432Y4634382D01*
G37*
G36*
X1627581Y4572457D02*
G01*
X1689557Y4572457D01*
X1689557Y4634534D01*
X1687677Y4633671D01*
X1673809Y4625289D01*
X1660956Y4615383D01*
X1649323Y4604105D01*
X1639062Y4591507D01*
X1630273Y4577892D01*
G37*
G36*
X5627624Y4572457D02*
G01*
X5689549Y4572457D01*
X5689549Y4634534D01*
X5687669Y4633671D01*
X5673801Y4625289D01*
X5660948Y4615383D01*
X5649315Y4604105D01*
X5639054Y4591507D01*
X5630265Y4577892D01*
G37*
G36*
X3627628Y4572457D02*
G01*
X3689553Y4572457D01*
X3689553Y4634534D01*
X3687673Y4633671D01*
X3673805Y4625289D01*
X3660952Y4615383D01*
X3649319Y4604105D01*
X3639058Y4591507D01*
X3630269Y4577892D01*
G37*
G36*
X3548837Y4899101D02*
G01*
X3584448Y4899101D01*
X3590747Y4899812D01*
X3596233Y4901742D01*
X3601110Y4904790D01*
X3605225Y4908905D01*
X3608273Y4913782D01*
X3610203Y4919268D01*
X3610914Y4925568D01*
X3610914Y4961178D01*
X3548837Y4961178D01*
G37*
G36*
X3415588Y4899101D02*
G01*
X3451148Y4899101D01*
X3451148Y4961178D01*
X3389071Y4961178D01*
X3389071Y4925568D01*
X3389782Y4919268D01*
X3391712Y4913782D01*
X3394811Y4908905D01*
X3398875Y4904790D01*
X3403803Y4901742D01*
X3409238Y4899812D01*
G37*
G36*
X3249574Y4899202D02*
G01*
X3263696Y4900523D01*
X3277565Y4903724D01*
X3290874Y4908600D01*
X3303473Y4915204D01*
X3315157Y4923332D01*
X3325672Y4932883D01*
X3334867Y4943703D01*
X3342640Y4955590D01*
X3348786Y4968392D01*
X3353257Y4981905D01*
X3356000Y4995824D01*
X3356864Y5009997D01*
X3356000Y5024170D01*
X3353257Y5038140D01*
X3348786Y5051602D01*
X3342640Y5064404D01*
X3334867Y5076342D01*
X3325672Y5087162D01*
X3315157Y5096713D01*
X3303473Y5104841D01*
X3290874Y5111394D01*
X3277565Y5116322D01*
X3263696Y5119471D01*
X3249574Y5120843D01*
X3235350Y5120386D01*
X3221329Y5118100D01*
X3207715Y5114086D01*
X3194710Y5108346D01*
X3182569Y5100980D01*
X3171444Y5092090D01*
X3161588Y5081879D01*
X3153054Y5070500D01*
X3146094Y5058105D01*
X3140760Y5044948D01*
X3137154Y5031232D01*
X3135325Y5017109D01*
X3135325Y5002885D01*
X3137154Y4988814D01*
X3140760Y4975047D01*
X3146094Y4961890D01*
X3153054Y4949494D01*
X3161588Y4938115D01*
X3171444Y4927904D01*
X3182569Y4919065D01*
X3194710Y4911699D01*
X3207715Y4905959D01*
X3221329Y4901895D01*
X3235350Y4899660D01*
G37*
G36*
X3757574Y4899202D02*
G01*
X3771696Y4900523D01*
X3785565Y4903724D01*
X3798874Y4908600D01*
X3811473Y4915204D01*
X3823157Y4923332D01*
X3833672Y4932883D01*
X3842867Y4943703D01*
X3850640Y4955590D01*
X3856786Y4968392D01*
X3861257Y4981905D01*
X3864000Y4995824D01*
X3864864Y5009997D01*
X3864000Y5024170D01*
X3861257Y5038140D01*
X3856786Y5051602D01*
X3850640Y5064404D01*
X3842867Y5076342D01*
X3833672Y5087162D01*
X3823157Y5096713D01*
X3811473Y5104841D01*
X3798874Y5111394D01*
X3785565Y5116322D01*
X3771696Y5119471D01*
X3757574Y5120843D01*
X3743350Y5120386D01*
X3729329Y5118100D01*
X3715715Y5114086D01*
X3702710Y5108346D01*
X3690569Y5100980D01*
X3679444Y5092090D01*
X3669588Y5081879D01*
X3661054Y5070500D01*
X3654094Y5058105D01*
X3648760Y5044948D01*
X3645154Y5031232D01*
X3643325Y5017109D01*
X3643325Y5002885D01*
X3645154Y4988814D01*
X3648760Y4975047D01*
X3654094Y4961890D01*
X3661054Y4949494D01*
X3669588Y4938115D01*
X3679444Y4927904D01*
X3690569Y4919065D01*
X3702710Y4911699D01*
X3715715Y4905959D01*
X3729329Y4901895D01*
X3743350Y4899660D01*
G37*
G36*
X4069842Y4919675D02*
G01*
X4085285Y4921046D01*
X4100474Y4924247D01*
X4115155Y4929225D01*
X4129125Y4935880D01*
X4142282Y4944160D01*
X4154322Y4953914D01*
X4165092Y4965039D01*
X4174540Y4977384D01*
X4182414Y4990744D01*
X4188663Y5004917D01*
X4193184Y5019751D01*
X4195927Y5035042D01*
X4196842Y5050485D01*
X4195927Y5065979D01*
X4193184Y5081270D01*
X4188663Y5096103D01*
X4182414Y5110276D01*
X4174540Y5123637D01*
X4165092Y5135981D01*
X4154322Y5147106D01*
X4142282Y5156860D01*
X4129125Y5165140D01*
X4115155Y5171795D01*
X4100474Y5176774D01*
X4085285Y5179974D01*
X4069842Y5181346D01*
X4054348Y5180888D01*
X4039006Y5178602D01*
X4024020Y5174488D01*
X4009644Y5168696D01*
X3996080Y5161178D01*
X3983482Y5152136D01*
X3972051Y5141671D01*
X3961892Y5129936D01*
X3953256Y5117084D01*
X3946194Y5103266D01*
X3940759Y5088737D01*
X3937152Y5073650D01*
X3935272Y5058257D01*
X3935272Y5042763D01*
X3937152Y5027371D01*
X3940759Y5012283D01*
X3946194Y4997754D01*
X3953256Y4983937D01*
X3961892Y4971084D01*
X3972051Y4959350D01*
X3983482Y4948885D01*
X3996080Y4939842D01*
X4009644Y4932324D01*
X4024020Y4926533D01*
X4039006Y4922418D01*
X4054348Y4920132D01*
G37*
G36*
X2929839Y4919675D02*
G01*
X2945282Y4921046D01*
X2960471Y4924247D01*
X2975152Y4929225D01*
X2989122Y4935880D01*
X3002280Y4944160D01*
X3014319Y4953914D01*
X3025089Y4965039D01*
X3034538Y4977384D01*
X3042412Y4990744D01*
X3048660Y5004917D01*
X3053181Y5019751D01*
X3055924Y5035042D01*
X3056839Y5050485D01*
X3055924Y5065979D01*
X3053181Y5081270D01*
X3048660Y5096103D01*
X3042412Y5110276D01*
X3034538Y5123637D01*
X3025089Y5135981D01*
X3014319Y5147106D01*
X3002280Y5156860D01*
X2989122Y5165140D01*
X2975152Y5171795D01*
X2960471Y5176774D01*
X2945282Y5179974D01*
X2929839Y5181346D01*
X2914345Y5180888D01*
X2899003Y5178602D01*
X2884017Y5174488D01*
X2869641Y5168696D01*
X2856077Y5161178D01*
X2843479Y5152136D01*
X2832049Y5141671D01*
X2821889Y5129936D01*
X2813253Y5117084D01*
X2806192Y5103266D01*
X2800756Y5088737D01*
X2797149Y5073650D01*
X2795270Y5058257D01*
X2795270Y5042763D01*
X2797149Y5027371D01*
X2800756Y5012283D01*
X2806192Y4997754D01*
X2813253Y4983937D01*
X2821889Y4971084D01*
X2832049Y4959350D01*
X2843479Y4948885D01*
X2856077Y4939842D01*
X2869641Y4932324D01*
X2884017Y4926533D01*
X2899003Y4922418D01*
X2914345Y4920132D01*
G37*
G36*
X3548837Y5058867D02*
G01*
X3610914Y5058867D01*
X3610914Y5094427D01*
X3610203Y5100777D01*
X3608273Y5106212D01*
X3605225Y5111140D01*
X3601110Y5115204D01*
X3596233Y5118303D01*
X3590747Y5120233D01*
X3584448Y5120944D01*
X3548837Y5120944D01*
G37*
G36*
X3389071Y5058867D02*
G01*
X3451148Y5058867D01*
X3451148Y5120944D01*
X3415588Y5120944D01*
X3409238Y5120233D01*
X3403803Y5118303D01*
X3398875Y5115204D01*
X3394811Y5111140D01*
X3391712Y5106212D01*
X3389782Y5100777D01*
X3389071Y5094427D01*
G37*
G36*
X4069842Y9619691D02*
G01*
X4085285Y9621062D01*
X4100474Y9624263D01*
X4115155Y9629241D01*
X4129125Y9635896D01*
X4142282Y9644176D01*
X4154322Y9653930D01*
X4165092Y9665055D01*
X4174540Y9677400D01*
X4182414Y9690760D01*
X4188663Y9704933D01*
X4193184Y9719767D01*
X4195927Y9735058D01*
X4196842Y9750501D01*
X4195927Y9765995D01*
X4193184Y9781286D01*
X4188663Y9796119D01*
X4182414Y9810292D01*
X4174540Y9823653D01*
X4165092Y9835997D01*
X4154322Y9847122D01*
X4142282Y9856876D01*
X4129125Y9865156D01*
X4115155Y9871811D01*
X4100474Y9876790D01*
X4085285Y9879990D01*
X4069842Y9881362D01*
X4054348Y9880904D01*
X4039006Y9878618D01*
X4024020Y9874504D01*
X4009644Y9868712D01*
X3996080Y9861194D01*
X3983482Y9852152D01*
X3972051Y9841687D01*
X3961892Y9829952D01*
X3953256Y9817100D01*
X3946194Y9803282D01*
X3940759Y9788753D01*
X3937152Y9773666D01*
X3935272Y9758273D01*
X3935272Y9742779D01*
X3937152Y9727387D01*
X3940759Y9712299D01*
X3946194Y9697770D01*
X3953256Y9683953D01*
X3961892Y9671100D01*
X3972051Y9659366D01*
X3983482Y9648901D01*
X3996080Y9639858D01*
X4009644Y9632340D01*
X4024020Y9626549D01*
X4039006Y9622434D01*
X4054348Y9620148D01*
G37*
G36*
X2614574Y9448190D02*
G01*
X2628696Y9449511D01*
X2642565Y9452711D01*
X2655874Y9457588D01*
X2668473Y9464192D01*
X2680157Y9472320D01*
X2690672Y9481870D01*
X2699867Y9492691D01*
X2707640Y9504578D01*
X2713786Y9517380D01*
X2718257Y9530892D01*
X2721000Y9544812D01*
X2721864Y9558985D01*
X2721000Y9573158D01*
X2718257Y9587128D01*
X2713786Y9600590D01*
X2707640Y9613392D01*
X2699867Y9625330D01*
X2690672Y9636150D01*
X2680157Y9645700D01*
X2668473Y9653828D01*
X2655874Y9660382D01*
X2642565Y9665309D01*
X2628696Y9668459D01*
X2614574Y9669830D01*
X2600350Y9669373D01*
X2586329Y9667087D01*
X2572715Y9663074D01*
X2559710Y9657334D01*
X2547569Y9649968D01*
X2536444Y9641078D01*
X2526588Y9630867D01*
X2518054Y9619488D01*
X2511094Y9607092D01*
X2505760Y9593935D01*
X2502154Y9580219D01*
X2500325Y9566097D01*
X2500325Y9551873D01*
X2502154Y9537801D01*
X2505760Y9524034D01*
X2511094Y9510877D01*
X2518054Y9498482D01*
X2526588Y9487103D01*
X2536444Y9476892D01*
X2547569Y9468053D01*
X2559710Y9460687D01*
X2572715Y9454946D01*
X2586329Y9450882D01*
X2600350Y9448647D01*
G37*
G36*
X4392574Y9448190D02*
G01*
X4406696Y9449511D01*
X4420565Y9452711D01*
X4433874Y9457588D01*
X4446473Y9464192D01*
X4458157Y9472320D01*
X4468672Y9481870D01*
X4477867Y9492691D01*
X4485640Y9504578D01*
X4491786Y9517380D01*
X4496257Y9530892D01*
X4499000Y9544812D01*
X4499864Y9558985D01*
X4499000Y9573158D01*
X4496257Y9587128D01*
X4491786Y9600590D01*
X4485640Y9613392D01*
X4477867Y9625330D01*
X4468672Y9636150D01*
X4458157Y9645700D01*
X4446473Y9653828D01*
X4433874Y9660382D01*
X4420565Y9665309D01*
X4406696Y9668459D01*
X4392574Y9669830D01*
X4378350Y9669373D01*
X4364329Y9667087D01*
X4350715Y9663074D01*
X4337710Y9657334D01*
X4325569Y9649968D01*
X4314444Y9641078D01*
X4304588Y9630867D01*
X4296054Y9619488D01*
X4289094Y9607092D01*
X4283760Y9593935D01*
X4280154Y9580219D01*
X4278325Y9566097D01*
X4278325Y9551873D01*
X4280154Y9537801D01*
X4283760Y9524034D01*
X4289094Y9510877D01*
X4296054Y9498482D01*
X4304588Y9487103D01*
X4314444Y9476892D01*
X4325569Y9468053D01*
X4337710Y9460687D01*
X4350715Y9454946D01*
X4364329Y9450882D01*
X4378350Y9448647D01*
G37*
G36*
X2659837Y5384088D02*
G01*
X2695448Y5384088D01*
X2701747Y5384800D01*
X2707233Y5386730D01*
X2712110Y5389778D01*
X2716225Y5393893D01*
X2719273Y5398770D01*
X2721203Y5404256D01*
X2721914Y5410555D01*
X2721914Y5446166D01*
X2659837Y5446166D01*
G37*
G36*
X4304588Y5384088D02*
G01*
X4340148Y5384088D01*
X4340148Y5446166D01*
X4278071Y5446166D01*
X4278071Y5410555D01*
X4278782Y5404256D01*
X4280712Y5398770D01*
X4283811Y5393893D01*
X4287875Y5389778D01*
X4292803Y5386730D01*
X4298238Y5384800D01*
G37*
G36*
X4437837Y5384088D02*
G01*
X4473448Y5384088D01*
X4479747Y5384800D01*
X4485233Y5386730D01*
X4490110Y5389778D01*
X4494225Y5393893D01*
X4497273Y5398770D01*
X4499203Y5404256D01*
X4499914Y5410555D01*
X4499914Y5446166D01*
X4437837Y5446166D01*
G37*
G36*
X2526588Y5384088D02*
G01*
X2562148Y5384088D01*
X2562148Y5446166D01*
X2500071Y5446166D01*
X2500071Y5410555D01*
X2500782Y5404256D01*
X2502712Y5398770D01*
X2505811Y5393893D01*
X2509875Y5389778D01*
X2514803Y5386730D01*
X2520238Y5384800D01*
G37*
G36*
X2659837Y5543854D02*
G01*
X2721914Y5543854D01*
X2721914Y5579414D01*
X2721203Y5585764D01*
X2719273Y5591200D01*
X2716225Y5596128D01*
X2712110Y5600192D01*
X2707233Y5603290D01*
X2701747Y5605221D01*
X2695448Y5605932D01*
X2659837Y5605932D01*
G37*
G36*
X4278071Y5543854D02*
G01*
X4340148Y5543854D01*
X4340148Y5605932D01*
X4304588Y5605932D01*
X4298238Y5605221D01*
X4292803Y5603290D01*
X4287875Y5600192D01*
X4283811Y5596128D01*
X4280712Y5591200D01*
X4278782Y5585764D01*
X4278071Y5579414D01*
G37*
G36*
X2500071Y5543854D02*
G01*
X2562148Y5543854D01*
X2562148Y5605932D01*
X2526588Y5605932D01*
X2520238Y5605221D01*
X2514803Y5603290D01*
X2509875Y5600192D01*
X2505811Y5596128D01*
X2502712Y5591200D01*
X2500782Y5585764D01*
X2500071Y5579414D01*
G37*
G36*
X3739134Y9396171D02*
G01*
X3752596Y9396628D01*
X3765854Y9398863D01*
X3778758Y9402876D01*
X3790950Y9408515D01*
X3802329Y9415780D01*
X3812641Y9424466D01*
X3821684Y9434474D01*
X3829304Y9445599D01*
X3835349Y9457639D01*
X3839768Y9470339D01*
X3842461Y9483547D01*
X3843375Y9497009D01*
X3842461Y9510471D01*
X3839768Y9523679D01*
X3835349Y9536379D01*
X3829304Y9548418D01*
X3821684Y9559544D01*
X3812641Y9569551D01*
X3802329Y9578238D01*
X3790950Y9585502D01*
X3778758Y9591141D01*
X3765854Y9595154D01*
X3752596Y9597390D01*
X3739134Y9597847D01*
X3725722Y9596475D01*
X3712616Y9593376D01*
X3700018Y9588550D01*
X3688181Y9582048D01*
X3677361Y9574072D01*
X3667658Y9564674D01*
X3659327Y9554108D01*
X3652418Y9542526D01*
X3647186Y9530080D01*
X3643629Y9517126D01*
X3641801Y9503765D01*
X3641801Y9490252D01*
X3643629Y9476892D01*
X3647186Y9463938D01*
X3652418Y9451492D01*
X3659327Y9439910D01*
X3667658Y9429343D01*
X3677361Y9419945D01*
X3688181Y9411970D01*
X3700018Y9405467D01*
X3712616Y9400641D01*
X3725722Y9397542D01*
G37*
G36*
X3254146Y9396171D02*
G01*
X3267608Y9396628D01*
X3280867Y9398863D01*
X3293770Y9402876D01*
X3305962Y9408515D01*
X3317341Y9415780D01*
X3327654Y9424466D01*
X3336696Y9434474D01*
X3344316Y9445599D01*
X3350361Y9457639D01*
X3354781Y9470339D01*
X3357473Y9483547D01*
X3358387Y9497009D01*
X3357473Y9510471D01*
X3354781Y9523679D01*
X3350361Y9536379D01*
X3344316Y9548418D01*
X3336696Y9559544D01*
X3327654Y9569551D01*
X3317341Y9578238D01*
X3305962Y9585502D01*
X3293770Y9591141D01*
X3280867Y9595154D01*
X3267608Y9597390D01*
X3254146Y9597847D01*
X3240735Y9596475D01*
X3227628Y9593376D01*
X3215030Y9588550D01*
X3203194Y9582048D01*
X3192373Y9574072D01*
X3182670Y9564674D01*
X3174339Y9554108D01*
X3167430Y9542526D01*
X3162198Y9530080D01*
X3158642Y9517126D01*
X3156813Y9503765D01*
X3156813Y9490252D01*
X3158642Y9476892D01*
X3162198Y9463938D01*
X3167430Y9451492D01*
X3174339Y9439910D01*
X3182670Y9429343D01*
X3192373Y9419945D01*
X3203194Y9411970D01*
X3215030Y9405467D01*
X3227628Y9400641D01*
X3240735Y9397542D01*
G37*
G36*
X2500071Y9353854D02*
G01*
X2562148Y9353854D01*
X2562148Y9415932D01*
X2526588Y9415932D01*
X2520238Y9415221D01*
X2514803Y9413290D01*
X2509875Y9410192D01*
X2505811Y9406128D01*
X2502712Y9401200D01*
X2500782Y9395764D01*
X2500071Y9389414D01*
G37*
G36*
X4437837Y9353854D02*
G01*
X4499914Y9353854D01*
X4499914Y9389414D01*
X4499203Y9395764D01*
X4497273Y9401200D01*
X4494225Y9406128D01*
X4490110Y9410192D01*
X4485233Y9413290D01*
X4479747Y9415221D01*
X4473448Y9415932D01*
X4437837Y9415932D01*
G37*
G36*
X5500014Y5718810D02*
G01*
X5523230Y5719775D01*
X5546293Y5722670D01*
X5569000Y5727446D01*
X5591302Y5734050D01*
X5612942Y5742533D01*
X5633821Y5752744D01*
X5653786Y5764631D01*
X5672683Y5778093D01*
X5690412Y5793130D01*
X5706872Y5809589D01*
X5721858Y5827318D01*
X5735370Y5846216D01*
X5747258Y5866180D01*
X5757468Y5887059D01*
X5765952Y5908700D01*
X5772556Y5931001D01*
X5777331Y5953709D01*
X5780227Y5976772D01*
X5781192Y5999988D01*
X5780227Y6023203D01*
X5777331Y6046266D01*
X5772556Y6069025D01*
X5765952Y6091275D01*
X5757468Y6112967D01*
X5747258Y6133846D01*
X5735370Y6153810D01*
X5721858Y6172708D01*
X5706872Y6190437D01*
X5690412Y6206845D01*
X5672683Y6221882D01*
X5653786Y6235395D01*
X5633821Y6247282D01*
X5612942Y6257493D01*
X5591302Y6265926D01*
X5569000Y6272580D01*
X5546293Y6277356D01*
X5523230Y6280200D01*
X5500014Y6281166D01*
X5476798Y6280200D01*
X5453735Y6277356D01*
X5430977Y6272580D01*
X5408726Y6265926D01*
X5387035Y6257493D01*
X5366156Y6247282D01*
X5346192Y6235395D01*
X5327294Y6221882D01*
X5309565Y6206845D01*
X5293156Y6190437D01*
X5278120Y6172708D01*
X5264607Y6153810D01*
X5252720Y6133846D01*
X5242509Y6112967D01*
X5234076Y6091275D01*
X5227421Y6069025D01*
X5222646Y6046266D01*
X5219801Y6023203D01*
X5218836Y5999988D01*
X5219801Y5976772D01*
X5222646Y5953709D01*
X5227421Y5931001D01*
X5234076Y5908700D01*
X5242509Y5887059D01*
X5252720Y5866180D01*
X5264607Y5846216D01*
X5278120Y5827318D01*
X5293156Y5809589D01*
X5309565Y5793130D01*
X5327294Y5778093D01*
X5346192Y5764631D01*
X5366156Y5752744D01*
X5387035Y5742533D01*
X5408726Y5734050D01*
X5430977Y5727446D01*
X5453735Y5722670D01*
X5476798Y5719775D01*
G37*
G36*
X3500018Y5718810D02*
G01*
X3523234Y5719775D01*
X3546297Y5722670D01*
X3569004Y5727446D01*
X3591306Y5734050D01*
X3612946Y5742533D01*
X3633825Y5752744D01*
X3653790Y5764631D01*
X3672687Y5778093D01*
X3690416Y5793130D01*
X3706876Y5809589D01*
X3721862Y5827318D01*
X3735374Y5846216D01*
X3747262Y5866180D01*
X3757472Y5887059D01*
X3765956Y5908700D01*
X3772560Y5931001D01*
X3777335Y5953709D01*
X3780231Y5976772D01*
X3781145Y5999988D01*
X3780231Y6023203D01*
X3777335Y6046266D01*
X3772560Y6069025D01*
X3765956Y6091275D01*
X3757472Y6112967D01*
X3747262Y6133846D01*
X3735374Y6153810D01*
X3721862Y6172708D01*
X3706876Y6190437D01*
X3690416Y6206845D01*
X3672687Y6221882D01*
X3653790Y6235395D01*
X3633825Y6247282D01*
X3612946Y6257493D01*
X3591306Y6265926D01*
X3569004Y6272580D01*
X3546297Y6277356D01*
X3523234Y6280200D01*
X3500018Y6281166D01*
X3476802Y6280200D01*
X3453739Y6277356D01*
X3430981Y6272580D01*
X3408679Y6265926D01*
X3387039Y6257493D01*
X3366160Y6247282D01*
X3346196Y6235395D01*
X3327298Y6221882D01*
X3309569Y6206845D01*
X3293110Y6190437D01*
X3278124Y6172708D01*
X3264611Y6153810D01*
X3252724Y6133846D01*
X3242513Y6112967D01*
X3234080Y6091275D01*
X3227425Y6069025D01*
X3222650Y6046266D01*
X3219805Y6023203D01*
X3218840Y5999988D01*
X3219805Y5976772D01*
X3222650Y5953709D01*
X3227425Y5931001D01*
X3234080Y5908700D01*
X3242513Y5887059D01*
X3252724Y5866180D01*
X3264611Y5846216D01*
X3278124Y5827318D01*
X3293110Y5809589D01*
X3309569Y5793130D01*
X3327298Y5778093D01*
X3346196Y5764631D01*
X3366160Y5752744D01*
X3387039Y5742533D01*
X3408679Y5734050D01*
X3430981Y5727446D01*
X3453739Y5722670D01*
X3476802Y5719775D01*
G37*
G36*
X1500022Y5718810D02*
G01*
X1523238Y5719775D01*
X1546301Y5722670D01*
X1569008Y5727446D01*
X1591310Y5734050D01*
X1612950Y5742533D01*
X1633829Y5752744D01*
X1653793Y5764631D01*
X1672691Y5778093D01*
X1690420Y5793130D01*
X1706880Y5809589D01*
X1721866Y5827318D01*
X1735378Y5846216D01*
X1747266Y5866180D01*
X1757476Y5887059D01*
X1765909Y5908700D01*
X1772564Y5931001D01*
X1777339Y5953709D01*
X1780184Y5976772D01*
X1781149Y5999988D01*
X1780184Y6023203D01*
X1777339Y6046266D01*
X1772564Y6069025D01*
X1765909Y6091275D01*
X1757476Y6112967D01*
X1747266Y6133846D01*
X1735378Y6153810D01*
X1721866Y6172708D01*
X1706880Y6190437D01*
X1690420Y6206845D01*
X1672691Y6221882D01*
X1653793Y6235395D01*
X1641856Y6242507D01*
X1638655Y6245504D01*
X1637030Y6249568D01*
X1637233Y6253937D01*
X1639265Y6257798D01*
X1642770Y6260439D01*
X1647037Y6261404D01*
X1899513Y6261404D01*
X1907539Y6262166D01*
X1914753Y6264351D01*
X1921408Y6267958D01*
X1927656Y6273038D01*
X2124049Y6469430D01*
X2127300Y6471615D01*
X2131212Y6472377D01*
X2500376Y6472377D01*
X2504287Y6471615D01*
X2507640Y6469380D01*
X2509824Y6466078D01*
X2511094Y6462877D01*
X2518054Y6450482D01*
X2526588Y6439103D01*
X2536444Y6428892D01*
X2547569Y6420053D01*
X2559710Y6412687D01*
X2572715Y6406946D01*
X2586329Y6402882D01*
X2600350Y6400647D01*
X2614574Y6400190D01*
X2628696Y6401511D01*
X2642565Y6404711D01*
X2655874Y6409588D01*
X2668473Y6416192D01*
X2680157Y6424320D01*
X2690672Y6433870D01*
X2699867Y6444691D01*
X2707640Y6456578D01*
X2713786Y6469380D01*
X2718257Y6482892D01*
X2721000Y6496812D01*
X2721864Y6510985D01*
X2721000Y6525158D01*
X2718257Y6539128D01*
X2713786Y6552590D01*
X2707640Y6565392D01*
X2699867Y6577330D01*
X2690672Y6588150D01*
X2680157Y6597700D01*
X2668473Y6605828D01*
X2655874Y6612381D01*
X2642565Y6617309D01*
X2628696Y6620459D01*
X2614574Y6621830D01*
X2600350Y6621373D01*
X2586329Y6619087D01*
X2572715Y6615074D01*
X2559710Y6609334D01*
X2547569Y6601968D01*
X2536444Y6593078D01*
X2526588Y6582867D01*
X2518054Y6571488D01*
X2511094Y6559092D01*
X2509824Y6555943D01*
X2507640Y6552641D01*
X2504338Y6550406D01*
X2500426Y6549593D01*
X2111502Y6549593D01*
X2103475Y6548831D01*
X2096262Y6546646D01*
X2089607Y6543090D01*
X2083358Y6537959D01*
X1886966Y6341567D01*
X1883664Y6339382D01*
X1879803Y6338620D01*
X1238046Y6338620D01*
X1234897Y6339128D01*
X1232103Y6340551D01*
X1218031Y6355892D01*
X1205788Y6366510D01*
X1192377Y6375704D01*
X1178052Y6383274D01*
X1162913Y6389166D01*
X1147216Y6393281D01*
X1131163Y6395567D01*
X1114958Y6396024D01*
X1098753Y6394653D01*
X1082852Y6391452D01*
X1067460Y6386423D01*
X1052677Y6379667D01*
X1038809Y6371285D01*
X1025956Y6361379D01*
X1014323Y6350101D01*
X1004062Y6337503D01*
X995273Y6323888D01*
X988110Y6309309D01*
X982675Y6294018D01*
X978966Y6278219D01*
X977137Y6262116D01*
X977137Y6245910D01*
X978966Y6229756D01*
X982675Y6213957D01*
X988110Y6198666D01*
X995273Y6184138D01*
X1002588Y6172758D01*
X1004062Y6168694D01*
X1003757Y6164427D01*
X1001725Y6160617D01*
X998270Y6158026D01*
X994003Y6157112D01*
X983487Y6157112D01*
X966520Y6155283D01*
X949909Y6151626D01*
X933754Y6146139D01*
X918311Y6139027D01*
X903681Y6130239D01*
X890117Y6119926D01*
X877773Y6108192D01*
X866749Y6095238D01*
X857199Y6081115D01*
X849223Y6066078D01*
X842873Y6050229D01*
X838352Y6033820D01*
X835609Y6017006D01*
X834644Y5999988D01*
X835609Y5982970D01*
X838352Y5966155D01*
X842873Y5949746D01*
X849223Y5933948D01*
X857199Y5918860D01*
X866749Y5904788D01*
X877773Y5891784D01*
X890117Y5880100D01*
X903681Y5869787D01*
X918311Y5860999D01*
X933754Y5853836D01*
X949909Y5848400D01*
X966520Y5844743D01*
X983487Y5842914D01*
X1000506Y5842914D01*
X1017473Y5844743D01*
X1034084Y5848400D01*
X1050239Y5853836D01*
X1065682Y5860999D01*
X1080312Y5869787D01*
X1093876Y5880100D01*
X1106220Y5891784D01*
X1117244Y5904788D01*
X1126794Y5918860D01*
X1134821Y5933948D01*
X1141120Y5949746D01*
X1145641Y5966155D01*
X1148435Y5982970D01*
X1149350Y5999988D01*
X1148435Y6017006D01*
X1145641Y6033820D01*
X1141120Y6050229D01*
X1134821Y6066078D01*
X1126794Y6081115D01*
X1116990Y6095492D01*
X1115161Y6098794D01*
X1114602Y6102553D01*
X1115466Y6106210D01*
X1117650Y6109309D01*
X1120749Y6111443D01*
X1124458Y6112256D01*
X1131163Y6112408D01*
X1147216Y6114745D01*
X1162913Y6118860D01*
X1178052Y6124752D01*
X1192377Y6132322D01*
X1205788Y6141466D01*
X1218031Y6152083D01*
X1229004Y6164072D01*
X1238554Y6177178D01*
X1246530Y6191300D01*
X1252829Y6206236D01*
X1257401Y6221831D01*
X1260144Y6237782D01*
X1260957Y6251803D01*
X1261922Y6255512D01*
X1264158Y6258610D01*
X1267358Y6260693D01*
X1271117Y6261404D01*
X1352956Y6261404D01*
X1357223Y6260439D01*
X1360728Y6257798D01*
X1362760Y6253937D01*
X1362964Y6249568D01*
X1361338Y6245504D01*
X1358138Y6242507D01*
X1346200Y6235395D01*
X1327302Y6221882D01*
X1309573Y6206845D01*
X1293114Y6190437D01*
X1278128Y6172708D01*
X1264615Y6153810D01*
X1252728Y6133846D01*
X1242517Y6112967D01*
X1234084Y6091275D01*
X1227429Y6069025D01*
X1222654Y6046266D01*
X1219809Y6023203D01*
X1218844Y5999988D01*
X1219809Y5976772D01*
X1222654Y5953709D01*
X1227429Y5931001D01*
X1234084Y5908700D01*
X1242517Y5887059D01*
X1252728Y5866180D01*
X1264615Y5846216D01*
X1278128Y5827318D01*
X1293114Y5809589D01*
X1309573Y5793130D01*
X1327302Y5778093D01*
X1346200Y5764631D01*
X1366164Y5752744D01*
X1387043Y5742533D01*
X1408684Y5734050D01*
X1430985Y5727446D01*
X1453743Y5722670D01*
X1476756Y5719775D01*
G37*
G36*
X1999488Y5842914D02*
G01*
X2016506Y5842914D01*
X2033473Y5844743D01*
X2050084Y5848400D01*
X2066239Y5853836D01*
X2081682Y5860999D01*
X2096312Y5869787D01*
X2109876Y5880100D01*
X2122220Y5891784D01*
X2133244Y5904788D01*
X2142794Y5918860D01*
X2150770Y5933948D01*
X2157120Y5949746D01*
X2161641Y5966155D01*
X2164435Y5982970D01*
X2165350Y5999988D01*
X2164435Y6017006D01*
X2161641Y6033820D01*
X2157120Y6050229D01*
X2150770Y6066078D01*
X2142794Y6081115D01*
X2133244Y6095238D01*
X2122220Y6108192D01*
X2109876Y6119926D01*
X2096312Y6130239D01*
X2081682Y6139027D01*
X2066239Y6146139D01*
X2050084Y6151626D01*
X2033473Y6155283D01*
X2016506Y6157112D01*
X1999488Y6157112D01*
X1982520Y6155283D01*
X1965909Y6151626D01*
X1949754Y6146139D01*
X1934311Y6139027D01*
X1919681Y6130239D01*
X1906117Y6119926D01*
X1893773Y6108192D01*
X1882749Y6095238D01*
X1873199Y6081115D01*
X1865223Y6066078D01*
X1858873Y6050229D01*
X1854352Y6033820D01*
X1851609Y6017006D01*
X1850643Y5999988D01*
X1851609Y5982970D01*
X1854352Y5966155D01*
X1858873Y5949746D01*
X1865223Y5933948D01*
X1873199Y5918860D01*
X1882749Y5904788D01*
X1893773Y5891784D01*
X1906117Y5880100D01*
X1919681Y5869787D01*
X1934311Y5860999D01*
X1949754Y5853836D01*
X1965909Y5848400D01*
X1982520Y5844743D01*
G37*
G36*
X5999480Y5842914D02*
G01*
X6016498Y5842914D01*
X6033465Y5844743D01*
X6050076Y5848400D01*
X6066231Y5853836D01*
X6081674Y5860999D01*
X6096304Y5869787D01*
X6109868Y5880100D01*
X6122212Y5891784D01*
X6133236Y5904788D01*
X6142837Y5918860D01*
X6150813Y5933948D01*
X6157112Y5949746D01*
X6161633Y5966155D01*
X6164427Y5982970D01*
X6165342Y5999988D01*
X6164427Y6017006D01*
X6161633Y6033820D01*
X6157112Y6050229D01*
X6150813Y6066078D01*
X6142837Y6081115D01*
X6133236Y6095238D01*
X6122212Y6108192D01*
X6109868Y6119926D01*
X6096304Y6130239D01*
X6081674Y6139027D01*
X6066231Y6146139D01*
X6050076Y6151626D01*
X6033465Y6155283D01*
X6016498Y6157112D01*
X5999480Y6157112D01*
X5982563Y6155283D01*
X5965901Y6151626D01*
X5949746Y6146139D01*
X5934303Y6139027D01*
X5919724Y6130239D01*
X5906160Y6119926D01*
X5893765Y6108192D01*
X5882741Y6095238D01*
X5873191Y6081115D01*
X5865215Y6066078D01*
X5858916Y6050229D01*
X5854344Y6033820D01*
X5851601Y6017006D01*
X5850636Y5999988D01*
X5851601Y5982970D01*
X5854344Y5966155D01*
X5858916Y5949746D01*
X5865215Y5933948D01*
X5873191Y5918860D01*
X5882741Y5904788D01*
X5893765Y5891784D01*
X5906160Y5880100D01*
X5919724Y5869787D01*
X5934303Y5860999D01*
X5949746Y5853836D01*
X5965901Y5848400D01*
X5982563Y5844743D01*
G37*
G36*
X3999484Y5842914D02*
G01*
X4016501Y5842914D01*
X4033469Y5844743D01*
X4050080Y5848400D01*
X4066235Y5853836D01*
X4081678Y5860999D01*
X4096308Y5869787D01*
X4109872Y5880100D01*
X4122216Y5891784D01*
X4133240Y5904788D01*
X4142790Y5918860D01*
X4150817Y5933948D01*
X4157116Y5949746D01*
X4161637Y5966155D01*
X4164431Y5982970D01*
X4165346Y5999988D01*
X4164431Y6017006D01*
X4161637Y6033820D01*
X4157116Y6050229D01*
X4150817Y6066078D01*
X4142790Y6081115D01*
X4133240Y6095238D01*
X4122216Y6108192D01*
X4109872Y6119926D01*
X4096308Y6130239D01*
X4081678Y6139027D01*
X4066235Y6146139D01*
X4050080Y6151626D01*
X4033469Y6155283D01*
X4016501Y6157112D01*
X3999484Y6157112D01*
X3982567Y6155283D01*
X3965905Y6151626D01*
X3949750Y6146139D01*
X3934307Y6139027D01*
X3919677Y6130239D01*
X3906164Y6119926D01*
X3893769Y6108192D01*
X3882745Y6095238D01*
X3873195Y6081115D01*
X3865219Y6066078D01*
X3858920Y6050229D01*
X3854348Y6033820D01*
X3851605Y6017006D01*
X3850640Y5999988D01*
X3851605Y5982970D01*
X3854348Y5966155D01*
X3858920Y5949746D01*
X3865219Y5933948D01*
X3873195Y5918860D01*
X3882745Y5904788D01*
X3893769Y5891784D01*
X3906164Y5880100D01*
X3919677Y5869787D01*
X3934307Y5860999D01*
X3949750Y5853836D01*
X3965905Y5848400D01*
X3982567Y5844743D01*
G37*
G36*
X2983484Y5842914D02*
G01*
X3000502Y5842914D01*
X3017469Y5844743D01*
X3034080Y5848400D01*
X3050235Y5853836D01*
X3065678Y5860999D01*
X3080308Y5869787D01*
X3093872Y5880100D01*
X3106216Y5891784D01*
X3117240Y5904788D01*
X3126790Y5918860D01*
X3134817Y5933948D01*
X3141116Y5949746D01*
X3145637Y5966155D01*
X3148431Y5982970D01*
X3149346Y5999988D01*
X3148431Y6017006D01*
X3145637Y6033820D01*
X3141116Y6050229D01*
X3134817Y6066078D01*
X3126790Y6081115D01*
X3117037Y6095492D01*
X3115157Y6098794D01*
X3114598Y6102553D01*
X3115462Y6106210D01*
X3117646Y6109309D01*
X3120796Y6111443D01*
X3124454Y6112256D01*
X3131159Y6112408D01*
X3147212Y6114745D01*
X3162909Y6118860D01*
X3178048Y6124752D01*
X3192373Y6132322D01*
X3205784Y6141466D01*
X3218027Y6152083D01*
X3229000Y6164072D01*
X3238550Y6177178D01*
X3246526Y6191300D01*
X3252825Y6206236D01*
X3257397Y6221831D01*
X3260191Y6237782D01*
X3261106Y6253988D01*
X3260191Y6270193D01*
X3257397Y6286195D01*
X3252825Y6301740D01*
X3246526Y6316675D01*
X3238550Y6330848D01*
X3229000Y6343954D01*
X3218027Y6355892D01*
X3205784Y6366510D01*
X3192373Y6375704D01*
X3178048Y6383274D01*
X3162909Y6389166D01*
X3147212Y6393281D01*
X3131159Y6395567D01*
X3114954Y6396024D01*
X3098800Y6394653D01*
X3082899Y6391452D01*
X3067456Y6386423D01*
X3052673Y6379667D01*
X3038805Y6371285D01*
X3025952Y6361379D01*
X3014319Y6350101D01*
X3004058Y6337503D01*
X2995269Y6323888D01*
X2988106Y6309309D01*
X2985617Y6302349D01*
X2983484Y6298844D01*
X2980080Y6296456D01*
X2976067Y6295593D01*
X2721610Y6295593D01*
X2717901Y6296304D01*
X2714701Y6298336D01*
X2712466Y6301384D01*
X2707640Y6311392D01*
X2699867Y6323330D01*
X2690672Y6334150D01*
X2680157Y6343700D01*
X2668473Y6351828D01*
X2655874Y6358382D01*
X2642565Y6363309D01*
X2628696Y6366459D01*
X2614574Y6367830D01*
X2600350Y6367373D01*
X2586329Y6365087D01*
X2572715Y6361074D01*
X2559710Y6355334D01*
X2547569Y6347968D01*
X2536444Y6339078D01*
X2526588Y6328867D01*
X2518054Y6317488D01*
X2511094Y6305092D01*
X2505760Y6291935D01*
X2502154Y6278219D01*
X2500325Y6264097D01*
X2500325Y6249873D01*
X2502154Y6235801D01*
X2505760Y6222034D01*
X2511094Y6208877D01*
X2518054Y6196482D01*
X2526588Y6185103D01*
X2536444Y6174892D01*
X2547569Y6166053D01*
X2559710Y6158687D01*
X2572715Y6152946D01*
X2586329Y6148882D01*
X2600350Y6146647D01*
X2614574Y6146190D01*
X2628696Y6147511D01*
X2642565Y6150711D01*
X2655874Y6155588D01*
X2668473Y6162192D01*
X2680157Y6170320D01*
X2690672Y6179870D01*
X2699867Y6190691D01*
X2707640Y6202578D01*
X2712466Y6212636D01*
X2714701Y6215684D01*
X2717901Y6217716D01*
X2721610Y6218377D01*
X2973933Y6218377D01*
X2977946Y6217564D01*
X2981350Y6215176D01*
X2983484Y6211671D01*
X2988106Y6198666D01*
X2995269Y6184138D01*
X3002584Y6172758D01*
X3004058Y6168694D01*
X3003753Y6164427D01*
X3001721Y6160617D01*
X2998266Y6158026D01*
X2994050Y6157112D01*
X2983484Y6157112D01*
X2966567Y6155283D01*
X2949905Y6151626D01*
X2933750Y6146139D01*
X2918307Y6139027D01*
X2903677Y6130239D01*
X2890164Y6119926D01*
X2877769Y6108192D01*
X2866745Y6095238D01*
X2857195Y6081115D01*
X2849219Y6066078D01*
X2842920Y6050229D01*
X2838348Y6033820D01*
X2835605Y6017006D01*
X2834640Y5999988D01*
X2835605Y5982970D01*
X2838348Y5966155D01*
X2842920Y5949746D01*
X2849219Y5933948D01*
X2857195Y5918860D01*
X2866745Y5904788D01*
X2877769Y5891784D01*
X2890164Y5880100D01*
X2903677Y5869787D01*
X2918307Y5860999D01*
X2933750Y5853836D01*
X2949905Y5848400D01*
X2966567Y5844743D01*
G37*
G36*
X4983480Y5842914D02*
G01*
X5000498Y5842914D01*
X5017465Y5844743D01*
X5034076Y5848400D01*
X5050231Y5853836D01*
X5065674Y5860999D01*
X5080304Y5869787D01*
X5093868Y5880100D01*
X5106212Y5891784D01*
X5117236Y5904788D01*
X5126837Y5918860D01*
X5134813Y5933948D01*
X5141112Y5949746D01*
X5145633Y5966155D01*
X5148427Y5982970D01*
X5149342Y5999988D01*
X5148427Y6017006D01*
X5145633Y6033820D01*
X5141112Y6050229D01*
X5134813Y6066078D01*
X5126837Y6081115D01*
X5117033Y6095492D01*
X5115153Y6098794D01*
X5114594Y6102553D01*
X5115458Y6106210D01*
X5117642Y6109309D01*
X5120792Y6111443D01*
X5124450Y6112256D01*
X5131155Y6112408D01*
X5147208Y6114745D01*
X5162905Y6118860D01*
X5178044Y6124752D01*
X5192369Y6132322D01*
X5205780Y6141466D01*
X5218023Y6152083D01*
X5228996Y6164072D01*
X5238546Y6177178D01*
X5246522Y6191300D01*
X5252821Y6206236D01*
X5257393Y6221831D01*
X5260187Y6237782D01*
X5261102Y6253988D01*
X5260187Y6270193D01*
X5257393Y6286195D01*
X5252821Y6301740D01*
X5246522Y6316675D01*
X5238546Y6330848D01*
X5228996Y6343954D01*
X5218023Y6355892D01*
X5205780Y6366510D01*
X5192369Y6375704D01*
X5178044Y6383274D01*
X5162905Y6389166D01*
X5147208Y6393281D01*
X5131155Y6395567D01*
X5114950Y6396024D01*
X5098796Y6394653D01*
X5082895Y6391452D01*
X5067452Y6386423D01*
X5052669Y6379667D01*
X5038801Y6371285D01*
X5025948Y6361379D01*
X5014315Y6350101D01*
X5004054Y6337503D01*
X4995265Y6323888D01*
X4988102Y6309309D01*
X4985613Y6302349D01*
X4983480Y6298844D01*
X4980127Y6296456D01*
X4976063Y6295593D01*
X4499610Y6295593D01*
X4495901Y6296304D01*
X4492701Y6298336D01*
X4490466Y6301384D01*
X4485640Y6311392D01*
X4477867Y6323330D01*
X4468672Y6334150D01*
X4458157Y6343700D01*
X4446473Y6351828D01*
X4433874Y6358382D01*
X4420565Y6363309D01*
X4406696Y6366459D01*
X4392574Y6367830D01*
X4378350Y6367373D01*
X4364329Y6365087D01*
X4350715Y6361074D01*
X4337710Y6355334D01*
X4325569Y6347968D01*
X4314444Y6339078D01*
X4304588Y6328867D01*
X4296054Y6317488D01*
X4289094Y6305092D01*
X4283760Y6291935D01*
X4280154Y6278219D01*
X4278325Y6264097D01*
X4278325Y6249873D01*
X4280154Y6235801D01*
X4283760Y6222034D01*
X4289094Y6208877D01*
X4296054Y6196482D01*
X4304588Y6185103D01*
X4314444Y6174892D01*
X4325569Y6166053D01*
X4337710Y6158687D01*
X4350715Y6152946D01*
X4364329Y6148882D01*
X4378350Y6146647D01*
X4392574Y6146190D01*
X4406696Y6147511D01*
X4420565Y6150711D01*
X4433874Y6155588D01*
X4446473Y6162192D01*
X4458157Y6170320D01*
X4468672Y6179870D01*
X4477867Y6190691D01*
X4485640Y6202578D01*
X4490466Y6212636D01*
X4492701Y6215684D01*
X4495901Y6217716D01*
X4499610Y6218377D01*
X4973929Y6218377D01*
X4977942Y6217564D01*
X4981346Y6215176D01*
X4983480Y6211671D01*
X4988102Y6198666D01*
X4995265Y6184138D01*
X5002580Y6172758D01*
X5004104Y6168694D01*
X5003800Y6164427D01*
X5001717Y6160617D01*
X4998262Y6158026D01*
X4994046Y6157112D01*
X4983480Y6157112D01*
X4966563Y6155283D01*
X4949901Y6151626D01*
X4933746Y6146139D01*
X4918303Y6139027D01*
X4903724Y6130239D01*
X4890160Y6119926D01*
X4877765Y6108192D01*
X4866741Y6095238D01*
X4857191Y6081115D01*
X4849215Y6066078D01*
X4842916Y6050229D01*
X4838344Y6033820D01*
X4835601Y6017006D01*
X4834636Y5999988D01*
X4835601Y5982970D01*
X4838344Y5966155D01*
X4842916Y5949746D01*
X4849215Y5933948D01*
X4857191Y5918860D01*
X4866741Y5904788D01*
X4877765Y5891784D01*
X4890160Y5880100D01*
X4903724Y5869787D01*
X4918303Y5860999D01*
X4933746Y5853836D01*
X4949901Y5848400D01*
X4966563Y5844743D01*
G37*
G36*
X4278071Y9353854D02*
G01*
X4340148Y9353854D01*
X4340148Y9415932D01*
X4304588Y9415932D01*
X4298238Y9415221D01*
X4292803Y9413290D01*
X4287875Y9410192D01*
X4283811Y9406128D01*
X4280712Y9401200D01*
X4278782Y9395764D01*
X4278071Y9389414D01*
G37*
G36*
X2614574Y5892190D02*
G01*
X2628696Y5893511D01*
X2642565Y5896711D01*
X2655874Y5901588D01*
X2668473Y5908192D01*
X2680157Y5916320D01*
X2690672Y5925870D01*
X2699867Y5936691D01*
X2707640Y5948578D01*
X2713786Y5961380D01*
X2718257Y5974892D01*
X2721000Y5988812D01*
X2721864Y6002985D01*
X2721000Y6017158D01*
X2718257Y6031128D01*
X2713786Y6044590D01*
X2707640Y6057392D01*
X2699867Y6069330D01*
X2690672Y6080150D01*
X2680157Y6089700D01*
X2668473Y6097828D01*
X2655874Y6104382D01*
X2642565Y6109309D01*
X2628696Y6112459D01*
X2614574Y6113830D01*
X2600350Y6113373D01*
X2586329Y6111087D01*
X2572715Y6107074D01*
X2559710Y6101334D01*
X2547569Y6093968D01*
X2536444Y6085078D01*
X2526588Y6074867D01*
X2518054Y6063488D01*
X2511094Y6051092D01*
X2505760Y6037935D01*
X2502154Y6024219D01*
X2500325Y6010097D01*
X2500325Y5995873D01*
X2502154Y5981801D01*
X2505760Y5968034D01*
X2511094Y5954877D01*
X2518054Y5942482D01*
X2526588Y5931103D01*
X2536444Y5920892D01*
X2547569Y5912053D01*
X2559710Y5904687D01*
X2572715Y5898946D01*
X2586329Y5894882D01*
X2600350Y5892647D01*
G37*
G36*
X4392574Y5892190D02*
G01*
X4406696Y5893511D01*
X4420565Y5896711D01*
X4433874Y5901588D01*
X4446473Y5908192D01*
X4458157Y5916320D01*
X4468672Y5925870D01*
X4477867Y5936691D01*
X4485640Y5948578D01*
X4491786Y5961380D01*
X4496257Y5974892D01*
X4499000Y5988812D01*
X4499864Y6002985D01*
X4499000Y6017158D01*
X4496257Y6031128D01*
X4491786Y6044590D01*
X4485640Y6057392D01*
X4477867Y6069330D01*
X4468672Y6080150D01*
X4458157Y6089700D01*
X4446473Y6097828D01*
X4433874Y6104382D01*
X4420565Y6109309D01*
X4406696Y6112459D01*
X4392574Y6113830D01*
X4378350Y6113373D01*
X4364329Y6111087D01*
X4350715Y6107074D01*
X4337710Y6101334D01*
X4325569Y6093968D01*
X4314444Y6085078D01*
X4304588Y6074867D01*
X4296054Y6063488D01*
X4289094Y6051092D01*
X4283760Y6037935D01*
X4280154Y6024219D01*
X4278325Y6010097D01*
X4278325Y5995873D01*
X4280154Y5981801D01*
X4283760Y5968034D01*
X4289094Y5954877D01*
X4296054Y5942482D01*
X4304588Y5931103D01*
X4314444Y5920892D01*
X4325569Y5912053D01*
X4337710Y5904687D01*
X4350715Y5898946D01*
X4364329Y5894882D01*
X4378350Y5892647D01*
G37*
G36*
X2659837Y9353854D02*
G01*
X2721914Y9353854D01*
X2721914Y9389414D01*
X2721203Y9395764D01*
X2719273Y9401200D01*
X2716225Y9406128D01*
X2712110Y9410192D01*
X2707233Y9413290D01*
X2701747Y9415221D01*
X2695448Y9415932D01*
X2659837Y9415932D01*
G37*
G36*
X4304588Y9194088D02*
G01*
X4340148Y9194088D01*
X4340148Y9256166D01*
X4278071Y9256166D01*
X4278071Y9220555D01*
X4278782Y9214256D01*
X4280712Y9208770D01*
X4283811Y9203893D01*
X4287875Y9199778D01*
X4292803Y9196730D01*
X4298238Y9194800D01*
G37*
G36*
X2526588Y9194088D02*
G01*
X2562148Y9194088D01*
X2562148Y9256166D01*
X2500071Y9256166D01*
X2500071Y9220555D01*
X2500782Y9214256D01*
X2502712Y9208770D01*
X2505811Y9203893D01*
X2509875Y9199778D01*
X2514803Y9196730D01*
X2520238Y9194800D01*
G37*
G36*
X2659837Y9194088D02*
G01*
X2695448Y9194088D01*
X2701747Y9194800D01*
X2707233Y9196730D01*
X2712110Y9199778D01*
X2716225Y9203893D01*
X2719273Y9208770D01*
X2721203Y9214256D01*
X2721914Y9220555D01*
X2721914Y9256166D01*
X2659837Y9256166D01*
G37*
G36*
X4437837Y9194088D02*
G01*
X4473448Y9194088D01*
X4479747Y9194800D01*
X4485233Y9196730D01*
X4490110Y9199778D01*
X4494225Y9203893D01*
X4497273Y9208770D01*
X4499203Y9214256D01*
X4499914Y9220555D01*
X4499914Y9256166D01*
X4437837Y9256166D01*
G37*
G36*
X2614574Y8940190D02*
G01*
X2628696Y8941511D01*
X2642565Y8944711D01*
X2655874Y8949588D01*
X2668473Y8956192D01*
X2680157Y8964320D01*
X2690672Y8973870D01*
X2699867Y8984691D01*
X2707640Y8996578D01*
X2713786Y9009380D01*
X2718257Y9022892D01*
X2721000Y9036812D01*
X2721864Y9050985D01*
X2721000Y9065158D01*
X2718257Y9079128D01*
X2713786Y9092590D01*
X2707640Y9105392D01*
X2699867Y9117330D01*
X2690672Y9128150D01*
X2680157Y9137700D01*
X2668473Y9145828D01*
X2655874Y9152382D01*
X2642565Y9157309D01*
X2628696Y9160459D01*
X2614574Y9161830D01*
X2600350Y9161373D01*
X2586329Y9159087D01*
X2572715Y9155074D01*
X2559710Y9149334D01*
X2547569Y9141968D01*
X2536444Y9133078D01*
X2526588Y9122867D01*
X2518054Y9111488D01*
X2511094Y9099092D01*
X2505760Y9085935D01*
X2502154Y9072219D01*
X2500325Y9058097D01*
X2500325Y9043873D01*
X2502154Y9029801D01*
X2505760Y9016034D01*
X2511094Y9002877D01*
X2518054Y8990482D01*
X2526588Y8979103D01*
X2536444Y8968892D01*
X2547569Y8960053D01*
X2559710Y8952687D01*
X2572715Y8946946D01*
X2586329Y8942882D01*
X2600350Y8940647D01*
G37*
G36*
X4392574Y8940190D02*
G01*
X4406696Y8941511D01*
X4420565Y8944711D01*
X4433874Y8949588D01*
X4446473Y8956192D01*
X4458157Y8964320D01*
X4468672Y8973870D01*
X4477867Y8984691D01*
X4485640Y8996578D01*
X4491786Y9009380D01*
X4496257Y9022892D01*
X4499000Y9036812D01*
X4499864Y9050985D01*
X4499000Y9065158D01*
X4496257Y9079128D01*
X4491786Y9092590D01*
X4485640Y9105392D01*
X4477867Y9117330D01*
X4468672Y9128150D01*
X4458157Y9137700D01*
X4446473Y9145828D01*
X4433874Y9152382D01*
X4420565Y9157309D01*
X4406696Y9160459D01*
X4392574Y9161830D01*
X4378350Y9161373D01*
X4364329Y9159087D01*
X4350715Y9155074D01*
X4337710Y9149334D01*
X4325569Y9141968D01*
X4314444Y9133078D01*
X4304588Y9122867D01*
X4296054Y9111488D01*
X4289094Y9099092D01*
X4283760Y9085935D01*
X4280154Y9072219D01*
X4278325Y9058097D01*
X4278325Y9043873D01*
X4280154Y9029801D01*
X4283760Y9016034D01*
X4289094Y9002877D01*
X4296054Y8990482D01*
X4304588Y8979103D01*
X4314444Y8968892D01*
X4325569Y8960053D01*
X4337710Y8952687D01*
X4350715Y8946946D01*
X4364329Y8942882D01*
X4378350Y8940647D01*
G37*
G36*
X2614574Y8686190D02*
G01*
X2628696Y8687511D01*
X2642565Y8690711D01*
X2655874Y8695588D01*
X2668473Y8702192D01*
X2680157Y8710320D01*
X2690672Y8719870D01*
X2699867Y8730691D01*
X2707640Y8742578D01*
X2713786Y8755380D01*
X2718257Y8768892D01*
X2721000Y8782812D01*
X2721864Y8796985D01*
X2721000Y8811158D01*
X2718257Y8825128D01*
X2713786Y8838590D01*
X2707640Y8851392D01*
X2699867Y8863330D01*
X2690672Y8874150D01*
X2680157Y8883700D01*
X2668473Y8891828D01*
X2655874Y8898382D01*
X2642565Y8903309D01*
X2628696Y8906459D01*
X2614574Y8907830D01*
X2600350Y8907373D01*
X2586329Y8905087D01*
X2572715Y8901074D01*
X2559710Y8895334D01*
X2547569Y8887968D01*
X2536444Y8879078D01*
X2526588Y8868867D01*
X2518054Y8857488D01*
X2511094Y8845092D01*
X2505760Y8831935D01*
X2502154Y8818219D01*
X2500325Y8804097D01*
X2500325Y8789873D01*
X2502154Y8775801D01*
X2505760Y8762034D01*
X2511094Y8748877D01*
X2518054Y8736482D01*
X2526588Y8725103D01*
X2536444Y8714892D01*
X2547569Y8706053D01*
X2559710Y8698687D01*
X2572715Y8692946D01*
X2586329Y8688882D01*
X2600350Y8686647D01*
G37*
G36*
X1689557Y6381496D02*
G01*
X1689557Y6443522D01*
X1627581Y6443522D01*
X1630273Y6438138D01*
X1639062Y6424472D01*
X1649323Y6411925D01*
X1660956Y6400596D01*
X1673809Y6390690D01*
X1687677Y6382308D01*
G37*
G36*
X3689553Y6381496D02*
G01*
X3689553Y6443522D01*
X3627628Y6443522D01*
X3630269Y6438138D01*
X3639058Y6424472D01*
X3649319Y6411925D01*
X3660952Y6400596D01*
X3673805Y6390690D01*
X3687673Y6382308D01*
G37*
G36*
X4392574Y8686190D02*
G01*
X4406696Y8687511D01*
X4420565Y8690711D01*
X4433874Y8695588D01*
X4446473Y8702192D01*
X4458157Y8710320D01*
X4468672Y8719870D01*
X4477867Y8730691D01*
X4485640Y8742578D01*
X4491786Y8755380D01*
X4496257Y8768892D01*
X4499000Y8782812D01*
X4499864Y8796985D01*
X4499000Y8811158D01*
X4496257Y8825128D01*
X4491786Y8838590D01*
X4485640Y8851392D01*
X4477867Y8863330D01*
X4468672Y8874150D01*
X4458157Y8883700D01*
X4446473Y8891828D01*
X4433874Y8898382D01*
X4420565Y8903309D01*
X4406696Y8906459D01*
X4392574Y8907830D01*
X4378350Y8907373D01*
X4364329Y8905087D01*
X4350715Y8901074D01*
X4337710Y8895334D01*
X4325569Y8887968D01*
X4314444Y8879078D01*
X4304588Y8868867D01*
X4296054Y8857488D01*
X4289094Y8845092D01*
X4283760Y8831935D01*
X4280154Y8818219D01*
X4278325Y8804097D01*
X4278325Y8789873D01*
X4280154Y8775801D01*
X4283760Y8762034D01*
X4289094Y8748877D01*
X4296054Y8736482D01*
X4304588Y8725103D01*
X4314444Y8714892D01*
X4325569Y8706053D01*
X4337710Y8698687D01*
X4350715Y8692946D01*
X4364329Y8688882D01*
X4378350Y8686647D01*
G37*
G36*
X1818436Y6381597D02*
G01*
X1827377Y6386322D01*
X1840788Y6395466D01*
X1853031Y6406083D01*
X1864004Y6418072D01*
X1873554Y6431178D01*
X1880514Y6443522D01*
X1818436Y6443522D01*
G37*
G36*
X3818432Y6381597D02*
G01*
X3827373Y6386322D01*
X3840784Y6395466D01*
X3853027Y6406083D01*
X3864000Y6418072D01*
X3873550Y6431178D01*
X3880510Y6443522D01*
X3818432Y6443522D01*
G37*
G36*
X5818428Y6381597D02*
G01*
X5827369Y6386322D01*
X5840780Y6395466D01*
X5853023Y6406083D01*
X5863996Y6418072D01*
X5873546Y6431178D01*
X5880506Y6443522D01*
X5818428Y6443522D01*
G37*
G36*
X4392574Y6400190D02*
G01*
X4406696Y6401511D01*
X4420565Y6404711D01*
X4433874Y6409588D01*
X4446473Y6416192D01*
X4458157Y6424320D01*
X4468672Y6433870D01*
X4477867Y6444691D01*
X4485640Y6456578D01*
X4491786Y6469380D01*
X4496257Y6482892D01*
X4499000Y6496812D01*
X4499864Y6510985D01*
X4499000Y6525158D01*
X4496257Y6539128D01*
X4491786Y6552590D01*
X4485640Y6565392D01*
X4477867Y6577330D01*
X4468672Y6588150D01*
X4458157Y6597700D01*
X4446473Y6605828D01*
X4433874Y6612381D01*
X4420565Y6617309D01*
X4406696Y6620459D01*
X4392574Y6621830D01*
X4378350Y6621373D01*
X4364329Y6619087D01*
X4350715Y6615074D01*
X4337710Y6609334D01*
X4325569Y6601968D01*
X4314444Y6593078D01*
X4304588Y6582867D01*
X4296054Y6571488D01*
X4289094Y6559092D01*
X4283760Y6545935D01*
X4280154Y6532219D01*
X4278325Y6518097D01*
X4278325Y6503873D01*
X4280154Y6489801D01*
X4283760Y6476034D01*
X4289094Y6462877D01*
X4296054Y6450482D01*
X4304588Y6439103D01*
X4314444Y6428892D01*
X4325569Y6420053D01*
X4337710Y6412687D01*
X4350715Y6406946D01*
X4364329Y6402882D01*
X4378350Y6400647D01*
G37*
G36*
X5627624Y8572449D02*
G01*
X5689549Y8572449D01*
X5689549Y8634526D01*
X5687669Y8633663D01*
X5673801Y8625281D01*
X5660948Y8615375D01*
X5649315Y8604097D01*
X5639054Y8591499D01*
X5630265Y8577884D01*
G37*
G36*
X3627628Y8572449D02*
G01*
X3689553Y8572449D01*
X3689553Y8634526D01*
X3687673Y8633663D01*
X3673805Y8625281D01*
X3660952Y8615375D01*
X3649319Y8604097D01*
X3639058Y8591499D01*
X3630269Y8577884D01*
G37*
G36*
X1818436Y6572453D02*
G01*
X1880514Y6572453D01*
X1873554Y6584848D01*
X1864004Y6597954D01*
X1853031Y6609892D01*
X1840788Y6620509D01*
X1827377Y6629704D01*
X1818436Y6634378D01*
G37*
G36*
X3818432Y6572453D02*
G01*
X3880510Y6572453D01*
X3873550Y6584848D01*
X3864000Y6597954D01*
X3853027Y6609892D01*
X3840784Y6620509D01*
X3827373Y6629704D01*
X3818432Y6634378D01*
G37*
G36*
X5818428Y6572453D02*
G01*
X5880506Y6572453D01*
X5873546Y6584848D01*
X5863996Y6597954D01*
X5853023Y6609892D01*
X5840780Y6620509D01*
X5827369Y6629704D01*
X5818428Y6634378D01*
G37*
G36*
X1627581Y6572453D02*
G01*
X1689557Y6572453D01*
X1689557Y6634530D01*
X1687677Y6633667D01*
X1673809Y6625285D01*
X1660956Y6615379D01*
X1649323Y6604101D01*
X1639062Y6591503D01*
X1630273Y6577888D01*
G37*
G36*
X5627624Y6572453D02*
G01*
X5689549Y6572453D01*
X5689549Y6634530D01*
X5687669Y6633667D01*
X5673801Y6625285D01*
X5660948Y6615379D01*
X5649315Y6604101D01*
X5639054Y6591503D01*
X5630265Y6577888D01*
G37*
G36*
X3627628Y6572453D02*
G01*
X3689553Y6572453D01*
X3689553Y6634530D01*
X3687673Y6633667D01*
X3673805Y6625285D01*
X3660952Y6615379D01*
X3649319Y6604101D01*
X3639058Y6591503D01*
X3630269Y6577888D01*
G37*
G36*
X2659837Y6654088D02*
G01*
X2695448Y6654088D01*
X2701747Y6654800D01*
X2707233Y6656730D01*
X2712110Y6659778D01*
X2716225Y6663893D01*
X2719273Y6668770D01*
X2721203Y6674256D01*
X2721914Y6680555D01*
X2721914Y6716166D01*
X2659837Y6716166D01*
G37*
G36*
X2526588Y6654088D02*
G01*
X2562148Y6654088D01*
X2562148Y6716166D01*
X2500071Y6716166D01*
X2500071Y6680555D01*
X2500782Y6674256D01*
X2502712Y6668770D01*
X2505811Y6663893D01*
X2509875Y6659778D01*
X2514803Y6656730D01*
X2520238Y6654800D01*
G37*
G36*
X4437837Y6654088D02*
G01*
X4473448Y6654088D01*
X4479747Y6654800D01*
X4485233Y6656730D01*
X4490110Y6659778D01*
X4494225Y6663893D01*
X4497273Y6668770D01*
X4499203Y6674256D01*
X4499914Y6680555D01*
X4499914Y6716166D01*
X4437837Y6716166D01*
G37*
G36*
X4304588Y6654088D02*
G01*
X4340148Y6654088D01*
X4340148Y6716166D01*
X4278071Y6716166D01*
X4278071Y6680555D01*
X4278782Y6674256D01*
X4280712Y6668770D01*
X4283811Y6663893D01*
X4287875Y6659778D01*
X4292803Y6656730D01*
X4298238Y6654800D01*
G37*
G36*
X2659837Y6813854D02*
G01*
X2721914Y6813854D01*
X2721914Y6849414D01*
X2721203Y6855764D01*
X2719273Y6861200D01*
X2716225Y6866128D01*
X2712110Y6870192D01*
X2707233Y6873290D01*
X2701747Y6875221D01*
X2695448Y6875932D01*
X2659837Y6875932D01*
G37*
G36*
X4278071Y6813854D02*
G01*
X4340148Y6813854D01*
X4340148Y6875932D01*
X4304588Y6875932D01*
X4298238Y6875221D01*
X4292803Y6873290D01*
X4287875Y6870192D01*
X4283811Y6866128D01*
X4280712Y6861200D01*
X4278782Y6855764D01*
X4278071Y6849414D01*
G37*
G36*
X4437837Y6813854D02*
G01*
X4499914Y6813854D01*
X4499914Y6849414D01*
X4499203Y6855764D01*
X4497273Y6861200D01*
X4494225Y6866128D01*
X4490110Y6870192D01*
X4485233Y6873290D01*
X4479747Y6875221D01*
X4473448Y6875932D01*
X4437837Y6875932D01*
G37*
G36*
X2500071Y6813854D02*
G01*
X2562148Y6813854D01*
X2562148Y6875932D01*
X2526588Y6875932D01*
X2520238Y6875221D01*
X2514803Y6873290D01*
X2509875Y6870192D01*
X2505811Y6866128D01*
X2502712Y6861200D01*
X2500782Y6855764D01*
X2500071Y6849414D01*
G37*
G36*
X4392574Y6908190D02*
G01*
X4406696Y6909511D01*
X4420565Y6912711D01*
X4433874Y6917588D01*
X4446473Y6924192D01*
X4458157Y6932320D01*
X4468672Y6941870D01*
X4477867Y6952691D01*
X4485640Y6964578D01*
X4491786Y6977380D01*
X4496257Y6990892D01*
X4499000Y7004812D01*
X4499864Y7018985D01*
X4499000Y7033158D01*
X4496257Y7047128D01*
X4491786Y7060590D01*
X4485640Y7073392D01*
X4477867Y7085330D01*
X4468672Y7096150D01*
X4458157Y7105700D01*
X4446473Y7113828D01*
X4433874Y7120381D01*
X4420565Y7125309D01*
X4406696Y7128459D01*
X4392574Y7129830D01*
X4378350Y7129373D01*
X4364329Y7127087D01*
X4350715Y7123074D01*
X4337710Y7117334D01*
X4325569Y7109968D01*
X4314444Y7101078D01*
X4304588Y7090867D01*
X4296054Y7079488D01*
X4289094Y7067092D01*
X4283760Y7053935D01*
X4280154Y7040219D01*
X4278325Y7026097D01*
X4278325Y7011873D01*
X4280154Y6997801D01*
X4283760Y6984034D01*
X4289094Y6970877D01*
X4296054Y6958482D01*
X4304588Y6947103D01*
X4314444Y6936892D01*
X4325569Y6928053D01*
X4337710Y6920687D01*
X4350715Y6914946D01*
X4364329Y6910882D01*
X4378350Y6908647D01*
G37*
G36*
X2614574Y6908190D02*
G01*
X2628696Y6909511D01*
X2642565Y6912711D01*
X2655874Y6917588D01*
X2668473Y6924192D01*
X2680157Y6932320D01*
X2690672Y6941870D01*
X2699867Y6952691D01*
X2707640Y6964578D01*
X2713786Y6977380D01*
X2718257Y6990892D01*
X2721000Y7004812D01*
X2721864Y7018985D01*
X2721000Y7033158D01*
X2718257Y7047128D01*
X2713786Y7060590D01*
X2707640Y7073392D01*
X2699867Y7085330D01*
X2690672Y7096150D01*
X2680157Y7105700D01*
X2668473Y7113828D01*
X2655874Y7120381D01*
X2642565Y7125309D01*
X2628696Y7128459D01*
X2614574Y7129830D01*
X2600350Y7129373D01*
X2586329Y7127087D01*
X2572715Y7123074D01*
X2559710Y7117334D01*
X2547569Y7109968D01*
X2536444Y7101078D01*
X2526588Y7090867D01*
X2518054Y7079488D01*
X2511094Y7067092D01*
X2505760Y7053935D01*
X2502154Y7040219D01*
X2500325Y7026097D01*
X2500325Y7011873D01*
X2502154Y6997801D01*
X2505760Y6984034D01*
X2511094Y6970877D01*
X2518054Y6958482D01*
X2526588Y6947103D01*
X2536444Y6936892D01*
X2547569Y6928053D01*
X2559710Y6920687D01*
X2572715Y6914946D01*
X2586329Y6910882D01*
X2600350Y6908647D01*
G37*
G36*
X4392574Y7162190D02*
G01*
X4406696Y7163511D01*
X4420565Y7166711D01*
X4433874Y7171588D01*
X4446473Y7178192D01*
X4458157Y7186320D01*
X4468672Y7195870D01*
X4477867Y7206691D01*
X4485640Y7218578D01*
X4491786Y7231380D01*
X4496257Y7244892D01*
X4499000Y7258812D01*
X4499864Y7272985D01*
X4499000Y7287158D01*
X4496257Y7301128D01*
X4491786Y7314590D01*
X4485640Y7327392D01*
X4477867Y7339330D01*
X4468672Y7350150D01*
X4458157Y7359700D01*
X4446473Y7367828D01*
X4433874Y7374381D01*
X4420565Y7379309D01*
X4406696Y7382459D01*
X4392574Y7383830D01*
X4378350Y7383373D01*
X4364329Y7381087D01*
X4350715Y7377074D01*
X4337710Y7371334D01*
X4325569Y7363968D01*
X4314444Y7355078D01*
X4304588Y7344867D01*
X4296054Y7333488D01*
X4289094Y7321092D01*
X4283760Y7307935D01*
X4280154Y7294219D01*
X4278325Y7280097D01*
X4278325Y7265873D01*
X4280154Y7251801D01*
X4283760Y7238034D01*
X4289094Y7224877D01*
X4296054Y7212482D01*
X4304588Y7201103D01*
X4314444Y7190892D01*
X4325569Y7182053D01*
X4337710Y7174687D01*
X4350715Y7168946D01*
X4364329Y7164882D01*
X4378350Y7162647D01*
G37*
G36*
X2614574Y7162190D02*
G01*
X2628696Y7163511D01*
X2642565Y7166711D01*
X2655874Y7171588D01*
X2668473Y7178192D01*
X2680157Y7186320D01*
X2690672Y7195870D01*
X2699867Y7206691D01*
X2707640Y7218578D01*
X2713786Y7231380D01*
X2718257Y7244892D01*
X2721000Y7258812D01*
X2721864Y7272985D01*
X2721000Y7287158D01*
X2718257Y7301128D01*
X2713786Y7314590D01*
X2707640Y7327392D01*
X2699867Y7339330D01*
X2690672Y7350150D01*
X2680157Y7359700D01*
X2668473Y7367828D01*
X2655874Y7374381D01*
X2642565Y7379309D01*
X2628696Y7382459D01*
X2614574Y7383830D01*
X2600350Y7383373D01*
X2586329Y7381087D01*
X2572715Y7377074D01*
X2559710Y7371334D01*
X2547569Y7363968D01*
X2536444Y7355078D01*
X2526588Y7344867D01*
X2518054Y7333488D01*
X2511094Y7321092D01*
X2505760Y7307935D01*
X2502154Y7294219D01*
X2500325Y7280097D01*
X2500325Y7265873D01*
X2502154Y7251801D01*
X2505760Y7238034D01*
X2511094Y7224877D01*
X2518054Y7212482D01*
X2526588Y7201103D01*
X2536444Y7190892D01*
X2547569Y7182053D01*
X2559710Y7174687D01*
X2572715Y7168946D01*
X2586329Y7164882D01*
X2600350Y7162647D01*
G37*
G36*
X2614574Y7416190D02*
G01*
X2628696Y7417511D01*
X2642565Y7420711D01*
X2655874Y7425588D01*
X2668473Y7432192D01*
X2680157Y7440320D01*
X2690672Y7449870D01*
X2699867Y7460691D01*
X2707640Y7472578D01*
X2713786Y7485380D01*
X2718257Y7498892D01*
X2721000Y7512812D01*
X2721864Y7526985D01*
X2721000Y7541158D01*
X2718257Y7555128D01*
X2713786Y7568590D01*
X2707640Y7581392D01*
X2699867Y7593330D01*
X2690672Y7604150D01*
X2680157Y7613700D01*
X2668473Y7621828D01*
X2655874Y7628381D01*
X2642565Y7633309D01*
X2628696Y7636459D01*
X2614574Y7637830D01*
X2600350Y7637373D01*
X2586329Y7635087D01*
X2572715Y7631074D01*
X2559710Y7625334D01*
X2547569Y7617968D01*
X2536444Y7609078D01*
X2526588Y7598867D01*
X2518054Y7587488D01*
X2511094Y7575092D01*
X2505760Y7561935D01*
X2502154Y7548219D01*
X2500325Y7534097D01*
X2500325Y7519873D01*
X2502154Y7505801D01*
X2505760Y7492034D01*
X2511094Y7478877D01*
X2518054Y7466482D01*
X2526588Y7455103D01*
X2536444Y7444892D01*
X2547569Y7436053D01*
X2559710Y7428687D01*
X2572715Y7422946D01*
X2586329Y7418882D01*
X2600350Y7416647D01*
G37*
G36*
X4392574Y7416190D02*
G01*
X4406696Y7417511D01*
X4420565Y7420711D01*
X4433874Y7425588D01*
X4446473Y7432192D01*
X4458157Y7440320D01*
X4468672Y7449870D01*
X4477867Y7460691D01*
X4485640Y7472578D01*
X4491786Y7485380D01*
X4496257Y7498892D01*
X4499000Y7512812D01*
X4499864Y7526985D01*
X4499000Y7541158D01*
X4496257Y7555128D01*
X4491786Y7568590D01*
X4485640Y7581392D01*
X4477867Y7593330D01*
X4468672Y7604150D01*
X4458157Y7613700D01*
X4446473Y7621828D01*
X4433874Y7628381D01*
X4420565Y7633309D01*
X4406696Y7636459D01*
X4392574Y7637830D01*
X4378350Y7637373D01*
X4364329Y7635087D01*
X4350715Y7631074D01*
X4337710Y7625334D01*
X4325569Y7617968D01*
X4314444Y7609078D01*
X4304588Y7598867D01*
X4296054Y7587488D01*
X4289094Y7575092D01*
X4283760Y7561935D01*
X4280154Y7548219D01*
X4278325Y7534097D01*
X4278325Y7519873D01*
X4280154Y7505801D01*
X4283760Y7492034D01*
X4289094Y7478877D01*
X4296054Y7466482D01*
X4304588Y7455103D01*
X4314444Y7444892D01*
X4325569Y7436053D01*
X4337710Y7428687D01*
X4350715Y7422946D01*
X4364329Y7418882D01*
X4378350Y7416647D01*
G37*
G36*
X1400505Y7561376D02*
G01*
X1599488Y7561376D01*
X1607515Y7562189D01*
X1614779Y7564374D01*
X1621434Y7567930D01*
X1627632Y7573060D01*
X1794002Y7739430D01*
X1797304Y7741615D01*
X1801215Y7742377D01*
X2500376Y7742377D01*
X2504287Y7741615D01*
X2507640Y7739380D01*
X2509824Y7736078D01*
X2511094Y7732877D01*
X2518054Y7720482D01*
X2526588Y7709103D01*
X2536444Y7698892D01*
X2547569Y7690053D01*
X2559710Y7682687D01*
X2572715Y7676946D01*
X2586329Y7672882D01*
X2600350Y7670647D01*
X2614574Y7670190D01*
X2628696Y7671511D01*
X2642565Y7674711D01*
X2655874Y7679588D01*
X2668473Y7686192D01*
X2680157Y7694320D01*
X2690672Y7703870D01*
X2699867Y7714691D01*
X2707640Y7726578D01*
X2713786Y7739380D01*
X2718257Y7752892D01*
X2721000Y7766812D01*
X2721864Y7780985D01*
X2721000Y7795158D01*
X2718257Y7809128D01*
X2713786Y7822590D01*
X2707640Y7835392D01*
X2699867Y7847330D01*
X2690672Y7858150D01*
X2680157Y7867700D01*
X2668473Y7875828D01*
X2655874Y7882381D01*
X2642565Y7887309D01*
X2628696Y7890459D01*
X2614574Y7891830D01*
X2600350Y7891373D01*
X2586329Y7889087D01*
X2572715Y7885074D01*
X2559710Y7879334D01*
X2547569Y7871968D01*
X2536444Y7863078D01*
X2526588Y7852867D01*
X2518054Y7841488D01*
X2511094Y7829092D01*
X2509824Y7825943D01*
X2507640Y7822641D01*
X2504338Y7820406D01*
X2500426Y7819593D01*
X1781505Y7819593D01*
X1773478Y7818831D01*
X1766265Y7816646D01*
X1759610Y7813090D01*
X1753362Y7807959D01*
X1586992Y7641590D01*
X1583690Y7639405D01*
X1579778Y7638592D01*
X1420215Y7638592D01*
X1416304Y7639405D01*
X1413002Y7641590D01*
X1241602Y7813040D01*
X1239367Y7816291D01*
X1238605Y7820202D01*
X1238605Y7852968D01*
X1239570Y7857236D01*
X1242212Y7860690D01*
X1246073Y7862773D01*
X1250442Y7862976D01*
X1254506Y7861350D01*
X1257503Y7858150D01*
X1264615Y7846212D01*
X1278128Y7827314D01*
X1293114Y7809585D01*
X1309573Y7793126D01*
X1327302Y7778140D01*
X1346200Y7764627D01*
X1366164Y7752740D01*
X1387043Y7742529D01*
X1408684Y7734046D01*
X1430985Y7727442D01*
X1453743Y7722666D01*
X1476756Y7719771D01*
X1500022Y7718856D01*
X1523238Y7719771D01*
X1546301Y7722666D01*
X1569008Y7727442D01*
X1591310Y7734046D01*
X1612950Y7742529D01*
X1633829Y7752740D01*
X1653793Y7764627D01*
X1672691Y7778140D01*
X1690420Y7793126D01*
X1706880Y7809585D01*
X1721866Y7827314D01*
X1735378Y7846212D01*
X1747266Y7866176D01*
X1757476Y7887055D01*
X1765909Y7908696D01*
X1772564Y7930997D01*
X1777339Y7953705D01*
X1780184Y7976768D01*
X1781149Y7999984D01*
X1780184Y8023199D01*
X1777339Y8046262D01*
X1772564Y8069021D01*
X1765909Y8091322D01*
X1757476Y8112963D01*
X1747266Y8133842D01*
X1735378Y8153806D01*
X1721866Y8172703D01*
X1706880Y8190433D01*
X1690420Y8206841D01*
X1672691Y8221878D01*
X1653793Y8235391D01*
X1633829Y8247278D01*
X1612950Y8257489D01*
X1591310Y8265922D01*
X1569008Y8272576D01*
X1546301Y8277352D01*
X1523238Y8280196D01*
X1500022Y8281162D01*
X1476756Y8280196D01*
X1453743Y8277352D01*
X1430985Y8272576D01*
X1408684Y8265922D01*
X1387043Y8257489D01*
X1366164Y8247278D01*
X1346200Y8235391D01*
X1327302Y8221878D01*
X1309573Y8206841D01*
X1293114Y8190433D01*
X1278128Y8172703D01*
X1264615Y8153806D01*
X1257503Y8141817D01*
X1254506Y8138668D01*
X1250442Y8137042D01*
X1246073Y8137245D01*
X1242212Y8139277D01*
X1239570Y8142782D01*
X1238605Y8147050D01*
X1238707Y8176463D01*
X1239774Y8179409D01*
X1246530Y8191296D01*
X1252829Y8206231D01*
X1257401Y8221827D01*
X1260144Y8237778D01*
X1261110Y8253984D01*
X1260144Y8270189D01*
X1257401Y8286191D01*
X1252829Y8301736D01*
X1246530Y8316722D01*
X1238554Y8330844D01*
X1229004Y8343950D01*
X1218031Y8355888D01*
X1205788Y8366506D01*
X1192377Y8375700D01*
X1178052Y8383270D01*
X1162913Y8389162D01*
X1147216Y8393277D01*
X1131163Y8395563D01*
X1114958Y8396020D01*
X1098753Y8394649D01*
X1082852Y8391448D01*
X1067460Y8386419D01*
X1052677Y8379663D01*
X1038809Y8371281D01*
X1025956Y8361375D01*
X1014323Y8350097D01*
X1004062Y8337499D01*
X995273Y8323884D01*
X988110Y8309305D01*
X982675Y8294014D01*
X978966Y8278215D01*
X977137Y8262112D01*
X977137Y8245906D01*
X978966Y8229752D01*
X982675Y8213953D01*
X988110Y8198662D01*
X995273Y8184134D01*
X1002588Y8172754D01*
X1004062Y8168690D01*
X1003757Y8164423D01*
X1001725Y8160613D01*
X998270Y8158022D01*
X994003Y8157108D01*
X983487Y8157108D01*
X966520Y8155279D01*
X949909Y8151622D01*
X933754Y8146186D01*
X918311Y8139023D01*
X903681Y8130235D01*
X890117Y8119922D01*
X877773Y8108188D01*
X866749Y8095234D01*
X857199Y8081111D01*
X849223Y8066074D01*
X842873Y8050225D01*
X838352Y8033816D01*
X835609Y8017002D01*
X834644Y7999984D01*
X835609Y7982966D01*
X838352Y7966202D01*
X842873Y7949742D01*
X849223Y7933944D01*
X857199Y7918907D01*
X866749Y7904784D01*
X877773Y7891780D01*
X890117Y7880096D01*
X903681Y7869783D01*
X918311Y7860995D01*
X933754Y7853832D01*
X949909Y7848396D01*
X966520Y7844739D01*
X983487Y7842910D01*
X1000506Y7842910D01*
X1017473Y7844739D01*
X1034084Y7848396D01*
X1050239Y7853832D01*
X1065682Y7860995D01*
X1080312Y7869783D01*
X1093876Y7880096D01*
X1106220Y7891780D01*
X1117244Y7904784D01*
X1126794Y7918907D01*
X1134821Y7933944D01*
X1141120Y7949742D01*
X1143355Y7954670D01*
X1146556Y7957261D01*
X1150518Y7958429D01*
X1154633Y7957870D01*
X1158138Y7955686D01*
X1160526Y7952333D01*
X1161389Y7948269D01*
X1161389Y7800492D01*
X1162202Y7792466D01*
X1164386Y7785252D01*
X1167942Y7778597D01*
X1173073Y7772349D01*
X1372362Y7573060D01*
X1378559Y7567930D01*
X1385265Y7564374D01*
X1392478Y7562189D01*
G37*
G36*
X1627581Y8572449D02*
G01*
X1689557Y8572449D01*
X1689557Y8634526D01*
X1687677Y8633663D01*
X1673809Y8625281D01*
X1660956Y8615375D01*
X1649323Y8604097D01*
X1639062Y8591499D01*
X1630273Y8577884D01*
G37*
G36*
X4392574Y7670190D02*
G01*
X4406696Y7671511D01*
X4420565Y7674711D01*
X4433874Y7679588D01*
X4446473Y7686192D01*
X4458157Y7694320D01*
X4468672Y7703870D01*
X4477867Y7714691D01*
X4485640Y7726578D01*
X4491786Y7739380D01*
X4496257Y7752892D01*
X4499000Y7766812D01*
X4499864Y7780985D01*
X4499000Y7795158D01*
X4496257Y7809128D01*
X4491786Y7822590D01*
X4485640Y7835392D01*
X4477867Y7847330D01*
X4468672Y7858150D01*
X4458157Y7867700D01*
X4446473Y7875828D01*
X4433874Y7882381D01*
X4420565Y7887309D01*
X4406696Y7890459D01*
X4392574Y7891830D01*
X4378350Y7891373D01*
X4364329Y7889087D01*
X4350715Y7885074D01*
X4337710Y7879334D01*
X4325569Y7871968D01*
X4314444Y7863078D01*
X4304588Y7852867D01*
X4296054Y7841488D01*
X4289094Y7829092D01*
X4283760Y7815935D01*
X4280154Y7802219D01*
X4278325Y7788097D01*
X4278325Y7773873D01*
X4280154Y7759801D01*
X4283760Y7746034D01*
X4289094Y7732877D01*
X4296054Y7720482D01*
X4304588Y7709103D01*
X4314444Y7698892D01*
X4325569Y7690053D01*
X4337710Y7682687D01*
X4350715Y7676946D01*
X4364329Y7672882D01*
X4378350Y7670647D01*
G37*
G36*
X5818428Y8572449D02*
G01*
X5880506Y8572449D01*
X5873546Y8584844D01*
X5863996Y8597950D01*
X5853023Y8609888D01*
X5840780Y8620506D01*
X5827369Y8629700D01*
X5818428Y8634374D01*
G37*
G36*
X5500014Y7718856D02*
G01*
X5523230Y7719771D01*
X5546293Y7722666D01*
X5569000Y7727442D01*
X5591302Y7734046D01*
X5612942Y7742529D01*
X5633821Y7752740D01*
X5653786Y7764627D01*
X5672683Y7778140D01*
X5690412Y7793126D01*
X5706872Y7809585D01*
X5721858Y7827314D01*
X5735370Y7846212D01*
X5747258Y7866176D01*
X5757468Y7887055D01*
X5765952Y7908696D01*
X5772556Y7930997D01*
X5777331Y7953705D01*
X5780227Y7976768D01*
X5781192Y7999984D01*
X5780227Y8023199D01*
X5777331Y8046262D01*
X5772556Y8069021D01*
X5765952Y8091322D01*
X5757468Y8112963D01*
X5747258Y8133842D01*
X5735370Y8153806D01*
X5721858Y8172703D01*
X5706872Y8190433D01*
X5690412Y8206841D01*
X5672683Y8221878D01*
X5653786Y8235391D01*
X5633821Y8247278D01*
X5612942Y8257489D01*
X5591302Y8265922D01*
X5569000Y8272576D01*
X5546293Y8277352D01*
X5523230Y8280196D01*
X5500014Y8281162D01*
X5476798Y8280196D01*
X5453735Y8277352D01*
X5430977Y8272576D01*
X5408726Y8265922D01*
X5387035Y8257489D01*
X5366156Y8247278D01*
X5346192Y8235391D01*
X5327294Y8221878D01*
X5309565Y8206841D01*
X5293156Y8190433D01*
X5278120Y8172703D01*
X5264607Y8153806D01*
X5252720Y8133842D01*
X5242509Y8112963D01*
X5234076Y8091322D01*
X5227421Y8069021D01*
X5222646Y8046262D01*
X5219801Y8023199D01*
X5218836Y7999984D01*
X5219801Y7976768D01*
X5222646Y7953705D01*
X5227421Y7930997D01*
X5234076Y7908696D01*
X5242509Y7887055D01*
X5252720Y7866176D01*
X5264607Y7846212D01*
X5278120Y7827314D01*
X5293156Y7809585D01*
X5309565Y7793126D01*
X5327294Y7778140D01*
X5346192Y7764627D01*
X5366156Y7752740D01*
X5387035Y7742529D01*
X5408726Y7734046D01*
X5430977Y7727442D01*
X5453735Y7722666D01*
X5476798Y7719771D01*
G37*
G36*
X3500018Y7718856D02*
G01*
X3523234Y7719771D01*
X3546297Y7722666D01*
X3569004Y7727442D01*
X3591306Y7734046D01*
X3612946Y7742529D01*
X3633825Y7752740D01*
X3653790Y7764627D01*
X3672687Y7778140D01*
X3690416Y7793126D01*
X3706876Y7809585D01*
X3721862Y7827314D01*
X3735374Y7846212D01*
X3747262Y7866176D01*
X3757472Y7887055D01*
X3765956Y7908696D01*
X3772560Y7930997D01*
X3777335Y7953705D01*
X3780231Y7976768D01*
X3781145Y7999984D01*
X3780231Y8023199D01*
X3777335Y8046262D01*
X3772560Y8069021D01*
X3765956Y8091322D01*
X3757472Y8112963D01*
X3747262Y8133842D01*
X3735374Y8153806D01*
X3721862Y8172703D01*
X3706876Y8190433D01*
X3690416Y8206841D01*
X3672687Y8221878D01*
X3653790Y8235391D01*
X3633825Y8247278D01*
X3612946Y8257489D01*
X3591306Y8265922D01*
X3569004Y8272576D01*
X3546297Y8277352D01*
X3523234Y8280196D01*
X3500018Y8281162D01*
X3476802Y8280196D01*
X3453739Y8277352D01*
X3430981Y8272576D01*
X3408679Y8265922D01*
X3387039Y8257489D01*
X3366160Y8247278D01*
X3346196Y8235391D01*
X3327298Y8221878D01*
X3309569Y8206841D01*
X3293110Y8190433D01*
X3278124Y8172703D01*
X3264611Y8153806D01*
X3252724Y8133842D01*
X3242513Y8112963D01*
X3234080Y8091322D01*
X3227425Y8069021D01*
X3222650Y8046262D01*
X3219805Y8023199D01*
X3218840Y7999984D01*
X3219805Y7976768D01*
X3222650Y7953705D01*
X3227425Y7930997D01*
X3234080Y7908696D01*
X3242513Y7887055D01*
X3252724Y7866176D01*
X3264611Y7846212D01*
X3278124Y7827314D01*
X3293110Y7809585D01*
X3309569Y7793126D01*
X3327298Y7778140D01*
X3346196Y7764627D01*
X3366160Y7752740D01*
X3387039Y7742529D01*
X3408679Y7734046D01*
X3430981Y7727442D01*
X3453739Y7722666D01*
X3476802Y7719771D01*
G37*
G36*
X3818432Y8572449D02*
G01*
X3880510Y8572449D01*
X3873550Y8584844D01*
X3864000Y8597950D01*
X3853027Y8609888D01*
X3840784Y8620506D01*
X3827373Y8629700D01*
X3818432Y8634374D01*
G37*
G36*
X1818436Y8572449D02*
G01*
X1880514Y8572449D01*
X1873554Y8584844D01*
X1864004Y8597950D01*
X1853031Y8609888D01*
X1840788Y8620506D01*
X1827377Y8629700D01*
X1818436Y8634374D01*
G37*
G36*
X1999488Y7842910D02*
G01*
X2016506Y7842910D01*
X2033473Y7844739D01*
X2050084Y7848396D01*
X2066239Y7853832D01*
X2081682Y7860995D01*
X2096312Y7869783D01*
X2109876Y7880096D01*
X2122220Y7891780D01*
X2133244Y7904784D01*
X2142794Y7918907D01*
X2150770Y7933944D01*
X2157120Y7949742D01*
X2161641Y7966202D01*
X2164435Y7982966D01*
X2165350Y7999984D01*
X2164435Y8017002D01*
X2161641Y8033816D01*
X2157120Y8050225D01*
X2150770Y8066074D01*
X2142794Y8081111D01*
X2133244Y8095234D01*
X2122220Y8108188D01*
X2109876Y8119922D01*
X2096312Y8130235D01*
X2081682Y8139023D01*
X2066239Y8146186D01*
X2050084Y8151622D01*
X2033473Y8155279D01*
X2016506Y8157108D01*
X1999488Y8157108D01*
X1982520Y8155279D01*
X1965909Y8151622D01*
X1949754Y8146186D01*
X1934311Y8139023D01*
X1919681Y8130235D01*
X1906117Y8119922D01*
X1893773Y8108188D01*
X1882749Y8095234D01*
X1873199Y8081111D01*
X1865223Y8066074D01*
X1858873Y8050225D01*
X1854352Y8033816D01*
X1851609Y8017002D01*
X1850643Y7999984D01*
X1851609Y7982966D01*
X1854352Y7966202D01*
X1858873Y7949742D01*
X1865223Y7933944D01*
X1873199Y7918907D01*
X1882749Y7904784D01*
X1893773Y7891780D01*
X1906117Y7880096D01*
X1919681Y7869783D01*
X1934311Y7860995D01*
X1949754Y7853832D01*
X1965909Y7848396D01*
X1982520Y7844739D01*
G37*
G36*
X3999484Y7842910D02*
G01*
X4016501Y7842910D01*
X4033469Y7844739D01*
X4050080Y7848396D01*
X4066235Y7853832D01*
X4081678Y7860995D01*
X4096308Y7869783D01*
X4109872Y7880096D01*
X4122216Y7891780D01*
X4133240Y7904784D01*
X4142790Y7918907D01*
X4150817Y7933944D01*
X4157116Y7949742D01*
X4161637Y7966202D01*
X4164431Y7982966D01*
X4165346Y7999984D01*
X4164431Y8017002D01*
X4161637Y8033816D01*
X4157116Y8050225D01*
X4150817Y8066074D01*
X4142790Y8081111D01*
X4133240Y8095234D01*
X4122216Y8108188D01*
X4109872Y8119922D01*
X4096308Y8130235D01*
X4081678Y8139023D01*
X4066235Y8146186D01*
X4050080Y8151622D01*
X4033469Y8155279D01*
X4016501Y8157108D01*
X3999484Y8157108D01*
X3982567Y8155279D01*
X3965905Y8151622D01*
X3949750Y8146186D01*
X3934307Y8139023D01*
X3919677Y8130235D01*
X3906164Y8119922D01*
X3893769Y8108188D01*
X3882745Y8095234D01*
X3873195Y8081111D01*
X3865219Y8066074D01*
X3858920Y8050225D01*
X3854348Y8033816D01*
X3851605Y8017002D01*
X3850640Y7999984D01*
X3851605Y7982966D01*
X3854348Y7966202D01*
X3858920Y7949742D01*
X3865219Y7933944D01*
X3873195Y7918907D01*
X3882745Y7904784D01*
X3893769Y7891780D01*
X3906164Y7880096D01*
X3919677Y7869783D01*
X3934307Y7860995D01*
X3949750Y7853832D01*
X3965905Y7848396D01*
X3982567Y7844739D01*
G37*
G36*
X5999480Y7842910D02*
G01*
X6016498Y7842910D01*
X6033465Y7844739D01*
X6050076Y7848396D01*
X6066231Y7853832D01*
X6081674Y7860995D01*
X6096304Y7869783D01*
X6109868Y7880096D01*
X6122212Y7891780D01*
X6133236Y7904784D01*
X6142837Y7918907D01*
X6150813Y7933944D01*
X6157112Y7949742D01*
X6161633Y7966202D01*
X6164427Y7982966D01*
X6165342Y7999984D01*
X6164427Y8017002D01*
X6161633Y8033816D01*
X6157112Y8050225D01*
X6150813Y8066074D01*
X6142837Y8081111D01*
X6133236Y8095234D01*
X6122212Y8108188D01*
X6109868Y8119922D01*
X6096304Y8130235D01*
X6081674Y8139023D01*
X6066231Y8146186D01*
X6050076Y8151622D01*
X6033465Y8155279D01*
X6016498Y8157108D01*
X5999480Y8157108D01*
X5982563Y8155279D01*
X5965901Y8151622D01*
X5949746Y8146186D01*
X5934303Y8139023D01*
X5919724Y8130235D01*
X5906160Y8119922D01*
X5893765Y8108188D01*
X5882741Y8095234D01*
X5873191Y8081111D01*
X5865215Y8066074D01*
X5858916Y8050225D01*
X5854344Y8033816D01*
X5851601Y8017002D01*
X5850636Y7999984D01*
X5851601Y7982966D01*
X5854344Y7966202D01*
X5858916Y7949742D01*
X5865215Y7933944D01*
X5873191Y7918907D01*
X5882741Y7904784D01*
X5893765Y7891780D01*
X5906160Y7880096D01*
X5919724Y7869783D01*
X5934303Y7860995D01*
X5949746Y7853832D01*
X5965901Y7848396D01*
X5982563Y7844739D01*
G37*
G36*
X2983484Y7842910D02*
G01*
X3000502Y7842910D01*
X3017469Y7844739D01*
X3034080Y7848396D01*
X3050235Y7853832D01*
X3065678Y7860995D01*
X3080308Y7869783D01*
X3093872Y7880096D01*
X3106216Y7891780D01*
X3117240Y7904784D01*
X3126790Y7918907D01*
X3134817Y7933944D01*
X3141116Y7949742D01*
X3145637Y7966202D01*
X3148431Y7982966D01*
X3149346Y7999984D01*
X3148431Y8017002D01*
X3145637Y8033816D01*
X3141116Y8050225D01*
X3134817Y8066074D01*
X3126790Y8081111D01*
X3117037Y8095488D01*
X3115157Y8098790D01*
X3114598Y8102549D01*
X3115462Y8106206D01*
X3117646Y8109305D01*
X3120796Y8111439D01*
X3124454Y8112252D01*
X3131159Y8112404D01*
X3147212Y8114741D01*
X3162909Y8118856D01*
X3178048Y8124748D01*
X3192373Y8132318D01*
X3205784Y8141462D01*
X3218027Y8152079D01*
X3229000Y8164068D01*
X3238550Y8177174D01*
X3246526Y8191296D01*
X3252825Y8206231D01*
X3257397Y8221827D01*
X3260191Y8237778D01*
X3261106Y8253984D01*
X3260191Y8270189D01*
X3257397Y8286191D01*
X3252825Y8301736D01*
X3246526Y8316722D01*
X3238550Y8330844D01*
X3229000Y8343950D01*
X3218027Y8355888D01*
X3205784Y8366506D01*
X3192373Y8375700D01*
X3178048Y8383270D01*
X3162909Y8389162D01*
X3147212Y8393277D01*
X3131159Y8395563D01*
X3114954Y8396020D01*
X3098800Y8394649D01*
X3082899Y8391448D01*
X3067456Y8386419D01*
X3052673Y8379663D01*
X3038805Y8371281D01*
X3025952Y8361375D01*
X3014319Y8350097D01*
X3004058Y8337499D01*
X3000654Y8332266D01*
X2998419Y8329777D01*
X2995472Y8328152D01*
X2992120Y8327593D01*
X2721610Y8327593D01*
X2717901Y8328304D01*
X2714701Y8330336D01*
X2712466Y8333384D01*
X2707640Y8343392D01*
X2699867Y8355330D01*
X2690672Y8366150D01*
X2680157Y8375700D01*
X2668473Y8383828D01*
X2655874Y8390382D01*
X2642565Y8395309D01*
X2628696Y8398459D01*
X2614574Y8399830D01*
X2600350Y8399373D01*
X2586329Y8397087D01*
X2572715Y8393074D01*
X2559710Y8387334D01*
X2547569Y8379968D01*
X2536444Y8371078D01*
X2526588Y8360867D01*
X2518054Y8349488D01*
X2511094Y8337092D01*
X2505760Y8323935D01*
X2502154Y8310219D01*
X2500325Y8296097D01*
X2500325Y8281873D01*
X2502154Y8267801D01*
X2505760Y8254034D01*
X2511094Y8240877D01*
X2518054Y8228482D01*
X2526588Y8217103D01*
X2536444Y8206892D01*
X2547569Y8198053D01*
X2559710Y8190687D01*
X2572715Y8184946D01*
X2586329Y8180882D01*
X2600350Y8178647D01*
X2614574Y8178190D01*
X2628696Y8179511D01*
X2642565Y8182711D01*
X2655874Y8187588D01*
X2668473Y8194192D01*
X2680157Y8202320D01*
X2690672Y8211870D01*
X2699867Y8222691D01*
X2707640Y8234578D01*
X2712466Y8244636D01*
X2714701Y8247684D01*
X2717901Y8249716D01*
X2721610Y8250377D01*
X2967532Y8250377D01*
X2971190Y8249716D01*
X2974340Y8247837D01*
X2976575Y8244941D01*
X2977642Y8241385D01*
X2978962Y8229752D01*
X2982671Y8213953D01*
X2988106Y8198662D01*
X2995269Y8184134D01*
X3002584Y8172754D01*
X3004058Y8168690D01*
X3003753Y8164423D01*
X3001721Y8160613D01*
X2998266Y8158022D01*
X2994050Y8157108D01*
X2983484Y8157108D01*
X2966567Y8155279D01*
X2949905Y8151622D01*
X2933750Y8146186D01*
X2918307Y8139023D01*
X2903677Y8130235D01*
X2890164Y8119922D01*
X2877769Y8108188D01*
X2866745Y8095234D01*
X2857195Y8081111D01*
X2849219Y8066074D01*
X2842920Y8050225D01*
X2838348Y8033816D01*
X2835605Y8017002D01*
X2834640Y7999984D01*
X2835605Y7982966D01*
X2838348Y7966202D01*
X2842920Y7949742D01*
X2849219Y7933944D01*
X2857195Y7918907D01*
X2866745Y7904784D01*
X2877769Y7891780D01*
X2890164Y7880096D01*
X2903677Y7869783D01*
X2918307Y7860995D01*
X2933750Y7853832D01*
X2949905Y7848396D01*
X2966567Y7844739D01*
G37*
G36*
X4983480Y7842910D02*
G01*
X5000498Y7842910D01*
X5017465Y7844739D01*
X5034076Y7848396D01*
X5050231Y7853832D01*
X5065674Y7860995D01*
X5080304Y7869783D01*
X5093868Y7880096D01*
X5106212Y7891780D01*
X5117236Y7904784D01*
X5126837Y7918907D01*
X5134813Y7933944D01*
X5141112Y7949742D01*
X5145633Y7966202D01*
X5148427Y7982966D01*
X5149342Y7999984D01*
X5148427Y8017002D01*
X5145633Y8033816D01*
X5141112Y8050225D01*
X5134813Y8066074D01*
X5126837Y8081111D01*
X5117033Y8095488D01*
X5115153Y8098790D01*
X5114594Y8102549D01*
X5115458Y8106206D01*
X5117642Y8109305D01*
X5120792Y8111439D01*
X5124450Y8112252D01*
X5131155Y8112404D01*
X5147208Y8114741D01*
X5162905Y8118856D01*
X5178044Y8124748D01*
X5192369Y8132318D01*
X5205780Y8141462D01*
X5218023Y8152079D01*
X5228996Y8164068D01*
X5238546Y8177174D01*
X5246522Y8191296D01*
X5252821Y8206231D01*
X5257393Y8221827D01*
X5260187Y8237778D01*
X5261102Y8253984D01*
X5260187Y8270189D01*
X5257393Y8286191D01*
X5252821Y8301736D01*
X5246522Y8316722D01*
X5238546Y8330844D01*
X5228996Y8343950D01*
X5218023Y8355888D01*
X5205780Y8366506D01*
X5192369Y8375700D01*
X5178044Y8383270D01*
X5162905Y8389162D01*
X5147208Y8393277D01*
X5131155Y8395563D01*
X5114950Y8396020D01*
X5098796Y8394649D01*
X5082895Y8391448D01*
X5067452Y8386419D01*
X5052669Y8379663D01*
X5038801Y8371281D01*
X5025948Y8361375D01*
X5014315Y8350097D01*
X5004054Y8337499D01*
X5000650Y8332266D01*
X4998415Y8329777D01*
X4995468Y8328152D01*
X4992116Y8327593D01*
X4499610Y8327593D01*
X4495901Y8328304D01*
X4492701Y8330336D01*
X4490466Y8333384D01*
X4485640Y8343392D01*
X4477867Y8355330D01*
X4468672Y8366150D01*
X4458157Y8375700D01*
X4446473Y8383828D01*
X4433874Y8390382D01*
X4420565Y8395309D01*
X4406696Y8398459D01*
X4392574Y8399830D01*
X4378350Y8399373D01*
X4364329Y8397087D01*
X4350715Y8393074D01*
X4337710Y8387334D01*
X4325569Y8379968D01*
X4314444Y8371078D01*
X4304588Y8360867D01*
X4296054Y8349488D01*
X4289094Y8337092D01*
X4283760Y8323935D01*
X4280154Y8310219D01*
X4278325Y8296097D01*
X4278325Y8281873D01*
X4280154Y8267801D01*
X4283760Y8254034D01*
X4289094Y8240877D01*
X4296054Y8228482D01*
X4304588Y8217103D01*
X4314444Y8206892D01*
X4325569Y8198053D01*
X4337710Y8190687D01*
X4350715Y8184946D01*
X4364329Y8180882D01*
X4378350Y8178647D01*
X4392574Y8178190D01*
X4406696Y8179511D01*
X4420565Y8182711D01*
X4433874Y8187588D01*
X4446473Y8194192D01*
X4458157Y8202320D01*
X4468672Y8211870D01*
X4477867Y8222691D01*
X4485640Y8234578D01*
X4490466Y8244636D01*
X4492701Y8247684D01*
X4495901Y8249716D01*
X4499610Y8250377D01*
X4967579Y8250377D01*
X4971186Y8249716D01*
X4974336Y8247837D01*
X4976571Y8244941D01*
X4977638Y8241385D01*
X4978958Y8229752D01*
X4982667Y8213953D01*
X4988102Y8198662D01*
X4995265Y8184134D01*
X5002580Y8172754D01*
X5004104Y8168690D01*
X5003800Y8164423D01*
X5001717Y8160613D01*
X4998262Y8158022D01*
X4994046Y8157108D01*
X4983480Y8157108D01*
X4966563Y8155279D01*
X4949901Y8151622D01*
X4933746Y8146186D01*
X4918303Y8139023D01*
X4903724Y8130235D01*
X4890160Y8119922D01*
X4877765Y8108188D01*
X4866741Y8095234D01*
X4857191Y8081111D01*
X4849215Y8066074D01*
X4842916Y8050225D01*
X4838344Y8033816D01*
X4835601Y8017002D01*
X4834636Y7999984D01*
X4835601Y7982966D01*
X4838344Y7966202D01*
X4842916Y7949742D01*
X4849215Y7933944D01*
X4857191Y7918907D01*
X4866741Y7904784D01*
X4877765Y7891780D01*
X4890160Y7880096D01*
X4903724Y7869783D01*
X4918303Y7860995D01*
X4933746Y7853832D01*
X4949901Y7848396D01*
X4966563Y7844739D01*
G37*
G36*
X4392574Y8432190D02*
G01*
X4406696Y8433511D01*
X4420565Y8436711D01*
X4433874Y8441588D01*
X4446473Y8448192D01*
X4458157Y8456320D01*
X4468672Y8465870D01*
X4477867Y8476691D01*
X4485640Y8488578D01*
X4491786Y8501380D01*
X4496257Y8514892D01*
X4499000Y8528812D01*
X4499864Y8542985D01*
X4499000Y8557158D01*
X4496257Y8571128D01*
X4491786Y8584590D01*
X4485640Y8597392D01*
X4477867Y8609330D01*
X4468672Y8620150D01*
X4458157Y8629700D01*
X4446473Y8637828D01*
X4433874Y8644382D01*
X4420565Y8649309D01*
X4406696Y8652459D01*
X4392574Y8653830D01*
X4378350Y8653373D01*
X4364329Y8651087D01*
X4350715Y8647074D01*
X4337710Y8641334D01*
X4325569Y8633968D01*
X4314444Y8625078D01*
X4304588Y8614867D01*
X4296054Y8603488D01*
X4289094Y8591092D01*
X4283760Y8577935D01*
X4280154Y8564219D01*
X4278325Y8550097D01*
X4278325Y8535873D01*
X4280154Y8521801D01*
X4283760Y8508034D01*
X4289094Y8494877D01*
X4296054Y8482482D01*
X4304588Y8471103D01*
X4314444Y8460892D01*
X4325569Y8452053D01*
X4337710Y8444687D01*
X4350715Y8438946D01*
X4364329Y8434882D01*
X4378350Y8432647D01*
G37*
G36*
X4304588Y7924088D02*
G01*
X4340148Y7924088D01*
X4340148Y7986166D01*
X4278071Y7986166D01*
X4278071Y7950555D01*
X4278782Y7944256D01*
X4280712Y7938770D01*
X4283811Y7933893D01*
X4287875Y7929778D01*
X4292803Y7926730D01*
X4298238Y7924800D01*
G37*
G36*
X4437837Y7924088D02*
G01*
X4473448Y7924088D01*
X4479747Y7924800D01*
X4485233Y7926730D01*
X4490110Y7929778D01*
X4494225Y7933893D01*
X4497273Y7938770D01*
X4499203Y7944256D01*
X4499914Y7950555D01*
X4499914Y7986166D01*
X4437837Y7986166D01*
G37*
G36*
X2526588Y7924088D02*
G01*
X2695448Y7924088D01*
X2701747Y7924800D01*
X2707233Y7926730D01*
X2712110Y7929778D01*
X2716225Y7933893D01*
X2719273Y7938770D01*
X2721203Y7944256D01*
X2721914Y7950555D01*
X2721914Y8119414D01*
X2721203Y8125764D01*
X2719273Y8131200D01*
X2716225Y8136128D01*
X2712110Y8140192D01*
X2707233Y8143290D01*
X2701747Y8145221D01*
X2695448Y8145932D01*
X2526588Y8145932D01*
X2520238Y8145221D01*
X2514803Y8143290D01*
X2509875Y8140192D01*
X2505811Y8136128D01*
X2502712Y8131200D01*
X2500782Y8125764D01*
X2500071Y8119414D01*
X2500071Y7950555D01*
X2500782Y7944256D01*
X2502712Y7938770D01*
X2505811Y7933893D01*
X2509875Y7929778D01*
X2514803Y7926730D01*
X2520238Y7924800D01*
G37*
G36*
X4278071Y8083854D02*
G01*
X4340148Y8083854D01*
X4340148Y8145932D01*
X4304588Y8145932D01*
X4298238Y8145221D01*
X4292803Y8143290D01*
X4287875Y8140192D01*
X4283811Y8136128D01*
X4280712Y8131200D01*
X4278782Y8125764D01*
X4278071Y8119414D01*
G37*
G36*
X4437837Y8083854D02*
G01*
X4499914Y8083854D01*
X4499914Y8119414D01*
X4499203Y8125764D01*
X4497273Y8131200D01*
X4494225Y8136128D01*
X4490110Y8140192D01*
X4485233Y8143290D01*
X4479747Y8145221D01*
X4473448Y8145932D01*
X4437837Y8145932D01*
G37*
G36*
X2614574Y8432190D02*
G01*
X2628696Y8433511D01*
X2642565Y8436711D01*
X2655874Y8441588D01*
X2668473Y8448192D01*
X2680157Y8456320D01*
X2690672Y8465870D01*
X2699867Y8476691D01*
X2707640Y8488578D01*
X2713786Y8501380D01*
X2718257Y8514892D01*
X2721000Y8528812D01*
X2721864Y8542985D01*
X2721000Y8557158D01*
X2718257Y8571128D01*
X2713786Y8584590D01*
X2707640Y8597392D01*
X2699867Y8609330D01*
X2690672Y8620150D01*
X2680157Y8629700D01*
X2668473Y8637828D01*
X2655874Y8644382D01*
X2642565Y8649309D01*
X2628696Y8652459D01*
X2614574Y8653830D01*
X2600350Y8653373D01*
X2586329Y8651087D01*
X2572715Y8647074D01*
X2559710Y8641334D01*
X2547569Y8633968D01*
X2536444Y8625078D01*
X2526588Y8614867D01*
X2518054Y8603488D01*
X2511094Y8591092D01*
X2505760Y8577935D01*
X2502154Y8564219D01*
X2500325Y8550097D01*
X2500325Y8535873D01*
X2502154Y8521801D01*
X2505760Y8508034D01*
X2511094Y8494877D01*
X2518054Y8482482D01*
X2526588Y8471103D01*
X2536444Y8460892D01*
X2547569Y8452053D01*
X2559710Y8444687D01*
X2572715Y8438946D01*
X2586329Y8434882D01*
X2600350Y8432647D01*
G37*
G36*
X5818428Y8381593D02*
G01*
X5827369Y8386318D01*
X5840780Y8395462D01*
X5853023Y8406079D01*
X5863996Y8418068D01*
X5873546Y8431174D01*
X5880506Y8443569D01*
X5818428Y8443569D01*
G37*
G36*
X3818432Y8381593D02*
G01*
X3827373Y8386318D01*
X3840784Y8395462D01*
X3853027Y8406079D01*
X3864000Y8418068D01*
X3873550Y8431174D01*
X3880510Y8443569D01*
X3818432Y8443569D01*
G37*
G36*
X1818436Y8381593D02*
G01*
X1827377Y8386318D01*
X1840788Y8395462D01*
X1853031Y8406079D01*
X1864004Y8418068D01*
X1873554Y8431174D01*
X1880514Y8443569D01*
X1818436Y8443569D01*
G37*
G36*
X5689549Y8381492D02*
G01*
X5689549Y8443569D01*
X5627624Y8443569D01*
X5630265Y8438134D01*
X5639054Y8424468D01*
X5649315Y8411921D01*
X5660948Y8400592D01*
X5673801Y8390686D01*
X5687669Y8382304D01*
G37*
G36*
X3689553Y8381492D02*
G01*
X3689553Y8443569D01*
X3627628Y8443569D01*
X3630269Y8438134D01*
X3639058Y8424468D01*
X3649319Y8411921D01*
X3660952Y8400592D01*
X3673805Y8390686D01*
X3687673Y8382304D01*
G37*
G36*
X1689557Y8381492D02*
G01*
X1689557Y8443569D01*
X1627581Y8443569D01*
X1630273Y8438134D01*
X1639062Y8424468D01*
X1649323Y8411921D01*
X1660956Y8400592D01*
X1673809Y8390686D01*
X1687677Y8382304D01*
G37*

%LPD*%
D10*
X2611000Y5749010D02*
G01*
X1949010Y5749010D01*
X1499999Y5299999D01*
X1499999Y4635002D01*
X1118999Y4254002D01*
X2611120Y5241036D02*
G01*
X2400045Y5029962D01*
X2400045Y3200145D01*
X2299970Y3100070D01*
X1400047Y3100070D01*
X1100073Y2800095D01*
X1100073Y2273045D01*
X1119123Y2253995D01*
X2611000Y4987010D02*
G01*
X2611000Y4761999D01*
X3118998Y4254002D01*
X4389000Y4987010D02*
G01*
X4389000Y3189000D01*
X4199999Y2999999D01*
X3864996Y2999999D01*
X3118998Y2254001D01*
X4389000Y5241010D02*
G01*
X4558990Y5241010D01*
X4700000Y5099999D01*
X4700000Y2672999D01*
X5118999Y2254001D01*
X4389000Y5749010D02*
G01*
X5118999Y5019012D01*
X5118999Y4254002D01*
X4389000Y6257010D02*
G01*
X5115989Y6257010D01*
X5118999Y6254000D01*
X2611000Y6511010D02*
G01*
X2111011Y6511010D01*
X1900001Y6300000D01*
X1164998Y6300000D01*
X1118999Y6254000D01*
X2611000Y6257010D02*
G01*
X3115988Y6257010D01*
X3118998Y6254000D01*
X4389000Y8289010D02*
G01*
X5083990Y8289010D01*
X5118999Y8254001D01*
X2611000Y7781010D02*
G01*
X1781009Y7781010D01*
X1599999Y7600000D01*
X1399999Y7600000D01*
X1200000Y7799999D01*
X1200000Y8173001D01*
X1118999Y8254001D01*
X2611000Y8289010D02*
G01*
X3083989Y8289010D01*
X3118998Y8254001D01*
D11*
G01*
X3118993Y8254009D03*
G01*
X3753993Y8508009D03*
D12*
G01*
X3499993Y8000009D03*
D13*
G01*
X2991993Y8000009D03*
G01*
X4007993Y8000009D03*
D11*
G01*
X5118988Y8254009D03*
G01*
X5753988Y8508009D03*
D12*
G01*
X5499988Y8000009D03*
D13*
G01*
X4991988Y8000009D03*
G01*
X6007988Y8000009D03*
D11*
G01*
X1118996Y6253987D03*
G01*
X1753996Y6507987D03*
D12*
G01*
X1499996Y5999987D03*
D13*
G01*
X991996Y5999987D03*
G01*
X2007997Y5999987D03*
D11*
G01*
X3118993Y6253987D03*
G01*
X3753993Y6507987D03*
D12*
G01*
X3499993Y5999987D03*
D13*
G01*
X2991993Y5999987D03*
G01*
X4007993Y5999987D03*
D11*
G01*
X5118988Y6253987D03*
G01*
X5753988Y6507987D03*
D12*
G01*
X5499988Y5999987D03*
D13*
G01*
X4991988Y5999987D03*
G01*
X6007988Y5999987D03*
D11*
G01*
X1118996Y4253992D03*
G01*
X1753996Y4507992D03*
D12*
G01*
X1499996Y3999992D03*
D13*
G01*
X991996Y3999992D03*
G01*
X2007997Y3999992D03*
D11*
G01*
X3118993Y4253992D03*
G01*
X3753993Y4507992D03*
D12*
G01*
X3499993Y3999992D03*
D13*
G01*
X2991993Y3999992D03*
G01*
X4007993Y3999992D03*
D11*
G01*
X5118988Y4253992D03*
G01*
X5753988Y4507992D03*
D12*
G01*
X5499988Y3999992D03*
D13*
G01*
X4991988Y3999992D03*
G01*
X6007988Y3999992D03*
D11*
G01*
X1118996Y2253995D03*
G01*
X1753996Y2507995D03*
D12*
G01*
X1499996Y1999995D03*
D13*
G01*
X991996Y1999995D03*
G01*
X2007997Y1999995D03*
D11*
G01*
X3118993Y2253995D03*
G01*
X3753993Y2507995D03*
D12*
G01*
X3499993Y1999995D03*
D13*
G01*
X2991993Y1999995D03*
G01*
X4007993Y1999995D03*
D11*
G01*
X5118988Y2253995D03*
G01*
X5753988Y2507995D03*
D12*
G01*
X5499988Y1999995D03*
D13*
G01*
X4991988Y1999995D03*
G01*
X6007988Y1999995D03*
D11*
G01*
X1118996Y8254009D03*
G01*
X1753996Y8508009D03*
D12*
G01*
X1499996Y8000009D03*
D13*
G01*
X991996Y8000009D03*
G01*
X2007997Y8000009D03*
D14*
G01*
X4388993Y9813010D03*
G01*
X4388993Y9559010D03*
G36*
X4474001Y9390001D02*
G01*
X4303999Y9390001D01*
X4303999Y9219999D01*
X4474001Y9219999D01*
G37*
G01*
X4388993Y9051010D03*
G01*
X4388993Y8797010D03*
G01*
X4388993Y8543010D03*
G01*
X4388993Y8289010D03*
G36*
X4474001Y8120001D02*
G01*
X4303999Y8120001D01*
X4303999Y7949999D01*
X4474001Y7949999D01*
G37*
G01*
X4388993Y7781010D03*
G01*
X4388993Y7527010D03*
G01*
X4388993Y7273010D03*
G01*
X4388993Y7019010D03*
G36*
X4474001Y6850001D02*
G01*
X4303999Y6850001D01*
X4303999Y6679999D01*
X4474001Y6679999D01*
G37*
G01*
X4388993Y6511010D03*
G01*
X4388993Y6257010D03*
G01*
X4388993Y6003010D03*
G01*
X4388993Y5749010D03*
G36*
X4474001Y5580001D02*
G01*
X4303999Y5580001D01*
X4303999Y5409999D01*
X4474001Y5409999D01*
G37*
G01*
X4388993Y5241010D03*
G01*
X4388993Y4987010D03*
G01*
X2610993Y4987010D03*
G01*
X2610993Y5241010D03*
G36*
X2696001Y5580001D02*
G01*
X2525999Y5580001D01*
X2525999Y5409999D01*
X2696001Y5409999D01*
G37*
G01*
X2610993Y5749010D03*
G01*
X2610993Y6003010D03*
G01*
X2610993Y6257010D03*
G01*
X2610993Y6511010D03*
G36*
X2696001Y6850001D02*
G01*
X2525999Y6850001D01*
X2525999Y6679999D01*
X2696001Y6679999D01*
G37*
G01*
X2610993Y7019010D03*
G01*
X2610993Y7273010D03*
G01*
X2610993Y7527010D03*
G01*
X2610993Y7781010D03*
G36*
X2696001Y8120001D02*
G01*
X2525999Y8120001D01*
X2525999Y7949999D01*
X2696001Y7949999D01*
G37*
G01*
X2610993Y8289010D03*
G01*
X2610993Y8543010D03*
G01*
X2610993Y8797010D03*
G01*
X2610993Y9051010D03*
G36*
X2696001Y9390001D02*
G01*
X2525999Y9390001D01*
X2525999Y9219999D01*
X2696001Y9219999D01*
G37*
G01*
X2610993Y9559010D03*
G01*
X2610993Y9813010D03*
G01*
X3753993Y5010022D03*
G36*
X3585001Y5095013D02*
G01*
X3414999Y5095013D01*
X3414999Y4925011D01*
X3585001Y4925011D01*
G37*
G01*
X3245993Y5010022D03*
M02*
