G04 Layer: TopSolderMaskLayer*
G04 EasyEDA v6.5.1, 2022-08-10 00:04:10*
G04 a67cddfb3fce44daa9051d46cbbcc19f,10*
G04 Gerber Generator version 0.2*
G04 Scale: 100 percent, Rotated: No, Reflected: No *
G04 Dimensions in millimeters *
G04 leading zeros omitted , absolute positions ,4 integer and 5 decimal *
%FSLAX45Y45*%
%MOMM*%

%ADD22C,2.4257*%
%ADD23C,5.2070*%
%ADD24C,2.7305*%
%ADD25C,1.9032*%

%LPD*%
D22*
G01*
X3118993Y8254009D03*
G01*
X3753993Y8508009D03*
D23*
G01*
X3499993Y8000009D03*
D24*
G01*
X2991993Y8000009D03*
G01*
X4007993Y8000009D03*
D22*
G01*
X5118988Y8254009D03*
G01*
X5753988Y8508009D03*
D23*
G01*
X5499988Y8000009D03*
D24*
G01*
X4991988Y8000009D03*
G01*
X6007988Y8000009D03*
D22*
G01*
X1118996Y6253987D03*
G01*
X1753996Y6507987D03*
D23*
G01*
X1499996Y5999987D03*
D24*
G01*
X991996Y5999987D03*
G01*
X2007997Y5999987D03*
D22*
G01*
X3118993Y6253987D03*
G01*
X3753993Y6507987D03*
D23*
G01*
X3499993Y5999987D03*
D24*
G01*
X2991993Y5999987D03*
G01*
X4007993Y5999987D03*
D22*
G01*
X5118988Y6253987D03*
G01*
X5753988Y6507987D03*
D23*
G01*
X5499988Y5999987D03*
D24*
G01*
X4991988Y5999987D03*
G01*
X6007988Y5999987D03*
D22*
G01*
X1118996Y4253992D03*
G01*
X1753996Y4507992D03*
D23*
G01*
X1499996Y3999992D03*
D24*
G01*
X991996Y3999992D03*
G01*
X2007997Y3999992D03*
D22*
G01*
X3118993Y4253992D03*
G01*
X3753993Y4507992D03*
D23*
G01*
X3499993Y3999992D03*
D24*
G01*
X2991993Y3999992D03*
G01*
X4007993Y3999992D03*
D22*
G01*
X5118988Y4253992D03*
G01*
X5753988Y4507992D03*
D23*
G01*
X5499988Y3999992D03*
D24*
G01*
X4991988Y3999992D03*
G01*
X6007988Y3999992D03*
D22*
G01*
X1118996Y2253995D03*
G01*
X1753996Y2507995D03*
D23*
G01*
X1499996Y1999995D03*
D24*
G01*
X991996Y1999995D03*
G01*
X2007997Y1999995D03*
D22*
G01*
X3118993Y2253995D03*
G01*
X3753993Y2507995D03*
D23*
G01*
X3499993Y1999995D03*
D24*
G01*
X2991993Y1999995D03*
G01*
X4007993Y1999995D03*
D22*
G01*
X5118988Y2253995D03*
G01*
X5753988Y2507995D03*
D23*
G01*
X5499988Y1999995D03*
D24*
G01*
X4991988Y1999995D03*
G01*
X6007988Y1999995D03*
D22*
G01*
X1118996Y8254009D03*
G01*
X1753996Y8508009D03*
D23*
G01*
X1499996Y8000009D03*
D24*
G01*
X991996Y8000009D03*
G01*
X2007997Y8000009D03*
D25*
G01*
X4388993Y9813010D03*
G01*
X4388993Y9559010D03*
G36*
X4293870Y9209786D02*
G01*
X4293870Y9400286D01*
X4484115Y9400286D01*
X4484115Y9209786D01*
G37*
G01*
X4388993Y9051010D03*
G01*
X4388993Y8797010D03*
G01*
X4388993Y8543010D03*
G01*
X4388993Y8289010D03*
G36*
X4293870Y7939786D02*
G01*
X4293870Y8130286D01*
X4484115Y8130286D01*
X4484115Y7939786D01*
G37*
G01*
X4388993Y7781010D03*
G01*
X4388993Y7527010D03*
G01*
X4388993Y7273010D03*
G01*
X4388993Y7019010D03*
G36*
X4293870Y6669786D02*
G01*
X4293870Y6860286D01*
X4484115Y6860286D01*
X4484115Y6669786D01*
G37*
G01*
X4388993Y6511010D03*
G01*
X4388993Y6257010D03*
G01*
X4388993Y6003010D03*
G01*
X4388993Y5749010D03*
G36*
X4293870Y5399786D02*
G01*
X4293870Y5590286D01*
X4484115Y5590286D01*
X4484115Y5399786D01*
G37*
G01*
X4388993Y5241010D03*
G01*
X4388993Y4987010D03*
G01*
X2610993Y4987010D03*
G01*
X2610993Y5241010D03*
G36*
X2515870Y5399786D02*
G01*
X2515870Y5590286D01*
X2706115Y5590286D01*
X2706115Y5399786D01*
G37*
G01*
X2610993Y5749010D03*
G01*
X2610993Y6003010D03*
G01*
X2610993Y6257010D03*
G01*
X2610993Y6511010D03*
G36*
X2515870Y6669786D02*
G01*
X2515870Y6860286D01*
X2706115Y6860286D01*
X2706115Y6669786D01*
G37*
G01*
X2610993Y7019010D03*
G01*
X2610993Y7273010D03*
G01*
X2610993Y7527010D03*
G01*
X2610993Y7781010D03*
G36*
X2515870Y7939786D02*
G01*
X2515870Y8130286D01*
X2706115Y8130286D01*
X2706115Y7939786D01*
G37*
G01*
X2610993Y8289010D03*
G01*
X2610993Y8543010D03*
G01*
X2610993Y8797010D03*
G01*
X2610993Y9051010D03*
G36*
X2515870Y9209786D02*
G01*
X2515870Y9400286D01*
X2706115Y9400286D01*
X2706115Y9209786D01*
G37*
G01*
X2610993Y9559010D03*
G01*
X2610993Y9813010D03*
G01*
X3753993Y5010022D03*
G36*
X3404870Y4914900D02*
G01*
X3404870Y5105145D01*
X3595115Y5105145D01*
X3595115Y4914900D01*
G37*
G01*
X3245993Y5010022D03*
M02*
