G04 Layer: TopSilkscreenLayer*
G04 EasyEDA v6.5.1, 2022-08-10 00:04:10*
G04 a67cddfb3fce44daa9051d46cbbcc19f,10*
G04 Gerber Generator version 0.2*
G04 Scale: 100 percent, Rotated: No, Reflected: No *
G04 Dimensions in millimeters *
G04 leading zeros omitted , absolute positions ,4 integer and 5 decimal *
%FSLAX45Y45*%
%MOMM*%

%ADD18C,0.1524*%
%ADD19C,0.2032*%

%LPD*%
D19*
X247652Y2899945D02*
G01*
X486412Y2899945D01*
X247652Y2899945D02*
G01*
X247652Y3002307D01*
X259082Y3036343D01*
X270512Y3047773D01*
X293118Y3059203D01*
X327154Y3059203D01*
X350014Y3047773D01*
X361444Y3036343D01*
X372620Y3002307D01*
X372620Y2899945D01*
X247652Y3134133D02*
G01*
X259082Y3145563D01*
X247652Y3156739D01*
X236476Y3145563D01*
X247652Y3134133D01*
X327154Y3145563D02*
G01*
X486412Y3145563D01*
X361444Y3368067D02*
G01*
X338584Y3345461D01*
X327154Y3322855D01*
X327154Y3288565D01*
X338584Y3265959D01*
X361444Y3243099D01*
X395480Y3231923D01*
X418086Y3231923D01*
X452376Y3243099D01*
X474982Y3265959D01*
X486412Y3288565D01*
X486412Y3322855D01*
X474982Y3345461D01*
X452376Y3368067D01*
X327154Y3499893D02*
G01*
X338584Y3477287D01*
X361444Y3454427D01*
X395480Y3443251D01*
X418086Y3443251D01*
X452376Y3454427D01*
X474982Y3477287D01*
X486412Y3499893D01*
X486412Y3534183D01*
X474982Y3556789D01*
X452376Y3579649D01*
X418086Y3590825D01*
X395480Y3590825D01*
X361444Y3579649D01*
X338584Y3556789D01*
X327154Y3534183D01*
X327154Y3499893D01*
X247652Y3666009D02*
G01*
X486412Y3666009D01*
X247652Y3825013D02*
G01*
X406910Y3666009D01*
X350014Y3722651D02*
G01*
X486412Y3825013D01*
X395480Y3899943D02*
G01*
X395480Y4036341D01*
X372620Y4036341D01*
X350014Y4024911D01*
X338584Y4013735D01*
X327154Y3990875D01*
X327154Y3956839D01*
X338584Y3933979D01*
X361444Y3911373D01*
X395480Y3899943D01*
X418086Y3899943D01*
X452376Y3911373D01*
X474982Y3933979D01*
X486412Y3956839D01*
X486412Y3990875D01*
X474982Y4013735D01*
X452376Y4036341D01*
X327154Y4122701D02*
G01*
X486412Y4191027D01*
X327154Y4259099D02*
G01*
X486412Y4191027D01*
X531878Y4168167D01*
X554484Y4145561D01*
X565914Y4122701D01*
X565914Y4111271D01*
X361444Y4458997D02*
G01*
X338584Y4447821D01*
X327154Y4413531D01*
X327154Y4379495D01*
X338584Y4345459D01*
X361444Y4334029D01*
X384050Y4345459D01*
X395480Y4368065D01*
X406910Y4424961D01*
X418086Y4447821D01*
X440946Y4458997D01*
X452376Y4458997D01*
X474982Y4447821D01*
X486412Y4413531D01*
X486412Y4379495D01*
X474982Y4345459D01*
X452376Y4334029D01*
X384050Y4709187D02*
G01*
X384050Y4913657D01*
X247652Y5163593D02*
G01*
X486412Y5254525D01*
X247652Y5345457D02*
G01*
X486412Y5254525D01*
X395480Y5420387D02*
G01*
X395480Y5556785D01*
X372620Y5556785D01*
X350014Y5545355D01*
X338584Y5534179D01*
X327154Y5511319D01*
X327154Y5477283D01*
X338584Y5454423D01*
X361444Y5431817D01*
X395480Y5420387D01*
X418086Y5420387D01*
X452376Y5431817D01*
X474982Y5454423D01*
X486412Y5477283D01*
X486412Y5511319D01*
X474982Y5534179D01*
X452376Y5556785D01*
X327154Y5631715D02*
G01*
X486412Y5631715D01*
X395480Y5631715D02*
G01*
X361444Y5643145D01*
X338584Y5666005D01*
X327154Y5688611D01*
X327154Y5722647D01*
X361444Y5922799D02*
G01*
X338584Y5911369D01*
X327154Y5877333D01*
X327154Y5843297D01*
X338584Y5809007D01*
X361444Y5797831D01*
X384050Y5809007D01*
X395480Y5831867D01*
X406910Y5888509D01*
X418086Y5911369D01*
X440946Y5922799D01*
X452376Y5922799D01*
X474982Y5911369D01*
X486412Y5877333D01*
X486412Y5843297D01*
X474982Y5809007D01*
X452376Y5797831D01*
X247652Y5997729D02*
G01*
X259082Y6009159D01*
X247652Y6020335D01*
X236476Y6009159D01*
X247652Y5997729D01*
X327154Y6009159D02*
G01*
X486412Y6009159D01*
X327154Y6152161D02*
G01*
X338584Y6129555D01*
X361444Y6106695D01*
X395480Y6095519D01*
X418086Y6095519D01*
X452376Y6106695D01*
X474982Y6129555D01*
X486412Y6152161D01*
X486412Y6186451D01*
X474982Y6209057D01*
X452376Y6231917D01*
X418086Y6243093D01*
X395480Y6243093D01*
X361444Y6231917D01*
X338584Y6209057D01*
X327154Y6186451D01*
X327154Y6152161D01*
X327154Y6318277D02*
G01*
X486412Y6318277D01*
X372620Y6318277D02*
G01*
X338584Y6352313D01*
X327154Y6374919D01*
X327154Y6409209D01*
X338584Y6431815D01*
X372620Y6443245D01*
X486412Y6443245D01*
X304548Y6704611D02*
G01*
X293118Y6704611D01*
X270512Y6715787D01*
X259082Y6727217D01*
X247652Y6750077D01*
X247652Y6795543D01*
X259082Y6818149D01*
X270512Y6829579D01*
X293118Y6841009D01*
X315978Y6841009D01*
X338584Y6829579D01*
X372620Y6806719D01*
X486412Y6693181D01*
X486412Y6852185D01*
X429516Y6938545D02*
G01*
X440946Y6927369D01*
X452376Y6938545D01*
X440946Y6949975D01*
X429516Y6938545D01*
X247652Y7093231D02*
G01*
X259082Y7059195D01*
X293118Y7036335D01*
X350014Y7024905D01*
X384050Y7024905D01*
X440946Y7036335D01*
X474982Y7059195D01*
X486412Y7093231D01*
X486412Y7115837D01*
X474982Y7149873D01*
X440946Y7172733D01*
X384050Y7184163D01*
X350014Y7184163D01*
X293118Y7172733D01*
X259082Y7149873D01*
X247652Y7115837D01*
X247652Y7093231D01*
X6547779Y2899945D02*
G01*
X6786285Y2899945D01*
X6547779Y2899945D02*
G01*
X6547779Y3002307D01*
X6559209Y3036343D01*
X6570385Y3047773D01*
X6593245Y3059203D01*
X6627281Y3059203D01*
X6649887Y3047773D01*
X6661317Y3036343D01*
X6672747Y3002307D01*
X6672747Y2899945D01*
X6547779Y3134133D02*
G01*
X6559209Y3145563D01*
X6547779Y3156739D01*
X6536349Y3145563D01*
X6547779Y3134133D01*
X6627281Y3145563D02*
G01*
X6786285Y3145563D01*
X6661317Y3368067D02*
G01*
X6638711Y3345461D01*
X6627281Y3322855D01*
X6627281Y3288565D01*
X6638711Y3265959D01*
X6661317Y3243099D01*
X6695353Y3231923D01*
X6718213Y3231923D01*
X6752249Y3243099D01*
X6775109Y3265959D01*
X6786285Y3288565D01*
X6786285Y3322855D01*
X6775109Y3345461D01*
X6752249Y3368067D01*
X6627281Y3499893D02*
G01*
X6638711Y3477287D01*
X6661317Y3454427D01*
X6695353Y3443251D01*
X6718213Y3443251D01*
X6752249Y3454427D01*
X6775109Y3477287D01*
X6786285Y3499893D01*
X6786285Y3534183D01*
X6775109Y3556789D01*
X6752249Y3579649D01*
X6718213Y3590825D01*
X6695353Y3590825D01*
X6661317Y3579649D01*
X6638711Y3556789D01*
X6627281Y3534183D01*
X6627281Y3499893D01*
X6547779Y3666009D02*
G01*
X6786285Y3666009D01*
X6547779Y3825013D02*
G01*
X6706783Y3666009D01*
X6649887Y3722651D02*
G01*
X6786285Y3825013D01*
X6695353Y3899943D02*
G01*
X6695353Y4036341D01*
X6672747Y4036341D01*
X6649887Y4024911D01*
X6638711Y4013735D01*
X6627281Y3990875D01*
X6627281Y3956839D01*
X6638711Y3933979D01*
X6661317Y3911373D01*
X6695353Y3899943D01*
X6718213Y3899943D01*
X6752249Y3911373D01*
X6775109Y3933979D01*
X6786285Y3956839D01*
X6786285Y3990875D01*
X6775109Y4013735D01*
X6752249Y4036341D01*
X6627281Y4122701D02*
G01*
X6786285Y4191027D01*
X6627281Y4259099D02*
G01*
X6786285Y4191027D01*
X6831751Y4168167D01*
X6854611Y4145561D01*
X6865787Y4122701D01*
X6865787Y4111271D01*
X6661317Y4458997D02*
G01*
X6638711Y4447821D01*
X6627281Y4413531D01*
X6627281Y4379495D01*
X6638711Y4345459D01*
X6661317Y4334029D01*
X6684177Y4345459D01*
X6695353Y4368065D01*
X6706783Y4424961D01*
X6718213Y4447821D01*
X6740819Y4458997D01*
X6752249Y4458997D01*
X6775109Y4447821D01*
X6786285Y4413531D01*
X6786285Y4379495D01*
X6775109Y4345459D01*
X6752249Y4334029D01*
X6684177Y4709187D02*
G01*
X6684177Y4913657D01*
X6547779Y5163593D02*
G01*
X6786285Y5254525D01*
X6547779Y5345457D02*
G01*
X6786285Y5254525D01*
X6695353Y5420387D02*
G01*
X6695353Y5556785D01*
X6672747Y5556785D01*
X6649887Y5545355D01*
X6638711Y5534179D01*
X6627281Y5511319D01*
X6627281Y5477283D01*
X6638711Y5454423D01*
X6661317Y5431817D01*
X6695353Y5420387D01*
X6718213Y5420387D01*
X6752249Y5431817D01*
X6775109Y5454423D01*
X6786285Y5477283D01*
X6786285Y5511319D01*
X6775109Y5534179D01*
X6752249Y5556785D01*
X6627281Y5631715D02*
G01*
X6786285Y5631715D01*
X6695353Y5631715D02*
G01*
X6661317Y5643145D01*
X6638711Y5666005D01*
X6627281Y5688611D01*
X6627281Y5722647D01*
X6661317Y5922799D02*
G01*
X6638711Y5911369D01*
X6627281Y5877333D01*
X6627281Y5843297D01*
X6638711Y5809007D01*
X6661317Y5797831D01*
X6684177Y5809007D01*
X6695353Y5831867D01*
X6706783Y5888509D01*
X6718213Y5911369D01*
X6740819Y5922799D01*
X6752249Y5922799D01*
X6775109Y5911369D01*
X6786285Y5877333D01*
X6786285Y5843297D01*
X6775109Y5809007D01*
X6752249Y5797831D01*
X6547779Y5997729D02*
G01*
X6559209Y6009159D01*
X6547779Y6020335D01*
X6536349Y6009159D01*
X6547779Y5997729D01*
X6627281Y6009159D02*
G01*
X6786285Y6009159D01*
X6627281Y6152161D02*
G01*
X6638711Y6129555D01*
X6661317Y6106695D01*
X6695353Y6095519D01*
X6718213Y6095519D01*
X6752249Y6106695D01*
X6775109Y6129555D01*
X6786285Y6152161D01*
X6786285Y6186451D01*
X6775109Y6209057D01*
X6752249Y6231917D01*
X6718213Y6243093D01*
X6695353Y6243093D01*
X6661317Y6231917D01*
X6638711Y6209057D01*
X6627281Y6186451D01*
X6627281Y6152161D01*
X6627281Y6318277D02*
G01*
X6786285Y6318277D01*
X6672747Y6318277D02*
G01*
X6638711Y6352313D01*
X6627281Y6374919D01*
X6627281Y6409209D01*
X6638711Y6431815D01*
X6672747Y6443245D01*
X6786285Y6443245D01*
X6604421Y6704611D02*
G01*
X6593245Y6704611D01*
X6570385Y6715787D01*
X6559209Y6727217D01*
X6547779Y6750077D01*
X6547779Y6795543D01*
X6559209Y6818149D01*
X6570385Y6829579D01*
X6593245Y6841009D01*
X6615851Y6841009D01*
X6638711Y6829579D01*
X6672747Y6806719D01*
X6786285Y6693181D01*
X6786285Y6852185D01*
X6729643Y6938545D02*
G01*
X6740819Y6927369D01*
X6752249Y6938545D01*
X6740819Y6949975D01*
X6729643Y6938545D01*
X6547779Y7093231D02*
G01*
X6559209Y7059195D01*
X6593245Y7036335D01*
X6649887Y7024905D01*
X6684177Y7024905D01*
X6740819Y7036335D01*
X6775109Y7059195D01*
X6786285Y7093231D01*
X6786285Y7115837D01*
X6775109Y7149873D01*
X6740819Y7172733D01*
X6684177Y7184163D01*
X6649887Y7184163D01*
X6593245Y7172733D01*
X6559209Y7149873D01*
X6547779Y7115837D01*
X6547779Y7093231D01*
X3625088Y851484D02*
G01*
X3625088Y708228D01*
X3625088Y851484D02*
G01*
X3686302Y851484D01*
X3706875Y844626D01*
X3713734Y837768D01*
X3720338Y824052D01*
X3720338Y810336D01*
X3713734Y796874D01*
X3706875Y790016D01*
X3686302Y783158D01*
X3625088Y783158D02*
G01*
X3686302Y783158D01*
X3706875Y776300D01*
X3713734Y769442D01*
X3720338Y755980D01*
X3720338Y735406D01*
X3713734Y721944D01*
X3706875Y715086D01*
X3686302Y708228D01*
X3625088Y708228D01*
X3765550Y803732D02*
G01*
X3765550Y735406D01*
X3772154Y715086D01*
X3785870Y708228D01*
X3806443Y708228D01*
X3819906Y715086D01*
X3840479Y735406D01*
X3840479Y803732D02*
G01*
X3840479Y708228D01*
X3885438Y851484D02*
G01*
X3892295Y844626D01*
X3899154Y851484D01*
X3892295Y858088D01*
X3885438Y851484D01*
X3892295Y803732D02*
G01*
X3892295Y708228D01*
X3944111Y851484D02*
G01*
X3944111Y708228D01*
X4070858Y851484D02*
G01*
X4070858Y708228D01*
X4070858Y783158D02*
G01*
X4057141Y796874D01*
X4043679Y803732D01*
X4023106Y803732D01*
X4009643Y796874D01*
X3995927Y783158D01*
X3989070Y762838D01*
X3989070Y749122D01*
X3995927Y728548D01*
X4009643Y715086D01*
X4023106Y708228D01*
X4043679Y708228D01*
X4057141Y715086D01*
X4070858Y728548D01*
X4302759Y851484D02*
G01*
X4302759Y708228D01*
X4302759Y783158D02*
G01*
X4289043Y796874D01*
X4275327Y803732D01*
X4255008Y803732D01*
X4241291Y796874D01*
X4227829Y783158D01*
X4220972Y762838D01*
X4220972Y749122D01*
X4227829Y728548D01*
X4241291Y715086D01*
X4255008Y708228D01*
X4275327Y708228D01*
X4289043Y715086D01*
X4302759Y728548D01*
X4429506Y803732D02*
G01*
X4429506Y708228D01*
X4429506Y783158D02*
G01*
X4415790Y796874D01*
X4402327Y803732D01*
X4381754Y803732D01*
X4368291Y796874D01*
X4354575Y783158D01*
X4347718Y762838D01*
X4347718Y749122D01*
X4354575Y728548D01*
X4368291Y715086D01*
X4381754Y708228D01*
X4402327Y708228D01*
X4415790Y715086D01*
X4429506Y728548D01*
X4495038Y851484D02*
G01*
X4495038Y735406D01*
X4501895Y715086D01*
X4515358Y708228D01*
X4529074Y708228D01*
X4474463Y803732D02*
G01*
X4522215Y803732D01*
X4574031Y762838D02*
G01*
X4655820Y762838D01*
X4655820Y776300D01*
X4648961Y790016D01*
X4642358Y796874D01*
X4628641Y803732D01*
X4608068Y803732D01*
X4594606Y796874D01*
X4580890Y783158D01*
X4574031Y762838D01*
X4574031Y749122D01*
X4580890Y728548D01*
X4594606Y715086D01*
X4608068Y708228D01*
X4628641Y708228D01*
X4642358Y715086D01*
X4655820Y728548D01*
X1795498Y830907D02*
G01*
X1781782Y844623D01*
X1761462Y851481D01*
X1734030Y851481D01*
X1713710Y844623D01*
X1699994Y830907D01*
X1699994Y817191D01*
X1706852Y803729D01*
X1713710Y796871D01*
X1727172Y790013D01*
X1768066Y776297D01*
X1781782Y769439D01*
X1788640Y762835D01*
X1795498Y749119D01*
X1795498Y728545D01*
X1781782Y715083D01*
X1761462Y708225D01*
X1734030Y708225D01*
X1713710Y715083D01*
X1699994Y728545D01*
X1840456Y762835D02*
G01*
X1922244Y762835D01*
X1922244Y776297D01*
X1915386Y790013D01*
X1908528Y796871D01*
X1895066Y803729D01*
X1874492Y803729D01*
X1861030Y796871D01*
X1847314Y783155D01*
X1840456Y762835D01*
X1840456Y749119D01*
X1847314Y728545D01*
X1861030Y715083D01*
X1874492Y708225D01*
X1895066Y708225D01*
X1908528Y715083D01*
X1922244Y728545D01*
X1967202Y803729D02*
G01*
X1967202Y708225D01*
X1967202Y762835D02*
G01*
X1974060Y783155D01*
X1987776Y796871D01*
X2001238Y803729D01*
X2021812Y803729D01*
X2066770Y851481D02*
G01*
X2073628Y844623D01*
X2080486Y851481D01*
X2073628Y858085D01*
X2066770Y851481D01*
X2073628Y803729D02*
G01*
X2073628Y708225D01*
X2207232Y803729D02*
G01*
X2207232Y708225D01*
X2207232Y783155D02*
G01*
X2193516Y796871D01*
X2180054Y803729D01*
X2159480Y803729D01*
X2146018Y796871D01*
X2132302Y783155D01*
X2125444Y762835D01*
X2125444Y749119D01*
X2132302Y728545D01*
X2146018Y715083D01*
X2159480Y708225D01*
X2180054Y708225D01*
X2193516Y715083D01*
X2207232Y728545D01*
X2252190Y851481D02*
G01*
X2252190Y708225D01*
X2402304Y803729D02*
G01*
X2402304Y708225D01*
X2402304Y776297D02*
G01*
X2422624Y796871D01*
X2436340Y803729D01*
X2456914Y803729D01*
X2470376Y796871D01*
X2477234Y776297D01*
X2477234Y708225D01*
X2522192Y803729D02*
G01*
X2522192Y735403D01*
X2529050Y715083D01*
X2542766Y708225D01*
X2563086Y708225D01*
X2576802Y715083D01*
X2597376Y735403D01*
X2597376Y803729D02*
G01*
X2597376Y708225D01*
X2642334Y803729D02*
G01*
X2642334Y708225D01*
X2642334Y776297D02*
G01*
X2662654Y796871D01*
X2676370Y803729D01*
X2696690Y803729D01*
X2710406Y796871D01*
X2717264Y776297D01*
X2717264Y708225D01*
X2717264Y776297D02*
G01*
X2737838Y796871D01*
X2751300Y803729D01*
X2771874Y803729D01*
X2785336Y796871D01*
X2792194Y776297D01*
X2792194Y708225D01*
X2837152Y851481D02*
G01*
X2837152Y708225D01*
X2837152Y783155D02*
G01*
X2850868Y796871D01*
X2864584Y803729D01*
X2884904Y803729D01*
X2898620Y796871D01*
X2912336Y783155D01*
X2919194Y762835D01*
X2919194Y749119D01*
X2912336Y728545D01*
X2898620Y715083D01*
X2884904Y708225D01*
X2864584Y708225D01*
X2850868Y715083D01*
X2837152Y728545D01*
X2964152Y762835D02*
G01*
X3045940Y762835D01*
X3045940Y776297D01*
X3039082Y790013D01*
X3032224Y796871D01*
X3018508Y803729D01*
X2998188Y803729D01*
X2984472Y796871D01*
X2971010Y783155D01*
X2964152Y762835D01*
X2964152Y749119D01*
X2971010Y728545D01*
X2984472Y715083D01*
X2998188Y708225D01*
X3018508Y708225D01*
X3032224Y715083D01*
X3045940Y728545D01*
X3090898Y803729D02*
G01*
X3090898Y708225D01*
X3090898Y762835D02*
G01*
X3097756Y783155D01*
X3111472Y796871D01*
X3124934Y803729D01*
X3145508Y803729D01*
D18*
X2872643Y7399822D02*
G01*
X2862229Y7410236D01*
X2846735Y7415316D01*
X2825907Y7415316D01*
X2810413Y7410236D01*
X2799999Y7399822D01*
X2799999Y7389408D01*
X2805079Y7378994D01*
X2810413Y7373660D01*
X2820827Y7368580D01*
X2852069Y7358166D01*
X2862229Y7353086D01*
X2867563Y7347752D01*
X2872643Y7337338D01*
X2872643Y7321844D01*
X2862229Y7311430D01*
X2846735Y7306350D01*
X2825907Y7306350D01*
X2810413Y7311430D01*
X2799999Y7321844D01*
X2906933Y7415316D02*
G01*
X2933095Y7306350D01*
X2959003Y7415316D02*
G01*
X2933095Y7306350D01*
X2959003Y7415316D02*
G01*
X2984911Y7306350D01*
X3010819Y7415316D02*
G01*
X2984911Y7306350D01*
X3050443Y7389408D02*
G01*
X3050443Y7394488D01*
X3055523Y7404902D01*
X3060857Y7410236D01*
X3071271Y7415316D01*
X3092099Y7415316D01*
X3102259Y7410236D01*
X3107593Y7404902D01*
X3112673Y7394488D01*
X3112673Y7384074D01*
X3107593Y7373660D01*
X3097179Y7358166D01*
X3045109Y7306350D01*
X3118007Y7306350D01*
X4872644Y7399822D02*
G01*
X4862230Y7410236D01*
X4846736Y7415316D01*
X4825908Y7415316D01*
X4810414Y7410236D01*
X4800000Y7399822D01*
X4800000Y7389408D01*
X4805080Y7378994D01*
X4810414Y7373660D01*
X4820828Y7368580D01*
X4852070Y7358166D01*
X4862230Y7353086D01*
X4867564Y7347752D01*
X4872644Y7337338D01*
X4872644Y7321844D01*
X4862230Y7311430D01*
X4846736Y7306350D01*
X4825908Y7306350D01*
X4810414Y7311430D01*
X4800000Y7321844D01*
X4906934Y7415316D02*
G01*
X4933096Y7306350D01*
X4959004Y7415316D02*
G01*
X4933096Y7306350D01*
X4959004Y7415316D02*
G01*
X4984912Y7306350D01*
X5010820Y7415316D02*
G01*
X4984912Y7306350D01*
X5055524Y7415316D02*
G01*
X5112674Y7415316D01*
X5081686Y7373660D01*
X5097180Y7373660D01*
X5107594Y7368580D01*
X5112674Y7363500D01*
X5118008Y7347752D01*
X5118008Y7337338D01*
X5112674Y7321844D01*
X5102260Y7311430D01*
X5086766Y7306350D01*
X5071272Y7306350D01*
X5055524Y7311430D01*
X5050444Y7316510D01*
X5045110Y7326924D01*
X872644Y5399821D02*
G01*
X862230Y5410235D01*
X846736Y5415315D01*
X825908Y5415315D01*
X810414Y5410235D01*
X800000Y5399821D01*
X800000Y5389407D01*
X805080Y5378993D01*
X810414Y5373659D01*
X820828Y5368579D01*
X852070Y5358165D01*
X862230Y5353085D01*
X867564Y5347751D01*
X872644Y5337337D01*
X872644Y5321843D01*
X862230Y5311429D01*
X846736Y5306349D01*
X825908Y5306349D01*
X810414Y5311429D01*
X800000Y5321843D01*
X906934Y5415315D02*
G01*
X933096Y5306349D01*
X959004Y5415315D02*
G01*
X933096Y5306349D01*
X959004Y5415315D02*
G01*
X984912Y5306349D01*
X1010820Y5415315D02*
G01*
X984912Y5306349D01*
X1097180Y5415315D02*
G01*
X1045110Y5342671D01*
X1123088Y5342671D01*
X1097180Y5415315D02*
G01*
X1097180Y5306349D01*
X2872643Y5399821D02*
G01*
X2862229Y5410235D01*
X2846735Y5415315D01*
X2825907Y5415315D01*
X2810413Y5410235D01*
X2799999Y5399821D01*
X2799999Y5389407D01*
X2805079Y5378993D01*
X2810413Y5373659D01*
X2820827Y5368579D01*
X2852069Y5358165D01*
X2862229Y5353085D01*
X2867563Y5347751D01*
X2872643Y5337337D01*
X2872643Y5321843D01*
X2862229Y5311429D01*
X2846735Y5306349D01*
X2825907Y5306349D01*
X2810413Y5311429D01*
X2799999Y5321843D01*
X2906933Y5415315D02*
G01*
X2933095Y5306349D01*
X2959003Y5415315D02*
G01*
X2933095Y5306349D01*
X2959003Y5415315D02*
G01*
X2984911Y5306349D01*
X3010819Y5415315D02*
G01*
X2984911Y5306349D01*
X3107593Y5415315D02*
G01*
X3055523Y5415315D01*
X3050443Y5368579D01*
X3055523Y5373659D01*
X3071271Y5378993D01*
X3086765Y5378993D01*
X3102259Y5373659D01*
X3112673Y5363499D01*
X3118007Y5347751D01*
X3118007Y5337337D01*
X3112673Y5321843D01*
X3102259Y5311429D01*
X3086765Y5306349D01*
X3071271Y5306349D01*
X3055523Y5311429D01*
X3050443Y5316509D01*
X3045109Y5326923D01*
X4872644Y5399821D02*
G01*
X4862230Y5410235D01*
X4846736Y5415315D01*
X4825908Y5415315D01*
X4810414Y5410235D01*
X4800000Y5399821D01*
X4800000Y5389407D01*
X4805080Y5378993D01*
X4810414Y5373659D01*
X4820828Y5368579D01*
X4852070Y5358165D01*
X4862230Y5353085D01*
X4867564Y5347751D01*
X4872644Y5337337D01*
X4872644Y5321843D01*
X4862230Y5311429D01*
X4846736Y5306349D01*
X4825908Y5306349D01*
X4810414Y5311429D01*
X4800000Y5321843D01*
X4906934Y5415315D02*
G01*
X4933096Y5306349D01*
X4959004Y5415315D02*
G01*
X4933096Y5306349D01*
X4959004Y5415315D02*
G01*
X4984912Y5306349D01*
X5010820Y5415315D02*
G01*
X4984912Y5306349D01*
X5107594Y5399821D02*
G01*
X5102260Y5410235D01*
X5086766Y5415315D01*
X5076352Y5415315D01*
X5060858Y5410235D01*
X5050444Y5394487D01*
X5045110Y5368579D01*
X5045110Y5342671D01*
X5050444Y5321843D01*
X5060858Y5311429D01*
X5076352Y5306349D01*
X5081686Y5306349D01*
X5097180Y5311429D01*
X5107594Y5321843D01*
X5112674Y5337337D01*
X5112674Y5342671D01*
X5107594Y5358165D01*
X5097180Y5368579D01*
X5081686Y5373659D01*
X5076352Y5373659D01*
X5060858Y5368579D01*
X5050444Y5358165D01*
X5045110Y5342671D01*
X872644Y3399823D02*
G01*
X862230Y3410237D01*
X846736Y3415317D01*
X825908Y3415317D01*
X810414Y3410237D01*
X800000Y3399823D01*
X800000Y3389409D01*
X805080Y3378995D01*
X810414Y3373661D01*
X820828Y3368581D01*
X852070Y3358167D01*
X862230Y3353087D01*
X867564Y3347753D01*
X872644Y3337339D01*
X872644Y3321845D01*
X862230Y3311431D01*
X846736Y3306351D01*
X825908Y3306351D01*
X810414Y3311431D01*
X800000Y3321845D01*
X906934Y3415317D02*
G01*
X933096Y3306351D01*
X959004Y3415317D02*
G01*
X933096Y3306351D01*
X959004Y3415317D02*
G01*
X984912Y3306351D01*
X1010820Y3415317D02*
G01*
X984912Y3306351D01*
X1118008Y3415317D02*
G01*
X1065938Y3306351D01*
X1045110Y3415317D02*
G01*
X1118008Y3415317D01*
X2872643Y3399823D02*
G01*
X2862229Y3410237D01*
X2846735Y3415317D01*
X2825907Y3415317D01*
X2810413Y3410237D01*
X2799999Y3399823D01*
X2799999Y3389409D01*
X2805079Y3378995D01*
X2810413Y3373661D01*
X2820827Y3368581D01*
X2852069Y3358167D01*
X2862229Y3353087D01*
X2867563Y3347753D01*
X2872643Y3337339D01*
X2872643Y3321845D01*
X2862229Y3311431D01*
X2846735Y3306351D01*
X2825907Y3306351D01*
X2810413Y3311431D01*
X2799999Y3321845D01*
X2906933Y3415317D02*
G01*
X2933095Y3306351D01*
X2959003Y3415317D02*
G01*
X2933095Y3306351D01*
X2959003Y3415317D02*
G01*
X2984911Y3306351D01*
X3010819Y3415317D02*
G01*
X2984911Y3306351D01*
X3071271Y3415317D02*
G01*
X3055523Y3410237D01*
X3050443Y3399823D01*
X3050443Y3389409D01*
X3055523Y3378995D01*
X3065937Y3373661D01*
X3086765Y3368581D01*
X3102259Y3363501D01*
X3112673Y3353087D01*
X3118007Y3342673D01*
X3118007Y3326925D01*
X3112673Y3316511D01*
X3107593Y3311431D01*
X3092099Y3306351D01*
X3071271Y3306351D01*
X3055523Y3311431D01*
X3050443Y3316511D01*
X3045109Y3326925D01*
X3045109Y3342673D01*
X3050443Y3353087D01*
X3060857Y3363501D01*
X3076351Y3368581D01*
X3097179Y3373661D01*
X3107593Y3378995D01*
X3112673Y3389409D01*
X3112673Y3399823D01*
X3107593Y3410237D01*
X3092099Y3415317D01*
X3071271Y3415317D01*
X4872644Y3399823D02*
G01*
X4862230Y3410237D01*
X4846736Y3415317D01*
X4825908Y3415317D01*
X4810414Y3410237D01*
X4800000Y3399823D01*
X4800000Y3389409D01*
X4805080Y3378995D01*
X4810414Y3373661D01*
X4820828Y3368581D01*
X4852070Y3358167D01*
X4862230Y3353087D01*
X4867564Y3347753D01*
X4872644Y3337339D01*
X4872644Y3321845D01*
X4862230Y3311431D01*
X4846736Y3306351D01*
X4825908Y3306351D01*
X4810414Y3311431D01*
X4800000Y3321845D01*
X4906934Y3415317D02*
G01*
X4933096Y3306351D01*
X4959004Y3415317D02*
G01*
X4933096Y3306351D01*
X4959004Y3415317D02*
G01*
X4984912Y3306351D01*
X5010820Y3415317D02*
G01*
X4984912Y3306351D01*
X5112674Y3378995D02*
G01*
X5107594Y3363501D01*
X5097180Y3353087D01*
X5081686Y3347753D01*
X5076352Y3347753D01*
X5060858Y3353087D01*
X5050444Y3363501D01*
X5045110Y3378995D01*
X5045110Y3384075D01*
X5050444Y3399823D01*
X5060858Y3410237D01*
X5076352Y3415317D01*
X5081686Y3415317D01*
X5097180Y3410237D01*
X5107594Y3399823D01*
X5112674Y3378995D01*
X5112674Y3353087D01*
X5107594Y3326925D01*
X5097180Y3311431D01*
X5081686Y3306351D01*
X5071272Y3306351D01*
X5055524Y3311431D01*
X5050444Y3321845D01*
X872644Y1399821D02*
G01*
X862230Y1410235D01*
X846736Y1415315D01*
X825908Y1415315D01*
X810414Y1410235D01*
X800000Y1399821D01*
X800000Y1389407D01*
X805080Y1378993D01*
X810414Y1373659D01*
X820828Y1368579D01*
X852070Y1358165D01*
X862230Y1353085D01*
X867564Y1347751D01*
X872644Y1337337D01*
X872644Y1321843D01*
X862230Y1311429D01*
X846736Y1306349D01*
X825908Y1306349D01*
X810414Y1311429D01*
X800000Y1321843D01*
X906934Y1415315D02*
G01*
X933096Y1306349D01*
X959004Y1415315D02*
G01*
X933096Y1306349D01*
X959004Y1415315D02*
G01*
X984912Y1306349D01*
X1010820Y1415315D02*
G01*
X984912Y1306349D01*
X1045110Y1394487D02*
G01*
X1055524Y1399821D01*
X1071272Y1415315D01*
X1071272Y1306349D01*
X1136550Y1415315D02*
G01*
X1121056Y1410235D01*
X1110642Y1394487D01*
X1105562Y1368579D01*
X1105562Y1353085D01*
X1110642Y1326923D01*
X1121056Y1311429D01*
X1136550Y1306349D01*
X1146964Y1306349D01*
X1162712Y1311429D01*
X1173126Y1326923D01*
X1178206Y1353085D01*
X1178206Y1368579D01*
X1173126Y1394487D01*
X1162712Y1410235D01*
X1146964Y1415315D01*
X1136550Y1415315D01*
X2872643Y1399821D02*
G01*
X2862229Y1410235D01*
X2846735Y1415315D01*
X2825907Y1415315D01*
X2810413Y1410235D01*
X2799999Y1399821D01*
X2799999Y1389407D01*
X2805079Y1378993D01*
X2810413Y1373659D01*
X2820827Y1368579D01*
X2852069Y1358165D01*
X2862229Y1353085D01*
X2867563Y1347751D01*
X2872643Y1337337D01*
X2872643Y1321843D01*
X2862229Y1311429D01*
X2846735Y1306349D01*
X2825907Y1306349D01*
X2810413Y1311429D01*
X2799999Y1321843D01*
X2906933Y1415315D02*
G01*
X2933095Y1306349D01*
X2959003Y1415315D02*
G01*
X2933095Y1306349D01*
X2959003Y1415315D02*
G01*
X2984911Y1306349D01*
X3010819Y1415315D02*
G01*
X2984911Y1306349D01*
X3045109Y1394487D02*
G01*
X3055523Y1399821D01*
X3071271Y1415315D01*
X3071271Y1306349D01*
X3105561Y1394487D02*
G01*
X3115975Y1399821D01*
X3131469Y1415315D01*
X3131469Y1306349D01*
X4872644Y1399821D02*
G01*
X4862230Y1410235D01*
X4846736Y1415315D01*
X4825908Y1415315D01*
X4810414Y1410235D01*
X4800000Y1399821D01*
X4800000Y1389407D01*
X4805080Y1378993D01*
X4810414Y1373659D01*
X4820828Y1368579D01*
X4852070Y1358165D01*
X4862230Y1353085D01*
X4867564Y1347751D01*
X4872644Y1337337D01*
X4872644Y1321843D01*
X4862230Y1311429D01*
X4846736Y1306349D01*
X4825908Y1306349D01*
X4810414Y1311429D01*
X4800000Y1321843D01*
X4906934Y1415315D02*
G01*
X4933096Y1306349D01*
X4959004Y1415315D02*
G01*
X4933096Y1306349D01*
X4959004Y1415315D02*
G01*
X4984912Y1306349D01*
X5010820Y1415315D02*
G01*
X4984912Y1306349D01*
X5045110Y1394487D02*
G01*
X5055524Y1399821D01*
X5071272Y1415315D01*
X5071272Y1306349D01*
X5110642Y1389407D02*
G01*
X5110642Y1394487D01*
X5115976Y1404901D01*
X5121056Y1410235D01*
X5131470Y1415315D01*
X5152298Y1415315D01*
X5162712Y1410235D01*
X5167792Y1404901D01*
X5173126Y1394487D01*
X5173126Y1384073D01*
X5167792Y1373659D01*
X5157378Y1358165D01*
X5105562Y1306349D01*
X5178206Y1306349D01*
X872632Y7399822D02*
G01*
X862472Y7410236D01*
X846724Y7415316D01*
X825896Y7415316D01*
X810402Y7410236D01*
X799988Y7399822D01*
X799988Y7389408D01*
X805322Y7378994D01*
X810402Y7373660D01*
X820816Y7368580D01*
X852058Y7358166D01*
X862472Y7353086D01*
X867552Y7347752D01*
X872632Y7337338D01*
X872632Y7321844D01*
X862472Y7311430D01*
X846724Y7306350D01*
X825896Y7306350D01*
X810402Y7311430D01*
X799988Y7321844D01*
X906922Y7415316D02*
G01*
X933084Y7306350D01*
X958992Y7415316D02*
G01*
X933084Y7306350D01*
X958992Y7415316D02*
G01*
X984900Y7306350D01*
X1011062Y7415316D02*
G01*
X984900Y7306350D01*
X1045352Y7394488D02*
G01*
X1055512Y7399822D01*
X1071260Y7415316D01*
X1071260Y7306350D01*
G36*
X3624986Y599998D02*
G01*
X3624986Y199999D01*
X5300014Y199999D01*
X5300014Y599998D01*
G37*
G36*
X1700022Y599998D02*
G01*
X1700022Y199999D01*
X3399993Y199999D01*
X3399993Y599998D01*
G37*
X2712598Y7212601D02*
G01*
X4287398Y7212601D01*
X4287398Y8787401D01*
X2712598Y8787401D01*
X2712598Y7212601D01*
X4712599Y7212601D02*
G01*
X6287399Y7212601D01*
X6287399Y8787401D01*
X4712599Y8787401D01*
X4712599Y7212601D01*
X712599Y5212600D02*
G01*
X2287399Y5212600D01*
X2287399Y6787400D01*
X712599Y6787400D01*
X712599Y5212600D01*
X2712598Y5212600D02*
G01*
X4287398Y5212600D01*
X4287398Y6787400D01*
X2712598Y6787400D01*
X2712598Y5212600D01*
X4712599Y5212600D02*
G01*
X6287399Y5212600D01*
X6287399Y6787400D01*
X4712599Y6787400D01*
X4712599Y5212600D01*
X712599Y3212602D02*
G01*
X2287399Y3212602D01*
X2287399Y4787402D01*
X712599Y4787402D01*
X712599Y3212602D01*
X2712598Y3212602D02*
G01*
X4287398Y3212602D01*
X4287398Y4787402D01*
X2712598Y4787402D01*
X2712598Y3212602D01*
X4712599Y3212602D02*
G01*
X6287399Y3212602D01*
X6287399Y4787402D01*
X4712599Y4787402D01*
X4712599Y3212602D01*
X712599Y1212601D02*
G01*
X2287399Y1212601D01*
X2287399Y2787401D01*
X712599Y2787401D01*
X712599Y1212601D01*
X2712598Y1212601D02*
G01*
X4287398Y1212601D01*
X4287398Y2787401D01*
X2712598Y2787401D01*
X2712598Y1212601D01*
X4712599Y1212601D02*
G01*
X6287399Y1212601D01*
X6287399Y2787401D01*
X4712599Y2787401D01*
X4712599Y1212601D01*
X712599Y7212601D02*
G01*
X2287399Y7212601D01*
X2287399Y8787401D01*
X712599Y8787401D01*
X712599Y7212601D01*
M02*
