G04 Layer: BottomSilkscreenLayer*
G04 EasyEDA v6.5.1, 2022-08-10 00:04:10*
G04 a67cddfb3fce44daa9051d46cbbcc19f,10*
G04 Gerber Generator version 0.2*
G04 Scale: 100 percent, Rotated: No, Reflected: No *
G04 Dimensions in millimeters *
G04 leading zeros omitted , absolute positions ,4 integer and 5 decimal *
%FSLAX45Y45*%
%MOMM*%

%ADD18C,0.1524*%
%ADD20C,0.1199*%
%ADD21C,0.1501*%

%LPD*%
D18*
X3800002Y9115338D02*
G01*
X3800002Y9006235D01*
X3800002Y9115338D02*
G01*
X3763634Y9115338D01*
X3748046Y9110144D01*
X3737658Y9099753D01*
X3732461Y9089362D01*
X3727267Y9073774D01*
X3727267Y9047797D01*
X3732461Y9032212D01*
X3737658Y9021820D01*
X3748046Y9011429D01*
X3763634Y9006235D01*
X3800002Y9006235D01*
X3692977Y9115338D02*
G01*
X3692977Y9006235D01*
X3692977Y9115338D02*
G01*
X3625435Y9115338D01*
X3692977Y9063385D02*
G01*
X3651412Y9063385D01*
X3692977Y9006235D02*
G01*
X3625435Y9006235D01*
X3591145Y9115338D02*
G01*
X3549581Y9006235D01*
X3508016Y9115338D02*
G01*
X3549581Y9006235D01*
X3473726Y9094556D02*
G01*
X3463338Y9099753D01*
X3447750Y9115338D01*
X3447750Y9006235D01*
D21*
X4863505Y9574974D02*
G01*
X4871410Y9577489D01*
X4881465Y9577489D01*
X4889370Y9574974D01*
X4899606Y9564735D01*
X4902121Y9556833D01*
X4902121Y9546775D01*
X4899606Y9538873D01*
X4894397Y9528634D01*
X4881465Y9515703D01*
X4871229Y9510496D01*
X4863505Y9508159D01*
X4853269Y9507981D01*
X4845545Y9510674D01*
X4835309Y9520913D01*
X4832614Y9528634D01*
X4832794Y9538873D01*
X4835128Y9546597D01*
X4842852Y9554319D01*
X4855784Y9541388D02*
G01*
X4842852Y9554319D01*
X4859555Y9604789D02*
G01*
X4805494Y9550727D01*
X4859555Y9604789D02*
G01*
X4836386Y9627956D01*
X4825969Y9632985D01*
X4820940Y9632985D01*
X4813038Y9630470D01*
X4805314Y9622749D01*
X4802979Y9615025D01*
X4802799Y9609818D01*
X4808009Y9599579D01*
X4831176Y9576412D01*
X4796154Y9647354D02*
G01*
X4793640Y9655258D01*
X4793640Y9670704D01*
X4739579Y9616643D01*
X4863505Y9065958D02*
G01*
X4871410Y9068473D01*
X4881465Y9068473D01*
X4889370Y9065958D01*
X4899606Y9055719D01*
X4902121Y9047817D01*
X4902121Y9037759D01*
X4899606Y9029857D01*
X4894397Y9019618D01*
X4881465Y9006687D01*
X4871229Y9001480D01*
X4863505Y8999143D01*
X4853269Y8998965D01*
X4845545Y9001658D01*
X4835309Y9011897D01*
X4832614Y9019618D01*
X4832794Y9029857D01*
X4835128Y9037581D01*
X4842852Y9045303D01*
X4855784Y9032372D02*
G01*
X4842852Y9045303D01*
X4859555Y9095773D02*
G01*
X4805494Y9041711D01*
X4859555Y9095773D02*
G01*
X4836386Y9118940D01*
X4825969Y9123969D01*
X4820940Y9123969D01*
X4813038Y9121454D01*
X4805314Y9113733D01*
X4802979Y9106009D01*
X4802799Y9100802D01*
X4808009Y9090563D01*
X4831176Y9067396D01*
X4790945Y9138518D02*
G01*
X4793460Y9141033D01*
X4796154Y9148754D01*
X4796154Y9153784D01*
X4793640Y9161688D01*
X4783401Y9171924D01*
X4775499Y9174439D01*
X4770470Y9174439D01*
X4762748Y9171744D01*
X4757719Y9166717D01*
X4755024Y9158993D01*
X4752510Y9146062D01*
X4752510Y9094696D01*
X4716409Y9130794D01*
X4853571Y9827887D02*
G01*
X4861293Y9830579D01*
X4871532Y9830401D01*
X4879253Y9828065D01*
X4889670Y9817648D01*
X4892006Y9809924D01*
X4892184Y9799688D01*
X4889492Y9791964D01*
X4884463Y9781547D01*
X4871532Y9768616D01*
X4861112Y9763587D01*
X4853571Y9761072D01*
X4843152Y9761072D01*
X4835608Y9763587D01*
X4825192Y9774003D01*
X4822677Y9781547D01*
X4822677Y9791964D01*
X4825192Y9799507D01*
X4832916Y9807232D01*
X4845667Y9794478D02*
G01*
X4832916Y9807232D01*
X4849439Y9857879D02*
G01*
X4795377Y9803818D01*
X4849439Y9857879D02*
G01*
X4826271Y9881049D01*
X4816033Y9885898D01*
X4810823Y9886078D01*
X4803101Y9883383D01*
X4795377Y9875662D01*
X4792863Y9868118D01*
X4792863Y9862728D01*
X4797892Y9852672D01*
X4821062Y9829502D01*
X4781008Y9926309D02*
G01*
X4786038Y9915893D01*
X4783523Y9902962D01*
X4773287Y9887694D01*
X4765563Y9879972D01*
X4750117Y9869553D01*
X4737186Y9867038D01*
X4726950Y9872248D01*
X4721920Y9877277D01*
X4716711Y9887513D01*
X4719226Y9900447D01*
X4729642Y9915893D01*
X4737366Y9923614D01*
X4752632Y9933853D01*
X4765563Y9936368D01*
X4775982Y9931339D01*
X4781008Y9926309D01*
X4853571Y8811887D02*
G01*
X4861293Y8814579D01*
X4871532Y8814401D01*
X4879253Y8812065D01*
X4889670Y8801648D01*
X4892006Y8793924D01*
X4892184Y8783688D01*
X4889492Y8775964D01*
X4884463Y8765547D01*
X4871532Y8752616D01*
X4861112Y8747587D01*
X4853571Y8745072D01*
X4843152Y8745072D01*
X4835608Y8747587D01*
X4825192Y8758003D01*
X4822677Y8765547D01*
X4822677Y8775964D01*
X4825192Y8783507D01*
X4832916Y8791232D01*
X4845667Y8778478D02*
G01*
X4832916Y8791232D01*
X4849439Y8841879D02*
G01*
X4795377Y8787818D01*
X4849439Y8841879D02*
G01*
X4826271Y8865049D01*
X4816033Y8869898D01*
X4810823Y8870078D01*
X4803101Y8867383D01*
X4795377Y8859662D01*
X4792863Y8852118D01*
X4792863Y8846728D01*
X4797892Y8836672D01*
X4821062Y8813502D01*
X4791428Y8899893D02*
G01*
X4763048Y8928270D01*
X4757841Y8892169D01*
X4750117Y8899893D01*
X4742573Y8902407D01*
X4737186Y8902407D01*
X4726950Y8897198D01*
X4721920Y8892169D01*
X4716711Y8881932D01*
X4716711Y8871513D01*
X4721920Y8861277D01*
X4729642Y8853553D01*
X4739881Y8848346D01*
X4745088Y8848526D01*
X4752632Y8851038D01*
X4853571Y8557887D02*
G01*
X4861293Y8560579D01*
X4871532Y8560401D01*
X4879253Y8558065D01*
X4889670Y8547648D01*
X4892006Y8539924D01*
X4892184Y8529688D01*
X4889492Y8521964D01*
X4884463Y8511547D01*
X4871532Y8498616D01*
X4861112Y8493587D01*
X4853571Y8491072D01*
X4843152Y8491072D01*
X4835608Y8493587D01*
X4825192Y8504003D01*
X4822677Y8511547D01*
X4822677Y8521964D01*
X4825192Y8529507D01*
X4832916Y8537232D01*
X4845667Y8524478D02*
G01*
X4832916Y8537232D01*
X4849439Y8587879D02*
G01*
X4795377Y8533818D01*
X4849439Y8587879D02*
G01*
X4826271Y8611049D01*
X4816033Y8615898D01*
X4810823Y8616078D01*
X4803101Y8613383D01*
X4795377Y8605662D01*
X4792863Y8598118D01*
X4792863Y8592728D01*
X4797892Y8582672D01*
X4821062Y8559502D01*
X4770772Y8666548D02*
G01*
X4760356Y8604763D01*
X4721920Y8643198D01*
X4770772Y8666548D02*
G01*
X4716711Y8612487D01*
X4853571Y8303887D02*
G01*
X4861293Y8306579D01*
X4871532Y8306401D01*
X4879253Y8304065D01*
X4889670Y8293648D01*
X4892006Y8285924D01*
X4892184Y8275688D01*
X4889492Y8267964D01*
X4884463Y8257547D01*
X4871532Y8244616D01*
X4861112Y8239587D01*
X4853571Y8237072D01*
X4843152Y8237072D01*
X4835608Y8239587D01*
X4825192Y8250003D01*
X4822677Y8257547D01*
X4822677Y8267964D01*
X4825192Y8275507D01*
X4832916Y8283232D01*
X4845667Y8270478D02*
G01*
X4832916Y8283232D01*
X4849439Y8333879D02*
G01*
X4795377Y8279818D01*
X4849439Y8333879D02*
G01*
X4826271Y8357049D01*
X4816033Y8361898D01*
X4810823Y8362078D01*
X4803101Y8359383D01*
X4795377Y8351662D01*
X4792863Y8344118D01*
X4792863Y8338728D01*
X4797892Y8328672D01*
X4821062Y8305502D01*
X4765743Y8417575D02*
G01*
X4791428Y8391893D01*
X4770772Y8366208D01*
X4770772Y8371238D01*
X4765563Y8381476D01*
X4757841Y8389198D01*
X4747602Y8394407D01*
X4737186Y8394407D01*
X4726950Y8389198D01*
X4721920Y8384169D01*
X4716711Y8373932D01*
X4716711Y8363513D01*
X4721920Y8353277D01*
X4729642Y8345553D01*
X4739881Y8340346D01*
X4745088Y8340526D01*
X4752632Y8343038D01*
X4853571Y7795887D02*
G01*
X4861293Y7798579D01*
X4871532Y7798401D01*
X4879253Y7796065D01*
X4889670Y7785648D01*
X4892006Y7777924D01*
X4892184Y7767688D01*
X4889492Y7759964D01*
X4884463Y7749547D01*
X4871532Y7736616D01*
X4861112Y7731587D01*
X4853571Y7729072D01*
X4843152Y7729072D01*
X4835608Y7731587D01*
X4825192Y7742003D01*
X4822677Y7749547D01*
X4822677Y7759964D01*
X4825192Y7767507D01*
X4832916Y7775232D01*
X4845667Y7762478D02*
G01*
X4832916Y7775232D01*
X4849439Y7825879D02*
G01*
X4795377Y7771818D01*
X4849439Y7825879D02*
G01*
X4826271Y7849049D01*
X4816033Y7853898D01*
X4810823Y7854078D01*
X4803101Y7851383D01*
X4795377Y7843662D01*
X4792863Y7836118D01*
X4792863Y7830728D01*
X4797892Y7820672D01*
X4821062Y7797502D01*
X4758019Y7901853D02*
G01*
X4765563Y7904368D01*
X4775982Y7899339D01*
X4781008Y7894309D01*
X4786038Y7883893D01*
X4783523Y7870962D01*
X4773287Y7855694D01*
X4760356Y7842763D01*
X4747602Y7835038D01*
X4737186Y7835038D01*
X4726950Y7840248D01*
X4724435Y7842763D01*
X4719226Y7853001D01*
X4719406Y7863238D01*
X4724435Y7873654D01*
X4726950Y7876169D01*
X4737366Y7881198D01*
X4747602Y7881378D01*
X4757841Y7876169D01*
X4760356Y7873654D01*
X4765563Y7863418D01*
X4765563Y7853001D01*
X4760356Y7842763D01*
X4843472Y7545034D02*
G01*
X4851374Y7547549D01*
X4861433Y7547549D01*
X4869157Y7544854D01*
X4879393Y7534617D01*
X4882088Y7526893D01*
X4882268Y7516657D01*
X4879573Y7508933D01*
X4874364Y7498697D01*
X4861433Y7485766D01*
X4851196Y7480556D01*
X4843652Y7478041D01*
X4833236Y7478041D01*
X4825512Y7480736D01*
X4815276Y7490973D01*
X4812581Y7498697D01*
X4812761Y7508933D01*
X4815095Y7516657D01*
X4822817Y7524379D01*
X4835751Y7511448D02*
G01*
X4822817Y7524379D01*
X4839342Y7574668D02*
G01*
X4785461Y7520787D01*
X4839342Y7574668D02*
G01*
X4816172Y7597838D01*
X4805936Y7603048D01*
X4800907Y7603048D01*
X4793002Y7600533D01*
X4785281Y7592809D01*
X4782947Y7585087D01*
X4782766Y7579878D01*
X4787976Y7569639D01*
X4811143Y7546472D01*
X4750437Y7663573D02*
G01*
X4722238Y7584008D01*
X4786358Y7627653D02*
G01*
X4750437Y7663573D01*
X4853571Y7287887D02*
G01*
X4861293Y7290579D01*
X4871532Y7290401D01*
X4879253Y7288065D01*
X4889670Y7277648D01*
X4892006Y7269924D01*
X4892184Y7259688D01*
X4889492Y7251964D01*
X4884463Y7241547D01*
X4871532Y7228616D01*
X4861112Y7223587D01*
X4853571Y7221072D01*
X4843152Y7221072D01*
X4835608Y7223587D01*
X4825192Y7234003D01*
X4822677Y7241547D01*
X4822677Y7251964D01*
X4825192Y7259507D01*
X4832916Y7267232D01*
X4845667Y7254478D02*
G01*
X4832916Y7267232D01*
X4849439Y7317879D02*
G01*
X4795377Y7263818D01*
X4849439Y7317879D02*
G01*
X4826271Y7341049D01*
X4816033Y7345898D01*
X4810823Y7346078D01*
X4803101Y7343383D01*
X4795377Y7335662D01*
X4792863Y7328118D01*
X4792863Y7322728D01*
X4797892Y7312672D01*
X4821062Y7289502D01*
X4783703Y7383614D02*
G01*
X4788733Y7373198D01*
X4786218Y7365654D01*
X4781008Y7360447D01*
X4773287Y7357752D01*
X4765563Y7360447D01*
X4752812Y7368169D01*
X4742395Y7373198D01*
X4732157Y7373378D01*
X4724435Y7370683D01*
X4716711Y7362962D01*
X4714196Y7355418D01*
X4714196Y7350028D01*
X4719406Y7339792D01*
X4729642Y7329553D01*
X4739881Y7324346D01*
X4745088Y7324526D01*
X4752632Y7327038D01*
X4760356Y7334763D01*
X4763048Y7342487D01*
X4762870Y7352723D01*
X4757841Y7363139D01*
X4750117Y7375893D01*
X4747602Y7383437D01*
X4750117Y7391339D01*
X4755327Y7396548D01*
X4763048Y7398882D01*
X4773467Y7393853D01*
X4783703Y7383614D01*
X4853551Y7033892D02*
G01*
X4861275Y7036587D01*
X4871514Y7036407D01*
X4879235Y7034072D01*
X4889652Y7023656D01*
X4891989Y7015932D01*
X4892166Y7005695D01*
X4889474Y6997971D01*
X4884445Y6987555D01*
X4871692Y6974804D01*
X4861275Y6969775D01*
X4853551Y6967080D01*
X4843134Y6967080D01*
X4835591Y6969594D01*
X4825174Y6980011D01*
X4822659Y6987555D01*
X4822659Y6997971D01*
X4825354Y7005695D01*
X4833076Y7013417D01*
X4845829Y7000666D02*
G01*
X4833076Y7013417D01*
X4849421Y7063887D02*
G01*
X4795359Y7009825D01*
X4849421Y7063887D02*
G01*
X4826251Y7087057D01*
X4816015Y7091906D01*
X4810805Y7092086D01*
X4803084Y7089391D01*
X4795359Y7081669D01*
X4792845Y7074126D01*
X4792845Y7068736D01*
X4797874Y7058680D01*
X4821044Y7035510D01*
X4744890Y7132137D02*
G01*
X4739863Y7121720D01*
X4739863Y7111662D01*
X4745070Y7101425D01*
X4747585Y7098911D01*
X4757823Y7093701D01*
X4768060Y7093521D01*
X4778298Y7098731D01*
X4780991Y7101425D01*
X4786200Y7111662D01*
X4786020Y7121900D01*
X4780991Y7132317D01*
X4778476Y7134832D01*
X4768060Y7139861D01*
X4758001Y7139861D01*
X4744890Y7132137D01*
X4732139Y7119386D01*
X4721903Y7103760D01*
X4719208Y7091006D01*
X4724415Y7080770D01*
X4729624Y7075561D01*
X4739863Y7070354D01*
X4747585Y7073046D01*
X4901582Y6503299D02*
G01*
X4909306Y6505991D01*
X4919545Y6505813D01*
X4927447Y6503299D01*
X4937683Y6493060D01*
X4940020Y6485338D01*
X4940198Y6475100D01*
X4937506Y6467375D01*
X4932476Y6456959D01*
X4919545Y6444028D01*
X4909126Y6438999D01*
X4901582Y6436484D01*
X4891166Y6436484D01*
X4883622Y6438999D01*
X4873386Y6449237D01*
X4870691Y6456959D01*
X4870691Y6467375D01*
X4873205Y6474919D01*
X4880930Y6482643D01*
X4893861Y6469712D02*
G01*
X4880930Y6482643D01*
X4897452Y6533291D02*
G01*
X4843391Y6479230D01*
X4897452Y6533291D02*
G01*
X4874463Y6556281D01*
X4864046Y6561310D01*
X4858837Y6561490D01*
X4851115Y6558795D01*
X4843391Y6551074D01*
X4840876Y6543530D01*
X4840876Y6538140D01*
X4846086Y6527904D01*
X4869075Y6504914D01*
X4834051Y6575859D02*
G01*
X4831717Y6583580D01*
X4831717Y6599026D01*
X4777656Y6544965D01*
X4799208Y6631536D02*
G01*
X4804237Y6621119D01*
X4801722Y6608188D01*
X4791486Y6592920D01*
X4783762Y6585198D01*
X4768316Y6574779D01*
X4755385Y6572267D01*
X4745146Y6577474D01*
X4740120Y6582503D01*
X4734910Y6592742D01*
X4737425Y6605673D01*
X4747841Y6621119D01*
X4755565Y6628841D01*
X4770831Y6639079D01*
X4783762Y6641594D01*
X4794178Y6636565D01*
X4799208Y6631536D01*
X4916098Y6249388D02*
G01*
X4924000Y6251902D01*
X4934059Y6251902D01*
X4941961Y6249388D01*
X4952199Y6239149D01*
X4954714Y6231247D01*
X4954894Y6221011D01*
X4952199Y6213287D01*
X4946990Y6203050D01*
X4934059Y6190117D01*
X4923823Y6184910D01*
X4916279Y6182395D01*
X4905862Y6182395D01*
X4898138Y6185090D01*
X4887902Y6195326D01*
X4885207Y6203050D01*
X4885387Y6213287D01*
X4887722Y6221011D01*
X4895443Y6228732D01*
X4908377Y6215801D02*
G01*
X4895443Y6228732D01*
X4912146Y6279202D02*
G01*
X4858087Y6225141D01*
X4912146Y6279202D02*
G01*
X4888979Y6302372D01*
X4878562Y6307401D01*
X4873533Y6307401D01*
X4865629Y6304887D01*
X4857907Y6297162D01*
X4855573Y6289438D01*
X4855392Y6284231D01*
X4860602Y6273993D01*
X4883769Y6250825D01*
X4848748Y6321767D02*
G01*
X4846233Y6329672D01*
X4846233Y6345118D01*
X4792172Y6291056D01*
X4818933Y6351582D02*
G01*
X4816419Y6359486D01*
X4816419Y6374932D01*
X4762357Y6320871D01*
X4916098Y5995388D02*
G01*
X4924000Y5997902D01*
X4934059Y5997902D01*
X4941961Y5995388D01*
X4952199Y5985149D01*
X4954714Y5977247D01*
X4954894Y5967011D01*
X4952199Y5959287D01*
X4946990Y5949050D01*
X4934059Y5936117D01*
X4923823Y5930910D01*
X4916279Y5928395D01*
X4905862Y5928395D01*
X4898138Y5931090D01*
X4887902Y5941326D01*
X4885207Y5949050D01*
X4885387Y5959287D01*
X4887722Y5967011D01*
X4895443Y5974732D01*
X4908377Y5961801D02*
G01*
X4895443Y5974732D01*
X4912146Y6025202D02*
G01*
X4858087Y5971141D01*
X4912146Y6025202D02*
G01*
X4888979Y6048372D01*
X4878562Y6053401D01*
X4873533Y6053401D01*
X4865629Y6050887D01*
X4857907Y6043162D01*
X4855573Y6035438D01*
X4855392Y6030231D01*
X4860602Y6019993D01*
X4883769Y5996825D01*
X4848748Y6067767D02*
G01*
X4846233Y6075672D01*
X4846233Y6091118D01*
X4792172Y6037056D01*
X4813904Y6097582D02*
G01*
X4816419Y6100097D01*
X4818933Y6108001D01*
X4818933Y6113028D01*
X4816419Y6120932D01*
X4806180Y6131168D01*
X4798278Y6133683D01*
X4793249Y6133683D01*
X4785525Y6130991D01*
X4780498Y6125961D01*
X4777803Y6118237D01*
X4775288Y6105306D01*
X4775288Y6053940D01*
X4739187Y6090041D01*
X4901582Y5741299D02*
G01*
X4909306Y5743991D01*
X4919545Y5743813D01*
X4927447Y5741299D01*
X4937683Y5731060D01*
X4940020Y5723338D01*
X4940198Y5713100D01*
X4937506Y5705375D01*
X4932476Y5694959D01*
X4919545Y5682028D01*
X4909126Y5676999D01*
X4901582Y5674484D01*
X4891166Y5674484D01*
X4883622Y5676999D01*
X4873386Y5687237D01*
X4870691Y5694959D01*
X4870691Y5705375D01*
X4873205Y5712919D01*
X4880930Y5720643D01*
X4893861Y5707712D02*
G01*
X4880930Y5720643D01*
X4897452Y5771291D02*
G01*
X4843391Y5717230D01*
X4897452Y5771291D02*
G01*
X4874463Y5794281D01*
X4864046Y5799310D01*
X4858837Y5799490D01*
X4851115Y5796795D01*
X4843391Y5789074D01*
X4840876Y5781530D01*
X4840876Y5776140D01*
X4846086Y5765904D01*
X4869075Y5742914D01*
X4834051Y5813859D02*
G01*
X4831717Y5821580D01*
X4831717Y5837026D01*
X4777656Y5782965D01*
X4809627Y5859119D02*
G01*
X4781247Y5887496D01*
X4776040Y5851395D01*
X4768316Y5859119D01*
X4760772Y5861634D01*
X4755385Y5861634D01*
X4745146Y5856424D01*
X4740120Y5851395D01*
X4734910Y5841159D01*
X4734910Y5830742D01*
X4740120Y5820503D01*
X4747841Y5812779D01*
X4758080Y5807572D01*
X4763287Y5807753D01*
X4770831Y5810267D01*
X4906162Y5233316D02*
G01*
X4913886Y5236009D01*
X4924122Y5235831D01*
X4932027Y5233316D01*
X4942263Y5223078D01*
X4944778Y5215176D01*
X4944778Y5205117D01*
X4942085Y5197396D01*
X4937056Y5186977D01*
X4924122Y5174046D01*
X4913706Y5169016D01*
X4906162Y5166502D01*
X4895926Y5166324D01*
X4888202Y5169016D01*
X4877965Y5179255D01*
X4875270Y5186977D01*
X4875270Y5197396D01*
X4877785Y5204937D01*
X4885509Y5212661D01*
X4898440Y5199730D02*
G01*
X4885509Y5212661D01*
X4902212Y5263131D02*
G01*
X4848151Y5209070D01*
X4902212Y5263131D02*
G01*
X4879042Y5286298D01*
X4868626Y5291328D01*
X4863416Y5291508D01*
X4855695Y5288813D01*
X4847970Y5281091D01*
X4845456Y5273547D01*
X4845456Y5268160D01*
X4850665Y5257921D01*
X4873833Y5234752D01*
X4838811Y5305696D02*
G01*
X4836297Y5313598D01*
X4836297Y5329044D01*
X4782235Y5274985D01*
X4793551Y5371792D02*
G01*
X4783134Y5310007D01*
X4744697Y5348442D01*
X4793551Y5371792D02*
G01*
X4739490Y5317731D01*
X4901582Y4979299D02*
G01*
X4909306Y4981991D01*
X4919545Y4981813D01*
X4927447Y4979299D01*
X4937683Y4969060D01*
X4940020Y4961338D01*
X4940198Y4951100D01*
X4937506Y4943375D01*
X4932476Y4932959D01*
X4919545Y4920028D01*
X4909126Y4914999D01*
X4901582Y4912484D01*
X4891166Y4912484D01*
X4883622Y4914999D01*
X4873386Y4925237D01*
X4870691Y4932959D01*
X4870691Y4943375D01*
X4873205Y4950919D01*
X4880930Y4958643D01*
X4893861Y4945712D02*
G01*
X4880930Y4958643D01*
X4897452Y5009291D02*
G01*
X4843391Y4955230D01*
X4897452Y5009291D02*
G01*
X4874463Y5032281D01*
X4864046Y5037310D01*
X4858837Y5037490D01*
X4851115Y5034795D01*
X4843391Y5027074D01*
X4840876Y5019530D01*
X4840876Y5014140D01*
X4846086Y5003904D01*
X4869075Y4980914D01*
X4834051Y5051859D02*
G01*
X4831717Y5059580D01*
X4831717Y5075026D01*
X4777656Y5020965D01*
X4783942Y5122801D02*
G01*
X4809627Y5097119D01*
X4788971Y5071435D01*
X4788971Y5076464D01*
X4783762Y5086703D01*
X4776040Y5094424D01*
X4765802Y5099634D01*
X4755385Y5099634D01*
X4745146Y5094424D01*
X4740120Y5089395D01*
X4734910Y5079159D01*
X4734910Y5068742D01*
X4740120Y5058503D01*
X4747841Y5050779D01*
X4758080Y5045572D01*
X4763287Y5045753D01*
X4770831Y5048267D01*
X2290739Y4979352D02*
G01*
X2298644Y4981867D01*
X2308699Y4981867D01*
X2316604Y4979352D01*
X2326840Y4969113D01*
X2329355Y4961211D01*
X2329355Y4951153D01*
X2326840Y4943251D01*
X2321631Y4933012D01*
X2308699Y4920081D01*
X2298463Y4914874D01*
X2290739Y4912537D01*
X2280503Y4912360D01*
X2272779Y4915052D01*
X2262543Y4925291D01*
X2259848Y4933012D01*
X2260028Y4943251D01*
X2262362Y4950975D01*
X2270086Y4958697D01*
X2283018Y4945766D02*
G01*
X2270086Y4958697D01*
X2286789Y5009167D02*
G01*
X2232728Y4955105D01*
X2286789Y5009167D02*
G01*
X2263620Y5032334D01*
X2253203Y5037363D01*
X2248174Y5037363D01*
X2240272Y5034848D01*
X2232548Y5027127D01*
X2230213Y5019403D01*
X2230033Y5014196D01*
X2235243Y5003957D01*
X2258410Y4980790D01*
X2223388Y5051732D02*
G01*
X2220874Y5059636D01*
X2220874Y5075082D01*
X2166813Y5021021D01*
X2165375Y5115133D02*
G01*
X2172919Y5117647D01*
X2183335Y5112618D01*
X2188545Y5107411D01*
X2193574Y5096992D01*
X2190879Y5084241D01*
X2180821Y5068796D01*
X2167890Y5055864D01*
X2154958Y5048321D01*
X2144720Y5048140D01*
X2134483Y5053350D01*
X2131788Y5056042D01*
X2126581Y5066281D01*
X2126759Y5076517D01*
X2131969Y5086756D01*
X2134483Y5089270D01*
X2144720Y5094478D01*
X2154958Y5094658D01*
X2165195Y5089448D01*
X2167890Y5086756D01*
X2173099Y5076517D01*
X2172919Y5066281D01*
X2167890Y5055864D01*
X2290739Y5233352D02*
G01*
X2298644Y5235867D01*
X2308699Y5235867D01*
X2316604Y5233352D01*
X2326840Y5223113D01*
X2329355Y5215211D01*
X2329355Y5205153D01*
X2326840Y5197251D01*
X2321631Y5187012D01*
X2308699Y5174081D01*
X2298463Y5168874D01*
X2290739Y5166537D01*
X2280503Y5166360D01*
X2272779Y5169052D01*
X2262543Y5179291D01*
X2259848Y5187012D01*
X2260028Y5197251D01*
X2262362Y5204975D01*
X2270086Y5212697D01*
X2283018Y5199766D02*
G01*
X2270086Y5212697D01*
X2286789Y5263167D02*
G01*
X2232728Y5209105D01*
X2286789Y5263167D02*
G01*
X2263620Y5286334D01*
X2253203Y5291363D01*
X2248174Y5291363D01*
X2240272Y5288848D01*
X2232548Y5281127D01*
X2230213Y5273403D01*
X2230033Y5268196D01*
X2235243Y5257957D01*
X2258410Y5234790D01*
X2223388Y5305732D02*
G01*
X2220874Y5313636D01*
X2220874Y5329082D01*
X2166813Y5275021D01*
X2167890Y5382064D02*
G01*
X2139513Y5302321D01*
X2203991Y5345963D02*
G01*
X2167890Y5382064D01*
X2290739Y5741352D02*
G01*
X2298644Y5743867D01*
X2308699Y5743867D01*
X2316604Y5741352D01*
X2326840Y5731113D01*
X2329355Y5723211D01*
X2329355Y5713153D01*
X2326840Y5705251D01*
X2321631Y5695012D01*
X2308699Y5682081D01*
X2298463Y5676874D01*
X2290739Y5674537D01*
X2280503Y5674360D01*
X2272779Y5677052D01*
X2262543Y5687291D01*
X2259848Y5695012D01*
X2260028Y5705251D01*
X2262362Y5712975D01*
X2270086Y5720697D01*
X2283018Y5707766D02*
G01*
X2270086Y5720697D01*
X2286789Y5771167D02*
G01*
X2232728Y5717105D01*
X2286789Y5771167D02*
G01*
X2263620Y5794334D01*
X2253203Y5799363D01*
X2248174Y5799363D01*
X2240272Y5796848D01*
X2232548Y5789127D01*
X2230213Y5781403D01*
X2230033Y5776196D01*
X2235243Y5765957D01*
X2258410Y5742790D01*
X2223388Y5813732D02*
G01*
X2220874Y5821636D01*
X2220874Y5837082D01*
X2166813Y5783021D01*
X2191059Y5866897D02*
G01*
X2196089Y5856478D01*
X2193574Y5848936D01*
X2188364Y5843727D01*
X2180643Y5841032D01*
X2172919Y5843727D01*
X2160168Y5851448D01*
X2149749Y5856478D01*
X2139693Y5856478D01*
X2131788Y5853963D01*
X2124067Y5846241D01*
X2121730Y5838517D01*
X2121552Y5833310D01*
X2126759Y5823071D01*
X2136998Y5812835D01*
X2147234Y5807626D01*
X2152444Y5807806D01*
X2160168Y5810140D01*
X2167890Y5817864D01*
X2170404Y5825766D01*
X2170404Y5835825D01*
X2165375Y5846241D01*
X2157473Y5859172D01*
X2154958Y5866716D01*
X2157653Y5874438D01*
X2162860Y5879647D01*
X2170404Y5882162D01*
X2180821Y5877133D01*
X2191059Y5866897D01*
X2290739Y5995352D02*
G01*
X2298644Y5997867D01*
X2308699Y5997867D01*
X2316604Y5995352D01*
X2326840Y5985113D01*
X2329355Y5977211D01*
X2329355Y5967153D01*
X2326840Y5959251D01*
X2321631Y5949012D01*
X2308699Y5936081D01*
X2298463Y5930874D01*
X2290739Y5928537D01*
X2280503Y5928360D01*
X2272779Y5931052D01*
X2262543Y5941291D01*
X2259848Y5949012D01*
X2260028Y5959251D01*
X2262362Y5966975D01*
X2270086Y5974697D01*
X2283018Y5961766D02*
G01*
X2270086Y5974697D01*
X2286789Y6025167D02*
G01*
X2232728Y5971105D01*
X2286789Y6025167D02*
G01*
X2263620Y6048334D01*
X2253203Y6053363D01*
X2248174Y6053363D01*
X2240272Y6050848D01*
X2232548Y6043127D01*
X2230213Y6035403D01*
X2230033Y6030196D01*
X2235243Y6019957D01*
X2258410Y5996790D01*
X2223388Y6067732D02*
G01*
X2220874Y6075636D01*
X2220874Y6091082D01*
X2166813Y6037021D01*
X2152444Y6123231D02*
G01*
X2147234Y6112992D01*
X2147234Y6102936D01*
X2152263Y6092517D01*
X2154958Y6089825D01*
X2165375Y6084796D01*
X2175433Y6084796D01*
X2185850Y6089825D01*
X2188545Y6092517D01*
X2193574Y6102936D01*
X2193574Y6112992D01*
X2188545Y6123411D01*
X2185850Y6126104D01*
X2175433Y6131133D01*
X2165375Y6131133D01*
X2152444Y6123231D01*
X2139693Y6110478D01*
X2129274Y6095032D01*
X2126581Y6082281D01*
X2131788Y6072042D01*
X2136998Y6066835D01*
X2147234Y6061626D01*
X2154958Y6064321D01*
X2290739Y6249352D02*
G01*
X2298644Y6251867D01*
X2308699Y6251867D01*
X2316604Y6249352D01*
X2326840Y6239113D01*
X2329355Y6231211D01*
X2329355Y6221153D01*
X2326840Y6213251D01*
X2321631Y6203012D01*
X2308699Y6190081D01*
X2298463Y6184874D01*
X2290739Y6182537D01*
X2280503Y6182360D01*
X2272779Y6185052D01*
X2262543Y6195291D01*
X2259848Y6203012D01*
X2260028Y6213251D01*
X2262362Y6220975D01*
X2270086Y6228697D01*
X2283018Y6215766D02*
G01*
X2270086Y6228697D01*
X2286789Y6279167D02*
G01*
X2232728Y6225105D01*
X2286789Y6279167D02*
G01*
X2263620Y6302334D01*
X2253203Y6307363D01*
X2248174Y6307363D01*
X2240272Y6304848D01*
X2232548Y6297127D01*
X2230213Y6289403D01*
X2230033Y6284196D01*
X2235243Y6273957D01*
X2258410Y6250790D01*
X2218179Y6321912D02*
G01*
X2220694Y6324427D01*
X2223388Y6332148D01*
X2223388Y6337178D01*
X2220874Y6345082D01*
X2210635Y6355318D01*
X2202733Y6357833D01*
X2197704Y6357833D01*
X2189982Y6355138D01*
X2184953Y6350111D01*
X2182258Y6342387D01*
X2179744Y6329456D01*
X2179744Y6278090D01*
X2143643Y6314188D01*
X2165375Y6400579D02*
G01*
X2170404Y6390162D01*
X2167709Y6377411D01*
X2157653Y6361963D01*
X2149929Y6354241D01*
X2134303Y6344003D01*
X2121552Y6341310D01*
X2111314Y6346517D01*
X2106107Y6351727D01*
X2100897Y6361963D01*
X2103592Y6374716D01*
X2113828Y6390342D01*
X2121552Y6398064D01*
X2136998Y6408122D01*
X2149749Y6410817D01*
X2160168Y6405788D01*
X2165375Y6400579D01*
X2290739Y6502336D02*
G01*
X2298644Y6504851D01*
X2308699Y6504851D01*
X2316604Y6502336D01*
X2326840Y6492097D01*
X2329355Y6484195D01*
X2329355Y6474137D01*
X2326840Y6466235D01*
X2321631Y6455996D01*
X2308699Y6443065D01*
X2298463Y6437858D01*
X2290739Y6435521D01*
X2280503Y6435344D01*
X2272779Y6438036D01*
X2262543Y6448275D01*
X2259848Y6455996D01*
X2260028Y6466235D01*
X2262362Y6473959D01*
X2270086Y6481681D01*
X2283018Y6468750D02*
G01*
X2270086Y6481681D01*
X2286789Y6532151D02*
G01*
X2232728Y6478089D01*
X2286789Y6532151D02*
G01*
X2263620Y6555318D01*
X2253203Y6560347D01*
X2248174Y6560347D01*
X2240272Y6557832D01*
X2232548Y6550111D01*
X2230213Y6542387D01*
X2230033Y6537180D01*
X2235243Y6526941D01*
X2258410Y6503774D01*
X2218179Y6574896D02*
G01*
X2220694Y6577411D01*
X2223388Y6585132D01*
X2223388Y6590162D01*
X2220874Y6598066D01*
X2210635Y6608302D01*
X2202733Y6610817D01*
X2197704Y6610817D01*
X2189982Y6608122D01*
X2184953Y6603095D01*
X2182258Y6595371D01*
X2179744Y6582440D01*
X2179744Y6531074D01*
X2143643Y6567172D01*
X2170404Y6627700D02*
G01*
X2167890Y6635602D01*
X2167890Y6651048D01*
X2113828Y6596987D01*
X2290739Y7011352D02*
G01*
X2298644Y7013867D01*
X2308699Y7013867D01*
X2316604Y7011352D01*
X2326840Y7001113D01*
X2329355Y6993211D01*
X2329355Y6983153D01*
X2326840Y6975251D01*
X2321631Y6965012D01*
X2308699Y6952081D01*
X2298463Y6946874D01*
X2290739Y6944537D01*
X2280503Y6944360D01*
X2272779Y6947052D01*
X2262543Y6957291D01*
X2259848Y6965012D01*
X2260028Y6975251D01*
X2262362Y6982975D01*
X2270086Y6990697D01*
X2283018Y6977766D02*
G01*
X2270086Y6990697D01*
X2286789Y7041167D02*
G01*
X2232728Y6987105D01*
X2286789Y7041167D02*
G01*
X2263620Y7064334D01*
X2253203Y7069363D01*
X2248174Y7069363D01*
X2240272Y7066848D01*
X2232548Y7059127D01*
X2230213Y7051403D01*
X2230033Y7046196D01*
X2235243Y7035957D01*
X2258410Y7012790D01*
X2218179Y7083912D02*
G01*
X2220694Y7086427D01*
X2223388Y7094148D01*
X2223388Y7099178D01*
X2220874Y7107082D01*
X2210635Y7117318D01*
X2202733Y7119833D01*
X2197704Y7119833D01*
X2189982Y7117138D01*
X2184953Y7112111D01*
X2182258Y7104387D01*
X2179744Y7091456D01*
X2179744Y7040090D01*
X2143643Y7076188D01*
X2165195Y7136897D02*
G01*
X2167709Y7139411D01*
X2170404Y7147133D01*
X2170404Y7152162D01*
X2167890Y7160064D01*
X2157653Y7170303D01*
X2149749Y7172817D01*
X2144720Y7172817D01*
X2136998Y7170122D01*
X2131969Y7165093D01*
X2129274Y7157372D01*
X2126759Y7144438D01*
X2126759Y7093071D01*
X2090661Y7129172D01*
X2325029Y7262309D02*
G01*
X2270968Y7208248D01*
X2325029Y7262309D02*
G01*
X2301859Y7285479D01*
X2291443Y7290508D01*
X2286414Y7290508D01*
X2278692Y7287813D01*
X2273663Y7282784D01*
X2270968Y7275062D01*
X2270968Y7270033D01*
X2275997Y7259617D01*
X2299167Y7236447D01*
X2281207Y7254407D02*
G01*
X2235047Y7244171D01*
X2272045Y7315293D02*
G01*
X2233432Y7276678D01*
X2223193Y7271471D01*
X2212776Y7271471D01*
X2202538Y7276678D01*
X2197508Y7281707D01*
X2192301Y7291946D01*
X2192301Y7302362D01*
X2197508Y7312599D01*
X2236124Y7351214D01*
X2219063Y7368278D02*
G01*
X2165002Y7314217D01*
X2219063Y7368278D02*
G01*
X2129081Y7350137D01*
X2183142Y7404199D02*
G01*
X2129081Y7350137D01*
X2290739Y7519352D02*
G01*
X2298644Y7521867D01*
X2308699Y7521867D01*
X2316604Y7519352D01*
X2326840Y7509113D01*
X2329355Y7501211D01*
X2329355Y7491153D01*
X2326840Y7483251D01*
X2321631Y7473012D01*
X2308699Y7460081D01*
X2298463Y7454874D01*
X2290739Y7452537D01*
X2280503Y7452360D01*
X2272779Y7455052D01*
X2262543Y7465291D01*
X2259848Y7473012D01*
X2260028Y7483251D01*
X2262362Y7490975D01*
X2270086Y7498697D01*
X2283018Y7485766D02*
G01*
X2270086Y7498697D01*
X2286789Y7549167D02*
G01*
X2232728Y7495105D01*
X2286789Y7549167D02*
G01*
X2263620Y7572334D01*
X2253203Y7577363D01*
X2248174Y7577363D01*
X2240272Y7574848D01*
X2232548Y7567127D01*
X2230213Y7559403D01*
X2230033Y7554196D01*
X2235243Y7543957D01*
X2258410Y7520790D01*
X2218179Y7591912D02*
G01*
X2220694Y7594427D01*
X2223388Y7602148D01*
X2223388Y7607178D01*
X2220874Y7615082D01*
X2210635Y7625318D01*
X2202733Y7627833D01*
X2197704Y7627833D01*
X2189982Y7625138D01*
X2184953Y7620111D01*
X2182258Y7612387D01*
X2179744Y7599456D01*
X2179744Y7548090D01*
X2143643Y7584188D01*
X2142208Y7678303D02*
G01*
X2149749Y7680817D01*
X2160168Y7675788D01*
X2165375Y7670579D01*
X2170404Y7660162D01*
X2167709Y7647411D01*
X2157653Y7631963D01*
X2144720Y7619032D01*
X2131788Y7611488D01*
X2121552Y7611310D01*
X2111314Y7616517D01*
X2108799Y7619032D01*
X2103592Y7629270D01*
X2103592Y7639687D01*
X2108799Y7649923D01*
X2111314Y7652438D01*
X2121552Y7657647D01*
X2131969Y7657647D01*
X2142208Y7652438D01*
X2144720Y7649923D01*
X2149929Y7639687D01*
X2149749Y7629448D01*
X2144720Y7619032D01*
X2290739Y7772336D02*
G01*
X2298644Y7774851D01*
X2308699Y7774851D01*
X2316604Y7772336D01*
X2326840Y7762097D01*
X2329355Y7754195D01*
X2329355Y7744137D01*
X2326840Y7736235D01*
X2321631Y7725996D01*
X2308699Y7713065D01*
X2298463Y7707858D01*
X2290739Y7705521D01*
X2280503Y7705344D01*
X2272779Y7708036D01*
X2262543Y7718275D01*
X2259848Y7725996D01*
X2260028Y7736235D01*
X2262362Y7743959D01*
X2270086Y7751681D01*
X2283018Y7738750D02*
G01*
X2270086Y7751681D01*
X2286789Y7802151D02*
G01*
X2232728Y7748089D01*
X2286789Y7802151D02*
G01*
X2263620Y7825318D01*
X2253203Y7830347D01*
X2248174Y7830347D01*
X2240272Y7827832D01*
X2232548Y7820111D01*
X2230213Y7812387D01*
X2230033Y7807180D01*
X2235243Y7796941D01*
X2258410Y7773774D01*
X2218179Y7844896D02*
G01*
X2220694Y7847411D01*
X2223388Y7855132D01*
X2223388Y7860162D01*
X2220874Y7868066D01*
X2210635Y7878302D01*
X2202733Y7880817D01*
X2197704Y7880817D01*
X2189982Y7878122D01*
X2184953Y7873095D01*
X2182258Y7865371D01*
X2179744Y7852440D01*
X2179744Y7801074D01*
X2143643Y7837172D01*
X2144720Y7944218D02*
G01*
X2116523Y7864294D01*
X2180821Y7908117D02*
G01*
X2144720Y7944218D01*
X2290739Y8306752D02*
G01*
X2298644Y8309267D01*
X2308699Y8309267D01*
X2316604Y8306752D01*
X2326840Y8296513D01*
X2329355Y8288611D01*
X2329355Y8278553D01*
X2326840Y8270651D01*
X2321631Y8260412D01*
X2308699Y8247481D01*
X2298463Y8242274D01*
X2290739Y8239937D01*
X2280503Y8239760D01*
X2272779Y8242452D01*
X2262543Y8252691D01*
X2259848Y8260412D01*
X2260028Y8270651D01*
X2262362Y8278375D01*
X2270086Y8286097D01*
X2283018Y8273166D02*
G01*
X2270086Y8286097D01*
X2286789Y8336567D02*
G01*
X2232728Y8282505D01*
X2286789Y8336567D02*
G01*
X2263620Y8359734D01*
X2253203Y8364763D01*
X2248174Y8364763D01*
X2240272Y8362248D01*
X2232548Y8354527D01*
X2230213Y8346803D01*
X2230033Y8341596D01*
X2235243Y8331357D01*
X2258410Y8308190D01*
X2218179Y8379312D02*
G01*
X2220694Y8381827D01*
X2223388Y8389548D01*
X2223388Y8394578D01*
X2220874Y8402482D01*
X2210635Y8412718D01*
X2202733Y8415233D01*
X2197704Y8415233D01*
X2189982Y8412538D01*
X2184953Y8407511D01*
X2182258Y8399787D01*
X2179744Y8386856D01*
X2179744Y8335490D01*
X2143643Y8371588D01*
X2167890Y8455464D02*
G01*
X2172919Y8445047D01*
X2170404Y8437504D01*
X2165195Y8432297D01*
X2157473Y8429602D01*
X2149929Y8432116D01*
X2136998Y8440018D01*
X2126581Y8445047D01*
X2116523Y8445047D01*
X2108621Y8442533D01*
X2100897Y8434811D01*
X2098563Y8427087D01*
X2098382Y8421878D01*
X2103592Y8411641D01*
X2113828Y8401403D01*
X2124067Y8396196D01*
X2129274Y8396373D01*
X2136998Y8398710D01*
X2144720Y8406432D01*
X2147234Y8414336D01*
X2147234Y8424392D01*
X2142208Y8434811D01*
X2134483Y8447562D01*
X2131788Y8455286D01*
X2134483Y8463008D01*
X2139693Y8468217D01*
X2147234Y8470732D01*
X2157653Y8465703D01*
X2167890Y8455464D01*
X2317399Y8546627D02*
G01*
X2284171Y8472091D01*
X2317399Y8546627D02*
G01*
X2243043Y8513221D01*
X2294409Y8497775D02*
G01*
X2268725Y8523460D01*
X2279860Y8584166D02*
G01*
X2225979Y8530285D01*
X2279860Y8584166D02*
G01*
X2261900Y8602126D01*
X2251664Y8607333D01*
X2241425Y8607513D01*
X2233703Y8604818D01*
X2223465Y8599611D01*
X2210534Y8586680D01*
X2205324Y8576442D01*
X2202809Y8568898D01*
X2202809Y8558481D01*
X2208019Y8548245D01*
X2225979Y8530285D01*
X2175690Y8662832D02*
G01*
X2183414Y8665527D01*
X2193650Y8665347D01*
X2201194Y8662832D01*
X2211433Y8652596D01*
X2214125Y8644872D01*
X2214305Y8634633D01*
X2211611Y8626911D01*
X2206404Y8616673D01*
X2193472Y8603742D01*
X2183234Y8598535D01*
X2175690Y8596020D01*
X2165273Y8596020D01*
X2157549Y8598712D01*
X2147313Y8608951D01*
X2144798Y8616495D01*
X2144798Y8626911D01*
X2147313Y8634455D01*
X2099538Y8620805D02*
G01*
X2053201Y8667142D01*
X2108159Y8755867D02*
G01*
X2033623Y8722641D01*
X2067029Y8796997D02*
G01*
X2033623Y8722641D01*
X2049967Y8814059D02*
G01*
X1996086Y8760178D01*
X2049967Y8814059D02*
G01*
X2026798Y8837228D01*
X2016561Y8842438D01*
X2011532Y8842438D01*
X2003808Y8839743D01*
X1998779Y8834714D01*
X1996086Y8826992D01*
X1996086Y8821963D01*
X2001113Y8811544D01*
X2024283Y8788377D01*
X2006323Y8806337D02*
G01*
X1960163Y8796098D01*
X1996983Y8867043D02*
G01*
X1943102Y8813162D01*
X1996983Y8867043D02*
G01*
X1963577Y8900449D01*
X1971299Y8841359D02*
G01*
X1950824Y8861833D01*
X1943102Y8813162D02*
G01*
X1909696Y8846568D01*
X1946694Y8917332D02*
G01*
X1892813Y8863451D01*
X1946694Y8917332D02*
G01*
X1913288Y8950739D01*
X1921009Y8891648D02*
G01*
X1900356Y8912303D01*
X2329840Y8784318D02*
G01*
X2301460Y8812695D01*
X2296431Y8776774D01*
X2288710Y8784498D01*
X2280986Y8786832D01*
X2275779Y8787013D01*
X2265540Y8781803D01*
X2260333Y8776596D01*
X2255123Y8766357D01*
X2255304Y8756121D01*
X2260333Y8745702D01*
X2268054Y8737980D01*
X2278471Y8732951D01*
X2283500Y8732951D01*
X2291224Y8735646D01*
X2282065Y8832093D02*
G01*
X2207348Y8798687D01*
X2240754Y8873403D02*
G01*
X2207348Y8798687D01*
X2218664Y8895494D02*
G01*
X2190465Y8923693D01*
X2185436Y8887769D01*
X2177714Y8895494D01*
X2169810Y8898008D01*
X2164781Y8898008D01*
X2154364Y8892979D01*
X2149157Y8887769D01*
X2144128Y8877353D01*
X2144128Y8867294D01*
X2149157Y8856878D01*
X2156879Y8849156D01*
X2167295Y8844127D01*
X2172505Y8843947D01*
X2180229Y8846642D01*
X2317686Y9046491D02*
G01*
X2289489Y9074691D01*
X2284280Y9038589D01*
X2276558Y9046314D01*
X2268834Y9049006D01*
X2263805Y9049006D01*
X2253388Y9043977D01*
X2248179Y9038770D01*
X2243152Y9028353D01*
X2243152Y9018295D01*
X2248179Y9007878D01*
X2255903Y9000154D01*
X2266320Y8995125D01*
X2271349Y8995125D01*
X2279251Y8997640D01*
X2269911Y9094266D02*
G01*
X2195197Y9060860D01*
X2228783Y9135397D02*
G01*
X2195197Y9060860D01*
X2206691Y9157489D02*
G01*
X2178314Y9185866D01*
X2173104Y9149765D01*
X2165383Y9157489D01*
X2157658Y9160182D01*
X2152629Y9160182D01*
X2142393Y9154975D01*
X2137183Y9149765D01*
X2131976Y9139529D01*
X2132154Y9129290D01*
X2137183Y9118874D01*
X2144908Y9111150D01*
X2155324Y9106120D01*
X2160353Y9106120D01*
X2168075Y9108815D01*
X2086716Y9133420D02*
G01*
X2040557Y9179580D01*
X2095515Y9268665D02*
G01*
X2041453Y9214604D01*
X2095515Y9268665D02*
G01*
X2062109Y9302071D01*
X2069833Y9242981D02*
G01*
X2049358Y9263456D01*
X2041453Y9214604D02*
G01*
X2008047Y9248010D01*
X2045047Y9319133D02*
G01*
X1990986Y9265071D01*
X2045047Y9319133D02*
G01*
X1955065Y9300992D01*
X2009127Y9355053D02*
G01*
X1955065Y9300992D01*
X2327429Y9525571D02*
G01*
X2253073Y9492165D01*
X2286299Y9566701D02*
G01*
X2253073Y9492165D01*
X2225774Y9612139D02*
G01*
X2236010Y9611961D01*
X2246249Y9606752D01*
X2256485Y9596516D01*
X2261694Y9586277D01*
X2261875Y9576041D01*
X2256665Y9570831D01*
X2248943Y9568136D01*
X2243734Y9568317D01*
X2236190Y9570831D01*
X2215535Y9581070D01*
X2207813Y9583762D01*
X2202604Y9583582D01*
X2194882Y9581248D01*
X2187158Y9573526D01*
X2187158Y9563107D01*
X2192367Y9552871D01*
X2202604Y9542632D01*
X2212842Y9537425D01*
X2223259Y9537425D01*
X2216434Y9636566D02*
G01*
X2170097Y9631537D01*
X2141898Y9603341D01*
X2175304Y9677697D02*
G01*
X2170097Y9631537D01*
X2114778Y9723137D02*
G01*
X2125014Y9722957D01*
X2135073Y9717928D01*
X2145489Y9707511D01*
X2150699Y9697272D01*
X2150699Y9687217D01*
X2145489Y9682007D01*
X2137768Y9679312D01*
X2132738Y9679312D01*
X2125014Y9682007D01*
X2104362Y9692243D01*
X2096818Y9694758D01*
X2091428Y9694758D01*
X2083887Y9692243D01*
X2076162Y9684522D01*
X2076162Y9674105D01*
X2081192Y9664047D01*
X2091608Y9653630D01*
X2101847Y9648421D01*
X2112083Y9648601D01*
X2317567Y9786581D02*
G01*
X2243030Y9752995D01*
X2276436Y9827712D02*
G01*
X2243030Y9752995D01*
X2259553Y9844592D02*
G01*
X2205492Y9790534D01*
X2259553Y9844592D02*
G01*
X2236386Y9867762D01*
X2226147Y9872972D01*
X2220760Y9872972D01*
X2213216Y9870457D01*
X2208006Y9865248D01*
X2205492Y9857704D01*
X2205492Y9852317D01*
X2210701Y9842080D01*
X2233871Y9818911D02*
G01*
X2210701Y9842080D01*
X2200462Y9847287D01*
X2195075Y9847287D01*
X2187531Y9844773D01*
X2179810Y9837051D01*
X2177115Y9829327D01*
X2177295Y9824118D01*
X2182324Y9813701D01*
X2205492Y9790534D01*
X2206571Y9897577D02*
G01*
X2167956Y9858961D01*
X2157539Y9853932D01*
X2147481Y9853932D01*
X2137064Y9858961D01*
X2131855Y9864171D01*
X2126825Y9874587D01*
X2126645Y9884826D01*
X2131855Y9895062D01*
X2170470Y9933678D01*
X2109764Y9978938D02*
G01*
X2120181Y9978938D01*
X2130417Y9973729D01*
X2140656Y9963492D01*
X2145863Y9953254D01*
X2145863Y9942837D01*
X2140656Y9937630D01*
X2132931Y9935293D01*
X2127902Y9935293D01*
X2120000Y9937808D01*
X2099525Y9948227D01*
X2091801Y9950561D01*
X2086594Y9950739D01*
X2078870Y9948047D01*
X2071149Y9940323D01*
X2071326Y9930086D01*
X2076356Y9919670D01*
X2086594Y9909431D01*
X2097011Y9904402D01*
X2107250Y9904221D01*
X4853571Y9319887D02*
G01*
X4861293Y9322579D01*
X4871532Y9322401D01*
X4879253Y9320065D01*
X4889670Y9309648D01*
X4892006Y9301924D01*
X4892184Y9291688D01*
X4889492Y9283964D01*
X4884463Y9273547D01*
X4871532Y9260616D01*
X4861112Y9255587D01*
X4853571Y9253072D01*
X4843152Y9253072D01*
X4835608Y9255587D01*
X4825192Y9266003D01*
X4822677Y9273547D01*
X4822677Y9283964D01*
X4825192Y9291507D01*
X4832916Y9299232D01*
X4845667Y9286478D02*
G01*
X4832916Y9299232D01*
X4849439Y9349879D02*
G01*
X4795377Y9295818D01*
X4849439Y9349879D02*
G01*
X4759457Y9331739D01*
X4813518Y9385800D02*
G01*
X4759457Y9331739D01*
X4796457Y9402864D02*
G01*
X4742395Y9348802D01*
X4796457Y9402864D02*
G01*
X4778494Y9420824D01*
X4768077Y9425853D01*
X4758019Y9425853D01*
X4750117Y9423339D01*
X4739881Y9418129D01*
X4726950Y9405198D01*
X4721740Y9394962D01*
X4719406Y9387238D01*
X4719226Y9377001D01*
X4724435Y9366763D01*
X4742395Y9348802D01*
X4853571Y8049887D02*
G01*
X4861293Y8052579D01*
X4871532Y8052401D01*
X4879253Y8050065D01*
X4889670Y8039648D01*
X4892006Y8031924D01*
X4892184Y8021688D01*
X4889492Y8013964D01*
X4884463Y8003547D01*
X4871532Y7990616D01*
X4861112Y7985587D01*
X4853571Y7983072D01*
X4843152Y7983072D01*
X4835608Y7985587D01*
X4825192Y7996003D01*
X4822677Y8003547D01*
X4822677Y8013964D01*
X4825192Y8021507D01*
X4832916Y8029232D01*
X4845667Y8016478D02*
G01*
X4832916Y8029232D01*
X4849439Y8079879D02*
G01*
X4795377Y8025818D01*
X4849439Y8079879D02*
G01*
X4759457Y8061739D01*
X4813518Y8115800D02*
G01*
X4759457Y8061739D01*
X4796457Y8132864D02*
G01*
X4742395Y8078802D01*
X4796457Y8132864D02*
G01*
X4778494Y8150824D01*
X4768077Y8155853D01*
X4758019Y8155853D01*
X4750117Y8153339D01*
X4739881Y8148129D01*
X4726950Y8135198D01*
X4721740Y8124962D01*
X4719406Y8117238D01*
X4719226Y8107001D01*
X4724435Y8096763D01*
X4742395Y8078802D01*
X4853551Y6779892D02*
G01*
X4861275Y6782587D01*
X4871514Y6782407D01*
X4879235Y6780072D01*
X4889652Y6769656D01*
X4891989Y6761932D01*
X4892166Y6751695D01*
X4889474Y6743971D01*
X4884445Y6733555D01*
X4871692Y6720804D01*
X4861275Y6715775D01*
X4853551Y6713080D01*
X4843134Y6713080D01*
X4835591Y6715594D01*
X4825174Y6726011D01*
X4822659Y6733555D01*
X4822659Y6743971D01*
X4825354Y6751695D01*
X4833076Y6759417D01*
X4845829Y6746666D02*
G01*
X4833076Y6759417D01*
X4849421Y6809887D02*
G01*
X4795359Y6755825D01*
X4849421Y6809887D02*
G01*
X4759439Y6791746D01*
X4813500Y6845808D02*
G01*
X4759439Y6791746D01*
X4796436Y6862871D02*
G01*
X4742378Y6808810D01*
X4796436Y6862871D02*
G01*
X4778476Y6880832D01*
X4768060Y6885861D01*
X4758001Y6885861D01*
X4750099Y6883346D01*
X4739863Y6878137D01*
X4727110Y6865386D01*
X4721903Y6855147D01*
X4719388Y6847245D01*
X4719208Y6837006D01*
X4724415Y6826770D01*
X4742378Y6808810D01*
X4853551Y5509892D02*
G01*
X4861275Y5512587D01*
X4871514Y5512407D01*
X4879235Y5510072D01*
X4889652Y5499656D01*
X4891989Y5491932D01*
X4892166Y5481695D01*
X4889474Y5473971D01*
X4884445Y5463555D01*
X4871692Y5450804D01*
X4861275Y5445775D01*
X4853551Y5443080D01*
X4843134Y5443080D01*
X4835591Y5445594D01*
X4825174Y5456011D01*
X4822659Y5463555D01*
X4822659Y5473971D01*
X4825354Y5481695D01*
X4833076Y5489417D01*
X4845829Y5476666D02*
G01*
X4833076Y5489417D01*
X4849421Y5539887D02*
G01*
X4795359Y5485825D01*
X4849421Y5539887D02*
G01*
X4759439Y5521746D01*
X4813500Y5575807D02*
G01*
X4759439Y5521746D01*
X4796436Y5592871D02*
G01*
X4742378Y5538810D01*
X4796436Y5592871D02*
G01*
X4778476Y5610832D01*
X4768060Y5615861D01*
X4758001Y5615861D01*
X4750099Y5613346D01*
X4739863Y5608137D01*
X4727110Y5595386D01*
X4721903Y5585147D01*
X4719388Y5577245D01*
X4719208Y5567006D01*
X4724415Y5556770D01*
X4742378Y5538810D01*
X2293508Y5509948D02*
G01*
X2301232Y5512640D01*
X2311468Y5512462D01*
X2319373Y5509948D01*
X2329609Y5499709D01*
X2332123Y5491807D01*
X2332123Y5481749D01*
X2329609Y5473847D01*
X2324399Y5463608D01*
X2311648Y5450857D01*
X2301412Y5445648D01*
X2293508Y5443133D01*
X2283272Y5442955D01*
X2275547Y5445648D01*
X2265311Y5455886D01*
X2262616Y5463608D01*
X2262616Y5474027D01*
X2265311Y5481749D01*
X2273033Y5489473D01*
X2285964Y5476542D02*
G01*
X2273033Y5489473D01*
X2289558Y5539762D02*
G01*
X2235497Y5485701D01*
X2289558Y5539762D02*
G01*
X2199396Y5521802D01*
X2253457Y5575863D02*
G01*
X2199396Y5521802D01*
X2236574Y5592744D02*
G01*
X2182512Y5538683D01*
X2236574Y5592744D02*
G01*
X2218433Y5610885D01*
X2208016Y5615914D01*
X2197958Y5615914D01*
X2190236Y5613219D01*
X2179817Y5608190D01*
X2167067Y5595439D01*
X2162037Y5585023D01*
X2159342Y5577298D01*
X2159165Y5567062D01*
X2164372Y5556824D01*
X2182512Y5538683D01*
X2293508Y6779948D02*
G01*
X2301232Y6782640D01*
X2311468Y6782462D01*
X2319373Y6779948D01*
X2329609Y6769709D01*
X2332123Y6761807D01*
X2332123Y6751749D01*
X2329609Y6743847D01*
X2324399Y6733608D01*
X2311648Y6720857D01*
X2301412Y6715648D01*
X2293508Y6713133D01*
X2283272Y6712955D01*
X2275547Y6715648D01*
X2265311Y6725886D01*
X2262616Y6733608D01*
X2262616Y6744027D01*
X2265311Y6751749D01*
X2273033Y6759473D01*
X2285964Y6746542D02*
G01*
X2273033Y6759473D01*
X2289558Y6809762D02*
G01*
X2235497Y6755701D01*
X2289558Y6809762D02*
G01*
X2199396Y6791802D01*
X2253457Y6845863D02*
G01*
X2199396Y6791802D01*
X2236574Y6862744D02*
G01*
X2182512Y6808683D01*
X2236574Y6862744D02*
G01*
X2218433Y6880885D01*
X2208016Y6885914D01*
X2197958Y6885914D01*
X2190236Y6883219D01*
X2179817Y6878190D01*
X2167067Y6865439D01*
X2162037Y6855023D01*
X2159342Y6847298D01*
X2159165Y6837062D01*
X2164372Y6826824D01*
X2182512Y6808683D01*
X2293526Y9319940D02*
G01*
X2301250Y9322633D01*
X2311486Y9322455D01*
X2319390Y9319940D01*
X2329627Y9309701D01*
X2332141Y9301800D01*
X2332141Y9291741D01*
X2329627Y9283839D01*
X2324420Y9273600D01*
X2311486Y9260669D01*
X2301250Y9255462D01*
X2293526Y9253126D01*
X2283289Y9252948D01*
X2275565Y9255640D01*
X2265329Y9265879D01*
X2262634Y9273600D01*
X2262634Y9284020D01*
X2265149Y9291561D01*
X2272873Y9299285D01*
X2285804Y9286354D02*
G01*
X2272873Y9299285D01*
X2289576Y9349755D02*
G01*
X2235514Y9295693D01*
X2289576Y9349755D02*
G01*
X2199413Y9331794D01*
X2253475Y9385856D02*
G01*
X2199413Y9331794D01*
X2236591Y9402737D02*
G01*
X2182530Y9348675D01*
X2236591Y9402737D02*
G01*
X2218451Y9420877D01*
X2208034Y9425906D01*
X2197976Y9425906D01*
X2190254Y9423212D01*
X2179835Y9418185D01*
X2166904Y9405251D01*
X2161875Y9394835D01*
X2159360Y9387291D01*
X2159182Y9377055D01*
X2164389Y9366816D01*
X2182530Y9348675D01*
X2321631Y8022323D02*
G01*
X2288225Y7947606D01*
X2321631Y8022323D02*
G01*
X2247097Y7988736D01*
X2298463Y7973291D02*
G01*
X2272779Y7998975D01*
X2232728Y8085363D02*
G01*
X2240450Y8088058D01*
X2250688Y8087878D01*
X2258410Y8085543D01*
X2268649Y8075307D01*
X2271163Y8067403D01*
X2271341Y8057167D01*
X2268649Y8049442D01*
X2263439Y8039206D01*
X2250508Y8026275D01*
X2240272Y8021065D01*
X2232728Y8018551D01*
X2222309Y8018551D01*
X2214587Y8021246D01*
X2204349Y8031482D01*
X2201834Y8039026D01*
X2201834Y8049442D01*
X2204349Y8056986D01*
X2212073Y8064710D01*
X2224824Y8051957D02*
G01*
X2212073Y8064710D01*
X2228595Y8115358D02*
G01*
X2174534Y8061297D01*
X2228595Y8115358D02*
G01*
X2138613Y8097217D01*
X2192675Y8151279D02*
G01*
X2138613Y8097217D01*
X2175614Y8168342D02*
G01*
X2121552Y8114281D01*
X2175614Y8168342D02*
G01*
X2157653Y8186303D01*
X2147234Y8191332D01*
X2136998Y8191510D01*
X2129274Y8188817D01*
X2119038Y8183608D01*
X2106107Y8170677D01*
X2100897Y8160438D01*
X2098382Y8152897D01*
X2098382Y8142478D01*
X2103592Y8132241D01*
X2121552Y8114281D01*
X4179196Y4849840D02*
G01*
X4186308Y4857206D01*
X4197230Y4860762D01*
X4211708Y4860762D01*
X4222630Y4857206D01*
X4229996Y4849840D01*
X4229996Y4842474D01*
X4226440Y4835362D01*
X4222630Y4831552D01*
X4215518Y4827996D01*
X4193674Y4820630D01*
X4186308Y4817074D01*
X4182752Y4813518D01*
X4179196Y4806152D01*
X4179196Y4795230D01*
X4186308Y4788118D01*
X4197230Y4784308D01*
X4211708Y4784308D01*
X4222630Y4788118D01*
X4229996Y4795230D01*
X4155066Y4860762D02*
G01*
X4136778Y4784308D01*
X4118744Y4860762D02*
G01*
X4136778Y4784308D01*
X4118744Y4860762D02*
G01*
X4100456Y4784308D01*
X4082422Y4860762D02*
G01*
X4100456Y4784308D01*
X4003682Y4842474D02*
G01*
X4007492Y4849840D01*
X4014604Y4857206D01*
X4021970Y4860762D01*
X4036448Y4860762D01*
X4043814Y4857206D01*
X4051180Y4849840D01*
X4054736Y4842474D01*
X4058292Y4831552D01*
X4058292Y4813518D01*
X4054736Y4802596D01*
X4051180Y4795230D01*
X4043814Y4788118D01*
X4036448Y4784308D01*
X4021970Y4784308D01*
X4014604Y4788118D01*
X4007492Y4795230D01*
X4003682Y4802596D01*
X3979806Y4860762D02*
G01*
X3979806Y4784308D01*
X3979806Y4784308D02*
G01*
X3936118Y4784308D01*
X3912242Y4860762D02*
G01*
X3912242Y4784308D01*
X3861188Y4860762D02*
G01*
X3912242Y4809962D01*
X3893954Y4827996D02*
G01*
X3861188Y4784308D01*
X3049150Y4849840D02*
G01*
X3056262Y4857206D01*
X3067184Y4860762D01*
X3081916Y4860762D01*
X3092838Y4857206D01*
X3099950Y4849840D01*
X3099950Y4842474D01*
X3096394Y4835362D01*
X3092838Y4831552D01*
X3085472Y4827996D01*
X3063628Y4820630D01*
X3056262Y4817074D01*
X3052706Y4813518D01*
X3049150Y4806152D01*
X3049150Y4795230D01*
X3056262Y4788118D01*
X3067184Y4784308D01*
X3081916Y4784308D01*
X3092838Y4788118D01*
X3099950Y4795230D01*
X3025020Y4860762D02*
G01*
X3006986Y4784308D01*
X2988698Y4860762D02*
G01*
X3006986Y4784308D01*
X2988698Y4860762D02*
G01*
X2970410Y4784308D01*
X2952376Y4860762D02*
G01*
X2970410Y4784308D01*
X2928246Y4860762D02*
G01*
X2928246Y4784308D01*
X2928246Y4860762D02*
G01*
X2902846Y4860762D01*
X2891924Y4857206D01*
X2884812Y4849840D01*
X2881002Y4842474D01*
X2877446Y4831552D01*
X2877446Y4813518D01*
X2881002Y4802596D01*
X2884812Y4795230D01*
X2891924Y4788118D01*
X2902846Y4784308D01*
X2928246Y4784308D01*
X2853316Y4860762D02*
G01*
X2853316Y4784308D01*
X2807596Y4860762D02*
G01*
X2814962Y4857206D01*
X2822074Y4849840D01*
X2825884Y4842474D01*
X2829440Y4831552D01*
X2829440Y4813518D01*
X2825884Y4802596D01*
X2822074Y4795230D01*
X2814962Y4788118D01*
X2807596Y4784308D01*
X2793118Y4784308D01*
X2785752Y4788118D01*
X2778386Y4795230D01*
X2774830Y4802596D01*
X2771274Y4813518D01*
X2771274Y4831552D01*
X2774830Y4842474D01*
X2778386Y4849840D01*
X2785752Y4857206D01*
X2793118Y4860762D01*
X2807596Y4860762D01*
D20*
X4550011Y9919985D02*
G01*
X4550011Y9949982D01*
X2449990Y9949982D01*
X2449990Y9919985D01*
X3389993Y4849992D02*
G01*
X3349988Y4849992D01*
X3650013Y4849992D02*
G01*
X3610008Y4849992D01*
X2449990Y4849992D02*
G01*
X3129998Y4849992D01*
X2449990Y5889995D02*
G01*
X2449990Y5849990D01*
X2449990Y6659996D02*
G01*
X2449990Y6619991D01*
X2449990Y9199996D02*
G01*
X2449990Y9159991D01*
X2449990Y7670002D02*
G01*
X2449990Y7629997D01*
X2449990Y6150015D02*
G01*
X2449990Y6110010D01*
X2449990Y8180009D02*
G01*
X2449990Y8140004D01*
X2449990Y8689990D02*
G01*
X2449990Y8650010D01*
X2449990Y7419990D02*
G01*
X2449990Y7380010D01*
X2449990Y6910009D02*
G01*
X2449990Y6870004D01*
X2449990Y5389996D02*
G01*
X2449990Y5349991D01*
X2449990Y5130002D02*
G01*
X2449990Y5089997D01*
X2449990Y5640009D02*
G01*
X2449990Y5600004D01*
X2449990Y8940002D02*
G01*
X2449990Y8899997D01*
X2449990Y9710003D02*
G01*
X2449990Y9669998D01*
X2449990Y9450009D02*
G01*
X2449990Y9410004D01*
X2449990Y6400002D02*
G01*
X2449990Y6359997D01*
X2449990Y7170003D02*
G01*
X2449990Y7129998D01*
X2449990Y7929996D02*
G01*
X2449990Y7889991D01*
X2449990Y8440003D02*
G01*
X2449990Y8399998D01*
X4550011Y5130002D02*
G01*
X4550011Y5089997D01*
X4550011Y5389996D02*
G01*
X4550011Y5349991D01*
X4550011Y5640009D02*
G01*
X4550011Y5600004D01*
X4550011Y5889995D02*
G01*
X4550011Y5849990D01*
X4550011Y6150015D02*
G01*
X4550011Y6110010D01*
X4550011Y6400002D02*
G01*
X4550011Y6359997D01*
X4550011Y6659996D02*
G01*
X4550011Y6619991D01*
X4550011Y6910009D02*
G01*
X4550011Y6870004D01*
X4550011Y7170003D02*
G01*
X4550011Y7129998D01*
X4550011Y7419990D02*
G01*
X4550011Y7380010D01*
X4550011Y7670002D02*
G01*
X4550011Y7629997D01*
X4550011Y7929996D02*
G01*
X4550011Y7889991D01*
X4550011Y8180009D02*
G01*
X4550011Y8140004D01*
X4550011Y8440003D02*
G01*
X4550011Y8399998D01*
X4550011Y8689990D02*
G01*
X4550011Y8650010D01*
X4550011Y8940002D02*
G01*
X4550011Y8899997D01*
X4550011Y9199996D02*
G01*
X4550011Y9159991D01*
X4550011Y9450009D02*
G01*
X4550011Y9410004D01*
X4550011Y9710003D02*
G01*
X4550011Y9669998D01*
X4550011Y9683308D02*
G01*
X4249300Y9683308D01*
X4249300Y9949982D01*
X3870002Y4849992D02*
G01*
X4550011Y4849992D01*
M02*
