G04 Layer: BottomPasteMaskLayer*
G04 EasyEDA v6.5.1, 2022-08-10 00:04:10*
G04 a67cddfb3fce44daa9051d46cbbcc19f,10*
G04 Gerber Generator version 0.2*
G04 Scale: 100 percent, Rotated: No, Reflected: No *
G04 Dimensions in millimeters *
G04 leading zeros omitted , absolute positions ,4 integer and 5 decimal *
%FSLAX45Y45*%
%MOMM*%

%ADD10C,0.0001*%

%LPD*%
G36*
X3331001Y4784219D02*
G01*
X3331001Y5134206D01*
X3160999Y5134206D01*
X3160999Y4784219D01*
G37*
G36*
X4614793Y9898001D02*
G01*
X4264807Y9898001D01*
X4264807Y9727999D01*
X4614793Y9727999D01*
G37*
G36*
X4614793Y9644001D02*
G01*
X4264807Y9644001D01*
X4264807Y9473999D01*
X4614793Y9473999D01*
G37*
G36*
X4614793Y9390001D02*
G01*
X4264807Y9390001D01*
X4264807Y9219999D01*
X4614793Y9219999D01*
G37*
G36*
X4614793Y9136001D02*
G01*
X4264807Y9136001D01*
X4264807Y8965999D01*
X4614793Y8965999D01*
G37*
G36*
X4614793Y8882001D02*
G01*
X4264807Y8882001D01*
X4264807Y8711999D01*
X4614793Y8711999D01*
G37*
G36*
X4614793Y8628001D02*
G01*
X4264807Y8628001D01*
X4264807Y8457999D01*
X4614793Y8457999D01*
G37*
G36*
X4614793Y8374001D02*
G01*
X4264807Y8374001D01*
X4264807Y8203999D01*
X4614793Y8203999D01*
G37*
G36*
X4614793Y8120001D02*
G01*
X4264807Y8120001D01*
X4264807Y7949999D01*
X4614793Y7949999D01*
G37*
G36*
X4614793Y7866001D02*
G01*
X4264807Y7866001D01*
X4264807Y7695999D01*
X4614793Y7695999D01*
G37*
G36*
X4614793Y7612001D02*
G01*
X4264807Y7612001D01*
X4264807Y7441999D01*
X4614793Y7441999D01*
G37*
G36*
X4614793Y7358001D02*
G01*
X4264807Y7358001D01*
X4264807Y7187999D01*
X4614793Y7187999D01*
G37*
G36*
X4614793Y7104001D02*
G01*
X4264807Y7104001D01*
X4264807Y6933999D01*
X4614793Y6933999D01*
G37*
G36*
X4614793Y6850001D02*
G01*
X4264807Y6850001D01*
X4264807Y6679999D01*
X4614793Y6679999D01*
G37*
G36*
X4614793Y6596001D02*
G01*
X4264807Y6596001D01*
X4264807Y6425999D01*
X4614793Y6425999D01*
G37*
G36*
X4614793Y6342001D02*
G01*
X4264807Y6342001D01*
X4264807Y6171999D01*
X4614793Y6171999D01*
G37*
G36*
X4614793Y6088001D02*
G01*
X4264807Y6088001D01*
X4264807Y5917999D01*
X4614793Y5917999D01*
G37*
G36*
X4614793Y5834001D02*
G01*
X4264807Y5834001D01*
X4264807Y5663999D01*
X4614793Y5663999D01*
G37*
G36*
X4614793Y5580001D02*
G01*
X4264807Y5580001D01*
X4264807Y5409999D01*
X4614793Y5409999D01*
G37*
G36*
X4614793Y5326001D02*
G01*
X4264807Y5326001D01*
X4264807Y5155999D01*
X4614793Y5155999D01*
G37*
G36*
X4614793Y5072001D02*
G01*
X4264807Y5072001D01*
X4264807Y4901999D01*
X4614793Y4901999D01*
G37*
G36*
X2735193Y9898001D02*
G01*
X2385207Y9898001D01*
X2385207Y9727999D01*
X2735193Y9727999D01*
G37*
G36*
X2735193Y9644001D02*
G01*
X2385207Y9644001D01*
X2385207Y9473999D01*
X2735193Y9473999D01*
G37*
G36*
X2735193Y9390001D02*
G01*
X2385207Y9390001D01*
X2385207Y9219999D01*
X2735193Y9219999D01*
G37*
G36*
X2735193Y9136001D02*
G01*
X2385207Y9136001D01*
X2385207Y8965999D01*
X2735193Y8965999D01*
G37*
G36*
X2735193Y8882001D02*
G01*
X2385207Y8882001D01*
X2385207Y8711999D01*
X2735193Y8711999D01*
G37*
G36*
X2735193Y8628001D02*
G01*
X2385207Y8628001D01*
X2385207Y8457999D01*
X2735193Y8457999D01*
G37*
G36*
X2735193Y8374001D02*
G01*
X2385207Y8374001D01*
X2385207Y8203999D01*
X2735193Y8203999D01*
G37*
G36*
X2735193Y8120001D02*
G01*
X2385207Y8120001D01*
X2385207Y7949999D01*
X2735193Y7949999D01*
G37*
G36*
X2735193Y7866001D02*
G01*
X2385207Y7866001D01*
X2385207Y7695999D01*
X2735193Y7695999D01*
G37*
G36*
X2735193Y7612001D02*
G01*
X2385207Y7612001D01*
X2385207Y7441999D01*
X2735193Y7441999D01*
G37*
G36*
X2735193Y7358001D02*
G01*
X2385207Y7358001D01*
X2385207Y7187999D01*
X2735193Y7187999D01*
G37*
G36*
X2735193Y7104001D02*
G01*
X2385207Y7104001D01*
X2385207Y6933999D01*
X2735193Y6933999D01*
G37*
G36*
X2735193Y6850001D02*
G01*
X2385207Y6850001D01*
X2385207Y6679999D01*
X2735193Y6679999D01*
G37*
G36*
X2735193Y6596001D02*
G01*
X2385207Y6596001D01*
X2385207Y6425999D01*
X2735193Y6425999D01*
G37*
G36*
X2735193Y6342001D02*
G01*
X2385207Y6342001D01*
X2385207Y6171999D01*
X2735193Y6171999D01*
G37*
G36*
X2735193Y6088001D02*
G01*
X2385207Y6088001D01*
X2385207Y5917999D01*
X2735193Y5917999D01*
G37*
G36*
X2735193Y5834001D02*
G01*
X2385207Y5834001D01*
X2385207Y5663999D01*
X2735193Y5663999D01*
G37*
G36*
X2735193Y5580001D02*
G01*
X2385207Y5580001D01*
X2385207Y5409999D01*
X2735193Y5409999D01*
G37*
G36*
X2735193Y5326001D02*
G01*
X2385207Y5326001D01*
X2385207Y5155999D01*
X2735193Y5155999D01*
G37*
G36*
X2735193Y5072001D02*
G01*
X2385207Y5072001D01*
X2385207Y4901999D01*
X2735193Y4901999D01*
G37*
G36*
X3839001Y4784219D02*
G01*
X3839001Y5134206D01*
X3668999Y5134206D01*
X3668999Y4784219D01*
G37*
G36*
X3585001Y4784219D02*
G01*
X3585001Y5134206D01*
X3414999Y5134206D01*
X3414999Y4784219D01*
G37*
M02*
