M48
METRIC,LZ,000.000
;FILE_FORMAT=3:3
;TYPE=PLATED
;Layer: PTH_Through
;EasyEDA v6.5.1, 2022-06-14 18:14:27
;a67cddfb3fce44daa9051d46cbbcc19f,10
;Gerber Generator version 0.2
;Holesize 1 = 0.305 mm
T01C0.305
;Holesize 2 = 1.021 mm
T02C1.021
;Holesize 3 = 1.550 mm
T03C1.550
;Holesize 4 = 1.753 mm
T04C1.753
;Holesize 5 = 4.090 mm
T05C4.090
%
G05
G90
T01
X125000Y005000
X115000Y005000
X105000Y005000
X095000Y005000
X085000Y005000
X075000Y005000
X065000Y005000
X055000Y005000
X045000Y005000
X035000Y005000
X025000Y005000
X015000Y005000
X005000Y005000
X135000Y015000
X135000Y025000
X135000Y035000
X135000Y045000
X135000Y055000
X135000Y065000
X135000Y075000
X135000Y085000
X005000Y095000
X015000Y095000
X025000Y095000
X035000Y095000
X045000Y095000
X055000Y095000
X005000Y085000
X005000Y075000
X005000Y065000
X005000Y055000
X005000Y045000
X005000Y035000
X005000Y025000
X005000Y015000
X135000Y005000
X135000Y095000
T02
X114113Y098130G85X114107Y098130
X114113Y095590G85X114107Y095590
X114113Y093050G85X114107Y093050
X114113Y090510G85X114107Y090510
X114113Y087970G85X114107Y087970
X114113Y085430G85X114107Y085430
X114113Y082890G85X114107Y082890
X114113Y080350G85X114107Y080350
X114113Y077810G85X114107Y077810
X114113Y075270G85X114107Y075270
X114113Y072730G85X114107Y072730
X114113Y070190G85X114107Y070190
X114113Y067650G85X114107Y067650
X114113Y065110G85X114107Y065110
X114113Y062570G85X114107Y062570
X114113Y060030G85X114107Y060030
X114113Y057490G85X114107Y057490
X114113Y054950G85X114107Y054950
X114113Y052410G85X114107Y052410
X114113Y049870G85X114107Y049870
X131893Y049870G85X131887Y049870
X131893Y052410G85X131887Y052410
X131893Y054950G85X131887Y054950
X131893Y057490G85X131887Y057490
X131893Y060030G85X131887Y060030
X131893Y062570G85X131887Y062570
X131893Y065110G85X131887Y065110
X131893Y067650G85X131887Y067650
X131893Y070190G85X131887Y070190
X131893Y072730G85X131887Y072730
X131893Y075270G85X131887Y075270
X131893Y077810G85X131887Y077810
X131893Y080350G85X131887Y080350
X131893Y082890G85X131887Y082890
X131893Y085430G85X131887Y085430
X131893Y087970G85X131887Y087970
X131893Y090510G85X131887Y090510
X131893Y093050G85X131887Y093050
X131893Y095590G85X131887Y095590
X131893Y098130G85X131887Y098130
X120463Y050100G85X120457Y050100
X123003Y050100G85X122997Y050100
X125543Y050100G85X125537Y050100
T03
X009997Y090000G85X010003Y090000
X016347Y092540G85X016353Y092540
X034997Y090000G85X035003Y090000
X041347Y092540G85X041353Y092540
X059997Y090000G85X060003Y090000
X066347Y092540G85X066353Y092540
X084997Y090000G85X085003Y090000
X091347Y092540G85X091353Y092540
X009997Y065000G85X010003Y065000
X016347Y067540G85X016353Y067540
X034997Y065000G85X035003Y065000
X041347Y067540G85X041353Y067540
X059997Y065000G85X060003Y065000
X066347Y067540G85X066353Y067540
X084997Y065000G85X085003Y065000
X091347Y067540G85X091353Y067540
X009997Y040000G85X010003Y040000
X016347Y042540G85X016353Y042540
X034997Y040000G85X035003Y040000
X041347Y042540G85X041353Y042540
X059997Y040000G85X060003Y040000
X066347Y042540G85X066353Y042540
X084997Y040000G85X085003Y040000
X091347Y042540G85X091353Y042540
X009997Y015000G85X010003Y015000
X016347Y017540G85X016353Y017540
X034997Y015000G85X035003Y015000
X041347Y017540G85X041353Y017540
X059997Y015000G85X060003Y015000
X066347Y017540G85X066353Y017540
X084997Y015000G85X085003Y015000
X091347Y017540G85X091353Y017540
T04
X008727Y087460G85X008733Y087460
X018887Y087460G85X018893Y087460
X033727Y087460G85X033733Y087460
X043887Y087460G85X043893Y087460
X058727Y087460G85X058733Y087460
X068887Y087460G85X068893Y087460
X083727Y087460G85X083733Y087460
X093887Y087460G85X093893Y087460
X008727Y062460G85X008733Y062460
X018887Y062460G85X018893Y062460
X033727Y062460G85X033733Y062460
X043887Y062460G85X043893Y062460
X058727Y062460G85X058733Y062460
X068887Y062460G85X068893Y062460
X083727Y062460G85X083733Y062460
X093887Y062460G85X093893Y062460
X008727Y037460G85X008733Y037460
X018887Y037460G85X018893Y037460
X033727Y037460G85X033733Y037460
X043887Y037460G85X043893Y037460
X058727Y037460G85X058733Y037460
X068887Y037460G85X068893Y037460
X083727Y037460G85X083733Y037460
X093887Y037460G85X093893Y037460
X008727Y012460G85X008733Y012460
X018887Y012460G85X018893Y012460
X033727Y012460G85X033733Y012460
X043887Y012460G85X043893Y012460
X058727Y012460G85X058733Y012460
X068887Y012460G85X068893Y012460
X083727Y012460G85X083733Y012460
X093887Y012460G85X093893Y012460
T05
X013807Y087460G85X013813Y087460
X038807Y087460G85X038813Y087460
X063807Y087460G85X063813Y087460
X088807Y087460G85X088813Y087460
X013807Y062460G85X013813Y062460
X038807Y062460G85X038813Y062460
X063807Y062460G85X063813Y062460
X088807Y062460G85X088813Y062460
X013807Y037460G85X013813Y037460
X038807Y037460G85X038813Y037460
X063807Y037460G85X063813Y037460
X088807Y037460G85X088813Y037460
X013807Y012460G85X013813Y012460
X038807Y012460G85X038813Y012460
X063807Y012460G85X063813Y012460
X088807Y012460G85X088813Y012460
M30
