G04 Layer: TopLayer*
G04 EasyEDA v6.5.1, 2022-06-14 18:14:27*
G04 a67cddfb3fce44daa9051d46cbbcc19f,10*
G04 Gerber Generator version 0.2*
G04 Scale: 100 percent, Rotated: No, Reflected: No *
G04 Dimensions in millimeters *
G04 leading zeros omitted , absolute positions ,4 integer and 5 decimal *
%FSLAX45Y45*%
%MOMM*%

%ADD10C,0.2540*%
%ADD11C,0.6096*%
%ADD13R,1.7000X3.4999*%
%ADD14C,1.7000*%
%ADD16C,2.3241*%
%ADD17C,5.1054*%
%ADD18C,2.6289*%

%LPD*%
G36*
X101244Y25908D02*
G01*
X88747Y26873D01*
X78486Y29209D01*
X68630Y33020D01*
X59385Y38150D01*
X51003Y44551D01*
X43637Y52120D01*
X37388Y60604D01*
X32410Y69951D01*
X28803Y79857D01*
X26670Y90170D01*
X25908Y101244D01*
X25908Y9898735D01*
X26873Y9911232D01*
X29209Y9921544D01*
X33020Y9931400D01*
X38150Y9940594D01*
X44551Y9948976D01*
X52120Y9956393D01*
X60604Y9962642D01*
X69951Y9967569D01*
X79857Y9971176D01*
X90170Y9973310D01*
X101244Y9974072D01*
X13898778Y9974072D01*
X13911224Y9973106D01*
X13921536Y9970770D01*
X13931392Y9967010D01*
X13940586Y9961829D01*
X13948968Y9955428D01*
X13956385Y9947910D01*
X13962634Y9939375D01*
X13967612Y9930079D01*
X13971168Y9920122D01*
X13973352Y9909810D01*
X13974114Y9898735D01*
X13974114Y101244D01*
X13973098Y88747D01*
X13970762Y78486D01*
X13967002Y68630D01*
X13961821Y59385D01*
X13955420Y51003D01*
X13947901Y43637D01*
X13939367Y37388D01*
X13930071Y32410D01*
X13920165Y28803D01*
X13909801Y26670D01*
X13898778Y25908D01*
G37*

%LPC*%
G36*
X13065353Y9702088D02*
G01*
X13414248Y9702088D01*
X13420547Y9702800D01*
X13425982Y9704730D01*
X13430910Y9707778D01*
X13434974Y9711893D01*
X13438073Y9716770D01*
X13440003Y9722256D01*
X13440714Y9728555D01*
X13440714Y9897414D01*
X13440003Y9903764D01*
X13438073Y9909200D01*
X13434974Y9914128D01*
X13430910Y9918192D01*
X13425982Y9921290D01*
X13420547Y9923221D01*
X13414248Y9923932D01*
X13065353Y9923932D01*
X13059054Y9923221D01*
X13053618Y9921290D01*
X13048691Y9918192D01*
X13044627Y9914128D01*
X13041528Y9909200D01*
X13039598Y9903764D01*
X13038886Y9897414D01*
X13038886Y9728555D01*
X13039598Y9722256D01*
X13041528Y9716770D01*
X13044627Y9711893D01*
X13048691Y9707778D01*
X13053618Y9704730D01*
X13059054Y9702800D01*
G37*
G36*
X6380988Y964844D02*
G01*
X6404203Y965809D01*
X6427266Y968654D01*
X6450025Y973429D01*
X6472275Y980084D01*
X6493967Y988517D01*
X6514846Y998728D01*
X6534810Y1010615D01*
X6553708Y1024128D01*
X6571437Y1039114D01*
X6587845Y1055573D01*
X6602882Y1073302D01*
X6616395Y1092200D01*
X6628282Y1112164D01*
X6638493Y1133043D01*
X6646925Y1154684D01*
X6653580Y1176985D01*
X6658356Y1199743D01*
X6661200Y1222756D01*
X6662166Y1246022D01*
X6661200Y1269238D01*
X6658356Y1292301D01*
X6653580Y1315008D01*
X6646925Y1337310D01*
X6638493Y1358950D01*
X6628282Y1379829D01*
X6616395Y1399794D01*
X6602882Y1418691D01*
X6587845Y1436420D01*
X6571437Y1452880D01*
X6553708Y1467866D01*
X6534810Y1481378D01*
X6514846Y1493266D01*
X6493967Y1503476D01*
X6472275Y1511909D01*
X6450025Y1518564D01*
X6427266Y1523339D01*
X6404203Y1526184D01*
X6380988Y1527149D01*
X6357772Y1526184D01*
X6334709Y1523339D01*
X6312001Y1518564D01*
X6289700Y1511909D01*
X6268059Y1503476D01*
X6247180Y1493266D01*
X6227216Y1481378D01*
X6208318Y1467866D01*
X6190589Y1452880D01*
X6174130Y1436420D01*
X6159093Y1418691D01*
X6145631Y1399794D01*
X6133744Y1379829D01*
X6123533Y1358950D01*
X6115050Y1337310D01*
X6108446Y1315008D01*
X6103670Y1292301D01*
X6100775Y1269238D01*
X6099810Y1246022D01*
X6100775Y1222756D01*
X6103670Y1199743D01*
X6108446Y1176985D01*
X6115050Y1154684D01*
X6123533Y1133043D01*
X6133744Y1112164D01*
X6145631Y1092200D01*
X6159093Y1073302D01*
X6174130Y1055573D01*
X6190589Y1039114D01*
X6208318Y1024128D01*
X6227216Y1010615D01*
X6247180Y998728D01*
X6268059Y988517D01*
X6289700Y980084D01*
X6312001Y973429D01*
X6334709Y968654D01*
X6357772Y965809D01*
G37*
G36*
X3881018Y964844D02*
G01*
X3904234Y965809D01*
X3927297Y968654D01*
X3950004Y973429D01*
X3972306Y980084D01*
X3993946Y988517D01*
X4014825Y998728D01*
X4034790Y1010615D01*
X4053687Y1024128D01*
X4071416Y1039114D01*
X4087876Y1055573D01*
X4102862Y1073302D01*
X4116374Y1092200D01*
X4128262Y1112164D01*
X4138472Y1133043D01*
X4146956Y1154684D01*
X4153560Y1176985D01*
X4158335Y1199743D01*
X4161231Y1222756D01*
X4162145Y1246022D01*
X4161231Y1269238D01*
X4158335Y1292301D01*
X4153560Y1315008D01*
X4146956Y1337310D01*
X4138472Y1358950D01*
X4128262Y1379829D01*
X4116374Y1399794D01*
X4102862Y1418691D01*
X4087876Y1436420D01*
X4071416Y1452880D01*
X4053687Y1467866D01*
X4034790Y1481378D01*
X4014825Y1493266D01*
X3993946Y1503476D01*
X3972306Y1511909D01*
X3950004Y1518564D01*
X3927297Y1523339D01*
X3904234Y1526184D01*
X3881018Y1527149D01*
X3857802Y1526184D01*
X3834739Y1523339D01*
X3811981Y1518564D01*
X3789679Y1511909D01*
X3768039Y1503476D01*
X3747160Y1493266D01*
X3727196Y1481378D01*
X3708298Y1467866D01*
X3690569Y1452880D01*
X3674160Y1436420D01*
X3659124Y1418691D01*
X3645611Y1399794D01*
X3633724Y1379829D01*
X3623513Y1358950D01*
X3615080Y1337310D01*
X3608425Y1315008D01*
X3603650Y1292301D01*
X3600805Y1269238D01*
X3599840Y1246022D01*
X3600805Y1222756D01*
X3603650Y1199743D01*
X3608425Y1176985D01*
X3615080Y1154684D01*
X3623513Y1133043D01*
X3633724Y1112164D01*
X3645611Y1092200D01*
X3659124Y1073302D01*
X3674160Y1055573D01*
X3690569Y1039114D01*
X3708298Y1024128D01*
X3727196Y1010615D01*
X3747160Y998728D01*
X3768039Y988517D01*
X3789679Y980084D01*
X3811981Y973429D01*
X3834739Y968654D01*
X3857802Y965809D01*
G37*
G36*
X8881008Y964844D02*
G01*
X8904224Y965809D01*
X8927287Y968654D01*
X8950045Y973429D01*
X8972296Y980084D01*
X8993936Y988517D01*
X9014815Y998728D01*
X9034780Y1010615D01*
X9053677Y1024128D01*
X9071406Y1039114D01*
X9087866Y1055573D01*
X9102902Y1073302D01*
X9116364Y1092200D01*
X9128302Y1112164D01*
X9138513Y1133043D01*
X9146946Y1154684D01*
X9153550Y1176985D01*
X9158325Y1199743D01*
X9161221Y1222756D01*
X9162186Y1246022D01*
X9161221Y1269238D01*
X9158325Y1292301D01*
X9153550Y1315008D01*
X9146946Y1337310D01*
X9138513Y1358950D01*
X9128302Y1379829D01*
X9116364Y1399794D01*
X9102902Y1418691D01*
X9087866Y1436420D01*
X9071406Y1452880D01*
X9053677Y1467866D01*
X9034780Y1481378D01*
X9014815Y1493266D01*
X8993936Y1503476D01*
X8972296Y1511909D01*
X8950045Y1518564D01*
X8927287Y1523339D01*
X8904224Y1526184D01*
X8881008Y1527149D01*
X8857792Y1526184D01*
X8834729Y1523339D01*
X8811971Y1518564D01*
X8789720Y1511909D01*
X8768080Y1503476D01*
X8747201Y1493266D01*
X8727236Y1481378D01*
X8708288Y1467866D01*
X8690559Y1452880D01*
X8674150Y1436420D01*
X8659114Y1418691D01*
X8645601Y1399794D01*
X8633714Y1379829D01*
X8623503Y1358950D01*
X8615070Y1337310D01*
X8608415Y1315008D01*
X8603691Y1292301D01*
X8600795Y1269238D01*
X8599830Y1246022D01*
X8600795Y1222756D01*
X8603691Y1199743D01*
X8608415Y1176985D01*
X8615070Y1154684D01*
X8623503Y1133043D01*
X8633714Y1112164D01*
X8645601Y1092200D01*
X8659114Y1073302D01*
X8674150Y1055573D01*
X8690559Y1039114D01*
X8708288Y1024128D01*
X8727236Y1010615D01*
X8747201Y998728D01*
X8768080Y988517D01*
X8789720Y980084D01*
X8811971Y973429D01*
X8834729Y968654D01*
X8857792Y965809D01*
G37*
G36*
X1880463Y1088898D02*
G01*
X1897532Y1088898D01*
X1914448Y1090726D01*
X1931111Y1094384D01*
X1947214Y1099820D01*
X1962708Y1106982D01*
X1977288Y1115771D01*
X1990852Y1126083D01*
X2003247Y1137818D01*
X2014270Y1150772D01*
X2023821Y1164894D01*
X2031796Y1179931D01*
X2038096Y1195781D01*
X2042668Y1212189D01*
X2045411Y1229004D01*
X2046325Y1246022D01*
X2045411Y1262989D01*
X2042668Y1279804D01*
X2038096Y1296212D01*
X2031796Y1312062D01*
X2023821Y1327099D01*
X2014270Y1341221D01*
X2003247Y1354175D01*
X1990852Y1365910D01*
X1977288Y1376222D01*
X1962708Y1385011D01*
X1947214Y1392174D01*
X1931111Y1397609D01*
X1914448Y1401267D01*
X1897532Y1403096D01*
X1880463Y1403096D01*
X1863547Y1401267D01*
X1846884Y1397609D01*
X1830781Y1392174D01*
X1815287Y1385011D01*
X1800707Y1376222D01*
X1787143Y1365910D01*
X1774748Y1354175D01*
X1763725Y1341221D01*
X1754174Y1327099D01*
X1746199Y1312062D01*
X1739900Y1296212D01*
X1735328Y1279804D01*
X1732584Y1262989D01*
X1731670Y1246022D01*
X1732584Y1229004D01*
X1735328Y1212189D01*
X1739900Y1195781D01*
X1746199Y1179931D01*
X1754174Y1164894D01*
X1763725Y1150772D01*
X1774748Y1137818D01*
X1787143Y1126083D01*
X1800707Y1115771D01*
X1815287Y1106982D01*
X1830781Y1099820D01*
X1846884Y1094384D01*
X1863547Y1090726D01*
G37*
G36*
X6880504Y1088898D02*
G01*
X6897522Y1088898D01*
X6914438Y1090726D01*
X6931101Y1094384D01*
X6947255Y1099820D01*
X6962698Y1106982D01*
X6977278Y1115771D01*
X6990842Y1126083D01*
X7003237Y1137818D01*
X7014260Y1150772D01*
X7023811Y1164894D01*
X7031786Y1179931D01*
X7038086Y1195781D01*
X7042658Y1212189D01*
X7045401Y1229004D01*
X7046315Y1246022D01*
X7045401Y1262989D01*
X7042658Y1279804D01*
X7038086Y1296212D01*
X7031786Y1312062D01*
X7023811Y1327099D01*
X7014260Y1341221D01*
X7003237Y1354175D01*
X6990842Y1365910D01*
X6977278Y1376222D01*
X6962698Y1385011D01*
X6947255Y1392174D01*
X6931101Y1397609D01*
X6914438Y1401267D01*
X6897522Y1403096D01*
X6880504Y1403096D01*
X6863537Y1401267D01*
X6846925Y1397609D01*
X6830771Y1392174D01*
X6815277Y1385011D01*
X6800697Y1376222D01*
X6787134Y1365910D01*
X6774789Y1354175D01*
X6763766Y1341221D01*
X6754164Y1327099D01*
X6746189Y1312062D01*
X6739890Y1296212D01*
X6735318Y1279804D01*
X6732574Y1262989D01*
X6731660Y1246022D01*
X6732574Y1229004D01*
X6735318Y1212189D01*
X6739890Y1195781D01*
X6746189Y1179931D01*
X6754164Y1164894D01*
X6763766Y1150772D01*
X6774789Y1137818D01*
X6787134Y1126083D01*
X6800697Y1115771D01*
X6815277Y1106982D01*
X6830771Y1099820D01*
X6846925Y1094384D01*
X6863537Y1090726D01*
G37*
G36*
X4380484Y1088898D02*
G01*
X4397502Y1088898D01*
X4414469Y1090726D01*
X4431080Y1094384D01*
X4447235Y1099820D01*
X4462678Y1106982D01*
X4477308Y1115771D01*
X4490872Y1126083D01*
X4503216Y1137818D01*
X4514240Y1150772D01*
X4523841Y1164894D01*
X4531817Y1179931D01*
X4538116Y1195781D01*
X4542637Y1212189D01*
X4545431Y1229004D01*
X4546346Y1246022D01*
X4545431Y1262989D01*
X4542637Y1279804D01*
X4538116Y1296212D01*
X4531817Y1312062D01*
X4523841Y1327099D01*
X4514240Y1341221D01*
X4503216Y1354175D01*
X4490872Y1365910D01*
X4477308Y1376222D01*
X4462678Y1385011D01*
X4447235Y1392174D01*
X4431080Y1397609D01*
X4414469Y1401267D01*
X4397502Y1403096D01*
X4380484Y1403096D01*
X4363567Y1401267D01*
X4346905Y1397609D01*
X4330750Y1392174D01*
X4315307Y1385011D01*
X4300728Y1376222D01*
X4287164Y1365910D01*
X4274769Y1354175D01*
X4263745Y1341221D01*
X4254195Y1327099D01*
X4246219Y1312062D01*
X4239920Y1296212D01*
X4235348Y1279804D01*
X4232605Y1262989D01*
X4231640Y1246022D01*
X4232605Y1229004D01*
X4235348Y1212189D01*
X4239920Y1195781D01*
X4246219Y1179931D01*
X4254195Y1164894D01*
X4263745Y1150772D01*
X4274769Y1137818D01*
X4287164Y1126083D01*
X4300728Y1115771D01*
X4315307Y1106982D01*
X4330750Y1099820D01*
X4346905Y1094384D01*
X4363567Y1090726D01*
G37*
G36*
X9380474Y1088898D02*
G01*
X9397542Y1088898D01*
X9414459Y1090726D01*
X9431070Y1094384D01*
X9447225Y1099820D01*
X9462719Y1106982D01*
X9477298Y1115771D01*
X9490862Y1126083D01*
X9503206Y1137818D01*
X9514281Y1150772D01*
X9523831Y1164894D01*
X9531807Y1179931D01*
X9538106Y1195781D01*
X9542678Y1212189D01*
X9545421Y1229004D01*
X9546336Y1246022D01*
X9545421Y1262989D01*
X9542678Y1279804D01*
X9538106Y1296212D01*
X9531807Y1312062D01*
X9523831Y1327099D01*
X9514281Y1341221D01*
X9503206Y1354175D01*
X9490862Y1365910D01*
X9477298Y1376222D01*
X9462719Y1385011D01*
X9447225Y1392174D01*
X9431070Y1397609D01*
X9414459Y1401267D01*
X9397542Y1403096D01*
X9380474Y1403096D01*
X9363557Y1401267D01*
X9346895Y1397609D01*
X9330740Y1392174D01*
X9315297Y1385011D01*
X9300718Y1376222D01*
X9287154Y1365910D01*
X9274759Y1354175D01*
X9263735Y1341221D01*
X9254185Y1327099D01*
X9246209Y1312062D01*
X9239910Y1296212D01*
X9235338Y1279804D01*
X9232595Y1262989D01*
X9231680Y1246022D01*
X9232595Y1229004D01*
X9235338Y1212189D01*
X9239910Y1195781D01*
X9246209Y1179931D01*
X9254185Y1164894D01*
X9263735Y1150772D01*
X9274759Y1137818D01*
X9287154Y1126083D01*
X9300718Y1115771D01*
X9315297Y1106982D01*
X9330740Y1099820D01*
X9346895Y1094384D01*
X9363557Y1090726D01*
G37*
G36*
X864463Y1088898D02*
G01*
X881532Y1088898D01*
X898448Y1090726D01*
X915111Y1094384D01*
X931214Y1099820D01*
X946708Y1106982D01*
X961288Y1115771D01*
X974852Y1126083D01*
X987247Y1137818D01*
X998270Y1150772D01*
X1007821Y1164894D01*
X1015796Y1179931D01*
X1022096Y1195781D01*
X1026668Y1212189D01*
X1029411Y1229004D01*
X1030325Y1246022D01*
X1029411Y1262989D01*
X1026668Y1279804D01*
X1022096Y1296212D01*
X1015796Y1312062D01*
X1007821Y1327099D01*
X998016Y1341475D01*
X996137Y1344777D01*
X995629Y1348536D01*
X996492Y1352194D01*
X998626Y1355344D01*
X1001776Y1357426D01*
X1005484Y1358239D01*
X1012139Y1358442D01*
X1028242Y1360728D01*
X1043889Y1364843D01*
X1059027Y1370736D01*
X1073404Y1378305D01*
X1086764Y1387449D01*
X1099058Y1398117D01*
X1109980Y1410055D01*
X1119530Y1423162D01*
X1127506Y1437284D01*
X1133856Y1452270D01*
X1138428Y1467815D01*
X1141171Y1483817D01*
X1142085Y1500022D01*
X1141171Y1516176D01*
X1138428Y1532178D01*
X1133856Y1547723D01*
X1127099Y1563573D01*
X1126286Y1567484D01*
X1127048Y1571447D01*
X1129233Y1574749D01*
X2413050Y2858312D01*
X2416352Y2860548D01*
X2420264Y2861310D01*
X9282074Y2861310D01*
X9285935Y2860548D01*
X9289237Y2858312D01*
X9291421Y2855061D01*
X9292234Y2851150D01*
X9291421Y2847238D01*
X9289237Y2843987D01*
X9286951Y2841701D01*
X9283649Y2839466D01*
X9279737Y2838704D01*
X4800600Y2838704D01*
X4792573Y2837891D01*
X4785360Y2835706D01*
X4778654Y2832150D01*
X4772456Y2827020D01*
X3574542Y1629156D01*
X3570986Y1626819D01*
X3566718Y1626209D01*
X3562604Y1627378D01*
X3559048Y1629257D01*
X3543909Y1635150D01*
X3528212Y1639265D01*
X3512159Y1641551D01*
X3495954Y1642059D01*
X3479800Y1640636D01*
X3463899Y1637436D01*
X3448456Y1632407D01*
X3433673Y1625650D01*
X3419805Y1617319D01*
X3406952Y1607413D01*
X3395319Y1596085D01*
X3385058Y1583537D01*
X3376269Y1569872D01*
X3369106Y1555292D01*
X3363671Y1540052D01*
X3359962Y1524254D01*
X3358134Y1508099D01*
X3358134Y1491894D01*
X3359962Y1475790D01*
X3363671Y1459941D01*
X3369106Y1444701D01*
X3376269Y1430121D01*
X3383584Y1418742D01*
X3385108Y1414729D01*
X3384753Y1410411D01*
X3382721Y1406601D01*
X3379266Y1404010D01*
X3375050Y1403096D01*
X3364484Y1403096D01*
X3347567Y1401267D01*
X3330905Y1397609D01*
X3314750Y1392174D01*
X3299307Y1385011D01*
X3284728Y1376222D01*
X3271164Y1365910D01*
X3258769Y1354175D01*
X3247745Y1341221D01*
X3238195Y1327099D01*
X3230219Y1312062D01*
X3223920Y1296212D01*
X3219348Y1279804D01*
X3216605Y1262989D01*
X3215640Y1246022D01*
X3216605Y1229004D01*
X3219348Y1212189D01*
X3223920Y1195781D01*
X3230219Y1179931D01*
X3238195Y1164894D01*
X3247745Y1150772D01*
X3258769Y1137818D01*
X3271164Y1126083D01*
X3284728Y1115771D01*
X3299307Y1106982D01*
X3314750Y1099820D01*
X3330905Y1094384D01*
X3347567Y1090726D01*
X3364484Y1088898D01*
X3381501Y1088898D01*
X3398469Y1090726D01*
X3415080Y1094384D01*
X3431235Y1099820D01*
X3446678Y1106982D01*
X3461308Y1115771D01*
X3474872Y1126083D01*
X3487216Y1137818D01*
X3498240Y1150772D01*
X3507841Y1164894D01*
X3515817Y1179931D01*
X3522116Y1195781D01*
X3526637Y1212189D01*
X3529431Y1229004D01*
X3530346Y1246022D01*
X3529431Y1262989D01*
X3526637Y1279804D01*
X3522116Y1296212D01*
X3515817Y1312062D01*
X3507841Y1327099D01*
X3498037Y1341475D01*
X3496157Y1344777D01*
X3495598Y1348536D01*
X3496462Y1352194D01*
X3498646Y1355344D01*
X3501796Y1357426D01*
X3505454Y1358239D01*
X3512159Y1358442D01*
X3528212Y1360728D01*
X3543909Y1364843D01*
X3559048Y1370736D01*
X3573373Y1378305D01*
X3586784Y1387449D01*
X3599027Y1398117D01*
X3610000Y1410055D01*
X3619550Y1423162D01*
X3627526Y1437284D01*
X3633825Y1452270D01*
X3638397Y1467815D01*
X3641191Y1483817D01*
X3642106Y1500022D01*
X3641191Y1516176D01*
X3638397Y1532178D01*
X3633825Y1547723D01*
X3627120Y1563522D01*
X3626307Y1567434D01*
X3627069Y1571345D01*
X3629304Y1574698D01*
X4813096Y2758490D01*
X4816398Y2760726D01*
X4820310Y2761488D01*
X9282277Y2761488D01*
X9286189Y2760726D01*
X9289491Y2758490D01*
X9291675Y2755239D01*
X9292437Y2751328D01*
X9291675Y2747416D01*
X9289491Y2744165D01*
X9286951Y2741625D01*
X9283649Y2739390D01*
X9279737Y2738628D01*
X7200392Y2738628D01*
X7192365Y2737815D01*
X7185152Y2735630D01*
X7178446Y2732074D01*
X7172248Y2726944D01*
X6074460Y1629206D01*
X6070854Y1626870D01*
X6066637Y1626260D01*
X6062522Y1627378D01*
X6059017Y1629257D01*
X6043930Y1635150D01*
X6028232Y1639265D01*
X6012180Y1641551D01*
X5995924Y1642059D01*
X5979769Y1640636D01*
X5963869Y1637436D01*
X5948426Y1632407D01*
X5933694Y1625650D01*
X5919774Y1617319D01*
X5906922Y1607413D01*
X5895289Y1596085D01*
X5885027Y1583537D01*
X5876290Y1569872D01*
X5869127Y1555292D01*
X5863640Y1540052D01*
X5859983Y1524254D01*
X5858154Y1508099D01*
X5858154Y1491894D01*
X5859983Y1475790D01*
X5863640Y1459941D01*
X5869127Y1444701D01*
X5876290Y1430121D01*
X5883554Y1418742D01*
X5885078Y1414729D01*
X5884773Y1410411D01*
X5882690Y1406601D01*
X5879236Y1404010D01*
X5875020Y1403096D01*
X5864504Y1403096D01*
X5847537Y1401267D01*
X5830925Y1397609D01*
X5814771Y1392174D01*
X5799277Y1385011D01*
X5784697Y1376222D01*
X5771134Y1365910D01*
X5758789Y1354175D01*
X5747766Y1341221D01*
X5738164Y1327099D01*
X5730189Y1312062D01*
X5723890Y1296212D01*
X5719318Y1279804D01*
X5716574Y1262989D01*
X5715660Y1246022D01*
X5716574Y1229004D01*
X5719318Y1212189D01*
X5723890Y1195781D01*
X5730189Y1179931D01*
X5738164Y1164894D01*
X5747766Y1150772D01*
X5758789Y1137818D01*
X5771134Y1126083D01*
X5784697Y1115771D01*
X5799277Y1106982D01*
X5814771Y1099820D01*
X5830925Y1094384D01*
X5847537Y1090726D01*
X5864504Y1088898D01*
X5881522Y1088898D01*
X5898438Y1090726D01*
X5915101Y1094384D01*
X5931255Y1099820D01*
X5946698Y1106982D01*
X5961278Y1115771D01*
X5974842Y1126083D01*
X5987237Y1137818D01*
X5998260Y1150772D01*
X6007811Y1164894D01*
X6015786Y1179931D01*
X6022086Y1195781D01*
X6026658Y1212189D01*
X6029401Y1229004D01*
X6030315Y1246022D01*
X6029401Y1262989D01*
X6026658Y1279804D01*
X6022086Y1296212D01*
X6015786Y1312062D01*
X6007811Y1327099D01*
X5998006Y1341475D01*
X5996127Y1344777D01*
X5995619Y1348536D01*
X5996482Y1352194D01*
X5998616Y1355344D01*
X6001766Y1357426D01*
X6005474Y1358239D01*
X6012180Y1358442D01*
X6028232Y1360728D01*
X6043930Y1364843D01*
X6059017Y1370736D01*
X6073394Y1378305D01*
X6086754Y1387449D01*
X6099048Y1398117D01*
X6110020Y1410055D01*
X6119520Y1423162D01*
X6127496Y1437284D01*
X6133846Y1452270D01*
X6138418Y1467815D01*
X6141161Y1483817D01*
X6142075Y1500022D01*
X6141161Y1516176D01*
X6138418Y1532178D01*
X6133846Y1547723D01*
X6127089Y1563624D01*
X6126276Y1567535D01*
X6127038Y1571447D01*
X6129223Y1574749D01*
X7212888Y2658414D01*
X7216190Y2660650D01*
X7220102Y2661412D01*
X9282277Y2661412D01*
X9286189Y2660650D01*
X9289491Y2658414D01*
X9291675Y2655163D01*
X9292437Y2651252D01*
X9291675Y2647340D01*
X9289491Y2644089D01*
X9286951Y2641549D01*
X9283649Y2639314D01*
X9279737Y2638552D01*
X9023858Y2638552D01*
X9020200Y2638399D01*
X9016034Y2637790D01*
X9012732Y2636977D01*
X9008770Y2635605D01*
X9005722Y2634132D01*
X9002115Y2631998D01*
X8999169Y2629865D01*
X8875877Y2530348D01*
X8872575Y2527401D01*
X8870289Y2524861D01*
X8867800Y2521508D01*
X8866022Y2518613D01*
X8864244Y2514854D01*
X8863076Y2511653D01*
X8862060Y2507589D01*
X8861552Y2504287D01*
X8861298Y2499868D01*
X8861298Y1920138D01*
X8860536Y1916226D01*
X8858300Y1912924D01*
X8574532Y1629156D01*
X8570976Y1626819D01*
X8566759Y1626209D01*
X8562644Y1627378D01*
X8559038Y1629257D01*
X8543899Y1635150D01*
X8528202Y1639265D01*
X8512149Y1641551D01*
X8495944Y1642059D01*
X8479790Y1640636D01*
X8463889Y1637436D01*
X8448446Y1632407D01*
X8433714Y1625650D01*
X8419795Y1617319D01*
X8406942Y1607413D01*
X8395309Y1596085D01*
X8385048Y1583537D01*
X8376259Y1569872D01*
X8369096Y1555292D01*
X8363661Y1540052D01*
X8360003Y1524254D01*
X8358124Y1508099D01*
X8358124Y1491894D01*
X8360003Y1475790D01*
X8363661Y1459941D01*
X8369096Y1444701D01*
X8376259Y1430121D01*
X8383574Y1418742D01*
X8385098Y1414729D01*
X8384794Y1410411D01*
X8382711Y1406601D01*
X8379256Y1404010D01*
X8375040Y1403096D01*
X8364474Y1403096D01*
X8347557Y1401267D01*
X8330895Y1397609D01*
X8314740Y1392174D01*
X8299297Y1385011D01*
X8284718Y1376222D01*
X8271154Y1365910D01*
X8258759Y1354175D01*
X8247735Y1341221D01*
X8238185Y1327099D01*
X8230209Y1312062D01*
X8223910Y1296212D01*
X8219338Y1279804D01*
X8216595Y1262989D01*
X8215680Y1246022D01*
X8216595Y1229004D01*
X8219338Y1212189D01*
X8223910Y1195781D01*
X8230209Y1179931D01*
X8238185Y1164894D01*
X8247735Y1150772D01*
X8258759Y1137818D01*
X8271154Y1126083D01*
X8284718Y1115771D01*
X8299297Y1106982D01*
X8314740Y1099820D01*
X8330895Y1094384D01*
X8347557Y1090726D01*
X8364474Y1088898D01*
X8381542Y1088898D01*
X8398459Y1090726D01*
X8415070Y1094384D01*
X8431225Y1099820D01*
X8446719Y1106982D01*
X8461298Y1115771D01*
X8474862Y1126083D01*
X8487206Y1137818D01*
X8498281Y1150772D01*
X8507831Y1164894D01*
X8515807Y1179931D01*
X8522106Y1195781D01*
X8526678Y1212189D01*
X8529421Y1229004D01*
X8530336Y1246022D01*
X8529421Y1262989D01*
X8526678Y1279804D01*
X8522106Y1296212D01*
X8515807Y1312062D01*
X8507831Y1327099D01*
X8498027Y1341475D01*
X8496147Y1344777D01*
X8495588Y1348536D01*
X8496503Y1352194D01*
X8498636Y1355344D01*
X8501786Y1357426D01*
X8505444Y1358239D01*
X8512149Y1358442D01*
X8528202Y1360728D01*
X8543899Y1364843D01*
X8559038Y1370736D01*
X8573363Y1378305D01*
X8586774Y1387449D01*
X8599017Y1398117D01*
X8609990Y1410055D01*
X8619540Y1423162D01*
X8627516Y1437284D01*
X8633815Y1452270D01*
X8638387Y1467815D01*
X8641181Y1483817D01*
X8642096Y1500022D01*
X8641181Y1516176D01*
X8638387Y1532178D01*
X8633815Y1547723D01*
X8627110Y1563522D01*
X8626297Y1567434D01*
X8627059Y1571345D01*
X8629294Y1574698D01*
X8926830Y1872284D01*
X8931960Y1878482D01*
X8935516Y1885188D01*
X8937701Y1892401D01*
X8938514Y1900428D01*
X8938514Y2476804D01*
X8939530Y2481173D01*
X8942273Y2484729D01*
X9034424Y2559100D01*
X9037421Y2560777D01*
X9040825Y2561336D01*
X9299448Y2561336D01*
X9307474Y2562148D01*
X9314688Y2564333D01*
X9321393Y2567889D01*
X9327591Y2573020D01*
X10026904Y3272332D01*
X10032034Y3278530D01*
X10035590Y3285236D01*
X10037775Y3292449D01*
X10038588Y3300476D01*
X10038588Y4779873D01*
X10039350Y4783785D01*
X10041585Y4787087D01*
X10199928Y4945430D01*
X10203230Y4947666D01*
X10207142Y4948428D01*
X11149126Y4948377D01*
X11153038Y4947615D01*
X11156340Y4945430D01*
X11158524Y4942128D01*
X11159286Y4938217D01*
X11159286Y4902555D01*
X11159998Y4896256D01*
X11161928Y4890770D01*
X11165027Y4885893D01*
X11169091Y4881778D01*
X11174018Y4878730D01*
X11179454Y4876800D01*
X11185753Y4876088D01*
X11534648Y4876088D01*
X11540947Y4876800D01*
X11546382Y4878730D01*
X11551310Y4881778D01*
X11555374Y4885893D01*
X11558473Y4890770D01*
X11560403Y4896256D01*
X11561114Y4902555D01*
X11561114Y5071414D01*
X11560403Y5077764D01*
X11558473Y5083200D01*
X11555374Y5088128D01*
X11551310Y5092192D01*
X11546382Y5095290D01*
X11540947Y5097221D01*
X11534648Y5097932D01*
X11185753Y5097932D01*
X11179454Y5097221D01*
X11174018Y5095290D01*
X11169091Y5092192D01*
X11165027Y5088128D01*
X11161928Y5083200D01*
X11159998Y5077764D01*
X11159286Y5071414D01*
X11159286Y5035753D01*
X11158524Y5031892D01*
X11156340Y5028590D01*
X11153038Y5026406D01*
X11149126Y5025593D01*
X10187432Y5025644D01*
X10179405Y5024831D01*
X10172192Y5022646D01*
X10165486Y5019090D01*
X10159288Y5013960D01*
X9973056Y4827727D01*
X9967925Y4821529D01*
X9964369Y4814824D01*
X9962184Y4807610D01*
X9961372Y4799584D01*
X9961372Y3320186D01*
X9960610Y3316274D01*
X9958374Y3312972D01*
X9955834Y3310432D01*
X9952583Y3308248D01*
X9948672Y3307486D01*
X9944760Y3308248D01*
X9941509Y3310432D01*
X9939274Y3313734D01*
X9938512Y3317646D01*
X9938512Y4979771D01*
X9939274Y4983683D01*
X9941509Y4986985D01*
X10153954Y5199430D01*
X10157256Y5201666D01*
X10161168Y5202428D01*
X11149126Y5202377D01*
X11153038Y5201615D01*
X11156340Y5199430D01*
X11158524Y5196128D01*
X11159286Y5192217D01*
X11159286Y5156555D01*
X11159998Y5150256D01*
X11161928Y5144770D01*
X11165027Y5139893D01*
X11169091Y5135778D01*
X11174018Y5132730D01*
X11179454Y5130800D01*
X11185753Y5130088D01*
X11534648Y5130088D01*
X11540947Y5130800D01*
X11546382Y5132730D01*
X11551310Y5135778D01*
X11555374Y5139893D01*
X11558473Y5144770D01*
X11560403Y5150256D01*
X11561114Y5156555D01*
X11561114Y5325414D01*
X11560403Y5331764D01*
X11558473Y5337200D01*
X11555374Y5342128D01*
X11551310Y5346192D01*
X11546382Y5349290D01*
X11540947Y5351221D01*
X11534648Y5351932D01*
X11185753Y5351932D01*
X11179454Y5351221D01*
X11174018Y5349290D01*
X11169091Y5346192D01*
X11165027Y5342128D01*
X11161928Y5337200D01*
X11159998Y5331764D01*
X11159286Y5325414D01*
X11159286Y5289753D01*
X11158524Y5285892D01*
X11156340Y5282590D01*
X11153038Y5280406D01*
X11149126Y5279593D01*
X10141458Y5279644D01*
X10133431Y5278831D01*
X10126218Y5276646D01*
X10119512Y5273090D01*
X10113314Y5267960D01*
X9906050Y5060746D01*
X9902799Y5058562D01*
X9898888Y5057800D01*
X9894976Y5058562D01*
X9891725Y5060746D01*
X9889490Y5064048D01*
X9888728Y5067960D01*
X9888728Y5329834D01*
X9889490Y5333695D01*
X9891725Y5336997D01*
X10261904Y5707430D01*
X10265206Y5709666D01*
X10269118Y5710428D01*
X11149126Y5710377D01*
X11153038Y5709615D01*
X11156340Y5707430D01*
X11158524Y5704128D01*
X11159286Y5700217D01*
X11159286Y5664555D01*
X11159998Y5658256D01*
X11161928Y5652770D01*
X11165027Y5647893D01*
X11169091Y5643778D01*
X11174018Y5640730D01*
X11179454Y5638800D01*
X11185753Y5638088D01*
X11534648Y5638088D01*
X11540947Y5638800D01*
X11546382Y5640730D01*
X11551310Y5643778D01*
X11555374Y5647893D01*
X11558473Y5652770D01*
X11560403Y5658256D01*
X11561114Y5664555D01*
X11561114Y5833414D01*
X11560403Y5839764D01*
X11558473Y5845200D01*
X11555374Y5850128D01*
X11551310Y5854192D01*
X11546382Y5857290D01*
X11540947Y5859221D01*
X11534648Y5859932D01*
X11185753Y5859932D01*
X11179454Y5859221D01*
X11174018Y5857290D01*
X11169091Y5854192D01*
X11165027Y5850128D01*
X11161928Y5845200D01*
X11159998Y5839764D01*
X11159286Y5833414D01*
X11159286Y5797753D01*
X11158524Y5793892D01*
X11156340Y5790590D01*
X11153038Y5788406D01*
X11149126Y5787593D01*
X10249408Y5787644D01*
X10241381Y5786831D01*
X10234168Y5784646D01*
X10227462Y5781090D01*
X10221264Y5775960D01*
X9823145Y5377637D01*
X9818065Y5371439D01*
X9814509Y5364734D01*
X9812324Y5357520D01*
X9811512Y5349494D01*
X9811512Y3370224D01*
X9810750Y3366312D01*
X9808514Y3363010D01*
X9805974Y3360470D01*
X9802723Y3358286D01*
X9798812Y3357524D01*
X9794900Y3358286D01*
X9791649Y3360470D01*
X9789414Y3363772D01*
X9788652Y3367684D01*
X9788652Y5629757D01*
X9789414Y5633669D01*
X9791649Y5636971D01*
X10116108Y5961430D01*
X10119410Y5963666D01*
X10123322Y5964428D01*
X11149126Y5964377D01*
X11153038Y5963615D01*
X11156340Y5961430D01*
X11158524Y5958128D01*
X11159286Y5954217D01*
X11159286Y5918555D01*
X11159998Y5912256D01*
X11161928Y5906770D01*
X11165027Y5901893D01*
X11169091Y5897778D01*
X11174018Y5894730D01*
X11179454Y5892800D01*
X11185753Y5892088D01*
X11534648Y5892088D01*
X11540947Y5892800D01*
X11546382Y5894730D01*
X11551310Y5897778D01*
X11555374Y5901893D01*
X11558473Y5906770D01*
X11560403Y5912256D01*
X11561114Y5918555D01*
X11561114Y6087414D01*
X11560403Y6093764D01*
X11558473Y6099200D01*
X11555374Y6104128D01*
X11551310Y6108192D01*
X11546382Y6111290D01*
X11540947Y6113221D01*
X11534648Y6113932D01*
X11185753Y6113932D01*
X11179454Y6113221D01*
X11174018Y6111290D01*
X11169091Y6108192D01*
X11165027Y6104128D01*
X11161928Y6099200D01*
X11159998Y6093764D01*
X11159286Y6087414D01*
X11159286Y6051753D01*
X11158524Y6047892D01*
X11156340Y6044590D01*
X11153038Y6042406D01*
X11149126Y6041593D01*
X10103612Y6041644D01*
X10095585Y6040831D01*
X10088372Y6038646D01*
X10081666Y6035090D01*
X10075468Y6029960D01*
X9723120Y5677611D01*
X9717989Y5671413D01*
X9714433Y5664708D01*
X9712248Y5657494D01*
X9711436Y5649468D01*
X9711436Y3370224D01*
X9710674Y3366312D01*
X9708438Y3363010D01*
X9286951Y2941523D01*
X9283649Y2939288D01*
X9279737Y2938526D01*
X2400554Y2938526D01*
X2392527Y2937713D01*
X2385314Y2935528D01*
X2378608Y2931972D01*
X2372410Y2926892D01*
X1074470Y1629206D01*
X1070914Y1626870D01*
X1066698Y1626260D01*
X1062583Y1627378D01*
X1059027Y1629257D01*
X1043889Y1635150D01*
X1028242Y1639265D01*
X1012139Y1641551D01*
X995934Y1642059D01*
X979779Y1640636D01*
X963879Y1637436D01*
X948436Y1632407D01*
X933703Y1625650D01*
X919784Y1617319D01*
X906932Y1607413D01*
X895299Y1596085D01*
X885037Y1583537D01*
X876249Y1569872D01*
X869137Y1555292D01*
X863650Y1540052D01*
X859993Y1524254D01*
X858113Y1508099D01*
X858113Y1491894D01*
X859993Y1475790D01*
X863650Y1459941D01*
X869137Y1444701D01*
X876249Y1430121D01*
X883564Y1418742D01*
X885088Y1414729D01*
X884783Y1410411D01*
X882700Y1406601D01*
X879246Y1404010D01*
X875030Y1403096D01*
X864463Y1403096D01*
X847547Y1401267D01*
X830884Y1397609D01*
X814781Y1392174D01*
X799287Y1385011D01*
X784707Y1376222D01*
X771144Y1365910D01*
X758748Y1354175D01*
X747725Y1341221D01*
X738174Y1327099D01*
X730199Y1312062D01*
X723900Y1296212D01*
X719328Y1279804D01*
X716584Y1262989D01*
X715670Y1246022D01*
X716584Y1229004D01*
X719328Y1212189D01*
X723900Y1195781D01*
X730199Y1179931D01*
X738174Y1164894D01*
X747725Y1150772D01*
X758748Y1137818D01*
X771144Y1126083D01*
X784707Y1115771D01*
X799287Y1106982D01*
X814781Y1099820D01*
X830884Y1094384D01*
X847547Y1090726D01*
G37*
G36*
X12565227Y9684359D02*
G01*
X12579756Y9684359D01*
X12594183Y9686188D01*
X12608306Y9689795D01*
X12621818Y9695129D01*
X12634569Y9702139D01*
X12646355Y9710724D01*
X12656972Y9720681D01*
X12666218Y9731857D01*
X12674041Y9744151D01*
X12680238Y9757359D01*
X12684709Y9771176D01*
X12687452Y9785451D01*
X12688366Y9799980D01*
X12687452Y9814509D01*
X12684709Y9828834D01*
X12680238Y9842652D01*
X12674041Y9855809D01*
X12666218Y9868103D01*
X12656972Y9879330D01*
X12646355Y9889286D01*
X12634569Y9897821D01*
X12621818Y9904831D01*
X12608306Y9910216D01*
X12594183Y9913823D01*
X12579756Y9915652D01*
X12565227Y9915652D01*
X12550800Y9913823D01*
X12536678Y9910216D01*
X12523165Y9904831D01*
X12510414Y9897821D01*
X12498628Y9889286D01*
X12488011Y9879330D01*
X12478766Y9868103D01*
X12470942Y9855809D01*
X12464745Y9842652D01*
X12460274Y9828834D01*
X12457531Y9814509D01*
X12456617Y9799980D01*
X12457531Y9785451D01*
X12460274Y9771176D01*
X12464745Y9757359D01*
X12470942Y9744151D01*
X12478766Y9731857D01*
X12488011Y9720681D01*
X12498628Y9710724D01*
X12510414Y9702139D01*
X12523165Y9695129D01*
X12536678Y9689795D01*
X12550800Y9686188D01*
G37*
G36*
X12020245Y9684359D02*
G01*
X12034774Y9684359D01*
X12049201Y9686188D01*
X12063323Y9689795D01*
X12076836Y9695129D01*
X12089587Y9702139D01*
X12101372Y9710724D01*
X12111990Y9720681D01*
X12121235Y9731857D01*
X12129058Y9744151D01*
X12135256Y9757359D01*
X12139726Y9771176D01*
X12142470Y9785451D01*
X12143384Y9799980D01*
X12142470Y9814509D01*
X12139726Y9828834D01*
X12135256Y9842652D01*
X12129058Y9855809D01*
X12121235Y9868103D01*
X12111990Y9879330D01*
X12101372Y9889286D01*
X12089587Y9897821D01*
X12076836Y9904831D01*
X12063323Y9910216D01*
X12049201Y9913823D01*
X12034774Y9915652D01*
X12020245Y9915652D01*
X12005818Y9913823D01*
X11991695Y9910216D01*
X11978182Y9904831D01*
X11965432Y9897821D01*
X11953646Y9889286D01*
X11943029Y9879330D01*
X11933783Y9868103D01*
X11925960Y9855809D01*
X11919762Y9842652D01*
X11915292Y9828834D01*
X11912549Y9814509D01*
X11911634Y9799980D01*
X11912549Y9785451D01*
X11915292Y9771176D01*
X11919762Y9757359D01*
X11925960Y9744151D01*
X11933783Y9731857D01*
X11943029Y9720681D01*
X11953646Y9710724D01*
X11965432Y9702139D01*
X11978182Y9695129D01*
X11991695Y9689795D01*
X12005818Y9686188D01*
G37*
G36*
X11737898Y9619691D02*
G01*
X11753342Y9621062D01*
X11768531Y9624263D01*
X11783212Y9629241D01*
X11797233Y9635896D01*
X11810339Y9644176D01*
X11822379Y9653930D01*
X11833199Y9665055D01*
X11842597Y9677400D01*
X11850471Y9690760D01*
X11856720Y9704933D01*
X11861292Y9719767D01*
X11864035Y9735058D01*
X11864949Y9750501D01*
X11864035Y9765995D01*
X11861292Y9781286D01*
X11856720Y9796068D01*
X11850471Y9810292D01*
X11842597Y9823653D01*
X11833199Y9835946D01*
X11822379Y9847072D01*
X11810339Y9856876D01*
X11797233Y9865156D01*
X11783212Y9871811D01*
X11768531Y9876790D01*
X11753342Y9879990D01*
X11737898Y9881362D01*
X11722404Y9880904D01*
X11707063Y9878618D01*
X11692128Y9874504D01*
X11677751Y9868662D01*
X11664188Y9861194D01*
X11651589Y9852152D01*
X11640108Y9841687D01*
X11629999Y9829952D01*
X11621312Y9817100D01*
X11614251Y9803282D01*
X11608866Y9788753D01*
X11605209Y9773666D01*
X11603380Y9758273D01*
X11603380Y9742779D01*
X11605209Y9727387D01*
X11608866Y9712299D01*
X11614251Y9697770D01*
X11621312Y9683953D01*
X11629999Y9671100D01*
X11640108Y9659366D01*
X11651589Y9648901D01*
X11664188Y9639858D01*
X11677751Y9632340D01*
X11692128Y9626498D01*
X11707063Y9622434D01*
X11722404Y9620148D01*
G37*
G36*
X12877901Y9619691D02*
G01*
X12893344Y9621062D01*
X12908534Y9624263D01*
X12923215Y9629241D01*
X12937236Y9635896D01*
X12950342Y9644176D01*
X12962382Y9653930D01*
X12973202Y9665055D01*
X12982600Y9677400D01*
X12990474Y9690760D01*
X12996722Y9704933D01*
X13001294Y9719767D01*
X13004038Y9735058D01*
X13004952Y9750501D01*
X13004038Y9765995D01*
X13001294Y9781286D01*
X12996722Y9796068D01*
X12990474Y9810292D01*
X12982600Y9823653D01*
X12973202Y9835946D01*
X12962382Y9847072D01*
X12950342Y9856876D01*
X12937236Y9865156D01*
X12923215Y9871811D01*
X12908534Y9876790D01*
X12893344Y9879990D01*
X12877901Y9881362D01*
X12862407Y9880904D01*
X12847066Y9878618D01*
X12832130Y9874504D01*
X12817754Y9868662D01*
X12804190Y9861194D01*
X12791592Y9852152D01*
X12780111Y9841687D01*
X12770002Y9829952D01*
X12761315Y9817100D01*
X12754254Y9803282D01*
X12748869Y9788753D01*
X12745212Y9773666D01*
X12743383Y9758273D01*
X12743383Y9742779D01*
X12745212Y9727387D01*
X12748869Y9712299D01*
X12754254Y9697770D01*
X12761315Y9683953D01*
X12770002Y9671100D01*
X12780111Y9659366D01*
X12791592Y9648901D01*
X12804190Y9639858D01*
X12817754Y9632340D01*
X12832130Y9626498D01*
X12847066Y9622434D01*
X12862407Y9620148D01*
G37*
G36*
X13065353Y9448088D02*
G01*
X13414248Y9448088D01*
X13420547Y9448800D01*
X13425982Y9450730D01*
X13430910Y9453778D01*
X13434974Y9457893D01*
X13438073Y9462770D01*
X13440003Y9468256D01*
X13440714Y9474555D01*
X13440714Y9643414D01*
X13440003Y9649764D01*
X13438073Y9655200D01*
X13434974Y9660128D01*
X13430910Y9664192D01*
X13425982Y9667290D01*
X13420547Y9669221D01*
X13414248Y9669932D01*
X13065353Y9669932D01*
X13059054Y9669221D01*
X13053618Y9667290D01*
X13048691Y9664192D01*
X13044627Y9660128D01*
X13041528Y9655200D01*
X13039598Y9649764D01*
X13038886Y9643414D01*
X13038886Y9474555D01*
X13039598Y9468256D01*
X13041528Y9462770D01*
X13044627Y9457893D01*
X13048691Y9453778D01*
X13053618Y9450730D01*
X13059054Y9448800D01*
G37*
G36*
X12539116Y9396171D02*
G01*
X12552578Y9396628D01*
X12565888Y9398863D01*
X12578740Y9402826D01*
X12590983Y9408515D01*
X12602362Y9415780D01*
X12612624Y9424466D01*
X12621666Y9434474D01*
X12629286Y9445599D01*
X12635382Y9457588D01*
X12639802Y9470339D01*
X12642494Y9483547D01*
X12643408Y9497009D01*
X12642494Y9510471D01*
X12639802Y9523679D01*
X12635382Y9536379D01*
X12629286Y9548418D01*
X12621666Y9559544D01*
X12612624Y9569500D01*
X12602362Y9578238D01*
X12590983Y9585452D01*
X12578740Y9591141D01*
X12565888Y9595154D01*
X12552578Y9597390D01*
X12539116Y9597847D01*
X12525705Y9596475D01*
X12512598Y9593376D01*
X12500051Y9588500D01*
X12488214Y9582048D01*
X12477343Y9574022D01*
X12467691Y9564674D01*
X12459309Y9554108D01*
X12452451Y9542526D01*
X12447168Y9530080D01*
X12443612Y9517075D01*
X12441834Y9503714D01*
X12441834Y9490252D01*
X12443612Y9476892D01*
X12447168Y9463887D01*
X12452451Y9451492D01*
X12459309Y9439910D01*
X12467691Y9429343D01*
X12477343Y9419945D01*
X12488214Y9411970D01*
X12500051Y9405467D01*
X12512598Y9400641D01*
X12525705Y9397492D01*
G37*
G36*
X12054128Y9396171D02*
G01*
X12067590Y9396628D01*
X12080900Y9398863D01*
X12093752Y9402826D01*
X12105995Y9408515D01*
X12117374Y9415780D01*
X12127636Y9424466D01*
X12136678Y9434474D01*
X12144298Y9445599D01*
X12150394Y9457588D01*
X12154814Y9470339D01*
X12157506Y9483547D01*
X12158421Y9497009D01*
X12157506Y9510471D01*
X12154814Y9523679D01*
X12150394Y9536379D01*
X12144298Y9548418D01*
X12136678Y9559544D01*
X12127636Y9569500D01*
X12117374Y9578238D01*
X12105995Y9585452D01*
X12093752Y9591141D01*
X12080900Y9595154D01*
X12067590Y9597390D01*
X12054128Y9597847D01*
X12040717Y9596475D01*
X12027611Y9593376D01*
X12015063Y9588500D01*
X12003227Y9582048D01*
X11992356Y9574022D01*
X11982704Y9564674D01*
X11974322Y9554108D01*
X11967464Y9542526D01*
X11962180Y9530080D01*
X11958624Y9517075D01*
X11956846Y9503714D01*
X11956846Y9490252D01*
X11958624Y9476892D01*
X11962180Y9463887D01*
X11967464Y9451492D01*
X11974322Y9439910D01*
X11982704Y9429343D01*
X11992356Y9419945D01*
X12003227Y9411970D01*
X12015063Y9405467D01*
X12027611Y9400641D01*
X12040717Y9397492D01*
G37*
G36*
X1570532Y1627479D02*
G01*
X1570532Y1689557D01*
X1508607Y1689557D01*
X1511249Y1684121D01*
X1520037Y1670456D01*
X1530299Y1657908D01*
X1541932Y1646631D01*
X1554784Y1636725D01*
X1568704Y1628343D01*
G37*
G36*
X4070553Y1627479D02*
G01*
X4070553Y1689557D01*
X4008628Y1689557D01*
X4011269Y1684121D01*
X4020058Y1670456D01*
X4030319Y1657908D01*
X4041952Y1646631D01*
X4054805Y1636725D01*
X4068673Y1628343D01*
G37*
G36*
X6570573Y1627479D02*
G01*
X6570573Y1689557D01*
X6508597Y1689557D01*
X6511290Y1684121D01*
X6520027Y1670456D01*
X6530289Y1657908D01*
X6541922Y1646631D01*
X6554774Y1636725D01*
X6568694Y1628343D01*
G37*
G36*
X9070543Y1627479D02*
G01*
X9070543Y1689557D01*
X9008618Y1689557D01*
X9011259Y1684121D01*
X9020048Y1670456D01*
X9030309Y1657908D01*
X9041942Y1646631D01*
X9054795Y1636725D01*
X9068714Y1628343D01*
G37*
G36*
X1699463Y1627581D02*
G01*
X1708404Y1632305D01*
X1721764Y1641449D01*
X1734057Y1652117D01*
X1744980Y1664055D01*
X1754530Y1677162D01*
X1761540Y1689557D01*
X1699463Y1689557D01*
G37*
G36*
X4199432Y1627581D02*
G01*
X4208373Y1632305D01*
X4221784Y1641449D01*
X4234027Y1652117D01*
X4245000Y1664055D01*
X4254550Y1677162D01*
X4261510Y1689557D01*
X4199432Y1689557D01*
G37*
G36*
X6699453Y1627581D02*
G01*
X6708394Y1632305D01*
X6721754Y1641449D01*
X6734048Y1652117D01*
X6745020Y1664055D01*
X6754520Y1677162D01*
X6761530Y1689557D01*
X6699453Y1689557D01*
G37*
G36*
X9199473Y1627581D02*
G01*
X9208363Y1632305D01*
X9221774Y1641449D01*
X9234017Y1652117D01*
X9244990Y1664055D01*
X9254540Y1677162D01*
X9261551Y1689557D01*
X9199473Y1689557D01*
G37*
G36*
X1699463Y1818436D02*
G01*
X1761540Y1818436D01*
X1754530Y1830832D01*
X1744980Y1843938D01*
X1734057Y1855876D01*
X1721764Y1866544D01*
X1708404Y1875688D01*
X1699463Y1880412D01*
G37*
G36*
X6699453Y1818436D02*
G01*
X6761530Y1818436D01*
X6754520Y1830832D01*
X6745020Y1843938D01*
X6734048Y1855876D01*
X6721754Y1866544D01*
X6708394Y1875688D01*
X6699453Y1880412D01*
G37*
G36*
X4199432Y1818436D02*
G01*
X4261510Y1818436D01*
X4254550Y1830832D01*
X4245000Y1843938D01*
X4234027Y1855876D01*
X4221784Y1866544D01*
X4208373Y1875688D01*
X4199432Y1880412D01*
G37*
G36*
X9199473Y1818436D02*
G01*
X9261551Y1818436D01*
X9254540Y1830832D01*
X9244990Y1843938D01*
X9234017Y1855876D01*
X9221774Y1866544D01*
X9208363Y1875688D01*
X9199473Y1880412D01*
G37*
G36*
X1508607Y1818436D02*
G01*
X1570532Y1818436D01*
X1570532Y1880514D01*
X1568704Y1879650D01*
X1554784Y1871319D01*
X1541932Y1861413D01*
X1530299Y1850085D01*
X1520037Y1837537D01*
X1511249Y1823872D01*
G37*
G36*
X4008628Y1818436D02*
G01*
X4070553Y1818436D01*
X4070553Y1880514D01*
X4068673Y1879650D01*
X4054805Y1871319D01*
X4041952Y1861413D01*
X4030319Y1850085D01*
X4020058Y1837537D01*
X4011269Y1823872D01*
G37*
G36*
X9008618Y1818436D02*
G01*
X9070543Y1818436D01*
X9070543Y1880514D01*
X9068714Y1879650D01*
X9054795Y1871319D01*
X9041942Y1861413D01*
X9030309Y1850085D01*
X9020048Y1837537D01*
X9011259Y1823872D01*
G37*
G36*
X6508597Y1818436D02*
G01*
X6570573Y1818436D01*
X6570573Y1880514D01*
X6568694Y1879650D01*
X6554774Y1871319D01*
X6541922Y1861413D01*
X6530289Y1850085D01*
X6520027Y1837537D01*
X6511290Y1823872D01*
G37*
G36*
X13333628Y9353854D02*
G01*
X13440714Y9353854D01*
X13440714Y9389414D01*
X13440003Y9395764D01*
X13438073Y9401200D01*
X13434974Y9406128D01*
X13430910Y9410192D01*
X13425982Y9413290D01*
X13420547Y9415221D01*
X13414248Y9415932D01*
X13333628Y9415932D01*
G37*
G36*
X11159286Y9353854D02*
G01*
X11266373Y9353854D01*
X11266373Y9415932D01*
X11185753Y9415932D01*
X11179454Y9415221D01*
X11174018Y9413290D01*
X11169091Y9410192D01*
X11165027Y9406128D01*
X11161928Y9401200D01*
X11159998Y9395764D01*
X11159286Y9389414D01*
G37*
G36*
X1380998Y3464814D02*
G01*
X1404213Y3465779D01*
X1427276Y3468674D01*
X1450035Y3473450D01*
X1472285Y3480054D01*
X1493926Y3488486D01*
X1514805Y3498697D01*
X1534769Y3510635D01*
X1553718Y3524097D01*
X1571447Y3539134D01*
X1587855Y3555593D01*
X1602892Y3573322D01*
X1616405Y3592220D01*
X1628292Y3612184D01*
X1638503Y3633063D01*
X1646936Y3654704D01*
X1653590Y3676954D01*
X1658315Y3699713D01*
X1661210Y3722776D01*
X1662175Y3745992D01*
X1661210Y3769207D01*
X1658315Y3792270D01*
X1653590Y3815029D01*
X1646936Y3837279D01*
X1638503Y3858920D01*
X1628292Y3879799D01*
X1616405Y3899763D01*
X1602892Y3918712D01*
X1587855Y3936441D01*
X1571447Y3952849D01*
X1553718Y3967886D01*
X1534769Y3981399D01*
X1514805Y3993286D01*
X1493926Y4003497D01*
X1472285Y4011929D01*
X1450035Y4018584D01*
X1427276Y4023309D01*
X1404213Y4026204D01*
X1380998Y4027170D01*
X1357782Y4026204D01*
X1334719Y4023309D01*
X1311960Y4018584D01*
X1289710Y4011929D01*
X1268069Y4003497D01*
X1247190Y3993286D01*
X1227226Y3981399D01*
X1208278Y3967886D01*
X1190548Y3952849D01*
X1174140Y3936441D01*
X1159103Y3918712D01*
X1145590Y3899763D01*
X1133703Y3879799D01*
X1123492Y3858920D01*
X1115060Y3837279D01*
X1108456Y3815029D01*
X1103680Y3792270D01*
X1100785Y3769207D01*
X1099820Y3745992D01*
X1100785Y3722776D01*
X1103680Y3699713D01*
X1108456Y3676954D01*
X1115060Y3654704D01*
X1123492Y3633063D01*
X1133703Y3612184D01*
X1145590Y3592220D01*
X1159103Y3573322D01*
X1174140Y3555593D01*
X1190548Y3539134D01*
X1208278Y3524097D01*
X1227226Y3510635D01*
X1247190Y3498697D01*
X1268069Y3488486D01*
X1289710Y3480054D01*
X1311960Y3473450D01*
X1334719Y3468674D01*
X1357782Y3465779D01*
G37*
G36*
X6380988Y3464814D02*
G01*
X6404203Y3465779D01*
X6427266Y3468674D01*
X6450025Y3473450D01*
X6472275Y3480054D01*
X6493967Y3488486D01*
X6514846Y3498697D01*
X6534810Y3510635D01*
X6553708Y3524097D01*
X6571437Y3539134D01*
X6587845Y3555593D01*
X6602882Y3573322D01*
X6616395Y3592220D01*
X6628282Y3612184D01*
X6638493Y3633063D01*
X6646925Y3654704D01*
X6653580Y3676954D01*
X6658356Y3699713D01*
X6661200Y3722776D01*
X6662166Y3745992D01*
X6661200Y3769207D01*
X6658356Y3792270D01*
X6653580Y3815029D01*
X6646925Y3837279D01*
X6638493Y3858920D01*
X6628282Y3879799D01*
X6616395Y3899763D01*
X6602882Y3918712D01*
X6587845Y3936441D01*
X6571437Y3952849D01*
X6553708Y3967886D01*
X6534810Y3981399D01*
X6514846Y3993286D01*
X6493967Y4003497D01*
X6472275Y4011929D01*
X6450025Y4018584D01*
X6427266Y4023309D01*
X6404203Y4026204D01*
X6380988Y4027170D01*
X6357772Y4026204D01*
X6334709Y4023309D01*
X6312001Y4018584D01*
X6289700Y4011929D01*
X6268059Y4003497D01*
X6247180Y3993286D01*
X6227216Y3981399D01*
X6208318Y3967886D01*
X6190589Y3952849D01*
X6174130Y3936441D01*
X6159093Y3918712D01*
X6145631Y3899763D01*
X6133744Y3879799D01*
X6123533Y3858920D01*
X6115050Y3837279D01*
X6108446Y3815029D01*
X6103670Y3792270D01*
X6100775Y3769207D01*
X6099810Y3745992D01*
X6100775Y3722776D01*
X6103670Y3699713D01*
X6108446Y3676954D01*
X6115050Y3654704D01*
X6123533Y3633063D01*
X6133744Y3612184D01*
X6145631Y3592220D01*
X6159093Y3573322D01*
X6174130Y3555593D01*
X6190589Y3539134D01*
X6208318Y3524097D01*
X6227216Y3510635D01*
X6247180Y3498697D01*
X6268059Y3488486D01*
X6289700Y3480054D01*
X6312001Y3473450D01*
X6334709Y3468674D01*
X6357772Y3465779D01*
G37*
G36*
X3881018Y3464814D02*
G01*
X3904234Y3465779D01*
X3927297Y3468674D01*
X3950004Y3473450D01*
X3972306Y3480054D01*
X3993946Y3488486D01*
X4014825Y3498697D01*
X4034790Y3510635D01*
X4053687Y3524097D01*
X4071416Y3539134D01*
X4087876Y3555593D01*
X4102862Y3573322D01*
X4116374Y3592220D01*
X4128262Y3612184D01*
X4138472Y3633063D01*
X4146956Y3654704D01*
X4153560Y3676954D01*
X4158335Y3699713D01*
X4161231Y3722776D01*
X4162145Y3745992D01*
X4161231Y3769207D01*
X4158335Y3792270D01*
X4153560Y3815029D01*
X4146956Y3837279D01*
X4138472Y3858920D01*
X4128262Y3879799D01*
X4116374Y3899763D01*
X4102862Y3918712D01*
X4087876Y3936441D01*
X4071416Y3952849D01*
X4053687Y3967886D01*
X4034790Y3981399D01*
X4014825Y3993286D01*
X3993946Y4003497D01*
X3972306Y4011929D01*
X3950004Y4018584D01*
X3927297Y4023309D01*
X3904234Y4026204D01*
X3881018Y4027170D01*
X3857802Y4026204D01*
X3834739Y4023309D01*
X3811981Y4018584D01*
X3789679Y4011929D01*
X3768039Y4003497D01*
X3747160Y3993286D01*
X3727196Y3981399D01*
X3708298Y3967886D01*
X3690569Y3952849D01*
X3674160Y3936441D01*
X3659124Y3918712D01*
X3645611Y3899763D01*
X3633724Y3879799D01*
X3623513Y3858920D01*
X3615080Y3837279D01*
X3608425Y3815029D01*
X3603650Y3792270D01*
X3600805Y3769207D01*
X3599840Y3745992D01*
X3600805Y3722776D01*
X3603650Y3699713D01*
X3608425Y3676954D01*
X3615080Y3654704D01*
X3623513Y3633063D01*
X3633724Y3612184D01*
X3645611Y3592220D01*
X3659124Y3573322D01*
X3674160Y3555593D01*
X3690569Y3539134D01*
X3708298Y3524097D01*
X3727196Y3510635D01*
X3747160Y3498697D01*
X3768039Y3488486D01*
X3789679Y3480054D01*
X3811981Y3473450D01*
X3834739Y3468674D01*
X3857802Y3465779D01*
G37*
G36*
X8881008Y3464814D02*
G01*
X8904224Y3465779D01*
X8927287Y3468674D01*
X8950045Y3473450D01*
X8972296Y3480054D01*
X8993936Y3488486D01*
X9014815Y3498697D01*
X9034780Y3510635D01*
X9053677Y3524097D01*
X9071406Y3539134D01*
X9087866Y3555593D01*
X9102902Y3573322D01*
X9116364Y3592220D01*
X9128302Y3612184D01*
X9138513Y3633063D01*
X9146946Y3654704D01*
X9153550Y3676954D01*
X9158325Y3699713D01*
X9161221Y3722776D01*
X9162186Y3745992D01*
X9161221Y3769207D01*
X9158325Y3792270D01*
X9153550Y3815029D01*
X9146946Y3837279D01*
X9138513Y3858920D01*
X9128302Y3879799D01*
X9116364Y3899763D01*
X9102902Y3918712D01*
X9087866Y3936441D01*
X9071406Y3952849D01*
X9053677Y3967886D01*
X9034780Y3981399D01*
X9014815Y3993286D01*
X8993936Y4003497D01*
X8972296Y4011929D01*
X8950045Y4018584D01*
X8927287Y4023309D01*
X8904224Y4026204D01*
X8881008Y4027170D01*
X8857792Y4026204D01*
X8834729Y4023309D01*
X8811971Y4018584D01*
X8789720Y4011929D01*
X8768080Y4003497D01*
X8747201Y3993286D01*
X8727236Y3981399D01*
X8708288Y3967886D01*
X8690559Y3952849D01*
X8674150Y3936441D01*
X8659114Y3918712D01*
X8645601Y3899763D01*
X8633714Y3879799D01*
X8623503Y3858920D01*
X8615070Y3837279D01*
X8608415Y3815029D01*
X8603691Y3792270D01*
X8600795Y3769207D01*
X8599830Y3745992D01*
X8600795Y3722776D01*
X8603691Y3699713D01*
X8608415Y3676954D01*
X8615070Y3654704D01*
X8623503Y3633063D01*
X8633714Y3612184D01*
X8645601Y3592220D01*
X8659114Y3573322D01*
X8674150Y3555593D01*
X8690559Y3539134D01*
X8708288Y3524097D01*
X8727236Y3510635D01*
X8747201Y3498697D01*
X8768080Y3488486D01*
X8789720Y3480054D01*
X8811971Y3473450D01*
X8834729Y3468674D01*
X8857792Y3465779D01*
G37*
G36*
X1880463Y3588867D02*
G01*
X1897532Y3588867D01*
X1914448Y3590747D01*
X1931111Y3594404D01*
X1947214Y3599840D01*
X1962708Y3607003D01*
X1977288Y3615791D01*
X1990852Y3626104D01*
X2003247Y3637787D01*
X2014270Y3650792D01*
X2023821Y3664864D01*
X2031796Y3679951D01*
X2038096Y3695750D01*
X2042668Y3712159D01*
X2045411Y3728974D01*
X2046325Y3745992D01*
X2045411Y3763010D01*
X2042668Y3779824D01*
X2038096Y3796233D01*
X2031796Y3812082D01*
X2023821Y3827119D01*
X2014270Y3841191D01*
X2003247Y3854196D01*
X1990852Y3865930D01*
X1977288Y3876243D01*
X1962708Y3885031D01*
X1947214Y3892143D01*
X1931111Y3897579D01*
X1914448Y3901287D01*
X1897532Y3903116D01*
X1880463Y3903116D01*
X1863547Y3901287D01*
X1846884Y3897579D01*
X1830781Y3892143D01*
X1815287Y3885031D01*
X1800707Y3876243D01*
X1787143Y3865930D01*
X1774748Y3854196D01*
X1763725Y3841191D01*
X1754174Y3827119D01*
X1746199Y3812082D01*
X1739900Y3796233D01*
X1735328Y3779824D01*
X1732584Y3763010D01*
X1731670Y3745992D01*
X1732584Y3728974D01*
X1735328Y3712159D01*
X1739900Y3695750D01*
X1746199Y3679951D01*
X1754174Y3664864D01*
X1763725Y3650792D01*
X1774748Y3637787D01*
X1787143Y3626104D01*
X1800707Y3615791D01*
X1815287Y3607003D01*
X1830781Y3599840D01*
X1846884Y3594404D01*
X1863547Y3590747D01*
G37*
G36*
X6880504Y3588867D02*
G01*
X6897522Y3588867D01*
X6914438Y3590747D01*
X6931101Y3594404D01*
X6947255Y3599840D01*
X6962698Y3607003D01*
X6977278Y3615791D01*
X6990842Y3626104D01*
X7003237Y3637787D01*
X7014260Y3650792D01*
X7023811Y3664864D01*
X7031786Y3679951D01*
X7038086Y3695750D01*
X7042658Y3712159D01*
X7045401Y3728974D01*
X7046315Y3745992D01*
X7045401Y3763010D01*
X7042658Y3779824D01*
X7038086Y3796233D01*
X7031786Y3812082D01*
X7023811Y3827119D01*
X7014260Y3841191D01*
X7003237Y3854196D01*
X6990842Y3865930D01*
X6977278Y3876243D01*
X6962698Y3885031D01*
X6947255Y3892143D01*
X6931101Y3897579D01*
X6914438Y3901287D01*
X6897522Y3903116D01*
X6880504Y3903116D01*
X6863537Y3901287D01*
X6846925Y3897579D01*
X6830771Y3892143D01*
X6815277Y3885031D01*
X6800697Y3876243D01*
X6787134Y3865930D01*
X6774789Y3854196D01*
X6763766Y3841191D01*
X6754164Y3827119D01*
X6746189Y3812082D01*
X6739890Y3796233D01*
X6735318Y3779824D01*
X6732574Y3763010D01*
X6731660Y3745992D01*
X6732574Y3728974D01*
X6735318Y3712159D01*
X6739890Y3695750D01*
X6746189Y3679951D01*
X6754164Y3664864D01*
X6763766Y3650792D01*
X6774789Y3637787D01*
X6787134Y3626104D01*
X6800697Y3615791D01*
X6815277Y3607003D01*
X6830771Y3599840D01*
X6846925Y3594404D01*
X6863537Y3590747D01*
G37*
G36*
X9380474Y3588867D02*
G01*
X9397542Y3588867D01*
X9414459Y3590747D01*
X9431070Y3594404D01*
X9447225Y3599840D01*
X9462719Y3607003D01*
X9477298Y3615791D01*
X9490862Y3626104D01*
X9503206Y3637787D01*
X9514281Y3650792D01*
X9523831Y3664864D01*
X9531807Y3679951D01*
X9538106Y3695750D01*
X9542678Y3712159D01*
X9545421Y3728974D01*
X9546336Y3745992D01*
X9545421Y3763010D01*
X9542678Y3779824D01*
X9538106Y3796233D01*
X9531807Y3812082D01*
X9523831Y3827119D01*
X9514281Y3841191D01*
X9503206Y3854196D01*
X9490862Y3865930D01*
X9477298Y3876243D01*
X9462719Y3885031D01*
X9447225Y3892143D01*
X9431070Y3897579D01*
X9414459Y3901287D01*
X9397542Y3903116D01*
X9380474Y3903116D01*
X9363557Y3901287D01*
X9346895Y3897579D01*
X9330740Y3892143D01*
X9315297Y3885031D01*
X9300718Y3876243D01*
X9287154Y3865930D01*
X9274759Y3854196D01*
X9263735Y3841191D01*
X9254185Y3827119D01*
X9246209Y3812082D01*
X9239910Y3796233D01*
X9235338Y3779824D01*
X9232595Y3763010D01*
X9231680Y3745992D01*
X9232595Y3728974D01*
X9235338Y3712159D01*
X9239910Y3695750D01*
X9246209Y3679951D01*
X9254185Y3664864D01*
X9263735Y3650792D01*
X9274759Y3637787D01*
X9287154Y3626104D01*
X9300718Y3615791D01*
X9315297Y3607003D01*
X9330740Y3599840D01*
X9346895Y3594404D01*
X9363557Y3590747D01*
G37*
G36*
X4380484Y3588867D02*
G01*
X4397502Y3588867D01*
X4414469Y3590747D01*
X4431080Y3594404D01*
X4447235Y3599840D01*
X4462678Y3607003D01*
X4477308Y3615791D01*
X4490872Y3626104D01*
X4503216Y3637787D01*
X4514240Y3650792D01*
X4523841Y3664864D01*
X4531817Y3679951D01*
X4538116Y3695750D01*
X4542637Y3712159D01*
X4545431Y3728974D01*
X4546346Y3745992D01*
X4545431Y3763010D01*
X4542637Y3779824D01*
X4538116Y3796233D01*
X4531817Y3812082D01*
X4523841Y3827119D01*
X4514240Y3841191D01*
X4503216Y3854196D01*
X4490872Y3865930D01*
X4477308Y3876243D01*
X4462678Y3885031D01*
X4447235Y3892143D01*
X4431080Y3897579D01*
X4414469Y3901287D01*
X4397502Y3903116D01*
X4380484Y3903116D01*
X4363567Y3901287D01*
X4346905Y3897579D01*
X4330750Y3892143D01*
X4315307Y3885031D01*
X4300728Y3876243D01*
X4287164Y3865930D01*
X4274769Y3854196D01*
X4263745Y3841191D01*
X4254195Y3827119D01*
X4246219Y3812082D01*
X4239920Y3796233D01*
X4235348Y3779824D01*
X4232605Y3763010D01*
X4231640Y3745992D01*
X4232605Y3728974D01*
X4235348Y3712159D01*
X4239920Y3695750D01*
X4246219Y3679951D01*
X4254195Y3664864D01*
X4263745Y3650792D01*
X4274769Y3637787D01*
X4287164Y3626104D01*
X4300728Y3615791D01*
X4315307Y3607003D01*
X4330750Y3599840D01*
X4346905Y3594404D01*
X4363567Y3590747D01*
G37*
G36*
X864463Y3588867D02*
G01*
X881532Y3588867D01*
X898448Y3590747D01*
X915111Y3594404D01*
X931214Y3599840D01*
X946708Y3607003D01*
X961288Y3615791D01*
X974852Y3626104D01*
X987247Y3637787D01*
X998270Y3650792D01*
X1007821Y3664864D01*
X1015796Y3679951D01*
X1022096Y3695750D01*
X1026668Y3712159D01*
X1029411Y3728974D01*
X1030325Y3745992D01*
X1029411Y3763010D01*
X1026668Y3779824D01*
X1022096Y3796233D01*
X1015796Y3812082D01*
X1007821Y3827119D01*
X998016Y3841496D01*
X996137Y3844798D01*
X995629Y3848506D01*
X996492Y3852214D01*
X998626Y3855313D01*
X1001776Y3857447D01*
X1005484Y3858209D01*
X1012139Y3858412D01*
X1028242Y3860749D01*
X1043889Y3864864D01*
X1059027Y3870756D01*
X1073404Y3878326D01*
X1086764Y3887470D01*
X1099058Y3898087D01*
X1109980Y3910076D01*
X1119530Y3923182D01*
X1127506Y3937304D01*
X1133856Y3952240D01*
X1138428Y3967835D01*
X1141171Y3983786D01*
X1142085Y3999992D01*
X1141171Y4016197D01*
X1138428Y4032199D01*
X1133856Y4047744D01*
X1127099Y4063542D01*
X1126337Y4067454D01*
X1127099Y4071365D01*
X1129284Y4074668D01*
X2813100Y5758484D01*
X2816402Y5760720D01*
X2820314Y5761482D01*
X9382353Y5761482D01*
X9386265Y5760720D01*
X9389567Y5758484D01*
X9391751Y5755233D01*
X9392513Y5751322D01*
X9391751Y5747410D01*
X9389567Y5744159D01*
X9387027Y5741619D01*
X9383725Y5739384D01*
X9379813Y5738622D01*
X5200396Y5738622D01*
X5192369Y5737809D01*
X5185156Y5735624D01*
X5178450Y5732068D01*
X5172252Y5726938D01*
X3574643Y4129125D01*
X3571036Y4126788D01*
X3566820Y4126179D01*
X3562705Y4127296D01*
X3559048Y4129278D01*
X3543909Y4135120D01*
X3528212Y4139285D01*
X3512159Y4141571D01*
X3495954Y4142028D01*
X3479800Y4140657D01*
X3463899Y4137406D01*
X3448456Y4132427D01*
X3433673Y4125671D01*
X3419805Y4117289D01*
X3406952Y4107383D01*
X3395319Y4096105D01*
X3385058Y4083507D01*
X3376269Y4069892D01*
X3369106Y4055313D01*
X3363671Y4040022D01*
X3359962Y4024223D01*
X3358134Y4008120D01*
X3358134Y3991864D01*
X3359962Y3975760D01*
X3363671Y3959961D01*
X3369106Y3944670D01*
X3376269Y3930142D01*
X3383584Y3918762D01*
X3385108Y3914698D01*
X3384753Y3910380D01*
X3382721Y3906621D01*
X3379266Y3904030D01*
X3375050Y3903116D01*
X3364484Y3903116D01*
X3347567Y3901287D01*
X3330905Y3897579D01*
X3314750Y3892143D01*
X3299307Y3885031D01*
X3284728Y3876243D01*
X3271164Y3865930D01*
X3258769Y3854196D01*
X3247745Y3841191D01*
X3238195Y3827119D01*
X3230219Y3812082D01*
X3223920Y3796233D01*
X3219348Y3779824D01*
X3216605Y3763010D01*
X3215640Y3745992D01*
X3216605Y3728974D01*
X3219348Y3712159D01*
X3223920Y3695750D01*
X3230219Y3679951D01*
X3238195Y3664864D01*
X3247745Y3650792D01*
X3258769Y3637787D01*
X3271164Y3626104D01*
X3284728Y3615791D01*
X3299307Y3607003D01*
X3314750Y3599840D01*
X3330905Y3594404D01*
X3347567Y3590747D01*
X3364484Y3588867D01*
X3381501Y3588867D01*
X3398469Y3590747D01*
X3415080Y3594404D01*
X3431235Y3599840D01*
X3446678Y3607003D01*
X3461308Y3615791D01*
X3474872Y3626104D01*
X3487216Y3637787D01*
X3498240Y3650792D01*
X3507841Y3664864D01*
X3515817Y3679951D01*
X3522116Y3695750D01*
X3526637Y3712159D01*
X3529431Y3728974D01*
X3530346Y3745992D01*
X3529431Y3763010D01*
X3526637Y3779824D01*
X3522116Y3796233D01*
X3515817Y3812082D01*
X3507841Y3827119D01*
X3498037Y3841496D01*
X3496157Y3844798D01*
X3495598Y3848506D01*
X3496462Y3852214D01*
X3498646Y3855313D01*
X3501796Y3857447D01*
X3505454Y3858209D01*
X3512159Y3858412D01*
X3528212Y3860749D01*
X3543909Y3864864D01*
X3559048Y3870756D01*
X3573373Y3878326D01*
X3586784Y3887470D01*
X3599027Y3898087D01*
X3610000Y3910076D01*
X3619550Y3923182D01*
X3627526Y3937304D01*
X3633825Y3952240D01*
X3638397Y3967835D01*
X3641191Y3983786D01*
X3642106Y3999992D01*
X3641191Y4016197D01*
X3638397Y4032199D01*
X3633825Y4047744D01*
X3627170Y4063441D01*
X3626358Y4067352D01*
X3627120Y4071315D01*
X3629304Y4074617D01*
X5212892Y5658408D01*
X5216194Y5660644D01*
X5220106Y5661406D01*
X9382353Y5661406D01*
X9386265Y5660644D01*
X9389567Y5658408D01*
X9391751Y5655157D01*
X9392513Y5651246D01*
X9391751Y5647334D01*
X9389567Y5644083D01*
X9387027Y5641543D01*
X9383725Y5639308D01*
X9379813Y5638546D01*
X7600442Y5638546D01*
X7592415Y5637733D01*
X7585202Y5635548D01*
X7578496Y5631992D01*
X7572298Y5626862D01*
X6074562Y4129176D01*
X6070955Y4126839D01*
X6066739Y4126179D01*
X6062624Y4127347D01*
X6059017Y4129278D01*
X6043930Y4135120D01*
X6028232Y4139285D01*
X6012180Y4141571D01*
X5995924Y4142028D01*
X5979769Y4140657D01*
X5963869Y4137406D01*
X5948426Y4132427D01*
X5933694Y4125671D01*
X5919774Y4117289D01*
X5906922Y4107383D01*
X5895289Y4096105D01*
X5885027Y4083507D01*
X5876290Y4069892D01*
X5869127Y4055313D01*
X5863640Y4040022D01*
X5859983Y4024223D01*
X5858154Y4008120D01*
X5858154Y3991864D01*
X5859983Y3975760D01*
X5863640Y3959961D01*
X5869127Y3944670D01*
X5876290Y3930142D01*
X5883554Y3918762D01*
X5885078Y3914698D01*
X5884773Y3910380D01*
X5882690Y3906621D01*
X5879236Y3904030D01*
X5875020Y3903116D01*
X5864504Y3903116D01*
X5847537Y3901287D01*
X5830925Y3897579D01*
X5814771Y3892143D01*
X5799277Y3885031D01*
X5784697Y3876243D01*
X5771134Y3865930D01*
X5758789Y3854196D01*
X5747766Y3841191D01*
X5738164Y3827119D01*
X5730189Y3812082D01*
X5723890Y3796233D01*
X5719318Y3779824D01*
X5716574Y3763010D01*
X5715660Y3745992D01*
X5716574Y3728974D01*
X5719318Y3712159D01*
X5723890Y3695750D01*
X5730189Y3679951D01*
X5738164Y3664864D01*
X5747766Y3650792D01*
X5758789Y3637787D01*
X5771134Y3626104D01*
X5784697Y3615791D01*
X5799277Y3607003D01*
X5814771Y3599840D01*
X5830925Y3594404D01*
X5847537Y3590747D01*
X5864504Y3588867D01*
X5881522Y3588867D01*
X5898438Y3590747D01*
X5915101Y3594404D01*
X5931255Y3599840D01*
X5946698Y3607003D01*
X5961278Y3615791D01*
X5974842Y3626104D01*
X5987237Y3637787D01*
X5998260Y3650792D01*
X6007811Y3664864D01*
X6015786Y3679951D01*
X6022086Y3695750D01*
X6026658Y3712159D01*
X6029401Y3728974D01*
X6030315Y3745992D01*
X6029401Y3763010D01*
X6026658Y3779824D01*
X6022086Y3796233D01*
X6015786Y3812082D01*
X6007811Y3827119D01*
X5998006Y3841496D01*
X5996127Y3844798D01*
X5995619Y3848506D01*
X5996482Y3852214D01*
X5998616Y3855313D01*
X6001766Y3857447D01*
X6005474Y3858209D01*
X6012180Y3858412D01*
X6028232Y3860749D01*
X6043930Y3864864D01*
X6059017Y3870756D01*
X6073394Y3878326D01*
X6086754Y3887470D01*
X6099048Y3898087D01*
X6110020Y3910076D01*
X6119520Y3923182D01*
X6127496Y3937304D01*
X6133846Y3952240D01*
X6138418Y3967835D01*
X6141161Y3983786D01*
X6142075Y3999992D01*
X6141161Y4016197D01*
X6138418Y4032199D01*
X6133846Y4047744D01*
X6127140Y4063542D01*
X6126327Y4067454D01*
X6127089Y4071365D01*
X6129274Y4074668D01*
X7612938Y5558332D01*
X7616240Y5560568D01*
X7620152Y5561330D01*
X9382099Y5561330D01*
X9386011Y5560568D01*
X9389313Y5558332D01*
X9391497Y5555081D01*
X9392259Y5551170D01*
X9391497Y5547258D01*
X9389313Y5544007D01*
X8673084Y4827727D01*
X8667953Y4821529D01*
X8664397Y4814824D01*
X8662212Y4807610D01*
X8661400Y4799584D01*
X8661400Y4220108D01*
X8660638Y4216196D01*
X8658402Y4212894D01*
X8574633Y4129125D01*
X8571026Y4126788D01*
X8566810Y4126179D01*
X8562695Y4127296D01*
X8559038Y4129278D01*
X8543899Y4135120D01*
X8528202Y4139285D01*
X8512149Y4141571D01*
X8495944Y4142028D01*
X8479790Y4140657D01*
X8463889Y4137406D01*
X8448446Y4132427D01*
X8433714Y4125671D01*
X8419795Y4117289D01*
X8406942Y4107383D01*
X8395309Y4096105D01*
X8385048Y4083507D01*
X8376259Y4069892D01*
X8369096Y4055313D01*
X8363661Y4040022D01*
X8360003Y4024223D01*
X8358124Y4008120D01*
X8358124Y3991864D01*
X8360003Y3975760D01*
X8363661Y3959961D01*
X8369096Y3944670D01*
X8376259Y3930142D01*
X8383574Y3918762D01*
X8385098Y3914698D01*
X8384794Y3910380D01*
X8382711Y3906621D01*
X8379256Y3904030D01*
X8375040Y3903116D01*
X8364474Y3903116D01*
X8347557Y3901287D01*
X8330895Y3897579D01*
X8314740Y3892143D01*
X8299297Y3885031D01*
X8284718Y3876243D01*
X8271154Y3865930D01*
X8258759Y3854196D01*
X8247735Y3841191D01*
X8238185Y3827119D01*
X8230209Y3812082D01*
X8223910Y3796233D01*
X8219338Y3779824D01*
X8216595Y3763010D01*
X8215680Y3745992D01*
X8216595Y3728974D01*
X8219338Y3712159D01*
X8223910Y3695750D01*
X8230209Y3679951D01*
X8238185Y3664864D01*
X8247735Y3650792D01*
X8258759Y3637787D01*
X8271154Y3626104D01*
X8284718Y3615791D01*
X8299297Y3607003D01*
X8314740Y3599840D01*
X8330895Y3594404D01*
X8347557Y3590747D01*
X8364474Y3588867D01*
X8381542Y3588867D01*
X8398459Y3590747D01*
X8415070Y3594404D01*
X8431225Y3599840D01*
X8446719Y3607003D01*
X8461298Y3615791D01*
X8474862Y3626104D01*
X8487206Y3637787D01*
X8498281Y3650792D01*
X8507831Y3664864D01*
X8515807Y3679951D01*
X8522106Y3695750D01*
X8526678Y3712159D01*
X8529421Y3728974D01*
X8530336Y3745992D01*
X8529421Y3763010D01*
X8526678Y3779824D01*
X8522106Y3796233D01*
X8515807Y3812082D01*
X8507831Y3827119D01*
X8498027Y3841496D01*
X8496147Y3844798D01*
X8495588Y3848506D01*
X8496503Y3852214D01*
X8498636Y3855313D01*
X8501786Y3857447D01*
X8505444Y3858209D01*
X8512149Y3858412D01*
X8528202Y3860749D01*
X8543899Y3864864D01*
X8559038Y3870756D01*
X8573363Y3878326D01*
X8586774Y3887470D01*
X8599017Y3898087D01*
X8609990Y3910076D01*
X8619540Y3923182D01*
X8627516Y3937304D01*
X8633815Y3952240D01*
X8638387Y3967835D01*
X8641181Y3983786D01*
X8642096Y3999992D01*
X8641181Y4016197D01*
X8638387Y4032199D01*
X8633815Y4047744D01*
X8627160Y4063441D01*
X8626348Y4067352D01*
X8627110Y4071264D01*
X8629345Y4074617D01*
X8726932Y4172254D01*
X8732062Y4178452D01*
X8735618Y4185158D01*
X8737803Y4192371D01*
X8738616Y4200398D01*
X8738616Y4779873D01*
X8739378Y4783785D01*
X8741613Y4787087D01*
X9926828Y5972352D01*
X9931958Y5978550D01*
X9935514Y5985256D01*
X9937699Y5992469D01*
X9938512Y6000496D01*
X9938512Y6129883D01*
X9939274Y6133744D01*
X9941509Y6137046D01*
X10020096Y6215481D01*
X10023398Y6217666D01*
X10027259Y6218428D01*
X11149126Y6218377D01*
X11153038Y6217615D01*
X11156340Y6215430D01*
X11158524Y6212128D01*
X11159286Y6208217D01*
X11159286Y6172555D01*
X11159998Y6166256D01*
X11161928Y6160770D01*
X11165027Y6155893D01*
X11169091Y6151778D01*
X11174018Y6148730D01*
X11179454Y6146800D01*
X11185753Y6146088D01*
X11534648Y6146088D01*
X11540947Y6146800D01*
X11546382Y6148730D01*
X11551310Y6151778D01*
X11555374Y6155893D01*
X11558473Y6160770D01*
X11560403Y6166256D01*
X11561114Y6172555D01*
X11561114Y6341414D01*
X11560403Y6347764D01*
X11558473Y6353200D01*
X11555374Y6358128D01*
X11551310Y6362192D01*
X11546382Y6365290D01*
X11540947Y6367221D01*
X11534648Y6367932D01*
X11185753Y6367932D01*
X11179454Y6367221D01*
X11174018Y6365290D01*
X11169091Y6362192D01*
X11165027Y6358128D01*
X11161928Y6353200D01*
X11159998Y6347764D01*
X11159286Y6341414D01*
X11159286Y6305753D01*
X11158524Y6301892D01*
X11156340Y6298590D01*
X11153038Y6296406D01*
X11149126Y6295593D01*
X10007600Y6295644D01*
X9999624Y6294882D01*
X9992360Y6292697D01*
X9985705Y6289141D01*
X9979456Y6284010D01*
X9872980Y6177788D01*
X9867849Y6171539D01*
X9864293Y6164884D01*
X9862108Y6157671D01*
X9861296Y6149644D01*
X9861296Y6020206D01*
X9860534Y6016294D01*
X9858298Y6012992D01*
X9856012Y6010706D01*
X9852761Y6008522D01*
X9848850Y6007760D01*
X9844938Y6008522D01*
X9841687Y6010706D01*
X9839452Y6014008D01*
X9838690Y6017920D01*
X9838690Y6379819D01*
X9839452Y6383731D01*
X9841687Y6387033D01*
X9924084Y6469430D01*
X9927386Y6471666D01*
X9931298Y6472428D01*
X11149126Y6472377D01*
X11153038Y6471615D01*
X11156340Y6469430D01*
X11158524Y6466128D01*
X11159286Y6462217D01*
X11159286Y6426555D01*
X11159998Y6420256D01*
X11161928Y6414770D01*
X11165027Y6409893D01*
X11169091Y6405778D01*
X11174018Y6402730D01*
X11179454Y6400800D01*
X11185753Y6400088D01*
X11534648Y6400088D01*
X11540947Y6400800D01*
X11546382Y6402730D01*
X11551310Y6405778D01*
X11555374Y6409893D01*
X11558473Y6414770D01*
X11560403Y6420256D01*
X11561114Y6426555D01*
X11561114Y6595414D01*
X11560403Y6601764D01*
X11558473Y6607200D01*
X11555374Y6612128D01*
X11551310Y6616192D01*
X11546382Y6619290D01*
X11540947Y6621221D01*
X11534648Y6621932D01*
X11185753Y6621932D01*
X11179454Y6621221D01*
X11174018Y6619290D01*
X11169091Y6616192D01*
X11165027Y6612128D01*
X11161928Y6607200D01*
X11159998Y6601764D01*
X11159286Y6595414D01*
X11159286Y6559753D01*
X11158524Y6555892D01*
X11156340Y6552590D01*
X11153038Y6550406D01*
X11149126Y6549593D01*
X9911588Y6549644D01*
X9903561Y6548831D01*
X9896348Y6546646D01*
X9889642Y6543090D01*
X9883444Y6537959D01*
X9773158Y6427673D01*
X9768027Y6421475D01*
X9764471Y6414770D01*
X9762286Y6407556D01*
X9761474Y6399530D01*
X9761474Y6020206D01*
X9760712Y6016294D01*
X9758476Y6012992D01*
X9755936Y6010452D01*
X9752685Y6008268D01*
X9748774Y6007506D01*
X9744862Y6008268D01*
X9741611Y6010452D01*
X9739376Y6013754D01*
X9738614Y6017666D01*
X9738614Y6479895D01*
X9739376Y6483807D01*
X9741611Y6487109D01*
X10231932Y6977430D01*
X10235234Y6979666D01*
X10239146Y6980428D01*
X11149126Y6980377D01*
X11153038Y6979615D01*
X11156340Y6977430D01*
X11158524Y6974128D01*
X11159286Y6970217D01*
X11159286Y6934555D01*
X11159998Y6928256D01*
X11161928Y6922770D01*
X11165027Y6917893D01*
X11169091Y6913778D01*
X11174018Y6910730D01*
X11179454Y6908800D01*
X11185753Y6908088D01*
X11534648Y6908088D01*
X11540947Y6908800D01*
X11546382Y6910730D01*
X11551310Y6913778D01*
X11555374Y6917893D01*
X11558473Y6922770D01*
X11560403Y6928256D01*
X11561114Y6934555D01*
X11561114Y7103414D01*
X11560403Y7109764D01*
X11558473Y7115200D01*
X11555374Y7120128D01*
X11551310Y7124192D01*
X11546382Y7127290D01*
X11540947Y7129221D01*
X11534648Y7129932D01*
X11185753Y7129932D01*
X11179454Y7129221D01*
X11174018Y7127290D01*
X11169091Y7124192D01*
X11165027Y7120128D01*
X11161928Y7115200D01*
X11159998Y7109764D01*
X11159286Y7103414D01*
X11159286Y7067753D01*
X11158524Y7063892D01*
X11156340Y7060590D01*
X11153038Y7058406D01*
X11149126Y7057593D01*
X10219436Y7057644D01*
X10211409Y7056831D01*
X10204196Y7054646D01*
X10197490Y7051090D01*
X10191292Y7045959D01*
X9673082Y6527749D01*
X9667951Y6521551D01*
X9664395Y6514846D01*
X9662210Y6507632D01*
X9661398Y6499606D01*
X9661398Y6020206D01*
X9660636Y6016294D01*
X9658400Y6012992D01*
X9655860Y6010452D01*
X9652609Y6008268D01*
X9648698Y6007506D01*
X9644786Y6008268D01*
X9641535Y6010452D01*
X9639300Y6013754D01*
X9638538Y6017666D01*
X9638538Y6785711D01*
X9639300Y6789623D01*
X9641535Y6792925D01*
X10080040Y7231430D01*
X10083342Y7233666D01*
X10087254Y7234428D01*
X11149126Y7234377D01*
X11153038Y7233615D01*
X11156340Y7231430D01*
X11158524Y7228128D01*
X11159286Y7224217D01*
X11159286Y7188555D01*
X11159998Y7182256D01*
X11161928Y7176770D01*
X11165027Y7171893D01*
X11169091Y7167778D01*
X11174018Y7164730D01*
X11179454Y7162800D01*
X11185753Y7162088D01*
X11534648Y7162088D01*
X11540947Y7162800D01*
X11546382Y7164730D01*
X11551310Y7167778D01*
X11555374Y7171893D01*
X11558473Y7176770D01*
X11560403Y7182256D01*
X11561114Y7188555D01*
X11561114Y7357414D01*
X11560403Y7363764D01*
X11558473Y7369200D01*
X11555374Y7374128D01*
X11551310Y7378192D01*
X11546382Y7381290D01*
X11540947Y7383221D01*
X11534648Y7383932D01*
X11185753Y7383932D01*
X11179454Y7383221D01*
X11174018Y7381290D01*
X11169091Y7378192D01*
X11165027Y7374128D01*
X11161928Y7369200D01*
X11159998Y7363764D01*
X11159286Y7357414D01*
X11159286Y7321753D01*
X11158524Y7317892D01*
X11156340Y7314590D01*
X11153038Y7312406D01*
X11149126Y7311593D01*
X10067544Y7311644D01*
X10059517Y7310831D01*
X10052304Y7308646D01*
X10045598Y7305090D01*
X10039400Y7299959D01*
X9573006Y6833565D01*
X9567875Y6827367D01*
X9564319Y6820662D01*
X9562134Y6813448D01*
X9561322Y6805422D01*
X9561322Y6287160D01*
X9560458Y6283147D01*
X9558070Y6279743D01*
X9554565Y6277610D01*
X9550450Y6277051D01*
X9546488Y6278168D01*
X9543288Y6280759D01*
X9541357Y6284468D01*
X9538106Y6296253D01*
X9531807Y6312052D01*
X9523831Y6327140D01*
X9514281Y6341211D01*
X9503206Y6354216D01*
X9490862Y6365900D01*
X9477298Y6376212D01*
X9462719Y6385001D01*
X9447225Y6392164D01*
X9431070Y6397599D01*
X9414459Y6401257D01*
X9397542Y6403086D01*
X9380474Y6403086D01*
X9363557Y6401257D01*
X9346895Y6397599D01*
X9330740Y6392164D01*
X9315297Y6385001D01*
X9300718Y6376212D01*
X9287154Y6365900D01*
X9274759Y6354216D01*
X9263735Y6341211D01*
X9254185Y6327140D01*
X9246209Y6312052D01*
X9239910Y6296253D01*
X9235338Y6279845D01*
X9232595Y6263030D01*
X9231680Y6246012D01*
X9232595Y6228994D01*
X9235338Y6212179D01*
X9239910Y6195771D01*
X9246209Y6179921D01*
X9254185Y6164884D01*
X9263735Y6150762D01*
X9274759Y6137808D01*
X9287154Y6126073D01*
X9300718Y6115761D01*
X9315297Y6106972D01*
X9330740Y6099860D01*
X9346895Y6094374D01*
X9363557Y6090716D01*
X9380474Y6088888D01*
X9397542Y6088888D01*
X9414459Y6090716D01*
X9431070Y6094374D01*
X9447225Y6099860D01*
X9462719Y6106972D01*
X9477298Y6115761D01*
X9490862Y6126073D01*
X9503206Y6137808D01*
X9514281Y6150762D01*
X9523831Y6164884D01*
X9531807Y6179921D01*
X9538106Y6195771D01*
X9541357Y6207556D01*
X9543288Y6211214D01*
X9546488Y6213856D01*
X9550450Y6214973D01*
X9554565Y6214414D01*
X9558070Y6212230D01*
X9560458Y6208877D01*
X9561322Y6204813D01*
X9561322Y6020206D01*
X9560560Y6016294D01*
X9558324Y6012992D01*
X9387027Y5841695D01*
X9383725Y5839460D01*
X9379813Y5838698D01*
X2800604Y5838698D01*
X2792577Y5837885D01*
X2785364Y5835700D01*
X2778658Y5832144D01*
X2772460Y5827014D01*
X1074572Y4129176D01*
X1070965Y4126839D01*
X1066749Y4126179D01*
X1062634Y4127347D01*
X1059027Y4129278D01*
X1043889Y4135120D01*
X1028242Y4139285D01*
X1012139Y4141571D01*
X995934Y4142028D01*
X979779Y4140657D01*
X963879Y4137406D01*
X948436Y4132427D01*
X933703Y4125671D01*
X919784Y4117289D01*
X906932Y4107383D01*
X895299Y4096105D01*
X885037Y4083507D01*
X876249Y4069892D01*
X869137Y4055313D01*
X863650Y4040022D01*
X859993Y4024223D01*
X858113Y4008120D01*
X858113Y3991864D01*
X859993Y3975760D01*
X863650Y3959961D01*
X869137Y3944670D01*
X876249Y3930142D01*
X883564Y3918762D01*
X885088Y3914698D01*
X884783Y3910380D01*
X882700Y3906621D01*
X879246Y3904030D01*
X875030Y3903116D01*
X864463Y3903116D01*
X847547Y3901287D01*
X830884Y3897579D01*
X814781Y3892143D01*
X799287Y3885031D01*
X784707Y3876243D01*
X771144Y3865930D01*
X758748Y3854196D01*
X747725Y3841191D01*
X738174Y3827119D01*
X730199Y3812082D01*
X723900Y3796233D01*
X719328Y3779824D01*
X716584Y3763010D01*
X715670Y3745992D01*
X716584Y3728974D01*
X719328Y3712159D01*
X723900Y3695750D01*
X730199Y3679951D01*
X738174Y3664864D01*
X747725Y3650792D01*
X758748Y3637787D01*
X771144Y3626104D01*
X784707Y3615791D01*
X799287Y3607003D01*
X814781Y3599840D01*
X830884Y3594404D01*
X847547Y3590747D01*
G37*
G36*
X11459870Y9353854D02*
G01*
X11561114Y9353854D01*
X11561114Y9389414D01*
X11560403Y9395764D01*
X11558473Y9401200D01*
X11555374Y9406128D01*
X11551310Y9410192D01*
X11546382Y9413290D01*
X11540947Y9415221D01*
X11534648Y9415932D01*
X11459870Y9415932D01*
G37*
G36*
X13038886Y9353854D02*
G01*
X13140131Y9353854D01*
X13140131Y9415932D01*
X13065353Y9415932D01*
X13059054Y9415221D01*
X13053618Y9413290D01*
X13048691Y9410192D01*
X13044627Y9406128D01*
X13041528Y9401200D01*
X13039598Y9395764D01*
X13038886Y9389414D01*
G37*
G36*
X9008618Y9318447D02*
G01*
X9070543Y9318447D01*
X9070543Y9380524D01*
X9068714Y9379661D01*
X9054795Y9371279D01*
X9041942Y9361373D01*
X9030309Y9350095D01*
X9020048Y9337497D01*
X9011259Y9323882D01*
G37*
G36*
X6508597Y9318447D02*
G01*
X6570573Y9318447D01*
X6570573Y9380524D01*
X6568694Y9379661D01*
X6554774Y9371279D01*
X6541922Y9361373D01*
X6530289Y9350095D01*
X6520027Y9337497D01*
X6511290Y9323882D01*
G37*
G36*
X4008628Y9318447D02*
G01*
X4070553Y9318447D01*
X4070553Y9380524D01*
X4068673Y9379661D01*
X4054805Y9371279D01*
X4041952Y9361373D01*
X4030319Y9350095D01*
X4020058Y9337497D01*
X4011269Y9323882D01*
G37*
G36*
X1508607Y9318447D02*
G01*
X1570532Y9318447D01*
X1570532Y9380524D01*
X1568704Y9379661D01*
X1554784Y9371279D01*
X1541932Y9361373D01*
X1530299Y9350095D01*
X1520037Y9337497D01*
X1511249Y9323882D01*
G37*
G36*
X9199473Y9318447D02*
G01*
X9261551Y9318447D01*
X9254540Y9330842D01*
X9244990Y9343948D01*
X9234017Y9355886D01*
X9221774Y9366504D01*
X9208363Y9375698D01*
X9199473Y9380372D01*
G37*
G36*
X1570532Y4127500D02*
G01*
X1570532Y4189526D01*
X1508607Y4189526D01*
X1511249Y4184142D01*
X1520037Y4170476D01*
X1530299Y4157929D01*
X1541932Y4146600D01*
X1554784Y4136694D01*
X1568704Y4128312D01*
G37*
G36*
X9070543Y4127500D02*
G01*
X9070543Y4189526D01*
X9008618Y4189526D01*
X9011259Y4184142D01*
X9020048Y4170476D01*
X9030309Y4157929D01*
X9041942Y4146600D01*
X9054795Y4136694D01*
X9068714Y4128312D01*
G37*
G36*
X6570573Y4127500D02*
G01*
X6570573Y4189526D01*
X6508597Y4189526D01*
X6511290Y4184142D01*
X6520027Y4170476D01*
X6530289Y4157929D01*
X6541922Y4146600D01*
X6554774Y4136694D01*
X6568694Y4128312D01*
G37*
G36*
X4070553Y4127500D02*
G01*
X4070553Y4189526D01*
X4008628Y4189526D01*
X4011269Y4184142D01*
X4020058Y4170476D01*
X4030319Y4157929D01*
X4041952Y4146600D01*
X4054805Y4136694D01*
X4068673Y4128312D01*
G37*
G36*
X1699463Y4127601D02*
G01*
X1708404Y4132326D01*
X1721764Y4141470D01*
X1734057Y4152087D01*
X1744980Y4164076D01*
X1754530Y4177182D01*
X1761540Y4189526D01*
X1699463Y4189526D01*
G37*
G36*
X6699453Y4127601D02*
G01*
X6708394Y4132326D01*
X6721754Y4141470D01*
X6734048Y4152087D01*
X6745020Y4164076D01*
X6754520Y4177182D01*
X6761530Y4189526D01*
X6699453Y4189526D01*
G37*
G36*
X4199432Y4127601D02*
G01*
X4208373Y4132326D01*
X4221784Y4141470D01*
X4234027Y4152087D01*
X4245000Y4164076D01*
X4254550Y4177182D01*
X4261510Y4189526D01*
X4199432Y4189526D01*
G37*
G36*
X9199473Y4127601D02*
G01*
X9208363Y4132326D01*
X9221774Y4141470D01*
X9234017Y4152087D01*
X9244990Y4164076D01*
X9254540Y4177182D01*
X9261551Y4189526D01*
X9199473Y4189526D01*
G37*
G36*
X1699463Y4318457D02*
G01*
X1761540Y4318457D01*
X1754530Y4330801D01*
X1744980Y4343958D01*
X1734057Y4355896D01*
X1721764Y4366514D01*
X1708404Y4375708D01*
X1699463Y4380382D01*
G37*
G36*
X6699453Y4318457D02*
G01*
X6761530Y4318457D01*
X6754520Y4330801D01*
X6745020Y4343958D01*
X6734048Y4355896D01*
X6721754Y4366514D01*
X6708394Y4375708D01*
X6699453Y4380382D01*
G37*
G36*
X9199473Y4318457D02*
G01*
X9261551Y4318457D01*
X9254540Y4330801D01*
X9244990Y4343958D01*
X9234017Y4355896D01*
X9221774Y4366514D01*
X9208363Y4375708D01*
X9199473Y4380382D01*
G37*
G36*
X4199432Y4318457D02*
G01*
X4261510Y4318457D01*
X4254550Y4330801D01*
X4245000Y4343958D01*
X4234027Y4355896D01*
X4221784Y4366514D01*
X4208373Y4375708D01*
X4199432Y4380382D01*
G37*
G36*
X1508607Y4318457D02*
G01*
X1570532Y4318457D01*
X1570532Y4380534D01*
X1568704Y4379671D01*
X1554784Y4371289D01*
X1541932Y4361383D01*
X1530299Y4350105D01*
X1520037Y4337507D01*
X1511249Y4323892D01*
G37*
G36*
X9008618Y4318457D02*
G01*
X9070543Y4318457D01*
X9070543Y4380534D01*
X9068714Y4379671D01*
X9054795Y4371289D01*
X9041942Y4361383D01*
X9030309Y4350105D01*
X9020048Y4337507D01*
X9011259Y4323892D01*
G37*
G36*
X4008628Y4318457D02*
G01*
X4070553Y4318457D01*
X4070553Y4380534D01*
X4068673Y4379671D01*
X4054805Y4371289D01*
X4041952Y4361383D01*
X4030319Y4350105D01*
X4020058Y4337507D01*
X4011269Y4323892D01*
G37*
G36*
X6508597Y4318457D02*
G01*
X6570573Y4318457D01*
X6570573Y4380534D01*
X6568694Y4379671D01*
X6554774Y4371289D01*
X6541922Y4361383D01*
X6530289Y4350105D01*
X6520027Y4337507D01*
X6511290Y4323892D01*
G37*
G36*
X12215571Y4758334D02*
G01*
X12251131Y4758334D01*
X12251131Y4865370D01*
X12189104Y4865370D01*
X12189104Y4784801D01*
X12189815Y4778451D01*
X12191695Y4773015D01*
X12194794Y4768088D01*
X12198908Y4764024D01*
X12203785Y4760925D01*
X12209272Y4759045D01*
G37*
G36*
X12348870Y4758334D02*
G01*
X12384430Y4758334D01*
X12390729Y4759045D01*
X12396216Y4760925D01*
X12401092Y4764024D01*
X12405207Y4768088D01*
X12408306Y4773015D01*
X12410186Y4778451D01*
X12410897Y4784801D01*
X12410897Y4865370D01*
X12348870Y4865370D01*
G37*
G36*
X11961571Y4758334D02*
G01*
X12130430Y4758334D01*
X12136729Y4759045D01*
X12142216Y4760925D01*
X12147092Y4764024D01*
X12151207Y4768088D01*
X12154306Y4773015D01*
X12156186Y4778451D01*
X12156897Y4784801D01*
X12156897Y5133644D01*
X12156186Y5139944D01*
X12154306Y5145430D01*
X12151207Y5150307D01*
X12147092Y5154422D01*
X12142216Y5157470D01*
X12136729Y5159400D01*
X12130430Y5160111D01*
X11961571Y5160111D01*
X11955272Y5159400D01*
X11949785Y5157470D01*
X11944908Y5154422D01*
X11940794Y5150307D01*
X11937695Y5145430D01*
X11935815Y5139944D01*
X11935104Y5133644D01*
X11935104Y4784801D01*
X11935815Y4778451D01*
X11937695Y4773015D01*
X11940794Y4768088D01*
X11944908Y4764024D01*
X11949785Y4760925D01*
X11955272Y4759045D01*
G37*
G36*
X12469571Y4758334D02*
G01*
X12638430Y4758334D01*
X12644729Y4759045D01*
X12650216Y4760925D01*
X12655092Y4764024D01*
X12659207Y4768088D01*
X12662306Y4773015D01*
X12664186Y4778451D01*
X12664897Y4784801D01*
X12664897Y5133644D01*
X12664186Y5139944D01*
X12662306Y5145430D01*
X12659207Y5150307D01*
X12655092Y5154422D01*
X12650216Y5157470D01*
X12644729Y5159400D01*
X12638430Y5160111D01*
X12469571Y5160111D01*
X12463272Y5159400D01*
X12457785Y5157470D01*
X12452908Y5154422D01*
X12448794Y5150307D01*
X12445695Y5145430D01*
X12443815Y5139944D01*
X12443104Y5133644D01*
X12443104Y4784801D01*
X12443815Y4778451D01*
X12445695Y4773015D01*
X12448794Y4768088D01*
X12452908Y4764024D01*
X12457785Y4760925D01*
X12463272Y4759045D01*
G37*
G36*
X13065353Y4876088D02*
G01*
X13414248Y4876088D01*
X13420547Y4876800D01*
X13425982Y4878730D01*
X13430910Y4881778D01*
X13434974Y4885893D01*
X13438073Y4890770D01*
X13440003Y4896256D01*
X13440714Y4902555D01*
X13440714Y5071414D01*
X13440003Y5077764D01*
X13438073Y5083200D01*
X13434974Y5088128D01*
X13430910Y5092192D01*
X13425982Y5095290D01*
X13420547Y5097221D01*
X13414248Y5097932D01*
X13065353Y5097932D01*
X13059054Y5097221D01*
X13053618Y5095290D01*
X13048691Y5092192D01*
X13044627Y5088128D01*
X13041528Y5083200D01*
X13039598Y5077764D01*
X13038886Y5071414D01*
X13038886Y4902555D01*
X13039598Y4896256D01*
X13041528Y4890770D01*
X13044627Y4885893D01*
X13048691Y4881778D01*
X13053618Y4878730D01*
X13059054Y4876800D01*
G37*
G36*
X4199432Y9318447D02*
G01*
X4261510Y9318447D01*
X4254550Y9330842D01*
X4245000Y9343948D01*
X4234027Y9355886D01*
X4221784Y9366504D01*
X4208373Y9375698D01*
X4199432Y9380372D01*
G37*
G36*
X11737898Y4919675D02*
G01*
X11753342Y4921046D01*
X11768531Y4924247D01*
X11783212Y4929225D01*
X11797233Y4935880D01*
X11810339Y4944160D01*
X11822379Y4953914D01*
X11833199Y4965039D01*
X11842597Y4977384D01*
X11850471Y4990744D01*
X11856720Y5004917D01*
X11861292Y5019751D01*
X11864035Y5035042D01*
X11864949Y5050485D01*
X11864035Y5065979D01*
X11861292Y5081270D01*
X11856720Y5096052D01*
X11850471Y5110276D01*
X11842597Y5123637D01*
X11833199Y5135930D01*
X11822379Y5147056D01*
X11810339Y5156860D01*
X11797233Y5165140D01*
X11783212Y5171795D01*
X11768531Y5176774D01*
X11753342Y5179974D01*
X11737898Y5181346D01*
X11722404Y5180888D01*
X11707063Y5178602D01*
X11692128Y5174488D01*
X11677751Y5168646D01*
X11664188Y5161178D01*
X11651589Y5152136D01*
X11640108Y5141671D01*
X11629999Y5129936D01*
X11621312Y5117084D01*
X11614251Y5103266D01*
X11608866Y5088737D01*
X11605209Y5073650D01*
X11603380Y5058257D01*
X11603380Y5042763D01*
X11605209Y5027371D01*
X11608866Y5012283D01*
X11614251Y4997754D01*
X11621312Y4983937D01*
X11629999Y4971084D01*
X11640108Y4959350D01*
X11651589Y4948885D01*
X11664188Y4939842D01*
X11677751Y4932324D01*
X11692128Y4926482D01*
X11707063Y4922418D01*
X11722404Y4920132D01*
G37*
G36*
X12877901Y4919675D02*
G01*
X12893344Y4921046D01*
X12908534Y4924247D01*
X12923215Y4929225D01*
X12937236Y4935880D01*
X12950342Y4944160D01*
X12962382Y4953914D01*
X12973202Y4965039D01*
X12982600Y4977384D01*
X12990474Y4990744D01*
X12996722Y5004917D01*
X13001294Y5019751D01*
X13004038Y5035042D01*
X13004952Y5050485D01*
X13004038Y5065979D01*
X13001294Y5081270D01*
X12996722Y5096052D01*
X12990474Y5110276D01*
X12982600Y5123637D01*
X12973202Y5135930D01*
X12962382Y5147056D01*
X12950342Y5156860D01*
X12937236Y5165140D01*
X12923215Y5171795D01*
X12908534Y5176774D01*
X12893344Y5179974D01*
X12877901Y5181346D01*
X12862407Y5180888D01*
X12847066Y5178602D01*
X12832130Y5174488D01*
X12817754Y5168646D01*
X12804190Y5161178D01*
X12791592Y5152136D01*
X12780111Y5141671D01*
X12770002Y5129936D01*
X12761315Y5117084D01*
X12754254Y5103266D01*
X12748869Y5088737D01*
X12745212Y5073650D01*
X12743383Y5058257D01*
X12743383Y5042763D01*
X12745212Y5027371D01*
X12748869Y5012283D01*
X12754254Y4997754D01*
X12761315Y4983937D01*
X12770002Y4971084D01*
X12780111Y4959350D01*
X12791592Y4948885D01*
X12804190Y4939842D01*
X12817754Y4932324D01*
X12832130Y4926482D01*
X12847066Y4922418D01*
X12862407Y4920132D01*
G37*
G36*
X6699453Y9318447D02*
G01*
X6761530Y9318447D01*
X6754520Y9330842D01*
X6745020Y9343948D01*
X6734048Y9355886D01*
X6721754Y9366504D01*
X6708394Y9375698D01*
X6699453Y9380372D01*
G37*
G36*
X1699463Y9318447D02*
G01*
X1761540Y9318447D01*
X1754530Y9330842D01*
X1744980Y9343948D01*
X1734057Y9355886D01*
X1721764Y9366504D01*
X1708404Y9375698D01*
X1699463Y9380372D01*
G37*
G36*
X12189104Y5058867D02*
G01*
X12251131Y5058867D01*
X12251131Y5160111D01*
X12215571Y5160111D01*
X12209272Y5159400D01*
X12203785Y5157470D01*
X12198908Y5154422D01*
X12194794Y5150307D01*
X12191695Y5145430D01*
X12189815Y5139944D01*
X12189104Y5133644D01*
G37*
G36*
X12348870Y5058867D02*
G01*
X12410897Y5058867D01*
X12410897Y5133644D01*
X12410186Y5139944D01*
X12408306Y5145430D01*
X12405207Y5150307D01*
X12401092Y5154422D01*
X12396216Y5157470D01*
X12390729Y5159400D01*
X12384430Y5160111D01*
X12348870Y5160111D01*
G37*
G36*
X13065353Y5130088D02*
G01*
X13414248Y5130088D01*
X13420547Y5130800D01*
X13425982Y5132730D01*
X13430910Y5135778D01*
X13434974Y5139893D01*
X13438073Y5144770D01*
X13440003Y5150256D01*
X13440714Y5156555D01*
X13440714Y5325414D01*
X13440003Y5331764D01*
X13438073Y5337200D01*
X13434974Y5342128D01*
X13430910Y5346192D01*
X13425982Y5349290D01*
X13420547Y5351221D01*
X13414248Y5351932D01*
X13065353Y5351932D01*
X13059054Y5351221D01*
X13053618Y5349290D01*
X13048691Y5346192D01*
X13044627Y5342128D01*
X13041528Y5337200D01*
X13039598Y5331764D01*
X13038886Y5325414D01*
X13038886Y5156555D01*
X13039598Y5150256D01*
X13041528Y5144770D01*
X13044627Y5139893D01*
X13048691Y5135778D01*
X13053618Y5132730D01*
X13059054Y5130800D01*
G37*
G36*
X11185753Y9194088D02*
G01*
X11266373Y9194088D01*
X11266373Y9256166D01*
X11159286Y9256166D01*
X11159286Y9220555D01*
X11159998Y9214256D01*
X11161928Y9208770D01*
X11165027Y9203893D01*
X11169091Y9199778D01*
X11174018Y9196730D01*
X11179454Y9194800D01*
G37*
G36*
X13333628Y9194088D02*
G01*
X13414248Y9194088D01*
X13420547Y9194800D01*
X13425982Y9196730D01*
X13430910Y9199778D01*
X13434974Y9203893D01*
X13438073Y9208770D01*
X13440003Y9214256D01*
X13440714Y9220555D01*
X13440714Y9256166D01*
X13333628Y9256166D01*
G37*
G36*
X11459870Y5384088D02*
G01*
X11534648Y5384088D01*
X11540947Y5384800D01*
X11546382Y5386730D01*
X11551310Y5389778D01*
X11555374Y5393893D01*
X11558473Y5398770D01*
X11560403Y5404256D01*
X11561114Y5410555D01*
X11561114Y5446166D01*
X11459870Y5446166D01*
G37*
G36*
X13065353Y5384088D02*
G01*
X13140131Y5384088D01*
X13140131Y5446166D01*
X13038886Y5446166D01*
X13038886Y5410555D01*
X13039598Y5404256D01*
X13041528Y5398770D01*
X13044627Y5393893D01*
X13048691Y5389778D01*
X13053618Y5386730D01*
X13059054Y5384800D01*
G37*
G36*
X13333628Y5384088D02*
G01*
X13414248Y5384088D01*
X13420547Y5384800D01*
X13425982Y5386730D01*
X13430910Y5389778D01*
X13434974Y5393893D01*
X13438073Y5398770D01*
X13440003Y5404256D01*
X13440714Y5410555D01*
X13440714Y5446166D01*
X13333628Y5446166D01*
G37*
G36*
X11185753Y5384088D02*
G01*
X11266373Y5384088D01*
X11266373Y5446166D01*
X11159286Y5446166D01*
X11159286Y5410555D01*
X11159998Y5404256D01*
X11161928Y5398770D01*
X11165027Y5393893D01*
X11169091Y5389778D01*
X11174018Y5386730D01*
X11179454Y5384800D01*
G37*
G36*
X13038886Y5543854D02*
G01*
X13140131Y5543854D01*
X13140131Y5605932D01*
X13065353Y5605932D01*
X13059054Y5605221D01*
X13053618Y5603290D01*
X13048691Y5600192D01*
X13044627Y5596128D01*
X13041528Y5591200D01*
X13039598Y5585764D01*
X13038886Y5579414D01*
G37*
G36*
X11459870Y5543854D02*
G01*
X11561114Y5543854D01*
X11561114Y5579414D01*
X11560403Y5585764D01*
X11558473Y5591200D01*
X11555374Y5596128D01*
X11551310Y5600192D01*
X11546382Y5603290D01*
X11540947Y5605221D01*
X11534648Y5605932D01*
X11459870Y5605932D01*
G37*
G36*
X13333628Y5543854D02*
G01*
X13440714Y5543854D01*
X13440714Y5579414D01*
X13440003Y5585764D01*
X13438073Y5591200D01*
X13434974Y5596128D01*
X13430910Y5600192D01*
X13425982Y5603290D01*
X13420547Y5605221D01*
X13414248Y5605932D01*
X13333628Y5605932D01*
G37*
G36*
X11159286Y5543854D02*
G01*
X11266373Y5543854D01*
X11266373Y5605932D01*
X11185753Y5605932D01*
X11179454Y5605221D01*
X11174018Y5603290D01*
X11169091Y5600192D01*
X11165027Y5596128D01*
X11161928Y5591200D01*
X11159998Y5585764D01*
X11159286Y5579414D01*
G37*
G36*
X13065353Y5638088D02*
G01*
X13414248Y5638088D01*
X13420547Y5638800D01*
X13425982Y5640730D01*
X13430910Y5643778D01*
X13434974Y5647893D01*
X13438073Y5652770D01*
X13440003Y5658256D01*
X13440714Y5664555D01*
X13440714Y5833414D01*
X13440003Y5839764D01*
X13438073Y5845200D01*
X13434974Y5850128D01*
X13430910Y5854192D01*
X13425982Y5857290D01*
X13420547Y5859221D01*
X13414248Y5859932D01*
X13065353Y5859932D01*
X13059054Y5859221D01*
X13053618Y5857290D01*
X13048691Y5854192D01*
X13044627Y5850128D01*
X13041528Y5845200D01*
X13039598Y5839764D01*
X13038886Y5833414D01*
X13038886Y5664555D01*
X13039598Y5658256D01*
X13041528Y5652770D01*
X13044627Y5647893D01*
X13048691Y5643778D01*
X13053618Y5640730D01*
X13059054Y5638800D01*
G37*
G36*
X11459870Y9194088D02*
G01*
X11534648Y9194088D01*
X11540947Y9194800D01*
X11546382Y9196730D01*
X11551310Y9199778D01*
X11555374Y9203893D01*
X11558473Y9208770D01*
X11560403Y9214256D01*
X11561114Y9220555D01*
X11561114Y9256166D01*
X11459870Y9256166D01*
G37*
G36*
X13065353Y9194088D02*
G01*
X13140131Y9194088D01*
X13140131Y9256166D01*
X13038886Y9256166D01*
X13038886Y9220555D01*
X13039598Y9214256D01*
X13041528Y9208770D01*
X13044627Y9203893D01*
X13048691Y9199778D01*
X13053618Y9196730D01*
X13059054Y9194800D01*
G37*
G36*
X13065353Y5892088D02*
G01*
X13414248Y5892088D01*
X13420547Y5892800D01*
X13425982Y5894730D01*
X13430910Y5897778D01*
X13434974Y5901893D01*
X13438073Y5906770D01*
X13440003Y5912256D01*
X13440714Y5918555D01*
X13440714Y6087414D01*
X13440003Y6093764D01*
X13438073Y6099200D01*
X13434974Y6104128D01*
X13430910Y6108192D01*
X13425982Y6111290D01*
X13420547Y6113221D01*
X13414248Y6113932D01*
X13065353Y6113932D01*
X13059054Y6113221D01*
X13053618Y6111290D01*
X13048691Y6108192D01*
X13044627Y6104128D01*
X13041528Y6099200D01*
X13039598Y6093764D01*
X13038886Y6087414D01*
X13038886Y5918555D01*
X13039598Y5912256D01*
X13041528Y5906770D01*
X13044627Y5901893D01*
X13048691Y5897778D01*
X13053618Y5894730D01*
X13059054Y5892800D01*
G37*
G36*
X4199432Y9127591D02*
G01*
X4208373Y9132316D01*
X4221784Y9141460D01*
X4234027Y9152077D01*
X4245000Y9164066D01*
X4254550Y9177172D01*
X4261510Y9189567D01*
X4199432Y9189567D01*
G37*
G36*
X1380998Y5964834D02*
G01*
X1404213Y5965799D01*
X1427276Y5968644D01*
X1450035Y5973419D01*
X1472285Y5980074D01*
X1493926Y5988507D01*
X1514805Y5998718D01*
X1534769Y6010605D01*
X1553718Y6024118D01*
X1571447Y6039154D01*
X1587855Y6055563D01*
X1602892Y6073292D01*
X1616405Y6092190D01*
X1628292Y6112154D01*
X1638503Y6133033D01*
X1646936Y6154724D01*
X1653590Y6176975D01*
X1658315Y6199733D01*
X1661210Y6222796D01*
X1662175Y6246012D01*
X1661210Y6269228D01*
X1658315Y6292291D01*
X1653590Y6314998D01*
X1646936Y6337300D01*
X1638503Y6358940D01*
X1628292Y6379819D01*
X1616405Y6399784D01*
X1602892Y6418681D01*
X1587855Y6436410D01*
X1571447Y6452870D01*
X1553718Y6467906D01*
X1534769Y6481368D01*
X1514805Y6493256D01*
X1493926Y6503466D01*
X1472285Y6511950D01*
X1450035Y6518554D01*
X1427276Y6523329D01*
X1404213Y6526225D01*
X1380998Y6527190D01*
X1357782Y6526225D01*
X1334719Y6523329D01*
X1311960Y6518554D01*
X1289710Y6511950D01*
X1268069Y6503466D01*
X1247190Y6493256D01*
X1227226Y6481368D01*
X1208278Y6467906D01*
X1190548Y6452870D01*
X1174140Y6436410D01*
X1159103Y6418681D01*
X1145590Y6399784D01*
X1133703Y6379819D01*
X1123492Y6358940D01*
X1115060Y6337300D01*
X1108456Y6314998D01*
X1103680Y6292291D01*
X1100785Y6269228D01*
X1099820Y6246012D01*
X1100785Y6222796D01*
X1103680Y6199733D01*
X1108456Y6176975D01*
X1115060Y6154724D01*
X1123492Y6133033D01*
X1133703Y6112154D01*
X1145590Y6092190D01*
X1159103Y6073292D01*
X1174140Y6055563D01*
X1190548Y6039154D01*
X1208278Y6024118D01*
X1227226Y6010605D01*
X1247190Y5998718D01*
X1268069Y5988507D01*
X1289710Y5980074D01*
X1311960Y5973419D01*
X1334719Y5968644D01*
X1357782Y5965799D01*
G37*
G36*
X6380988Y5964834D02*
G01*
X6404203Y5965799D01*
X6427266Y5968644D01*
X6450025Y5973419D01*
X6472275Y5980074D01*
X6493967Y5988507D01*
X6514846Y5998718D01*
X6534810Y6010605D01*
X6553708Y6024118D01*
X6571437Y6039154D01*
X6587845Y6055563D01*
X6602882Y6073292D01*
X6616395Y6092190D01*
X6628282Y6112154D01*
X6638493Y6133033D01*
X6646925Y6154724D01*
X6653580Y6176975D01*
X6658356Y6199733D01*
X6661200Y6222796D01*
X6662166Y6246012D01*
X6661200Y6269228D01*
X6658356Y6292291D01*
X6653580Y6314998D01*
X6646925Y6337300D01*
X6638493Y6358940D01*
X6628282Y6379819D01*
X6616395Y6399784D01*
X6602882Y6418681D01*
X6587845Y6436410D01*
X6571437Y6452870D01*
X6553708Y6467906D01*
X6534810Y6481368D01*
X6514846Y6493256D01*
X6493967Y6503466D01*
X6472275Y6511950D01*
X6450025Y6518554D01*
X6427266Y6523329D01*
X6404203Y6526225D01*
X6380988Y6527190D01*
X6357772Y6526225D01*
X6334709Y6523329D01*
X6312001Y6518554D01*
X6289700Y6511950D01*
X6268059Y6503466D01*
X6247180Y6493256D01*
X6227216Y6481368D01*
X6208318Y6467906D01*
X6190589Y6452870D01*
X6174130Y6436410D01*
X6159093Y6418681D01*
X6145631Y6399784D01*
X6133744Y6379819D01*
X6123533Y6358940D01*
X6115050Y6337300D01*
X6108446Y6314998D01*
X6103670Y6292291D01*
X6100775Y6269228D01*
X6099810Y6246012D01*
X6100775Y6222796D01*
X6103670Y6199733D01*
X6108446Y6176975D01*
X6115050Y6154724D01*
X6123533Y6133033D01*
X6133744Y6112154D01*
X6145631Y6092190D01*
X6159093Y6073292D01*
X6174130Y6055563D01*
X6190589Y6039154D01*
X6208318Y6024118D01*
X6227216Y6010605D01*
X6247180Y5998718D01*
X6268059Y5988507D01*
X6289700Y5980074D01*
X6312001Y5973419D01*
X6334709Y5968644D01*
X6357772Y5965799D01*
G37*
G36*
X3881018Y5964834D02*
G01*
X3904234Y5965799D01*
X3927297Y5968644D01*
X3950004Y5973419D01*
X3972306Y5980074D01*
X3993946Y5988507D01*
X4014825Y5998718D01*
X4034790Y6010605D01*
X4053687Y6024118D01*
X4071416Y6039154D01*
X4087876Y6055563D01*
X4102862Y6073292D01*
X4116374Y6092190D01*
X4128262Y6112154D01*
X4138472Y6133033D01*
X4146956Y6154724D01*
X4153560Y6176975D01*
X4158335Y6199733D01*
X4161231Y6222796D01*
X4162145Y6246012D01*
X4161231Y6269228D01*
X4158335Y6292291D01*
X4153560Y6314998D01*
X4146956Y6337300D01*
X4138472Y6358940D01*
X4128262Y6379819D01*
X4116374Y6399784D01*
X4102862Y6418681D01*
X4087876Y6436410D01*
X4071416Y6452870D01*
X4053687Y6467906D01*
X4034790Y6481368D01*
X4014825Y6493256D01*
X3993946Y6503466D01*
X3972306Y6511950D01*
X3950004Y6518554D01*
X3927297Y6523329D01*
X3904234Y6526225D01*
X3881018Y6527190D01*
X3857802Y6526225D01*
X3834739Y6523329D01*
X3811981Y6518554D01*
X3789679Y6511950D01*
X3768039Y6503466D01*
X3747160Y6493256D01*
X3727196Y6481368D01*
X3708298Y6467906D01*
X3690569Y6452870D01*
X3674160Y6436410D01*
X3659124Y6418681D01*
X3645611Y6399784D01*
X3633724Y6379819D01*
X3623513Y6358940D01*
X3615080Y6337300D01*
X3608425Y6314998D01*
X3603650Y6292291D01*
X3600805Y6269228D01*
X3599840Y6246012D01*
X3600805Y6222796D01*
X3603650Y6199733D01*
X3608425Y6176975D01*
X3615080Y6154724D01*
X3623513Y6133033D01*
X3633724Y6112154D01*
X3645611Y6092190D01*
X3659124Y6073292D01*
X3674160Y6055563D01*
X3690569Y6039154D01*
X3708298Y6024118D01*
X3727196Y6010605D01*
X3747160Y5998718D01*
X3768039Y5988507D01*
X3789679Y5980074D01*
X3811981Y5973419D01*
X3834739Y5968644D01*
X3857802Y5965799D01*
G37*
G36*
X8881008Y5964834D02*
G01*
X8904224Y5965799D01*
X8927287Y5968644D01*
X8950045Y5973419D01*
X8972296Y5980074D01*
X8993936Y5988507D01*
X9014815Y5998718D01*
X9034780Y6010605D01*
X9053677Y6024118D01*
X9071406Y6039154D01*
X9087866Y6055563D01*
X9102902Y6073292D01*
X9116364Y6092190D01*
X9128302Y6112154D01*
X9138513Y6133033D01*
X9146946Y6154724D01*
X9153550Y6176975D01*
X9158325Y6199733D01*
X9161221Y6222796D01*
X9162186Y6246012D01*
X9161221Y6269228D01*
X9158325Y6292291D01*
X9153550Y6314998D01*
X9146946Y6337300D01*
X9138513Y6358940D01*
X9128302Y6379819D01*
X9116364Y6399784D01*
X9102902Y6418681D01*
X9087866Y6436410D01*
X9071406Y6452870D01*
X9053677Y6467906D01*
X9034780Y6481368D01*
X9014815Y6493256D01*
X8993936Y6503466D01*
X8972296Y6511950D01*
X8950045Y6518554D01*
X8927287Y6523329D01*
X8904224Y6526225D01*
X8881008Y6527190D01*
X8857792Y6526225D01*
X8834729Y6523329D01*
X8811971Y6518554D01*
X8789720Y6511950D01*
X8768080Y6503466D01*
X8747201Y6493256D01*
X8727236Y6481368D01*
X8708288Y6467906D01*
X8690559Y6452870D01*
X8674150Y6436410D01*
X8659114Y6418681D01*
X8645601Y6399784D01*
X8633714Y6379819D01*
X8623503Y6358940D01*
X8615070Y6337300D01*
X8608415Y6314998D01*
X8603691Y6292291D01*
X8600795Y6269228D01*
X8599830Y6246012D01*
X8600795Y6222796D01*
X8603691Y6199733D01*
X8608415Y6176975D01*
X8615070Y6154724D01*
X8623503Y6133033D01*
X8633714Y6112154D01*
X8645601Y6092190D01*
X8659114Y6073292D01*
X8674150Y6055563D01*
X8690559Y6039154D01*
X8708288Y6024118D01*
X8727236Y6010605D01*
X8747201Y5998718D01*
X8768080Y5988507D01*
X8789720Y5980074D01*
X8811971Y5973419D01*
X8834729Y5968644D01*
X8857792Y5965799D01*
G37*
G36*
X9199473Y9127591D02*
G01*
X9208363Y9132316D01*
X9221774Y9141460D01*
X9234017Y9152077D01*
X9244990Y9164066D01*
X9254540Y9177172D01*
X9261551Y9189567D01*
X9199473Y9189567D01*
G37*
G36*
X6699453Y9127591D02*
G01*
X6708394Y9132316D01*
X6721754Y9141460D01*
X6734048Y9152077D01*
X6745020Y9164066D01*
X6754520Y9177172D01*
X6761530Y9189567D01*
X6699453Y9189567D01*
G37*
G36*
X1699463Y9127591D02*
G01*
X1708404Y9132316D01*
X1721764Y9141460D01*
X1734057Y9152077D01*
X1744980Y9164066D01*
X1754530Y9177172D01*
X1761540Y9189567D01*
X1699463Y9189567D01*
G37*
G36*
X4070553Y9127490D02*
G01*
X4070553Y9189567D01*
X4008628Y9189567D01*
X4011269Y9184132D01*
X4020058Y9170466D01*
X4030319Y9157919D01*
X4041952Y9146590D01*
X4054805Y9136684D01*
X4068673Y9128302D01*
G37*
G36*
X1880463Y6088888D02*
G01*
X1897532Y6088888D01*
X1914448Y6090716D01*
X1931111Y6094374D01*
X1947214Y6099860D01*
X1962708Y6106972D01*
X1977288Y6115761D01*
X1990852Y6126073D01*
X2003247Y6137808D01*
X2014270Y6150762D01*
X2023821Y6164884D01*
X2031796Y6179921D01*
X2038096Y6195771D01*
X2042668Y6212179D01*
X2045411Y6228994D01*
X2046325Y6246012D01*
X2045411Y6263030D01*
X2042668Y6279845D01*
X2038096Y6296253D01*
X2031796Y6312052D01*
X2023821Y6327140D01*
X2014270Y6341211D01*
X2003247Y6354216D01*
X1990852Y6365900D01*
X1977288Y6376212D01*
X1962708Y6385001D01*
X1947214Y6392164D01*
X1931111Y6397599D01*
X1914448Y6401257D01*
X1897532Y6403086D01*
X1880463Y6403086D01*
X1863547Y6401257D01*
X1846884Y6397599D01*
X1830781Y6392164D01*
X1815287Y6385001D01*
X1800707Y6376212D01*
X1787143Y6365900D01*
X1774748Y6354216D01*
X1763725Y6341211D01*
X1754174Y6327140D01*
X1746199Y6312052D01*
X1739900Y6296253D01*
X1735328Y6279845D01*
X1732584Y6263030D01*
X1731670Y6246012D01*
X1732584Y6228994D01*
X1735328Y6212179D01*
X1739900Y6195771D01*
X1746199Y6179921D01*
X1754174Y6164884D01*
X1763725Y6150762D01*
X1774748Y6137808D01*
X1787143Y6126073D01*
X1800707Y6115761D01*
X1815287Y6106972D01*
X1830781Y6099860D01*
X1846884Y6094374D01*
X1863547Y6090716D01*
G37*
G36*
X6880504Y6088888D02*
G01*
X6897522Y6088888D01*
X6914438Y6090716D01*
X6931101Y6094374D01*
X6947255Y6099860D01*
X6962698Y6106972D01*
X6977278Y6115761D01*
X6990842Y6126073D01*
X7003237Y6137808D01*
X7014260Y6150762D01*
X7023811Y6164884D01*
X7031786Y6179921D01*
X7038086Y6195771D01*
X7042658Y6212179D01*
X7045401Y6228994D01*
X7046315Y6246012D01*
X7045401Y6263030D01*
X7042658Y6279845D01*
X7038086Y6296253D01*
X7031786Y6312052D01*
X7023811Y6327140D01*
X7014260Y6341211D01*
X7003237Y6354216D01*
X6990842Y6365900D01*
X6977278Y6376212D01*
X6962698Y6385001D01*
X6947255Y6392164D01*
X6931101Y6397599D01*
X6914438Y6401257D01*
X6897522Y6403086D01*
X6880504Y6403086D01*
X6863537Y6401257D01*
X6846925Y6397599D01*
X6830771Y6392164D01*
X6815277Y6385001D01*
X6800697Y6376212D01*
X6787134Y6365900D01*
X6774789Y6354216D01*
X6763766Y6341211D01*
X6754164Y6327140D01*
X6746189Y6312052D01*
X6739890Y6296253D01*
X6735318Y6279845D01*
X6732574Y6263030D01*
X6731660Y6246012D01*
X6732574Y6228994D01*
X6735318Y6212179D01*
X6739890Y6195771D01*
X6746189Y6179921D01*
X6754164Y6164884D01*
X6763766Y6150762D01*
X6774789Y6137808D01*
X6787134Y6126073D01*
X6800697Y6115761D01*
X6815277Y6106972D01*
X6830771Y6099860D01*
X6846925Y6094374D01*
X6863537Y6090716D01*
G37*
G36*
X4380484Y6088888D02*
G01*
X4397502Y6088888D01*
X4414469Y6090716D01*
X4431080Y6094374D01*
X4447235Y6099860D01*
X4462678Y6106972D01*
X4477308Y6115761D01*
X4490872Y6126073D01*
X4503216Y6137808D01*
X4514240Y6150762D01*
X4523841Y6164884D01*
X4531817Y6179921D01*
X4538116Y6195771D01*
X4542637Y6212179D01*
X4545431Y6228994D01*
X4546346Y6246012D01*
X4545431Y6263030D01*
X4542637Y6279845D01*
X4538116Y6296253D01*
X4531817Y6312052D01*
X4523841Y6327140D01*
X4514240Y6341211D01*
X4503216Y6354216D01*
X4490872Y6365900D01*
X4477308Y6376212D01*
X4462678Y6385001D01*
X4447235Y6392164D01*
X4431080Y6397599D01*
X4414469Y6401257D01*
X4397502Y6403086D01*
X4380484Y6403086D01*
X4363567Y6401257D01*
X4346905Y6397599D01*
X4330750Y6392164D01*
X4315307Y6385001D01*
X4300728Y6376212D01*
X4287164Y6365900D01*
X4274769Y6354216D01*
X4263745Y6341211D01*
X4254195Y6327140D01*
X4246219Y6312052D01*
X4239920Y6296253D01*
X4235348Y6279845D01*
X4232605Y6263030D01*
X4231640Y6246012D01*
X4232605Y6228994D01*
X4235348Y6212179D01*
X4239920Y6195771D01*
X4246219Y6179921D01*
X4254195Y6164884D01*
X4263745Y6150762D01*
X4274769Y6137808D01*
X4287164Y6126073D01*
X4300728Y6115761D01*
X4315307Y6106972D01*
X4330750Y6099860D01*
X4346905Y6094374D01*
X4363567Y6090716D01*
G37*
G36*
X8364474Y6088888D02*
G01*
X8381542Y6088888D01*
X8398459Y6090716D01*
X8415070Y6094374D01*
X8431225Y6099860D01*
X8446719Y6106972D01*
X8461298Y6115761D01*
X8474862Y6126073D01*
X8487206Y6137808D01*
X8498281Y6150762D01*
X8507831Y6164884D01*
X8515807Y6179921D01*
X8522106Y6195771D01*
X8526678Y6212179D01*
X8529421Y6228994D01*
X8530336Y6246012D01*
X8529421Y6263030D01*
X8526678Y6279845D01*
X8522106Y6296253D01*
X8515807Y6312052D01*
X8507831Y6327140D01*
X8498027Y6341516D01*
X8496147Y6344767D01*
X8495588Y6348526D01*
X8496503Y6352235D01*
X8498636Y6355334D01*
X8501786Y6357416D01*
X8505444Y6358229D01*
X8512149Y6358432D01*
X8528202Y6360718D01*
X8543899Y6364833D01*
X8559038Y6370726D01*
X8573363Y6378295D01*
X8586774Y6387490D01*
X8599017Y6398107D01*
X8609990Y6410045D01*
X8619540Y6423152D01*
X8627516Y6437325D01*
X8633815Y6452260D01*
X8638387Y6467805D01*
X8641232Y6484162D01*
X8642248Y6487109D01*
X8644077Y6489598D01*
X8726932Y6572300D01*
X8732062Y6578549D01*
X8735618Y6585203D01*
X8737803Y6592417D01*
X8738616Y6600444D01*
X8738616Y6979767D01*
X8739378Y6983679D01*
X8741613Y6986981D01*
X9240062Y7485430D01*
X9243364Y7487666D01*
X9247276Y7488428D01*
X11149126Y7488377D01*
X11153038Y7487615D01*
X11156340Y7485430D01*
X11158524Y7482128D01*
X11159286Y7478217D01*
X11159286Y7442555D01*
X11159998Y7436256D01*
X11161928Y7430770D01*
X11165027Y7425893D01*
X11169091Y7421778D01*
X11174018Y7418730D01*
X11179454Y7416800D01*
X11185753Y7416088D01*
X11534648Y7416088D01*
X11540947Y7416800D01*
X11546382Y7418730D01*
X11551310Y7421778D01*
X11555374Y7425893D01*
X11558473Y7430770D01*
X11560403Y7436256D01*
X11561114Y7442555D01*
X11561114Y7611414D01*
X11560403Y7617764D01*
X11558473Y7623200D01*
X11555374Y7628128D01*
X11551310Y7632192D01*
X11546382Y7635290D01*
X11540947Y7637221D01*
X11534648Y7637932D01*
X11185753Y7637932D01*
X11179454Y7637221D01*
X11174018Y7635290D01*
X11169091Y7632192D01*
X11165027Y7628128D01*
X11161928Y7623200D01*
X11159998Y7617764D01*
X11159286Y7611414D01*
X11159286Y7575753D01*
X11158524Y7571892D01*
X11156340Y7568590D01*
X11153038Y7566406D01*
X11149126Y7565593D01*
X9227566Y7565644D01*
X9219539Y7564831D01*
X9212326Y7562646D01*
X9205620Y7559090D01*
X9199422Y7553959D01*
X8673084Y7027621D01*
X8667953Y7021423D01*
X8664397Y7014718D01*
X8662212Y7007504D01*
X8661400Y6999478D01*
X8661400Y6620205D01*
X8660638Y6616344D01*
X8658402Y6613042D01*
X8629040Y6583730D01*
X8625382Y6581394D01*
X8621064Y6580784D01*
X8616899Y6582054D01*
X8613648Y6584950D01*
X8609990Y6589928D01*
X8599017Y6601917D01*
X8586774Y6612534D01*
X8573363Y6621678D01*
X8559038Y6629247D01*
X8543899Y6635140D01*
X8528202Y6639255D01*
X8512149Y6641592D01*
X8495944Y6642049D01*
X8479790Y6640626D01*
X8463889Y6637426D01*
X8448446Y6632397D01*
X8433714Y6625691D01*
X8419795Y6617309D01*
X8406942Y6607403D01*
X8395309Y6596075D01*
X8385048Y6583527D01*
X8376259Y6569862D01*
X8369096Y6555333D01*
X8363661Y6540042D01*
X8360003Y6524244D01*
X8358124Y6508089D01*
X8358124Y6491884D01*
X8360003Y6475780D01*
X8363661Y6459982D01*
X8369096Y6444691D01*
X8376259Y6430111D01*
X8383574Y6418783D01*
X8385098Y6414719D01*
X8384794Y6410401D01*
X8382711Y6406591D01*
X8379256Y6404000D01*
X8375040Y6403086D01*
X8364474Y6403086D01*
X8347557Y6401257D01*
X8330895Y6397599D01*
X8314740Y6392164D01*
X8299297Y6385001D01*
X8284718Y6376212D01*
X8271154Y6365900D01*
X8258759Y6354216D01*
X8247735Y6341211D01*
X8238185Y6327140D01*
X8230209Y6312052D01*
X8223910Y6296253D01*
X8219338Y6279845D01*
X8216595Y6263030D01*
X8215680Y6246012D01*
X8216595Y6228994D01*
X8219338Y6212179D01*
X8223910Y6195771D01*
X8230209Y6179921D01*
X8238185Y6164884D01*
X8247735Y6150762D01*
X8258759Y6137808D01*
X8271154Y6126073D01*
X8284718Y6115761D01*
X8299297Y6106972D01*
X8314740Y6099860D01*
X8330895Y6094374D01*
X8347557Y6090716D01*
G37*
G36*
X3364484Y6088888D02*
G01*
X3381501Y6088888D01*
X3398469Y6090716D01*
X3415080Y6094374D01*
X3431235Y6099860D01*
X3446678Y6106972D01*
X3461308Y6115761D01*
X3474872Y6126073D01*
X3487216Y6137808D01*
X3498240Y6150762D01*
X3507841Y6164884D01*
X3515817Y6179921D01*
X3522116Y6195771D01*
X3526637Y6212179D01*
X3529431Y6228994D01*
X3530346Y6246012D01*
X3529431Y6263030D01*
X3526637Y6279845D01*
X3522116Y6296253D01*
X3515817Y6312052D01*
X3507841Y6327140D01*
X3498037Y6341516D01*
X3496157Y6344767D01*
X3495598Y6348526D01*
X3496462Y6352235D01*
X3498646Y6355334D01*
X3501796Y6357416D01*
X3505454Y6358229D01*
X3512159Y6358432D01*
X3528212Y6360718D01*
X3543909Y6364833D01*
X3559048Y6370726D01*
X3573373Y6378295D01*
X3586784Y6387490D01*
X3599027Y6398107D01*
X3610000Y6410045D01*
X3619550Y6423152D01*
X3627526Y6437325D01*
X3633825Y6452260D01*
X3638397Y6467805D01*
X3641191Y6483807D01*
X3642106Y6500012D01*
X3641191Y6516217D01*
X3638397Y6532168D01*
X3633825Y6547764D01*
X3627120Y6563512D01*
X3626307Y6567424D01*
X3627069Y6571335D01*
X3629304Y6574688D01*
X4713020Y7658404D01*
X4716322Y7660640D01*
X4720234Y7661402D01*
X8882227Y7661402D01*
X8886139Y7660640D01*
X8889441Y7658404D01*
X8891625Y7655153D01*
X8892387Y7651242D01*
X8891625Y7647330D01*
X8889441Y7644079D01*
X8886901Y7641539D01*
X8883599Y7639303D01*
X8879687Y7638542D01*
X7100570Y7638542D01*
X7092543Y7637729D01*
X7085330Y7635544D01*
X7078624Y7631988D01*
X7072426Y7626908D01*
X6074511Y6629196D01*
X6070904Y6626859D01*
X6066688Y6626250D01*
X6062573Y6627368D01*
X6059017Y6629247D01*
X6043930Y6635140D01*
X6028232Y6639255D01*
X6012180Y6641592D01*
X5995924Y6642049D01*
X5979769Y6640626D01*
X5963869Y6637426D01*
X5948426Y6632397D01*
X5933694Y6625691D01*
X5919774Y6617309D01*
X5906922Y6607403D01*
X5895289Y6596075D01*
X5885027Y6583527D01*
X5876290Y6569862D01*
X5869127Y6555333D01*
X5863640Y6540042D01*
X5859983Y6524244D01*
X5858154Y6508089D01*
X5858154Y6491884D01*
X5859983Y6475780D01*
X5863640Y6459982D01*
X5869127Y6444691D01*
X5876290Y6430111D01*
X5883554Y6418783D01*
X5885078Y6414719D01*
X5884773Y6410401D01*
X5882690Y6406591D01*
X5879236Y6404000D01*
X5875020Y6403086D01*
X5864504Y6403086D01*
X5847537Y6401257D01*
X5830925Y6397599D01*
X5814771Y6392164D01*
X5799277Y6385001D01*
X5784697Y6376212D01*
X5771134Y6365900D01*
X5758789Y6354216D01*
X5747766Y6341211D01*
X5738164Y6327140D01*
X5730189Y6312052D01*
X5723890Y6296253D01*
X5719318Y6279845D01*
X5716574Y6263030D01*
X5715660Y6246012D01*
X5716574Y6228994D01*
X5719318Y6212179D01*
X5723890Y6195771D01*
X5730189Y6179921D01*
X5738164Y6164884D01*
X5747766Y6150762D01*
X5758789Y6137808D01*
X5771134Y6126073D01*
X5784697Y6115761D01*
X5799277Y6106972D01*
X5814771Y6099860D01*
X5830925Y6094374D01*
X5847537Y6090716D01*
X5864504Y6088888D01*
X5881522Y6088888D01*
X5898438Y6090716D01*
X5915101Y6094374D01*
X5931255Y6099860D01*
X5946698Y6106972D01*
X5961278Y6115761D01*
X5974842Y6126073D01*
X5987237Y6137808D01*
X5998260Y6150762D01*
X6007811Y6164884D01*
X6015786Y6179921D01*
X6022086Y6195771D01*
X6026658Y6212179D01*
X6029401Y6228994D01*
X6030315Y6246012D01*
X6029401Y6263030D01*
X6026658Y6279845D01*
X6022086Y6296253D01*
X6015786Y6312052D01*
X6007811Y6327140D01*
X5998006Y6341516D01*
X5996127Y6344767D01*
X5995619Y6348526D01*
X5996482Y6352235D01*
X5998616Y6355334D01*
X6001766Y6357416D01*
X6005474Y6358229D01*
X6012180Y6358432D01*
X6028232Y6360718D01*
X6043930Y6364833D01*
X6059017Y6370726D01*
X6073394Y6378295D01*
X6086754Y6387490D01*
X6099048Y6398107D01*
X6110020Y6410045D01*
X6119520Y6423152D01*
X6127496Y6437325D01*
X6133846Y6452260D01*
X6138418Y6467805D01*
X6141161Y6483807D01*
X6142075Y6500012D01*
X6141161Y6516217D01*
X6138418Y6532168D01*
X6133846Y6547713D01*
X6127089Y6563563D01*
X6126276Y6567525D01*
X6127038Y6571437D01*
X6129274Y6574739D01*
X7113066Y7558328D01*
X7116368Y7560564D01*
X7120280Y7561325D01*
X8899398Y7561325D01*
X8907424Y7562138D01*
X8914638Y7564323D01*
X8921343Y7567879D01*
X8927541Y7573009D01*
X9094012Y7739430D01*
X9097314Y7741666D01*
X9101226Y7742428D01*
X11149126Y7742377D01*
X11153038Y7741615D01*
X11156340Y7739430D01*
X11158524Y7736128D01*
X11159286Y7732217D01*
X11159286Y7696555D01*
X11159998Y7690256D01*
X11161928Y7684770D01*
X11165027Y7679893D01*
X11169091Y7675778D01*
X11174018Y7672730D01*
X11179454Y7670800D01*
X11185753Y7670088D01*
X11534648Y7670088D01*
X11540947Y7670800D01*
X11546382Y7672730D01*
X11551310Y7675778D01*
X11555374Y7679893D01*
X11558473Y7684770D01*
X11560403Y7690256D01*
X11561114Y7696555D01*
X11561114Y7865414D01*
X11560403Y7871764D01*
X11558473Y7877200D01*
X11555374Y7882128D01*
X11551310Y7886192D01*
X11546382Y7889290D01*
X11540947Y7891221D01*
X11534648Y7891932D01*
X11185753Y7891932D01*
X11179454Y7891221D01*
X11174018Y7889290D01*
X11169091Y7886192D01*
X11165027Y7882128D01*
X11161928Y7877200D01*
X11159998Y7871764D01*
X11159286Y7865414D01*
X11159286Y7829753D01*
X11158524Y7825892D01*
X11156340Y7822590D01*
X11153038Y7820406D01*
X11149126Y7819593D01*
X9098686Y7819644D01*
X9094774Y7820406D01*
X9091472Y7822641D01*
X9089288Y7825892D01*
X9088526Y7829803D01*
X9089288Y7833715D01*
X9091472Y7836966D01*
X9501936Y8247430D01*
X9505238Y8249666D01*
X9509150Y8250428D01*
X11149126Y8250377D01*
X11153038Y8249615D01*
X11156340Y8247430D01*
X11158524Y8244128D01*
X11159286Y8240217D01*
X11159286Y8204555D01*
X11159998Y8198256D01*
X11161928Y8192770D01*
X11165027Y8187893D01*
X11169091Y8183778D01*
X11174018Y8180730D01*
X11179454Y8178800D01*
X11185753Y8178088D01*
X11534648Y8178088D01*
X11540947Y8178800D01*
X11546382Y8180730D01*
X11551310Y8183778D01*
X11555374Y8187893D01*
X11558473Y8192770D01*
X11560403Y8198256D01*
X11561114Y8204555D01*
X11561114Y8373414D01*
X11560403Y8379764D01*
X11558473Y8385200D01*
X11555374Y8390128D01*
X11551310Y8394192D01*
X11546382Y8397290D01*
X11540947Y8399221D01*
X11534648Y8399932D01*
X11185753Y8399932D01*
X11179454Y8399221D01*
X11174018Y8397290D01*
X11169091Y8394192D01*
X11165027Y8390128D01*
X11161928Y8385200D01*
X11159998Y8379764D01*
X11159286Y8373414D01*
X11159286Y8337753D01*
X11158524Y8333892D01*
X11156340Y8330590D01*
X11153038Y8328406D01*
X11149126Y8327593D01*
X9489440Y8327644D01*
X9481413Y8326831D01*
X9474200Y8324646D01*
X9467494Y8321090D01*
X9461296Y8315959D01*
X8886901Y7741615D01*
X8883599Y7739380D01*
X8879687Y7738618D01*
X4700524Y7738618D01*
X4692497Y7737805D01*
X4685284Y7735620D01*
X4678578Y7732064D01*
X4672380Y7726934D01*
X3574542Y6629146D01*
X3570986Y6626859D01*
X3566769Y6626199D01*
X3562654Y6627368D01*
X3559048Y6629247D01*
X3543909Y6635140D01*
X3528212Y6639255D01*
X3512159Y6641592D01*
X3495954Y6642049D01*
X3479800Y6640626D01*
X3463899Y6637426D01*
X3448456Y6632397D01*
X3433673Y6625691D01*
X3419805Y6617309D01*
X3406952Y6607403D01*
X3395319Y6596075D01*
X3385058Y6583527D01*
X3376269Y6569862D01*
X3369106Y6555333D01*
X3363671Y6540042D01*
X3359962Y6524244D01*
X3358134Y6508089D01*
X3358134Y6491884D01*
X3359962Y6475780D01*
X3363671Y6459982D01*
X3369106Y6444691D01*
X3376269Y6430111D01*
X3383584Y6418783D01*
X3385108Y6414719D01*
X3384753Y6410401D01*
X3382721Y6406591D01*
X3379266Y6404000D01*
X3375050Y6403086D01*
X3364484Y6403086D01*
X3347567Y6401257D01*
X3330905Y6397599D01*
X3314750Y6392164D01*
X3299307Y6385001D01*
X3284728Y6376212D01*
X3271164Y6365900D01*
X3258769Y6354216D01*
X3247745Y6341211D01*
X3238195Y6327140D01*
X3230219Y6312052D01*
X3223920Y6296253D01*
X3219348Y6279845D01*
X3216605Y6263030D01*
X3215640Y6246012D01*
X3216605Y6228994D01*
X3219348Y6212179D01*
X3223920Y6195771D01*
X3230219Y6179921D01*
X3238195Y6164884D01*
X3247745Y6150762D01*
X3258769Y6137808D01*
X3271164Y6126073D01*
X3284728Y6115761D01*
X3299307Y6106972D01*
X3314750Y6099860D01*
X3330905Y6094374D01*
X3347567Y6090716D01*
G37*
G36*
X6570573Y9127490D02*
G01*
X6570573Y9189567D01*
X6508597Y9189567D01*
X6511290Y9184132D01*
X6520027Y9170466D01*
X6530289Y9157919D01*
X6541922Y9146590D01*
X6554774Y9136684D01*
X6568694Y9128302D01*
G37*
G36*
X864463Y6088888D02*
G01*
X881532Y6088888D01*
X898448Y6090716D01*
X915111Y6094374D01*
X931214Y6099860D01*
X946708Y6106972D01*
X961288Y6115761D01*
X974852Y6126073D01*
X987247Y6137808D01*
X998270Y6150762D01*
X1007821Y6164884D01*
X1015796Y6179921D01*
X1022096Y6195771D01*
X1026668Y6212179D01*
X1029411Y6228994D01*
X1030325Y6246012D01*
X1029411Y6263030D01*
X1026668Y6279845D01*
X1022096Y6296253D01*
X1015796Y6312052D01*
X1007821Y6327140D01*
X998016Y6341516D01*
X996137Y6344767D01*
X995629Y6348526D01*
X996492Y6352235D01*
X998626Y6355334D01*
X1001776Y6357416D01*
X1005484Y6358229D01*
X1012139Y6358432D01*
X1028242Y6360718D01*
X1043889Y6364833D01*
X1059027Y6370726D01*
X1073404Y6378295D01*
X1086764Y6387490D01*
X1099058Y6398107D01*
X1109980Y6410045D01*
X1119530Y6423152D01*
X1127506Y6437325D01*
X1133856Y6452260D01*
X1138428Y6467805D01*
X1141171Y6483807D01*
X1142085Y6500012D01*
X1141171Y6516217D01*
X1138428Y6532168D01*
X1133856Y6547713D01*
X1127099Y6563614D01*
X1126286Y6567525D01*
X1127048Y6571437D01*
X1129233Y6574739D01*
X2312974Y7758480D01*
X2316276Y7760716D01*
X2320188Y7761478D01*
X8815578Y7761478D01*
X8823604Y7762290D01*
X8830818Y7764475D01*
X8837523Y7768031D01*
X8843721Y7773162D01*
X9572040Y8501430D01*
X9575342Y8503666D01*
X9579254Y8504428D01*
X11149126Y8504377D01*
X11153038Y8503615D01*
X11156340Y8501430D01*
X11158524Y8498128D01*
X11159286Y8494217D01*
X11159286Y8458555D01*
X11159998Y8452256D01*
X11161928Y8446770D01*
X11165027Y8441893D01*
X11169091Y8437778D01*
X11174018Y8434730D01*
X11179454Y8432800D01*
X11185753Y8432088D01*
X11534648Y8432088D01*
X11540947Y8432800D01*
X11546382Y8434730D01*
X11551310Y8437778D01*
X11555374Y8441893D01*
X11558473Y8446770D01*
X11560403Y8452256D01*
X11561114Y8458555D01*
X11561114Y8627414D01*
X11560403Y8633764D01*
X11558473Y8639200D01*
X11555374Y8644128D01*
X11551310Y8648192D01*
X11546382Y8651290D01*
X11540947Y8653221D01*
X11534648Y8653932D01*
X11185753Y8653932D01*
X11179454Y8653221D01*
X11174018Y8651290D01*
X11169091Y8648192D01*
X11165027Y8644128D01*
X11161928Y8639200D01*
X11159998Y8633764D01*
X11159286Y8627414D01*
X11159286Y8591753D01*
X11158524Y8587892D01*
X11156340Y8584590D01*
X11153038Y8582406D01*
X11149126Y8581593D01*
X9559544Y8581644D01*
X9551517Y8580831D01*
X9544304Y8578646D01*
X9537598Y8575090D01*
X9531400Y8569960D01*
X8803081Y7841691D01*
X8799779Y7839456D01*
X8795867Y7838694D01*
X2300478Y7838694D01*
X2292451Y7837881D01*
X2285238Y7835696D01*
X2278532Y7832140D01*
X2272334Y7827009D01*
X1074470Y6629196D01*
X1070914Y6626859D01*
X1066647Y6626250D01*
X1062532Y6627418D01*
X1059027Y6629247D01*
X1043889Y6635140D01*
X1028242Y6639255D01*
X1012139Y6641592D01*
X995934Y6642049D01*
X979779Y6640626D01*
X963879Y6637426D01*
X948436Y6632397D01*
X933703Y6625691D01*
X919784Y6617309D01*
X906932Y6607403D01*
X895299Y6596075D01*
X885037Y6583527D01*
X876249Y6569862D01*
X869137Y6555333D01*
X863650Y6540042D01*
X859993Y6524244D01*
X858113Y6508089D01*
X858113Y6491884D01*
X859993Y6475780D01*
X863650Y6459982D01*
X869137Y6444691D01*
X876249Y6430111D01*
X883564Y6418783D01*
X885088Y6414719D01*
X884783Y6410401D01*
X882700Y6406591D01*
X879246Y6404000D01*
X875030Y6403086D01*
X864463Y6403086D01*
X847547Y6401257D01*
X830884Y6397599D01*
X814781Y6392164D01*
X799287Y6385001D01*
X784707Y6376212D01*
X771144Y6365900D01*
X758748Y6354216D01*
X747725Y6341211D01*
X738174Y6327140D01*
X730199Y6312052D01*
X723900Y6296253D01*
X719328Y6279845D01*
X716584Y6263030D01*
X715670Y6246012D01*
X716584Y6228994D01*
X719328Y6212179D01*
X723900Y6195771D01*
X730199Y6179921D01*
X738174Y6164884D01*
X747725Y6150762D01*
X758748Y6137808D01*
X771144Y6126073D01*
X784707Y6115761D01*
X799287Y6106972D01*
X814781Y6099860D01*
X830884Y6094374D01*
X847547Y6090716D01*
G37*
G36*
X9070543Y9127490D02*
G01*
X9070543Y9189567D01*
X9008618Y9189567D01*
X9011259Y9184132D01*
X9020048Y9170466D01*
X9030309Y9157919D01*
X9041942Y9146590D01*
X9054795Y9136684D01*
X9068714Y9128302D01*
G37*
G36*
X13065353Y6146088D02*
G01*
X13414248Y6146088D01*
X13420547Y6146800D01*
X13425982Y6148730D01*
X13430910Y6151778D01*
X13434974Y6155893D01*
X13438073Y6160770D01*
X13440003Y6166256D01*
X13440714Y6172555D01*
X13440714Y6341414D01*
X13440003Y6347764D01*
X13438073Y6353200D01*
X13434974Y6358128D01*
X13430910Y6362192D01*
X13425982Y6365290D01*
X13420547Y6367221D01*
X13414248Y6367932D01*
X13065353Y6367932D01*
X13059054Y6367221D01*
X13053618Y6365290D01*
X13048691Y6362192D01*
X13044627Y6358128D01*
X13041528Y6353200D01*
X13039598Y6347764D01*
X13038886Y6341414D01*
X13038886Y6172555D01*
X13039598Y6166256D01*
X13041528Y6160770D01*
X13044627Y6155893D01*
X13048691Y6151778D01*
X13053618Y6148730D01*
X13059054Y6146800D01*
G37*
G36*
X1380998Y964844D02*
G01*
X1404213Y965809D01*
X1427276Y968654D01*
X1450035Y973429D01*
X1472285Y980084D01*
X1493926Y988517D01*
X1514805Y998728D01*
X1534769Y1010615D01*
X1553718Y1024128D01*
X1571447Y1039114D01*
X1587855Y1055573D01*
X1602892Y1073302D01*
X1616405Y1092200D01*
X1628292Y1112164D01*
X1638503Y1133043D01*
X1646936Y1154684D01*
X1653590Y1176985D01*
X1658315Y1199743D01*
X1661210Y1222756D01*
X1662175Y1246022D01*
X1661210Y1269238D01*
X1658315Y1292301D01*
X1653590Y1315008D01*
X1646936Y1337310D01*
X1638503Y1358950D01*
X1628292Y1379829D01*
X1616405Y1399794D01*
X1602892Y1418691D01*
X1587855Y1436420D01*
X1571447Y1452880D01*
X1553718Y1467866D01*
X1534769Y1481378D01*
X1514805Y1493266D01*
X1493926Y1503476D01*
X1472285Y1511909D01*
X1450035Y1518564D01*
X1427276Y1523339D01*
X1404213Y1526184D01*
X1380998Y1527149D01*
X1357782Y1526184D01*
X1334719Y1523339D01*
X1311960Y1518564D01*
X1289710Y1511909D01*
X1268069Y1503476D01*
X1247190Y1493266D01*
X1227226Y1481378D01*
X1208278Y1467866D01*
X1190548Y1452880D01*
X1174140Y1436420D01*
X1159103Y1418691D01*
X1145590Y1399794D01*
X1133703Y1379829D01*
X1123492Y1358950D01*
X1115060Y1337310D01*
X1108456Y1315008D01*
X1103680Y1292301D01*
X1100785Y1269238D01*
X1099820Y1246022D01*
X1100785Y1222756D01*
X1103680Y1199743D01*
X1108456Y1176985D01*
X1115060Y1154684D01*
X1123492Y1133043D01*
X1133703Y1112164D01*
X1145590Y1092200D01*
X1159103Y1073302D01*
X1174140Y1055573D01*
X1190548Y1039114D01*
X1208278Y1024128D01*
X1227226Y1010615D01*
X1247190Y998728D01*
X1268069Y988517D01*
X1289710Y980084D01*
X1311960Y973429D01*
X1334719Y968654D01*
X1357782Y965809D01*
G37*
G36*
X1570532Y9127490D02*
G01*
X1570532Y9189567D01*
X1508607Y9189567D01*
X1511249Y9184132D01*
X1520037Y9170466D01*
X1530299Y9157919D01*
X1541932Y9146590D01*
X1554784Y9136684D01*
X1568704Y9128302D01*
G37*
G36*
X13065353Y8940088D02*
G01*
X13414248Y8940088D01*
X13420547Y8940800D01*
X13425982Y8942730D01*
X13430910Y8945778D01*
X13434974Y8949893D01*
X13438073Y8954770D01*
X13440003Y8960256D01*
X13440714Y8966555D01*
X13440714Y9135414D01*
X13440003Y9141764D01*
X13438073Y9147200D01*
X13434974Y9152128D01*
X13430910Y9156192D01*
X13425982Y9159290D01*
X13420547Y9161221D01*
X13414248Y9161932D01*
X13065353Y9161932D01*
X13059054Y9161221D01*
X13053618Y9159290D01*
X13048691Y9156192D01*
X13044627Y9152128D01*
X13041528Y9147200D01*
X13039598Y9141764D01*
X13038886Y9135414D01*
X13038886Y8966555D01*
X13039598Y8960256D01*
X13041528Y8954770D01*
X13044627Y8949893D01*
X13048691Y8945778D01*
X13053618Y8942730D01*
X13059054Y8940800D01*
G37*
G36*
X13065353Y6400088D02*
G01*
X13414248Y6400088D01*
X13420547Y6400800D01*
X13425982Y6402730D01*
X13430910Y6405778D01*
X13434974Y6409893D01*
X13438073Y6414770D01*
X13440003Y6420256D01*
X13440714Y6426555D01*
X13440714Y6595414D01*
X13440003Y6601764D01*
X13438073Y6607200D01*
X13434974Y6612128D01*
X13430910Y6616192D01*
X13425982Y6619290D01*
X13420547Y6621221D01*
X13414248Y6621932D01*
X13065353Y6621932D01*
X13059054Y6621221D01*
X13053618Y6619290D01*
X13048691Y6616192D01*
X13044627Y6612128D01*
X13041528Y6607200D01*
X13039598Y6601764D01*
X13038886Y6595414D01*
X13038886Y6426555D01*
X13039598Y6420256D01*
X13041528Y6414770D01*
X13044627Y6409893D01*
X13048691Y6405778D01*
X13053618Y6402730D01*
X13059054Y6400800D01*
G37*
G36*
X13065353Y8686088D02*
G01*
X13414248Y8686088D01*
X13420547Y8686800D01*
X13425982Y8688730D01*
X13430910Y8691778D01*
X13434974Y8695893D01*
X13438073Y8700770D01*
X13440003Y8706256D01*
X13440714Y8712555D01*
X13440714Y8881414D01*
X13440003Y8887764D01*
X13438073Y8893200D01*
X13434974Y8898128D01*
X13430910Y8902192D01*
X13425982Y8905290D01*
X13420547Y8907221D01*
X13414248Y8907932D01*
X13065353Y8907932D01*
X13059054Y8907221D01*
X13053618Y8905290D01*
X13048691Y8902192D01*
X13044627Y8898128D01*
X13041528Y8893200D01*
X13039598Y8887764D01*
X13038886Y8881414D01*
X13038886Y8712555D01*
X13039598Y8706256D01*
X13041528Y8700770D01*
X13044627Y8695893D01*
X13048691Y8691778D01*
X13053618Y8688730D01*
X13059054Y8686800D01*
G37*
G36*
X864463Y8588908D02*
G01*
X881532Y8588908D01*
X898448Y8590737D01*
X915111Y8594394D01*
X931214Y8599830D01*
X946708Y8606993D01*
X961288Y8615781D01*
X974852Y8626094D01*
X987247Y8637778D01*
X998270Y8650782D01*
X1007821Y8664905D01*
X1015796Y8679942D01*
X1022096Y8695740D01*
X1026668Y8712200D01*
X1029411Y8728964D01*
X1030325Y8745982D01*
X1029411Y8763000D01*
X1026668Y8779814D01*
X1022096Y8796223D01*
X1015796Y8812072D01*
X1007821Y8827109D01*
X998016Y8841486D01*
X996137Y8844788D01*
X995629Y8848547D01*
X996492Y8852204D01*
X998626Y8855303D01*
X1001776Y8857437D01*
X1005484Y8858250D01*
X1012139Y8858402D01*
X1028242Y8860739D01*
X1043889Y8864854D01*
X1059027Y8870746D01*
X1073404Y8878316D01*
X1086764Y8887460D01*
X1099058Y8898077D01*
X1109980Y8910066D01*
X1119530Y8923172D01*
X1127506Y8937294D01*
X1133856Y8952230D01*
X1138428Y8967825D01*
X1141171Y8983776D01*
X1142085Y8999982D01*
X1141171Y9016187D01*
X1138428Y9032189D01*
X1133856Y9047734D01*
X1127506Y9062720D01*
X1119530Y9076842D01*
X1109980Y9089948D01*
X1099058Y9101886D01*
X1086764Y9112504D01*
X1073404Y9121698D01*
X1059027Y9129268D01*
X1045057Y9134703D01*
X1041704Y9136888D01*
X1039418Y9140190D01*
X1038606Y9144152D01*
X1038606Y9479889D01*
X1039368Y9483801D01*
X1041603Y9487103D01*
X1325930Y9771430D01*
X1329232Y9773666D01*
X1333144Y9774428D01*
X11149126Y9774428D01*
X11153038Y9773666D01*
X11156340Y9771430D01*
X11158524Y9768179D01*
X11159286Y9764268D01*
X11159286Y9748774D01*
X11158524Y9744862D01*
X11156340Y9741611D01*
X11153038Y9739376D01*
X11149126Y9738614D01*
X4200398Y9738614D01*
X4192371Y9737801D01*
X4185158Y9735616D01*
X4178452Y9732060D01*
X4172254Y9726930D01*
X3574643Y9129115D01*
X3571036Y9126778D01*
X3566820Y9126169D01*
X3562705Y9127337D01*
X3559048Y9129268D01*
X3543909Y9135160D01*
X3528212Y9139275D01*
X3512159Y9141561D01*
X3495954Y9142018D01*
X3479800Y9140647D01*
X3463899Y9137446D01*
X3448456Y9132417D01*
X3433673Y9125661D01*
X3419805Y9117279D01*
X3406952Y9107373D01*
X3395319Y9096095D01*
X3385058Y9083497D01*
X3376269Y9069882D01*
X3369106Y9055303D01*
X3363671Y9040012D01*
X3359962Y9024213D01*
X3358134Y9008110D01*
X3358134Y8991904D01*
X3359962Y8975750D01*
X3363671Y8959951D01*
X3369106Y8944660D01*
X3376269Y8930132D01*
X3383584Y8918752D01*
X3385108Y8914688D01*
X3384753Y8910421D01*
X3382721Y8906611D01*
X3379266Y8904020D01*
X3375050Y8903106D01*
X3364484Y8903106D01*
X3347567Y8901277D01*
X3330905Y8897620D01*
X3314750Y8892184D01*
X3299307Y8885021D01*
X3284728Y8876233D01*
X3271164Y8865920D01*
X3258769Y8854186D01*
X3247745Y8841232D01*
X3238195Y8827109D01*
X3230219Y8812072D01*
X3223920Y8796223D01*
X3219348Y8779814D01*
X3216605Y8763000D01*
X3215640Y8745982D01*
X3216605Y8728964D01*
X3219348Y8712200D01*
X3223920Y8695740D01*
X3230219Y8679942D01*
X3238195Y8664905D01*
X3247745Y8650782D01*
X3258769Y8637778D01*
X3271164Y8626094D01*
X3284728Y8615781D01*
X3299307Y8606993D01*
X3314750Y8599830D01*
X3330905Y8594394D01*
X3347567Y8590737D01*
X3364484Y8588908D01*
X3381501Y8588908D01*
X3398469Y8590737D01*
X3415080Y8594394D01*
X3431235Y8599830D01*
X3446678Y8606993D01*
X3461308Y8615781D01*
X3474872Y8626094D01*
X3487216Y8637778D01*
X3498240Y8650782D01*
X3507841Y8664905D01*
X3515817Y8679942D01*
X3522116Y8695740D01*
X3526637Y8712200D01*
X3529431Y8728964D01*
X3530346Y8745982D01*
X3529431Y8763000D01*
X3526637Y8779814D01*
X3522116Y8796223D01*
X3515817Y8812072D01*
X3507841Y8827109D01*
X3498037Y8841486D01*
X3496157Y8844788D01*
X3495598Y8848547D01*
X3496462Y8852204D01*
X3498646Y8855303D01*
X3501796Y8857437D01*
X3505454Y8858250D01*
X3512159Y8858402D01*
X3528212Y8860739D01*
X3543909Y8864854D01*
X3559048Y8870746D01*
X3573373Y8878316D01*
X3586784Y8887460D01*
X3599027Y8898077D01*
X3610000Y8910066D01*
X3619550Y8923172D01*
X3627526Y8937294D01*
X3633825Y8952230D01*
X3638397Y8967825D01*
X3641191Y8983776D01*
X3642106Y8999982D01*
X3641191Y9016187D01*
X3638397Y9032189D01*
X3633825Y9047734D01*
X3627170Y9063482D01*
X3626358Y9067393D01*
X3627120Y9071305D01*
X3629304Y9074607D01*
X4212894Y9658400D01*
X4216196Y9660636D01*
X4220108Y9661398D01*
X11149939Y9661398D01*
X11154105Y9660534D01*
X11157508Y9657994D01*
X11159642Y9654336D01*
X11160048Y9650120D01*
X11159286Y9643414D01*
X11159286Y9474555D01*
X11159998Y9468256D01*
X11161928Y9462770D01*
X11165027Y9457893D01*
X11169091Y9453778D01*
X11174018Y9450730D01*
X11179454Y9448800D01*
X11185753Y9448088D01*
X11534648Y9448088D01*
X11540947Y9448800D01*
X11546382Y9450730D01*
X11551310Y9453778D01*
X11555374Y9457893D01*
X11558473Y9462770D01*
X11560403Y9468256D01*
X11561114Y9474555D01*
X11561114Y9643414D01*
X11560403Y9649764D01*
X11558473Y9655200D01*
X11555374Y9660128D01*
X11551310Y9664192D01*
X11546382Y9667290D01*
X11540947Y9669221D01*
X11534648Y9669932D01*
X11408918Y9669932D01*
X11405006Y9670694D01*
X11401755Y9672878D01*
X11399520Y9676180D01*
X11398758Y9680092D01*
X11398758Y9691928D01*
X11399520Y9695840D01*
X11401755Y9699091D01*
X11405006Y9701326D01*
X11408918Y9702088D01*
X11534648Y9702088D01*
X11540947Y9702800D01*
X11546382Y9704730D01*
X11551310Y9707778D01*
X11555374Y9711893D01*
X11558473Y9716770D01*
X11560403Y9722256D01*
X11561114Y9728555D01*
X11561114Y9897414D01*
X11560403Y9903764D01*
X11558473Y9909200D01*
X11555374Y9914128D01*
X11551310Y9918192D01*
X11546382Y9921290D01*
X11540947Y9923221D01*
X11534648Y9923932D01*
X11185753Y9923932D01*
X11179454Y9923221D01*
X11174018Y9921290D01*
X11169091Y9918192D01*
X11165027Y9914128D01*
X11161928Y9909200D01*
X11159998Y9903764D01*
X11159286Y9897414D01*
X11159286Y9861804D01*
X11158524Y9857892D01*
X11156340Y9854641D01*
X11153038Y9852406D01*
X11149126Y9851644D01*
X1313434Y9851644D01*
X1305407Y9850831D01*
X1298194Y9848646D01*
X1291488Y9845090D01*
X1285290Y9839960D01*
X973074Y9527743D01*
X967943Y9521545D01*
X964387Y9514840D01*
X962202Y9507626D01*
X961390Y9499600D01*
X961390Y9144000D01*
X960526Y9139885D01*
X958037Y9136430D01*
X954379Y9134348D01*
X948436Y9132417D01*
X933703Y9125661D01*
X919784Y9117279D01*
X906932Y9107373D01*
X895299Y9096095D01*
X885037Y9083497D01*
X876249Y9069882D01*
X869137Y9055303D01*
X863650Y9040012D01*
X859993Y9024213D01*
X858113Y9008110D01*
X858113Y8991904D01*
X859993Y8975750D01*
X863650Y8959951D01*
X869137Y8944660D01*
X876249Y8930132D01*
X883564Y8918752D01*
X885088Y8914688D01*
X884783Y8910421D01*
X882700Y8906611D01*
X879246Y8904020D01*
X875030Y8903106D01*
X864463Y8903106D01*
X847547Y8901277D01*
X830884Y8897620D01*
X814781Y8892184D01*
X799287Y8885021D01*
X784707Y8876233D01*
X771144Y8865920D01*
X758748Y8854186D01*
X747725Y8841232D01*
X738174Y8827109D01*
X730199Y8812072D01*
X723900Y8796223D01*
X719328Y8779814D01*
X716584Y8763000D01*
X715670Y8745982D01*
X716584Y8728964D01*
X719328Y8712200D01*
X723900Y8695740D01*
X730199Y8679942D01*
X738174Y8664905D01*
X747725Y8650782D01*
X758748Y8637778D01*
X771144Y8626094D01*
X784707Y8615781D01*
X799287Y8606993D01*
X814781Y8599830D01*
X830884Y8594394D01*
X847547Y8590737D01*
G37*
G36*
X5864504Y8588908D02*
G01*
X5881522Y8588908D01*
X5898438Y8590737D01*
X5915101Y8594394D01*
X5931255Y8599830D01*
X5946698Y8606993D01*
X5961278Y8615781D01*
X5974842Y8626094D01*
X5987237Y8637778D01*
X5998260Y8650782D01*
X6007811Y8664905D01*
X6015786Y8679942D01*
X6022086Y8695740D01*
X6026658Y8712200D01*
X6029401Y8728964D01*
X6030315Y8745982D01*
X6029401Y8763000D01*
X6026658Y8779814D01*
X6022086Y8796223D01*
X6015786Y8812072D01*
X6007811Y8827109D01*
X5998006Y8841486D01*
X5996127Y8844788D01*
X5995619Y8848547D01*
X5996482Y8852204D01*
X5998616Y8855303D01*
X6001766Y8857437D01*
X6005474Y8858250D01*
X6012180Y8858402D01*
X6028232Y8860739D01*
X6043930Y8864854D01*
X6059017Y8870746D01*
X6073394Y8878316D01*
X6086754Y8887460D01*
X6099048Y8898077D01*
X6110020Y8910066D01*
X6119520Y8923172D01*
X6127496Y8937294D01*
X6133846Y8952230D01*
X6138418Y8967825D01*
X6141161Y8983776D01*
X6142075Y8999982D01*
X6141161Y9016187D01*
X6138418Y9032189D01*
X6133846Y9047734D01*
X6127140Y9063532D01*
X6126327Y9067444D01*
X6127089Y9071356D01*
X6129274Y9074658D01*
X6513118Y9458502D01*
X6516420Y9460738D01*
X6520332Y9461500D01*
X9275673Y9461500D01*
X9279585Y9460738D01*
X9282887Y9458502D01*
X9717328Y9024112D01*
X9723526Y9018981D01*
X9730232Y9015425D01*
X9737445Y9013240D01*
X9745472Y9012428D01*
X11149126Y9012377D01*
X11153038Y9011615D01*
X11156340Y9009430D01*
X11158524Y9006128D01*
X11159286Y9002217D01*
X11159286Y8966555D01*
X11159998Y8960256D01*
X11161928Y8954770D01*
X11165027Y8949893D01*
X11169091Y8945778D01*
X11174018Y8942730D01*
X11179454Y8940800D01*
X11185753Y8940088D01*
X11534648Y8940088D01*
X11540947Y8940800D01*
X11546382Y8942730D01*
X11551310Y8945778D01*
X11555374Y8949893D01*
X11558473Y8954770D01*
X11560403Y8960256D01*
X11561114Y8966555D01*
X11561114Y9135414D01*
X11560403Y9141764D01*
X11558473Y9147200D01*
X11555374Y9152128D01*
X11551310Y9156192D01*
X11546382Y9159290D01*
X11540947Y9161221D01*
X11534648Y9161932D01*
X11185753Y9161932D01*
X11179454Y9161221D01*
X11174018Y9159290D01*
X11169091Y9156192D01*
X11165027Y9152128D01*
X11161928Y9147200D01*
X11159998Y9141764D01*
X11159286Y9135414D01*
X11159286Y9099753D01*
X11158524Y9095892D01*
X11156340Y9092590D01*
X11153038Y9090406D01*
X11149126Y9089593D01*
X9765182Y9089644D01*
X9761270Y9090406D01*
X9757968Y9092641D01*
X9323527Y9527032D01*
X9317329Y9532162D01*
X9310624Y9535718D01*
X9303410Y9537903D01*
X9295384Y9538716D01*
X6500622Y9538716D01*
X6492595Y9537903D01*
X6485382Y9535718D01*
X6478676Y9532162D01*
X6472478Y9527032D01*
X6074562Y9129166D01*
X6070955Y9126829D01*
X6066739Y9126220D01*
X6062624Y9127337D01*
X6059017Y9129268D01*
X6043930Y9135160D01*
X6028232Y9139275D01*
X6012180Y9141561D01*
X5995924Y9142018D01*
X5979769Y9140647D01*
X5963869Y9137446D01*
X5948426Y9132417D01*
X5933694Y9125661D01*
X5919774Y9117279D01*
X5906922Y9107373D01*
X5895289Y9096095D01*
X5885027Y9083497D01*
X5876290Y9069882D01*
X5869127Y9055303D01*
X5863640Y9040012D01*
X5859983Y9024213D01*
X5858154Y9008110D01*
X5858154Y8991904D01*
X5859983Y8975750D01*
X5863640Y8959951D01*
X5869127Y8944660D01*
X5876290Y8930132D01*
X5883554Y8918752D01*
X5885078Y8914688D01*
X5884773Y8910421D01*
X5882690Y8906611D01*
X5879236Y8904020D01*
X5875020Y8903106D01*
X5864504Y8903106D01*
X5847537Y8901277D01*
X5830925Y8897620D01*
X5814771Y8892184D01*
X5799277Y8885021D01*
X5784697Y8876233D01*
X5771134Y8865920D01*
X5758789Y8854186D01*
X5747766Y8841232D01*
X5738164Y8827109D01*
X5730189Y8812072D01*
X5723890Y8796223D01*
X5719318Y8779814D01*
X5716574Y8763000D01*
X5715660Y8745982D01*
X5716574Y8728964D01*
X5719318Y8712200D01*
X5723890Y8695740D01*
X5730189Y8679942D01*
X5738164Y8664905D01*
X5747766Y8650782D01*
X5758789Y8637778D01*
X5771134Y8626094D01*
X5784697Y8615781D01*
X5799277Y8606993D01*
X5814771Y8599830D01*
X5830925Y8594394D01*
X5847537Y8590737D01*
G37*
G36*
X6880504Y8588908D02*
G01*
X6897522Y8588908D01*
X6914438Y8590737D01*
X6931101Y8594394D01*
X6947255Y8599830D01*
X6962698Y8606993D01*
X6977278Y8615781D01*
X6990842Y8626094D01*
X7003237Y8637778D01*
X7014260Y8650782D01*
X7023811Y8664905D01*
X7031786Y8679942D01*
X7038086Y8695740D01*
X7042658Y8712200D01*
X7045401Y8728964D01*
X7046315Y8745982D01*
X7045401Y8763000D01*
X7042658Y8779814D01*
X7038086Y8796223D01*
X7031786Y8812072D01*
X7023811Y8827109D01*
X7014260Y8841232D01*
X7003237Y8854186D01*
X6990842Y8865920D01*
X6977278Y8876233D01*
X6962698Y8885021D01*
X6947255Y8892184D01*
X6931101Y8897620D01*
X6914438Y8901277D01*
X6897522Y8903106D01*
X6880504Y8903106D01*
X6863537Y8901277D01*
X6846925Y8897620D01*
X6830771Y8892184D01*
X6815277Y8885021D01*
X6800697Y8876233D01*
X6787134Y8865920D01*
X6774789Y8854186D01*
X6763766Y8841232D01*
X6754164Y8827109D01*
X6746189Y8812072D01*
X6739890Y8796223D01*
X6735318Y8779814D01*
X6732574Y8763000D01*
X6731660Y8745982D01*
X6732574Y8728964D01*
X6735318Y8712200D01*
X6739890Y8695740D01*
X6746189Y8679942D01*
X6754164Y8664905D01*
X6763766Y8650782D01*
X6774789Y8637778D01*
X6787134Y8626094D01*
X6800697Y8615781D01*
X6815277Y8606993D01*
X6830771Y8599830D01*
X6846925Y8594394D01*
X6863537Y8590737D01*
G37*
G36*
X9380474Y8588908D02*
G01*
X9397542Y8588908D01*
X9414459Y8590737D01*
X9431070Y8594394D01*
X9447225Y8599830D01*
X9462719Y8606993D01*
X9477298Y8615781D01*
X9490862Y8626094D01*
X9503206Y8637778D01*
X9514281Y8650782D01*
X9523831Y8664905D01*
X9531807Y8679942D01*
X9538106Y8695740D01*
X9542678Y8712200D01*
X9545421Y8728964D01*
X9546336Y8745982D01*
X9545421Y8763000D01*
X9542678Y8779814D01*
X9538106Y8796223D01*
X9531807Y8812072D01*
X9523831Y8827109D01*
X9514281Y8841232D01*
X9503206Y8854186D01*
X9490862Y8865920D01*
X9477298Y8876233D01*
X9462719Y8885021D01*
X9447225Y8892184D01*
X9431070Y8897620D01*
X9414459Y8901277D01*
X9397542Y8903106D01*
X9380474Y8903106D01*
X9363557Y8901277D01*
X9346895Y8897620D01*
X9330740Y8892184D01*
X9315297Y8885021D01*
X9300718Y8876233D01*
X9287154Y8865920D01*
X9274759Y8854186D01*
X9263735Y8841232D01*
X9254185Y8827109D01*
X9246209Y8812072D01*
X9239910Y8796223D01*
X9235338Y8779814D01*
X9232595Y8763000D01*
X9231680Y8745982D01*
X9232595Y8728964D01*
X9235338Y8712200D01*
X9239910Y8695740D01*
X9246209Y8679942D01*
X9254185Y8664905D01*
X9263735Y8650782D01*
X9274759Y8637778D01*
X9287154Y8626094D01*
X9300718Y8615781D01*
X9315297Y8606993D01*
X9330740Y8599830D01*
X9346895Y8594394D01*
X9363557Y8590737D01*
G37*
G36*
X4380484Y8588908D02*
G01*
X4397502Y8588908D01*
X4414469Y8590737D01*
X4431080Y8594394D01*
X4447235Y8599830D01*
X4462678Y8606993D01*
X4477308Y8615781D01*
X4490872Y8626094D01*
X4503216Y8637778D01*
X4514240Y8650782D01*
X4523841Y8664905D01*
X4531817Y8679942D01*
X4538116Y8695740D01*
X4542637Y8712200D01*
X4545431Y8728964D01*
X4546346Y8745982D01*
X4545431Y8763000D01*
X4542637Y8779814D01*
X4538116Y8796223D01*
X4531817Y8812072D01*
X4523841Y8827109D01*
X4514240Y8841232D01*
X4503216Y8854186D01*
X4490872Y8865920D01*
X4477308Y8876233D01*
X4462678Y8885021D01*
X4447235Y8892184D01*
X4431080Y8897620D01*
X4414469Y8901277D01*
X4397502Y8903106D01*
X4380484Y8903106D01*
X4363567Y8901277D01*
X4346905Y8897620D01*
X4330750Y8892184D01*
X4315307Y8885021D01*
X4300728Y8876233D01*
X4287164Y8865920D01*
X4274769Y8854186D01*
X4263745Y8841232D01*
X4254195Y8827109D01*
X4246219Y8812072D01*
X4239920Y8796223D01*
X4235348Y8779814D01*
X4232605Y8763000D01*
X4231640Y8745982D01*
X4232605Y8728964D01*
X4235348Y8712200D01*
X4239920Y8695740D01*
X4246219Y8679942D01*
X4254195Y8664905D01*
X4263745Y8650782D01*
X4274769Y8637778D01*
X4287164Y8626094D01*
X4300728Y8615781D01*
X4315307Y8606993D01*
X4330750Y8599830D01*
X4346905Y8594394D01*
X4363567Y8590737D01*
G37*
G36*
X1570532Y6627469D02*
G01*
X1570532Y6689547D01*
X1508607Y6689547D01*
X1511249Y6684111D01*
X1520037Y6670497D01*
X1530299Y6657898D01*
X1541932Y6646621D01*
X1554784Y6636715D01*
X1568704Y6628333D01*
G37*
G36*
X4070553Y6627469D02*
G01*
X4070553Y6689547D01*
X4008628Y6689547D01*
X4011269Y6684111D01*
X4020058Y6670497D01*
X4030319Y6657898D01*
X4041952Y6646621D01*
X4054805Y6636715D01*
X4068673Y6628333D01*
G37*
G36*
X6570573Y6627469D02*
G01*
X6570573Y6689547D01*
X6508597Y6689547D01*
X6511290Y6684111D01*
X6520027Y6670497D01*
X6530289Y6657898D01*
X6541922Y6646621D01*
X6554774Y6636715D01*
X6568694Y6628333D01*
G37*
G36*
X9070543Y6627469D02*
G01*
X9070543Y6689547D01*
X9008618Y6689547D01*
X9011259Y6684111D01*
X9020048Y6670497D01*
X9030309Y6657898D01*
X9041942Y6646621D01*
X9054795Y6636715D01*
X9068714Y6628333D01*
G37*
G36*
X1699463Y6627622D02*
G01*
X1708404Y6632295D01*
X1721764Y6641490D01*
X1734057Y6652107D01*
X1744980Y6664045D01*
X1754530Y6677152D01*
X1761540Y6689547D01*
X1699463Y6689547D01*
G37*
G36*
X9199473Y6627622D02*
G01*
X9208363Y6632295D01*
X9221774Y6641490D01*
X9234017Y6652107D01*
X9244990Y6664045D01*
X9254540Y6677152D01*
X9261551Y6689547D01*
X9199473Y6689547D01*
G37*
G36*
X6699453Y6627622D02*
G01*
X6708394Y6632295D01*
X6721754Y6641490D01*
X6734048Y6652107D01*
X6745020Y6664045D01*
X6754520Y6677152D01*
X6761530Y6689547D01*
X6699453Y6689547D01*
G37*
G36*
X4199432Y6627622D02*
G01*
X4208373Y6632295D01*
X4221784Y6641490D01*
X4234027Y6652107D01*
X4245000Y6664045D01*
X4254550Y6677152D01*
X4261510Y6689547D01*
X4199432Y6689547D01*
G37*
G36*
X13065353Y6654088D02*
G01*
X13140131Y6654088D01*
X13140131Y6716166D01*
X13038886Y6716166D01*
X13038886Y6680555D01*
X13039598Y6674256D01*
X13041528Y6668770D01*
X13044627Y6663893D01*
X13048691Y6659778D01*
X13053618Y6656730D01*
X13059054Y6654800D01*
G37*
G36*
X11459870Y6654088D02*
G01*
X11534648Y6654088D01*
X11540947Y6654800D01*
X11546382Y6656730D01*
X11551310Y6659778D01*
X11555374Y6663893D01*
X11558473Y6668770D01*
X11560403Y6674256D01*
X11561114Y6680555D01*
X11561114Y6716166D01*
X11459870Y6716166D01*
G37*
G36*
X11185753Y6654088D02*
G01*
X11266373Y6654088D01*
X11266373Y6716166D01*
X11159286Y6716166D01*
X11159286Y6680555D01*
X11159998Y6674256D01*
X11161928Y6668770D01*
X11165027Y6663893D01*
X11169091Y6659778D01*
X11174018Y6656730D01*
X11179454Y6654800D01*
G37*
G36*
X13333628Y6654088D02*
G01*
X13414248Y6654088D01*
X13420547Y6654800D01*
X13425982Y6656730D01*
X13430910Y6659778D01*
X13434974Y6663893D01*
X13438073Y6668770D01*
X13440003Y6674256D01*
X13440714Y6680555D01*
X13440714Y6716166D01*
X13333628Y6716166D01*
G37*
G36*
X11459870Y6813854D02*
G01*
X11561114Y6813854D01*
X11561114Y6849414D01*
X11560403Y6855764D01*
X11558473Y6861200D01*
X11555374Y6866128D01*
X11551310Y6870192D01*
X11546382Y6873290D01*
X11540947Y6875221D01*
X11534648Y6875932D01*
X11459870Y6875932D01*
G37*
G36*
X13038886Y6813854D02*
G01*
X13140131Y6813854D01*
X13140131Y6875932D01*
X13065353Y6875932D01*
X13059054Y6875221D01*
X13053618Y6873290D01*
X13048691Y6870192D01*
X13044627Y6866128D01*
X13041528Y6861200D01*
X13039598Y6855764D01*
X13038886Y6849414D01*
G37*
G36*
X11159286Y6813854D02*
G01*
X11266373Y6813854D01*
X11266373Y6875932D01*
X11185753Y6875932D01*
X11179454Y6875221D01*
X11174018Y6873290D01*
X11169091Y6870192D01*
X11165027Y6866128D01*
X11161928Y6861200D01*
X11159998Y6855764D01*
X11159286Y6849414D01*
G37*
G36*
X13333628Y6813854D02*
G01*
X13440714Y6813854D01*
X13440714Y6849414D01*
X13440003Y6855764D01*
X13438073Y6861200D01*
X13434974Y6866128D01*
X13430910Y6870192D01*
X13425982Y6873290D01*
X13420547Y6875221D01*
X13414248Y6875932D01*
X13333628Y6875932D01*
G37*
G36*
X1699463Y6818426D02*
G01*
X1761540Y6818426D01*
X1754530Y6830822D01*
X1744980Y6843928D01*
X1734057Y6855917D01*
X1721764Y6866534D01*
X1708404Y6875678D01*
X1699463Y6880402D01*
G37*
G36*
X6699453Y6818426D02*
G01*
X6761530Y6818426D01*
X6754520Y6830822D01*
X6745020Y6843928D01*
X6734048Y6855917D01*
X6721754Y6866534D01*
X6708394Y6875678D01*
X6699453Y6880402D01*
G37*
G36*
X4199432Y6818426D02*
G01*
X4261510Y6818426D01*
X4254550Y6830822D01*
X4245000Y6843928D01*
X4234027Y6855917D01*
X4221784Y6866534D01*
X4208373Y6875678D01*
X4199432Y6880402D01*
G37*
G36*
X9199473Y6818426D02*
G01*
X9261551Y6818426D01*
X9254540Y6830822D01*
X9244990Y6843928D01*
X9234017Y6855917D01*
X9221774Y6866534D01*
X9208363Y6875678D01*
X9199473Y6880402D01*
G37*
G36*
X1508607Y6818426D02*
G01*
X1570532Y6818426D01*
X1570532Y6880504D01*
X1568704Y6879691D01*
X1554784Y6871309D01*
X1541932Y6861403D01*
X1530299Y6850075D01*
X1520037Y6837527D01*
X1511249Y6823862D01*
G37*
G36*
X4008628Y6818426D02*
G01*
X4070553Y6818426D01*
X4070553Y6880504D01*
X4068673Y6879691D01*
X4054805Y6871309D01*
X4041952Y6861403D01*
X4030319Y6850075D01*
X4020058Y6837527D01*
X4011269Y6823862D01*
G37*
G36*
X9008618Y6818426D02*
G01*
X9070543Y6818426D01*
X9070543Y6880504D01*
X9068714Y6879691D01*
X9054795Y6871309D01*
X9041942Y6861403D01*
X9030309Y6850075D01*
X9020048Y6837527D01*
X9011259Y6823862D01*
G37*
G36*
X6508597Y6818426D02*
G01*
X6570573Y6818426D01*
X6570573Y6880504D01*
X6568694Y6879691D01*
X6554774Y6871309D01*
X6541922Y6861403D01*
X6530289Y6850075D01*
X6520027Y6837527D01*
X6511290Y6823862D01*
G37*
G36*
X13065353Y6908088D02*
G01*
X13414248Y6908088D01*
X13420547Y6908800D01*
X13425982Y6910730D01*
X13430910Y6913778D01*
X13434974Y6917893D01*
X13438073Y6922770D01*
X13440003Y6928256D01*
X13440714Y6934555D01*
X13440714Y7103414D01*
X13440003Y7109764D01*
X13438073Y7115200D01*
X13434974Y7120128D01*
X13430910Y7124192D01*
X13425982Y7127290D01*
X13420547Y7129221D01*
X13414248Y7129932D01*
X13065353Y7129932D01*
X13059054Y7129221D01*
X13053618Y7127290D01*
X13048691Y7124192D01*
X13044627Y7120128D01*
X13041528Y7115200D01*
X13039598Y7109764D01*
X13038886Y7103414D01*
X13038886Y6934555D01*
X13039598Y6928256D01*
X13041528Y6922770D01*
X13044627Y6917893D01*
X13048691Y6913778D01*
X13053618Y6910730D01*
X13059054Y6908800D01*
G37*
G36*
X1880463Y8588908D02*
G01*
X1897532Y8588908D01*
X1914448Y8590737D01*
X1931111Y8594394D01*
X1947214Y8599830D01*
X1962708Y8606993D01*
X1977288Y8615781D01*
X1990852Y8626094D01*
X2003247Y8637778D01*
X2014270Y8650782D01*
X2023821Y8664905D01*
X2031796Y8679942D01*
X2038096Y8695740D01*
X2042668Y8712200D01*
X2045411Y8728964D01*
X2046325Y8745982D01*
X2045411Y8763000D01*
X2042668Y8779814D01*
X2038096Y8796223D01*
X2031796Y8812072D01*
X2023821Y8827109D01*
X2014270Y8841232D01*
X2003247Y8854186D01*
X1990852Y8865920D01*
X1977288Y8876233D01*
X1962708Y8885021D01*
X1947214Y8892184D01*
X1931111Y8897620D01*
X1914448Y8901277D01*
X1897532Y8903106D01*
X1880463Y8903106D01*
X1863547Y8901277D01*
X1846884Y8897620D01*
X1830781Y8892184D01*
X1815287Y8885021D01*
X1800707Y8876233D01*
X1787143Y8865920D01*
X1774748Y8854186D01*
X1763725Y8841232D01*
X1754174Y8827109D01*
X1746199Y8812072D01*
X1739900Y8796223D01*
X1735328Y8779814D01*
X1732584Y8763000D01*
X1731670Y8745982D01*
X1732584Y8728964D01*
X1735328Y8712200D01*
X1739900Y8695740D01*
X1746199Y8679942D01*
X1754174Y8664905D01*
X1763725Y8650782D01*
X1774748Y8637778D01*
X1787143Y8626094D01*
X1800707Y8615781D01*
X1815287Y8606993D01*
X1830781Y8599830D01*
X1846884Y8594394D01*
X1863547Y8590737D01*
G37*
G36*
X8881008Y8464854D02*
G01*
X8904224Y8465769D01*
X8927287Y8468664D01*
X8950045Y8473440D01*
X8972296Y8480044D01*
X8993936Y8488527D01*
X9014815Y8498738D01*
X9034780Y8510625D01*
X9053677Y8524138D01*
X9071406Y8539124D01*
X9087866Y8555583D01*
X9102902Y8573312D01*
X9116364Y8592210D01*
X9128302Y8612174D01*
X9138513Y8633053D01*
X9146946Y8654694D01*
X9153550Y8676995D01*
X9158325Y8699703D01*
X9161221Y8722766D01*
X9162186Y8745982D01*
X9161221Y8769197D01*
X9158325Y8792260D01*
X9153550Y8815019D01*
X9146946Y8837320D01*
X9138513Y8858961D01*
X9128302Y8879840D01*
X9116364Y8899804D01*
X9102902Y8918702D01*
X9087866Y8936431D01*
X9077553Y8946743D01*
X9075166Y8950502D01*
X9074658Y8954922D01*
X9076029Y8959138D01*
X9079128Y8962339D01*
X9083243Y8963964D01*
X9087713Y8963609D01*
X9092488Y8962186D01*
X9100515Y8961374D01*
X9479788Y8961374D01*
X9483699Y8960612D01*
X9487001Y8958427D01*
X9675368Y8770061D01*
X9681565Y8764930D01*
X9688220Y8761374D01*
X9695484Y8759190D01*
X9703511Y8758377D01*
X11149126Y8758377D01*
X11153038Y8757615D01*
X11156340Y8755430D01*
X11158524Y8752128D01*
X11159286Y8748217D01*
X11159286Y8712555D01*
X11159998Y8706256D01*
X11161928Y8700770D01*
X11165027Y8695893D01*
X11169091Y8691778D01*
X11174018Y8688730D01*
X11179454Y8686800D01*
X11185753Y8686088D01*
X11534648Y8686088D01*
X11540947Y8686800D01*
X11546382Y8688730D01*
X11551310Y8691778D01*
X11555374Y8695893D01*
X11558473Y8700770D01*
X11560403Y8706256D01*
X11561114Y8712555D01*
X11561114Y8881414D01*
X11560403Y8887764D01*
X11558473Y8893200D01*
X11555374Y8898128D01*
X11551310Y8902192D01*
X11546382Y8905290D01*
X11540947Y8907221D01*
X11534648Y8907932D01*
X11185753Y8907932D01*
X11179454Y8907221D01*
X11174018Y8905290D01*
X11169091Y8902192D01*
X11165027Y8898128D01*
X11161928Y8893200D01*
X11159998Y8887764D01*
X11159286Y8881414D01*
X11159286Y8845753D01*
X11158524Y8841892D01*
X11156340Y8838590D01*
X11153038Y8836406D01*
X11149126Y8835593D01*
X9723221Y8835593D01*
X9719310Y8836406D01*
X9716008Y8838590D01*
X9527641Y9026956D01*
X9521444Y9032036D01*
X9514738Y9035643D01*
X9507524Y9037828D01*
X9499498Y9038590D01*
X9120174Y9038590D01*
X9116314Y9039402D01*
X9113012Y9041587D01*
X9027668Y9126931D01*
X9021419Y9132062D01*
X9014764Y9135618D01*
X9007500Y9137802D01*
X8999524Y9138615D01*
X8600490Y9138615D01*
X8592464Y9137802D01*
X8585250Y9135618D01*
X8578596Y9132062D01*
X8574074Y9128353D01*
X8570569Y9126474D01*
X8566658Y9126118D01*
X8562898Y9127236D01*
X8559038Y9129268D01*
X8543899Y9135160D01*
X8528202Y9139275D01*
X8512149Y9141561D01*
X8495944Y9142018D01*
X8479790Y9140647D01*
X8463889Y9137446D01*
X8448446Y9132417D01*
X8433714Y9125661D01*
X8419795Y9117279D01*
X8406942Y9107373D01*
X8395309Y9096095D01*
X8385048Y9083497D01*
X8376259Y9069882D01*
X8369096Y9055303D01*
X8363661Y9040012D01*
X8360003Y9024213D01*
X8358124Y9008110D01*
X8358124Y8991904D01*
X8360003Y8975750D01*
X8363661Y8959951D01*
X8369096Y8944660D01*
X8376259Y8930132D01*
X8383574Y8918752D01*
X8385098Y8914688D01*
X8384794Y8910421D01*
X8382711Y8906611D01*
X8379256Y8904020D01*
X8375040Y8903106D01*
X8364474Y8903106D01*
X8347557Y8901277D01*
X8330895Y8897620D01*
X8314740Y8892184D01*
X8299297Y8885021D01*
X8284718Y8876233D01*
X8271154Y8865920D01*
X8258759Y8854186D01*
X8247735Y8841232D01*
X8238185Y8827109D01*
X8230209Y8812072D01*
X8223910Y8796223D01*
X8219338Y8779814D01*
X8216595Y8763000D01*
X8215680Y8745982D01*
X8216595Y8728964D01*
X8219338Y8712200D01*
X8223910Y8695740D01*
X8230209Y8679942D01*
X8238185Y8664905D01*
X8247735Y8650782D01*
X8258759Y8637778D01*
X8271154Y8626094D01*
X8284718Y8615781D01*
X8299297Y8606993D01*
X8314740Y8599830D01*
X8330895Y8594394D01*
X8347557Y8590737D01*
X8364474Y8588908D01*
X8381542Y8588908D01*
X8398459Y8590737D01*
X8415070Y8594394D01*
X8431225Y8599830D01*
X8446719Y8606993D01*
X8461298Y8615781D01*
X8474862Y8626094D01*
X8487206Y8637778D01*
X8498281Y8650782D01*
X8507831Y8664905D01*
X8515807Y8679942D01*
X8522106Y8695740D01*
X8526678Y8712200D01*
X8529421Y8728964D01*
X8530336Y8745982D01*
X8529421Y8763000D01*
X8526678Y8779814D01*
X8522106Y8796223D01*
X8515807Y8812072D01*
X8507831Y8827109D01*
X8498027Y8841486D01*
X8496147Y8844788D01*
X8495588Y8848547D01*
X8496503Y8852204D01*
X8498636Y8855303D01*
X8501786Y8857437D01*
X8505444Y8858250D01*
X8512149Y8858402D01*
X8528202Y8860739D01*
X8543899Y8864854D01*
X8559038Y8870746D01*
X8573363Y8878316D01*
X8586774Y8887460D01*
X8599017Y8898077D01*
X8609990Y8910066D01*
X8619540Y8923172D01*
X8627516Y8937294D01*
X8633815Y8952230D01*
X8638387Y8967825D01*
X8641181Y8983776D01*
X8642096Y8999982D01*
X8641181Y9016187D01*
X8638387Y9032189D01*
X8633663Y9048343D01*
X8633256Y9052102D01*
X8634272Y9055709D01*
X8636508Y9058706D01*
X8639708Y9060688D01*
X8643416Y9061399D01*
X8979814Y9061399D01*
X8983675Y9060637D01*
X8986977Y9058402D01*
X9050274Y8995105D01*
X9052610Y8991498D01*
X9053220Y8987282D01*
X9052052Y8983167D01*
X9049308Y8979865D01*
X9045397Y8978036D01*
X9041130Y8977985D01*
X9037167Y8979662D01*
X9034780Y8981389D01*
X9014815Y8993276D01*
X8993936Y9003487D01*
X8972296Y9011920D01*
X8950045Y9018574D01*
X8927287Y9023350D01*
X8904224Y9026194D01*
X8881008Y9027160D01*
X8857792Y9026194D01*
X8834729Y9023350D01*
X8811971Y9018574D01*
X8789720Y9011920D01*
X8768080Y9003487D01*
X8747201Y8993276D01*
X8727236Y8981389D01*
X8708288Y8967876D01*
X8690559Y8952839D01*
X8674150Y8936431D01*
X8659114Y8918702D01*
X8645601Y8899804D01*
X8633714Y8879840D01*
X8623503Y8858961D01*
X8615070Y8837320D01*
X8608415Y8815019D01*
X8603691Y8792260D01*
X8600795Y8769197D01*
X8599830Y8745982D01*
X8600795Y8722766D01*
X8603691Y8699703D01*
X8608415Y8676995D01*
X8615070Y8654694D01*
X8623503Y8633053D01*
X8633714Y8612174D01*
X8645601Y8592210D01*
X8659114Y8573312D01*
X8674150Y8555583D01*
X8690559Y8539124D01*
X8708288Y8524138D01*
X8727236Y8510625D01*
X8747201Y8498738D01*
X8768080Y8488527D01*
X8789720Y8480044D01*
X8811971Y8473440D01*
X8834729Y8468664D01*
X8857792Y8465769D01*
G37*
G36*
X13065353Y7162088D02*
G01*
X13414248Y7162088D01*
X13420547Y7162800D01*
X13425982Y7164730D01*
X13430910Y7167778D01*
X13434974Y7171893D01*
X13438073Y7176770D01*
X13440003Y7182256D01*
X13440714Y7188555D01*
X13440714Y7357414D01*
X13440003Y7363764D01*
X13438073Y7369200D01*
X13434974Y7374128D01*
X13430910Y7378192D01*
X13425982Y7381290D01*
X13420547Y7383221D01*
X13414248Y7383932D01*
X13065353Y7383932D01*
X13059054Y7383221D01*
X13053618Y7381290D01*
X13048691Y7378192D01*
X13044627Y7374128D01*
X13041528Y7369200D01*
X13039598Y7363764D01*
X13038886Y7357414D01*
X13038886Y7188555D01*
X13039598Y7182256D01*
X13041528Y7176770D01*
X13044627Y7171893D01*
X13048691Y7167778D01*
X13053618Y7164730D01*
X13059054Y7162800D01*
G37*
G36*
X6380988Y8464854D02*
G01*
X6404203Y8465769D01*
X6427266Y8468664D01*
X6450025Y8473440D01*
X6472275Y8480044D01*
X6493967Y8488527D01*
X6514846Y8498738D01*
X6534810Y8510625D01*
X6553708Y8524138D01*
X6571437Y8539124D01*
X6587845Y8555583D01*
X6602882Y8573312D01*
X6616395Y8592210D01*
X6628282Y8612174D01*
X6638493Y8633053D01*
X6646925Y8654694D01*
X6653580Y8676995D01*
X6658356Y8699703D01*
X6661200Y8722766D01*
X6662166Y8745982D01*
X6661200Y8769197D01*
X6658356Y8792260D01*
X6653580Y8815019D01*
X6646925Y8837320D01*
X6638493Y8858961D01*
X6628282Y8879840D01*
X6616395Y8899804D01*
X6602882Y8918702D01*
X6587845Y8936431D01*
X6571437Y8952839D01*
X6553708Y8967876D01*
X6534810Y8981389D01*
X6514846Y8993276D01*
X6493967Y9003487D01*
X6472275Y9011920D01*
X6450025Y9018574D01*
X6427266Y9023350D01*
X6404203Y9026194D01*
X6380988Y9027160D01*
X6357772Y9026194D01*
X6334709Y9023350D01*
X6312001Y9018574D01*
X6289700Y9011920D01*
X6268059Y9003487D01*
X6247180Y8993276D01*
X6227216Y8981389D01*
X6208318Y8967876D01*
X6190589Y8952839D01*
X6174130Y8936431D01*
X6159093Y8918702D01*
X6145631Y8899804D01*
X6133744Y8879840D01*
X6123533Y8858961D01*
X6115050Y8837320D01*
X6108446Y8815019D01*
X6103670Y8792260D01*
X6100775Y8769197D01*
X6099810Y8745982D01*
X6100775Y8722766D01*
X6103670Y8699703D01*
X6108446Y8676995D01*
X6115050Y8654694D01*
X6123533Y8633053D01*
X6133744Y8612174D01*
X6145631Y8592210D01*
X6159093Y8573312D01*
X6174130Y8555583D01*
X6190589Y8539124D01*
X6208318Y8524138D01*
X6227216Y8510625D01*
X6247180Y8498738D01*
X6268059Y8488527D01*
X6289700Y8480044D01*
X6312001Y8473440D01*
X6334709Y8468664D01*
X6357772Y8465769D01*
G37*
G36*
X3881018Y8464854D02*
G01*
X3904234Y8465769D01*
X3927297Y8468664D01*
X3950004Y8473440D01*
X3972306Y8480044D01*
X3993946Y8488527D01*
X4014825Y8498738D01*
X4034790Y8510625D01*
X4053687Y8524138D01*
X4071416Y8539124D01*
X4087876Y8555583D01*
X4102862Y8573312D01*
X4116374Y8592210D01*
X4128262Y8612174D01*
X4138472Y8633053D01*
X4146956Y8654694D01*
X4153560Y8676995D01*
X4158335Y8699703D01*
X4161231Y8722766D01*
X4162145Y8745982D01*
X4161231Y8769197D01*
X4158335Y8792260D01*
X4153560Y8815019D01*
X4146956Y8837320D01*
X4138472Y8858961D01*
X4128262Y8879840D01*
X4116374Y8899804D01*
X4102862Y8918702D01*
X4087876Y8936431D01*
X4071416Y8952839D01*
X4053687Y8967876D01*
X4034790Y8981389D01*
X4014825Y8993276D01*
X3993946Y9003487D01*
X3972306Y9011920D01*
X3950004Y9018574D01*
X3927297Y9023350D01*
X3904234Y9026194D01*
X3881018Y9027160D01*
X3857802Y9026194D01*
X3834739Y9023350D01*
X3811981Y9018574D01*
X3789679Y9011920D01*
X3768039Y9003487D01*
X3747160Y8993276D01*
X3727196Y8981389D01*
X3708298Y8967876D01*
X3690569Y8952839D01*
X3674160Y8936431D01*
X3659124Y8918702D01*
X3645611Y8899804D01*
X3633724Y8879840D01*
X3623513Y8858961D01*
X3615080Y8837320D01*
X3608425Y8815019D01*
X3603650Y8792260D01*
X3600805Y8769197D01*
X3599840Y8745982D01*
X3600805Y8722766D01*
X3603650Y8699703D01*
X3608425Y8676995D01*
X3615080Y8654694D01*
X3623513Y8633053D01*
X3633724Y8612174D01*
X3645611Y8592210D01*
X3659124Y8573312D01*
X3674160Y8555583D01*
X3690569Y8539124D01*
X3708298Y8524138D01*
X3727196Y8510625D01*
X3747160Y8498738D01*
X3768039Y8488527D01*
X3789679Y8480044D01*
X3811981Y8473440D01*
X3834739Y8468664D01*
X3857802Y8465769D01*
G37*
G36*
X13065353Y7416088D02*
G01*
X13414248Y7416088D01*
X13420547Y7416800D01*
X13425982Y7418730D01*
X13430910Y7421778D01*
X13434974Y7425893D01*
X13438073Y7430770D01*
X13440003Y7436256D01*
X13440714Y7442555D01*
X13440714Y7611414D01*
X13440003Y7617764D01*
X13438073Y7623200D01*
X13434974Y7628128D01*
X13430910Y7632192D01*
X13425982Y7635290D01*
X13420547Y7637221D01*
X13414248Y7637932D01*
X13065353Y7637932D01*
X13059054Y7637221D01*
X13053618Y7635290D01*
X13048691Y7632192D01*
X13044627Y7628128D01*
X13041528Y7623200D01*
X13039598Y7617764D01*
X13038886Y7611414D01*
X13038886Y7442555D01*
X13039598Y7436256D01*
X13041528Y7430770D01*
X13044627Y7425893D01*
X13048691Y7421778D01*
X13053618Y7418730D01*
X13059054Y7416800D01*
G37*
G36*
X1380998Y8464854D02*
G01*
X1404213Y8465769D01*
X1427276Y8468664D01*
X1450035Y8473440D01*
X1472285Y8480044D01*
X1493926Y8488527D01*
X1514805Y8498738D01*
X1534769Y8510625D01*
X1553718Y8524138D01*
X1571447Y8539124D01*
X1587855Y8555583D01*
X1602892Y8573312D01*
X1616405Y8592210D01*
X1628292Y8612174D01*
X1638503Y8633053D01*
X1646936Y8654694D01*
X1653590Y8676995D01*
X1658315Y8699703D01*
X1661210Y8722766D01*
X1662175Y8745982D01*
X1661210Y8769197D01*
X1658315Y8792260D01*
X1653590Y8815019D01*
X1646936Y8837320D01*
X1638503Y8858961D01*
X1628292Y8879840D01*
X1616405Y8899804D01*
X1602892Y8918702D01*
X1587855Y8936431D01*
X1571447Y8952839D01*
X1553718Y8967876D01*
X1534769Y8981389D01*
X1514805Y8993276D01*
X1493926Y9003487D01*
X1472285Y9011920D01*
X1450035Y9018574D01*
X1427276Y9023350D01*
X1404213Y9026194D01*
X1380998Y9027160D01*
X1357782Y9026194D01*
X1334719Y9023350D01*
X1311960Y9018574D01*
X1289710Y9011920D01*
X1268069Y9003487D01*
X1247190Y8993276D01*
X1227226Y8981389D01*
X1208278Y8967876D01*
X1190548Y8952839D01*
X1174140Y8936431D01*
X1159103Y8918702D01*
X1145590Y8899804D01*
X1133703Y8879840D01*
X1123492Y8858961D01*
X1115060Y8837320D01*
X1108456Y8815019D01*
X1103680Y8792260D01*
X1100785Y8769197D01*
X1099820Y8745982D01*
X1100785Y8722766D01*
X1103680Y8699703D01*
X1108456Y8676995D01*
X1115060Y8654694D01*
X1123492Y8633053D01*
X1133703Y8612174D01*
X1145590Y8592210D01*
X1159103Y8573312D01*
X1174140Y8555583D01*
X1190548Y8539124D01*
X1208278Y8524138D01*
X1227226Y8510625D01*
X1247190Y8498738D01*
X1268069Y8488527D01*
X1289710Y8480044D01*
X1311960Y8473440D01*
X1334719Y8468664D01*
X1357782Y8465769D01*
G37*
G36*
X13065353Y8432088D02*
G01*
X13414248Y8432088D01*
X13420547Y8432800D01*
X13425982Y8434730D01*
X13430910Y8437778D01*
X13434974Y8441893D01*
X13438073Y8446770D01*
X13440003Y8452256D01*
X13440714Y8458555D01*
X13440714Y8627414D01*
X13440003Y8633764D01*
X13438073Y8639200D01*
X13434974Y8644128D01*
X13430910Y8648192D01*
X13425982Y8651290D01*
X13420547Y8653221D01*
X13414248Y8653932D01*
X13065353Y8653932D01*
X13059054Y8653221D01*
X13053618Y8651290D01*
X13048691Y8648192D01*
X13044627Y8644128D01*
X13041528Y8639200D01*
X13039598Y8633764D01*
X13038886Y8627414D01*
X13038886Y8458555D01*
X13039598Y8452256D01*
X13041528Y8446770D01*
X13044627Y8441893D01*
X13048691Y8437778D01*
X13053618Y8434730D01*
X13059054Y8432800D01*
G37*
G36*
X13065353Y7670088D02*
G01*
X13414248Y7670088D01*
X13420547Y7670800D01*
X13425982Y7672730D01*
X13430910Y7675778D01*
X13434974Y7679893D01*
X13438073Y7684770D01*
X13440003Y7690256D01*
X13440714Y7696555D01*
X13440714Y7865414D01*
X13440003Y7871764D01*
X13438073Y7877200D01*
X13434974Y7882128D01*
X13430910Y7886192D01*
X13425982Y7889290D01*
X13420547Y7891221D01*
X13414248Y7891932D01*
X13065353Y7891932D01*
X13059054Y7891221D01*
X13053618Y7889290D01*
X13048691Y7886192D01*
X13044627Y7882128D01*
X13041528Y7877200D01*
X13039598Y7871764D01*
X13038886Y7865414D01*
X13038886Y7696555D01*
X13039598Y7690256D01*
X13041528Y7684770D01*
X13044627Y7679893D01*
X13048691Y7675778D01*
X13053618Y7672730D01*
X13059054Y7670800D01*
G37*
G36*
X13065353Y8178088D02*
G01*
X13414248Y8178088D01*
X13420547Y8178800D01*
X13425982Y8180730D01*
X13430910Y8183778D01*
X13434974Y8187893D01*
X13438073Y8192770D01*
X13440003Y8198256D01*
X13440714Y8204555D01*
X13440714Y8373414D01*
X13440003Y8379764D01*
X13438073Y8385200D01*
X13434974Y8390128D01*
X13430910Y8394192D01*
X13425982Y8397290D01*
X13420547Y8399221D01*
X13414248Y8399932D01*
X13065353Y8399932D01*
X13059054Y8399221D01*
X13053618Y8397290D01*
X13048691Y8394192D01*
X13044627Y8390128D01*
X13041528Y8385200D01*
X13039598Y8379764D01*
X13038886Y8373414D01*
X13038886Y8204555D01*
X13039598Y8198256D01*
X13041528Y8192770D01*
X13044627Y8187893D01*
X13048691Y8183778D01*
X13053618Y8180730D01*
X13059054Y8178800D01*
G37*
G36*
X11159286Y8083854D02*
G01*
X11266373Y8083854D01*
X11266373Y8145932D01*
X11185753Y8145932D01*
X11179454Y8145221D01*
X11174018Y8143290D01*
X11169091Y8140192D01*
X11165027Y8136128D01*
X11161928Y8131200D01*
X11159998Y8125764D01*
X11159286Y8119414D01*
G37*
G36*
X11459870Y7924088D02*
G01*
X11534648Y7924088D01*
X11540947Y7924800D01*
X11546382Y7926730D01*
X11551310Y7929778D01*
X11555374Y7933893D01*
X11558473Y7938770D01*
X11560403Y7944256D01*
X11561114Y7950555D01*
X11561114Y7986166D01*
X11459870Y7986166D01*
G37*
G36*
X11185753Y7924088D02*
G01*
X11266373Y7924088D01*
X11266373Y7986166D01*
X11159286Y7986166D01*
X11159286Y7950555D01*
X11159998Y7944256D01*
X11161928Y7938770D01*
X11165027Y7933893D01*
X11169091Y7929778D01*
X11174018Y7926730D01*
X11179454Y7924800D01*
G37*
G36*
X13065353Y7924088D02*
G01*
X13414248Y7924088D01*
X13420547Y7924800D01*
X13425982Y7926730D01*
X13430910Y7929778D01*
X13434974Y7933893D01*
X13438073Y7938770D01*
X13440003Y7944256D01*
X13440714Y7950555D01*
X13440714Y8119414D01*
X13440003Y8125764D01*
X13438073Y8131200D01*
X13434974Y8136128D01*
X13430910Y8140192D01*
X13425982Y8143290D01*
X13420547Y8145221D01*
X13414248Y8145932D01*
X13065353Y8145932D01*
X13059054Y8145221D01*
X13053618Y8143290D01*
X13048691Y8140192D01*
X13044627Y8136128D01*
X13041528Y8131200D01*
X13039598Y8125764D01*
X13038886Y8119414D01*
X13038886Y7950555D01*
X13039598Y7944256D01*
X13041528Y7938770D01*
X13044627Y7933893D01*
X13048691Y7929778D01*
X13053618Y7926730D01*
X13059054Y7924800D01*
G37*
G36*
X11459870Y8083854D02*
G01*
X11561114Y8083854D01*
X11561114Y8119414D01*
X11560403Y8125764D01*
X11558473Y8131200D01*
X11555374Y8136128D01*
X11551310Y8140192D01*
X11546382Y8143290D01*
X11540947Y8145221D01*
X11534648Y8145932D01*
X11459870Y8145932D01*
G37*

%LPD*%
D10*
X11360150Y9813036D02*
G01*
X1312926Y9813036D01*
X999997Y9500108D01*
X999997Y8999981D01*
X11360150Y9559036D02*
G01*
X11360150Y9700005D01*
X4199890Y9700005D01*
X3500120Y8999981D01*
X11360200Y9051000D02*
G01*
X9744963Y9051036D01*
X9295891Y9500108D01*
X6500113Y9500108D01*
X5999988Y8999981D01*
X11360200Y8797000D02*
G01*
X9703000Y8797000D01*
X9500001Y8999999D01*
X9099999Y8999999D01*
X8999999Y9099999D01*
X8600000Y9099999D01*
X8500000Y8999999D01*
X11360200Y8543000D02*
G01*
X9559036Y8543036D01*
X8816086Y7800086D01*
X2299970Y7800086D01*
X999997Y6500113D01*
X11360200Y8289000D02*
G01*
X9488931Y8289036D01*
X8899906Y7700010D01*
X4700015Y7700010D01*
X3500120Y6500113D01*
X11360200Y7781000D02*
G01*
X9081008Y7781036D01*
X8899906Y7599934D01*
X7100061Y7599934D01*
X5999988Y6500113D01*
X11360200Y7527000D02*
G01*
X9227058Y7527036D01*
X8700008Y6999986D01*
X8700000Y6599999D01*
X8599931Y6500113D01*
X8500109Y6500113D01*
X11360200Y7273000D02*
G01*
X10067036Y7273036D01*
X9599929Y6805929D01*
X9599929Y5999987D01*
X9400031Y5800089D01*
X2800095Y5800089D01*
X999997Y3999992D01*
X11360200Y7019000D02*
G01*
X10218927Y7019036D01*
X9700006Y6500113D01*
X9700006Y5999987D01*
X9400031Y5700013D01*
X5199888Y5700013D01*
X3500120Y3999992D01*
X11360200Y6511000D02*
G01*
X9911079Y6511036D01*
X9800081Y6400037D01*
X9800081Y5999987D01*
X9400031Y5599937D01*
X7599934Y5599937D01*
X5999988Y3999992D01*
X11360200Y6257000D02*
G01*
X10007091Y6257036D01*
X9899904Y6150102D01*
X9899904Y5999987D01*
X8700008Y4800092D01*
X8700008Y4199889D01*
X8500109Y3999992D01*
X11360200Y6003000D02*
G01*
X10103104Y6003036D01*
X9750043Y5649976D01*
X9750043Y3350005D01*
X9299956Y2899918D01*
X2400045Y2899918D01*
X999997Y1500123D01*
X11360200Y5749000D02*
G01*
X10248900Y5749036D01*
X9850120Y5350002D01*
X9850120Y3350005D01*
X9299956Y2800095D01*
X4800091Y2800095D01*
X3500120Y1500123D01*
X11360200Y5241000D02*
G01*
X10140950Y5241036D01*
X9899904Y4999989D01*
X9899904Y3299968D01*
X9299956Y2700020D01*
X7199884Y2700020D01*
X5999988Y1500123D01*
X11360200Y4987000D02*
G01*
X10186924Y4987036D01*
X9999979Y4800092D01*
X9999979Y3299968D01*
X9299956Y2599944D01*
X9023604Y2599944D01*
X8899906Y2500121D01*
X8899906Y1899920D01*
X8500109Y1500123D01*
G36*
X11185207Y9898001D02*
G01*
X11535194Y9898001D01*
X11535194Y9727999D01*
X11185207Y9727999D01*
G37*
G36*
X11185207Y9644001D02*
G01*
X11535194Y9644001D01*
X11535194Y9473999D01*
X11185207Y9473999D01*
G37*
G36*
X11185207Y9390001D02*
G01*
X11535194Y9390001D01*
X11535194Y9219999D01*
X11185207Y9219999D01*
G37*
G36*
X11185207Y9136001D02*
G01*
X11535194Y9136001D01*
X11535194Y8965999D01*
X11185207Y8965999D01*
G37*
G36*
X11185207Y8882001D02*
G01*
X11535194Y8882001D01*
X11535194Y8711999D01*
X11185207Y8711999D01*
G37*
G36*
X11185207Y8628001D02*
G01*
X11535194Y8628001D01*
X11535194Y8457999D01*
X11185207Y8457999D01*
G37*
G36*
X11185207Y8374001D02*
G01*
X11535194Y8374001D01*
X11535194Y8203999D01*
X11185207Y8203999D01*
G37*
G36*
X11185207Y8120001D02*
G01*
X11535194Y8120001D01*
X11535194Y7949999D01*
X11185207Y7949999D01*
G37*
G36*
X11185207Y7866001D02*
G01*
X11535194Y7866001D01*
X11535194Y7695999D01*
X11185207Y7695999D01*
G37*
G36*
X11185207Y7612001D02*
G01*
X11535194Y7612001D01*
X11535194Y7441999D01*
X11185207Y7441999D01*
G37*
G36*
X11185207Y7358001D02*
G01*
X11535194Y7358001D01*
X11535194Y7187999D01*
X11185207Y7187999D01*
G37*
G36*
X11185207Y7104001D02*
G01*
X11535194Y7104001D01*
X11535194Y6933999D01*
X11185207Y6933999D01*
G37*
G36*
X11185207Y6850001D02*
G01*
X11535194Y6850001D01*
X11535194Y6679999D01*
X11185207Y6679999D01*
G37*
G36*
X11185207Y6596001D02*
G01*
X11535194Y6596001D01*
X11535194Y6425999D01*
X11185207Y6425999D01*
G37*
G36*
X11185207Y6342001D02*
G01*
X11535194Y6342001D01*
X11535194Y6171999D01*
X11185207Y6171999D01*
G37*
G36*
X11185207Y6088001D02*
G01*
X11535194Y6088001D01*
X11535194Y5917999D01*
X11185207Y5917999D01*
G37*
G36*
X11185207Y5834001D02*
G01*
X11535194Y5834001D01*
X11535194Y5663999D01*
X11185207Y5663999D01*
G37*
G36*
X11185207Y5580001D02*
G01*
X11535194Y5580001D01*
X11535194Y5409999D01*
X11185207Y5409999D01*
G37*
G36*
X11185207Y5326001D02*
G01*
X11535194Y5326001D01*
X11535194Y5155999D01*
X11185207Y5155999D01*
G37*
G36*
X11185207Y5072001D02*
G01*
X11535194Y5072001D01*
X11535194Y4901999D01*
X11185207Y4901999D01*
G37*
G36*
X13064807Y9898001D02*
G01*
X13414794Y9898001D01*
X13414794Y9727999D01*
X13064807Y9727999D01*
G37*
G36*
X13064807Y9644001D02*
G01*
X13414794Y9644001D01*
X13414794Y9473999D01*
X13064807Y9473999D01*
G37*
G36*
X13064807Y9390001D02*
G01*
X13414794Y9390001D01*
X13414794Y9219999D01*
X13064807Y9219999D01*
G37*
G36*
X13064807Y9136001D02*
G01*
X13414794Y9136001D01*
X13414794Y8965999D01*
X13064807Y8965999D01*
G37*
G36*
X13064807Y8882001D02*
G01*
X13414794Y8882001D01*
X13414794Y8711999D01*
X13064807Y8711999D01*
G37*
G36*
X13064807Y8628001D02*
G01*
X13414794Y8628001D01*
X13414794Y8457999D01*
X13064807Y8457999D01*
G37*
G36*
X13064807Y8374001D02*
G01*
X13414794Y8374001D01*
X13414794Y8203999D01*
X13064807Y8203999D01*
G37*
G36*
X13064807Y8120001D02*
G01*
X13414794Y8120001D01*
X13414794Y7949999D01*
X13064807Y7949999D01*
G37*
G36*
X13064807Y7866001D02*
G01*
X13414794Y7866001D01*
X13414794Y7695999D01*
X13064807Y7695999D01*
G37*
G36*
X13064807Y7612001D02*
G01*
X13414794Y7612001D01*
X13414794Y7441999D01*
X13064807Y7441999D01*
G37*
G36*
X13064807Y7358001D02*
G01*
X13414794Y7358001D01*
X13414794Y7187999D01*
X13064807Y7187999D01*
G37*
G36*
X13064807Y7104001D02*
G01*
X13414794Y7104001D01*
X13414794Y6933999D01*
X13064807Y6933999D01*
G37*
G36*
X13064807Y6850001D02*
G01*
X13414794Y6850001D01*
X13414794Y6679999D01*
X13064807Y6679999D01*
G37*
G36*
X13064807Y6596001D02*
G01*
X13414794Y6596001D01*
X13414794Y6425999D01*
X13064807Y6425999D01*
G37*
G36*
X13064807Y6342001D02*
G01*
X13414794Y6342001D01*
X13414794Y6171999D01*
X13064807Y6171999D01*
G37*
G36*
X13064807Y6088001D02*
G01*
X13414794Y6088001D01*
X13414794Y5917999D01*
X13064807Y5917999D01*
G37*
G36*
X13064807Y5834001D02*
G01*
X13414794Y5834001D01*
X13414794Y5663999D01*
X13064807Y5663999D01*
G37*
G36*
X13064807Y5580001D02*
G01*
X13414794Y5580001D01*
X13414794Y5409999D01*
X13064807Y5409999D01*
G37*
G36*
X13064807Y5326001D02*
G01*
X13414794Y5326001D01*
X13414794Y5155999D01*
X13064807Y5155999D01*
G37*
G36*
X13064807Y5072001D02*
G01*
X13414794Y5072001D01*
X13414794Y4901999D01*
X13064807Y4901999D01*
G37*
D13*
G01*
X12046000Y4959212D03*
G01*
X12300000Y4959212D03*
G01*
X12554000Y4959212D03*
D14*
G01*
X11411000Y9813000D03*
G01*
X11411000Y9559000D03*
G36*
X11325999Y9390001D02*
G01*
X11496001Y9390001D01*
X11496001Y9219999D01*
X11325999Y9219999D01*
G37*
G01*
X11411000Y9051000D03*
G01*
X11411000Y8797000D03*
G01*
X11411000Y8543000D03*
G01*
X11411000Y8289000D03*
G36*
X11325999Y8120001D02*
G01*
X11496001Y8120001D01*
X11496001Y7949999D01*
X11325999Y7949999D01*
G37*
G01*
X11411000Y7781000D03*
G01*
X11411000Y7527000D03*
G01*
X11411000Y7273000D03*
G01*
X11411000Y7019000D03*
G36*
X11325999Y6850001D02*
G01*
X11496001Y6850001D01*
X11496001Y6679999D01*
X11325999Y6679999D01*
G37*
G01*
X11411000Y6511000D03*
G01*
X11411000Y6257000D03*
G01*
X11411000Y6003000D03*
G01*
X11411000Y5749000D03*
G36*
X11325999Y5580001D02*
G01*
X11496001Y5580001D01*
X11496001Y5409999D01*
X11325999Y5409999D01*
G37*
G01*
X11411000Y5241000D03*
G01*
X11411000Y4987000D03*
G01*
X13189000Y4987000D03*
G01*
X13189000Y5241000D03*
G36*
X13103999Y5580001D02*
G01*
X13274001Y5580001D01*
X13274001Y5409999D01*
X13103999Y5409999D01*
G37*
G01*
X13189000Y5749000D03*
G01*
X13189000Y6003000D03*
G01*
X13189000Y6257000D03*
G01*
X13189000Y6511000D03*
G36*
X13103999Y6850001D02*
G01*
X13274001Y6850001D01*
X13274001Y6679999D01*
X13103999Y6679999D01*
G37*
G01*
X13189000Y7019000D03*
G01*
X13189000Y7273000D03*
G01*
X13189000Y7527000D03*
G01*
X13189000Y7781000D03*
G36*
X13103999Y8120001D02*
G01*
X13274001Y8120001D01*
X13274001Y7949999D01*
X13103999Y7949999D01*
G37*
G01*
X13189000Y8289000D03*
G01*
X13189000Y8543000D03*
G01*
X13189000Y8797000D03*
G01*
X13189000Y9051000D03*
G36*
X13103999Y9390001D02*
G01*
X13274001Y9390001D01*
X13274001Y9219999D01*
X13103999Y9219999D01*
G37*
G01*
X13189000Y9559000D03*
G01*
X13189000Y9813000D03*
G01*
X12046000Y5010012D03*
G36*
X12214999Y5095013D02*
G01*
X12385001Y5095013D01*
X12385001Y4925011D01*
X12214999Y4925011D01*
G37*
G01*
X12554000Y5010012D03*
D16*
G01*
X1000000Y8999999D03*
G01*
X1635000Y9253999D03*
D17*
G01*
X1381000Y8745999D03*
D18*
G01*
X873000Y8745999D03*
G01*
X1889000Y8745999D03*
D16*
G01*
X3500000Y8999999D03*
G01*
X4135000Y9253999D03*
D17*
G01*
X3881000Y8745999D03*
D18*
G01*
X3373000Y8745999D03*
G01*
X4389000Y8745999D03*
D16*
G01*
X6000000Y8999999D03*
G01*
X6635000Y9253999D03*
D17*
G01*
X6381000Y8745999D03*
D18*
G01*
X5873000Y8745999D03*
G01*
X6889000Y8745999D03*
D16*
G01*
X8500000Y8999999D03*
G01*
X9135000Y9253999D03*
D17*
G01*
X8881000Y8745999D03*
D18*
G01*
X8373000Y8745999D03*
G01*
X9389000Y8745999D03*
D16*
G01*
X1000000Y6499999D03*
G01*
X1635000Y6753999D03*
D17*
G01*
X1381000Y6245999D03*
D18*
G01*
X873000Y6245999D03*
G01*
X1889000Y6245999D03*
D16*
G01*
X3500000Y6499999D03*
G01*
X4135000Y6753999D03*
D17*
G01*
X3881000Y6245999D03*
D18*
G01*
X3373000Y6245999D03*
G01*
X4389000Y6245999D03*
D16*
G01*
X6000000Y6499999D03*
G01*
X6635000Y6753999D03*
D17*
G01*
X6381000Y6245999D03*
D18*
G01*
X5873000Y6245999D03*
G01*
X6889000Y6245999D03*
D16*
G01*
X8500000Y6499999D03*
G01*
X9135000Y6753999D03*
D17*
G01*
X8881000Y6245999D03*
D18*
G01*
X8373000Y6245999D03*
G01*
X9389000Y6245999D03*
D16*
G01*
X1000000Y3999999D03*
G01*
X1635000Y4253999D03*
D17*
G01*
X1381000Y3745999D03*
D18*
G01*
X873000Y3745999D03*
G01*
X1889000Y3745999D03*
D16*
G01*
X3500000Y3999999D03*
G01*
X4135000Y4253999D03*
D17*
G01*
X3881000Y3745999D03*
D18*
G01*
X3373000Y3745999D03*
G01*
X4389000Y3745999D03*
D16*
G01*
X6000000Y3999999D03*
G01*
X6635000Y4253999D03*
D17*
G01*
X6381000Y3745999D03*
D18*
G01*
X5873000Y3745999D03*
G01*
X6889000Y3745999D03*
D16*
G01*
X8500000Y3999999D03*
G01*
X9135000Y4253999D03*
D17*
G01*
X8881000Y3745999D03*
D18*
G01*
X8373000Y3745999D03*
G01*
X9389000Y3745999D03*
D16*
G01*
X1000000Y1499999D03*
G01*
X1635000Y1753999D03*
D17*
G01*
X1381000Y1245999D03*
D18*
G01*
X873000Y1245999D03*
G01*
X1889000Y1245999D03*
D16*
G01*
X3500000Y1499999D03*
G01*
X4135000Y1753999D03*
D17*
G01*
X3881000Y1245999D03*
D18*
G01*
X3373000Y1245999D03*
G01*
X4389000Y1245999D03*
D16*
G01*
X6000000Y1499999D03*
G01*
X6635000Y1753999D03*
D17*
G01*
X6381000Y1245999D03*
D18*
G01*
X5873000Y1245999D03*
G01*
X6889000Y1245999D03*
D16*
G01*
X8500000Y1499999D03*
G01*
X9135000Y1753999D03*
D17*
G01*
X8881000Y1245999D03*
D18*
G01*
X8373000Y1245999D03*
G01*
X9389000Y1245999D03*
D11*
G01*
X12500000Y499998D03*
G01*
X11499999Y499998D03*
G01*
X10499999Y499998D03*
G01*
X9499998Y499998D03*
G01*
X8500000Y499998D03*
G01*
X7500000Y499998D03*
G01*
X6499999Y499998D03*
G01*
X5499999Y499998D03*
G01*
X4500001Y499998D03*
G01*
X3500000Y499998D03*
G01*
X2500000Y499998D03*
G01*
X1499999Y499998D03*
G01*
X499998Y499998D03*
G01*
X13500000Y1499999D03*
G01*
X13500000Y2500000D03*
G01*
X13500000Y3500000D03*
G01*
X13500000Y4500001D03*
G01*
X13499998Y5499999D03*
G01*
X13499998Y6499999D03*
G01*
X13499998Y7500000D03*
G01*
X13499998Y8500000D03*
G01*
X499998Y9499998D03*
G01*
X1499999Y9499998D03*
G01*
X2500000Y9499998D03*
G01*
X3500000Y9499998D03*
G01*
X4500001Y9499998D03*
G01*
X5499999Y9499998D03*
G01*
X499998Y8500000D03*
G01*
X499998Y7500000D03*
G01*
X499998Y6499999D03*
G01*
X499998Y5499999D03*
G01*
X499998Y4500001D03*
G01*
X499998Y3500000D03*
G01*
X499998Y2500000D03*
G01*
X499998Y1499999D03*
G01*
X13500000Y499998D03*
G01*
X13500000Y9499998D03*
M02*
