G04 Layer: TopSilkscreenLayer*
G04 EasyEDA v6.5.1, 2022-06-14 18:14:27*
G04 a67cddfb3fce44daa9051d46cbbcc19f,10*
G04 Gerber Generator version 0.2*
G04 Scale: 100 percent, Rotated: No, Reflected: No *
G04 Dimensions in millimeters *
G04 leading zeros omitted , absolute positions ,4 integer and 5 decimal *
%FSLAX45Y45*%
%MOMM*%

%ADD19C,0.1199*%
%ADD20C,0.1524*%
%ADD21C,0.5080*%
%ADD22C,0.2032*%
%ADD23C,0.1501*%

%LPD*%
D22*
X10500106Y2852343D02*
G01*
X10500106Y2613583D01*
X10500106Y2852343D02*
G01*
X10602213Y2852343D01*
X10636250Y2840913D01*
X10647679Y2829483D01*
X10659109Y2806877D01*
X10659109Y2772841D01*
X10647679Y2749981D01*
X10636250Y2738551D01*
X10602213Y2727375D01*
X10500106Y2727375D01*
X10734040Y2852343D02*
G01*
X10745470Y2840913D01*
X10756900Y2852343D01*
X10745470Y2863519D01*
X10734040Y2852343D01*
X10745470Y2772841D02*
G01*
X10745470Y2613583D01*
X10968227Y2738551D02*
G01*
X10945368Y2761411D01*
X10922761Y2772841D01*
X10888725Y2772841D01*
X10865865Y2761411D01*
X10843259Y2738551D01*
X10831829Y2704515D01*
X10831829Y2681909D01*
X10843259Y2647619D01*
X10865865Y2625013D01*
X10888725Y2613583D01*
X10922761Y2613583D01*
X10945368Y2625013D01*
X10968227Y2647619D01*
X11100054Y2772841D02*
G01*
X11077193Y2761411D01*
X11054588Y2738551D01*
X11043158Y2704515D01*
X11043158Y2681909D01*
X11054588Y2647619D01*
X11077193Y2625013D01*
X11100054Y2613583D01*
X11134090Y2613583D01*
X11156695Y2625013D01*
X11179556Y2647619D01*
X11190986Y2681909D01*
X11190986Y2704515D01*
X11179556Y2738551D01*
X11156695Y2761411D01*
X11134090Y2772841D01*
X11100054Y2772841D01*
X11265915Y2852343D02*
G01*
X11265915Y2613583D01*
X11424920Y2852343D02*
G01*
X11265915Y2693085D01*
X11322811Y2749981D02*
G01*
X11424920Y2613583D01*
X11500104Y2704515D02*
G01*
X11636247Y2704515D01*
X11636247Y2727375D01*
X11625072Y2749981D01*
X11613641Y2761411D01*
X11590781Y2772841D01*
X11556745Y2772841D01*
X11534140Y2761411D01*
X11511279Y2738551D01*
X11500104Y2704515D01*
X11500104Y2681909D01*
X11511279Y2647619D01*
X11534140Y2625013D01*
X11556745Y2613583D01*
X11590781Y2613583D01*
X11613641Y2625013D01*
X11636247Y2647619D01*
X11722608Y2772841D02*
G01*
X11790934Y2613583D01*
X11859006Y2772841D02*
G01*
X11790934Y2613583D01*
X11768074Y2568117D01*
X11745468Y2545511D01*
X11722608Y2534081D01*
X11711431Y2534081D01*
X12059158Y2738551D02*
G01*
X12047727Y2761411D01*
X12013691Y2772841D01*
X11979656Y2772841D01*
X11945365Y2761411D01*
X11934190Y2738551D01*
X11945365Y2715945D01*
X11968225Y2704515D01*
X12025122Y2693085D01*
X12047727Y2681909D01*
X12059158Y2659049D01*
X12059158Y2647619D01*
X12047727Y2625013D01*
X12013691Y2613583D01*
X11979656Y2613583D01*
X11945365Y2625013D01*
X11934190Y2647619D01*
X10500106Y2352217D02*
G01*
X10590784Y2113711D01*
X10681715Y2352217D02*
G01*
X10590784Y2113711D01*
X10756900Y2204643D02*
G01*
X10893297Y2204643D01*
X10893297Y2227249D01*
X10881868Y2250109D01*
X10870438Y2261285D01*
X10847831Y2272715D01*
X10813541Y2272715D01*
X10790936Y2261285D01*
X10768075Y2238679D01*
X10756900Y2204643D01*
X10756900Y2181783D01*
X10768075Y2147747D01*
X10790936Y2124887D01*
X10813541Y2113711D01*
X10847831Y2113711D01*
X10870438Y2124887D01*
X10893297Y2147747D01*
X10968227Y2272715D02*
G01*
X10968227Y2113711D01*
X10968227Y2204643D02*
G01*
X10979658Y2238679D01*
X11002263Y2261285D01*
X11025124Y2272715D01*
X11059159Y2272715D01*
X11259058Y2238679D02*
G01*
X11247627Y2261285D01*
X11213591Y2272715D01*
X11179556Y2272715D01*
X11145520Y2261285D01*
X11134090Y2238679D01*
X11145520Y2215819D01*
X11168125Y2204643D01*
X11225022Y2193213D01*
X11247627Y2181783D01*
X11259058Y2159177D01*
X11259058Y2147747D01*
X11247627Y2124887D01*
X11213591Y2113711D01*
X11179556Y2113711D01*
X11145520Y2124887D01*
X11134090Y2147747D01*
X11333988Y2352217D02*
G01*
X11345418Y2340787D01*
X11356847Y2352217D01*
X11345418Y2363647D01*
X11333988Y2352217D01*
X11345418Y2272715D02*
G01*
X11345418Y2113711D01*
X11488674Y2272715D02*
G01*
X11465813Y2261285D01*
X11443208Y2238679D01*
X11431777Y2204643D01*
X11431777Y2181783D01*
X11443208Y2147747D01*
X11465813Y2124887D01*
X11488674Y2113711D01*
X11522709Y2113711D01*
X11545570Y2124887D01*
X11568175Y2147747D01*
X11579606Y2181783D01*
X11579606Y2204643D01*
X11568175Y2238679D01*
X11545570Y2261285D01*
X11522709Y2272715D01*
X11488674Y2272715D01*
X11654536Y2272715D02*
G01*
X11654536Y2113711D01*
X11654536Y2227249D02*
G01*
X11688572Y2261285D01*
X11711431Y2272715D01*
X11745468Y2272715D01*
X11768074Y2261285D01*
X11779504Y2227249D01*
X11779504Y2113711D01*
X12029440Y2306751D02*
G01*
X12052300Y2318181D01*
X12086336Y2352217D01*
X12086336Y2113711D01*
X12172695Y2170353D02*
G01*
X12161265Y2159177D01*
X12172695Y2147747D01*
X12184125Y2159177D01*
X12172695Y2170353D01*
X12327381Y2352217D02*
G01*
X12293091Y2340787D01*
X12270486Y2306751D01*
X12259056Y2250109D01*
X12259056Y2215819D01*
X12270486Y2159177D01*
X12293091Y2124887D01*
X12327381Y2113711D01*
X12349988Y2113711D01*
X12384024Y2124887D01*
X12406884Y2159177D01*
X12418059Y2215819D01*
X12418059Y2250109D01*
X12406884Y2306751D01*
X12384024Y2340787D01*
X12349988Y2352217D01*
X12327381Y2352217D01*
X10500106Y1651254D02*
G01*
X10500106Y1508252D01*
X10500106Y1651254D02*
G01*
X10561320Y1651254D01*
X10581893Y1644650D01*
X10588752Y1637792D01*
X10595356Y1624076D01*
X10595356Y1610360D01*
X10588752Y1596897D01*
X10581893Y1590039D01*
X10561320Y1583181D01*
X10500106Y1583181D02*
G01*
X10561320Y1583181D01*
X10581893Y1576323D01*
X10588752Y1569465D01*
X10595356Y1556004D01*
X10595356Y1535429D01*
X10588752Y1521713D01*
X10581893Y1515110D01*
X10561320Y1508252D01*
X10500106Y1508252D01*
X10640568Y1603755D02*
G01*
X10640568Y1535429D01*
X10647172Y1515110D01*
X10660888Y1508252D01*
X10681461Y1508252D01*
X10694924Y1515110D01*
X10715497Y1535429D01*
X10715497Y1603755D02*
G01*
X10715497Y1508252D01*
X10760456Y1651254D02*
G01*
X10767313Y1644650D01*
X10774172Y1651254D01*
X10767313Y1658112D01*
X10760456Y1651254D01*
X10767313Y1603755D02*
G01*
X10767313Y1508252D01*
X10819129Y1651254D02*
G01*
X10819129Y1508252D01*
X10945875Y1651254D02*
G01*
X10945875Y1508252D01*
X10945875Y1583181D02*
G01*
X10932159Y1596897D01*
X10918697Y1603755D01*
X10898124Y1603755D01*
X10884661Y1596897D01*
X10870945Y1583181D01*
X10864088Y1562607D01*
X10864088Y1549145D01*
X10870945Y1528571D01*
X10884661Y1515110D01*
X10898124Y1508252D01*
X10918697Y1508252D01*
X10932159Y1515110D01*
X10945875Y1528571D01*
X11177777Y1651254D02*
G01*
X11177777Y1508252D01*
X11177777Y1583181D02*
G01*
X11164061Y1596897D01*
X11150345Y1603755D01*
X11130025Y1603755D01*
X11116309Y1596897D01*
X11102847Y1583181D01*
X11095990Y1562607D01*
X11095990Y1549145D01*
X11102847Y1528571D01*
X11116309Y1515110D01*
X11130025Y1508252D01*
X11150345Y1508252D01*
X11164061Y1515110D01*
X11177777Y1528571D01*
X11304524Y1603755D02*
G01*
X11304524Y1508252D01*
X11304524Y1583181D02*
G01*
X11290808Y1596897D01*
X11277345Y1603755D01*
X11256772Y1603755D01*
X11243056Y1596897D01*
X11229593Y1583181D01*
X11222736Y1562607D01*
X11222736Y1549145D01*
X11229593Y1528571D01*
X11243056Y1515110D01*
X11256772Y1508252D01*
X11277345Y1508252D01*
X11290808Y1515110D01*
X11304524Y1528571D01*
X11370056Y1651254D02*
G01*
X11370056Y1535429D01*
X11376913Y1515110D01*
X11390375Y1508252D01*
X11404091Y1508252D01*
X11349481Y1603755D02*
G01*
X11397234Y1603755D01*
X11449050Y1562607D02*
G01*
X11530838Y1562607D01*
X11530838Y1576323D01*
X11523979Y1590039D01*
X11517375Y1596897D01*
X11503659Y1603755D01*
X11483086Y1603755D01*
X11469624Y1596897D01*
X11455908Y1583181D01*
X11449050Y1562607D01*
X11449050Y1549145D01*
X11455908Y1528571D01*
X11469624Y1515110D01*
X11483086Y1508252D01*
X11503659Y1508252D01*
X11517375Y1515110D01*
X11530838Y1528571D01*
X11582654Y1590039D02*
G01*
X11575795Y1583181D01*
X11582654Y1576323D01*
X11589511Y1583181D01*
X11582654Y1590039D01*
X11582654Y1542287D02*
G01*
X11575795Y1535429D01*
X11582654Y1528571D01*
X11589511Y1535429D01*
X11582654Y1542287D01*
X10595356Y1130807D02*
G01*
X10581893Y1144523D01*
X10561320Y1151381D01*
X10534141Y1151381D01*
X10513568Y1144523D01*
X10500106Y1130807D01*
X10500106Y1117345D01*
X10506709Y1103629D01*
X10513568Y1096771D01*
X10527284Y1089913D01*
X10568177Y1076452D01*
X10581893Y1069594D01*
X10588752Y1062736D01*
X10595356Y1049020D01*
X10595356Y1028700D01*
X10581893Y1014984D01*
X10561320Y1008126D01*
X10534141Y1008126D01*
X10513568Y1014984D01*
X10500106Y1028700D01*
X10640568Y1062736D02*
G01*
X10722356Y1062736D01*
X10722356Y1076452D01*
X10715497Y1089913D01*
X10708640Y1096771D01*
X10694924Y1103629D01*
X10674604Y1103629D01*
X10660888Y1096771D01*
X10647172Y1083055D01*
X10640568Y1062736D01*
X10640568Y1049020D01*
X10647172Y1028700D01*
X10660888Y1014984D01*
X10674604Y1008126D01*
X10694924Y1008126D01*
X10708640Y1014984D01*
X10722356Y1028700D01*
X10767313Y1103629D02*
G01*
X10767313Y1008126D01*
X10767313Y1062736D02*
G01*
X10774172Y1083055D01*
X10787634Y1096771D01*
X10801350Y1103629D01*
X10821924Y1103629D01*
X10866881Y1103629D02*
G01*
X10866881Y1035557D01*
X10873740Y1014984D01*
X10887202Y1008126D01*
X10907775Y1008126D01*
X10921238Y1014984D01*
X10941811Y1035557D01*
X10941811Y1103629D02*
G01*
X10941811Y1008126D01*
X11068558Y1103629D02*
G01*
X11068558Y1008126D01*
X11068558Y1083055D02*
G01*
X11055095Y1096771D01*
X11041379Y1103629D01*
X11020806Y1103629D01*
X11007343Y1096771D01*
X10993627Y1083055D01*
X10986770Y1062736D01*
X10986770Y1049020D01*
X10993627Y1028700D01*
X11007343Y1014984D01*
X11020806Y1008126D01*
X11041379Y1008126D01*
X11055095Y1014984D01*
X11068558Y1028700D01*
X11113515Y1151381D02*
G01*
X11113515Y1008126D01*
X11263629Y1103629D02*
G01*
X11263629Y1008126D01*
X11263629Y1076452D02*
G01*
X11284204Y1096771D01*
X11297665Y1103629D01*
X11318240Y1103629D01*
X11331702Y1096771D01*
X11338559Y1076452D01*
X11338559Y1008126D01*
X11383518Y1103629D02*
G01*
X11383518Y1035557D01*
X11390375Y1014984D01*
X11404091Y1008126D01*
X11424665Y1008126D01*
X11438127Y1014984D01*
X11458702Y1035557D01*
X11458702Y1103629D02*
G01*
X11458702Y1008126D01*
X11503659Y1103629D02*
G01*
X11503659Y1008126D01*
X11503659Y1076452D02*
G01*
X11523979Y1096771D01*
X11537695Y1103629D01*
X11558270Y1103629D01*
X11571731Y1096771D01*
X11578590Y1076452D01*
X11578590Y1008126D01*
X11578590Y1076452D02*
G01*
X11599163Y1096771D01*
X11612625Y1103629D01*
X11633200Y1103629D01*
X11646915Y1096771D01*
X11653520Y1076452D01*
X11653520Y1008126D01*
X11705336Y1089913D02*
G01*
X11698731Y1083055D01*
X11705336Y1076452D01*
X11712193Y1083055D01*
X11705336Y1089913D01*
X11705336Y1042162D02*
G01*
X11698731Y1035557D01*
X11705336Y1028700D01*
X11712193Y1035557D01*
X11705336Y1042162D01*
D20*
X11999998Y9115338D02*
G01*
X11999998Y9006235D01*
X11999998Y9115338D02*
G01*
X12036366Y9115338D01*
X12051954Y9110144D01*
X12062343Y9099753D01*
X12067540Y9089362D01*
X12072734Y9073774D01*
X12072734Y9047797D01*
X12067540Y9032212D01*
X12062343Y9021820D01*
X12051954Y9011429D01*
X12036366Y9006235D01*
X11999998Y9006235D01*
X12107024Y9115338D02*
G01*
X12107024Y9006235D01*
X12107024Y9115338D02*
G01*
X12174565Y9115338D01*
X12107024Y9063385D02*
G01*
X12148588Y9063385D01*
X12107024Y9006235D02*
G01*
X12174565Y9006235D01*
X12208855Y9115338D02*
G01*
X12250420Y9006235D01*
X12291984Y9115338D02*
G01*
X12250420Y9006235D01*
X12326274Y9094556D02*
G01*
X12336663Y9099753D01*
X12352251Y9115338D01*
X12352251Y9006235D01*
D23*
X10936495Y9574974D02*
G01*
X10928591Y9577489D01*
X10918535Y9577489D01*
X10910630Y9574974D01*
X10900394Y9564735D01*
X10897880Y9556833D01*
X10897880Y9546775D01*
X10900394Y9538873D01*
X10905604Y9528634D01*
X10918535Y9515703D01*
X10928771Y9510496D01*
X10936495Y9508159D01*
X10946731Y9507981D01*
X10954456Y9510674D01*
X10964692Y9520913D01*
X10967387Y9528634D01*
X10967206Y9538873D01*
X10964872Y9546597D01*
X10957148Y9554319D01*
X10944217Y9541388D02*
G01*
X10957148Y9554319D01*
X10940445Y9604789D02*
G01*
X10994506Y9550727D01*
X10940445Y9604789D02*
G01*
X10963615Y9627956D01*
X10974031Y9632985D01*
X10979061Y9632985D01*
X10986963Y9630470D01*
X10994687Y9622749D01*
X10997021Y9615025D01*
X10997201Y9609818D01*
X10991992Y9599579D01*
X10968824Y9576412D01*
X11003846Y9647354D02*
G01*
X11006361Y9655258D01*
X11006361Y9670704D01*
X11060422Y9616643D01*
X10936495Y9065958D02*
G01*
X10928591Y9068473D01*
X10918535Y9068473D01*
X10910630Y9065958D01*
X10900394Y9055719D01*
X10897880Y9047817D01*
X10897880Y9037759D01*
X10900394Y9029857D01*
X10905604Y9019618D01*
X10918535Y9006687D01*
X10928771Y9001480D01*
X10936495Y8999143D01*
X10946731Y8998965D01*
X10954456Y9001658D01*
X10964692Y9011897D01*
X10967387Y9019618D01*
X10967206Y9029857D01*
X10964872Y9037581D01*
X10957148Y9045303D01*
X10944217Y9032372D02*
G01*
X10957148Y9045303D01*
X10940445Y9095773D02*
G01*
X10994506Y9041711D01*
X10940445Y9095773D02*
G01*
X10963615Y9118940D01*
X10974031Y9123969D01*
X10979061Y9123969D01*
X10986963Y9121454D01*
X10994687Y9113733D01*
X10997021Y9106009D01*
X10997201Y9100802D01*
X10991992Y9090563D01*
X10968824Y9067396D01*
X11009055Y9138518D02*
G01*
X11006541Y9141033D01*
X11003846Y9148754D01*
X11003846Y9153784D01*
X11006361Y9161688D01*
X11016599Y9171924D01*
X11024501Y9174439D01*
X11029530Y9174439D01*
X11037252Y9171744D01*
X11042281Y9166717D01*
X11044976Y9158993D01*
X11047491Y9146062D01*
X11047491Y9094696D01*
X11083592Y9130794D01*
X10946429Y9827887D02*
G01*
X10938708Y9830579D01*
X10928469Y9830401D01*
X10920747Y9828065D01*
X10910331Y9817648D01*
X10907994Y9809924D01*
X10907816Y9799688D01*
X10910509Y9791964D01*
X10915538Y9781547D01*
X10928469Y9768616D01*
X10938888Y9763587D01*
X10946429Y9761072D01*
X10956848Y9761072D01*
X10964392Y9763587D01*
X10974809Y9774003D01*
X10977323Y9781547D01*
X10977323Y9791964D01*
X10974809Y9799507D01*
X10967084Y9807232D01*
X10954334Y9794478D02*
G01*
X10967084Y9807232D01*
X10950562Y9857879D02*
G01*
X11004623Y9803818D01*
X10950562Y9857879D02*
G01*
X10973729Y9881049D01*
X10983968Y9885898D01*
X10989177Y9886078D01*
X10996899Y9883383D01*
X11004623Y9875662D01*
X11007138Y9868118D01*
X11007138Y9862728D01*
X11002109Y9852672D01*
X10978939Y9829502D01*
X11018992Y9926309D02*
G01*
X11013963Y9915893D01*
X11016477Y9902962D01*
X11026714Y9887694D01*
X11034438Y9879972D01*
X11049883Y9869553D01*
X11062815Y9867038D01*
X11073051Y9872248D01*
X11078080Y9877277D01*
X11083290Y9887513D01*
X11080775Y9900447D01*
X11070358Y9915893D01*
X11062634Y9923614D01*
X11047369Y9933853D01*
X11034438Y9936368D01*
X11024019Y9931339D01*
X11018992Y9926309D01*
X10946429Y8811887D02*
G01*
X10938708Y8814579D01*
X10928469Y8814401D01*
X10920747Y8812065D01*
X10910331Y8801648D01*
X10907994Y8793924D01*
X10907816Y8783688D01*
X10910509Y8775964D01*
X10915538Y8765547D01*
X10928469Y8752616D01*
X10938888Y8747587D01*
X10946429Y8745072D01*
X10956848Y8745072D01*
X10964392Y8747587D01*
X10974809Y8758003D01*
X10977323Y8765547D01*
X10977323Y8775964D01*
X10974809Y8783507D01*
X10967084Y8791232D01*
X10954334Y8778478D02*
G01*
X10967084Y8791232D01*
X10950562Y8841879D02*
G01*
X11004623Y8787818D01*
X10950562Y8841879D02*
G01*
X10973729Y8865049D01*
X10983968Y8869898D01*
X10989177Y8870078D01*
X10996899Y8867383D01*
X11004623Y8859662D01*
X11007138Y8852118D01*
X11007138Y8846728D01*
X11002109Y8836672D01*
X10978939Y8813502D01*
X11008573Y8899893D02*
G01*
X11036952Y8928270D01*
X11042159Y8892169D01*
X11049883Y8899893D01*
X11057427Y8902407D01*
X11062815Y8902407D01*
X11073051Y8897198D01*
X11078080Y8892169D01*
X11083290Y8881932D01*
X11083290Y8871513D01*
X11078080Y8861277D01*
X11070358Y8853553D01*
X11060120Y8848346D01*
X11054913Y8848526D01*
X11047369Y8851038D01*
X10946429Y8557887D02*
G01*
X10938708Y8560579D01*
X10928469Y8560401D01*
X10920747Y8558065D01*
X10910331Y8547648D01*
X10907994Y8539924D01*
X10907816Y8529688D01*
X10910509Y8521964D01*
X10915538Y8511547D01*
X10928469Y8498616D01*
X10938888Y8493587D01*
X10946429Y8491072D01*
X10956848Y8491072D01*
X10964392Y8493587D01*
X10974809Y8504003D01*
X10977323Y8511547D01*
X10977323Y8521964D01*
X10974809Y8529507D01*
X10967084Y8537232D01*
X10954334Y8524478D02*
G01*
X10967084Y8537232D01*
X10950562Y8587879D02*
G01*
X11004623Y8533818D01*
X10950562Y8587879D02*
G01*
X10973729Y8611049D01*
X10983968Y8615898D01*
X10989177Y8616078D01*
X10996899Y8613383D01*
X11004623Y8605662D01*
X11007138Y8598118D01*
X11007138Y8592728D01*
X11002109Y8582672D01*
X10978939Y8559502D01*
X11029228Y8666548D02*
G01*
X11039645Y8604763D01*
X11078080Y8643198D01*
X11029228Y8666548D02*
G01*
X11083290Y8612487D01*
X10946429Y8303887D02*
G01*
X10938708Y8306579D01*
X10928469Y8306401D01*
X10920747Y8304065D01*
X10910331Y8293648D01*
X10907994Y8285924D01*
X10907816Y8275688D01*
X10910509Y8267964D01*
X10915538Y8257547D01*
X10928469Y8244616D01*
X10938888Y8239587D01*
X10946429Y8237072D01*
X10956848Y8237072D01*
X10964392Y8239587D01*
X10974809Y8250003D01*
X10977323Y8257547D01*
X10977323Y8267964D01*
X10974809Y8275507D01*
X10967084Y8283232D01*
X10954334Y8270478D02*
G01*
X10967084Y8283232D01*
X10950562Y8333879D02*
G01*
X11004623Y8279818D01*
X10950562Y8333879D02*
G01*
X10973729Y8357049D01*
X10983968Y8361898D01*
X10989177Y8362078D01*
X10996899Y8359383D01*
X11004623Y8351662D01*
X11007138Y8344118D01*
X11007138Y8338728D01*
X11002109Y8328672D01*
X10978939Y8305502D01*
X11034257Y8417575D02*
G01*
X11008573Y8391893D01*
X11029228Y8366208D01*
X11029228Y8371238D01*
X11034438Y8381476D01*
X11042159Y8389198D01*
X11052398Y8394407D01*
X11062815Y8394407D01*
X11073051Y8389198D01*
X11078080Y8384169D01*
X11083290Y8373932D01*
X11083290Y8363513D01*
X11078080Y8353277D01*
X11070358Y8345553D01*
X11060120Y8340346D01*
X11054913Y8340526D01*
X11047369Y8343038D01*
X10946429Y7795887D02*
G01*
X10938708Y7798579D01*
X10928469Y7798401D01*
X10920747Y7796065D01*
X10910331Y7785648D01*
X10907994Y7777924D01*
X10907816Y7767688D01*
X10910509Y7759964D01*
X10915538Y7749547D01*
X10928469Y7736616D01*
X10938888Y7731587D01*
X10946429Y7729072D01*
X10956848Y7729072D01*
X10964392Y7731587D01*
X10974809Y7742003D01*
X10977323Y7749547D01*
X10977323Y7759964D01*
X10974809Y7767507D01*
X10967084Y7775232D01*
X10954334Y7762478D02*
G01*
X10967084Y7775232D01*
X10950562Y7825879D02*
G01*
X11004623Y7771818D01*
X10950562Y7825879D02*
G01*
X10973729Y7849049D01*
X10983968Y7853898D01*
X10989177Y7854078D01*
X10996899Y7851383D01*
X11004623Y7843662D01*
X11007138Y7836118D01*
X11007138Y7830728D01*
X11002109Y7820672D01*
X10978939Y7797502D01*
X11041981Y7901853D02*
G01*
X11034438Y7904368D01*
X11024019Y7899339D01*
X11018992Y7894309D01*
X11013963Y7883893D01*
X11016477Y7870962D01*
X11026714Y7855694D01*
X11039645Y7842763D01*
X11052398Y7835038D01*
X11062815Y7835038D01*
X11073051Y7840248D01*
X11075565Y7842763D01*
X11080775Y7853001D01*
X11080595Y7863238D01*
X11075565Y7873654D01*
X11073051Y7876169D01*
X11062634Y7881198D01*
X11052398Y7881378D01*
X11042159Y7876169D01*
X11039645Y7873654D01*
X11034438Y7863418D01*
X11034438Y7853001D01*
X11039645Y7842763D01*
X10956528Y7545034D02*
G01*
X10948626Y7547549D01*
X10938568Y7547549D01*
X10930844Y7544854D01*
X10920608Y7534617D01*
X10917913Y7526893D01*
X10917732Y7516657D01*
X10920427Y7508933D01*
X10925637Y7498697D01*
X10938568Y7485766D01*
X10948804Y7480556D01*
X10956348Y7478041D01*
X10966764Y7478041D01*
X10974489Y7480736D01*
X10984725Y7490973D01*
X10987420Y7498697D01*
X10987239Y7508933D01*
X10984905Y7516657D01*
X10977184Y7524379D01*
X10964250Y7511448D02*
G01*
X10977184Y7524379D01*
X10960658Y7574668D02*
G01*
X11014539Y7520787D01*
X10960658Y7574668D02*
G01*
X10983828Y7597838D01*
X10994064Y7603048D01*
X10999094Y7603048D01*
X11006998Y7600533D01*
X11014720Y7592809D01*
X11017054Y7585087D01*
X11017234Y7579878D01*
X11012025Y7569639D01*
X10988857Y7546472D01*
X11049563Y7663573D02*
G01*
X11077762Y7584008D01*
X11013643Y7627653D02*
G01*
X11049563Y7663573D01*
X10946429Y7287887D02*
G01*
X10938708Y7290579D01*
X10928469Y7290401D01*
X10920747Y7288065D01*
X10910331Y7277648D01*
X10907994Y7269924D01*
X10907816Y7259688D01*
X10910509Y7251964D01*
X10915538Y7241547D01*
X10928469Y7228616D01*
X10938888Y7223587D01*
X10946429Y7221072D01*
X10956848Y7221072D01*
X10964392Y7223587D01*
X10974809Y7234003D01*
X10977323Y7241547D01*
X10977323Y7251964D01*
X10974809Y7259507D01*
X10967084Y7267232D01*
X10954334Y7254478D02*
G01*
X10967084Y7267232D01*
X10950562Y7317879D02*
G01*
X11004623Y7263818D01*
X10950562Y7317879D02*
G01*
X10973729Y7341049D01*
X10983968Y7345898D01*
X10989177Y7346078D01*
X10996899Y7343383D01*
X11004623Y7335662D01*
X11007138Y7328118D01*
X11007138Y7322728D01*
X11002109Y7312672D01*
X10978939Y7289502D01*
X11016297Y7383614D02*
G01*
X11011268Y7373198D01*
X11013782Y7365654D01*
X11018992Y7360447D01*
X11026714Y7357752D01*
X11034438Y7360447D01*
X11047188Y7368169D01*
X11057605Y7373198D01*
X11067844Y7373378D01*
X11075565Y7370683D01*
X11083290Y7362962D01*
X11085804Y7355418D01*
X11085804Y7350028D01*
X11080595Y7339792D01*
X11070358Y7329553D01*
X11060120Y7324346D01*
X11054913Y7324526D01*
X11047369Y7327038D01*
X11039645Y7334763D01*
X11036952Y7342487D01*
X11037130Y7352723D01*
X11042159Y7363139D01*
X11049883Y7375893D01*
X11052398Y7383437D01*
X11049883Y7391339D01*
X11044674Y7396548D01*
X11036952Y7398882D01*
X11026533Y7393853D01*
X11016297Y7383614D01*
X10946450Y7033892D02*
G01*
X10938725Y7036587D01*
X10928487Y7036407D01*
X10920765Y7034072D01*
X10910349Y7023656D01*
X10908012Y7015932D01*
X10907834Y7005695D01*
X10910526Y6997971D01*
X10915556Y6987555D01*
X10928309Y6974804D01*
X10938725Y6969775D01*
X10946450Y6967080D01*
X10956866Y6967080D01*
X10964410Y6969594D01*
X10974826Y6980011D01*
X10977341Y6987555D01*
X10977341Y6997971D01*
X10974646Y7005695D01*
X10966924Y7013417D01*
X10954171Y7000666D02*
G01*
X10966924Y7013417D01*
X10950580Y7063887D02*
G01*
X11004641Y7009825D01*
X10950580Y7063887D02*
G01*
X10973749Y7087057D01*
X10983986Y7091906D01*
X10989195Y7092086D01*
X10996917Y7089391D01*
X11004641Y7081669D01*
X11007156Y7074126D01*
X11007156Y7068736D01*
X11002126Y7058680D01*
X10978956Y7035510D01*
X11055111Y7132137D02*
G01*
X11060137Y7121720D01*
X11060137Y7111662D01*
X11054930Y7101425D01*
X11052416Y7098911D01*
X11042177Y7093701D01*
X11031941Y7093521D01*
X11021702Y7098731D01*
X11019010Y7101425D01*
X11013800Y7111662D01*
X11013981Y7121900D01*
X11019010Y7132317D01*
X11021524Y7134832D01*
X11031941Y7139861D01*
X11041999Y7139861D01*
X11055111Y7132137D01*
X11067862Y7119386D01*
X11078098Y7103760D01*
X11080793Y7091006D01*
X11075586Y7080770D01*
X11070376Y7075561D01*
X11060137Y7070354D01*
X11052416Y7073046D01*
X10898418Y6503299D02*
G01*
X10890694Y6505991D01*
X10880455Y6505813D01*
X10872553Y6503299D01*
X10862317Y6493060D01*
X10859980Y6485338D01*
X10859803Y6475100D01*
X10862495Y6467375D01*
X10867524Y6456959D01*
X10880455Y6444028D01*
X10890874Y6438999D01*
X10898418Y6436484D01*
X10908835Y6436484D01*
X10916378Y6438999D01*
X10926615Y6449237D01*
X10929310Y6456959D01*
X10929310Y6467375D01*
X10926795Y6474919D01*
X10919071Y6482643D01*
X10906140Y6469712D02*
G01*
X10919071Y6482643D01*
X10902548Y6533291D02*
G01*
X10956610Y6479230D01*
X10902548Y6533291D02*
G01*
X10925538Y6556281D01*
X10935954Y6561310D01*
X10941164Y6561490D01*
X10948885Y6558795D01*
X10956610Y6551074D01*
X10959124Y6543530D01*
X10959124Y6538140D01*
X10953915Y6527904D01*
X10930925Y6504914D01*
X10965949Y6575859D02*
G01*
X10968283Y6583580D01*
X10968283Y6599026D01*
X11022345Y6544965D01*
X11000793Y6631536D02*
G01*
X10995764Y6621119D01*
X10998278Y6608188D01*
X11008514Y6592920D01*
X11016239Y6585198D01*
X11031684Y6574779D01*
X11044615Y6572267D01*
X11054854Y6577474D01*
X11059881Y6582503D01*
X11065090Y6592742D01*
X11062576Y6605673D01*
X11052159Y6621119D01*
X11044435Y6628841D01*
X11029170Y6639079D01*
X11016239Y6641594D01*
X11005822Y6636565D01*
X11000793Y6631536D01*
X10883902Y6249388D02*
G01*
X10876000Y6251902D01*
X10865942Y6251902D01*
X10858040Y6249388D01*
X10847801Y6239149D01*
X10845286Y6231247D01*
X10845106Y6221011D01*
X10847801Y6213287D01*
X10853011Y6203050D01*
X10865942Y6190117D01*
X10876178Y6184910D01*
X10883722Y6182395D01*
X10894138Y6182395D01*
X10901862Y6185090D01*
X10912099Y6195326D01*
X10914794Y6203050D01*
X10914613Y6213287D01*
X10912279Y6221011D01*
X10904557Y6228732D01*
X10891624Y6215801D02*
G01*
X10904557Y6228732D01*
X10887854Y6279202D02*
G01*
X10941913Y6225141D01*
X10887854Y6279202D02*
G01*
X10911022Y6302372D01*
X10921438Y6307401D01*
X10926467Y6307401D01*
X10934372Y6304887D01*
X10942093Y6297162D01*
X10944428Y6289438D01*
X10944608Y6284231D01*
X10939399Y6273993D01*
X10916231Y6250825D01*
X10951253Y6321767D02*
G01*
X10953767Y6329672D01*
X10953767Y6345118D01*
X11007829Y6291056D01*
X10981067Y6351582D02*
G01*
X10983582Y6359486D01*
X10983582Y6374932D01*
X11037643Y6320871D01*
X10883902Y5995388D02*
G01*
X10876000Y5997902D01*
X10865942Y5997902D01*
X10858040Y5995388D01*
X10847801Y5985149D01*
X10845286Y5977247D01*
X10845106Y5967011D01*
X10847801Y5959287D01*
X10853011Y5949050D01*
X10865942Y5936117D01*
X10876178Y5930910D01*
X10883722Y5928395D01*
X10894138Y5928395D01*
X10901862Y5931090D01*
X10912099Y5941326D01*
X10914794Y5949050D01*
X10914613Y5959287D01*
X10912279Y5967011D01*
X10904557Y5974732D01*
X10891624Y5961801D02*
G01*
X10904557Y5974732D01*
X10887854Y6025202D02*
G01*
X10941913Y5971141D01*
X10887854Y6025202D02*
G01*
X10911022Y6048372D01*
X10921438Y6053401D01*
X10926467Y6053401D01*
X10934372Y6050887D01*
X10942093Y6043162D01*
X10944428Y6035438D01*
X10944608Y6030231D01*
X10939399Y6019993D01*
X10916231Y5996825D01*
X10951253Y6067767D02*
G01*
X10953767Y6075672D01*
X10953767Y6091118D01*
X11007829Y6037056D01*
X10986096Y6097582D02*
G01*
X10983582Y6100097D01*
X10981067Y6108001D01*
X10981067Y6113028D01*
X10983582Y6120932D01*
X10993821Y6131168D01*
X11001722Y6133683D01*
X11006752Y6133683D01*
X11014476Y6130991D01*
X11019502Y6125961D01*
X11022197Y6118237D01*
X11024712Y6105306D01*
X11024712Y6053940D01*
X11060813Y6090041D01*
X10898418Y5741299D02*
G01*
X10890694Y5743991D01*
X10880455Y5743813D01*
X10872553Y5741299D01*
X10862317Y5731060D01*
X10859980Y5723338D01*
X10859803Y5713100D01*
X10862495Y5705375D01*
X10867524Y5694959D01*
X10880455Y5682028D01*
X10890874Y5676999D01*
X10898418Y5674484D01*
X10908835Y5674484D01*
X10916378Y5676999D01*
X10926615Y5687237D01*
X10929310Y5694959D01*
X10929310Y5705375D01*
X10926795Y5712919D01*
X10919071Y5720643D01*
X10906140Y5707712D02*
G01*
X10919071Y5720643D01*
X10902548Y5771291D02*
G01*
X10956610Y5717230D01*
X10902548Y5771291D02*
G01*
X10925538Y5794281D01*
X10935954Y5799310D01*
X10941164Y5799490D01*
X10948885Y5796795D01*
X10956610Y5789074D01*
X10959124Y5781530D01*
X10959124Y5776140D01*
X10953915Y5765904D01*
X10930925Y5742914D01*
X10965949Y5813859D02*
G01*
X10968283Y5821580D01*
X10968283Y5837026D01*
X11022345Y5782965D01*
X10990374Y5859119D02*
G01*
X11018753Y5887496D01*
X11023960Y5851395D01*
X11031684Y5859119D01*
X11039228Y5861634D01*
X11044615Y5861634D01*
X11054854Y5856424D01*
X11059881Y5851395D01*
X11065090Y5841159D01*
X11065090Y5830742D01*
X11059881Y5820503D01*
X11052159Y5812779D01*
X11041921Y5807572D01*
X11036714Y5807753D01*
X11029170Y5810267D01*
X10893839Y5233316D02*
G01*
X10886114Y5236009D01*
X10875878Y5235831D01*
X10867974Y5233316D01*
X10857738Y5223078D01*
X10855223Y5215176D01*
X10855223Y5205117D01*
X10857915Y5197396D01*
X10862945Y5186977D01*
X10875878Y5174046D01*
X10886295Y5169016D01*
X10893839Y5166502D01*
X10904075Y5166324D01*
X10911799Y5169016D01*
X10922035Y5179255D01*
X10924730Y5186977D01*
X10924730Y5197396D01*
X10922215Y5204937D01*
X10914491Y5212661D01*
X10901560Y5199730D02*
G01*
X10914491Y5212661D01*
X10897788Y5263131D02*
G01*
X10951850Y5209070D01*
X10897788Y5263131D02*
G01*
X10920958Y5286298D01*
X10931375Y5291328D01*
X10936584Y5291508D01*
X10944306Y5288813D01*
X10952030Y5281091D01*
X10954545Y5273547D01*
X10954545Y5268160D01*
X10949335Y5257921D01*
X10926168Y5234752D01*
X10961189Y5305696D02*
G01*
X10963704Y5313598D01*
X10963704Y5329044D01*
X11017765Y5274985D01*
X11006449Y5371792D02*
G01*
X11016866Y5310007D01*
X11055304Y5348442D01*
X11006449Y5371792D02*
G01*
X11060511Y5317731D01*
X10898418Y4979299D02*
G01*
X10890694Y4981991D01*
X10880455Y4981813D01*
X10872553Y4979299D01*
X10862317Y4969060D01*
X10859980Y4961338D01*
X10859803Y4951100D01*
X10862495Y4943375D01*
X10867524Y4932959D01*
X10880455Y4920028D01*
X10890874Y4914999D01*
X10898418Y4912484D01*
X10908835Y4912484D01*
X10916378Y4914999D01*
X10926615Y4925237D01*
X10929310Y4932959D01*
X10929310Y4943375D01*
X10926795Y4950919D01*
X10919071Y4958643D01*
X10906140Y4945712D02*
G01*
X10919071Y4958643D01*
X10902548Y5009291D02*
G01*
X10956610Y4955230D01*
X10902548Y5009291D02*
G01*
X10925538Y5032281D01*
X10935954Y5037310D01*
X10941164Y5037490D01*
X10948885Y5034795D01*
X10956610Y5027074D01*
X10959124Y5019530D01*
X10959124Y5014140D01*
X10953915Y5003904D01*
X10930925Y4980914D01*
X10965949Y5051859D02*
G01*
X10968283Y5059580D01*
X10968283Y5075026D01*
X11022345Y5020965D01*
X11016058Y5122801D02*
G01*
X10990374Y5097119D01*
X11011029Y5071435D01*
X11011029Y5076464D01*
X11016239Y5086703D01*
X11023960Y5094424D01*
X11034199Y5099634D01*
X11044615Y5099634D01*
X11054854Y5094424D01*
X11059881Y5089395D01*
X11065090Y5079159D01*
X11065090Y5068742D01*
X11059881Y5058503D01*
X11052159Y5050779D01*
X11041921Y5045572D01*
X11036714Y5045753D01*
X11029170Y5048267D01*
X13509261Y4979352D02*
G01*
X13501357Y4981867D01*
X13491301Y4981867D01*
X13483396Y4979352D01*
X13473160Y4969113D01*
X13470646Y4961211D01*
X13470646Y4951153D01*
X13473160Y4943251D01*
X13478370Y4933012D01*
X13491301Y4920081D01*
X13501537Y4914874D01*
X13509261Y4912537D01*
X13519497Y4912360D01*
X13527222Y4915052D01*
X13537458Y4925291D01*
X13540153Y4933012D01*
X13539972Y4943251D01*
X13537638Y4950975D01*
X13529914Y4958697D01*
X13516983Y4945766D02*
G01*
X13529914Y4958697D01*
X13513211Y5009167D02*
G01*
X13567272Y4955105D01*
X13513211Y5009167D02*
G01*
X13536381Y5032334D01*
X13546797Y5037363D01*
X13551827Y5037363D01*
X13559729Y5034848D01*
X13567453Y5027127D01*
X13569787Y5019403D01*
X13569967Y5014196D01*
X13564758Y5003957D01*
X13541590Y4980790D01*
X13576612Y5051732D02*
G01*
X13579127Y5059636D01*
X13579127Y5075082D01*
X13633188Y5021021D01*
X13634626Y5115133D02*
G01*
X13627082Y5117647D01*
X13616665Y5112618D01*
X13611456Y5107411D01*
X13606426Y5096992D01*
X13609121Y5084241D01*
X13619180Y5068796D01*
X13632111Y5055864D01*
X13645042Y5048321D01*
X13655281Y5048140D01*
X13665517Y5053350D01*
X13668212Y5056042D01*
X13673419Y5066281D01*
X13673241Y5076517D01*
X13668032Y5086756D01*
X13665517Y5089270D01*
X13655281Y5094478D01*
X13645042Y5094658D01*
X13634806Y5089448D01*
X13632111Y5086756D01*
X13626901Y5076517D01*
X13627082Y5066281D01*
X13632111Y5055864D01*
X13509261Y5233352D02*
G01*
X13501357Y5235867D01*
X13491301Y5235867D01*
X13483396Y5233352D01*
X13473160Y5223113D01*
X13470646Y5215211D01*
X13470646Y5205153D01*
X13473160Y5197251D01*
X13478370Y5187012D01*
X13491301Y5174081D01*
X13501537Y5168874D01*
X13509261Y5166537D01*
X13519497Y5166360D01*
X13527222Y5169052D01*
X13537458Y5179291D01*
X13540153Y5187012D01*
X13539972Y5197251D01*
X13537638Y5204975D01*
X13529914Y5212697D01*
X13516983Y5199766D02*
G01*
X13529914Y5212697D01*
X13513211Y5263167D02*
G01*
X13567272Y5209105D01*
X13513211Y5263167D02*
G01*
X13536381Y5286334D01*
X13546797Y5291363D01*
X13551827Y5291363D01*
X13559729Y5288848D01*
X13567453Y5281127D01*
X13569787Y5273403D01*
X13569967Y5268196D01*
X13564758Y5257957D01*
X13541590Y5234790D01*
X13576612Y5305732D02*
G01*
X13579127Y5313636D01*
X13579127Y5329082D01*
X13633188Y5275021D01*
X13632111Y5382064D02*
G01*
X13660488Y5302321D01*
X13596010Y5345963D02*
G01*
X13632111Y5382064D01*
X13509261Y5741352D02*
G01*
X13501357Y5743867D01*
X13491301Y5743867D01*
X13483396Y5741352D01*
X13473160Y5731113D01*
X13470646Y5723211D01*
X13470646Y5713153D01*
X13473160Y5705251D01*
X13478370Y5695012D01*
X13491301Y5682081D01*
X13501537Y5676874D01*
X13509261Y5674537D01*
X13519497Y5674360D01*
X13527222Y5677052D01*
X13537458Y5687291D01*
X13540153Y5695012D01*
X13539972Y5705251D01*
X13537638Y5712975D01*
X13529914Y5720697D01*
X13516983Y5707766D02*
G01*
X13529914Y5720697D01*
X13513211Y5771167D02*
G01*
X13567272Y5717105D01*
X13513211Y5771167D02*
G01*
X13536381Y5794334D01*
X13546797Y5799363D01*
X13551827Y5799363D01*
X13559729Y5796848D01*
X13567453Y5789127D01*
X13569787Y5781403D01*
X13569967Y5776196D01*
X13564758Y5765957D01*
X13541590Y5742790D01*
X13576612Y5813732D02*
G01*
X13579127Y5821636D01*
X13579127Y5837082D01*
X13633188Y5783021D01*
X13608941Y5866897D02*
G01*
X13603912Y5856478D01*
X13606426Y5848936D01*
X13611636Y5843727D01*
X13619358Y5841032D01*
X13627082Y5843727D01*
X13639833Y5851448D01*
X13650252Y5856478D01*
X13660307Y5856478D01*
X13668212Y5853963D01*
X13675934Y5846241D01*
X13678270Y5838517D01*
X13678448Y5833310D01*
X13673241Y5823071D01*
X13663002Y5812835D01*
X13652766Y5807626D01*
X13647557Y5807806D01*
X13639833Y5810140D01*
X13632111Y5817864D01*
X13629596Y5825766D01*
X13629596Y5835825D01*
X13634626Y5846241D01*
X13642527Y5859172D01*
X13645042Y5866716D01*
X13642347Y5874438D01*
X13637140Y5879647D01*
X13629596Y5882162D01*
X13619180Y5877133D01*
X13608941Y5866897D01*
X13509261Y5995352D02*
G01*
X13501357Y5997867D01*
X13491301Y5997867D01*
X13483396Y5995352D01*
X13473160Y5985113D01*
X13470646Y5977211D01*
X13470646Y5967153D01*
X13473160Y5959251D01*
X13478370Y5949012D01*
X13491301Y5936081D01*
X13501537Y5930874D01*
X13509261Y5928537D01*
X13519497Y5928360D01*
X13527222Y5931052D01*
X13537458Y5941291D01*
X13540153Y5949012D01*
X13539972Y5959251D01*
X13537638Y5966975D01*
X13529914Y5974697D01*
X13516983Y5961766D02*
G01*
X13529914Y5974697D01*
X13513211Y6025167D02*
G01*
X13567272Y5971105D01*
X13513211Y6025167D02*
G01*
X13536381Y6048334D01*
X13546797Y6053363D01*
X13551827Y6053363D01*
X13559729Y6050848D01*
X13567453Y6043127D01*
X13569787Y6035403D01*
X13569967Y6030196D01*
X13564758Y6019957D01*
X13541590Y5996790D01*
X13576612Y6067732D02*
G01*
X13579127Y6075636D01*
X13579127Y6091082D01*
X13633188Y6037021D01*
X13647557Y6123231D02*
G01*
X13652766Y6112992D01*
X13652766Y6102936D01*
X13647737Y6092517D01*
X13645042Y6089825D01*
X13634626Y6084796D01*
X13624567Y6084796D01*
X13614151Y6089825D01*
X13611456Y6092517D01*
X13606426Y6102936D01*
X13606426Y6112992D01*
X13611456Y6123411D01*
X13614151Y6126104D01*
X13624567Y6131133D01*
X13634626Y6131133D01*
X13647557Y6123231D01*
X13660307Y6110478D01*
X13670727Y6095032D01*
X13673419Y6082281D01*
X13668212Y6072042D01*
X13663002Y6066835D01*
X13652766Y6061626D01*
X13645042Y6064321D01*
X13509261Y6249352D02*
G01*
X13501357Y6251867D01*
X13491301Y6251867D01*
X13483396Y6249352D01*
X13473160Y6239113D01*
X13470646Y6231211D01*
X13470646Y6221153D01*
X13473160Y6213251D01*
X13478370Y6203012D01*
X13491301Y6190081D01*
X13501537Y6184874D01*
X13509261Y6182537D01*
X13519497Y6182360D01*
X13527222Y6185052D01*
X13537458Y6195291D01*
X13540153Y6203012D01*
X13539972Y6213251D01*
X13537638Y6220975D01*
X13529914Y6228697D01*
X13516983Y6215766D02*
G01*
X13529914Y6228697D01*
X13513211Y6279167D02*
G01*
X13567272Y6225105D01*
X13513211Y6279167D02*
G01*
X13536381Y6302334D01*
X13546797Y6307363D01*
X13551827Y6307363D01*
X13559729Y6304848D01*
X13567453Y6297127D01*
X13569787Y6289403D01*
X13569967Y6284196D01*
X13564758Y6273957D01*
X13541590Y6250790D01*
X13581821Y6321912D02*
G01*
X13579307Y6324427D01*
X13576612Y6332148D01*
X13576612Y6337178D01*
X13579127Y6345082D01*
X13589365Y6355318D01*
X13597267Y6357833D01*
X13602296Y6357833D01*
X13610018Y6355138D01*
X13615047Y6350111D01*
X13617742Y6342387D01*
X13620257Y6329456D01*
X13620257Y6278090D01*
X13656358Y6314188D01*
X13634626Y6400579D02*
G01*
X13629596Y6390162D01*
X13632291Y6377411D01*
X13642347Y6361963D01*
X13650071Y6354241D01*
X13665697Y6344003D01*
X13678448Y6341310D01*
X13688687Y6346517D01*
X13693894Y6351727D01*
X13699103Y6361963D01*
X13696408Y6374716D01*
X13686172Y6390342D01*
X13678448Y6398064D01*
X13663002Y6408122D01*
X13650252Y6410817D01*
X13639833Y6405788D01*
X13634626Y6400579D01*
X13509261Y6502336D02*
G01*
X13501357Y6504851D01*
X13491301Y6504851D01*
X13483396Y6502336D01*
X13473160Y6492097D01*
X13470646Y6484195D01*
X13470646Y6474137D01*
X13473160Y6466235D01*
X13478370Y6455996D01*
X13491301Y6443065D01*
X13501537Y6437858D01*
X13509261Y6435521D01*
X13519497Y6435344D01*
X13527222Y6438036D01*
X13537458Y6448275D01*
X13540153Y6455996D01*
X13539972Y6466235D01*
X13537638Y6473959D01*
X13529914Y6481681D01*
X13516983Y6468750D02*
G01*
X13529914Y6481681D01*
X13513211Y6532151D02*
G01*
X13567272Y6478089D01*
X13513211Y6532151D02*
G01*
X13536381Y6555318D01*
X13546797Y6560347D01*
X13551827Y6560347D01*
X13559729Y6557832D01*
X13567453Y6550111D01*
X13569787Y6542387D01*
X13569967Y6537180D01*
X13564758Y6526941D01*
X13541590Y6503774D01*
X13581821Y6574896D02*
G01*
X13579307Y6577411D01*
X13576612Y6585132D01*
X13576612Y6590162D01*
X13579127Y6598066D01*
X13589365Y6608302D01*
X13597267Y6610817D01*
X13602296Y6610817D01*
X13610018Y6608122D01*
X13615047Y6603095D01*
X13617742Y6595371D01*
X13620257Y6582440D01*
X13620257Y6531074D01*
X13656358Y6567172D01*
X13629596Y6627700D02*
G01*
X13632111Y6635602D01*
X13632111Y6651048D01*
X13686172Y6596987D01*
X13509261Y7011352D02*
G01*
X13501357Y7013867D01*
X13491301Y7013867D01*
X13483396Y7011352D01*
X13473160Y7001113D01*
X13470646Y6993211D01*
X13470646Y6983153D01*
X13473160Y6975251D01*
X13478370Y6965012D01*
X13491301Y6952081D01*
X13501537Y6946874D01*
X13509261Y6944537D01*
X13519497Y6944360D01*
X13527222Y6947052D01*
X13537458Y6957291D01*
X13540153Y6965012D01*
X13539972Y6975251D01*
X13537638Y6982975D01*
X13529914Y6990697D01*
X13516983Y6977766D02*
G01*
X13529914Y6990697D01*
X13513211Y7041167D02*
G01*
X13567272Y6987105D01*
X13513211Y7041167D02*
G01*
X13536381Y7064334D01*
X13546797Y7069363D01*
X13551827Y7069363D01*
X13559729Y7066848D01*
X13567453Y7059127D01*
X13569787Y7051403D01*
X13569967Y7046196D01*
X13564758Y7035957D01*
X13541590Y7012790D01*
X13581821Y7083912D02*
G01*
X13579307Y7086427D01*
X13576612Y7094148D01*
X13576612Y7099178D01*
X13579127Y7107082D01*
X13589365Y7117318D01*
X13597267Y7119833D01*
X13602296Y7119833D01*
X13610018Y7117138D01*
X13615047Y7112111D01*
X13617742Y7104387D01*
X13620257Y7091456D01*
X13620257Y7040090D01*
X13656358Y7076188D01*
X13634806Y7136897D02*
G01*
X13632291Y7139411D01*
X13629596Y7147133D01*
X13629596Y7152162D01*
X13632111Y7160064D01*
X13642347Y7170303D01*
X13650252Y7172817D01*
X13655281Y7172817D01*
X13663002Y7170122D01*
X13668032Y7165093D01*
X13670727Y7157372D01*
X13673241Y7144438D01*
X13673241Y7093071D01*
X13709340Y7129172D01*
X13474971Y7262309D02*
G01*
X13529033Y7208248D01*
X13474971Y7262309D02*
G01*
X13498141Y7285479D01*
X13508558Y7290508D01*
X13513587Y7290508D01*
X13521309Y7287813D01*
X13526338Y7282784D01*
X13529033Y7275062D01*
X13529033Y7270033D01*
X13524003Y7259617D01*
X13500834Y7236447D01*
X13518794Y7254407D02*
G01*
X13564953Y7244171D01*
X13527956Y7315293D02*
G01*
X13566569Y7276678D01*
X13576808Y7271471D01*
X13587224Y7271471D01*
X13597463Y7276678D01*
X13602492Y7281707D01*
X13607699Y7291946D01*
X13607699Y7302362D01*
X13602492Y7312599D01*
X13563876Y7351214D01*
X13580938Y7368278D02*
G01*
X13634999Y7314217D01*
X13580938Y7368278D02*
G01*
X13670920Y7350137D01*
X13616858Y7404199D02*
G01*
X13670920Y7350137D01*
X13509261Y7519352D02*
G01*
X13501357Y7521867D01*
X13491301Y7521867D01*
X13483396Y7519352D01*
X13473160Y7509113D01*
X13470646Y7501211D01*
X13470646Y7491153D01*
X13473160Y7483251D01*
X13478370Y7473012D01*
X13491301Y7460081D01*
X13501537Y7454874D01*
X13509261Y7452537D01*
X13519497Y7452360D01*
X13527222Y7455052D01*
X13537458Y7465291D01*
X13540153Y7473012D01*
X13539972Y7483251D01*
X13537638Y7490975D01*
X13529914Y7498697D01*
X13516983Y7485766D02*
G01*
X13529914Y7498697D01*
X13513211Y7549167D02*
G01*
X13567272Y7495105D01*
X13513211Y7549167D02*
G01*
X13536381Y7572334D01*
X13546797Y7577363D01*
X13551827Y7577363D01*
X13559729Y7574848D01*
X13567453Y7567127D01*
X13569787Y7559403D01*
X13569967Y7554196D01*
X13564758Y7543957D01*
X13541590Y7520790D01*
X13581821Y7591912D02*
G01*
X13579307Y7594427D01*
X13576612Y7602148D01*
X13576612Y7607178D01*
X13579127Y7615082D01*
X13589365Y7625318D01*
X13597267Y7627833D01*
X13602296Y7627833D01*
X13610018Y7625138D01*
X13615047Y7620111D01*
X13617742Y7612387D01*
X13620257Y7599456D01*
X13620257Y7548090D01*
X13656358Y7584188D01*
X13657793Y7678303D02*
G01*
X13650252Y7680817D01*
X13639833Y7675788D01*
X13634626Y7670579D01*
X13629596Y7660162D01*
X13632291Y7647411D01*
X13642347Y7631963D01*
X13655281Y7619032D01*
X13668212Y7611488D01*
X13678448Y7611310D01*
X13688687Y7616517D01*
X13691201Y7619032D01*
X13696408Y7629270D01*
X13696408Y7639687D01*
X13691201Y7649923D01*
X13688687Y7652438D01*
X13678448Y7657647D01*
X13668032Y7657647D01*
X13657793Y7652438D01*
X13655281Y7649923D01*
X13650071Y7639687D01*
X13650252Y7629448D01*
X13655281Y7619032D01*
X13509261Y7772336D02*
G01*
X13501357Y7774851D01*
X13491301Y7774851D01*
X13483396Y7772336D01*
X13473160Y7762097D01*
X13470646Y7754195D01*
X13470646Y7744137D01*
X13473160Y7736235D01*
X13478370Y7725996D01*
X13491301Y7713065D01*
X13501537Y7707858D01*
X13509261Y7705521D01*
X13519497Y7705344D01*
X13527222Y7708036D01*
X13537458Y7718275D01*
X13540153Y7725996D01*
X13539972Y7736235D01*
X13537638Y7743959D01*
X13529914Y7751681D01*
X13516983Y7738750D02*
G01*
X13529914Y7751681D01*
X13513211Y7802151D02*
G01*
X13567272Y7748089D01*
X13513211Y7802151D02*
G01*
X13536381Y7825318D01*
X13546797Y7830347D01*
X13551827Y7830347D01*
X13559729Y7827832D01*
X13567453Y7820111D01*
X13569787Y7812387D01*
X13569967Y7807180D01*
X13564758Y7796941D01*
X13541590Y7773774D01*
X13581821Y7844896D02*
G01*
X13579307Y7847411D01*
X13576612Y7855132D01*
X13576612Y7860162D01*
X13579127Y7868066D01*
X13589365Y7878302D01*
X13597267Y7880817D01*
X13602296Y7880817D01*
X13610018Y7878122D01*
X13615047Y7873095D01*
X13617742Y7865371D01*
X13620257Y7852440D01*
X13620257Y7801074D01*
X13656358Y7837172D01*
X13655281Y7944218D02*
G01*
X13683477Y7864294D01*
X13619180Y7908117D02*
G01*
X13655281Y7944218D01*
X13509261Y8306752D02*
G01*
X13501357Y8309267D01*
X13491301Y8309267D01*
X13483396Y8306752D01*
X13473160Y8296513D01*
X13470646Y8288611D01*
X13470646Y8278553D01*
X13473160Y8270651D01*
X13478370Y8260412D01*
X13491301Y8247481D01*
X13501537Y8242274D01*
X13509261Y8239937D01*
X13519497Y8239760D01*
X13527222Y8242452D01*
X13537458Y8252691D01*
X13540153Y8260412D01*
X13539972Y8270651D01*
X13537638Y8278375D01*
X13529914Y8286097D01*
X13516983Y8273166D02*
G01*
X13529914Y8286097D01*
X13513211Y8336567D02*
G01*
X13567272Y8282505D01*
X13513211Y8336567D02*
G01*
X13536381Y8359734D01*
X13546797Y8364763D01*
X13551827Y8364763D01*
X13559729Y8362248D01*
X13567453Y8354527D01*
X13569787Y8346803D01*
X13569967Y8341596D01*
X13564758Y8331357D01*
X13541590Y8308190D01*
X13581821Y8379312D02*
G01*
X13579307Y8381827D01*
X13576612Y8389548D01*
X13576612Y8394578D01*
X13579127Y8402482D01*
X13589365Y8412718D01*
X13597267Y8415233D01*
X13602296Y8415233D01*
X13610018Y8412538D01*
X13615047Y8407511D01*
X13617742Y8399787D01*
X13620257Y8386856D01*
X13620257Y8335490D01*
X13656358Y8371588D01*
X13632111Y8455464D02*
G01*
X13627082Y8445047D01*
X13629596Y8437504D01*
X13634806Y8432297D01*
X13642527Y8429602D01*
X13650071Y8432116D01*
X13663002Y8440018D01*
X13673419Y8445047D01*
X13683477Y8445047D01*
X13691379Y8442533D01*
X13699103Y8434811D01*
X13701438Y8427087D01*
X13701618Y8421878D01*
X13696408Y8411641D01*
X13686172Y8401403D01*
X13675934Y8396196D01*
X13670727Y8396373D01*
X13663002Y8398710D01*
X13655281Y8406432D01*
X13652766Y8414336D01*
X13652766Y8424392D01*
X13657793Y8434811D01*
X13665517Y8447562D01*
X13668212Y8455286D01*
X13665517Y8463008D01*
X13660307Y8468217D01*
X13652766Y8470732D01*
X13642347Y8465703D01*
X13632111Y8455464D01*
X13482601Y8546627D02*
G01*
X13515830Y8472091D01*
X13482601Y8546627D02*
G01*
X13556957Y8513221D01*
X13505591Y8497775D02*
G01*
X13531275Y8523460D01*
X13520140Y8584166D02*
G01*
X13574021Y8530285D01*
X13520140Y8584166D02*
G01*
X13538100Y8602126D01*
X13548337Y8607333D01*
X13558575Y8607513D01*
X13566297Y8604818D01*
X13576536Y8599611D01*
X13589467Y8586680D01*
X13594676Y8576442D01*
X13597191Y8568898D01*
X13597191Y8558481D01*
X13591981Y8548245D01*
X13574021Y8530285D01*
X13624311Y8662832D02*
G01*
X13616586Y8665527D01*
X13606350Y8665347D01*
X13598806Y8662832D01*
X13588568Y8652596D01*
X13585875Y8644872D01*
X13585695Y8634633D01*
X13588390Y8626911D01*
X13593597Y8616673D01*
X13606528Y8603742D01*
X13616767Y8598535D01*
X13624311Y8596020D01*
X13634727Y8596020D01*
X13642451Y8598712D01*
X13652687Y8608951D01*
X13655202Y8616495D01*
X13655202Y8626911D01*
X13652687Y8634455D01*
X13700462Y8620805D02*
G01*
X13746800Y8667142D01*
X13691842Y8755867D02*
G01*
X13766378Y8722641D01*
X13732972Y8796997D02*
G01*
X13766378Y8722641D01*
X13750033Y8814059D02*
G01*
X13803914Y8760178D01*
X13750033Y8814059D02*
G01*
X13773203Y8837228D01*
X13783439Y8842438D01*
X13788468Y8842438D01*
X13796192Y8839743D01*
X13801222Y8834714D01*
X13803914Y8826992D01*
X13803914Y8821963D01*
X13798887Y8811544D01*
X13775717Y8788377D01*
X13793678Y8806337D02*
G01*
X13839837Y8796098D01*
X13803017Y8867043D02*
G01*
X13856898Y8813162D01*
X13803017Y8867043D02*
G01*
X13836423Y8900449D01*
X13828702Y8841359D02*
G01*
X13849177Y8861833D01*
X13856898Y8813162D02*
G01*
X13890304Y8846568D01*
X13853307Y8917332D02*
G01*
X13907188Y8863451D01*
X13853307Y8917332D02*
G01*
X13886713Y8950739D01*
X13878991Y8891648D02*
G01*
X13899644Y8912303D01*
X13470161Y8784318D02*
G01*
X13498540Y8812695D01*
X13503569Y8776774D01*
X13511291Y8784498D01*
X13519015Y8786832D01*
X13524222Y8787013D01*
X13534461Y8781803D01*
X13539668Y8776596D01*
X13544877Y8766357D01*
X13544697Y8756121D01*
X13539668Y8745702D01*
X13531946Y8737980D01*
X13521529Y8732951D01*
X13516500Y8732951D01*
X13508776Y8735646D01*
X13517935Y8832093D02*
G01*
X13592652Y8798687D01*
X13559246Y8873403D02*
G01*
X13592652Y8798687D01*
X13581336Y8895494D02*
G01*
X13609535Y8923693D01*
X13614565Y8887769D01*
X13622286Y8895494D01*
X13630191Y8898008D01*
X13635220Y8898008D01*
X13645636Y8892979D01*
X13650843Y8887769D01*
X13655873Y8877353D01*
X13655873Y8867294D01*
X13650843Y8856878D01*
X13643122Y8849156D01*
X13632705Y8844127D01*
X13627496Y8843947D01*
X13619772Y8846642D01*
X13482314Y9046491D02*
G01*
X13510511Y9074691D01*
X13515720Y9038589D01*
X13523442Y9046314D01*
X13531166Y9049006D01*
X13536195Y9049006D01*
X13546612Y9043977D01*
X13551822Y9038770D01*
X13556848Y9028353D01*
X13556848Y9018295D01*
X13551822Y9007878D01*
X13544097Y9000154D01*
X13533681Y8995125D01*
X13528652Y8995125D01*
X13520750Y8997640D01*
X13530089Y9094266D02*
G01*
X13604803Y9060860D01*
X13571217Y9135397D02*
G01*
X13604803Y9060860D01*
X13593310Y9157489D02*
G01*
X13621687Y9185866D01*
X13626896Y9149765D01*
X13634618Y9157489D01*
X13642342Y9160182D01*
X13647371Y9160182D01*
X13657607Y9154975D01*
X13662817Y9149765D01*
X13668024Y9139529D01*
X13667846Y9129290D01*
X13662817Y9118874D01*
X13655093Y9111150D01*
X13644676Y9106120D01*
X13639647Y9106120D01*
X13631925Y9108815D01*
X13713284Y9133420D02*
G01*
X13759444Y9179580D01*
X13704486Y9268665D02*
G01*
X13758547Y9214604D01*
X13704486Y9268665D02*
G01*
X13737892Y9302071D01*
X13730168Y9242981D02*
G01*
X13750643Y9263456D01*
X13758547Y9214604D02*
G01*
X13791953Y9248010D01*
X13754953Y9319133D02*
G01*
X13809014Y9265071D01*
X13754953Y9319133D02*
G01*
X13844935Y9300992D01*
X13790874Y9355053D02*
G01*
X13844935Y9300992D01*
X13472571Y9525571D02*
G01*
X13546927Y9492165D01*
X13513701Y9566701D02*
G01*
X13546927Y9492165D01*
X13574227Y9612139D02*
G01*
X13563991Y9611961D01*
X13553752Y9606752D01*
X13543516Y9596516D01*
X13538306Y9586277D01*
X13538126Y9576041D01*
X13543335Y9570831D01*
X13551057Y9568136D01*
X13556267Y9568317D01*
X13563810Y9570831D01*
X13584466Y9581070D01*
X13592187Y9583762D01*
X13597397Y9583582D01*
X13605118Y9581248D01*
X13612842Y9573526D01*
X13612842Y9563107D01*
X13607633Y9552871D01*
X13597397Y9542632D01*
X13587158Y9537425D01*
X13576741Y9537425D01*
X13583566Y9636566D02*
G01*
X13629904Y9631537D01*
X13658103Y9603341D01*
X13624697Y9677697D02*
G01*
X13629904Y9631537D01*
X13685222Y9723137D02*
G01*
X13674986Y9722957D01*
X13664928Y9717928D01*
X13654511Y9707511D01*
X13649302Y9697272D01*
X13649302Y9687217D01*
X13654511Y9682007D01*
X13662233Y9679312D01*
X13667262Y9679312D01*
X13674986Y9682007D01*
X13695639Y9692243D01*
X13703183Y9694758D01*
X13708573Y9694758D01*
X13716114Y9692243D01*
X13723838Y9684522D01*
X13723838Y9674105D01*
X13718809Y9664047D01*
X13708392Y9653630D01*
X13698153Y9648421D01*
X13687917Y9648601D01*
X13482434Y9786581D02*
G01*
X13556970Y9752995D01*
X13523564Y9827712D02*
G01*
X13556970Y9752995D01*
X13540447Y9844592D02*
G01*
X13594509Y9790534D01*
X13540447Y9844592D02*
G01*
X13563615Y9867762D01*
X13573853Y9872972D01*
X13579241Y9872972D01*
X13586785Y9870457D01*
X13591994Y9865248D01*
X13594509Y9857704D01*
X13594509Y9852317D01*
X13589299Y9842080D01*
X13566129Y9818911D02*
G01*
X13589299Y9842080D01*
X13599538Y9847287D01*
X13604925Y9847287D01*
X13612469Y9844773D01*
X13620191Y9837051D01*
X13622886Y9829327D01*
X13622705Y9824118D01*
X13617676Y9813701D01*
X13594509Y9790534D01*
X13593429Y9897577D02*
G01*
X13632045Y9858961D01*
X13642461Y9853932D01*
X13652520Y9853932D01*
X13662936Y9858961D01*
X13668146Y9864171D01*
X13673175Y9874587D01*
X13673355Y9884826D01*
X13668146Y9895062D01*
X13629530Y9933678D01*
X13690236Y9978938D02*
G01*
X13679820Y9978938D01*
X13669584Y9973729D01*
X13659345Y9963492D01*
X13654138Y9953254D01*
X13654138Y9942837D01*
X13659345Y9937630D01*
X13667069Y9935293D01*
X13672098Y9935293D01*
X13680000Y9937808D01*
X13700475Y9948227D01*
X13708199Y9950561D01*
X13713406Y9950739D01*
X13721130Y9948047D01*
X13728852Y9940323D01*
X13728674Y9930086D01*
X13723645Y9919670D01*
X13713406Y9909431D01*
X13702990Y9904402D01*
X13692751Y9904221D01*
X10946429Y9319887D02*
G01*
X10938708Y9322579D01*
X10928469Y9322401D01*
X10920747Y9320065D01*
X10910331Y9309648D01*
X10907994Y9301924D01*
X10907816Y9291688D01*
X10910509Y9283964D01*
X10915538Y9273547D01*
X10928469Y9260616D01*
X10938888Y9255587D01*
X10946429Y9253072D01*
X10956848Y9253072D01*
X10964392Y9255587D01*
X10974809Y9266003D01*
X10977323Y9273547D01*
X10977323Y9283964D01*
X10974809Y9291507D01*
X10967084Y9299232D01*
X10954334Y9286478D02*
G01*
X10967084Y9299232D01*
X10950562Y9349879D02*
G01*
X11004623Y9295818D01*
X10950562Y9349879D02*
G01*
X11040544Y9331739D01*
X10986482Y9385800D02*
G01*
X11040544Y9331739D01*
X11003544Y9402864D02*
G01*
X11057605Y9348802D01*
X11003544Y9402864D02*
G01*
X11021507Y9420824D01*
X11031923Y9425853D01*
X11041981Y9425853D01*
X11049883Y9423339D01*
X11060120Y9418129D01*
X11073051Y9405198D01*
X11078260Y9394962D01*
X11080595Y9387238D01*
X11080775Y9377001D01*
X11075565Y9366763D01*
X11057605Y9348802D01*
X10946429Y8049887D02*
G01*
X10938708Y8052579D01*
X10928469Y8052401D01*
X10920747Y8050065D01*
X10910331Y8039648D01*
X10907994Y8031924D01*
X10907816Y8021688D01*
X10910509Y8013964D01*
X10915538Y8003547D01*
X10928469Y7990616D01*
X10938888Y7985587D01*
X10946429Y7983072D01*
X10956848Y7983072D01*
X10964392Y7985587D01*
X10974809Y7996003D01*
X10977323Y8003547D01*
X10977323Y8013964D01*
X10974809Y8021507D01*
X10967084Y8029232D01*
X10954334Y8016478D02*
G01*
X10967084Y8029232D01*
X10950562Y8079879D02*
G01*
X11004623Y8025818D01*
X10950562Y8079879D02*
G01*
X11040544Y8061739D01*
X10986482Y8115800D02*
G01*
X11040544Y8061739D01*
X11003544Y8132864D02*
G01*
X11057605Y8078802D01*
X11003544Y8132864D02*
G01*
X11021507Y8150824D01*
X11031923Y8155853D01*
X11041981Y8155853D01*
X11049883Y8153339D01*
X11060120Y8148129D01*
X11073051Y8135198D01*
X11078260Y8124962D01*
X11080595Y8117238D01*
X11080775Y8107001D01*
X11075565Y8096763D01*
X11057605Y8078802D01*
X10946450Y6779892D02*
G01*
X10938725Y6782587D01*
X10928487Y6782407D01*
X10920765Y6780072D01*
X10910349Y6769656D01*
X10908012Y6761932D01*
X10907834Y6751695D01*
X10910526Y6743971D01*
X10915556Y6733555D01*
X10928309Y6720804D01*
X10938725Y6715775D01*
X10946450Y6713080D01*
X10956866Y6713080D01*
X10964410Y6715594D01*
X10974826Y6726011D01*
X10977341Y6733555D01*
X10977341Y6743971D01*
X10974646Y6751695D01*
X10966924Y6759417D01*
X10954171Y6746666D02*
G01*
X10966924Y6759417D01*
X10950580Y6809887D02*
G01*
X11004641Y6755825D01*
X10950580Y6809887D02*
G01*
X11040562Y6791746D01*
X10986500Y6845808D02*
G01*
X11040562Y6791746D01*
X11003564Y6862871D02*
G01*
X11057623Y6808810D01*
X11003564Y6862871D02*
G01*
X11021524Y6880832D01*
X11031941Y6885861D01*
X11041999Y6885861D01*
X11049901Y6883346D01*
X11060137Y6878137D01*
X11072891Y6865386D01*
X11078098Y6855147D01*
X11080612Y6847245D01*
X11080793Y6837006D01*
X11075586Y6826770D01*
X11057623Y6808810D01*
X10946450Y5509892D02*
G01*
X10938725Y5512587D01*
X10928487Y5512407D01*
X10920765Y5510072D01*
X10910349Y5499656D01*
X10908012Y5491932D01*
X10907834Y5481695D01*
X10910526Y5473971D01*
X10915556Y5463555D01*
X10928309Y5450804D01*
X10938725Y5445775D01*
X10946450Y5443080D01*
X10956866Y5443080D01*
X10964410Y5445594D01*
X10974826Y5456011D01*
X10977341Y5463555D01*
X10977341Y5473971D01*
X10974646Y5481695D01*
X10966924Y5489417D01*
X10954171Y5476666D02*
G01*
X10966924Y5489417D01*
X10950580Y5539887D02*
G01*
X11004641Y5485825D01*
X10950580Y5539887D02*
G01*
X11040562Y5521746D01*
X10986500Y5575807D02*
G01*
X11040562Y5521746D01*
X11003564Y5592871D02*
G01*
X11057623Y5538810D01*
X11003564Y5592871D02*
G01*
X11021524Y5610832D01*
X11031941Y5615861D01*
X11041999Y5615861D01*
X11049901Y5613346D01*
X11060137Y5608137D01*
X11072891Y5595386D01*
X11078098Y5585147D01*
X11080612Y5577245D01*
X11080793Y5567006D01*
X11075586Y5556770D01*
X11057623Y5538810D01*
X13506493Y5509948D02*
G01*
X13498769Y5512640D01*
X13488532Y5512462D01*
X13480628Y5509948D01*
X13470392Y5499709D01*
X13467877Y5491807D01*
X13467877Y5481749D01*
X13470392Y5473847D01*
X13475601Y5463608D01*
X13488352Y5450857D01*
X13498588Y5445648D01*
X13506493Y5443133D01*
X13516729Y5442955D01*
X13524453Y5445648D01*
X13534689Y5455886D01*
X13537384Y5463608D01*
X13537384Y5474027D01*
X13534689Y5481749D01*
X13526968Y5489473D01*
X13514036Y5476542D02*
G01*
X13526968Y5489473D01*
X13510442Y5539762D02*
G01*
X13564504Y5485701D01*
X13510442Y5539762D02*
G01*
X13600605Y5521802D01*
X13546543Y5575863D02*
G01*
X13600605Y5521802D01*
X13563427Y5592744D02*
G01*
X13617488Y5538683D01*
X13563427Y5592744D02*
G01*
X13581567Y5610885D01*
X13591984Y5615914D01*
X13602042Y5615914D01*
X13609764Y5613219D01*
X13620183Y5608190D01*
X13632934Y5595439D01*
X13637963Y5585023D01*
X13640658Y5577298D01*
X13640836Y5567062D01*
X13635629Y5556824D01*
X13617488Y5538683D01*
X13506493Y6779948D02*
G01*
X13498769Y6782640D01*
X13488532Y6782462D01*
X13480628Y6779948D01*
X13470392Y6769709D01*
X13467877Y6761807D01*
X13467877Y6751749D01*
X13470392Y6743847D01*
X13475601Y6733608D01*
X13488352Y6720857D01*
X13498588Y6715648D01*
X13506493Y6713133D01*
X13516729Y6712955D01*
X13524453Y6715648D01*
X13534689Y6725886D01*
X13537384Y6733608D01*
X13537384Y6744027D01*
X13534689Y6751749D01*
X13526968Y6759473D01*
X13514036Y6746542D02*
G01*
X13526968Y6759473D01*
X13510442Y6809762D02*
G01*
X13564504Y6755701D01*
X13510442Y6809762D02*
G01*
X13600605Y6791802D01*
X13546543Y6845863D02*
G01*
X13600605Y6791802D01*
X13563427Y6862744D02*
G01*
X13617488Y6808683D01*
X13563427Y6862744D02*
G01*
X13581567Y6880885D01*
X13591984Y6885914D01*
X13602042Y6885914D01*
X13609764Y6883219D01*
X13620183Y6878190D01*
X13632934Y6865439D01*
X13637963Y6855023D01*
X13640658Y6847298D01*
X13640836Y6837062D01*
X13635629Y6826824D01*
X13617488Y6808683D01*
X13506475Y9319940D02*
G01*
X13498751Y9322633D01*
X13488515Y9322455D01*
X13480610Y9319940D01*
X13470374Y9309701D01*
X13467859Y9301800D01*
X13467859Y9291741D01*
X13470374Y9283839D01*
X13475581Y9273600D01*
X13488515Y9260669D01*
X13498751Y9255462D01*
X13506475Y9253126D01*
X13516711Y9252948D01*
X13524435Y9255640D01*
X13534671Y9265879D01*
X13537366Y9273600D01*
X13537366Y9284020D01*
X13534852Y9291561D01*
X13527128Y9299285D01*
X13514197Y9286354D02*
G01*
X13527128Y9299285D01*
X13510425Y9349755D02*
G01*
X13564486Y9295693D01*
X13510425Y9349755D02*
G01*
X13600587Y9331794D01*
X13546526Y9385856D02*
G01*
X13600587Y9331794D01*
X13563409Y9402737D02*
G01*
X13617470Y9348675D01*
X13563409Y9402737D02*
G01*
X13581550Y9420877D01*
X13591966Y9425906D01*
X13602025Y9425906D01*
X13609746Y9423212D01*
X13620165Y9418185D01*
X13633096Y9405251D01*
X13638126Y9394835D01*
X13640640Y9387291D01*
X13640818Y9377055D01*
X13635611Y9366816D01*
X13617470Y9348675D01*
X13478370Y8022323D02*
G01*
X13511776Y7947606D01*
X13478370Y8022323D02*
G01*
X13552904Y7988736D01*
X13501537Y7973291D02*
G01*
X13527222Y7998975D01*
X13567272Y8085363D02*
G01*
X13559551Y8088058D01*
X13549312Y8087878D01*
X13541590Y8085543D01*
X13531352Y8075307D01*
X13528837Y8067403D01*
X13528659Y8057167D01*
X13531352Y8049442D01*
X13536561Y8039206D01*
X13549492Y8026275D01*
X13559729Y8021065D01*
X13567272Y8018551D01*
X13577691Y8018551D01*
X13585413Y8021246D01*
X13595652Y8031482D01*
X13598166Y8039026D01*
X13598166Y8049442D01*
X13595652Y8056986D01*
X13587928Y8064710D01*
X13575177Y8051957D02*
G01*
X13587928Y8064710D01*
X13571405Y8115358D02*
G01*
X13625466Y8061297D01*
X13571405Y8115358D02*
G01*
X13661387Y8097217D01*
X13607326Y8151279D02*
G01*
X13661387Y8097217D01*
X13624387Y8168342D02*
G01*
X13678448Y8114281D01*
X13624387Y8168342D02*
G01*
X13642347Y8186303D01*
X13652766Y8191332D01*
X13663002Y8191510D01*
X13670727Y8188817D01*
X13680963Y8183608D01*
X13693894Y8170677D01*
X13699103Y8160438D01*
X13701618Y8152897D01*
X13701618Y8142478D01*
X13696408Y8132241D01*
X13678448Y8114281D01*
X11620804Y4849840D02*
G01*
X11613692Y4857206D01*
X11602770Y4860762D01*
X11588292Y4860762D01*
X11577370Y4857206D01*
X11570004Y4849840D01*
X11570004Y4842474D01*
X11573560Y4835362D01*
X11577370Y4831552D01*
X11584482Y4827996D01*
X11606326Y4820630D01*
X11613692Y4817074D01*
X11617248Y4813518D01*
X11620804Y4806152D01*
X11620804Y4795230D01*
X11613692Y4788118D01*
X11602770Y4784308D01*
X11588292Y4784308D01*
X11577370Y4788118D01*
X11570004Y4795230D01*
X11644934Y4860762D02*
G01*
X11663222Y4784308D01*
X11681256Y4860762D02*
G01*
X11663222Y4784308D01*
X11681256Y4860762D02*
G01*
X11699544Y4784308D01*
X11717578Y4860762D02*
G01*
X11699544Y4784308D01*
X11796318Y4842474D02*
G01*
X11792508Y4849840D01*
X11785396Y4857206D01*
X11778030Y4860762D01*
X11763552Y4860762D01*
X11756186Y4857206D01*
X11748820Y4849840D01*
X11745264Y4842474D01*
X11741708Y4831552D01*
X11741708Y4813518D01*
X11745264Y4802596D01*
X11748820Y4795230D01*
X11756186Y4788118D01*
X11763552Y4784308D01*
X11778030Y4784308D01*
X11785396Y4788118D01*
X11792508Y4795230D01*
X11796318Y4802596D01*
X11820194Y4860762D02*
G01*
X11820194Y4784308D01*
X11820194Y4784308D02*
G01*
X11863882Y4784308D01*
X11887758Y4860762D02*
G01*
X11887758Y4784308D01*
X11938812Y4860762D02*
G01*
X11887758Y4809962D01*
X11906046Y4827996D02*
G01*
X11938812Y4784308D01*
X12750850Y4849840D02*
G01*
X12743738Y4857206D01*
X12732816Y4860762D01*
X12718084Y4860762D01*
X12707162Y4857206D01*
X12700050Y4849840D01*
X12700050Y4842474D01*
X12703606Y4835362D01*
X12707162Y4831552D01*
X12714528Y4827996D01*
X12736372Y4820630D01*
X12743738Y4817074D01*
X12747294Y4813518D01*
X12750850Y4806152D01*
X12750850Y4795230D01*
X12743738Y4788118D01*
X12732816Y4784308D01*
X12718084Y4784308D01*
X12707162Y4788118D01*
X12700050Y4795230D01*
X12774980Y4860762D02*
G01*
X12793014Y4784308D01*
X12811302Y4860762D02*
G01*
X12793014Y4784308D01*
X12811302Y4860762D02*
G01*
X12829590Y4784308D01*
X12847624Y4860762D02*
G01*
X12829590Y4784308D01*
X12871754Y4860762D02*
G01*
X12871754Y4784308D01*
X12871754Y4860762D02*
G01*
X12897154Y4860762D01*
X12908076Y4857206D01*
X12915188Y4849840D01*
X12918998Y4842474D01*
X12922554Y4831552D01*
X12922554Y4813518D01*
X12918998Y4802596D01*
X12915188Y4795230D01*
X12908076Y4788118D01*
X12897154Y4784308D01*
X12871754Y4784308D01*
X12946684Y4860762D02*
G01*
X12946684Y4784308D01*
X12992404Y4860762D02*
G01*
X12985038Y4857206D01*
X12977926Y4849840D01*
X12974116Y4842474D01*
X12970560Y4831552D01*
X12970560Y4813518D01*
X12974116Y4802596D01*
X12977926Y4795230D01*
X12985038Y4788118D01*
X12992404Y4784308D01*
X13006882Y4784308D01*
X13014248Y4788118D01*
X13021614Y4795230D01*
X13025170Y4802596D01*
X13028726Y4813518D01*
X13028726Y4831552D01*
X13025170Y4842474D01*
X13021614Y4849840D01*
X13014248Y4857206D01*
X13006882Y4860762D01*
X12992404Y4860762D01*
D20*
X1326644Y9658621D02*
G01*
X1316230Y9669035D01*
X1300736Y9674115D01*
X1279908Y9674115D01*
X1264414Y9669035D01*
X1254000Y9658621D01*
X1254000Y9648207D01*
X1259080Y9637793D01*
X1264414Y9632459D01*
X1274828Y9627379D01*
X1306070Y9616965D01*
X1316230Y9611885D01*
X1321564Y9606551D01*
X1326644Y9596137D01*
X1326644Y9580643D01*
X1316230Y9570229D01*
X1300736Y9565149D01*
X1279908Y9565149D01*
X1264414Y9570229D01*
X1254000Y9580643D01*
X1360934Y9674115D02*
G01*
X1387096Y9565149D01*
X1413004Y9674115D02*
G01*
X1387096Y9565149D01*
X1413004Y9674115D02*
G01*
X1438912Y9565149D01*
X1464820Y9674115D02*
G01*
X1438912Y9565149D01*
X1499110Y9653287D02*
G01*
X1509524Y9658621D01*
X1525272Y9674115D01*
X1525272Y9565149D01*
X3826644Y9658621D02*
G01*
X3816230Y9669035D01*
X3800736Y9674115D01*
X3779908Y9674115D01*
X3764414Y9669035D01*
X3754000Y9658621D01*
X3754000Y9648207D01*
X3759080Y9637793D01*
X3764414Y9632459D01*
X3774828Y9627379D01*
X3806070Y9616965D01*
X3816230Y9611885D01*
X3821564Y9606551D01*
X3826644Y9596137D01*
X3826644Y9580643D01*
X3816230Y9570229D01*
X3800736Y9565149D01*
X3779908Y9565149D01*
X3764414Y9570229D01*
X3754000Y9580643D01*
X3860934Y9674115D02*
G01*
X3887096Y9565149D01*
X3913004Y9674115D02*
G01*
X3887096Y9565149D01*
X3913004Y9674115D02*
G01*
X3938912Y9565149D01*
X3964820Y9674115D02*
G01*
X3938912Y9565149D01*
X4004444Y9648207D02*
G01*
X4004444Y9653287D01*
X4009524Y9663701D01*
X4014858Y9669035D01*
X4025272Y9674115D01*
X4046100Y9674115D01*
X4056260Y9669035D01*
X4061594Y9663701D01*
X4066674Y9653287D01*
X4066674Y9642873D01*
X4061594Y9632459D01*
X4051180Y9616965D01*
X3999110Y9565149D01*
X4072008Y9565149D01*
X6326644Y9658621D02*
G01*
X6316230Y9669035D01*
X6300736Y9674115D01*
X6279908Y9674115D01*
X6264414Y9669035D01*
X6254000Y9658621D01*
X6254000Y9648207D01*
X6259080Y9637793D01*
X6264414Y9632459D01*
X6274828Y9627379D01*
X6306070Y9616965D01*
X6316230Y9611885D01*
X6321564Y9606551D01*
X6326644Y9596137D01*
X6326644Y9580643D01*
X6316230Y9570229D01*
X6300736Y9565149D01*
X6279908Y9565149D01*
X6264414Y9570229D01*
X6254000Y9580643D01*
X6360934Y9674115D02*
G01*
X6387096Y9565149D01*
X6413004Y9674115D02*
G01*
X6387096Y9565149D01*
X6413004Y9674115D02*
G01*
X6438912Y9565149D01*
X6464820Y9674115D02*
G01*
X6438912Y9565149D01*
X6509524Y9674115D02*
G01*
X6566674Y9674115D01*
X6535686Y9632459D01*
X6551180Y9632459D01*
X6561594Y9627379D01*
X6566674Y9622299D01*
X6572008Y9606551D01*
X6572008Y9596137D01*
X6566674Y9580643D01*
X6556260Y9570229D01*
X6540766Y9565149D01*
X6525272Y9565149D01*
X6509524Y9570229D01*
X6504444Y9575309D01*
X6499110Y9585723D01*
X8826644Y9658621D02*
G01*
X8816230Y9669035D01*
X8800736Y9674115D01*
X8779908Y9674115D01*
X8764414Y9669035D01*
X8754000Y9658621D01*
X8754000Y9648207D01*
X8759080Y9637793D01*
X8764414Y9632459D01*
X8774828Y9627379D01*
X8806070Y9616965D01*
X8816230Y9611885D01*
X8821564Y9606551D01*
X8826644Y9596137D01*
X8826644Y9580643D01*
X8816230Y9570229D01*
X8800736Y9565149D01*
X8779908Y9565149D01*
X8764414Y9570229D01*
X8754000Y9580643D01*
X8860934Y9674115D02*
G01*
X8887096Y9565149D01*
X8913004Y9674115D02*
G01*
X8887096Y9565149D01*
X8913004Y9674115D02*
G01*
X8938912Y9565149D01*
X8964820Y9674115D02*
G01*
X8938912Y9565149D01*
X9051180Y9674115D02*
G01*
X8999110Y9601471D01*
X9077088Y9601471D01*
X9051180Y9674115D02*
G01*
X9051180Y9565149D01*
X1326644Y7158367D02*
G01*
X1316230Y7168781D01*
X1300736Y7174115D01*
X1279908Y7174115D01*
X1264160Y7168781D01*
X1254000Y7158367D01*
X1254000Y7147953D01*
X1259080Y7137539D01*
X1264160Y7132459D01*
X1274574Y7127379D01*
X1305816Y7116965D01*
X1316230Y7111631D01*
X1321310Y7106551D01*
X1326644Y7096137D01*
X1326644Y7080389D01*
X1316230Y7070229D01*
X1300736Y7064895D01*
X1279908Y7064895D01*
X1264160Y7070229D01*
X1254000Y7080389D01*
X1360934Y7174115D02*
G01*
X1386842Y7064895D01*
X1412750Y7174115D02*
G01*
X1386842Y7064895D01*
X1412750Y7174115D02*
G01*
X1438912Y7064895D01*
X1464820Y7174115D02*
G01*
X1438912Y7064895D01*
X1561340Y7174115D02*
G01*
X1509524Y7174115D01*
X1504190Y7127379D01*
X1509524Y7132459D01*
X1525018Y7137539D01*
X1540766Y7137539D01*
X1556260Y7132459D01*
X1566674Y7122045D01*
X1571754Y7106551D01*
X1571754Y7096137D01*
X1566674Y7080389D01*
X1556260Y7070229D01*
X1540766Y7064895D01*
X1525018Y7064895D01*
X1509524Y7070229D01*
X1504190Y7075309D01*
X1499110Y7085723D01*
X3826644Y7158367D02*
G01*
X3816484Y7168781D01*
X3800736Y7174115D01*
X3779908Y7174115D01*
X3764414Y7168781D01*
X3754000Y7158367D01*
X3754000Y7147953D01*
X3759334Y7137539D01*
X3764414Y7132459D01*
X3774828Y7127379D01*
X3806070Y7116965D01*
X3816484Y7111631D01*
X3821564Y7106551D01*
X3826644Y7096137D01*
X3826644Y7080389D01*
X3816484Y7070229D01*
X3800736Y7064895D01*
X3779908Y7064895D01*
X3764414Y7070229D01*
X3754000Y7080389D01*
X3860934Y7174115D02*
G01*
X3887096Y7064895D01*
X3913004Y7174115D02*
G01*
X3887096Y7064895D01*
X3913004Y7174115D02*
G01*
X3938912Y7064895D01*
X3965074Y7174115D02*
G01*
X3938912Y7064895D01*
X4061594Y7158367D02*
G01*
X4056514Y7168781D01*
X4040766Y7174115D01*
X4030352Y7174115D01*
X4014858Y7168781D01*
X4004444Y7153287D01*
X3999364Y7127379D01*
X3999364Y7101217D01*
X4004444Y7080389D01*
X4014858Y7070229D01*
X4030352Y7064895D01*
X4035686Y7064895D01*
X4051180Y7070229D01*
X4061594Y7080389D01*
X4066674Y7096137D01*
X4066674Y7101217D01*
X4061594Y7116965D01*
X4051180Y7127379D01*
X4035686Y7132459D01*
X4030352Y7132459D01*
X4014858Y7127379D01*
X4004444Y7116965D01*
X3999364Y7101217D01*
X6326644Y7158367D02*
G01*
X6316230Y7168781D01*
X6300736Y7174115D01*
X6279908Y7174115D01*
X6264160Y7168781D01*
X6254000Y7158367D01*
X6254000Y7147953D01*
X6259080Y7137539D01*
X6264160Y7132459D01*
X6274574Y7127379D01*
X6305816Y7116965D01*
X6316230Y7111631D01*
X6321310Y7106551D01*
X6326644Y7096137D01*
X6326644Y7080389D01*
X6316230Y7070229D01*
X6300736Y7064895D01*
X6279908Y7064895D01*
X6264160Y7070229D01*
X6254000Y7080389D01*
X6360934Y7174115D02*
G01*
X6386842Y7064895D01*
X6412750Y7174115D02*
G01*
X6386842Y7064895D01*
X6412750Y7174115D02*
G01*
X6438912Y7064895D01*
X6464820Y7174115D02*
G01*
X6438912Y7064895D01*
X6571754Y7174115D02*
G01*
X6519938Y7064895D01*
X6499110Y7174115D02*
G01*
X6571754Y7174115D01*
X8826644Y7158367D02*
G01*
X8816230Y7168781D01*
X8800736Y7174115D01*
X8779908Y7174115D01*
X8764414Y7168781D01*
X8754000Y7158367D01*
X8754000Y7147953D01*
X8759080Y7137539D01*
X8764414Y7132459D01*
X8774828Y7127379D01*
X8806070Y7116965D01*
X8816230Y7111631D01*
X8821564Y7106551D01*
X8826644Y7096137D01*
X8826644Y7080389D01*
X8816230Y7070229D01*
X8800736Y7064895D01*
X8779908Y7064895D01*
X8764414Y7070229D01*
X8754000Y7080389D01*
X8860934Y7174115D02*
G01*
X8887096Y7064895D01*
X8913004Y7174115D02*
G01*
X8887096Y7064895D01*
X8913004Y7174115D02*
G01*
X8938912Y7064895D01*
X8964820Y7174115D02*
G01*
X8938912Y7064895D01*
X9025272Y7174115D02*
G01*
X9009524Y7168781D01*
X9004444Y7158367D01*
X9004444Y7147953D01*
X9009524Y7137539D01*
X9019938Y7132459D01*
X9040766Y7127379D01*
X9056260Y7122045D01*
X9066674Y7111631D01*
X9072008Y7101217D01*
X9072008Y7085723D01*
X9066674Y7075309D01*
X9061594Y7070229D01*
X9046100Y7064895D01*
X9025272Y7064895D01*
X9009524Y7070229D01*
X9004444Y7075309D01*
X8999110Y7085723D01*
X8999110Y7101217D01*
X9004444Y7111631D01*
X9014858Y7122045D01*
X9030352Y7127379D01*
X9051180Y7132459D01*
X9061594Y7137539D01*
X9066674Y7147953D01*
X9066674Y7158367D01*
X9061594Y7168781D01*
X9046100Y7174115D01*
X9025272Y7174115D01*
X1326644Y4658367D02*
G01*
X1316230Y4668781D01*
X1300736Y4674115D01*
X1279908Y4674115D01*
X1264160Y4668781D01*
X1254000Y4658367D01*
X1254000Y4647953D01*
X1259080Y4637539D01*
X1264160Y4632459D01*
X1274574Y4627379D01*
X1305816Y4616965D01*
X1316230Y4611631D01*
X1321310Y4606551D01*
X1326644Y4596137D01*
X1326644Y4580389D01*
X1316230Y4570229D01*
X1300736Y4564895D01*
X1279908Y4564895D01*
X1264160Y4570229D01*
X1254000Y4580389D01*
X1360934Y4674115D02*
G01*
X1386842Y4564895D01*
X1412750Y4674115D02*
G01*
X1386842Y4564895D01*
X1412750Y4674115D02*
G01*
X1438912Y4564895D01*
X1464820Y4674115D02*
G01*
X1438912Y4564895D01*
X1566674Y4637539D02*
G01*
X1561340Y4622045D01*
X1551180Y4611631D01*
X1535432Y4606551D01*
X1530352Y4606551D01*
X1514604Y4611631D01*
X1504190Y4622045D01*
X1499110Y4637539D01*
X1499110Y4642873D01*
X1504190Y4658367D01*
X1514604Y4668781D01*
X1530352Y4674115D01*
X1535432Y4674115D01*
X1551180Y4668781D01*
X1561340Y4658367D01*
X1566674Y4637539D01*
X1566674Y4611631D01*
X1561340Y4585723D01*
X1551180Y4570229D01*
X1535432Y4564895D01*
X1525018Y4564895D01*
X1509524Y4570229D01*
X1504190Y4580389D01*
X3826644Y4658367D02*
G01*
X3816484Y4668781D01*
X3800736Y4674115D01*
X3779908Y4674115D01*
X3764414Y4668781D01*
X3754000Y4658367D01*
X3754000Y4647953D01*
X3759334Y4637539D01*
X3764414Y4632459D01*
X3774828Y4627379D01*
X3806070Y4616965D01*
X3816484Y4611631D01*
X3821564Y4606551D01*
X3826644Y4596137D01*
X3826644Y4580389D01*
X3816484Y4570229D01*
X3800736Y4564895D01*
X3779908Y4564895D01*
X3764414Y4570229D01*
X3754000Y4580389D01*
X3860934Y4674115D02*
G01*
X3887096Y4564895D01*
X3913004Y4674115D02*
G01*
X3887096Y4564895D01*
X3913004Y4674115D02*
G01*
X3938912Y4564895D01*
X3965074Y4674115D02*
G01*
X3938912Y4564895D01*
X3999364Y4653287D02*
G01*
X4009524Y4658367D01*
X4025272Y4674115D01*
X4025272Y4564895D01*
X4090804Y4674115D02*
G01*
X4075056Y4668781D01*
X4064642Y4653287D01*
X4059562Y4627379D01*
X4059562Y4611631D01*
X4064642Y4585723D01*
X4075056Y4570229D01*
X4090804Y4564895D01*
X4100964Y4564895D01*
X4116712Y4570229D01*
X4127126Y4585723D01*
X4132206Y4611631D01*
X4132206Y4627379D01*
X4127126Y4653287D01*
X4116712Y4668781D01*
X4100964Y4674115D01*
X4090804Y4674115D01*
X6326644Y4658367D02*
G01*
X6316230Y4668781D01*
X6300736Y4674115D01*
X6279908Y4674115D01*
X6264160Y4668781D01*
X6254000Y4658367D01*
X6254000Y4647953D01*
X6259080Y4637539D01*
X6264160Y4632459D01*
X6274574Y4627379D01*
X6305816Y4616965D01*
X6316230Y4611631D01*
X6321310Y4606551D01*
X6326644Y4596137D01*
X6326644Y4580389D01*
X6316230Y4570229D01*
X6300736Y4564895D01*
X6279908Y4564895D01*
X6264160Y4570229D01*
X6254000Y4580389D01*
X6360934Y4674115D02*
G01*
X6386842Y4564895D01*
X6412750Y4674115D02*
G01*
X6386842Y4564895D01*
X6412750Y4674115D02*
G01*
X6438912Y4564895D01*
X6464820Y4674115D02*
G01*
X6438912Y4564895D01*
X6499110Y4653287D02*
G01*
X6509524Y4658367D01*
X6525018Y4674115D01*
X6525018Y4564895D01*
X6559308Y4653287D02*
G01*
X6569722Y4658367D01*
X6585470Y4674115D01*
X6585470Y4564895D01*
X8826644Y4658367D02*
G01*
X8816230Y4668781D01*
X8800736Y4674115D01*
X8779908Y4674115D01*
X8764414Y4668781D01*
X8754000Y4658367D01*
X8754000Y4647953D01*
X8759080Y4637539D01*
X8764414Y4632459D01*
X8774828Y4627379D01*
X8806070Y4616965D01*
X8816230Y4611631D01*
X8821564Y4606551D01*
X8826644Y4596137D01*
X8826644Y4580389D01*
X8816230Y4570229D01*
X8800736Y4564895D01*
X8779908Y4564895D01*
X8764414Y4570229D01*
X8754000Y4580389D01*
X8860934Y4674115D02*
G01*
X8887096Y4564895D01*
X8913004Y4674115D02*
G01*
X8887096Y4564895D01*
X8913004Y4674115D02*
G01*
X8938912Y4564895D01*
X8964820Y4674115D02*
G01*
X8938912Y4564895D01*
X8999110Y4653287D02*
G01*
X9009524Y4658367D01*
X9025272Y4674115D01*
X9025272Y4564895D01*
X9064642Y4647953D02*
G01*
X9064642Y4653287D01*
X9069976Y4663701D01*
X9075056Y4668781D01*
X9085470Y4674115D01*
X9106298Y4674115D01*
X9116712Y4668781D01*
X9121792Y4663701D01*
X9127126Y4653287D01*
X9127126Y4642873D01*
X9121792Y4632459D01*
X9111378Y4616965D01*
X9059562Y4564895D01*
X9132206Y4564895D01*
X1326644Y2158621D02*
G01*
X1316230Y2169035D01*
X1300736Y2174115D01*
X1279908Y2174115D01*
X1264414Y2169035D01*
X1254000Y2158621D01*
X1254000Y2148207D01*
X1259080Y2137793D01*
X1264414Y2132459D01*
X1274828Y2127379D01*
X1306070Y2116965D01*
X1316230Y2111885D01*
X1321564Y2106551D01*
X1326644Y2096137D01*
X1326644Y2080643D01*
X1316230Y2070229D01*
X1300736Y2065149D01*
X1279908Y2065149D01*
X1264414Y2070229D01*
X1254000Y2080643D01*
X1360934Y2174115D02*
G01*
X1387096Y2065149D01*
X1413004Y2174115D02*
G01*
X1387096Y2065149D01*
X1413004Y2174115D02*
G01*
X1438912Y2065149D01*
X1464820Y2174115D02*
G01*
X1438912Y2065149D01*
X1499110Y2153287D02*
G01*
X1509524Y2158621D01*
X1525272Y2174115D01*
X1525272Y2065149D01*
X1569976Y2174115D02*
G01*
X1627126Y2174115D01*
X1595884Y2132459D01*
X1611378Y2132459D01*
X1621792Y2127379D01*
X1627126Y2122299D01*
X1632206Y2106551D01*
X1632206Y2096137D01*
X1627126Y2080643D01*
X1616712Y2070229D01*
X1600964Y2065149D01*
X1585470Y2065149D01*
X1569976Y2070229D01*
X1564642Y2075309D01*
X1559562Y2085723D01*
X3826644Y2158621D02*
G01*
X3816230Y2169035D01*
X3800736Y2174115D01*
X3779908Y2174115D01*
X3764160Y2169035D01*
X3754000Y2158621D01*
X3754000Y2148207D01*
X3759080Y2137793D01*
X3764160Y2132459D01*
X3774574Y2127379D01*
X3805816Y2116965D01*
X3816230Y2111885D01*
X3821310Y2106551D01*
X3826644Y2096137D01*
X3826644Y2080643D01*
X3816230Y2070229D01*
X3800736Y2065149D01*
X3779908Y2065149D01*
X3764160Y2070229D01*
X3754000Y2080643D01*
X3860934Y2174115D02*
G01*
X3886842Y2065149D01*
X3912750Y2174115D02*
G01*
X3886842Y2065149D01*
X3912750Y2174115D02*
G01*
X3938912Y2065149D01*
X3964820Y2174115D02*
G01*
X3938912Y2065149D01*
X3999110Y2153287D02*
G01*
X4009524Y2158621D01*
X4025018Y2174115D01*
X4025018Y2065149D01*
X4111378Y2174115D02*
G01*
X4059308Y2101471D01*
X4137286Y2101471D01*
X4111378Y2174115D02*
G01*
X4111378Y2065149D01*
X6326644Y2158621D02*
G01*
X6316484Y2169035D01*
X6300736Y2174115D01*
X6279908Y2174115D01*
X6264414Y2169035D01*
X6254000Y2158621D01*
X6254000Y2148207D01*
X6259334Y2137793D01*
X6264414Y2132459D01*
X6274828Y2127379D01*
X6306070Y2116965D01*
X6316484Y2111885D01*
X6321564Y2106551D01*
X6326644Y2096137D01*
X6326644Y2080643D01*
X6316484Y2070229D01*
X6300736Y2065149D01*
X6279908Y2065149D01*
X6264414Y2070229D01*
X6254000Y2080643D01*
X6360934Y2174115D02*
G01*
X6387096Y2065149D01*
X6413004Y2174115D02*
G01*
X6387096Y2065149D01*
X6413004Y2174115D02*
G01*
X6438912Y2065149D01*
X6465074Y2174115D02*
G01*
X6438912Y2065149D01*
X6499364Y2153287D02*
G01*
X6509524Y2158621D01*
X6525272Y2174115D01*
X6525272Y2065149D01*
X6621792Y2174115D02*
G01*
X6569976Y2174115D01*
X6564642Y2127379D01*
X6569976Y2132459D01*
X6585470Y2137793D01*
X6600964Y2137793D01*
X6616712Y2132459D01*
X6627126Y2122299D01*
X6632206Y2106551D01*
X6632206Y2096137D01*
X6627126Y2080643D01*
X6616712Y2070229D01*
X6600964Y2065149D01*
X6585470Y2065149D01*
X6569976Y2070229D01*
X6564642Y2075309D01*
X6559562Y2085723D01*
X8826644Y2158621D02*
G01*
X8816230Y2169035D01*
X8800736Y2174115D01*
X8779908Y2174115D01*
X8764160Y2169035D01*
X8754000Y2158621D01*
X8754000Y2148207D01*
X8759080Y2137793D01*
X8764160Y2132459D01*
X8774574Y2127379D01*
X8805816Y2116965D01*
X8816230Y2111885D01*
X8821310Y2106551D01*
X8826644Y2096137D01*
X8826644Y2080643D01*
X8816230Y2070229D01*
X8800736Y2065149D01*
X8779908Y2065149D01*
X8764160Y2070229D01*
X8754000Y2080643D01*
X8860934Y2174115D02*
G01*
X8886842Y2065149D01*
X8912750Y2174115D02*
G01*
X8886842Y2065149D01*
X8912750Y2174115D02*
G01*
X8938912Y2065149D01*
X8964820Y2174115D02*
G01*
X8938912Y2065149D01*
X8999110Y2153287D02*
G01*
X9009524Y2158621D01*
X9025018Y2174115D01*
X9025018Y2065149D01*
X9121792Y2158621D02*
G01*
X9116458Y2169035D01*
X9100964Y2174115D01*
X9090550Y2174115D01*
X9075056Y2169035D01*
X9064642Y2153287D01*
X9059308Y2127379D01*
X9059308Y2101471D01*
X9064642Y2080643D01*
X9075056Y2070229D01*
X9090550Y2065149D01*
X9095630Y2065149D01*
X9111378Y2070229D01*
X9121792Y2080643D01*
X9126872Y2096137D01*
X9126872Y2101471D01*
X9121792Y2116965D01*
X9111378Y2127379D01*
X9095630Y2132459D01*
X9090550Y2132459D01*
X9075056Y2127379D01*
X9064642Y2116965D01*
X9059308Y2101471D01*
G36*
X11799976Y1300022D02*
G01*
X11799976Y900023D01*
X13299998Y900023D01*
X13299998Y1300022D01*
G37*
G36*
X11799976Y1799996D02*
G01*
X11799976Y1399997D01*
X13299998Y1399997D01*
X13299998Y1799996D01*
G37*
D19*
X11249990Y9919985D02*
G01*
X11249990Y9949982D01*
X13350011Y9949982D01*
X13350011Y9919985D01*
X12410008Y4849992D02*
G01*
X12450013Y4849992D01*
X12149988Y4849992D02*
G01*
X12189993Y4849992D01*
X13350011Y4849992D02*
G01*
X12670002Y4849992D01*
X13350011Y5889995D02*
G01*
X13350011Y5849990D01*
X13350011Y6659996D02*
G01*
X13350011Y6619991D01*
X13350011Y9199996D02*
G01*
X13350011Y9159991D01*
X13350011Y7670002D02*
G01*
X13350011Y7629997D01*
X13350011Y6150015D02*
G01*
X13350011Y6110010D01*
X13350011Y8180009D02*
G01*
X13350011Y8140004D01*
X13350011Y8689990D02*
G01*
X13350011Y8650010D01*
X13350011Y7419990D02*
G01*
X13350011Y7380010D01*
X13350011Y6910009D02*
G01*
X13350011Y6870004D01*
X13350011Y5389996D02*
G01*
X13350011Y5349991D01*
X13350011Y5130002D02*
G01*
X13350011Y5089997D01*
X13350011Y5640009D02*
G01*
X13350011Y5600004D01*
X13350011Y8940002D02*
G01*
X13350011Y8899997D01*
X13350011Y9710003D02*
G01*
X13350011Y9669998D01*
X13350011Y9450009D02*
G01*
X13350011Y9410004D01*
X13350011Y6400002D02*
G01*
X13350011Y6359997D01*
X13350011Y7170003D02*
G01*
X13350011Y7129998D01*
X13350011Y7929996D02*
G01*
X13350011Y7889991D01*
X13350011Y8440003D02*
G01*
X13350011Y8399998D01*
X11249990Y5130002D02*
G01*
X11249990Y5089997D01*
X11249990Y5389996D02*
G01*
X11249990Y5349991D01*
X11249990Y5640009D02*
G01*
X11249990Y5600004D01*
X11249990Y5889995D02*
G01*
X11249990Y5849990D01*
X11249990Y6150015D02*
G01*
X11249990Y6110010D01*
X11249990Y6400002D02*
G01*
X11249990Y6359997D01*
X11249990Y6659996D02*
G01*
X11249990Y6619991D01*
X11249990Y6910009D02*
G01*
X11249990Y6870004D01*
X11249990Y7170003D02*
G01*
X11249990Y7129998D01*
X11249990Y7419990D02*
G01*
X11249990Y7380010D01*
X11249990Y7670002D02*
G01*
X11249990Y7629997D01*
X11249990Y7929996D02*
G01*
X11249990Y7889991D01*
X11249990Y8180009D02*
G01*
X11249990Y8140004D01*
X11249990Y8440003D02*
G01*
X11249990Y8399998D01*
X11249990Y8689990D02*
G01*
X11249990Y8650010D01*
X11249990Y8940002D02*
G01*
X11249990Y8899997D01*
X11249990Y9199996D02*
G01*
X11249990Y9159991D01*
X11249990Y9450009D02*
G01*
X11249990Y9410004D01*
X11249990Y9710003D02*
G01*
X11249990Y9669998D01*
X11249990Y9683308D02*
G01*
X11550700Y9683308D01*
X11550700Y9949982D01*
X11929999Y4849992D02*
G01*
X11249990Y4849992D01*
D20*
X593600Y7958599D02*
G01*
X2168400Y7958599D01*
X2168400Y9533399D01*
X593600Y9533399D01*
X593600Y7958599D01*
X3093600Y7958599D02*
G01*
X4668400Y7958599D01*
X4668400Y9533399D01*
X3093600Y9533399D01*
X3093600Y7958599D01*
X5593600Y7958599D02*
G01*
X7168400Y7958599D01*
X7168400Y9533399D01*
X5593600Y9533399D01*
X5593600Y7958599D01*
X8093600Y7958599D02*
G01*
X9668400Y7958599D01*
X9668400Y9533399D01*
X8093600Y9533399D01*
X8093600Y7958599D01*
X593600Y5458599D02*
G01*
X2168400Y5458599D01*
X2168400Y7033399D01*
X593600Y7033399D01*
X593600Y5458599D01*
X3093600Y5458599D02*
G01*
X4668400Y5458599D01*
X4668400Y7033399D01*
X3093600Y7033399D01*
X3093600Y5458599D01*
X5593600Y5458599D02*
G01*
X7168400Y5458599D01*
X7168400Y7033399D01*
X5593600Y7033399D01*
X5593600Y5458599D01*
X8093600Y5458599D02*
G01*
X9668400Y5458599D01*
X9668400Y7033399D01*
X8093600Y7033399D01*
X8093600Y5458599D01*
X593600Y2958599D02*
G01*
X2168400Y2958599D01*
X2168400Y4533399D01*
X593600Y4533399D01*
X593600Y2958599D01*
X3093600Y2958599D02*
G01*
X4668400Y2958599D01*
X4668400Y4533399D01*
X3093600Y4533399D01*
X3093600Y2958599D01*
X5593600Y2958599D02*
G01*
X7168400Y2958599D01*
X7168400Y4533399D01*
X5593600Y4533399D01*
X5593600Y2958599D01*
X8093600Y2958599D02*
G01*
X9668400Y2958599D01*
X9668400Y4533399D01*
X8093600Y4533399D01*
X8093600Y2958599D01*
X593600Y458599D02*
G01*
X2168400Y458599D01*
X2168400Y2033399D01*
X593600Y2033399D01*
X593600Y458599D01*
X3093600Y458599D02*
G01*
X4668400Y458599D01*
X4668400Y2033399D01*
X3093600Y2033399D01*
X3093600Y458599D01*
X5593600Y458599D02*
G01*
X7168400Y458599D01*
X7168400Y2033399D01*
X5593600Y2033399D01*
X5593600Y458599D01*
X8093600Y458599D02*
G01*
X9668400Y458599D01*
X9668400Y2033399D01*
X8093600Y2033399D01*
X8093600Y458599D01*
D21*
G75*
G01*
X453901Y9000000D02*
G02*
X377701Y9000000I-38100J0D01*
G75*
G01*
X377701Y9000000D02*
G02*
X453901Y9000000I38100J0D01*
G75*
G01*
X2953901Y9000000D02*
G02*
X2877701Y9000000I-38100J0D01*
G75*
G01*
X2877701Y9000000D02*
G02*
X2953901Y9000000I38100J0D01*
G75*
G01*
X5453901Y9000000D02*
G02*
X5377701Y9000000I-38100J0D01*
G75*
G01*
X5377701Y9000000D02*
G02*
X5453901Y9000000I38100J0D01*
G75*
G01*
X7953901Y9000000D02*
G02*
X7877701Y9000000I-38100J0D01*
G75*
G01*
X7877701Y9000000D02*
G02*
X7953901Y9000000I38100J0D01*
G75*
G01*
X453901Y6500000D02*
G02*
X377701Y6500000I-38100J0D01*
G75*
G01*
X377701Y6500000D02*
G02*
X453901Y6500000I38100J0D01*
G75*
G01*
X2953901Y6500000D02*
G02*
X2877701Y6500000I-38100J0D01*
G75*
G01*
X2877701Y6500000D02*
G02*
X2953901Y6500000I38100J0D01*
G75*
G01*
X5453901Y6500000D02*
G02*
X5377701Y6500000I-38100J0D01*
G75*
G01*
X5377701Y6500000D02*
G02*
X5453901Y6500000I38100J0D01*
G75*
G01*
X7953901Y6500000D02*
G02*
X7877701Y6500000I-38100J0D01*
G75*
G01*
X7877701Y6500000D02*
G02*
X7953901Y6500000I38100J0D01*
G75*
G01*
X453901Y4000000D02*
G02*
X377701Y4000000I-38100J0D01*
G75*
G01*
X377701Y4000000D02*
G02*
X453901Y4000000I38100J0D01*
G75*
G01*
X2953901Y4000000D02*
G02*
X2877701Y4000000I-38100J0D01*
G75*
G01*
X2877701Y4000000D02*
G02*
X2953901Y4000000I38100J0D01*
G75*
G01*
X5453901Y4000000D02*
G02*
X5377701Y4000000I-38100J0D01*
G75*
G01*
X5377701Y4000000D02*
G02*
X5453901Y4000000I38100J0D01*
G75*
G01*
X7953901Y4000000D02*
G02*
X7877701Y4000000I-38100J0D01*
G75*
G01*
X7877701Y4000000D02*
G02*
X7953901Y4000000I38100J0D01*
G75*
G01*
X453901Y1500000D02*
G02*
X377701Y1500000I-38100J0D01*
G75*
G01*
X377701Y1500000D02*
G02*
X453901Y1500000I38100J0D01*
G75*
G01*
X2953901Y1500000D02*
G02*
X2877701Y1500000I-38100J0D01*
G75*
G01*
X2877701Y1500000D02*
G02*
X2953901Y1500000I38100J0D01*
G75*
G01*
X5453901Y1500000D02*
G02*
X5377701Y1500000I-38100J0D01*
G75*
G01*
X5377701Y1500000D02*
G02*
X5453901Y1500000I38100J0D01*
G75*
G01*
X7953901Y1500000D02*
G02*
X7877701Y1500000I-38100J0D01*
G75*
G01*
X7877701Y1500000D02*
G02*
X7953901Y1500000I38100J0D01*
M02*
