G04 Layer: TopSolderMaskLayer*
G04 EasyEDA v6.5.1, 2022-06-14 18:14:27*
G04 a67cddfb3fce44daa9051d46cbbcc19f,10*
G04 Gerber Generator version 0.2*
G04 Scale: 100 percent, Rotated: No, Reflected: No *
G04 Dimensions in millimeters *
G04 leading zeros omitted , absolute positions ,4 integer and 5 decimal *
%FSLAX45Y45*%
%MOMM*%

%ADD26C,1.9032*%
%ADD28C,2.4257*%
%ADD29C,5.2070*%
%ADD30C,2.7305*%

%LPD*%
G36*
X11174984Y9717786D02*
G01*
X11174984Y9908286D01*
X11545315Y9908286D01*
X11545315Y9717786D01*
G37*
G36*
X11174984Y9463786D02*
G01*
X11174984Y9654286D01*
X11545315Y9654286D01*
X11545315Y9463786D01*
G37*
G36*
X11174984Y9209786D02*
G01*
X11174984Y9400286D01*
X11545315Y9400286D01*
X11545315Y9209786D01*
G37*
G36*
X11174984Y8955786D02*
G01*
X11174984Y9146286D01*
X11545315Y9146286D01*
X11545315Y8955786D01*
G37*
G36*
X11174984Y8701786D02*
G01*
X11174984Y8892286D01*
X11545315Y8892286D01*
X11545315Y8701786D01*
G37*
G36*
X11174984Y8447786D02*
G01*
X11174984Y8638286D01*
X11545315Y8638286D01*
X11545315Y8447786D01*
G37*
G36*
X11174984Y8193786D02*
G01*
X11174984Y8384286D01*
X11545315Y8384286D01*
X11545315Y8193786D01*
G37*
G36*
X11174984Y7939786D02*
G01*
X11174984Y8130286D01*
X11545315Y8130286D01*
X11545315Y7939786D01*
G37*
G36*
X11174984Y7685786D02*
G01*
X11174984Y7876286D01*
X11545315Y7876286D01*
X11545315Y7685786D01*
G37*
G36*
X11174984Y7431786D02*
G01*
X11174984Y7622286D01*
X11545315Y7622286D01*
X11545315Y7431786D01*
G37*
G36*
X11174984Y7177786D02*
G01*
X11174984Y7368286D01*
X11545315Y7368286D01*
X11545315Y7177786D01*
G37*
G36*
X11174984Y6923786D02*
G01*
X11174984Y7114286D01*
X11545315Y7114286D01*
X11545315Y6923786D01*
G37*
G36*
X11174984Y6669786D02*
G01*
X11174984Y6860286D01*
X11545315Y6860286D01*
X11545315Y6669786D01*
G37*
G36*
X11174984Y6415786D02*
G01*
X11174984Y6606286D01*
X11545315Y6606286D01*
X11545315Y6415786D01*
G37*
G36*
X11174984Y6161786D02*
G01*
X11174984Y6352286D01*
X11545315Y6352286D01*
X11545315Y6161786D01*
G37*
G36*
X11174984Y5907786D02*
G01*
X11174984Y6098286D01*
X11545315Y6098286D01*
X11545315Y5907786D01*
G37*
G36*
X11174984Y5653786D02*
G01*
X11174984Y5844286D01*
X11545315Y5844286D01*
X11545315Y5653786D01*
G37*
G36*
X11174984Y5399786D02*
G01*
X11174984Y5590286D01*
X11545315Y5590286D01*
X11545315Y5399786D01*
G37*
G36*
X11174984Y5145786D02*
G01*
X11174984Y5336286D01*
X11545315Y5336286D01*
X11545315Y5145786D01*
G37*
G36*
X11174984Y4891786D02*
G01*
X11174984Y5082286D01*
X11545315Y5082286D01*
X11545315Y4891786D01*
G37*
G36*
X13054584Y9717786D02*
G01*
X13054584Y9908286D01*
X13424916Y9908286D01*
X13424916Y9717786D01*
G37*
G36*
X13054584Y9463786D02*
G01*
X13054584Y9654286D01*
X13424916Y9654286D01*
X13424916Y9463786D01*
G37*
G36*
X13054584Y9209786D02*
G01*
X13054584Y9400286D01*
X13424916Y9400286D01*
X13424916Y9209786D01*
G37*
G36*
X13054584Y8955786D02*
G01*
X13054584Y9146286D01*
X13424916Y9146286D01*
X13424916Y8955786D01*
G37*
G36*
X13054584Y8701786D02*
G01*
X13054584Y8892286D01*
X13424916Y8892286D01*
X13424916Y8701786D01*
G37*
G36*
X13054584Y8447786D02*
G01*
X13054584Y8638286D01*
X13424916Y8638286D01*
X13424916Y8447786D01*
G37*
G36*
X13054584Y8193786D02*
G01*
X13054584Y8384286D01*
X13424916Y8384286D01*
X13424916Y8193786D01*
G37*
G36*
X13054584Y7939786D02*
G01*
X13054584Y8130286D01*
X13424916Y8130286D01*
X13424916Y7939786D01*
G37*
G36*
X13054584Y7685786D02*
G01*
X13054584Y7876286D01*
X13424916Y7876286D01*
X13424916Y7685786D01*
G37*
G36*
X13054584Y7431786D02*
G01*
X13054584Y7622286D01*
X13424916Y7622286D01*
X13424916Y7431786D01*
G37*
G36*
X13054584Y7177786D02*
G01*
X13054584Y7368286D01*
X13424916Y7368286D01*
X13424916Y7177786D01*
G37*
G36*
X13054584Y6923786D02*
G01*
X13054584Y7114286D01*
X13424916Y7114286D01*
X13424916Y6923786D01*
G37*
G36*
X13054584Y6669786D02*
G01*
X13054584Y6860286D01*
X13424916Y6860286D01*
X13424916Y6669786D01*
G37*
G36*
X13054584Y6415786D02*
G01*
X13054584Y6606286D01*
X13424916Y6606286D01*
X13424916Y6415786D01*
G37*
G36*
X13054584Y6161786D02*
G01*
X13054584Y6352286D01*
X13424916Y6352286D01*
X13424916Y6161786D01*
G37*
G36*
X13054584Y5907786D02*
G01*
X13054584Y6098286D01*
X13424916Y6098286D01*
X13424916Y5907786D01*
G37*
G36*
X13054584Y5653786D02*
G01*
X13054584Y5844286D01*
X13424916Y5844286D01*
X13424916Y5653786D01*
G37*
G36*
X13054584Y5399786D02*
G01*
X13054584Y5590286D01*
X13424916Y5590286D01*
X13424916Y5399786D01*
G37*
G36*
X13054584Y5145786D02*
G01*
X13054584Y5336286D01*
X13424916Y5336286D01*
X13424916Y5145786D01*
G37*
G36*
X13054584Y4891786D02*
G01*
X13054584Y5082286D01*
X13424916Y5082286D01*
X13424916Y4891786D01*
G37*
G36*
X11950954Y4774184D02*
G01*
X11950954Y5144262D01*
X12141200Y5144262D01*
X12141200Y4774184D01*
G37*
G36*
X12204954Y4774184D02*
G01*
X12204954Y5144262D01*
X12395200Y5144262D01*
X12395200Y4774184D01*
G37*
G36*
X12458954Y4774184D02*
G01*
X12458954Y5144262D01*
X12649200Y5144262D01*
X12649200Y4774184D01*
G37*
D26*
G01*
X11411000Y9813000D03*
G01*
X11411000Y9559000D03*
G36*
X11315954Y9209786D02*
G01*
X11315954Y9400286D01*
X11506200Y9400286D01*
X11506200Y9209786D01*
G37*
G01*
X11411000Y9051000D03*
G01*
X11411000Y8797000D03*
G01*
X11411000Y8543000D03*
G01*
X11411000Y8289000D03*
G36*
X11315954Y7939786D02*
G01*
X11315954Y8130286D01*
X11506200Y8130286D01*
X11506200Y7939786D01*
G37*
G01*
X11411000Y7781000D03*
G01*
X11411000Y7527000D03*
G01*
X11411000Y7273000D03*
G01*
X11411000Y7019000D03*
G36*
X11315954Y6669786D02*
G01*
X11315954Y6860286D01*
X11506200Y6860286D01*
X11506200Y6669786D01*
G37*
G01*
X11411000Y6511000D03*
G01*
X11411000Y6257000D03*
G01*
X11411000Y6003000D03*
G01*
X11411000Y5749000D03*
G36*
X11315954Y5399786D02*
G01*
X11315954Y5590286D01*
X11506200Y5590286D01*
X11506200Y5399786D01*
G37*
G01*
X11411000Y5241000D03*
G01*
X11411000Y4987000D03*
G01*
X13189000Y4987000D03*
G01*
X13189000Y5241000D03*
G36*
X13093954Y5399786D02*
G01*
X13093954Y5590286D01*
X13284200Y5590286D01*
X13284200Y5399786D01*
G37*
G01*
X13189000Y5749000D03*
G01*
X13189000Y6003000D03*
G01*
X13189000Y6257000D03*
G01*
X13189000Y6511000D03*
G36*
X13093954Y6669786D02*
G01*
X13093954Y6860286D01*
X13284200Y6860286D01*
X13284200Y6669786D01*
G37*
G01*
X13189000Y7019000D03*
G01*
X13189000Y7273000D03*
G01*
X13189000Y7527000D03*
G01*
X13189000Y7781000D03*
G36*
X13093954Y7939786D02*
G01*
X13093954Y8130286D01*
X13284200Y8130286D01*
X13284200Y7939786D01*
G37*
G01*
X13189000Y8289000D03*
G01*
X13189000Y8543000D03*
G01*
X13189000Y8797000D03*
G01*
X13189000Y9051000D03*
G36*
X13093954Y9209786D02*
G01*
X13093954Y9400286D01*
X13284200Y9400286D01*
X13284200Y9209786D01*
G37*
G01*
X13189000Y9559000D03*
G01*
X13189000Y9813000D03*
G01*
X12046000Y5010012D03*
G36*
X12204954Y4914900D02*
G01*
X12204954Y5105145D01*
X12395200Y5105145D01*
X12395200Y4914900D01*
G37*
G01*
X12554000Y5010012D03*
D28*
G01*
X1000000Y8999999D03*
G01*
X1635000Y9253999D03*
D29*
G01*
X1381000Y8745999D03*
D30*
G01*
X873000Y8745999D03*
G01*
X1889000Y8745999D03*
D28*
G01*
X3500000Y8999999D03*
G01*
X4135000Y9253999D03*
D29*
G01*
X3881000Y8745999D03*
D30*
G01*
X3373000Y8745999D03*
G01*
X4389000Y8745999D03*
D28*
G01*
X6000000Y8999999D03*
G01*
X6635000Y9253999D03*
D29*
G01*
X6381000Y8745999D03*
D30*
G01*
X5873000Y8745999D03*
G01*
X6889000Y8745999D03*
D28*
G01*
X8500000Y8999999D03*
G01*
X9135000Y9253999D03*
D29*
G01*
X8881000Y8745999D03*
D30*
G01*
X8373000Y8745999D03*
G01*
X9389000Y8745999D03*
D28*
G01*
X1000000Y6499999D03*
G01*
X1635000Y6753999D03*
D29*
G01*
X1381000Y6245999D03*
D30*
G01*
X873000Y6245999D03*
G01*
X1889000Y6245999D03*
D28*
G01*
X3500000Y6499999D03*
G01*
X4135000Y6753999D03*
D29*
G01*
X3881000Y6245999D03*
D30*
G01*
X3373000Y6245999D03*
G01*
X4389000Y6245999D03*
D28*
G01*
X6000000Y6499999D03*
G01*
X6635000Y6753999D03*
D29*
G01*
X6381000Y6245999D03*
D30*
G01*
X5873000Y6245999D03*
G01*
X6889000Y6245999D03*
D28*
G01*
X8500000Y6499999D03*
G01*
X9135000Y6753999D03*
D29*
G01*
X8881000Y6245999D03*
D30*
G01*
X8373000Y6245999D03*
G01*
X9389000Y6245999D03*
D28*
G01*
X1000000Y3999999D03*
G01*
X1635000Y4253999D03*
D29*
G01*
X1381000Y3745999D03*
D30*
G01*
X873000Y3745999D03*
G01*
X1889000Y3745999D03*
D28*
G01*
X3500000Y3999999D03*
G01*
X4135000Y4253999D03*
D29*
G01*
X3881000Y3745999D03*
D30*
G01*
X3373000Y3745999D03*
G01*
X4389000Y3745999D03*
D28*
G01*
X6000000Y3999999D03*
G01*
X6635000Y4253999D03*
D29*
G01*
X6381000Y3745999D03*
D30*
G01*
X5873000Y3745999D03*
G01*
X6889000Y3745999D03*
D28*
G01*
X8500000Y3999999D03*
G01*
X9135000Y4253999D03*
D29*
G01*
X8881000Y3745999D03*
D30*
G01*
X8373000Y3745999D03*
G01*
X9389000Y3745999D03*
D28*
G01*
X1000000Y1499999D03*
G01*
X1635000Y1753999D03*
D29*
G01*
X1381000Y1245999D03*
D30*
G01*
X873000Y1245999D03*
G01*
X1889000Y1245999D03*
D28*
G01*
X3500000Y1499999D03*
G01*
X4135000Y1753999D03*
D29*
G01*
X3881000Y1245999D03*
D30*
G01*
X3373000Y1245999D03*
G01*
X4389000Y1245999D03*
D28*
G01*
X6000000Y1499999D03*
G01*
X6635000Y1753999D03*
D29*
G01*
X6381000Y1245999D03*
D30*
G01*
X5873000Y1245999D03*
G01*
X6889000Y1245999D03*
D28*
G01*
X8500000Y1499999D03*
G01*
X9135000Y1753999D03*
D29*
G01*
X8881000Y1245999D03*
D30*
G01*
X8373000Y1245999D03*
G01*
X9389000Y1245999D03*
M02*
