G04 Layer: BottomLayer*
G04 EasyEDA v6.5.1, 2022-06-14 18:14:27*
G04 a67cddfb3fce44daa9051d46cbbcc19f,10*
G04 Gerber Generator version 0.2*
G04 Scale: 100 percent, Rotated: No, Reflected: No *
G04 Dimensions in millimeters *
G04 leading zeros omitted , absolute positions ,4 integer and 5 decimal *
%FSLAX45Y45*%
%MOMM*%

%ADD11C,0.6096*%
%ADD14C,1.7000*%
%ADD16C,2.3241*%
%ADD17C,5.1054*%
%ADD18C,2.6289*%

%LPD*%
G36*
X101244Y25908D02*
G01*
X88747Y26873D01*
X78486Y29209D01*
X68630Y33020D01*
X59385Y38150D01*
X51003Y44551D01*
X43637Y52120D01*
X37388Y60604D01*
X32410Y69951D01*
X28803Y79857D01*
X26670Y90170D01*
X25908Y101244D01*
X25908Y9898735D01*
X26873Y9911232D01*
X29209Y9921544D01*
X33020Y9931400D01*
X38150Y9940594D01*
X44551Y9948976D01*
X52120Y9956393D01*
X60604Y9962642D01*
X69951Y9967569D01*
X79857Y9971176D01*
X90170Y9973310D01*
X101244Y9974072D01*
X13898778Y9974072D01*
X13911224Y9973106D01*
X13921536Y9970770D01*
X13931392Y9967010D01*
X13940586Y9961829D01*
X13948968Y9955428D01*
X13956385Y9947910D01*
X13962634Y9939375D01*
X13967612Y9930079D01*
X13971168Y9920122D01*
X13973352Y9909810D01*
X13974114Y9898735D01*
X13974114Y101244D01*
X13973098Y88747D01*
X13970762Y78486D01*
X13967002Y68630D01*
X13961821Y59385D01*
X13955420Y51003D01*
X13947901Y43637D01*
X13939367Y37388D01*
X13930071Y32410D01*
X13920165Y28803D01*
X13909801Y26670D01*
X13898778Y25908D01*
G37*

%LPC*%
G36*
X11414556Y9702190D02*
G01*
X11428679Y9703511D01*
X11442547Y9706711D01*
X11455908Y9711588D01*
X11468506Y9718192D01*
X11480139Y9726320D01*
X11490655Y9735870D01*
X11499850Y9746691D01*
X11507622Y9758578D01*
X11513769Y9771380D01*
X11518239Y9784892D01*
X11520982Y9798812D01*
X11521897Y9812985D01*
X11520982Y9827158D01*
X11518239Y9841128D01*
X11513769Y9854590D01*
X11507622Y9867392D01*
X11499850Y9879330D01*
X11490655Y9890150D01*
X11480139Y9899700D01*
X11468506Y9907828D01*
X11455908Y9914382D01*
X11442547Y9919309D01*
X11428679Y9922459D01*
X11414556Y9923830D01*
X11400332Y9923373D01*
X11386312Y9921087D01*
X11372697Y9917074D01*
X11359692Y9911334D01*
X11347551Y9903968D01*
X11336426Y9895078D01*
X11326571Y9884867D01*
X11318087Y9873488D01*
X11311077Y9861092D01*
X11305743Y9847935D01*
X11302136Y9834219D01*
X11300358Y9820097D01*
X11300358Y9805873D01*
X11302136Y9791801D01*
X11305743Y9778034D01*
X11311077Y9764877D01*
X11318087Y9752482D01*
X11326571Y9741103D01*
X11336426Y9730892D01*
X11347551Y9722053D01*
X11359692Y9714687D01*
X11372697Y9708946D01*
X11386312Y9704882D01*
X11400332Y9702647D01*
G37*
G36*
X6380988Y964844D02*
G01*
X6404203Y965809D01*
X6427266Y968654D01*
X6450025Y973429D01*
X6472275Y980084D01*
X6493967Y988517D01*
X6514846Y998728D01*
X6534810Y1010615D01*
X6553708Y1024128D01*
X6571437Y1039114D01*
X6587845Y1055573D01*
X6602882Y1073302D01*
X6616395Y1092200D01*
X6628282Y1112164D01*
X6638493Y1133043D01*
X6646925Y1154684D01*
X6653580Y1176985D01*
X6658356Y1199743D01*
X6661200Y1222756D01*
X6662166Y1246022D01*
X6661200Y1269238D01*
X6658356Y1292301D01*
X6653580Y1315008D01*
X6646925Y1337310D01*
X6638493Y1358950D01*
X6628282Y1379829D01*
X6616395Y1399794D01*
X6602882Y1418691D01*
X6587845Y1436420D01*
X6571437Y1452880D01*
X6553708Y1467866D01*
X6534810Y1481378D01*
X6514846Y1493266D01*
X6493967Y1503476D01*
X6472275Y1511909D01*
X6450025Y1518564D01*
X6427266Y1523339D01*
X6404203Y1526184D01*
X6380988Y1527149D01*
X6357772Y1526184D01*
X6334709Y1523339D01*
X6312001Y1518564D01*
X6289700Y1511909D01*
X6268059Y1503476D01*
X6247180Y1493266D01*
X6227216Y1481378D01*
X6208318Y1467866D01*
X6190589Y1452880D01*
X6174130Y1436420D01*
X6159093Y1418691D01*
X6145631Y1399794D01*
X6133744Y1379829D01*
X6123533Y1358950D01*
X6115050Y1337310D01*
X6108446Y1315008D01*
X6103670Y1292301D01*
X6100775Y1269238D01*
X6099810Y1246022D01*
X6100775Y1222756D01*
X6103670Y1199743D01*
X6108446Y1176985D01*
X6115050Y1154684D01*
X6123533Y1133043D01*
X6133744Y1112164D01*
X6145631Y1092200D01*
X6159093Y1073302D01*
X6174130Y1055573D01*
X6190589Y1039114D01*
X6208318Y1024128D01*
X6227216Y1010615D01*
X6247180Y998728D01*
X6268059Y988517D01*
X6289700Y980084D01*
X6312001Y973429D01*
X6334709Y968654D01*
X6357772Y965809D01*
G37*
G36*
X8881008Y964844D02*
G01*
X8904224Y965809D01*
X8927287Y968654D01*
X8950045Y973429D01*
X8972296Y980084D01*
X8993936Y988517D01*
X9014815Y998728D01*
X9034780Y1010615D01*
X9053677Y1024128D01*
X9071406Y1039114D01*
X9087866Y1055573D01*
X9102902Y1073302D01*
X9116364Y1092200D01*
X9128302Y1112164D01*
X9138513Y1133043D01*
X9146946Y1154684D01*
X9153550Y1176985D01*
X9158325Y1199743D01*
X9161221Y1222756D01*
X9162186Y1246022D01*
X9161221Y1269238D01*
X9158325Y1292301D01*
X9153550Y1315008D01*
X9146946Y1337310D01*
X9138513Y1358950D01*
X9128302Y1379829D01*
X9116364Y1399794D01*
X9102902Y1418691D01*
X9087866Y1436420D01*
X9071406Y1452880D01*
X9053677Y1467866D01*
X9034780Y1481378D01*
X9014815Y1493266D01*
X8993936Y1503476D01*
X8972296Y1511909D01*
X8950045Y1518564D01*
X8927287Y1523339D01*
X8904224Y1526184D01*
X8881008Y1527149D01*
X8857792Y1526184D01*
X8834729Y1523339D01*
X8811971Y1518564D01*
X8789720Y1511909D01*
X8768080Y1503476D01*
X8747201Y1493266D01*
X8727236Y1481378D01*
X8708288Y1467866D01*
X8690559Y1452880D01*
X8674150Y1436420D01*
X8659114Y1418691D01*
X8645601Y1399794D01*
X8633714Y1379829D01*
X8623503Y1358950D01*
X8615070Y1337310D01*
X8608415Y1315008D01*
X8603691Y1292301D01*
X8600795Y1269238D01*
X8599830Y1246022D01*
X8600795Y1222756D01*
X8603691Y1199743D01*
X8608415Y1176985D01*
X8615070Y1154684D01*
X8623503Y1133043D01*
X8633714Y1112164D01*
X8645601Y1092200D01*
X8659114Y1073302D01*
X8674150Y1055573D01*
X8690559Y1039114D01*
X8708288Y1024128D01*
X8727236Y1010615D01*
X8747201Y998728D01*
X8768080Y988517D01*
X8789720Y980084D01*
X8811971Y973429D01*
X8834729Y968654D01*
X8857792Y965809D01*
G37*
G36*
X3881018Y964844D02*
G01*
X3904234Y965809D01*
X3927297Y968654D01*
X3950004Y973429D01*
X3972306Y980084D01*
X3993946Y988517D01*
X4014825Y998728D01*
X4034790Y1010615D01*
X4053687Y1024128D01*
X4071416Y1039114D01*
X4087876Y1055573D01*
X4102862Y1073302D01*
X4116374Y1092200D01*
X4128262Y1112164D01*
X4138472Y1133043D01*
X4146956Y1154684D01*
X4153560Y1176985D01*
X4158335Y1199743D01*
X4161231Y1222756D01*
X4162145Y1246022D01*
X4161231Y1269238D01*
X4158335Y1292301D01*
X4153560Y1315008D01*
X4146956Y1337310D01*
X4138472Y1358950D01*
X4128262Y1379829D01*
X4116374Y1399794D01*
X4102862Y1418691D01*
X4087876Y1436420D01*
X4071416Y1452880D01*
X4053687Y1467866D01*
X4034790Y1481378D01*
X4014825Y1493266D01*
X3993946Y1503476D01*
X3972306Y1511909D01*
X3950004Y1518564D01*
X3927297Y1523339D01*
X3904234Y1526184D01*
X3881018Y1527149D01*
X3857802Y1526184D01*
X3834739Y1523339D01*
X3811981Y1518564D01*
X3789679Y1511909D01*
X3768039Y1503476D01*
X3747160Y1493266D01*
X3727196Y1481378D01*
X3708298Y1467866D01*
X3690569Y1452880D01*
X3674160Y1436420D01*
X3659124Y1418691D01*
X3645611Y1399794D01*
X3633724Y1379829D01*
X3623513Y1358950D01*
X3615080Y1337310D01*
X3608425Y1315008D01*
X3603650Y1292301D01*
X3600805Y1269238D01*
X3599840Y1246022D01*
X3600805Y1222756D01*
X3603650Y1199743D01*
X3608425Y1176985D01*
X3615080Y1154684D01*
X3623513Y1133043D01*
X3633724Y1112164D01*
X3645611Y1092200D01*
X3659124Y1073302D01*
X3674160Y1055573D01*
X3690569Y1039114D01*
X3708298Y1024128D01*
X3727196Y1010615D01*
X3747160Y998728D01*
X3768039Y988517D01*
X3789679Y980084D01*
X3811981Y973429D01*
X3834739Y968654D01*
X3857802Y965809D01*
G37*
G36*
X1880463Y1088898D02*
G01*
X1897532Y1088898D01*
X1914448Y1090726D01*
X1931111Y1094384D01*
X1947214Y1099820D01*
X1962708Y1106982D01*
X1977288Y1115771D01*
X1990852Y1126083D01*
X2003247Y1137818D01*
X2014270Y1150772D01*
X2023821Y1164894D01*
X2031796Y1179931D01*
X2038096Y1195781D01*
X2042668Y1212189D01*
X2045411Y1229004D01*
X2046325Y1246022D01*
X2045411Y1262989D01*
X2042668Y1279804D01*
X2038096Y1296212D01*
X2031796Y1312062D01*
X2023821Y1327099D01*
X2014270Y1341221D01*
X2003247Y1354175D01*
X1990852Y1365910D01*
X1977288Y1376222D01*
X1962708Y1385011D01*
X1947214Y1392174D01*
X1931111Y1397609D01*
X1914448Y1401267D01*
X1897532Y1403096D01*
X1880463Y1403096D01*
X1863547Y1401267D01*
X1846884Y1397609D01*
X1830781Y1392174D01*
X1815287Y1385011D01*
X1800707Y1376222D01*
X1787143Y1365910D01*
X1774748Y1354175D01*
X1763725Y1341221D01*
X1754174Y1327099D01*
X1746199Y1312062D01*
X1739900Y1296212D01*
X1735328Y1279804D01*
X1732584Y1262989D01*
X1731670Y1246022D01*
X1732584Y1229004D01*
X1735328Y1212189D01*
X1739900Y1195781D01*
X1746199Y1179931D01*
X1754174Y1164894D01*
X1763725Y1150772D01*
X1774748Y1137818D01*
X1787143Y1126083D01*
X1800707Y1115771D01*
X1815287Y1106982D01*
X1830781Y1099820D01*
X1846884Y1094384D01*
X1863547Y1090726D01*
G37*
G36*
X4380484Y1088898D02*
G01*
X4397502Y1088898D01*
X4414469Y1090726D01*
X4431080Y1094384D01*
X4447235Y1099820D01*
X4462678Y1106982D01*
X4477308Y1115771D01*
X4490872Y1126083D01*
X4503216Y1137818D01*
X4514240Y1150772D01*
X4523841Y1164894D01*
X4531817Y1179931D01*
X4538116Y1195781D01*
X4542637Y1212189D01*
X4545431Y1229004D01*
X4546346Y1246022D01*
X4545431Y1262989D01*
X4542637Y1279804D01*
X4538116Y1296212D01*
X4531817Y1312062D01*
X4523841Y1327099D01*
X4514240Y1341221D01*
X4503216Y1354175D01*
X4490872Y1365910D01*
X4477308Y1376222D01*
X4462678Y1385011D01*
X4447235Y1392174D01*
X4431080Y1397609D01*
X4414469Y1401267D01*
X4397502Y1403096D01*
X4380484Y1403096D01*
X4363567Y1401267D01*
X4346905Y1397609D01*
X4330750Y1392174D01*
X4315307Y1385011D01*
X4300728Y1376222D01*
X4287164Y1365910D01*
X4274769Y1354175D01*
X4263745Y1341221D01*
X4254195Y1327099D01*
X4246219Y1312062D01*
X4239920Y1296212D01*
X4235348Y1279804D01*
X4232605Y1262989D01*
X4231640Y1246022D01*
X4232605Y1229004D01*
X4235348Y1212189D01*
X4239920Y1195781D01*
X4246219Y1179931D01*
X4254195Y1164894D01*
X4263745Y1150772D01*
X4274769Y1137818D01*
X4287164Y1126083D01*
X4300728Y1115771D01*
X4315307Y1106982D01*
X4330750Y1099820D01*
X4346905Y1094384D01*
X4363567Y1090726D01*
G37*
G36*
X6880504Y1088898D02*
G01*
X6897522Y1088898D01*
X6914438Y1090726D01*
X6931101Y1094384D01*
X6947255Y1099820D01*
X6962698Y1106982D01*
X6977278Y1115771D01*
X6990842Y1126083D01*
X7003237Y1137818D01*
X7014260Y1150772D01*
X7023811Y1164894D01*
X7031786Y1179931D01*
X7038086Y1195781D01*
X7042658Y1212189D01*
X7045401Y1229004D01*
X7046315Y1246022D01*
X7045401Y1262989D01*
X7042658Y1279804D01*
X7038086Y1296212D01*
X7031786Y1312062D01*
X7023811Y1327099D01*
X7014260Y1341221D01*
X7003237Y1354175D01*
X6990842Y1365910D01*
X6977278Y1376222D01*
X6962698Y1385011D01*
X6947255Y1392174D01*
X6931101Y1397609D01*
X6914438Y1401267D01*
X6897522Y1403096D01*
X6880504Y1403096D01*
X6863537Y1401267D01*
X6846925Y1397609D01*
X6830771Y1392174D01*
X6815277Y1385011D01*
X6800697Y1376222D01*
X6787134Y1365910D01*
X6774789Y1354175D01*
X6763766Y1341221D01*
X6754164Y1327099D01*
X6746189Y1312062D01*
X6739890Y1296212D01*
X6735318Y1279804D01*
X6732574Y1262989D01*
X6731660Y1246022D01*
X6732574Y1229004D01*
X6735318Y1212189D01*
X6739890Y1195781D01*
X6746189Y1179931D01*
X6754164Y1164894D01*
X6763766Y1150772D01*
X6774789Y1137818D01*
X6787134Y1126083D01*
X6800697Y1115771D01*
X6815277Y1106982D01*
X6830771Y1099820D01*
X6846925Y1094384D01*
X6863537Y1090726D01*
G37*
G36*
X9380474Y1088898D02*
G01*
X9397542Y1088898D01*
X9414459Y1090726D01*
X9431070Y1094384D01*
X9447225Y1099820D01*
X9462719Y1106982D01*
X9477298Y1115771D01*
X9490862Y1126083D01*
X9503206Y1137818D01*
X9514281Y1150772D01*
X9523831Y1164894D01*
X9531807Y1179931D01*
X9538106Y1195781D01*
X9542678Y1212189D01*
X9545421Y1229004D01*
X9546336Y1246022D01*
X9545421Y1262989D01*
X9542678Y1279804D01*
X9538106Y1296212D01*
X9531807Y1312062D01*
X9523831Y1327099D01*
X9514281Y1341221D01*
X9503206Y1354175D01*
X9490862Y1365910D01*
X9477298Y1376222D01*
X9462719Y1385011D01*
X9447225Y1392174D01*
X9431070Y1397609D01*
X9414459Y1401267D01*
X9397542Y1403096D01*
X9380474Y1403096D01*
X9363557Y1401267D01*
X9346895Y1397609D01*
X9330740Y1392174D01*
X9315297Y1385011D01*
X9300718Y1376222D01*
X9287154Y1365910D01*
X9274759Y1354175D01*
X9263735Y1341221D01*
X9254185Y1327099D01*
X9246209Y1312062D01*
X9239910Y1296212D01*
X9235338Y1279804D01*
X9232595Y1262989D01*
X9231680Y1246022D01*
X9232595Y1229004D01*
X9235338Y1212189D01*
X9239910Y1195781D01*
X9246209Y1179931D01*
X9254185Y1164894D01*
X9263735Y1150772D01*
X9274759Y1137818D01*
X9287154Y1126083D01*
X9300718Y1115771D01*
X9315297Y1106982D01*
X9330740Y1099820D01*
X9346895Y1094384D01*
X9363557Y1090726D01*
G37*
G36*
X8364474Y1088898D02*
G01*
X8381542Y1088898D01*
X8398459Y1090726D01*
X8415070Y1094384D01*
X8431225Y1099820D01*
X8446719Y1106982D01*
X8461298Y1115771D01*
X8474862Y1126083D01*
X8487206Y1137818D01*
X8498281Y1150772D01*
X8507831Y1164894D01*
X8515807Y1179931D01*
X8522106Y1195781D01*
X8526678Y1212189D01*
X8529421Y1229004D01*
X8530336Y1246022D01*
X8529421Y1262989D01*
X8526678Y1279804D01*
X8522106Y1296212D01*
X8515807Y1312062D01*
X8507831Y1327099D01*
X8498027Y1341475D01*
X8496147Y1344777D01*
X8495588Y1348536D01*
X8496503Y1352194D01*
X8498636Y1355344D01*
X8501786Y1357426D01*
X8505444Y1358239D01*
X8512149Y1358442D01*
X8528202Y1360728D01*
X8543899Y1364843D01*
X8559038Y1370736D01*
X8573363Y1378305D01*
X8586774Y1387449D01*
X8599017Y1398117D01*
X8609990Y1410055D01*
X8619540Y1423162D01*
X8627516Y1437284D01*
X8633815Y1452270D01*
X8638387Y1467815D01*
X8641181Y1483817D01*
X8642096Y1500022D01*
X8641181Y1516176D01*
X8638387Y1532178D01*
X8633815Y1547774D01*
X8627516Y1562709D01*
X8619540Y1576832D01*
X8609990Y1589938D01*
X8599017Y1601876D01*
X8586774Y1612544D01*
X8573363Y1621688D01*
X8559038Y1629257D01*
X8543899Y1635150D01*
X8528202Y1639265D01*
X8512149Y1641551D01*
X8495944Y1642059D01*
X8479790Y1640636D01*
X8463889Y1637436D01*
X8448446Y1632407D01*
X8433714Y1625650D01*
X8419795Y1617319D01*
X8406942Y1607413D01*
X8395309Y1596085D01*
X8385048Y1583537D01*
X8376259Y1569872D01*
X8369096Y1555292D01*
X8363661Y1540052D01*
X8360003Y1524254D01*
X8358124Y1508099D01*
X8358124Y1491894D01*
X8360003Y1475790D01*
X8363661Y1459941D01*
X8369096Y1444701D01*
X8376259Y1430121D01*
X8383574Y1418742D01*
X8385098Y1414729D01*
X8384794Y1410411D01*
X8382711Y1406601D01*
X8379256Y1404010D01*
X8375040Y1403096D01*
X8364474Y1403096D01*
X8347557Y1401267D01*
X8330895Y1397609D01*
X8314740Y1392174D01*
X8299297Y1385011D01*
X8284718Y1376222D01*
X8271154Y1365910D01*
X8258759Y1354175D01*
X8247735Y1341221D01*
X8238185Y1327099D01*
X8230209Y1312062D01*
X8223910Y1296212D01*
X8219338Y1279804D01*
X8216595Y1262989D01*
X8215680Y1246022D01*
X8216595Y1229004D01*
X8219338Y1212189D01*
X8223910Y1195781D01*
X8230209Y1179931D01*
X8238185Y1164894D01*
X8247735Y1150772D01*
X8258759Y1137818D01*
X8271154Y1126083D01*
X8284718Y1115771D01*
X8299297Y1106982D01*
X8314740Y1099820D01*
X8330895Y1094384D01*
X8347557Y1090726D01*
G37*
G36*
X5864504Y1088898D02*
G01*
X5881522Y1088898D01*
X5898438Y1090726D01*
X5915101Y1094384D01*
X5931255Y1099820D01*
X5946698Y1106982D01*
X5961278Y1115771D01*
X5974842Y1126083D01*
X5987237Y1137818D01*
X5998260Y1150772D01*
X6007811Y1164894D01*
X6015786Y1179931D01*
X6022086Y1195781D01*
X6026658Y1212189D01*
X6029401Y1229004D01*
X6030315Y1246022D01*
X6029401Y1262989D01*
X6026658Y1279804D01*
X6022086Y1296212D01*
X6015786Y1312062D01*
X6007811Y1327099D01*
X5998006Y1341475D01*
X5996127Y1344777D01*
X5995619Y1348536D01*
X5996482Y1352194D01*
X5998616Y1355344D01*
X6001766Y1357426D01*
X6005474Y1358239D01*
X6012180Y1358442D01*
X6028232Y1360728D01*
X6043930Y1364843D01*
X6059017Y1370736D01*
X6073394Y1378305D01*
X6086754Y1387449D01*
X6099048Y1398117D01*
X6110020Y1410055D01*
X6119520Y1423162D01*
X6127496Y1437284D01*
X6133846Y1452270D01*
X6138418Y1467815D01*
X6141161Y1483817D01*
X6142075Y1500022D01*
X6141161Y1516176D01*
X6138418Y1532178D01*
X6133846Y1547774D01*
X6127496Y1562709D01*
X6119520Y1576832D01*
X6110020Y1589938D01*
X6099048Y1601876D01*
X6086754Y1612544D01*
X6073394Y1621688D01*
X6059017Y1629257D01*
X6043930Y1635150D01*
X6028232Y1639265D01*
X6012180Y1641551D01*
X5995924Y1642059D01*
X5979769Y1640636D01*
X5963869Y1637436D01*
X5948426Y1632407D01*
X5933694Y1625650D01*
X5919774Y1617319D01*
X5906922Y1607413D01*
X5895289Y1596085D01*
X5885027Y1583537D01*
X5876290Y1569872D01*
X5869127Y1555292D01*
X5863640Y1540052D01*
X5859983Y1524254D01*
X5858154Y1508099D01*
X5858154Y1491894D01*
X5859983Y1475790D01*
X5863640Y1459941D01*
X5869127Y1444701D01*
X5876290Y1430121D01*
X5883554Y1418742D01*
X5885078Y1414729D01*
X5884773Y1410411D01*
X5882690Y1406601D01*
X5879236Y1404010D01*
X5875020Y1403096D01*
X5864504Y1403096D01*
X5847537Y1401267D01*
X5830925Y1397609D01*
X5814771Y1392174D01*
X5799277Y1385011D01*
X5784697Y1376222D01*
X5771134Y1365910D01*
X5758789Y1354175D01*
X5747766Y1341221D01*
X5738164Y1327099D01*
X5730189Y1312062D01*
X5723890Y1296212D01*
X5719318Y1279804D01*
X5716574Y1262989D01*
X5715660Y1246022D01*
X5716574Y1229004D01*
X5719318Y1212189D01*
X5723890Y1195781D01*
X5730189Y1179931D01*
X5738164Y1164894D01*
X5747766Y1150772D01*
X5758789Y1137818D01*
X5771134Y1126083D01*
X5784697Y1115771D01*
X5799277Y1106982D01*
X5814771Y1099820D01*
X5830925Y1094384D01*
X5847537Y1090726D01*
G37*
G36*
X3364484Y1088898D02*
G01*
X3381501Y1088898D01*
X3398469Y1090726D01*
X3415080Y1094384D01*
X3431235Y1099820D01*
X3446678Y1106982D01*
X3461308Y1115771D01*
X3474872Y1126083D01*
X3487216Y1137818D01*
X3498240Y1150772D01*
X3507841Y1164894D01*
X3515817Y1179931D01*
X3522116Y1195781D01*
X3526637Y1212189D01*
X3529431Y1229004D01*
X3530346Y1246022D01*
X3529431Y1262989D01*
X3526637Y1279804D01*
X3522116Y1296212D01*
X3515817Y1312062D01*
X3507841Y1327099D01*
X3498037Y1341475D01*
X3496157Y1344777D01*
X3495598Y1348536D01*
X3496462Y1352194D01*
X3498646Y1355344D01*
X3501796Y1357426D01*
X3505454Y1358239D01*
X3512159Y1358442D01*
X3528212Y1360728D01*
X3543909Y1364843D01*
X3559048Y1370736D01*
X3573373Y1378305D01*
X3586784Y1387449D01*
X3599027Y1398117D01*
X3610000Y1410055D01*
X3619550Y1423162D01*
X3627526Y1437284D01*
X3633825Y1452270D01*
X3638397Y1467815D01*
X3641191Y1483817D01*
X3642106Y1500022D01*
X3641191Y1516176D01*
X3638397Y1532178D01*
X3633825Y1547774D01*
X3627526Y1562709D01*
X3619550Y1576832D01*
X3610000Y1589938D01*
X3599027Y1601876D01*
X3586784Y1612544D01*
X3573373Y1621688D01*
X3559048Y1629257D01*
X3543909Y1635150D01*
X3528212Y1639265D01*
X3512159Y1641551D01*
X3495954Y1642059D01*
X3479800Y1640636D01*
X3463899Y1637436D01*
X3448456Y1632407D01*
X3433673Y1625650D01*
X3419805Y1617319D01*
X3406952Y1607413D01*
X3395319Y1596085D01*
X3385058Y1583537D01*
X3376269Y1569872D01*
X3369106Y1555292D01*
X3363671Y1540052D01*
X3359962Y1524254D01*
X3358134Y1508099D01*
X3358134Y1491894D01*
X3359962Y1475790D01*
X3363671Y1459941D01*
X3369106Y1444701D01*
X3376269Y1430121D01*
X3383584Y1418742D01*
X3385108Y1414729D01*
X3384753Y1410411D01*
X3382721Y1406601D01*
X3379266Y1404010D01*
X3375050Y1403096D01*
X3364484Y1403096D01*
X3347567Y1401267D01*
X3330905Y1397609D01*
X3314750Y1392174D01*
X3299307Y1385011D01*
X3284728Y1376222D01*
X3271164Y1365910D01*
X3258769Y1354175D01*
X3247745Y1341221D01*
X3238195Y1327099D01*
X3230219Y1312062D01*
X3223920Y1296212D01*
X3219348Y1279804D01*
X3216605Y1262989D01*
X3215640Y1246022D01*
X3216605Y1229004D01*
X3219348Y1212189D01*
X3223920Y1195781D01*
X3230219Y1179931D01*
X3238195Y1164894D01*
X3247745Y1150772D01*
X3258769Y1137818D01*
X3271164Y1126083D01*
X3284728Y1115771D01*
X3299307Y1106982D01*
X3314750Y1099820D01*
X3330905Y1094384D01*
X3347567Y1090726D01*
G37*
G36*
X864463Y1088898D02*
G01*
X881532Y1088898D01*
X898448Y1090726D01*
X915111Y1094384D01*
X931214Y1099820D01*
X946708Y1106982D01*
X961288Y1115771D01*
X974852Y1126083D01*
X987247Y1137818D01*
X998270Y1150772D01*
X1007821Y1164894D01*
X1015796Y1179931D01*
X1022096Y1195781D01*
X1026668Y1212189D01*
X1029411Y1229004D01*
X1030325Y1246022D01*
X1029411Y1262989D01*
X1026668Y1279804D01*
X1022096Y1296212D01*
X1015796Y1312062D01*
X1007821Y1327099D01*
X998016Y1341475D01*
X996137Y1344777D01*
X995629Y1348536D01*
X996492Y1352194D01*
X998626Y1355344D01*
X1001776Y1357426D01*
X1005484Y1358239D01*
X1012139Y1358442D01*
X1028242Y1360728D01*
X1043889Y1364843D01*
X1059027Y1370736D01*
X1073404Y1378305D01*
X1086764Y1387449D01*
X1099058Y1398117D01*
X1109980Y1410055D01*
X1119530Y1423162D01*
X1127506Y1437284D01*
X1133856Y1452270D01*
X1138428Y1467815D01*
X1141171Y1483817D01*
X1142085Y1500022D01*
X1141171Y1516176D01*
X1138428Y1532178D01*
X1133856Y1547774D01*
X1127506Y1562709D01*
X1119530Y1576832D01*
X1109980Y1589938D01*
X1099058Y1601876D01*
X1086764Y1612544D01*
X1073404Y1621688D01*
X1059027Y1629257D01*
X1043889Y1635150D01*
X1028242Y1639265D01*
X1012139Y1641551D01*
X995934Y1642059D01*
X979779Y1640636D01*
X963879Y1637436D01*
X948436Y1632407D01*
X933703Y1625650D01*
X919784Y1617319D01*
X906932Y1607413D01*
X895299Y1596085D01*
X885037Y1583537D01*
X876249Y1569872D01*
X869137Y1555292D01*
X863650Y1540052D01*
X859993Y1524254D01*
X858113Y1508099D01*
X858113Y1491894D01*
X859993Y1475790D01*
X863650Y1459941D01*
X869137Y1444701D01*
X876249Y1430121D01*
X883564Y1418742D01*
X885088Y1414729D01*
X884783Y1410411D01*
X882700Y1406601D01*
X879246Y1404010D01*
X875030Y1403096D01*
X864463Y1403096D01*
X847547Y1401267D01*
X830884Y1397609D01*
X814781Y1392174D01*
X799287Y1385011D01*
X784707Y1376222D01*
X771144Y1365910D01*
X758748Y1354175D01*
X747725Y1341221D01*
X738174Y1327099D01*
X730199Y1312062D01*
X723900Y1296212D01*
X719328Y1279804D01*
X716584Y1262989D01*
X715670Y1246022D01*
X716584Y1229004D01*
X719328Y1212189D01*
X723900Y1195781D01*
X730199Y1179931D01*
X738174Y1164894D01*
X747725Y1150772D01*
X758748Y1137818D01*
X771144Y1126083D01*
X784707Y1115771D01*
X799287Y1106982D01*
X814781Y1099820D01*
X830884Y1094384D01*
X847547Y1090726D01*
G37*
G36*
X1570532Y1627479D02*
G01*
X1570532Y1689557D01*
X1508607Y1689557D01*
X1511249Y1684121D01*
X1520037Y1670456D01*
X1530299Y1657908D01*
X1541932Y1646631D01*
X1554784Y1636725D01*
X1568704Y1628343D01*
G37*
G36*
X4070553Y1627479D02*
G01*
X4070553Y1689557D01*
X4008628Y1689557D01*
X4011269Y1684121D01*
X4020058Y1670456D01*
X4030319Y1657908D01*
X4041952Y1646631D01*
X4054805Y1636725D01*
X4068673Y1628343D01*
G37*
G36*
X9070543Y1627479D02*
G01*
X9070543Y1689557D01*
X9008618Y1689557D01*
X9011259Y1684121D01*
X9020048Y1670456D01*
X9030309Y1657908D01*
X9041942Y1646631D01*
X9054795Y1636725D01*
X9068714Y1628343D01*
G37*
G36*
X6570573Y1627479D02*
G01*
X6570573Y1689557D01*
X6508597Y1689557D01*
X6511290Y1684121D01*
X6520027Y1670456D01*
X6530289Y1657908D01*
X6541922Y1646631D01*
X6554774Y1636725D01*
X6568694Y1628343D01*
G37*
G36*
X1699463Y1627581D02*
G01*
X1708404Y1632305D01*
X1721764Y1641449D01*
X1734057Y1652117D01*
X1744980Y1664055D01*
X1754530Y1677162D01*
X1761540Y1689557D01*
X1699463Y1689557D01*
G37*
G36*
X4199432Y1627581D02*
G01*
X4208373Y1632305D01*
X4221784Y1641449D01*
X4234027Y1652117D01*
X4245000Y1664055D01*
X4254550Y1677162D01*
X4261510Y1689557D01*
X4199432Y1689557D01*
G37*
G36*
X6699453Y1627581D02*
G01*
X6708394Y1632305D01*
X6721754Y1641449D01*
X6734048Y1652117D01*
X6745020Y1664055D01*
X6754520Y1677162D01*
X6761530Y1689557D01*
X6699453Y1689557D01*
G37*
G36*
X9199473Y1627581D02*
G01*
X9208363Y1632305D01*
X9221774Y1641449D01*
X9234017Y1652117D01*
X9244990Y1664055D01*
X9254540Y1677162D01*
X9261551Y1689557D01*
X9199473Y1689557D01*
G37*
G36*
X1699463Y1818436D02*
G01*
X1761540Y1818436D01*
X1754530Y1830832D01*
X1744980Y1843938D01*
X1734057Y1855876D01*
X1721764Y1866544D01*
X1708404Y1875688D01*
X1699463Y1880412D01*
G37*
G36*
X4199432Y1818436D02*
G01*
X4261510Y1818436D01*
X4254550Y1830832D01*
X4245000Y1843938D01*
X4234027Y1855876D01*
X4221784Y1866544D01*
X4208373Y1875688D01*
X4199432Y1880412D01*
G37*
G36*
X6699453Y1818436D02*
G01*
X6761530Y1818436D01*
X6754520Y1830832D01*
X6745020Y1843938D01*
X6734048Y1855876D01*
X6721754Y1866544D01*
X6708394Y1875688D01*
X6699453Y1880412D01*
G37*
G36*
X9199473Y1818436D02*
G01*
X9261551Y1818436D01*
X9254540Y1830832D01*
X9244990Y1843938D01*
X9234017Y1855876D01*
X9221774Y1866544D01*
X9208363Y1875688D01*
X9199473Y1880412D01*
G37*
G36*
X1508607Y1818436D02*
G01*
X1570532Y1818436D01*
X1570532Y1880514D01*
X1568704Y1879650D01*
X1554784Y1871319D01*
X1541932Y1861413D01*
X1530299Y1850085D01*
X1520037Y1837537D01*
X1511249Y1823872D01*
G37*
G36*
X6508597Y1818436D02*
G01*
X6570573Y1818436D01*
X6570573Y1880514D01*
X6568694Y1879650D01*
X6554774Y1871319D01*
X6541922Y1861413D01*
X6530289Y1850085D01*
X6520027Y1837537D01*
X6511290Y1823872D01*
G37*
G36*
X4008628Y1818436D02*
G01*
X4070553Y1818436D01*
X4070553Y1880514D01*
X4068673Y1879650D01*
X4054805Y1871319D01*
X4041952Y1861413D01*
X4030319Y1850085D01*
X4020058Y1837537D01*
X4011269Y1823872D01*
G37*
G36*
X9008618Y1818436D02*
G01*
X9070543Y1818436D01*
X9070543Y1880514D01*
X9068714Y1879650D01*
X9054795Y1871319D01*
X9041942Y1861413D01*
X9030309Y1850085D01*
X9020048Y1837537D01*
X9011259Y1823872D01*
G37*
G36*
X1380998Y3464814D02*
G01*
X1404213Y3465779D01*
X1427276Y3468674D01*
X1450035Y3473450D01*
X1472285Y3480054D01*
X1493926Y3488486D01*
X1514805Y3498697D01*
X1534769Y3510635D01*
X1553718Y3524097D01*
X1571447Y3539134D01*
X1587855Y3555593D01*
X1602892Y3573322D01*
X1616405Y3592220D01*
X1628292Y3612184D01*
X1638503Y3633063D01*
X1646936Y3654704D01*
X1653590Y3676954D01*
X1658315Y3699713D01*
X1661210Y3722776D01*
X1662175Y3745992D01*
X1661210Y3769207D01*
X1658315Y3792270D01*
X1653590Y3815029D01*
X1646936Y3837279D01*
X1638503Y3858920D01*
X1628292Y3879799D01*
X1616405Y3899763D01*
X1602892Y3918712D01*
X1587855Y3936441D01*
X1571447Y3952849D01*
X1553718Y3967886D01*
X1534769Y3981399D01*
X1514805Y3993286D01*
X1493926Y4003497D01*
X1472285Y4011929D01*
X1450035Y4018584D01*
X1427276Y4023309D01*
X1404213Y4026204D01*
X1380998Y4027170D01*
X1357782Y4026204D01*
X1334719Y4023309D01*
X1311960Y4018584D01*
X1289710Y4011929D01*
X1268069Y4003497D01*
X1247190Y3993286D01*
X1227226Y3981399D01*
X1208278Y3967886D01*
X1190548Y3952849D01*
X1174140Y3936441D01*
X1159103Y3918712D01*
X1145590Y3899763D01*
X1133703Y3879799D01*
X1123492Y3858920D01*
X1115060Y3837279D01*
X1108456Y3815029D01*
X1103680Y3792270D01*
X1100785Y3769207D01*
X1099820Y3745992D01*
X1100785Y3722776D01*
X1103680Y3699713D01*
X1108456Y3676954D01*
X1115060Y3654704D01*
X1123492Y3633063D01*
X1133703Y3612184D01*
X1145590Y3592220D01*
X1159103Y3573322D01*
X1174140Y3555593D01*
X1190548Y3539134D01*
X1208278Y3524097D01*
X1227226Y3510635D01*
X1247190Y3498697D01*
X1268069Y3488486D01*
X1289710Y3480054D01*
X1311960Y3473450D01*
X1334719Y3468674D01*
X1357782Y3465779D01*
G37*
G36*
X3881018Y3464814D02*
G01*
X3904234Y3465779D01*
X3927297Y3468674D01*
X3950004Y3473450D01*
X3972306Y3480054D01*
X3993946Y3488486D01*
X4014825Y3498697D01*
X4034790Y3510635D01*
X4053687Y3524097D01*
X4071416Y3539134D01*
X4087876Y3555593D01*
X4102862Y3573322D01*
X4116374Y3592220D01*
X4128262Y3612184D01*
X4138472Y3633063D01*
X4146956Y3654704D01*
X4153560Y3676954D01*
X4158335Y3699713D01*
X4161231Y3722776D01*
X4162145Y3745992D01*
X4161231Y3769207D01*
X4158335Y3792270D01*
X4153560Y3815029D01*
X4146956Y3837279D01*
X4138472Y3858920D01*
X4128262Y3879799D01*
X4116374Y3899763D01*
X4102862Y3918712D01*
X4087876Y3936441D01*
X4071416Y3952849D01*
X4053687Y3967886D01*
X4034790Y3981399D01*
X4014825Y3993286D01*
X3993946Y4003497D01*
X3972306Y4011929D01*
X3950004Y4018584D01*
X3927297Y4023309D01*
X3904234Y4026204D01*
X3881018Y4027170D01*
X3857802Y4026204D01*
X3834739Y4023309D01*
X3811981Y4018584D01*
X3789679Y4011929D01*
X3768039Y4003497D01*
X3747160Y3993286D01*
X3727196Y3981399D01*
X3708298Y3967886D01*
X3690569Y3952849D01*
X3674160Y3936441D01*
X3659124Y3918712D01*
X3645611Y3899763D01*
X3633724Y3879799D01*
X3623513Y3858920D01*
X3615080Y3837279D01*
X3608425Y3815029D01*
X3603650Y3792270D01*
X3600805Y3769207D01*
X3599840Y3745992D01*
X3600805Y3722776D01*
X3603650Y3699713D01*
X3608425Y3676954D01*
X3615080Y3654704D01*
X3623513Y3633063D01*
X3633724Y3612184D01*
X3645611Y3592220D01*
X3659124Y3573322D01*
X3674160Y3555593D01*
X3690569Y3539134D01*
X3708298Y3524097D01*
X3727196Y3510635D01*
X3747160Y3498697D01*
X3768039Y3488486D01*
X3789679Y3480054D01*
X3811981Y3473450D01*
X3834739Y3468674D01*
X3857802Y3465779D01*
G37*
G36*
X6380988Y3464814D02*
G01*
X6404203Y3465779D01*
X6427266Y3468674D01*
X6450025Y3473450D01*
X6472275Y3480054D01*
X6493967Y3488486D01*
X6514846Y3498697D01*
X6534810Y3510635D01*
X6553708Y3524097D01*
X6571437Y3539134D01*
X6587845Y3555593D01*
X6602882Y3573322D01*
X6616395Y3592220D01*
X6628282Y3612184D01*
X6638493Y3633063D01*
X6646925Y3654704D01*
X6653580Y3676954D01*
X6658356Y3699713D01*
X6661200Y3722776D01*
X6662166Y3745992D01*
X6661200Y3769207D01*
X6658356Y3792270D01*
X6653580Y3815029D01*
X6646925Y3837279D01*
X6638493Y3858920D01*
X6628282Y3879799D01*
X6616395Y3899763D01*
X6602882Y3918712D01*
X6587845Y3936441D01*
X6571437Y3952849D01*
X6553708Y3967886D01*
X6534810Y3981399D01*
X6514846Y3993286D01*
X6493967Y4003497D01*
X6472275Y4011929D01*
X6450025Y4018584D01*
X6427266Y4023309D01*
X6404203Y4026204D01*
X6380988Y4027170D01*
X6357772Y4026204D01*
X6334709Y4023309D01*
X6312001Y4018584D01*
X6289700Y4011929D01*
X6268059Y4003497D01*
X6247180Y3993286D01*
X6227216Y3981399D01*
X6208318Y3967886D01*
X6190589Y3952849D01*
X6174130Y3936441D01*
X6159093Y3918712D01*
X6145631Y3899763D01*
X6133744Y3879799D01*
X6123533Y3858920D01*
X6115050Y3837279D01*
X6108446Y3815029D01*
X6103670Y3792270D01*
X6100775Y3769207D01*
X6099810Y3745992D01*
X6100775Y3722776D01*
X6103670Y3699713D01*
X6108446Y3676954D01*
X6115050Y3654704D01*
X6123533Y3633063D01*
X6133744Y3612184D01*
X6145631Y3592220D01*
X6159093Y3573322D01*
X6174130Y3555593D01*
X6190589Y3539134D01*
X6208318Y3524097D01*
X6227216Y3510635D01*
X6247180Y3498697D01*
X6268059Y3488486D01*
X6289700Y3480054D01*
X6312001Y3473450D01*
X6334709Y3468674D01*
X6357772Y3465779D01*
G37*
G36*
X8881008Y3464814D02*
G01*
X8904224Y3465779D01*
X8927287Y3468674D01*
X8950045Y3473450D01*
X8972296Y3480054D01*
X8993936Y3488486D01*
X9014815Y3498697D01*
X9034780Y3510635D01*
X9053677Y3524097D01*
X9071406Y3539134D01*
X9087866Y3555593D01*
X9102902Y3573322D01*
X9116364Y3592220D01*
X9128302Y3612184D01*
X9138513Y3633063D01*
X9146946Y3654704D01*
X9153550Y3676954D01*
X9158325Y3699713D01*
X9161221Y3722776D01*
X9162186Y3745992D01*
X9161221Y3769207D01*
X9158325Y3792270D01*
X9153550Y3815029D01*
X9146946Y3837279D01*
X9138513Y3858920D01*
X9128302Y3879799D01*
X9116364Y3899763D01*
X9102902Y3918712D01*
X9087866Y3936441D01*
X9071406Y3952849D01*
X9053677Y3967886D01*
X9034780Y3981399D01*
X9014815Y3993286D01*
X8993936Y4003497D01*
X8972296Y4011929D01*
X8950045Y4018584D01*
X8927287Y4023309D01*
X8904224Y4026204D01*
X8881008Y4027170D01*
X8857792Y4026204D01*
X8834729Y4023309D01*
X8811971Y4018584D01*
X8789720Y4011929D01*
X8768080Y4003497D01*
X8747201Y3993286D01*
X8727236Y3981399D01*
X8708288Y3967886D01*
X8690559Y3952849D01*
X8674150Y3936441D01*
X8659114Y3918712D01*
X8645601Y3899763D01*
X8633714Y3879799D01*
X8623503Y3858920D01*
X8615070Y3837279D01*
X8608415Y3815029D01*
X8603691Y3792270D01*
X8600795Y3769207D01*
X8599830Y3745992D01*
X8600795Y3722776D01*
X8603691Y3699713D01*
X8608415Y3676954D01*
X8615070Y3654704D01*
X8623503Y3633063D01*
X8633714Y3612184D01*
X8645601Y3592220D01*
X8659114Y3573322D01*
X8674150Y3555593D01*
X8690559Y3539134D01*
X8708288Y3524097D01*
X8727236Y3510635D01*
X8747201Y3498697D01*
X8768080Y3488486D01*
X8789720Y3480054D01*
X8811971Y3473450D01*
X8834729Y3468674D01*
X8857792Y3465779D01*
G37*
G36*
X1880463Y3588867D02*
G01*
X1897532Y3588867D01*
X1914448Y3590747D01*
X1931111Y3594404D01*
X1947214Y3599840D01*
X1962708Y3607003D01*
X1977288Y3615791D01*
X1990852Y3626104D01*
X2003247Y3637787D01*
X2014270Y3650792D01*
X2023821Y3664864D01*
X2031796Y3679951D01*
X2038096Y3695750D01*
X2042668Y3712159D01*
X2045411Y3728974D01*
X2046325Y3745992D01*
X2045411Y3763010D01*
X2042668Y3779824D01*
X2038096Y3796233D01*
X2031796Y3812082D01*
X2023821Y3827119D01*
X2014270Y3841191D01*
X2003247Y3854196D01*
X1990852Y3865930D01*
X1977288Y3876243D01*
X1962708Y3885031D01*
X1947214Y3892143D01*
X1931111Y3897579D01*
X1914448Y3901287D01*
X1897532Y3903116D01*
X1880463Y3903116D01*
X1863547Y3901287D01*
X1846884Y3897579D01*
X1830781Y3892143D01*
X1815287Y3885031D01*
X1800707Y3876243D01*
X1787143Y3865930D01*
X1774748Y3854196D01*
X1763725Y3841191D01*
X1754174Y3827119D01*
X1746199Y3812082D01*
X1739900Y3796233D01*
X1735328Y3779824D01*
X1732584Y3763010D01*
X1731670Y3745992D01*
X1732584Y3728974D01*
X1735328Y3712159D01*
X1739900Y3695750D01*
X1746199Y3679951D01*
X1754174Y3664864D01*
X1763725Y3650792D01*
X1774748Y3637787D01*
X1787143Y3626104D01*
X1800707Y3615791D01*
X1815287Y3607003D01*
X1830781Y3599840D01*
X1846884Y3594404D01*
X1863547Y3590747D01*
G37*
G36*
X4380484Y3588867D02*
G01*
X4397502Y3588867D01*
X4414469Y3590747D01*
X4431080Y3594404D01*
X4447235Y3599840D01*
X4462678Y3607003D01*
X4477308Y3615791D01*
X4490872Y3626104D01*
X4503216Y3637787D01*
X4514240Y3650792D01*
X4523841Y3664864D01*
X4531817Y3679951D01*
X4538116Y3695750D01*
X4542637Y3712159D01*
X4545431Y3728974D01*
X4546346Y3745992D01*
X4545431Y3763010D01*
X4542637Y3779824D01*
X4538116Y3796233D01*
X4531817Y3812082D01*
X4523841Y3827119D01*
X4514240Y3841191D01*
X4503216Y3854196D01*
X4490872Y3865930D01*
X4477308Y3876243D01*
X4462678Y3885031D01*
X4447235Y3892143D01*
X4431080Y3897579D01*
X4414469Y3901287D01*
X4397502Y3903116D01*
X4380484Y3903116D01*
X4363567Y3901287D01*
X4346905Y3897579D01*
X4330750Y3892143D01*
X4315307Y3885031D01*
X4300728Y3876243D01*
X4287164Y3865930D01*
X4274769Y3854196D01*
X4263745Y3841191D01*
X4254195Y3827119D01*
X4246219Y3812082D01*
X4239920Y3796233D01*
X4235348Y3779824D01*
X4232605Y3763010D01*
X4231640Y3745992D01*
X4232605Y3728974D01*
X4235348Y3712159D01*
X4239920Y3695750D01*
X4246219Y3679951D01*
X4254195Y3664864D01*
X4263745Y3650792D01*
X4274769Y3637787D01*
X4287164Y3626104D01*
X4300728Y3615791D01*
X4315307Y3607003D01*
X4330750Y3599840D01*
X4346905Y3594404D01*
X4363567Y3590747D01*
G37*
G36*
X9380474Y3588867D02*
G01*
X9397542Y3588867D01*
X9414459Y3590747D01*
X9431070Y3594404D01*
X9447225Y3599840D01*
X9462719Y3607003D01*
X9477298Y3615791D01*
X9490862Y3626104D01*
X9503206Y3637787D01*
X9514281Y3650792D01*
X9523831Y3664864D01*
X9531807Y3679951D01*
X9538106Y3695750D01*
X9542678Y3712159D01*
X9545421Y3728974D01*
X9546336Y3745992D01*
X9545421Y3763010D01*
X9542678Y3779824D01*
X9538106Y3796233D01*
X9531807Y3812082D01*
X9523831Y3827119D01*
X9514281Y3841191D01*
X9503206Y3854196D01*
X9490862Y3865930D01*
X9477298Y3876243D01*
X9462719Y3885031D01*
X9447225Y3892143D01*
X9431070Y3897579D01*
X9414459Y3901287D01*
X9397542Y3903116D01*
X9380474Y3903116D01*
X9363557Y3901287D01*
X9346895Y3897579D01*
X9330740Y3892143D01*
X9315297Y3885031D01*
X9300718Y3876243D01*
X9287154Y3865930D01*
X9274759Y3854196D01*
X9263735Y3841191D01*
X9254185Y3827119D01*
X9246209Y3812082D01*
X9239910Y3796233D01*
X9235338Y3779824D01*
X9232595Y3763010D01*
X9231680Y3745992D01*
X9232595Y3728974D01*
X9235338Y3712159D01*
X9239910Y3695750D01*
X9246209Y3679951D01*
X9254185Y3664864D01*
X9263735Y3650792D01*
X9274759Y3637787D01*
X9287154Y3626104D01*
X9300718Y3615791D01*
X9315297Y3607003D01*
X9330740Y3599840D01*
X9346895Y3594404D01*
X9363557Y3590747D01*
G37*
G36*
X6880504Y3588867D02*
G01*
X6897522Y3588867D01*
X6914438Y3590747D01*
X6931101Y3594404D01*
X6947255Y3599840D01*
X6962698Y3607003D01*
X6977278Y3615791D01*
X6990842Y3626104D01*
X7003237Y3637787D01*
X7014260Y3650792D01*
X7023811Y3664864D01*
X7031786Y3679951D01*
X7038086Y3695750D01*
X7042658Y3712159D01*
X7045401Y3728974D01*
X7046315Y3745992D01*
X7045401Y3763010D01*
X7042658Y3779824D01*
X7038086Y3796233D01*
X7031786Y3812082D01*
X7023811Y3827119D01*
X7014260Y3841191D01*
X7003237Y3854196D01*
X6990842Y3865930D01*
X6977278Y3876243D01*
X6962698Y3885031D01*
X6947255Y3892143D01*
X6931101Y3897579D01*
X6914438Y3901287D01*
X6897522Y3903116D01*
X6880504Y3903116D01*
X6863537Y3901287D01*
X6846925Y3897579D01*
X6830771Y3892143D01*
X6815277Y3885031D01*
X6800697Y3876243D01*
X6787134Y3865930D01*
X6774789Y3854196D01*
X6763766Y3841191D01*
X6754164Y3827119D01*
X6746189Y3812082D01*
X6739890Y3796233D01*
X6735318Y3779824D01*
X6732574Y3763010D01*
X6731660Y3745992D01*
X6732574Y3728974D01*
X6735318Y3712159D01*
X6739890Y3695750D01*
X6746189Y3679951D01*
X6754164Y3664864D01*
X6763766Y3650792D01*
X6774789Y3637787D01*
X6787134Y3626104D01*
X6800697Y3615791D01*
X6815277Y3607003D01*
X6830771Y3599840D01*
X6846925Y3594404D01*
X6863537Y3590747D01*
G37*
G36*
X5864504Y3588867D02*
G01*
X5881522Y3588867D01*
X5898438Y3590747D01*
X5915101Y3594404D01*
X5931255Y3599840D01*
X5946698Y3607003D01*
X5961278Y3615791D01*
X5974842Y3626104D01*
X5987237Y3637787D01*
X5998260Y3650792D01*
X6007811Y3664864D01*
X6015786Y3679951D01*
X6022086Y3695750D01*
X6026658Y3712159D01*
X6029401Y3728974D01*
X6030315Y3745992D01*
X6029401Y3763010D01*
X6026658Y3779824D01*
X6022086Y3796233D01*
X6015786Y3812082D01*
X6007811Y3827119D01*
X5998006Y3841496D01*
X5996127Y3844798D01*
X5995619Y3848506D01*
X5996482Y3852214D01*
X5998616Y3855313D01*
X6001766Y3857447D01*
X6005474Y3858209D01*
X6012180Y3858412D01*
X6028232Y3860749D01*
X6043930Y3864864D01*
X6059017Y3870756D01*
X6073394Y3878326D01*
X6086754Y3887470D01*
X6099048Y3898087D01*
X6110020Y3910076D01*
X6119520Y3923182D01*
X6127496Y3937304D01*
X6133846Y3952240D01*
X6138418Y3967835D01*
X6141161Y3983786D01*
X6142075Y3999992D01*
X6141161Y4016197D01*
X6138418Y4032199D01*
X6133846Y4047744D01*
X6127496Y4062679D01*
X6119520Y4076801D01*
X6110020Y4089958D01*
X6099048Y4101896D01*
X6086754Y4112514D01*
X6073394Y4121708D01*
X6059017Y4129278D01*
X6043930Y4135120D01*
X6028232Y4139285D01*
X6012180Y4141571D01*
X5995924Y4142028D01*
X5979769Y4140657D01*
X5963869Y4137406D01*
X5948426Y4132427D01*
X5933694Y4125671D01*
X5919774Y4117289D01*
X5906922Y4107383D01*
X5895289Y4096105D01*
X5885027Y4083507D01*
X5876290Y4069892D01*
X5869127Y4055313D01*
X5863640Y4040022D01*
X5859983Y4024223D01*
X5858154Y4008120D01*
X5858154Y3991864D01*
X5859983Y3975760D01*
X5863640Y3959961D01*
X5869127Y3944670D01*
X5876290Y3930142D01*
X5883554Y3918762D01*
X5885078Y3914698D01*
X5884773Y3910380D01*
X5882690Y3906621D01*
X5879236Y3904030D01*
X5875020Y3903116D01*
X5864504Y3903116D01*
X5847537Y3901287D01*
X5830925Y3897579D01*
X5814771Y3892143D01*
X5799277Y3885031D01*
X5784697Y3876243D01*
X5771134Y3865930D01*
X5758789Y3854196D01*
X5747766Y3841191D01*
X5738164Y3827119D01*
X5730189Y3812082D01*
X5723890Y3796233D01*
X5719318Y3779824D01*
X5716574Y3763010D01*
X5715660Y3745992D01*
X5716574Y3728974D01*
X5719318Y3712159D01*
X5723890Y3695750D01*
X5730189Y3679951D01*
X5738164Y3664864D01*
X5747766Y3650792D01*
X5758789Y3637787D01*
X5771134Y3626104D01*
X5784697Y3615791D01*
X5799277Y3607003D01*
X5814771Y3599840D01*
X5830925Y3594404D01*
X5847537Y3590747D01*
G37*
G36*
X8364474Y3588867D02*
G01*
X8381542Y3588867D01*
X8398459Y3590747D01*
X8415070Y3594404D01*
X8431225Y3599840D01*
X8446719Y3607003D01*
X8461298Y3615791D01*
X8474862Y3626104D01*
X8487206Y3637787D01*
X8498281Y3650792D01*
X8507831Y3664864D01*
X8515807Y3679951D01*
X8522106Y3695750D01*
X8526678Y3712159D01*
X8529421Y3728974D01*
X8530336Y3745992D01*
X8529421Y3763010D01*
X8526678Y3779824D01*
X8522106Y3796233D01*
X8515807Y3812082D01*
X8507831Y3827119D01*
X8498027Y3841496D01*
X8496147Y3844798D01*
X8495588Y3848506D01*
X8496503Y3852214D01*
X8498636Y3855313D01*
X8501786Y3857447D01*
X8505444Y3858209D01*
X8512149Y3858412D01*
X8528202Y3860749D01*
X8543899Y3864864D01*
X8559038Y3870756D01*
X8573363Y3878326D01*
X8586774Y3887470D01*
X8599017Y3898087D01*
X8609990Y3910076D01*
X8619540Y3923182D01*
X8627516Y3937304D01*
X8633815Y3952240D01*
X8638387Y3967835D01*
X8641181Y3983786D01*
X8642096Y3999992D01*
X8641181Y4016197D01*
X8638387Y4032199D01*
X8633815Y4047744D01*
X8627516Y4062679D01*
X8619540Y4076801D01*
X8609990Y4089958D01*
X8599017Y4101896D01*
X8586774Y4112514D01*
X8573363Y4121708D01*
X8559038Y4129278D01*
X8543899Y4135120D01*
X8528202Y4139285D01*
X8512149Y4141571D01*
X8495944Y4142028D01*
X8479790Y4140657D01*
X8463889Y4137406D01*
X8448446Y4132427D01*
X8433714Y4125671D01*
X8419795Y4117289D01*
X8406942Y4107383D01*
X8395309Y4096105D01*
X8385048Y4083507D01*
X8376259Y4069892D01*
X8369096Y4055313D01*
X8363661Y4040022D01*
X8360003Y4024223D01*
X8358124Y4008120D01*
X8358124Y3991864D01*
X8360003Y3975760D01*
X8363661Y3959961D01*
X8369096Y3944670D01*
X8376259Y3930142D01*
X8383574Y3918762D01*
X8385098Y3914698D01*
X8384794Y3910380D01*
X8382711Y3906621D01*
X8379256Y3904030D01*
X8375040Y3903116D01*
X8364474Y3903116D01*
X8347557Y3901287D01*
X8330895Y3897579D01*
X8314740Y3892143D01*
X8299297Y3885031D01*
X8284718Y3876243D01*
X8271154Y3865930D01*
X8258759Y3854196D01*
X8247735Y3841191D01*
X8238185Y3827119D01*
X8230209Y3812082D01*
X8223910Y3796233D01*
X8219338Y3779824D01*
X8216595Y3763010D01*
X8215680Y3745992D01*
X8216595Y3728974D01*
X8219338Y3712159D01*
X8223910Y3695750D01*
X8230209Y3679951D01*
X8238185Y3664864D01*
X8247735Y3650792D01*
X8258759Y3637787D01*
X8271154Y3626104D01*
X8284718Y3615791D01*
X8299297Y3607003D01*
X8314740Y3599840D01*
X8330895Y3594404D01*
X8347557Y3590747D01*
G37*
G36*
X3364484Y3588867D02*
G01*
X3381501Y3588867D01*
X3398469Y3590747D01*
X3415080Y3594404D01*
X3431235Y3599840D01*
X3446678Y3607003D01*
X3461308Y3615791D01*
X3474872Y3626104D01*
X3487216Y3637787D01*
X3498240Y3650792D01*
X3507841Y3664864D01*
X3515817Y3679951D01*
X3522116Y3695750D01*
X3526637Y3712159D01*
X3529431Y3728974D01*
X3530346Y3745992D01*
X3529431Y3763010D01*
X3526637Y3779824D01*
X3522116Y3796233D01*
X3515817Y3812082D01*
X3507841Y3827119D01*
X3498037Y3841496D01*
X3496157Y3844798D01*
X3495598Y3848506D01*
X3496462Y3852214D01*
X3498646Y3855313D01*
X3501796Y3857447D01*
X3505454Y3858209D01*
X3512159Y3858412D01*
X3528212Y3860749D01*
X3543909Y3864864D01*
X3559048Y3870756D01*
X3573373Y3878326D01*
X3586784Y3887470D01*
X3599027Y3898087D01*
X3610000Y3910076D01*
X3619550Y3923182D01*
X3627526Y3937304D01*
X3633825Y3952240D01*
X3638397Y3967835D01*
X3641191Y3983786D01*
X3642106Y3999992D01*
X3641191Y4016197D01*
X3638397Y4032199D01*
X3633825Y4047744D01*
X3627526Y4062679D01*
X3619550Y4076801D01*
X3610000Y4089958D01*
X3599027Y4101896D01*
X3586784Y4112514D01*
X3573373Y4121708D01*
X3559048Y4129278D01*
X3543909Y4135120D01*
X3528212Y4139285D01*
X3512159Y4141571D01*
X3495954Y4142028D01*
X3479800Y4140657D01*
X3463899Y4137406D01*
X3448456Y4132427D01*
X3433673Y4125671D01*
X3419805Y4117289D01*
X3406952Y4107383D01*
X3395319Y4096105D01*
X3385058Y4083507D01*
X3376269Y4069892D01*
X3369106Y4055313D01*
X3363671Y4040022D01*
X3359962Y4024223D01*
X3358134Y4008120D01*
X3358134Y3991864D01*
X3359962Y3975760D01*
X3363671Y3959961D01*
X3369106Y3944670D01*
X3376269Y3930142D01*
X3383584Y3918762D01*
X3385108Y3914698D01*
X3384753Y3910380D01*
X3382721Y3906621D01*
X3379266Y3904030D01*
X3375050Y3903116D01*
X3364484Y3903116D01*
X3347567Y3901287D01*
X3330905Y3897579D01*
X3314750Y3892143D01*
X3299307Y3885031D01*
X3284728Y3876243D01*
X3271164Y3865930D01*
X3258769Y3854196D01*
X3247745Y3841191D01*
X3238195Y3827119D01*
X3230219Y3812082D01*
X3223920Y3796233D01*
X3219348Y3779824D01*
X3216605Y3763010D01*
X3215640Y3745992D01*
X3216605Y3728974D01*
X3219348Y3712159D01*
X3223920Y3695750D01*
X3230219Y3679951D01*
X3238195Y3664864D01*
X3247745Y3650792D01*
X3258769Y3637787D01*
X3271164Y3626104D01*
X3284728Y3615791D01*
X3299307Y3607003D01*
X3314750Y3599840D01*
X3330905Y3594404D01*
X3347567Y3590747D01*
G37*
G36*
X864463Y3588867D02*
G01*
X881532Y3588867D01*
X898448Y3590747D01*
X915111Y3594404D01*
X931214Y3599840D01*
X946708Y3607003D01*
X961288Y3615791D01*
X974852Y3626104D01*
X987247Y3637787D01*
X998270Y3650792D01*
X1007821Y3664864D01*
X1015796Y3679951D01*
X1022096Y3695750D01*
X1026668Y3712159D01*
X1029411Y3728974D01*
X1030325Y3745992D01*
X1029411Y3763010D01*
X1026668Y3779824D01*
X1022096Y3796233D01*
X1015796Y3812082D01*
X1007821Y3827119D01*
X998016Y3841496D01*
X996137Y3844798D01*
X995629Y3848506D01*
X996492Y3852214D01*
X998626Y3855313D01*
X1001776Y3857447D01*
X1005484Y3858209D01*
X1012139Y3858412D01*
X1028242Y3860749D01*
X1043889Y3864864D01*
X1059027Y3870756D01*
X1073404Y3878326D01*
X1086764Y3887470D01*
X1099058Y3898087D01*
X1109980Y3910076D01*
X1119530Y3923182D01*
X1127506Y3937304D01*
X1133856Y3952240D01*
X1138428Y3967835D01*
X1141171Y3983786D01*
X1142085Y3999992D01*
X1141171Y4016197D01*
X1138428Y4032199D01*
X1133856Y4047744D01*
X1127506Y4062679D01*
X1119530Y4076801D01*
X1109980Y4089958D01*
X1099058Y4101896D01*
X1086764Y4112514D01*
X1073404Y4121708D01*
X1059027Y4129278D01*
X1043889Y4135120D01*
X1028242Y4139285D01*
X1012139Y4141571D01*
X995934Y4142028D01*
X979779Y4140657D01*
X963879Y4137406D01*
X948436Y4132427D01*
X933703Y4125671D01*
X919784Y4117289D01*
X906932Y4107383D01*
X895299Y4096105D01*
X885037Y4083507D01*
X876249Y4069892D01*
X869137Y4055313D01*
X863650Y4040022D01*
X859993Y4024223D01*
X858113Y4008120D01*
X858113Y3991864D01*
X859993Y3975760D01*
X863650Y3959961D01*
X869137Y3944670D01*
X876249Y3930142D01*
X883564Y3918762D01*
X885088Y3914698D01*
X884783Y3910380D01*
X882700Y3906621D01*
X879246Y3904030D01*
X875030Y3903116D01*
X864463Y3903116D01*
X847547Y3901287D01*
X830884Y3897579D01*
X814781Y3892143D01*
X799287Y3885031D01*
X784707Y3876243D01*
X771144Y3865930D01*
X758748Y3854196D01*
X747725Y3841191D01*
X738174Y3827119D01*
X730199Y3812082D01*
X723900Y3796233D01*
X719328Y3779824D01*
X716584Y3763010D01*
X715670Y3745992D01*
X716584Y3728974D01*
X719328Y3712159D01*
X723900Y3695750D01*
X730199Y3679951D01*
X738174Y3664864D01*
X747725Y3650792D01*
X758748Y3637787D01*
X771144Y3626104D01*
X784707Y3615791D01*
X799287Y3607003D01*
X814781Y3599840D01*
X830884Y3594404D01*
X847547Y3590747D01*
G37*
G36*
X1570532Y4127500D02*
G01*
X1570532Y4189526D01*
X1508607Y4189526D01*
X1511249Y4184142D01*
X1520037Y4170476D01*
X1530299Y4157929D01*
X1541932Y4146600D01*
X1554784Y4136694D01*
X1568704Y4128312D01*
G37*
G36*
X4070553Y4127500D02*
G01*
X4070553Y4189526D01*
X4008628Y4189526D01*
X4011269Y4184142D01*
X4020058Y4170476D01*
X4030319Y4157929D01*
X4041952Y4146600D01*
X4054805Y4136694D01*
X4068673Y4128312D01*
G37*
G36*
X6570573Y4127500D02*
G01*
X6570573Y4189526D01*
X6508597Y4189526D01*
X6511290Y4184142D01*
X6520027Y4170476D01*
X6530289Y4157929D01*
X6541922Y4146600D01*
X6554774Y4136694D01*
X6568694Y4128312D01*
G37*
G36*
X9070543Y4127500D02*
G01*
X9070543Y4189526D01*
X9008618Y4189526D01*
X9011259Y4184142D01*
X9020048Y4170476D01*
X9030309Y4157929D01*
X9041942Y4146600D01*
X9054795Y4136694D01*
X9068714Y4128312D01*
G37*
G36*
X1699463Y4127601D02*
G01*
X1708404Y4132326D01*
X1721764Y4141470D01*
X1734057Y4152087D01*
X1744980Y4164076D01*
X1754530Y4177182D01*
X1761540Y4189526D01*
X1699463Y4189526D01*
G37*
G36*
X4199432Y4127601D02*
G01*
X4208373Y4132326D01*
X4221784Y4141470D01*
X4234027Y4152087D01*
X4245000Y4164076D01*
X4254550Y4177182D01*
X4261510Y4189526D01*
X4199432Y4189526D01*
G37*
G36*
X9199473Y4127601D02*
G01*
X9208363Y4132326D01*
X9221774Y4141470D01*
X9234017Y4152087D01*
X9244990Y4164076D01*
X9254540Y4177182D01*
X9261551Y4189526D01*
X9199473Y4189526D01*
G37*
G36*
X6699453Y4127601D02*
G01*
X6708394Y4132326D01*
X6721754Y4141470D01*
X6734048Y4152087D01*
X6745020Y4164076D01*
X6754520Y4177182D01*
X6761530Y4189526D01*
X6699453Y4189526D01*
G37*
G36*
X1699463Y4318457D02*
G01*
X1761540Y4318457D01*
X1754530Y4330801D01*
X1744980Y4343958D01*
X1734057Y4355896D01*
X1721764Y4366514D01*
X1708404Y4375708D01*
X1699463Y4380382D01*
G37*
G36*
X4199432Y4318457D02*
G01*
X4261510Y4318457D01*
X4254550Y4330801D01*
X4245000Y4343958D01*
X4234027Y4355896D01*
X4221784Y4366514D01*
X4208373Y4375708D01*
X4199432Y4380382D01*
G37*
G36*
X6699453Y4318457D02*
G01*
X6761530Y4318457D01*
X6754520Y4330801D01*
X6745020Y4343958D01*
X6734048Y4355896D01*
X6721754Y4366514D01*
X6708394Y4375708D01*
X6699453Y4380382D01*
G37*
G36*
X9199473Y4318457D02*
G01*
X9261551Y4318457D01*
X9254540Y4330801D01*
X9244990Y4343958D01*
X9234017Y4355896D01*
X9221774Y4366514D01*
X9208363Y4375708D01*
X9199473Y4380382D01*
G37*
G36*
X1508607Y4318457D02*
G01*
X1570532Y4318457D01*
X1570532Y4380534D01*
X1568704Y4379671D01*
X1554784Y4371289D01*
X1541932Y4361383D01*
X1530299Y4350105D01*
X1520037Y4337507D01*
X1511249Y4323892D01*
G37*
G36*
X4008628Y4318457D02*
G01*
X4070553Y4318457D01*
X4070553Y4380534D01*
X4068673Y4379671D01*
X4054805Y4371289D01*
X4041952Y4361383D01*
X4030319Y4350105D01*
X4020058Y4337507D01*
X4011269Y4323892D01*
G37*
G36*
X6508597Y4318457D02*
G01*
X6570573Y4318457D01*
X6570573Y4380534D01*
X6568694Y4379671D01*
X6554774Y4371289D01*
X6541922Y4361383D01*
X6530289Y4350105D01*
X6520027Y4337507D01*
X6511290Y4323892D01*
G37*
G36*
X9008618Y4318457D02*
G01*
X9070543Y4318457D01*
X9070543Y4380534D01*
X9068714Y4379671D01*
X9054795Y4371289D01*
X9041942Y4361383D01*
X9030309Y4350105D01*
X9020048Y4337507D01*
X9011259Y4323892D01*
G37*
G36*
X11414556Y4876190D02*
G01*
X11428679Y4877511D01*
X11442547Y4880711D01*
X11455908Y4885588D01*
X11468506Y4892192D01*
X11480139Y4900320D01*
X11490655Y4909870D01*
X11499850Y4920691D01*
X11507622Y4932578D01*
X11513769Y4945380D01*
X11518239Y4958892D01*
X11520982Y4972812D01*
X11521897Y4986985D01*
X11520982Y5001158D01*
X11518239Y5015128D01*
X11513769Y5028590D01*
X11507622Y5041392D01*
X11499850Y5053330D01*
X11490655Y5064150D01*
X11480139Y5073700D01*
X11468506Y5081828D01*
X11455908Y5088382D01*
X11442547Y5093309D01*
X11428679Y5096459D01*
X11414556Y5097830D01*
X11400332Y5097373D01*
X11386312Y5095087D01*
X11372697Y5091074D01*
X11359692Y5085334D01*
X11347551Y5077968D01*
X11336426Y5069078D01*
X11326571Y5058867D01*
X11318087Y5047488D01*
X11311077Y5035092D01*
X11305743Y5021935D01*
X11302136Y5008219D01*
X11300358Y4994097D01*
X11300358Y4979873D01*
X11302136Y4965801D01*
X11305743Y4952034D01*
X11311077Y4938877D01*
X11318087Y4926482D01*
X11326571Y4915103D01*
X11336426Y4904892D01*
X11347551Y4896053D01*
X11359692Y4888687D01*
X11372697Y4882946D01*
X11386312Y4878882D01*
X11400332Y4876647D01*
G37*
G36*
X13192556Y4876190D02*
G01*
X13206679Y4877511D01*
X13220547Y4880711D01*
X13233907Y4885588D01*
X13246506Y4892192D01*
X13258139Y4900320D01*
X13268655Y4909870D01*
X13277850Y4920691D01*
X13285622Y4932578D01*
X13291769Y4945380D01*
X13296239Y4958892D01*
X13298982Y4972812D01*
X13299897Y4986985D01*
X13298982Y5001158D01*
X13296239Y5015128D01*
X13291769Y5028590D01*
X13285622Y5041392D01*
X13277850Y5053330D01*
X13268655Y5064150D01*
X13258139Y5073700D01*
X13246506Y5081828D01*
X13233907Y5088382D01*
X13220547Y5093309D01*
X13206679Y5096459D01*
X13192556Y5097830D01*
X13178332Y5097373D01*
X13164312Y5095087D01*
X13150697Y5091074D01*
X13137692Y5085334D01*
X13125551Y5077968D01*
X13114426Y5069078D01*
X13104571Y5058867D01*
X13096087Y5047488D01*
X13089077Y5035092D01*
X13083743Y5021935D01*
X13080136Y5008219D01*
X13078358Y4994097D01*
X13078358Y4979873D01*
X13080136Y4965801D01*
X13083743Y4952034D01*
X13089077Y4938877D01*
X13096087Y4926482D01*
X13104571Y4915103D01*
X13114426Y4904892D01*
X13125551Y4896053D01*
X13137692Y4888687D01*
X13150697Y4882946D01*
X13164312Y4878882D01*
X13178332Y4876647D01*
G37*
G36*
X12215571Y4899101D02*
G01*
X12251131Y4899101D01*
X12251131Y4961178D01*
X12189104Y4961178D01*
X12189104Y4925568D01*
X12189815Y4919268D01*
X12191695Y4913782D01*
X12194794Y4908905D01*
X12198908Y4904790D01*
X12203785Y4901742D01*
X12209272Y4899812D01*
G37*
G36*
X12348870Y4899101D02*
G01*
X12384430Y4899101D01*
X12390729Y4899812D01*
X12396216Y4901742D01*
X12401092Y4904790D01*
X12405207Y4908905D01*
X12408306Y4913782D01*
X12410186Y4919268D01*
X12410897Y4925568D01*
X12410897Y4961178D01*
X12348870Y4961178D01*
G37*
G36*
X12049556Y4899202D02*
G01*
X12063679Y4900523D01*
X12077547Y4903724D01*
X12090908Y4908600D01*
X12103506Y4915204D01*
X12115139Y4923332D01*
X12125655Y4932883D01*
X12134850Y4943703D01*
X12142622Y4955590D01*
X12148769Y4968392D01*
X12153239Y4981905D01*
X12155982Y4995824D01*
X12156897Y5009997D01*
X12155982Y5024170D01*
X12153239Y5038140D01*
X12148769Y5051602D01*
X12142622Y5064404D01*
X12134850Y5076342D01*
X12125655Y5087162D01*
X12115139Y5096713D01*
X12103506Y5104841D01*
X12090908Y5111394D01*
X12077547Y5116322D01*
X12063679Y5119471D01*
X12049556Y5120843D01*
X12035332Y5120386D01*
X12021312Y5118100D01*
X12007697Y5114086D01*
X11994692Y5108346D01*
X11982551Y5100980D01*
X11971426Y5092090D01*
X11961571Y5081879D01*
X11953087Y5070500D01*
X11946077Y5058105D01*
X11940743Y5044948D01*
X11937136Y5031232D01*
X11935358Y5017109D01*
X11935358Y5002885D01*
X11937136Y4988814D01*
X11940743Y4975047D01*
X11946077Y4961890D01*
X11953087Y4949494D01*
X11961571Y4938115D01*
X11971426Y4927904D01*
X11982551Y4919065D01*
X11994692Y4911699D01*
X12007697Y4905959D01*
X12021312Y4901895D01*
X12035332Y4899660D01*
G37*
G36*
X12557556Y4899202D02*
G01*
X12571679Y4900523D01*
X12585547Y4903724D01*
X12598908Y4908600D01*
X12611506Y4915204D01*
X12623139Y4923332D01*
X12633655Y4932883D01*
X12642850Y4943703D01*
X12650622Y4955590D01*
X12656769Y4968392D01*
X12661239Y4981905D01*
X12663982Y4995824D01*
X12664897Y5009997D01*
X12663982Y5024170D01*
X12661239Y5038140D01*
X12656769Y5051602D01*
X12650622Y5064404D01*
X12642850Y5076342D01*
X12633655Y5087162D01*
X12623139Y5096713D01*
X12611506Y5104841D01*
X12598908Y5111394D01*
X12585547Y5116322D01*
X12571679Y5119471D01*
X12557556Y5120843D01*
X12543332Y5120386D01*
X12529312Y5118100D01*
X12515697Y5114086D01*
X12502692Y5108346D01*
X12490551Y5100980D01*
X12479426Y5092090D01*
X12469571Y5081879D01*
X12461087Y5070500D01*
X12454077Y5058105D01*
X12448743Y5044948D01*
X12445136Y5031232D01*
X12443358Y5017109D01*
X12443358Y5002885D01*
X12445136Y4988814D01*
X12448743Y4975047D01*
X12454077Y4961890D01*
X12461087Y4949494D01*
X12469571Y4938115D01*
X12479426Y4927904D01*
X12490551Y4919065D01*
X12502692Y4911699D01*
X12515697Y4905959D01*
X12529312Y4901895D01*
X12543332Y4899660D01*
G37*
G36*
X12877901Y4919675D02*
G01*
X12893344Y4921046D01*
X12908534Y4924247D01*
X12923215Y4929225D01*
X12937236Y4935880D01*
X12950342Y4944160D01*
X12962382Y4953914D01*
X12973202Y4965039D01*
X12982600Y4977384D01*
X12990474Y4990744D01*
X12996722Y5004917D01*
X13001294Y5019751D01*
X13004038Y5035042D01*
X13004952Y5050485D01*
X13004038Y5065979D01*
X13001294Y5081270D01*
X12996722Y5096052D01*
X12990474Y5110276D01*
X12982600Y5123637D01*
X12973202Y5135930D01*
X12962382Y5147056D01*
X12950342Y5156860D01*
X12937236Y5165140D01*
X12923215Y5171795D01*
X12908534Y5176774D01*
X12893344Y5179974D01*
X12877901Y5181346D01*
X12862407Y5180888D01*
X12847066Y5178602D01*
X12832130Y5174488D01*
X12817754Y5168646D01*
X12804190Y5161178D01*
X12791592Y5152136D01*
X12780111Y5141671D01*
X12770002Y5129936D01*
X12761315Y5117084D01*
X12754254Y5103266D01*
X12748869Y5088737D01*
X12745212Y5073650D01*
X12743383Y5058257D01*
X12743383Y5042763D01*
X12745212Y5027371D01*
X12748869Y5012283D01*
X12754254Y4997754D01*
X12761315Y4983937D01*
X12770002Y4971084D01*
X12780111Y4959350D01*
X12791592Y4948885D01*
X12804190Y4939842D01*
X12817754Y4932324D01*
X12832130Y4926482D01*
X12847066Y4922418D01*
X12862407Y4920132D01*
G37*
G36*
X11737898Y4919675D02*
G01*
X11753342Y4921046D01*
X11768531Y4924247D01*
X11783212Y4929225D01*
X11797233Y4935880D01*
X11810339Y4944160D01*
X11822379Y4953914D01*
X11833199Y4965039D01*
X11842597Y4977384D01*
X11850471Y4990744D01*
X11856720Y5004917D01*
X11861292Y5019751D01*
X11864035Y5035042D01*
X11864949Y5050485D01*
X11864035Y5065979D01*
X11861292Y5081270D01*
X11856720Y5096052D01*
X11850471Y5110276D01*
X11842597Y5123637D01*
X11833199Y5135930D01*
X11822379Y5147056D01*
X11810339Y5156860D01*
X11797233Y5165140D01*
X11783212Y5171795D01*
X11768531Y5176774D01*
X11753342Y5179974D01*
X11737898Y5181346D01*
X11722404Y5180888D01*
X11707063Y5178602D01*
X11692128Y5174488D01*
X11677751Y5168646D01*
X11664188Y5161178D01*
X11651589Y5152136D01*
X11640108Y5141671D01*
X11629999Y5129936D01*
X11621312Y5117084D01*
X11614251Y5103266D01*
X11608866Y5088737D01*
X11605209Y5073650D01*
X11603380Y5058257D01*
X11603380Y5042763D01*
X11605209Y5027371D01*
X11608866Y5012283D01*
X11614251Y4997754D01*
X11621312Y4983937D01*
X11629999Y4971084D01*
X11640108Y4959350D01*
X11651589Y4948885D01*
X11664188Y4939842D01*
X11677751Y4932324D01*
X11692128Y4926482D01*
X11707063Y4922418D01*
X11722404Y4920132D01*
G37*
G36*
X12189104Y5058867D02*
G01*
X12251131Y5058867D01*
X12251131Y5120944D01*
X12215571Y5120944D01*
X12209272Y5120233D01*
X12203785Y5118303D01*
X12198908Y5115204D01*
X12194794Y5111140D01*
X12191695Y5106212D01*
X12189815Y5100777D01*
X12189104Y5094427D01*
G37*
G36*
X12348870Y5058867D02*
G01*
X12410897Y5058867D01*
X12410897Y5094427D01*
X12410186Y5100777D01*
X12408306Y5106212D01*
X12405207Y5111140D01*
X12401092Y5115204D01*
X12396216Y5118303D01*
X12390729Y5120233D01*
X12384430Y5120944D01*
X12348870Y5120944D01*
G37*
G36*
X13192556Y5130190D02*
G01*
X13206679Y5131511D01*
X13220547Y5134711D01*
X13233907Y5139588D01*
X13246506Y5146192D01*
X13258139Y5154320D01*
X13268655Y5163870D01*
X13277850Y5174691D01*
X13285622Y5186578D01*
X13291769Y5199380D01*
X13296239Y5212892D01*
X13298982Y5226812D01*
X13299897Y5240985D01*
X13298982Y5255158D01*
X13296239Y5269128D01*
X13291769Y5282590D01*
X13285622Y5295392D01*
X13277850Y5307330D01*
X13268655Y5318150D01*
X13258139Y5327700D01*
X13246506Y5335828D01*
X13233907Y5342382D01*
X13220547Y5347309D01*
X13206679Y5350459D01*
X13192556Y5351830D01*
X13178332Y5351373D01*
X13164312Y5349087D01*
X13150697Y5345074D01*
X13137692Y5339334D01*
X13125551Y5331968D01*
X13114426Y5323078D01*
X13104571Y5312867D01*
X13096087Y5301488D01*
X13089077Y5289092D01*
X13083743Y5275935D01*
X13080136Y5262219D01*
X13078358Y5248097D01*
X13078358Y5233873D01*
X13080136Y5219801D01*
X13083743Y5206034D01*
X13089077Y5192877D01*
X13096087Y5180482D01*
X13104571Y5169103D01*
X13114426Y5158892D01*
X13125551Y5150053D01*
X13137692Y5142687D01*
X13150697Y5136946D01*
X13164312Y5132882D01*
X13178332Y5130647D01*
G37*
G36*
X11414556Y5130190D02*
G01*
X11428679Y5131511D01*
X11442547Y5134711D01*
X11455908Y5139588D01*
X11468506Y5146192D01*
X11480139Y5154320D01*
X11490655Y5163870D01*
X11499850Y5174691D01*
X11507622Y5186578D01*
X11513769Y5199380D01*
X11518239Y5212892D01*
X11520982Y5226812D01*
X11521897Y5240985D01*
X11520982Y5255158D01*
X11518239Y5269128D01*
X11513769Y5282590D01*
X11507622Y5295392D01*
X11499850Y5307330D01*
X11490655Y5318150D01*
X11480139Y5327700D01*
X11468506Y5335828D01*
X11455908Y5342382D01*
X11442547Y5347309D01*
X11428679Y5350459D01*
X11414556Y5351830D01*
X11400332Y5351373D01*
X11386312Y5349087D01*
X11372697Y5345074D01*
X11359692Y5339334D01*
X11347551Y5331968D01*
X11336426Y5323078D01*
X11326571Y5312867D01*
X11318087Y5301488D01*
X11311077Y5289092D01*
X11305743Y5275935D01*
X11302136Y5262219D01*
X11300358Y5248097D01*
X11300358Y5233873D01*
X11302136Y5219801D01*
X11305743Y5206034D01*
X11311077Y5192877D01*
X11318087Y5180482D01*
X11326571Y5169103D01*
X11336426Y5158892D01*
X11347551Y5150053D01*
X11359692Y5142687D01*
X11372697Y5136946D01*
X11386312Y5132882D01*
X11400332Y5130647D01*
G37*
G36*
X11459870Y5384088D02*
G01*
X11495430Y5384088D01*
X11501729Y5384800D01*
X11507216Y5386730D01*
X11512092Y5389778D01*
X11516207Y5393893D01*
X11519306Y5398770D01*
X11521186Y5404256D01*
X11521897Y5410555D01*
X11521897Y5446166D01*
X11459870Y5446166D01*
G37*
G36*
X13104571Y5384088D02*
G01*
X13140131Y5384088D01*
X13140131Y5446166D01*
X13078104Y5446166D01*
X13078104Y5410555D01*
X13078815Y5404256D01*
X13080695Y5398770D01*
X13083794Y5393893D01*
X13087908Y5389778D01*
X13092785Y5386730D01*
X13098271Y5384800D01*
G37*
G36*
X13237870Y5384088D02*
G01*
X13273430Y5384088D01*
X13279729Y5384800D01*
X13285216Y5386730D01*
X13290092Y5389778D01*
X13294207Y5393893D01*
X13297306Y5398770D01*
X13299186Y5404256D01*
X13299897Y5410555D01*
X13299897Y5446166D01*
X13237870Y5446166D01*
G37*
G36*
X11326571Y5384088D02*
G01*
X11362131Y5384088D01*
X11362131Y5446166D01*
X11300104Y5446166D01*
X11300104Y5410555D01*
X11300815Y5404256D01*
X11302695Y5398770D01*
X11305794Y5393893D01*
X11309908Y5389778D01*
X11314785Y5386730D01*
X11320272Y5384800D01*
G37*
G36*
X13237870Y5543854D02*
G01*
X13299897Y5543854D01*
X13299897Y5579414D01*
X13299186Y5585764D01*
X13297306Y5591200D01*
X13294207Y5596128D01*
X13290092Y5600192D01*
X13285216Y5603290D01*
X13279729Y5605221D01*
X13273430Y5605932D01*
X13237870Y5605932D01*
G37*
G36*
X11300104Y5543854D02*
G01*
X11362131Y5543854D01*
X11362131Y5605932D01*
X11326571Y5605932D01*
X11320272Y5605221D01*
X11314785Y5603290D01*
X11309908Y5600192D01*
X11305794Y5596128D01*
X11302695Y5591200D01*
X11300815Y5585764D01*
X11300104Y5579414D01*
G37*
G36*
X13078104Y5543854D02*
G01*
X13140131Y5543854D01*
X13140131Y5605932D01*
X13104571Y5605932D01*
X13098271Y5605221D01*
X13092785Y5603290D01*
X13087908Y5600192D01*
X13083794Y5596128D01*
X13080695Y5591200D01*
X13078815Y5585764D01*
X13078104Y5579414D01*
G37*
G36*
X11459870Y5543854D02*
G01*
X11521897Y5543854D01*
X11521897Y5579414D01*
X11521186Y5585764D01*
X11519306Y5591200D01*
X11516207Y5596128D01*
X11512092Y5600192D01*
X11507216Y5603290D01*
X11501729Y5605221D01*
X11495430Y5605932D01*
X11459870Y5605932D01*
G37*
G36*
X13192556Y5638190D02*
G01*
X13206679Y5639511D01*
X13220547Y5642711D01*
X13233907Y5647588D01*
X13246506Y5654192D01*
X13258139Y5662320D01*
X13268655Y5671870D01*
X13277850Y5682691D01*
X13285622Y5694578D01*
X13291769Y5707380D01*
X13296239Y5720892D01*
X13298982Y5734812D01*
X13299897Y5748985D01*
X13298982Y5763158D01*
X13296239Y5777128D01*
X13291769Y5790590D01*
X13285622Y5803392D01*
X13277850Y5815330D01*
X13268655Y5826150D01*
X13258139Y5835700D01*
X13246506Y5843828D01*
X13233907Y5850382D01*
X13220547Y5855309D01*
X13206679Y5858459D01*
X13192556Y5859830D01*
X13178332Y5859373D01*
X13164312Y5857087D01*
X13150697Y5853074D01*
X13137692Y5847334D01*
X13125551Y5839968D01*
X13114426Y5831078D01*
X13104571Y5820867D01*
X13096087Y5809488D01*
X13089077Y5797092D01*
X13083743Y5783935D01*
X13080136Y5770219D01*
X13078358Y5756097D01*
X13078358Y5741873D01*
X13080136Y5727801D01*
X13083743Y5714034D01*
X13089077Y5700877D01*
X13096087Y5688482D01*
X13104571Y5677103D01*
X13114426Y5666892D01*
X13125551Y5658053D01*
X13137692Y5650687D01*
X13150697Y5644946D01*
X13164312Y5640882D01*
X13178332Y5638647D01*
G37*
G36*
X11414556Y5638190D02*
G01*
X11428679Y5639511D01*
X11442547Y5642711D01*
X11455908Y5647588D01*
X11468506Y5654192D01*
X11480139Y5662320D01*
X11490655Y5671870D01*
X11499850Y5682691D01*
X11507622Y5694578D01*
X11513769Y5707380D01*
X11518239Y5720892D01*
X11520982Y5734812D01*
X11521897Y5748985D01*
X11520982Y5763158D01*
X11518239Y5777128D01*
X11513769Y5790590D01*
X11507622Y5803392D01*
X11499850Y5815330D01*
X11490655Y5826150D01*
X11480139Y5835700D01*
X11468506Y5843828D01*
X11455908Y5850382D01*
X11442547Y5855309D01*
X11428679Y5858459D01*
X11414556Y5859830D01*
X11400332Y5859373D01*
X11386312Y5857087D01*
X11372697Y5853074D01*
X11359692Y5847334D01*
X11347551Y5839968D01*
X11336426Y5831078D01*
X11326571Y5820867D01*
X11318087Y5809488D01*
X11311077Y5797092D01*
X11305743Y5783935D01*
X11302136Y5770219D01*
X11300358Y5756097D01*
X11300358Y5741873D01*
X11302136Y5727801D01*
X11305743Y5714034D01*
X11311077Y5700877D01*
X11318087Y5688482D01*
X11326571Y5677103D01*
X11336426Y5666892D01*
X11347551Y5658053D01*
X11359692Y5650687D01*
X11372697Y5644946D01*
X11386312Y5640882D01*
X11400332Y5638647D01*
G37*
G36*
X11414556Y5892190D02*
G01*
X11428679Y5893511D01*
X11442547Y5896711D01*
X11455908Y5901588D01*
X11468506Y5908192D01*
X11480139Y5916320D01*
X11490655Y5925870D01*
X11499850Y5936691D01*
X11507622Y5948578D01*
X11513769Y5961380D01*
X11518239Y5974892D01*
X11520982Y5988812D01*
X11521897Y6002985D01*
X11520982Y6017158D01*
X11518239Y6031128D01*
X11513769Y6044590D01*
X11507622Y6057392D01*
X11499850Y6069330D01*
X11490655Y6080150D01*
X11480139Y6089700D01*
X11468506Y6097828D01*
X11455908Y6104382D01*
X11442547Y6109309D01*
X11428679Y6112459D01*
X11414556Y6113830D01*
X11400332Y6113373D01*
X11386312Y6111087D01*
X11372697Y6107074D01*
X11359692Y6101334D01*
X11347551Y6093968D01*
X11336426Y6085078D01*
X11326571Y6074867D01*
X11318087Y6063488D01*
X11311077Y6051092D01*
X11305743Y6037935D01*
X11302136Y6024219D01*
X11300358Y6010097D01*
X11300358Y5995873D01*
X11302136Y5981801D01*
X11305743Y5968034D01*
X11311077Y5954877D01*
X11318087Y5942482D01*
X11326571Y5931103D01*
X11336426Y5920892D01*
X11347551Y5912053D01*
X11359692Y5904687D01*
X11372697Y5898946D01*
X11386312Y5894882D01*
X11400332Y5892647D01*
G37*
G36*
X13192556Y5892190D02*
G01*
X13206679Y5893511D01*
X13220547Y5896711D01*
X13233907Y5901588D01*
X13246506Y5908192D01*
X13258139Y5916320D01*
X13268655Y5925870D01*
X13277850Y5936691D01*
X13285622Y5948578D01*
X13291769Y5961380D01*
X13296239Y5974892D01*
X13298982Y5988812D01*
X13299897Y6002985D01*
X13298982Y6017158D01*
X13296239Y6031128D01*
X13291769Y6044590D01*
X13285622Y6057392D01*
X13277850Y6069330D01*
X13268655Y6080150D01*
X13258139Y6089700D01*
X13246506Y6097828D01*
X13233907Y6104382D01*
X13220547Y6109309D01*
X13206679Y6112459D01*
X13192556Y6113830D01*
X13178332Y6113373D01*
X13164312Y6111087D01*
X13150697Y6107074D01*
X13137692Y6101334D01*
X13125551Y6093968D01*
X13114426Y6085078D01*
X13104571Y6074867D01*
X13096087Y6063488D01*
X13089077Y6051092D01*
X13083743Y6037935D01*
X13080136Y6024219D01*
X13078358Y6010097D01*
X13078358Y5995873D01*
X13080136Y5981801D01*
X13083743Y5968034D01*
X13089077Y5954877D01*
X13096087Y5942482D01*
X13104571Y5931103D01*
X13114426Y5920892D01*
X13125551Y5912053D01*
X13137692Y5904687D01*
X13150697Y5898946D01*
X13164312Y5894882D01*
X13178332Y5892647D01*
G37*
G36*
X1380998Y5964834D02*
G01*
X1404213Y5965799D01*
X1427276Y5968644D01*
X1450035Y5973419D01*
X1472285Y5980074D01*
X1493926Y5988507D01*
X1514805Y5998718D01*
X1534769Y6010605D01*
X1553718Y6024118D01*
X1571447Y6039154D01*
X1587855Y6055563D01*
X1602892Y6073292D01*
X1616405Y6092190D01*
X1628292Y6112154D01*
X1638503Y6133033D01*
X1646936Y6154724D01*
X1653590Y6176975D01*
X1658315Y6199733D01*
X1661210Y6222796D01*
X1662175Y6246012D01*
X1661210Y6269228D01*
X1658315Y6292291D01*
X1653590Y6314998D01*
X1646936Y6337300D01*
X1638503Y6358940D01*
X1628292Y6379819D01*
X1616405Y6399784D01*
X1602892Y6418681D01*
X1587855Y6436410D01*
X1571447Y6452870D01*
X1553718Y6467906D01*
X1534769Y6481368D01*
X1514805Y6493256D01*
X1493926Y6503466D01*
X1472285Y6511950D01*
X1450035Y6518554D01*
X1427276Y6523329D01*
X1404213Y6526225D01*
X1380998Y6527190D01*
X1357782Y6526225D01*
X1334719Y6523329D01*
X1311960Y6518554D01*
X1289710Y6511950D01*
X1268069Y6503466D01*
X1247190Y6493256D01*
X1227226Y6481368D01*
X1208278Y6467906D01*
X1190548Y6452870D01*
X1174140Y6436410D01*
X1159103Y6418681D01*
X1145590Y6399784D01*
X1133703Y6379819D01*
X1123492Y6358940D01*
X1115060Y6337300D01*
X1108456Y6314998D01*
X1103680Y6292291D01*
X1100785Y6269228D01*
X1099820Y6246012D01*
X1100785Y6222796D01*
X1103680Y6199733D01*
X1108456Y6176975D01*
X1115060Y6154724D01*
X1123492Y6133033D01*
X1133703Y6112154D01*
X1145590Y6092190D01*
X1159103Y6073292D01*
X1174140Y6055563D01*
X1190548Y6039154D01*
X1208278Y6024118D01*
X1227226Y6010605D01*
X1247190Y5998718D01*
X1268069Y5988507D01*
X1289710Y5980074D01*
X1311960Y5973419D01*
X1334719Y5968644D01*
X1357782Y5965799D01*
G37*
G36*
X3881018Y5964834D02*
G01*
X3904234Y5965799D01*
X3927297Y5968644D01*
X3950004Y5973419D01*
X3972306Y5980074D01*
X3993946Y5988507D01*
X4014825Y5998718D01*
X4034790Y6010605D01*
X4053687Y6024118D01*
X4071416Y6039154D01*
X4087876Y6055563D01*
X4102862Y6073292D01*
X4116374Y6092190D01*
X4128262Y6112154D01*
X4138472Y6133033D01*
X4146956Y6154724D01*
X4153560Y6176975D01*
X4158335Y6199733D01*
X4161231Y6222796D01*
X4162145Y6246012D01*
X4161231Y6269228D01*
X4158335Y6292291D01*
X4153560Y6314998D01*
X4146956Y6337300D01*
X4138472Y6358940D01*
X4128262Y6379819D01*
X4116374Y6399784D01*
X4102862Y6418681D01*
X4087876Y6436410D01*
X4071416Y6452870D01*
X4053687Y6467906D01*
X4034790Y6481368D01*
X4014825Y6493256D01*
X3993946Y6503466D01*
X3972306Y6511950D01*
X3950004Y6518554D01*
X3927297Y6523329D01*
X3904234Y6526225D01*
X3881018Y6527190D01*
X3857802Y6526225D01*
X3834739Y6523329D01*
X3811981Y6518554D01*
X3789679Y6511950D01*
X3768039Y6503466D01*
X3747160Y6493256D01*
X3727196Y6481368D01*
X3708298Y6467906D01*
X3690569Y6452870D01*
X3674160Y6436410D01*
X3659124Y6418681D01*
X3645611Y6399784D01*
X3633724Y6379819D01*
X3623513Y6358940D01*
X3615080Y6337300D01*
X3608425Y6314998D01*
X3603650Y6292291D01*
X3600805Y6269228D01*
X3599840Y6246012D01*
X3600805Y6222796D01*
X3603650Y6199733D01*
X3608425Y6176975D01*
X3615080Y6154724D01*
X3623513Y6133033D01*
X3633724Y6112154D01*
X3645611Y6092190D01*
X3659124Y6073292D01*
X3674160Y6055563D01*
X3690569Y6039154D01*
X3708298Y6024118D01*
X3727196Y6010605D01*
X3747160Y5998718D01*
X3768039Y5988507D01*
X3789679Y5980074D01*
X3811981Y5973419D01*
X3834739Y5968644D01*
X3857802Y5965799D01*
G37*
G36*
X6380988Y5964834D02*
G01*
X6404203Y5965799D01*
X6427266Y5968644D01*
X6450025Y5973419D01*
X6472275Y5980074D01*
X6493967Y5988507D01*
X6514846Y5998718D01*
X6534810Y6010605D01*
X6553708Y6024118D01*
X6571437Y6039154D01*
X6587845Y6055563D01*
X6602882Y6073292D01*
X6616395Y6092190D01*
X6628282Y6112154D01*
X6638493Y6133033D01*
X6646925Y6154724D01*
X6653580Y6176975D01*
X6658356Y6199733D01*
X6661200Y6222796D01*
X6662166Y6246012D01*
X6661200Y6269228D01*
X6658356Y6292291D01*
X6653580Y6314998D01*
X6646925Y6337300D01*
X6638493Y6358940D01*
X6628282Y6379819D01*
X6616395Y6399784D01*
X6602882Y6418681D01*
X6587845Y6436410D01*
X6571437Y6452870D01*
X6553708Y6467906D01*
X6534810Y6481368D01*
X6514846Y6493256D01*
X6493967Y6503466D01*
X6472275Y6511950D01*
X6450025Y6518554D01*
X6427266Y6523329D01*
X6404203Y6526225D01*
X6380988Y6527190D01*
X6357772Y6526225D01*
X6334709Y6523329D01*
X6312001Y6518554D01*
X6289700Y6511950D01*
X6268059Y6503466D01*
X6247180Y6493256D01*
X6227216Y6481368D01*
X6208318Y6467906D01*
X6190589Y6452870D01*
X6174130Y6436410D01*
X6159093Y6418681D01*
X6145631Y6399784D01*
X6133744Y6379819D01*
X6123533Y6358940D01*
X6115050Y6337300D01*
X6108446Y6314998D01*
X6103670Y6292291D01*
X6100775Y6269228D01*
X6099810Y6246012D01*
X6100775Y6222796D01*
X6103670Y6199733D01*
X6108446Y6176975D01*
X6115050Y6154724D01*
X6123533Y6133033D01*
X6133744Y6112154D01*
X6145631Y6092190D01*
X6159093Y6073292D01*
X6174130Y6055563D01*
X6190589Y6039154D01*
X6208318Y6024118D01*
X6227216Y6010605D01*
X6247180Y5998718D01*
X6268059Y5988507D01*
X6289700Y5980074D01*
X6312001Y5973419D01*
X6334709Y5968644D01*
X6357772Y5965799D01*
G37*
G36*
X8881008Y5964834D02*
G01*
X8904224Y5965799D01*
X8927287Y5968644D01*
X8950045Y5973419D01*
X8972296Y5980074D01*
X8993936Y5988507D01*
X9014815Y5998718D01*
X9034780Y6010605D01*
X9053677Y6024118D01*
X9071406Y6039154D01*
X9087866Y6055563D01*
X9102902Y6073292D01*
X9116364Y6092190D01*
X9128302Y6112154D01*
X9138513Y6133033D01*
X9146946Y6154724D01*
X9153550Y6176975D01*
X9158325Y6199733D01*
X9161221Y6222796D01*
X9162186Y6246012D01*
X9161221Y6269228D01*
X9158325Y6292291D01*
X9153550Y6314998D01*
X9146946Y6337300D01*
X9138513Y6358940D01*
X9128302Y6379819D01*
X9116364Y6399784D01*
X9102902Y6418681D01*
X9087866Y6436410D01*
X9071406Y6452870D01*
X9053677Y6467906D01*
X9034780Y6481368D01*
X9014815Y6493256D01*
X8993936Y6503466D01*
X8972296Y6511950D01*
X8950045Y6518554D01*
X8927287Y6523329D01*
X8904224Y6526225D01*
X8881008Y6527190D01*
X8857792Y6526225D01*
X8834729Y6523329D01*
X8811971Y6518554D01*
X8789720Y6511950D01*
X8768080Y6503466D01*
X8747201Y6493256D01*
X8727236Y6481368D01*
X8708288Y6467906D01*
X8690559Y6452870D01*
X8674150Y6436410D01*
X8659114Y6418681D01*
X8645601Y6399784D01*
X8633714Y6379819D01*
X8623503Y6358940D01*
X8615070Y6337300D01*
X8608415Y6314998D01*
X8603691Y6292291D01*
X8600795Y6269228D01*
X8599830Y6246012D01*
X8600795Y6222796D01*
X8603691Y6199733D01*
X8608415Y6176975D01*
X8615070Y6154724D01*
X8623503Y6133033D01*
X8633714Y6112154D01*
X8645601Y6092190D01*
X8659114Y6073292D01*
X8674150Y6055563D01*
X8690559Y6039154D01*
X8708288Y6024118D01*
X8727236Y6010605D01*
X8747201Y5998718D01*
X8768080Y5988507D01*
X8789720Y5980074D01*
X8811971Y5973419D01*
X8834729Y5968644D01*
X8857792Y5965799D01*
G37*
G36*
X1880463Y6088888D02*
G01*
X1897532Y6088888D01*
X1914448Y6090716D01*
X1931111Y6094374D01*
X1947214Y6099860D01*
X1962708Y6106972D01*
X1977288Y6115761D01*
X1990852Y6126073D01*
X2003247Y6137808D01*
X2014270Y6150762D01*
X2023821Y6164884D01*
X2031796Y6179921D01*
X2038096Y6195771D01*
X2042668Y6212179D01*
X2045411Y6228994D01*
X2046325Y6246012D01*
X2045411Y6263030D01*
X2042668Y6279845D01*
X2038096Y6296253D01*
X2031796Y6312052D01*
X2023821Y6327140D01*
X2014270Y6341211D01*
X2003247Y6354216D01*
X1990852Y6365900D01*
X1977288Y6376212D01*
X1962708Y6385001D01*
X1947214Y6392164D01*
X1931111Y6397599D01*
X1914448Y6401257D01*
X1897532Y6403086D01*
X1880463Y6403086D01*
X1863547Y6401257D01*
X1846884Y6397599D01*
X1830781Y6392164D01*
X1815287Y6385001D01*
X1800707Y6376212D01*
X1787143Y6365900D01*
X1774748Y6354216D01*
X1763725Y6341211D01*
X1754174Y6327140D01*
X1746199Y6312052D01*
X1739900Y6296253D01*
X1735328Y6279845D01*
X1732584Y6263030D01*
X1731670Y6246012D01*
X1732584Y6228994D01*
X1735328Y6212179D01*
X1739900Y6195771D01*
X1746199Y6179921D01*
X1754174Y6164884D01*
X1763725Y6150762D01*
X1774748Y6137808D01*
X1787143Y6126073D01*
X1800707Y6115761D01*
X1815287Y6106972D01*
X1830781Y6099860D01*
X1846884Y6094374D01*
X1863547Y6090716D01*
G37*
G36*
X4380484Y6088888D02*
G01*
X4397502Y6088888D01*
X4414469Y6090716D01*
X4431080Y6094374D01*
X4447235Y6099860D01*
X4462678Y6106972D01*
X4477308Y6115761D01*
X4490872Y6126073D01*
X4503216Y6137808D01*
X4514240Y6150762D01*
X4523841Y6164884D01*
X4531817Y6179921D01*
X4538116Y6195771D01*
X4542637Y6212179D01*
X4545431Y6228994D01*
X4546346Y6246012D01*
X4545431Y6263030D01*
X4542637Y6279845D01*
X4538116Y6296253D01*
X4531817Y6312052D01*
X4523841Y6327140D01*
X4514240Y6341211D01*
X4503216Y6354216D01*
X4490872Y6365900D01*
X4477308Y6376212D01*
X4462678Y6385001D01*
X4447235Y6392164D01*
X4431080Y6397599D01*
X4414469Y6401257D01*
X4397502Y6403086D01*
X4380484Y6403086D01*
X4363567Y6401257D01*
X4346905Y6397599D01*
X4330750Y6392164D01*
X4315307Y6385001D01*
X4300728Y6376212D01*
X4287164Y6365900D01*
X4274769Y6354216D01*
X4263745Y6341211D01*
X4254195Y6327140D01*
X4246219Y6312052D01*
X4239920Y6296253D01*
X4235348Y6279845D01*
X4232605Y6263030D01*
X4231640Y6246012D01*
X4232605Y6228994D01*
X4235348Y6212179D01*
X4239920Y6195771D01*
X4246219Y6179921D01*
X4254195Y6164884D01*
X4263745Y6150762D01*
X4274769Y6137808D01*
X4287164Y6126073D01*
X4300728Y6115761D01*
X4315307Y6106972D01*
X4330750Y6099860D01*
X4346905Y6094374D01*
X4363567Y6090716D01*
G37*
G36*
X6880504Y6088888D02*
G01*
X6897522Y6088888D01*
X6914438Y6090716D01*
X6931101Y6094374D01*
X6947255Y6099860D01*
X6962698Y6106972D01*
X6977278Y6115761D01*
X6990842Y6126073D01*
X7003237Y6137808D01*
X7014260Y6150762D01*
X7023811Y6164884D01*
X7031786Y6179921D01*
X7038086Y6195771D01*
X7042658Y6212179D01*
X7045401Y6228994D01*
X7046315Y6246012D01*
X7045401Y6263030D01*
X7042658Y6279845D01*
X7038086Y6296253D01*
X7031786Y6312052D01*
X7023811Y6327140D01*
X7014260Y6341211D01*
X7003237Y6354216D01*
X6990842Y6365900D01*
X6977278Y6376212D01*
X6962698Y6385001D01*
X6947255Y6392164D01*
X6931101Y6397599D01*
X6914438Y6401257D01*
X6897522Y6403086D01*
X6880504Y6403086D01*
X6863537Y6401257D01*
X6846925Y6397599D01*
X6830771Y6392164D01*
X6815277Y6385001D01*
X6800697Y6376212D01*
X6787134Y6365900D01*
X6774789Y6354216D01*
X6763766Y6341211D01*
X6754164Y6327140D01*
X6746189Y6312052D01*
X6739890Y6296253D01*
X6735318Y6279845D01*
X6732574Y6263030D01*
X6731660Y6246012D01*
X6732574Y6228994D01*
X6735318Y6212179D01*
X6739890Y6195771D01*
X6746189Y6179921D01*
X6754164Y6164884D01*
X6763766Y6150762D01*
X6774789Y6137808D01*
X6787134Y6126073D01*
X6800697Y6115761D01*
X6815277Y6106972D01*
X6830771Y6099860D01*
X6846925Y6094374D01*
X6863537Y6090716D01*
G37*
G36*
X9380474Y6088888D02*
G01*
X9397542Y6088888D01*
X9414459Y6090716D01*
X9431070Y6094374D01*
X9447225Y6099860D01*
X9462719Y6106972D01*
X9477298Y6115761D01*
X9490862Y6126073D01*
X9503206Y6137808D01*
X9514281Y6150762D01*
X9523831Y6164884D01*
X9531807Y6179921D01*
X9538106Y6195771D01*
X9542678Y6212179D01*
X9545421Y6228994D01*
X9546336Y6246012D01*
X9545421Y6263030D01*
X9542678Y6279845D01*
X9538106Y6296253D01*
X9531807Y6312052D01*
X9523831Y6327140D01*
X9514281Y6341211D01*
X9503206Y6354216D01*
X9490862Y6365900D01*
X9477298Y6376212D01*
X9462719Y6385001D01*
X9447225Y6392164D01*
X9431070Y6397599D01*
X9414459Y6401257D01*
X9397542Y6403086D01*
X9380474Y6403086D01*
X9363557Y6401257D01*
X9346895Y6397599D01*
X9330740Y6392164D01*
X9315297Y6385001D01*
X9300718Y6376212D01*
X9287154Y6365900D01*
X9274759Y6354216D01*
X9263735Y6341211D01*
X9254185Y6327140D01*
X9246209Y6312052D01*
X9239910Y6296253D01*
X9235338Y6279845D01*
X9232595Y6263030D01*
X9231680Y6246012D01*
X9232595Y6228994D01*
X9235338Y6212179D01*
X9239910Y6195771D01*
X9246209Y6179921D01*
X9254185Y6164884D01*
X9263735Y6150762D01*
X9274759Y6137808D01*
X9287154Y6126073D01*
X9300718Y6115761D01*
X9315297Y6106972D01*
X9330740Y6099860D01*
X9346895Y6094374D01*
X9363557Y6090716D01*
G37*
G36*
X3364484Y6088888D02*
G01*
X3381501Y6088888D01*
X3398469Y6090716D01*
X3415080Y6094374D01*
X3431235Y6099860D01*
X3446678Y6106972D01*
X3461308Y6115761D01*
X3474872Y6126073D01*
X3487216Y6137808D01*
X3498240Y6150762D01*
X3507841Y6164884D01*
X3515817Y6179921D01*
X3522116Y6195771D01*
X3526637Y6212179D01*
X3529431Y6228994D01*
X3530346Y6246012D01*
X3529431Y6263030D01*
X3526637Y6279845D01*
X3522116Y6296253D01*
X3515817Y6312052D01*
X3507841Y6327140D01*
X3498037Y6341516D01*
X3496157Y6344767D01*
X3495598Y6348526D01*
X3496462Y6352235D01*
X3498646Y6355334D01*
X3501796Y6357416D01*
X3505454Y6358229D01*
X3512159Y6358432D01*
X3528212Y6360718D01*
X3543909Y6364833D01*
X3559048Y6370726D01*
X3573373Y6378295D01*
X3586784Y6387490D01*
X3599027Y6398107D01*
X3610000Y6410045D01*
X3619550Y6423152D01*
X3627526Y6437325D01*
X3633825Y6452260D01*
X3638397Y6467805D01*
X3641191Y6483807D01*
X3642106Y6500012D01*
X3641191Y6516217D01*
X3638397Y6532168D01*
X3633825Y6547764D01*
X3627526Y6562699D01*
X3619550Y6576822D01*
X3610000Y6589928D01*
X3599027Y6601917D01*
X3586784Y6612534D01*
X3573373Y6621678D01*
X3559048Y6629247D01*
X3543909Y6635140D01*
X3528212Y6639255D01*
X3512159Y6641592D01*
X3495954Y6642049D01*
X3479800Y6640626D01*
X3463899Y6637426D01*
X3448456Y6632397D01*
X3433673Y6625691D01*
X3419805Y6617309D01*
X3406952Y6607403D01*
X3395319Y6596075D01*
X3385058Y6583527D01*
X3376269Y6569862D01*
X3369106Y6555333D01*
X3363671Y6540042D01*
X3359962Y6524244D01*
X3358134Y6508089D01*
X3358134Y6491884D01*
X3359962Y6475780D01*
X3363671Y6459982D01*
X3369106Y6444691D01*
X3376269Y6430111D01*
X3383584Y6418783D01*
X3385108Y6414719D01*
X3384753Y6410401D01*
X3382721Y6406591D01*
X3379266Y6404000D01*
X3375050Y6403086D01*
X3364484Y6403086D01*
X3347567Y6401257D01*
X3330905Y6397599D01*
X3314750Y6392164D01*
X3299307Y6385001D01*
X3284728Y6376212D01*
X3271164Y6365900D01*
X3258769Y6354216D01*
X3247745Y6341211D01*
X3238195Y6327140D01*
X3230219Y6312052D01*
X3223920Y6296253D01*
X3219348Y6279845D01*
X3216605Y6263030D01*
X3215640Y6246012D01*
X3216605Y6228994D01*
X3219348Y6212179D01*
X3223920Y6195771D01*
X3230219Y6179921D01*
X3238195Y6164884D01*
X3247745Y6150762D01*
X3258769Y6137808D01*
X3271164Y6126073D01*
X3284728Y6115761D01*
X3299307Y6106972D01*
X3314750Y6099860D01*
X3330905Y6094374D01*
X3347567Y6090716D01*
G37*
G36*
X5864504Y6088888D02*
G01*
X5881522Y6088888D01*
X5898438Y6090716D01*
X5915101Y6094374D01*
X5931255Y6099860D01*
X5946698Y6106972D01*
X5961278Y6115761D01*
X5974842Y6126073D01*
X5987237Y6137808D01*
X5998260Y6150762D01*
X6007811Y6164884D01*
X6015786Y6179921D01*
X6022086Y6195771D01*
X6026658Y6212179D01*
X6029401Y6228994D01*
X6030315Y6246012D01*
X6029401Y6263030D01*
X6026658Y6279845D01*
X6022086Y6296253D01*
X6015786Y6312052D01*
X6007811Y6327140D01*
X5998006Y6341516D01*
X5996127Y6344767D01*
X5995619Y6348526D01*
X5996482Y6352235D01*
X5998616Y6355334D01*
X6001766Y6357416D01*
X6005474Y6358229D01*
X6012180Y6358432D01*
X6028232Y6360718D01*
X6043930Y6364833D01*
X6059017Y6370726D01*
X6073394Y6378295D01*
X6086754Y6387490D01*
X6099048Y6398107D01*
X6110020Y6410045D01*
X6119520Y6423152D01*
X6127496Y6437325D01*
X6133846Y6452260D01*
X6138418Y6467805D01*
X6141161Y6483807D01*
X6142075Y6500012D01*
X6141161Y6516217D01*
X6138418Y6532168D01*
X6133846Y6547764D01*
X6127496Y6562699D01*
X6119520Y6576822D01*
X6110020Y6589928D01*
X6099048Y6601917D01*
X6086754Y6612534D01*
X6073394Y6621678D01*
X6059017Y6629247D01*
X6043930Y6635140D01*
X6028232Y6639255D01*
X6012180Y6641592D01*
X5995924Y6642049D01*
X5979769Y6640626D01*
X5963869Y6637426D01*
X5948426Y6632397D01*
X5933694Y6625691D01*
X5919774Y6617309D01*
X5906922Y6607403D01*
X5895289Y6596075D01*
X5885027Y6583527D01*
X5876290Y6569862D01*
X5869127Y6555333D01*
X5863640Y6540042D01*
X5859983Y6524244D01*
X5858154Y6508089D01*
X5858154Y6491884D01*
X5859983Y6475780D01*
X5863640Y6459982D01*
X5869127Y6444691D01*
X5876290Y6430111D01*
X5883554Y6418783D01*
X5885078Y6414719D01*
X5884773Y6410401D01*
X5882690Y6406591D01*
X5879236Y6404000D01*
X5875020Y6403086D01*
X5864504Y6403086D01*
X5847537Y6401257D01*
X5830925Y6397599D01*
X5814771Y6392164D01*
X5799277Y6385001D01*
X5784697Y6376212D01*
X5771134Y6365900D01*
X5758789Y6354216D01*
X5747766Y6341211D01*
X5738164Y6327140D01*
X5730189Y6312052D01*
X5723890Y6296253D01*
X5719318Y6279845D01*
X5716574Y6263030D01*
X5715660Y6246012D01*
X5716574Y6228994D01*
X5719318Y6212179D01*
X5723890Y6195771D01*
X5730189Y6179921D01*
X5738164Y6164884D01*
X5747766Y6150762D01*
X5758789Y6137808D01*
X5771134Y6126073D01*
X5784697Y6115761D01*
X5799277Y6106972D01*
X5814771Y6099860D01*
X5830925Y6094374D01*
X5847537Y6090716D01*
G37*
G36*
X8364474Y6088888D02*
G01*
X8381542Y6088888D01*
X8398459Y6090716D01*
X8415070Y6094374D01*
X8431225Y6099860D01*
X8446719Y6106972D01*
X8461298Y6115761D01*
X8474862Y6126073D01*
X8487206Y6137808D01*
X8498281Y6150762D01*
X8507831Y6164884D01*
X8515807Y6179921D01*
X8522106Y6195771D01*
X8526678Y6212179D01*
X8529421Y6228994D01*
X8530336Y6246012D01*
X8529421Y6263030D01*
X8526678Y6279845D01*
X8522106Y6296253D01*
X8515807Y6312052D01*
X8507831Y6327140D01*
X8498027Y6341516D01*
X8496147Y6344767D01*
X8495588Y6348526D01*
X8496503Y6352235D01*
X8498636Y6355334D01*
X8501786Y6357416D01*
X8505444Y6358229D01*
X8512149Y6358432D01*
X8528202Y6360718D01*
X8543899Y6364833D01*
X8559038Y6370726D01*
X8573363Y6378295D01*
X8586774Y6387490D01*
X8599017Y6398107D01*
X8609990Y6410045D01*
X8619540Y6423152D01*
X8627516Y6437325D01*
X8633815Y6452260D01*
X8638387Y6467805D01*
X8641181Y6483807D01*
X8642096Y6500012D01*
X8641181Y6516217D01*
X8638387Y6532168D01*
X8633815Y6547764D01*
X8627516Y6562699D01*
X8619540Y6576822D01*
X8609990Y6589928D01*
X8599017Y6601917D01*
X8586774Y6612534D01*
X8573363Y6621678D01*
X8559038Y6629247D01*
X8543899Y6635140D01*
X8528202Y6639255D01*
X8512149Y6641592D01*
X8495944Y6642049D01*
X8479790Y6640626D01*
X8463889Y6637426D01*
X8448446Y6632397D01*
X8433714Y6625691D01*
X8419795Y6617309D01*
X8406942Y6607403D01*
X8395309Y6596075D01*
X8385048Y6583527D01*
X8376259Y6569862D01*
X8369096Y6555333D01*
X8363661Y6540042D01*
X8360003Y6524244D01*
X8358124Y6508089D01*
X8358124Y6491884D01*
X8360003Y6475780D01*
X8363661Y6459982D01*
X8369096Y6444691D01*
X8376259Y6430111D01*
X8383574Y6418783D01*
X8385098Y6414719D01*
X8384794Y6410401D01*
X8382711Y6406591D01*
X8379256Y6404000D01*
X8375040Y6403086D01*
X8364474Y6403086D01*
X8347557Y6401257D01*
X8330895Y6397599D01*
X8314740Y6392164D01*
X8299297Y6385001D01*
X8284718Y6376212D01*
X8271154Y6365900D01*
X8258759Y6354216D01*
X8247735Y6341211D01*
X8238185Y6327140D01*
X8230209Y6312052D01*
X8223910Y6296253D01*
X8219338Y6279845D01*
X8216595Y6263030D01*
X8215680Y6246012D01*
X8216595Y6228994D01*
X8219338Y6212179D01*
X8223910Y6195771D01*
X8230209Y6179921D01*
X8238185Y6164884D01*
X8247735Y6150762D01*
X8258759Y6137808D01*
X8271154Y6126073D01*
X8284718Y6115761D01*
X8299297Y6106972D01*
X8314740Y6099860D01*
X8330895Y6094374D01*
X8347557Y6090716D01*
G37*
G36*
X864463Y6088888D02*
G01*
X881532Y6088888D01*
X898448Y6090716D01*
X915111Y6094374D01*
X931214Y6099860D01*
X946708Y6106972D01*
X961288Y6115761D01*
X974852Y6126073D01*
X987247Y6137808D01*
X998270Y6150762D01*
X1007821Y6164884D01*
X1015796Y6179921D01*
X1022096Y6195771D01*
X1026668Y6212179D01*
X1029411Y6228994D01*
X1030325Y6246012D01*
X1029411Y6263030D01*
X1026668Y6279845D01*
X1022096Y6296253D01*
X1015796Y6312052D01*
X1007821Y6327140D01*
X998016Y6341516D01*
X996137Y6344767D01*
X995629Y6348526D01*
X996492Y6352235D01*
X998626Y6355334D01*
X1001776Y6357416D01*
X1005484Y6358229D01*
X1012139Y6358432D01*
X1028242Y6360718D01*
X1043889Y6364833D01*
X1059027Y6370726D01*
X1073404Y6378295D01*
X1086764Y6387490D01*
X1099058Y6398107D01*
X1109980Y6410045D01*
X1119530Y6423152D01*
X1127506Y6437325D01*
X1133856Y6452260D01*
X1138428Y6467805D01*
X1141171Y6483807D01*
X1142085Y6500012D01*
X1141171Y6516217D01*
X1138428Y6532168D01*
X1133856Y6547764D01*
X1127506Y6562699D01*
X1119530Y6576822D01*
X1109980Y6589928D01*
X1099058Y6601917D01*
X1086764Y6612534D01*
X1073404Y6621678D01*
X1059027Y6629247D01*
X1043889Y6635140D01*
X1028242Y6639255D01*
X1012139Y6641592D01*
X995934Y6642049D01*
X979779Y6640626D01*
X963879Y6637426D01*
X948436Y6632397D01*
X933703Y6625691D01*
X919784Y6617309D01*
X906932Y6607403D01*
X895299Y6596075D01*
X885037Y6583527D01*
X876249Y6569862D01*
X869137Y6555333D01*
X863650Y6540042D01*
X859993Y6524244D01*
X858113Y6508089D01*
X858113Y6491884D01*
X859993Y6475780D01*
X863650Y6459982D01*
X869137Y6444691D01*
X876249Y6430111D01*
X883564Y6418783D01*
X885088Y6414719D01*
X884783Y6410401D01*
X882700Y6406591D01*
X879246Y6404000D01*
X875030Y6403086D01*
X864463Y6403086D01*
X847547Y6401257D01*
X830884Y6397599D01*
X814781Y6392164D01*
X799287Y6385001D01*
X784707Y6376212D01*
X771144Y6365900D01*
X758748Y6354216D01*
X747725Y6341211D01*
X738174Y6327140D01*
X730199Y6312052D01*
X723900Y6296253D01*
X719328Y6279845D01*
X716584Y6263030D01*
X715670Y6246012D01*
X716584Y6228994D01*
X719328Y6212179D01*
X723900Y6195771D01*
X730199Y6179921D01*
X738174Y6164884D01*
X747725Y6150762D01*
X758748Y6137808D01*
X771144Y6126073D01*
X784707Y6115761D01*
X799287Y6106972D01*
X814781Y6099860D01*
X830884Y6094374D01*
X847547Y6090716D01*
G37*
G36*
X11414556Y6146190D02*
G01*
X11428679Y6147511D01*
X11442547Y6150711D01*
X11455908Y6155588D01*
X11468506Y6162192D01*
X11480139Y6170320D01*
X11490655Y6179870D01*
X11499850Y6190691D01*
X11507622Y6202578D01*
X11513769Y6215380D01*
X11518239Y6228892D01*
X11520982Y6242812D01*
X11521897Y6256985D01*
X11520982Y6271158D01*
X11518239Y6285128D01*
X11513769Y6298590D01*
X11507622Y6311392D01*
X11499850Y6323330D01*
X11490655Y6334150D01*
X11480139Y6343700D01*
X11468506Y6351828D01*
X11455908Y6358382D01*
X11442547Y6363309D01*
X11428679Y6366459D01*
X11414556Y6367830D01*
X11400332Y6367373D01*
X11386312Y6365087D01*
X11372697Y6361074D01*
X11359692Y6355334D01*
X11347551Y6347968D01*
X11336426Y6339078D01*
X11326571Y6328867D01*
X11318087Y6317488D01*
X11311077Y6305092D01*
X11305743Y6291935D01*
X11302136Y6278219D01*
X11300358Y6264097D01*
X11300358Y6249873D01*
X11302136Y6235801D01*
X11305743Y6222034D01*
X11311077Y6208877D01*
X11318087Y6196482D01*
X11326571Y6185103D01*
X11336426Y6174892D01*
X11347551Y6166053D01*
X11359692Y6158687D01*
X11372697Y6152946D01*
X11386312Y6148882D01*
X11400332Y6146647D01*
G37*
G36*
X1380998Y964844D02*
G01*
X1404213Y965809D01*
X1427276Y968654D01*
X1450035Y973429D01*
X1472285Y980084D01*
X1493926Y988517D01*
X1514805Y998728D01*
X1534769Y1010615D01*
X1553718Y1024128D01*
X1571447Y1039114D01*
X1587855Y1055573D01*
X1602892Y1073302D01*
X1616405Y1092200D01*
X1628292Y1112164D01*
X1638503Y1133043D01*
X1646936Y1154684D01*
X1653590Y1176985D01*
X1658315Y1199743D01*
X1661210Y1222756D01*
X1662175Y1246022D01*
X1661210Y1269238D01*
X1658315Y1292301D01*
X1653590Y1315008D01*
X1646936Y1337310D01*
X1638503Y1358950D01*
X1628292Y1379829D01*
X1616405Y1399794D01*
X1602892Y1418691D01*
X1587855Y1436420D01*
X1571447Y1452880D01*
X1553718Y1467866D01*
X1534769Y1481378D01*
X1514805Y1493266D01*
X1493926Y1503476D01*
X1472285Y1511909D01*
X1450035Y1518564D01*
X1427276Y1523339D01*
X1404213Y1526184D01*
X1380998Y1527149D01*
X1357782Y1526184D01*
X1334719Y1523339D01*
X1311960Y1518564D01*
X1289710Y1511909D01*
X1268069Y1503476D01*
X1247190Y1493266D01*
X1227226Y1481378D01*
X1208278Y1467866D01*
X1190548Y1452880D01*
X1174140Y1436420D01*
X1159103Y1418691D01*
X1145590Y1399794D01*
X1133703Y1379829D01*
X1123492Y1358950D01*
X1115060Y1337310D01*
X1108456Y1315008D01*
X1103680Y1292301D01*
X1100785Y1269238D01*
X1099820Y1246022D01*
X1100785Y1222756D01*
X1103680Y1199743D01*
X1108456Y1176985D01*
X1115060Y1154684D01*
X1123492Y1133043D01*
X1133703Y1112164D01*
X1145590Y1092200D01*
X1159103Y1073302D01*
X1174140Y1055573D01*
X1190548Y1039114D01*
X1208278Y1024128D01*
X1227226Y1010615D01*
X1247190Y998728D01*
X1268069Y988517D01*
X1289710Y980084D01*
X1311960Y973429D01*
X1334719Y968654D01*
X1357782Y965809D01*
G37*
G36*
X11414556Y6400190D02*
G01*
X11428679Y6401511D01*
X11442547Y6404711D01*
X11455908Y6409588D01*
X11468506Y6416192D01*
X11480139Y6424320D01*
X11490655Y6433870D01*
X11499850Y6444691D01*
X11507622Y6456578D01*
X11513769Y6469380D01*
X11518239Y6482892D01*
X11520982Y6496812D01*
X11521897Y6510985D01*
X11520982Y6525158D01*
X11518239Y6539128D01*
X11513769Y6552590D01*
X11507622Y6565392D01*
X11499850Y6577330D01*
X11490655Y6588150D01*
X11480139Y6597700D01*
X11468506Y6605828D01*
X11455908Y6612381D01*
X11442547Y6617309D01*
X11428679Y6620459D01*
X11414556Y6621830D01*
X11400332Y6621373D01*
X11386312Y6619087D01*
X11372697Y6615074D01*
X11359692Y6609334D01*
X11347551Y6601968D01*
X11336426Y6593078D01*
X11326571Y6582867D01*
X11318087Y6571488D01*
X11311077Y6559092D01*
X11305743Y6545935D01*
X11302136Y6532219D01*
X11300358Y6518097D01*
X11300358Y6503873D01*
X11302136Y6489801D01*
X11305743Y6476034D01*
X11311077Y6462877D01*
X11318087Y6450482D01*
X11326571Y6439103D01*
X11336426Y6428892D01*
X11347551Y6420053D01*
X11359692Y6412687D01*
X11372697Y6406946D01*
X11386312Y6402882D01*
X11400332Y6400647D01*
G37*
G36*
X13192556Y6400190D02*
G01*
X13206679Y6401511D01*
X13220547Y6404711D01*
X13233907Y6409588D01*
X13246506Y6416192D01*
X13258139Y6424320D01*
X13268655Y6433870D01*
X13277850Y6444691D01*
X13285622Y6456578D01*
X13291769Y6469380D01*
X13296239Y6482892D01*
X13298982Y6496812D01*
X13299897Y6510985D01*
X13298982Y6525158D01*
X13296239Y6539128D01*
X13291769Y6552590D01*
X13285622Y6565392D01*
X13277850Y6577330D01*
X13268655Y6588150D01*
X13258139Y6597700D01*
X13246506Y6605828D01*
X13233907Y6612381D01*
X13220547Y6617309D01*
X13206679Y6620459D01*
X13192556Y6621830D01*
X13178332Y6621373D01*
X13164312Y6619087D01*
X13150697Y6615074D01*
X13137692Y6609334D01*
X13125551Y6601968D01*
X13114426Y6593078D01*
X13104571Y6582867D01*
X13096087Y6571488D01*
X13089077Y6559092D01*
X13083743Y6545935D01*
X13080136Y6532219D01*
X13078358Y6518097D01*
X13078358Y6503873D01*
X13080136Y6489801D01*
X13083743Y6476034D01*
X13089077Y6462877D01*
X13096087Y6450482D01*
X13104571Y6439103D01*
X13114426Y6428892D01*
X13125551Y6420053D01*
X13137692Y6412687D01*
X13150697Y6406946D01*
X13164312Y6402882D01*
X13178332Y6400647D01*
G37*
G36*
X1570532Y6627469D02*
G01*
X1570532Y6689547D01*
X1508607Y6689547D01*
X1511249Y6684111D01*
X1520037Y6670497D01*
X1530299Y6657898D01*
X1541932Y6646621D01*
X1554784Y6636715D01*
X1568704Y6628333D01*
G37*
G36*
X4070553Y6627469D02*
G01*
X4070553Y6689547D01*
X4008628Y6689547D01*
X4011269Y6684111D01*
X4020058Y6670497D01*
X4030319Y6657898D01*
X4041952Y6646621D01*
X4054805Y6636715D01*
X4068673Y6628333D01*
G37*
G36*
X6570573Y6627469D02*
G01*
X6570573Y6689547D01*
X6508597Y6689547D01*
X6511290Y6684111D01*
X6520027Y6670497D01*
X6530289Y6657898D01*
X6541922Y6646621D01*
X6554774Y6636715D01*
X6568694Y6628333D01*
G37*
G36*
X9070543Y6627469D02*
G01*
X9070543Y6689547D01*
X9008618Y6689547D01*
X9011259Y6684111D01*
X9020048Y6670497D01*
X9030309Y6657898D01*
X9041942Y6646621D01*
X9054795Y6636715D01*
X9068714Y6628333D01*
G37*
G36*
X1699463Y6627622D02*
G01*
X1708404Y6632295D01*
X1721764Y6641490D01*
X1734057Y6652107D01*
X1744980Y6664045D01*
X1754530Y6677152D01*
X1761540Y6689547D01*
X1699463Y6689547D01*
G37*
G36*
X4199432Y6627622D02*
G01*
X4208373Y6632295D01*
X4221784Y6641490D01*
X4234027Y6652107D01*
X4245000Y6664045D01*
X4254550Y6677152D01*
X4261510Y6689547D01*
X4199432Y6689547D01*
G37*
G36*
X6699453Y6627622D02*
G01*
X6708394Y6632295D01*
X6721754Y6641490D01*
X6734048Y6652107D01*
X6745020Y6664045D01*
X6754520Y6677152D01*
X6761530Y6689547D01*
X6699453Y6689547D01*
G37*
G36*
X9199473Y6627622D02*
G01*
X9208363Y6632295D01*
X9221774Y6641490D01*
X9234017Y6652107D01*
X9244990Y6664045D01*
X9254540Y6677152D01*
X9261551Y6689547D01*
X9199473Y6689547D01*
G37*
G36*
X13104571Y6654088D02*
G01*
X13140131Y6654088D01*
X13140131Y6716166D01*
X13078104Y6716166D01*
X13078104Y6680555D01*
X13078815Y6674256D01*
X13080695Y6668770D01*
X13083794Y6663893D01*
X13087908Y6659778D01*
X13092785Y6656730D01*
X13098271Y6654800D01*
G37*
G36*
X11459870Y6654088D02*
G01*
X11495430Y6654088D01*
X11501729Y6654800D01*
X11507216Y6656730D01*
X11512092Y6659778D01*
X11516207Y6663893D01*
X11519306Y6668770D01*
X11521186Y6674256D01*
X11521897Y6680555D01*
X11521897Y6716166D01*
X11459870Y6716166D01*
G37*
G36*
X13237870Y6654088D02*
G01*
X13273430Y6654088D01*
X13279729Y6654800D01*
X13285216Y6656730D01*
X13290092Y6659778D01*
X13294207Y6663893D01*
X13297306Y6668770D01*
X13299186Y6674256D01*
X13299897Y6680555D01*
X13299897Y6716166D01*
X13237870Y6716166D01*
G37*
G36*
X11326571Y6654088D02*
G01*
X11362131Y6654088D01*
X11362131Y6716166D01*
X11300104Y6716166D01*
X11300104Y6680555D01*
X11300815Y6674256D01*
X11302695Y6668770D01*
X11305794Y6663893D01*
X11309908Y6659778D01*
X11314785Y6656730D01*
X11320272Y6654800D01*
G37*
G36*
X13078104Y6813854D02*
G01*
X13140131Y6813854D01*
X13140131Y6875932D01*
X13104571Y6875932D01*
X13098271Y6875221D01*
X13092785Y6873290D01*
X13087908Y6870192D01*
X13083794Y6866128D01*
X13080695Y6861200D01*
X13078815Y6855764D01*
X13078104Y6849414D01*
G37*
G36*
X11459870Y6813854D02*
G01*
X11521897Y6813854D01*
X11521897Y6849414D01*
X11521186Y6855764D01*
X11519306Y6861200D01*
X11516207Y6866128D01*
X11512092Y6870192D01*
X11507216Y6873290D01*
X11501729Y6875221D01*
X11495430Y6875932D01*
X11459870Y6875932D01*
G37*
G36*
X11300104Y6813854D02*
G01*
X11362131Y6813854D01*
X11362131Y6875932D01*
X11326571Y6875932D01*
X11320272Y6875221D01*
X11314785Y6873290D01*
X11309908Y6870192D01*
X11305794Y6866128D01*
X11302695Y6861200D01*
X11300815Y6855764D01*
X11300104Y6849414D01*
G37*
G36*
X13237870Y6813854D02*
G01*
X13299897Y6813854D01*
X13299897Y6849414D01*
X13299186Y6855764D01*
X13297306Y6861200D01*
X13294207Y6866128D01*
X13290092Y6870192D01*
X13285216Y6873290D01*
X13279729Y6875221D01*
X13273430Y6875932D01*
X13237870Y6875932D01*
G37*
G36*
X1699463Y6818426D02*
G01*
X1761540Y6818426D01*
X1754530Y6830822D01*
X1744980Y6843928D01*
X1734057Y6855917D01*
X1721764Y6866534D01*
X1708404Y6875678D01*
X1699463Y6880402D01*
G37*
G36*
X4199432Y6818426D02*
G01*
X4261510Y6818426D01*
X4254550Y6830822D01*
X4245000Y6843928D01*
X4234027Y6855917D01*
X4221784Y6866534D01*
X4208373Y6875678D01*
X4199432Y6880402D01*
G37*
G36*
X9199473Y6818426D02*
G01*
X9261551Y6818426D01*
X9254540Y6830822D01*
X9244990Y6843928D01*
X9234017Y6855917D01*
X9221774Y6866534D01*
X9208363Y6875678D01*
X9199473Y6880402D01*
G37*
G36*
X6699453Y6818426D02*
G01*
X6761530Y6818426D01*
X6754520Y6830822D01*
X6745020Y6843928D01*
X6734048Y6855917D01*
X6721754Y6866534D01*
X6708394Y6875678D01*
X6699453Y6880402D01*
G37*
G36*
X1508607Y6818426D02*
G01*
X1570532Y6818426D01*
X1570532Y6880504D01*
X1568704Y6879691D01*
X1554784Y6871309D01*
X1541932Y6861403D01*
X1530299Y6850075D01*
X1520037Y6837527D01*
X1511249Y6823862D01*
G37*
G36*
X4008628Y6818426D02*
G01*
X4070553Y6818426D01*
X4070553Y6880504D01*
X4068673Y6879691D01*
X4054805Y6871309D01*
X4041952Y6861403D01*
X4030319Y6850075D01*
X4020058Y6837527D01*
X4011269Y6823862D01*
G37*
G36*
X6508597Y6818426D02*
G01*
X6570573Y6818426D01*
X6570573Y6880504D01*
X6568694Y6879691D01*
X6554774Y6871309D01*
X6541922Y6861403D01*
X6530289Y6850075D01*
X6520027Y6837527D01*
X6511290Y6823862D01*
G37*
G36*
X9008618Y6818426D02*
G01*
X9070543Y6818426D01*
X9070543Y6880504D01*
X9068714Y6879691D01*
X9054795Y6871309D01*
X9041942Y6861403D01*
X9030309Y6850075D01*
X9020048Y6837527D01*
X9011259Y6823862D01*
G37*
G36*
X13192556Y6908190D02*
G01*
X13206679Y6909511D01*
X13220547Y6912711D01*
X13233907Y6917588D01*
X13246506Y6924192D01*
X13258139Y6932320D01*
X13268655Y6941870D01*
X13277850Y6952691D01*
X13285622Y6964578D01*
X13291769Y6977380D01*
X13296239Y6990892D01*
X13298982Y7004812D01*
X13299897Y7018985D01*
X13298982Y7033158D01*
X13296239Y7047128D01*
X13291769Y7060590D01*
X13285622Y7073392D01*
X13277850Y7085330D01*
X13268655Y7096150D01*
X13258139Y7105700D01*
X13246506Y7113828D01*
X13233907Y7120381D01*
X13220547Y7125309D01*
X13206679Y7128459D01*
X13192556Y7129830D01*
X13178332Y7129373D01*
X13164312Y7127087D01*
X13150697Y7123074D01*
X13137692Y7117334D01*
X13125551Y7109968D01*
X13114426Y7101078D01*
X13104571Y7090867D01*
X13096087Y7079488D01*
X13089077Y7067092D01*
X13083743Y7053935D01*
X13080136Y7040219D01*
X13078358Y7026097D01*
X13078358Y7011873D01*
X13080136Y6997801D01*
X13083743Y6984034D01*
X13089077Y6970877D01*
X13096087Y6958482D01*
X13104571Y6947103D01*
X13114426Y6936892D01*
X13125551Y6928053D01*
X13137692Y6920687D01*
X13150697Y6914946D01*
X13164312Y6910882D01*
X13178332Y6908647D01*
G37*
G36*
X11414556Y6908190D02*
G01*
X11428679Y6909511D01*
X11442547Y6912711D01*
X11455908Y6917588D01*
X11468506Y6924192D01*
X11480139Y6932320D01*
X11490655Y6941870D01*
X11499850Y6952691D01*
X11507622Y6964578D01*
X11513769Y6977380D01*
X11518239Y6990892D01*
X11520982Y7004812D01*
X11521897Y7018985D01*
X11520982Y7033158D01*
X11518239Y7047128D01*
X11513769Y7060590D01*
X11507622Y7073392D01*
X11499850Y7085330D01*
X11490655Y7096150D01*
X11480139Y7105700D01*
X11468506Y7113828D01*
X11455908Y7120381D01*
X11442547Y7125309D01*
X11428679Y7128459D01*
X11414556Y7129830D01*
X11400332Y7129373D01*
X11386312Y7127087D01*
X11372697Y7123074D01*
X11359692Y7117334D01*
X11347551Y7109968D01*
X11336426Y7101078D01*
X11326571Y7090867D01*
X11318087Y7079488D01*
X11311077Y7067092D01*
X11305743Y7053935D01*
X11302136Y7040219D01*
X11300358Y7026097D01*
X11300358Y7011873D01*
X11302136Y6997801D01*
X11305743Y6984034D01*
X11311077Y6970877D01*
X11318087Y6958482D01*
X11326571Y6947103D01*
X11336426Y6936892D01*
X11347551Y6928053D01*
X11359692Y6920687D01*
X11372697Y6914946D01*
X11386312Y6910882D01*
X11400332Y6908647D01*
G37*
G36*
X11414556Y7162190D02*
G01*
X11428679Y7163511D01*
X11442547Y7166711D01*
X11455908Y7171588D01*
X11468506Y7178192D01*
X11480139Y7186320D01*
X11490655Y7195870D01*
X11499850Y7206691D01*
X11507622Y7218578D01*
X11513769Y7231380D01*
X11518239Y7244892D01*
X11520982Y7258812D01*
X11521897Y7272985D01*
X11520982Y7287158D01*
X11518239Y7301128D01*
X11513769Y7314590D01*
X11507622Y7327392D01*
X11499850Y7339330D01*
X11490655Y7350150D01*
X11480139Y7359700D01*
X11468506Y7367828D01*
X11455908Y7374381D01*
X11442547Y7379309D01*
X11428679Y7382459D01*
X11414556Y7383830D01*
X11400332Y7383373D01*
X11386312Y7381087D01*
X11372697Y7377074D01*
X11359692Y7371334D01*
X11347551Y7363968D01*
X11336426Y7355078D01*
X11326571Y7344867D01*
X11318087Y7333488D01*
X11311077Y7321092D01*
X11305743Y7307935D01*
X11302136Y7294219D01*
X11300358Y7280097D01*
X11300358Y7265873D01*
X11302136Y7251801D01*
X11305743Y7238034D01*
X11311077Y7224877D01*
X11318087Y7212482D01*
X11326571Y7201103D01*
X11336426Y7190892D01*
X11347551Y7182053D01*
X11359692Y7174687D01*
X11372697Y7168946D01*
X11386312Y7164882D01*
X11400332Y7162647D01*
G37*
G36*
X13192556Y7162190D02*
G01*
X13206679Y7163511D01*
X13220547Y7166711D01*
X13233907Y7171588D01*
X13246506Y7178192D01*
X13258139Y7186320D01*
X13268655Y7195870D01*
X13277850Y7206691D01*
X13285622Y7218578D01*
X13291769Y7231380D01*
X13296239Y7244892D01*
X13298982Y7258812D01*
X13299897Y7272985D01*
X13298982Y7287158D01*
X13296239Y7301128D01*
X13291769Y7314590D01*
X13285622Y7327392D01*
X13277850Y7339330D01*
X13268655Y7350150D01*
X13258139Y7359700D01*
X13246506Y7367828D01*
X13233907Y7374381D01*
X13220547Y7379309D01*
X13206679Y7382459D01*
X13192556Y7383830D01*
X13178332Y7383373D01*
X13164312Y7381087D01*
X13150697Y7377074D01*
X13137692Y7371334D01*
X13125551Y7363968D01*
X13114426Y7355078D01*
X13104571Y7344867D01*
X13096087Y7333488D01*
X13089077Y7321092D01*
X13083743Y7307935D01*
X13080136Y7294219D01*
X13078358Y7280097D01*
X13078358Y7265873D01*
X13080136Y7251801D01*
X13083743Y7238034D01*
X13089077Y7224877D01*
X13096087Y7212482D01*
X13104571Y7201103D01*
X13114426Y7190892D01*
X13125551Y7182053D01*
X13137692Y7174687D01*
X13150697Y7168946D01*
X13164312Y7164882D01*
X13178332Y7162647D01*
G37*
G36*
X13192556Y7416190D02*
G01*
X13206679Y7417511D01*
X13220547Y7420711D01*
X13233907Y7425588D01*
X13246506Y7432192D01*
X13258139Y7440320D01*
X13268655Y7449870D01*
X13277850Y7460691D01*
X13285622Y7472578D01*
X13291769Y7485380D01*
X13296239Y7498892D01*
X13298982Y7512812D01*
X13299897Y7526985D01*
X13298982Y7541158D01*
X13296239Y7555128D01*
X13291769Y7568590D01*
X13285622Y7581392D01*
X13277850Y7593330D01*
X13268655Y7604150D01*
X13258139Y7613700D01*
X13246506Y7621828D01*
X13233907Y7628381D01*
X13220547Y7633309D01*
X13206679Y7636459D01*
X13192556Y7637830D01*
X13178332Y7637373D01*
X13164312Y7635087D01*
X13150697Y7631074D01*
X13137692Y7625334D01*
X13125551Y7617968D01*
X13114426Y7609078D01*
X13104571Y7598867D01*
X13096087Y7587488D01*
X13089077Y7575092D01*
X13083743Y7561935D01*
X13080136Y7548219D01*
X13078358Y7534097D01*
X13078358Y7519873D01*
X13080136Y7505801D01*
X13083743Y7492034D01*
X13089077Y7478877D01*
X13096087Y7466482D01*
X13104571Y7455103D01*
X13114426Y7444892D01*
X13125551Y7436053D01*
X13137692Y7428687D01*
X13150697Y7422946D01*
X13164312Y7418882D01*
X13178332Y7416647D01*
G37*
G36*
X11414556Y7416190D02*
G01*
X11428679Y7417511D01*
X11442547Y7420711D01*
X11455908Y7425588D01*
X11468506Y7432192D01*
X11480139Y7440320D01*
X11490655Y7449870D01*
X11499850Y7460691D01*
X11507622Y7472578D01*
X11513769Y7485380D01*
X11518239Y7498892D01*
X11520982Y7512812D01*
X11521897Y7526985D01*
X11520982Y7541158D01*
X11518239Y7555128D01*
X11513769Y7568590D01*
X11507622Y7581392D01*
X11499850Y7593330D01*
X11490655Y7604150D01*
X11480139Y7613700D01*
X11468506Y7621828D01*
X11455908Y7628381D01*
X11442547Y7633309D01*
X11428679Y7636459D01*
X11414556Y7637830D01*
X11400332Y7637373D01*
X11386312Y7635087D01*
X11372697Y7631074D01*
X11359692Y7625334D01*
X11347551Y7617968D01*
X11336426Y7609078D01*
X11326571Y7598867D01*
X11318087Y7587488D01*
X11311077Y7575092D01*
X11305743Y7561935D01*
X11302136Y7548219D01*
X11300358Y7534097D01*
X11300358Y7519873D01*
X11302136Y7505801D01*
X11305743Y7492034D01*
X11311077Y7478877D01*
X11318087Y7466482D01*
X11326571Y7455103D01*
X11336426Y7444892D01*
X11347551Y7436053D01*
X11359692Y7428687D01*
X11372697Y7422946D01*
X11386312Y7418882D01*
X11400332Y7416647D01*
G37*
G36*
X13192556Y7670190D02*
G01*
X13206679Y7671511D01*
X13220547Y7674711D01*
X13233907Y7679588D01*
X13246506Y7686192D01*
X13258139Y7694320D01*
X13268655Y7703870D01*
X13277850Y7714691D01*
X13285622Y7726578D01*
X13291769Y7739380D01*
X13296239Y7752892D01*
X13298982Y7766812D01*
X13299897Y7780985D01*
X13298982Y7795158D01*
X13296239Y7809128D01*
X13291769Y7822590D01*
X13285622Y7835392D01*
X13277850Y7847330D01*
X13268655Y7858150D01*
X13258139Y7867700D01*
X13246506Y7875828D01*
X13233907Y7882381D01*
X13220547Y7887309D01*
X13206679Y7890459D01*
X13192556Y7891830D01*
X13178332Y7891373D01*
X13164312Y7889087D01*
X13150697Y7885074D01*
X13137692Y7879334D01*
X13125551Y7871968D01*
X13114426Y7863078D01*
X13104571Y7852867D01*
X13096087Y7841488D01*
X13089077Y7829092D01*
X13083743Y7815935D01*
X13080136Y7802219D01*
X13078358Y7788097D01*
X13078358Y7773873D01*
X13080136Y7759801D01*
X13083743Y7746034D01*
X13089077Y7732877D01*
X13096087Y7720482D01*
X13104571Y7709103D01*
X13114426Y7698892D01*
X13125551Y7690053D01*
X13137692Y7682687D01*
X13150697Y7676946D01*
X13164312Y7672882D01*
X13178332Y7670647D01*
G37*
G36*
X11414556Y7670190D02*
G01*
X11428679Y7671511D01*
X11442547Y7674711D01*
X11455908Y7679588D01*
X11468506Y7686192D01*
X11480139Y7694320D01*
X11490655Y7703870D01*
X11499850Y7714691D01*
X11507622Y7726578D01*
X11513769Y7739380D01*
X11518239Y7752892D01*
X11520982Y7766812D01*
X11521897Y7780985D01*
X11520982Y7795158D01*
X11518239Y7809128D01*
X11513769Y7822590D01*
X11507622Y7835392D01*
X11499850Y7847330D01*
X11490655Y7858150D01*
X11480139Y7867700D01*
X11468506Y7875828D01*
X11455908Y7882381D01*
X11442547Y7887309D01*
X11428679Y7890459D01*
X11414556Y7891830D01*
X11400332Y7891373D01*
X11386312Y7889087D01*
X11372697Y7885074D01*
X11359692Y7879334D01*
X11347551Y7871968D01*
X11336426Y7863078D01*
X11326571Y7852867D01*
X11318087Y7841488D01*
X11311077Y7829092D01*
X11305743Y7815935D01*
X11302136Y7802219D01*
X11300358Y7788097D01*
X11300358Y7773873D01*
X11302136Y7759801D01*
X11305743Y7746034D01*
X11311077Y7732877D01*
X11318087Y7720482D01*
X11326571Y7709103D01*
X11336426Y7698892D01*
X11347551Y7690053D01*
X11359692Y7682687D01*
X11372697Y7676946D01*
X11386312Y7672882D01*
X11400332Y7670647D01*
G37*
G36*
X11459870Y7924088D02*
G01*
X11495430Y7924088D01*
X11501729Y7924800D01*
X11507216Y7926730D01*
X11512092Y7929778D01*
X11516207Y7933893D01*
X11519306Y7938770D01*
X11521186Y7944256D01*
X11521897Y7950555D01*
X11521897Y7986166D01*
X11459870Y7986166D01*
G37*
G36*
X11326571Y7924088D02*
G01*
X11362131Y7924088D01*
X11362131Y7986166D01*
X11300104Y7986166D01*
X11300104Y7950555D01*
X11300815Y7944256D01*
X11302695Y7938770D01*
X11305794Y7933893D01*
X11309908Y7929778D01*
X11314785Y7926730D01*
X11320272Y7924800D01*
G37*
G36*
X13104571Y7924088D02*
G01*
X13273430Y7924088D01*
X13279729Y7924800D01*
X13285216Y7926730D01*
X13290092Y7929778D01*
X13294207Y7933893D01*
X13297306Y7938770D01*
X13299186Y7944256D01*
X13299897Y7950555D01*
X13299897Y8119414D01*
X13299186Y8125764D01*
X13297306Y8131200D01*
X13294207Y8136128D01*
X13290092Y8140192D01*
X13285216Y8143290D01*
X13279729Y8145221D01*
X13273430Y8145932D01*
X13104571Y8145932D01*
X13098271Y8145221D01*
X13092785Y8143290D01*
X13087908Y8140192D01*
X13083794Y8136128D01*
X13080695Y8131200D01*
X13078815Y8125764D01*
X13078104Y8119414D01*
X13078104Y7950555D01*
X13078815Y7944256D01*
X13080695Y7938770D01*
X13083794Y7933893D01*
X13087908Y7929778D01*
X13092785Y7926730D01*
X13098271Y7924800D01*
G37*
G36*
X11459870Y8083854D02*
G01*
X11521897Y8083854D01*
X11521897Y8119414D01*
X11521186Y8125764D01*
X11519306Y8131200D01*
X11516207Y8136128D01*
X11512092Y8140192D01*
X11507216Y8143290D01*
X11501729Y8145221D01*
X11495430Y8145932D01*
X11459870Y8145932D01*
G37*
G36*
X11300104Y8083854D02*
G01*
X11362131Y8083854D01*
X11362131Y8145932D01*
X11326571Y8145932D01*
X11320272Y8145221D01*
X11314785Y8143290D01*
X11309908Y8140192D01*
X11305794Y8136128D01*
X11302695Y8131200D01*
X11300815Y8125764D01*
X11300104Y8119414D01*
G37*
G36*
X11414556Y8178190D02*
G01*
X11428679Y8179511D01*
X11442547Y8182711D01*
X11455908Y8187588D01*
X11468506Y8194192D01*
X11480139Y8202320D01*
X11490655Y8211870D01*
X11499850Y8222691D01*
X11507622Y8234578D01*
X11513769Y8247380D01*
X11518239Y8260892D01*
X11520982Y8274812D01*
X11521897Y8288985D01*
X11520982Y8303158D01*
X11518239Y8317128D01*
X11513769Y8330590D01*
X11507622Y8343392D01*
X11499850Y8355330D01*
X11490655Y8366150D01*
X11480139Y8375700D01*
X11468506Y8383828D01*
X11455908Y8390382D01*
X11442547Y8395309D01*
X11428679Y8398459D01*
X11414556Y8399830D01*
X11400332Y8399373D01*
X11386312Y8397087D01*
X11372697Y8393074D01*
X11359692Y8387334D01*
X11347551Y8379968D01*
X11336426Y8371078D01*
X11326571Y8360867D01*
X11318087Y8349488D01*
X11311077Y8337092D01*
X11305743Y8323935D01*
X11302136Y8310219D01*
X11300358Y8296097D01*
X11300358Y8281873D01*
X11302136Y8267801D01*
X11305743Y8254034D01*
X11311077Y8240877D01*
X11318087Y8228482D01*
X11326571Y8217103D01*
X11336426Y8206892D01*
X11347551Y8198053D01*
X11359692Y8190687D01*
X11372697Y8184946D01*
X11386312Y8180882D01*
X11400332Y8178647D01*
G37*
G36*
X13192556Y8178190D02*
G01*
X13206679Y8179511D01*
X13220547Y8182711D01*
X13233907Y8187588D01*
X13246506Y8194192D01*
X13258139Y8202320D01*
X13268655Y8211870D01*
X13277850Y8222691D01*
X13285622Y8234578D01*
X13291769Y8247380D01*
X13296239Y8260892D01*
X13298982Y8274812D01*
X13299897Y8288985D01*
X13298982Y8303158D01*
X13296239Y8317128D01*
X13291769Y8330590D01*
X13285622Y8343392D01*
X13277850Y8355330D01*
X13268655Y8366150D01*
X13258139Y8375700D01*
X13246506Y8383828D01*
X13233907Y8390382D01*
X13220547Y8395309D01*
X13206679Y8398459D01*
X13192556Y8399830D01*
X13178332Y8399373D01*
X13164312Y8397087D01*
X13150697Y8393074D01*
X13137692Y8387334D01*
X13125551Y8379968D01*
X13114426Y8371078D01*
X13104571Y8360867D01*
X13096087Y8349488D01*
X13089077Y8337092D01*
X13083743Y8323935D01*
X13080136Y8310219D01*
X13078358Y8296097D01*
X13078358Y8281873D01*
X13080136Y8267801D01*
X13083743Y8254034D01*
X13089077Y8240877D01*
X13096087Y8228482D01*
X13104571Y8217103D01*
X13114426Y8206892D01*
X13125551Y8198053D01*
X13137692Y8190687D01*
X13150697Y8184946D01*
X13164312Y8180882D01*
X13178332Y8178647D01*
G37*
G36*
X11414556Y8432190D02*
G01*
X11428679Y8433511D01*
X11442547Y8436711D01*
X11455908Y8441588D01*
X11468506Y8448192D01*
X11480139Y8456320D01*
X11490655Y8465870D01*
X11499850Y8476691D01*
X11507622Y8488578D01*
X11513769Y8501380D01*
X11518239Y8514892D01*
X11520982Y8528812D01*
X11521897Y8542985D01*
X11520982Y8557158D01*
X11518239Y8571128D01*
X11513769Y8584590D01*
X11507622Y8597392D01*
X11499850Y8609330D01*
X11490655Y8620150D01*
X11480139Y8629700D01*
X11468506Y8637828D01*
X11455908Y8644382D01*
X11442547Y8649309D01*
X11428679Y8652459D01*
X11414556Y8653830D01*
X11400332Y8653373D01*
X11386312Y8651087D01*
X11372697Y8647074D01*
X11359692Y8641334D01*
X11347551Y8633968D01*
X11336426Y8625078D01*
X11326571Y8614867D01*
X11318087Y8603488D01*
X11311077Y8591092D01*
X11305743Y8577935D01*
X11302136Y8564219D01*
X11300358Y8550097D01*
X11300358Y8535873D01*
X11302136Y8521801D01*
X11305743Y8508034D01*
X11311077Y8494877D01*
X11318087Y8482482D01*
X11326571Y8471103D01*
X11336426Y8460892D01*
X11347551Y8452053D01*
X11359692Y8444687D01*
X11372697Y8438946D01*
X11386312Y8434882D01*
X11400332Y8432647D01*
G37*
G36*
X13192556Y8432190D02*
G01*
X13206679Y8433511D01*
X13220547Y8436711D01*
X13233907Y8441588D01*
X13246506Y8448192D01*
X13258139Y8456320D01*
X13268655Y8465870D01*
X13277850Y8476691D01*
X13285622Y8488578D01*
X13291769Y8501380D01*
X13296239Y8514892D01*
X13298982Y8528812D01*
X13299897Y8542985D01*
X13298982Y8557158D01*
X13296239Y8571128D01*
X13291769Y8584590D01*
X13285622Y8597392D01*
X13277850Y8609330D01*
X13268655Y8620150D01*
X13258139Y8629700D01*
X13246506Y8637828D01*
X13233907Y8644382D01*
X13220547Y8649309D01*
X13206679Y8652459D01*
X13192556Y8653830D01*
X13178332Y8653373D01*
X13164312Y8651087D01*
X13150697Y8647074D01*
X13137692Y8641334D01*
X13125551Y8633968D01*
X13114426Y8625078D01*
X13104571Y8614867D01*
X13096087Y8603488D01*
X13089077Y8591092D01*
X13083743Y8577935D01*
X13080136Y8564219D01*
X13078358Y8550097D01*
X13078358Y8535873D01*
X13080136Y8521801D01*
X13083743Y8508034D01*
X13089077Y8494877D01*
X13096087Y8482482D01*
X13104571Y8471103D01*
X13114426Y8460892D01*
X13125551Y8452053D01*
X13137692Y8444687D01*
X13150697Y8438946D01*
X13164312Y8434882D01*
X13178332Y8432647D01*
G37*
G36*
X1380998Y8464854D02*
G01*
X1404213Y8465769D01*
X1427276Y8468664D01*
X1450035Y8473440D01*
X1472285Y8480044D01*
X1493926Y8488527D01*
X1514805Y8498738D01*
X1534769Y8510625D01*
X1553718Y8524138D01*
X1571447Y8539124D01*
X1587855Y8555583D01*
X1602892Y8573312D01*
X1616405Y8592210D01*
X1628292Y8612174D01*
X1638503Y8633053D01*
X1646936Y8654694D01*
X1653590Y8676995D01*
X1658315Y8699703D01*
X1661210Y8722766D01*
X1662175Y8745982D01*
X1661210Y8769197D01*
X1658315Y8792260D01*
X1653590Y8815019D01*
X1646936Y8837320D01*
X1638503Y8858961D01*
X1628292Y8879840D01*
X1616405Y8899804D01*
X1602892Y8918702D01*
X1587855Y8936431D01*
X1571447Y8952839D01*
X1553718Y8967876D01*
X1534769Y8981389D01*
X1514805Y8993276D01*
X1493926Y9003487D01*
X1472285Y9011920D01*
X1450035Y9018574D01*
X1427276Y9023350D01*
X1404213Y9026194D01*
X1380998Y9027160D01*
X1357782Y9026194D01*
X1334719Y9023350D01*
X1311960Y9018574D01*
X1289710Y9011920D01*
X1268069Y9003487D01*
X1247190Y8993276D01*
X1227226Y8981389D01*
X1208278Y8967876D01*
X1190548Y8952839D01*
X1174140Y8936431D01*
X1159103Y8918702D01*
X1145590Y8899804D01*
X1133703Y8879840D01*
X1123492Y8858961D01*
X1115060Y8837320D01*
X1108456Y8815019D01*
X1103680Y8792260D01*
X1100785Y8769197D01*
X1099820Y8745982D01*
X1100785Y8722766D01*
X1103680Y8699703D01*
X1108456Y8676995D01*
X1115060Y8654694D01*
X1123492Y8633053D01*
X1133703Y8612174D01*
X1145590Y8592210D01*
X1159103Y8573312D01*
X1174140Y8555583D01*
X1190548Y8539124D01*
X1208278Y8524138D01*
X1227226Y8510625D01*
X1247190Y8498738D01*
X1268069Y8488527D01*
X1289710Y8480044D01*
X1311960Y8473440D01*
X1334719Y8468664D01*
X1357782Y8465769D01*
G37*
G36*
X8881008Y8464854D02*
G01*
X8904224Y8465769D01*
X8927287Y8468664D01*
X8950045Y8473440D01*
X8972296Y8480044D01*
X8993936Y8488527D01*
X9014815Y8498738D01*
X9034780Y8510625D01*
X9053677Y8524138D01*
X9071406Y8539124D01*
X9087866Y8555583D01*
X9102902Y8573312D01*
X9116364Y8592210D01*
X9128302Y8612174D01*
X9138513Y8633053D01*
X9146946Y8654694D01*
X9153550Y8676995D01*
X9158325Y8699703D01*
X9161221Y8722766D01*
X9162186Y8745982D01*
X9161221Y8769197D01*
X9158325Y8792260D01*
X9153550Y8815019D01*
X9146946Y8837320D01*
X9138513Y8858961D01*
X9128302Y8879840D01*
X9116364Y8899804D01*
X9102902Y8918702D01*
X9087866Y8936431D01*
X9071406Y8952839D01*
X9053677Y8967876D01*
X9034780Y8981389D01*
X9014815Y8993276D01*
X8993936Y9003487D01*
X8972296Y9011920D01*
X8950045Y9018574D01*
X8927287Y9023350D01*
X8904224Y9026194D01*
X8881008Y9027160D01*
X8857792Y9026194D01*
X8834729Y9023350D01*
X8811971Y9018574D01*
X8789720Y9011920D01*
X8768080Y9003487D01*
X8747201Y8993276D01*
X8727236Y8981389D01*
X8708288Y8967876D01*
X8690559Y8952839D01*
X8674150Y8936431D01*
X8659114Y8918702D01*
X8645601Y8899804D01*
X8633714Y8879840D01*
X8623503Y8858961D01*
X8615070Y8837320D01*
X8608415Y8815019D01*
X8603691Y8792260D01*
X8600795Y8769197D01*
X8599830Y8745982D01*
X8600795Y8722766D01*
X8603691Y8699703D01*
X8608415Y8676995D01*
X8615070Y8654694D01*
X8623503Y8633053D01*
X8633714Y8612174D01*
X8645601Y8592210D01*
X8659114Y8573312D01*
X8674150Y8555583D01*
X8690559Y8539124D01*
X8708288Y8524138D01*
X8727236Y8510625D01*
X8747201Y8498738D01*
X8768080Y8488527D01*
X8789720Y8480044D01*
X8811971Y8473440D01*
X8834729Y8468664D01*
X8857792Y8465769D01*
G37*
G36*
X3881018Y8464854D02*
G01*
X3904234Y8465769D01*
X3927297Y8468664D01*
X3950004Y8473440D01*
X3972306Y8480044D01*
X3993946Y8488527D01*
X4014825Y8498738D01*
X4034790Y8510625D01*
X4053687Y8524138D01*
X4071416Y8539124D01*
X4087876Y8555583D01*
X4102862Y8573312D01*
X4116374Y8592210D01*
X4128262Y8612174D01*
X4138472Y8633053D01*
X4146956Y8654694D01*
X4153560Y8676995D01*
X4158335Y8699703D01*
X4161231Y8722766D01*
X4162145Y8745982D01*
X4161231Y8769197D01*
X4158335Y8792260D01*
X4153560Y8815019D01*
X4146956Y8837320D01*
X4138472Y8858961D01*
X4128262Y8879840D01*
X4116374Y8899804D01*
X4102862Y8918702D01*
X4087876Y8936431D01*
X4071416Y8952839D01*
X4053687Y8967876D01*
X4034790Y8981389D01*
X4014825Y8993276D01*
X3993946Y9003487D01*
X3972306Y9011920D01*
X3950004Y9018574D01*
X3927297Y9023350D01*
X3904234Y9026194D01*
X3881018Y9027160D01*
X3857802Y9026194D01*
X3834739Y9023350D01*
X3811981Y9018574D01*
X3789679Y9011920D01*
X3768039Y9003487D01*
X3747160Y8993276D01*
X3727196Y8981389D01*
X3708298Y8967876D01*
X3690569Y8952839D01*
X3674160Y8936431D01*
X3659124Y8918702D01*
X3645611Y8899804D01*
X3633724Y8879840D01*
X3623513Y8858961D01*
X3615080Y8837320D01*
X3608425Y8815019D01*
X3603650Y8792260D01*
X3600805Y8769197D01*
X3599840Y8745982D01*
X3600805Y8722766D01*
X3603650Y8699703D01*
X3608425Y8676995D01*
X3615080Y8654694D01*
X3623513Y8633053D01*
X3633724Y8612174D01*
X3645611Y8592210D01*
X3659124Y8573312D01*
X3674160Y8555583D01*
X3690569Y8539124D01*
X3708298Y8524138D01*
X3727196Y8510625D01*
X3747160Y8498738D01*
X3768039Y8488527D01*
X3789679Y8480044D01*
X3811981Y8473440D01*
X3834739Y8468664D01*
X3857802Y8465769D01*
G37*
G36*
X6380988Y8464854D02*
G01*
X6404203Y8465769D01*
X6427266Y8468664D01*
X6450025Y8473440D01*
X6472275Y8480044D01*
X6493967Y8488527D01*
X6514846Y8498738D01*
X6534810Y8510625D01*
X6553708Y8524138D01*
X6571437Y8539124D01*
X6587845Y8555583D01*
X6602882Y8573312D01*
X6616395Y8592210D01*
X6628282Y8612174D01*
X6638493Y8633053D01*
X6646925Y8654694D01*
X6653580Y8676995D01*
X6658356Y8699703D01*
X6661200Y8722766D01*
X6662166Y8745982D01*
X6661200Y8769197D01*
X6658356Y8792260D01*
X6653580Y8815019D01*
X6646925Y8837320D01*
X6638493Y8858961D01*
X6628282Y8879840D01*
X6616395Y8899804D01*
X6602882Y8918702D01*
X6587845Y8936431D01*
X6571437Y8952839D01*
X6553708Y8967876D01*
X6534810Y8981389D01*
X6514846Y8993276D01*
X6493967Y9003487D01*
X6472275Y9011920D01*
X6450025Y9018574D01*
X6427266Y9023350D01*
X6404203Y9026194D01*
X6380988Y9027160D01*
X6357772Y9026194D01*
X6334709Y9023350D01*
X6312001Y9018574D01*
X6289700Y9011920D01*
X6268059Y9003487D01*
X6247180Y8993276D01*
X6227216Y8981389D01*
X6208318Y8967876D01*
X6190589Y8952839D01*
X6174130Y8936431D01*
X6159093Y8918702D01*
X6145631Y8899804D01*
X6133744Y8879840D01*
X6123533Y8858961D01*
X6115050Y8837320D01*
X6108446Y8815019D01*
X6103670Y8792260D01*
X6100775Y8769197D01*
X6099810Y8745982D01*
X6100775Y8722766D01*
X6103670Y8699703D01*
X6108446Y8676995D01*
X6115050Y8654694D01*
X6123533Y8633053D01*
X6133744Y8612174D01*
X6145631Y8592210D01*
X6159093Y8573312D01*
X6174130Y8555583D01*
X6190589Y8539124D01*
X6208318Y8524138D01*
X6227216Y8510625D01*
X6247180Y8498738D01*
X6268059Y8488527D01*
X6289700Y8480044D01*
X6312001Y8473440D01*
X6334709Y8468664D01*
X6357772Y8465769D01*
G37*
G36*
X1880463Y8588908D02*
G01*
X1897532Y8588908D01*
X1914448Y8590737D01*
X1931111Y8594394D01*
X1947214Y8599830D01*
X1962708Y8606993D01*
X1977288Y8615781D01*
X1990852Y8626094D01*
X2003247Y8637778D01*
X2014270Y8650782D01*
X2023821Y8664905D01*
X2031796Y8679942D01*
X2038096Y8695740D01*
X2042668Y8712200D01*
X2045411Y8728964D01*
X2046325Y8745982D01*
X2045411Y8763000D01*
X2042668Y8779814D01*
X2038096Y8796223D01*
X2031796Y8812072D01*
X2023821Y8827109D01*
X2014270Y8841232D01*
X2003247Y8854186D01*
X1990852Y8865920D01*
X1977288Y8876233D01*
X1962708Y8885021D01*
X1947214Y8892184D01*
X1931111Y8897620D01*
X1914448Y8901277D01*
X1897532Y8903106D01*
X1880463Y8903106D01*
X1863547Y8901277D01*
X1846884Y8897620D01*
X1830781Y8892184D01*
X1815287Y8885021D01*
X1800707Y8876233D01*
X1787143Y8865920D01*
X1774748Y8854186D01*
X1763725Y8841232D01*
X1754174Y8827109D01*
X1746199Y8812072D01*
X1739900Y8796223D01*
X1735328Y8779814D01*
X1732584Y8763000D01*
X1731670Y8745982D01*
X1732584Y8728964D01*
X1735328Y8712200D01*
X1739900Y8695740D01*
X1746199Y8679942D01*
X1754174Y8664905D01*
X1763725Y8650782D01*
X1774748Y8637778D01*
X1787143Y8626094D01*
X1800707Y8615781D01*
X1815287Y8606993D01*
X1830781Y8599830D01*
X1846884Y8594394D01*
X1863547Y8590737D01*
G37*
G36*
X4380484Y8588908D02*
G01*
X4397502Y8588908D01*
X4414469Y8590737D01*
X4431080Y8594394D01*
X4447235Y8599830D01*
X4462678Y8606993D01*
X4477308Y8615781D01*
X4490872Y8626094D01*
X4503216Y8637778D01*
X4514240Y8650782D01*
X4523841Y8664905D01*
X4531817Y8679942D01*
X4538116Y8695740D01*
X4542637Y8712200D01*
X4545431Y8728964D01*
X4546346Y8745982D01*
X4545431Y8763000D01*
X4542637Y8779814D01*
X4538116Y8796223D01*
X4531817Y8812072D01*
X4523841Y8827109D01*
X4514240Y8841232D01*
X4503216Y8854186D01*
X4490872Y8865920D01*
X4477308Y8876233D01*
X4462678Y8885021D01*
X4447235Y8892184D01*
X4431080Y8897620D01*
X4414469Y8901277D01*
X4397502Y8903106D01*
X4380484Y8903106D01*
X4363567Y8901277D01*
X4346905Y8897620D01*
X4330750Y8892184D01*
X4315307Y8885021D01*
X4300728Y8876233D01*
X4287164Y8865920D01*
X4274769Y8854186D01*
X4263745Y8841232D01*
X4254195Y8827109D01*
X4246219Y8812072D01*
X4239920Y8796223D01*
X4235348Y8779814D01*
X4232605Y8763000D01*
X4231640Y8745982D01*
X4232605Y8728964D01*
X4235348Y8712200D01*
X4239920Y8695740D01*
X4246219Y8679942D01*
X4254195Y8664905D01*
X4263745Y8650782D01*
X4274769Y8637778D01*
X4287164Y8626094D01*
X4300728Y8615781D01*
X4315307Y8606993D01*
X4330750Y8599830D01*
X4346905Y8594394D01*
X4363567Y8590737D01*
G37*
G36*
X9380474Y8588908D02*
G01*
X9397542Y8588908D01*
X9414459Y8590737D01*
X9431070Y8594394D01*
X9447225Y8599830D01*
X9462719Y8606993D01*
X9477298Y8615781D01*
X9490862Y8626094D01*
X9503206Y8637778D01*
X9514281Y8650782D01*
X9523831Y8664905D01*
X9531807Y8679942D01*
X9538106Y8695740D01*
X9542678Y8712200D01*
X9545421Y8728964D01*
X9546336Y8745982D01*
X9545421Y8763000D01*
X9542678Y8779814D01*
X9538106Y8796223D01*
X9531807Y8812072D01*
X9523831Y8827109D01*
X9514281Y8841232D01*
X9503206Y8854186D01*
X9490862Y8865920D01*
X9477298Y8876233D01*
X9462719Y8885021D01*
X9447225Y8892184D01*
X9431070Y8897620D01*
X9414459Y8901277D01*
X9397542Y8903106D01*
X9380474Y8903106D01*
X9363557Y8901277D01*
X9346895Y8897620D01*
X9330740Y8892184D01*
X9315297Y8885021D01*
X9300718Y8876233D01*
X9287154Y8865920D01*
X9274759Y8854186D01*
X9263735Y8841232D01*
X9254185Y8827109D01*
X9246209Y8812072D01*
X9239910Y8796223D01*
X9235338Y8779814D01*
X9232595Y8763000D01*
X9231680Y8745982D01*
X9232595Y8728964D01*
X9235338Y8712200D01*
X9239910Y8695740D01*
X9246209Y8679942D01*
X9254185Y8664905D01*
X9263735Y8650782D01*
X9274759Y8637778D01*
X9287154Y8626094D01*
X9300718Y8615781D01*
X9315297Y8606993D01*
X9330740Y8599830D01*
X9346895Y8594394D01*
X9363557Y8590737D01*
G37*
G36*
X6880504Y8588908D02*
G01*
X6897522Y8588908D01*
X6914438Y8590737D01*
X6931101Y8594394D01*
X6947255Y8599830D01*
X6962698Y8606993D01*
X6977278Y8615781D01*
X6990842Y8626094D01*
X7003237Y8637778D01*
X7014260Y8650782D01*
X7023811Y8664905D01*
X7031786Y8679942D01*
X7038086Y8695740D01*
X7042658Y8712200D01*
X7045401Y8728964D01*
X7046315Y8745982D01*
X7045401Y8763000D01*
X7042658Y8779814D01*
X7038086Y8796223D01*
X7031786Y8812072D01*
X7023811Y8827109D01*
X7014260Y8841232D01*
X7003237Y8854186D01*
X6990842Y8865920D01*
X6977278Y8876233D01*
X6962698Y8885021D01*
X6947255Y8892184D01*
X6931101Y8897620D01*
X6914438Y8901277D01*
X6897522Y8903106D01*
X6880504Y8903106D01*
X6863537Y8901277D01*
X6846925Y8897620D01*
X6830771Y8892184D01*
X6815277Y8885021D01*
X6800697Y8876233D01*
X6787134Y8865920D01*
X6774789Y8854186D01*
X6763766Y8841232D01*
X6754164Y8827109D01*
X6746189Y8812072D01*
X6739890Y8796223D01*
X6735318Y8779814D01*
X6732574Y8763000D01*
X6731660Y8745982D01*
X6732574Y8728964D01*
X6735318Y8712200D01*
X6739890Y8695740D01*
X6746189Y8679942D01*
X6754164Y8664905D01*
X6763766Y8650782D01*
X6774789Y8637778D01*
X6787134Y8626094D01*
X6800697Y8615781D01*
X6815277Y8606993D01*
X6830771Y8599830D01*
X6846925Y8594394D01*
X6863537Y8590737D01*
G37*
G36*
X3364484Y8588908D02*
G01*
X3381501Y8588908D01*
X3398469Y8590737D01*
X3415080Y8594394D01*
X3431235Y8599830D01*
X3446678Y8606993D01*
X3461308Y8615781D01*
X3474872Y8626094D01*
X3487216Y8637778D01*
X3498240Y8650782D01*
X3507841Y8664905D01*
X3515817Y8679942D01*
X3522116Y8695740D01*
X3526637Y8712200D01*
X3529431Y8728964D01*
X3530346Y8745982D01*
X3529431Y8763000D01*
X3526637Y8779814D01*
X3522116Y8796223D01*
X3515817Y8812072D01*
X3507841Y8827109D01*
X3498037Y8841486D01*
X3496157Y8844788D01*
X3495598Y8848547D01*
X3496462Y8852204D01*
X3498646Y8855303D01*
X3501796Y8857437D01*
X3505454Y8858250D01*
X3512159Y8858402D01*
X3528212Y8860739D01*
X3543909Y8864854D01*
X3559048Y8870746D01*
X3573373Y8878316D01*
X3586784Y8887460D01*
X3599027Y8898077D01*
X3610000Y8910066D01*
X3619550Y8923172D01*
X3627526Y8937294D01*
X3633825Y8952230D01*
X3638397Y8967825D01*
X3641191Y8983776D01*
X3642106Y8999982D01*
X3641191Y9016187D01*
X3638397Y9032189D01*
X3633825Y9047734D01*
X3627526Y9062720D01*
X3619550Y9076842D01*
X3610000Y9089948D01*
X3599027Y9101886D01*
X3586784Y9112504D01*
X3573373Y9121698D01*
X3559048Y9129268D01*
X3543909Y9135160D01*
X3528212Y9139275D01*
X3512159Y9141561D01*
X3495954Y9142018D01*
X3479800Y9140647D01*
X3463899Y9137446D01*
X3448456Y9132417D01*
X3433673Y9125661D01*
X3419805Y9117279D01*
X3406952Y9107373D01*
X3395319Y9096095D01*
X3385058Y9083497D01*
X3376269Y9069882D01*
X3369106Y9055303D01*
X3363671Y9040012D01*
X3359962Y9024213D01*
X3358134Y9008110D01*
X3358134Y8991904D01*
X3359962Y8975750D01*
X3363671Y8959951D01*
X3369106Y8944660D01*
X3376269Y8930132D01*
X3383584Y8918752D01*
X3385108Y8914688D01*
X3384753Y8910421D01*
X3382721Y8906611D01*
X3379266Y8904020D01*
X3375050Y8903106D01*
X3364484Y8903106D01*
X3347567Y8901277D01*
X3330905Y8897620D01*
X3314750Y8892184D01*
X3299307Y8885021D01*
X3284728Y8876233D01*
X3271164Y8865920D01*
X3258769Y8854186D01*
X3247745Y8841232D01*
X3238195Y8827109D01*
X3230219Y8812072D01*
X3223920Y8796223D01*
X3219348Y8779814D01*
X3216605Y8763000D01*
X3215640Y8745982D01*
X3216605Y8728964D01*
X3219348Y8712200D01*
X3223920Y8695740D01*
X3230219Y8679942D01*
X3238195Y8664905D01*
X3247745Y8650782D01*
X3258769Y8637778D01*
X3271164Y8626094D01*
X3284728Y8615781D01*
X3299307Y8606993D01*
X3314750Y8599830D01*
X3330905Y8594394D01*
X3347567Y8590737D01*
G37*
G36*
X5864504Y8588908D02*
G01*
X5881522Y8588908D01*
X5898438Y8590737D01*
X5915101Y8594394D01*
X5931255Y8599830D01*
X5946698Y8606993D01*
X5961278Y8615781D01*
X5974842Y8626094D01*
X5987237Y8637778D01*
X5998260Y8650782D01*
X6007811Y8664905D01*
X6015786Y8679942D01*
X6022086Y8695740D01*
X6026658Y8712200D01*
X6029401Y8728964D01*
X6030315Y8745982D01*
X6029401Y8763000D01*
X6026658Y8779814D01*
X6022086Y8796223D01*
X6015786Y8812072D01*
X6007811Y8827109D01*
X5998006Y8841486D01*
X5996127Y8844788D01*
X5995619Y8848547D01*
X5996482Y8852204D01*
X5998616Y8855303D01*
X6001766Y8857437D01*
X6005474Y8858250D01*
X6012180Y8858402D01*
X6028232Y8860739D01*
X6043930Y8864854D01*
X6059017Y8870746D01*
X6073394Y8878316D01*
X6086754Y8887460D01*
X6099048Y8898077D01*
X6110020Y8910066D01*
X6119520Y8923172D01*
X6127496Y8937294D01*
X6133846Y8952230D01*
X6138418Y8967825D01*
X6141161Y8983776D01*
X6142075Y8999982D01*
X6141161Y9016187D01*
X6138418Y9032189D01*
X6133846Y9047734D01*
X6127496Y9062720D01*
X6119520Y9076842D01*
X6110020Y9089948D01*
X6099048Y9101886D01*
X6086754Y9112504D01*
X6073394Y9121698D01*
X6059017Y9129268D01*
X6043930Y9135160D01*
X6028232Y9139275D01*
X6012180Y9141561D01*
X5995924Y9142018D01*
X5979769Y9140647D01*
X5963869Y9137446D01*
X5948426Y9132417D01*
X5933694Y9125661D01*
X5919774Y9117279D01*
X5906922Y9107373D01*
X5895289Y9096095D01*
X5885027Y9083497D01*
X5876290Y9069882D01*
X5869127Y9055303D01*
X5863640Y9040012D01*
X5859983Y9024213D01*
X5858154Y9008110D01*
X5858154Y8991904D01*
X5859983Y8975750D01*
X5863640Y8959951D01*
X5869127Y8944660D01*
X5876290Y8930132D01*
X5883554Y8918752D01*
X5885078Y8914688D01*
X5884773Y8910421D01*
X5882690Y8906611D01*
X5879236Y8904020D01*
X5875020Y8903106D01*
X5864504Y8903106D01*
X5847537Y8901277D01*
X5830925Y8897620D01*
X5814771Y8892184D01*
X5799277Y8885021D01*
X5784697Y8876233D01*
X5771134Y8865920D01*
X5758789Y8854186D01*
X5747766Y8841232D01*
X5738164Y8827109D01*
X5730189Y8812072D01*
X5723890Y8796223D01*
X5719318Y8779814D01*
X5716574Y8763000D01*
X5715660Y8745982D01*
X5716574Y8728964D01*
X5719318Y8712200D01*
X5723890Y8695740D01*
X5730189Y8679942D01*
X5738164Y8664905D01*
X5747766Y8650782D01*
X5758789Y8637778D01*
X5771134Y8626094D01*
X5784697Y8615781D01*
X5799277Y8606993D01*
X5814771Y8599830D01*
X5830925Y8594394D01*
X5847537Y8590737D01*
G37*
G36*
X8364474Y8588908D02*
G01*
X8381542Y8588908D01*
X8398459Y8590737D01*
X8415070Y8594394D01*
X8431225Y8599830D01*
X8446719Y8606993D01*
X8461298Y8615781D01*
X8474862Y8626094D01*
X8487206Y8637778D01*
X8498281Y8650782D01*
X8507831Y8664905D01*
X8515807Y8679942D01*
X8522106Y8695740D01*
X8526678Y8712200D01*
X8529421Y8728964D01*
X8530336Y8745982D01*
X8529421Y8763000D01*
X8526678Y8779814D01*
X8522106Y8796223D01*
X8515807Y8812072D01*
X8507831Y8827109D01*
X8498027Y8841486D01*
X8496147Y8844788D01*
X8495588Y8848547D01*
X8496503Y8852204D01*
X8498636Y8855303D01*
X8501786Y8857437D01*
X8505444Y8858250D01*
X8512149Y8858402D01*
X8528202Y8860739D01*
X8543899Y8864854D01*
X8559038Y8870746D01*
X8573363Y8878316D01*
X8586774Y8887460D01*
X8599017Y8898077D01*
X8609990Y8910066D01*
X8619540Y8923172D01*
X8627516Y8937294D01*
X8633815Y8952230D01*
X8638387Y8967825D01*
X8641181Y8983776D01*
X8642096Y8999982D01*
X8641181Y9016187D01*
X8638387Y9032189D01*
X8633815Y9047734D01*
X8627516Y9062720D01*
X8619540Y9076842D01*
X8609990Y9089948D01*
X8599017Y9101886D01*
X8586774Y9112504D01*
X8573363Y9121698D01*
X8559038Y9129268D01*
X8543899Y9135160D01*
X8528202Y9139275D01*
X8512149Y9141561D01*
X8495944Y9142018D01*
X8479790Y9140647D01*
X8463889Y9137446D01*
X8448446Y9132417D01*
X8433714Y9125661D01*
X8419795Y9117279D01*
X8406942Y9107373D01*
X8395309Y9096095D01*
X8385048Y9083497D01*
X8376259Y9069882D01*
X8369096Y9055303D01*
X8363661Y9040012D01*
X8360003Y9024213D01*
X8358124Y9008110D01*
X8358124Y8991904D01*
X8360003Y8975750D01*
X8363661Y8959951D01*
X8369096Y8944660D01*
X8376259Y8930132D01*
X8383574Y8918752D01*
X8385098Y8914688D01*
X8384794Y8910421D01*
X8382711Y8906611D01*
X8379256Y8904020D01*
X8375040Y8903106D01*
X8364474Y8903106D01*
X8347557Y8901277D01*
X8330895Y8897620D01*
X8314740Y8892184D01*
X8299297Y8885021D01*
X8284718Y8876233D01*
X8271154Y8865920D01*
X8258759Y8854186D01*
X8247735Y8841232D01*
X8238185Y8827109D01*
X8230209Y8812072D01*
X8223910Y8796223D01*
X8219338Y8779814D01*
X8216595Y8763000D01*
X8215680Y8745982D01*
X8216595Y8728964D01*
X8219338Y8712200D01*
X8223910Y8695740D01*
X8230209Y8679942D01*
X8238185Y8664905D01*
X8247735Y8650782D01*
X8258759Y8637778D01*
X8271154Y8626094D01*
X8284718Y8615781D01*
X8299297Y8606993D01*
X8314740Y8599830D01*
X8330895Y8594394D01*
X8347557Y8590737D01*
G37*
G36*
X864463Y8588908D02*
G01*
X881532Y8588908D01*
X898448Y8590737D01*
X915111Y8594394D01*
X931214Y8599830D01*
X946708Y8606993D01*
X961288Y8615781D01*
X974852Y8626094D01*
X987247Y8637778D01*
X998270Y8650782D01*
X1007821Y8664905D01*
X1015796Y8679942D01*
X1022096Y8695740D01*
X1026668Y8712200D01*
X1029411Y8728964D01*
X1030325Y8745982D01*
X1029411Y8763000D01*
X1026668Y8779814D01*
X1022096Y8796223D01*
X1015796Y8812072D01*
X1007821Y8827109D01*
X998016Y8841486D01*
X996137Y8844788D01*
X995629Y8848547D01*
X996492Y8852204D01*
X998626Y8855303D01*
X1001776Y8857437D01*
X1005484Y8858250D01*
X1012139Y8858402D01*
X1028242Y8860739D01*
X1043889Y8864854D01*
X1059027Y8870746D01*
X1073404Y8878316D01*
X1086764Y8887460D01*
X1099058Y8898077D01*
X1109980Y8910066D01*
X1119530Y8923172D01*
X1127506Y8937294D01*
X1133856Y8952230D01*
X1138428Y8967825D01*
X1141171Y8983776D01*
X1142085Y8999982D01*
X1141171Y9016187D01*
X1138428Y9032189D01*
X1133856Y9047734D01*
X1127506Y9062720D01*
X1119530Y9076842D01*
X1109980Y9089948D01*
X1099058Y9101886D01*
X1086764Y9112504D01*
X1073404Y9121698D01*
X1059027Y9129268D01*
X1043889Y9135160D01*
X1028242Y9139275D01*
X1012139Y9141561D01*
X995934Y9142018D01*
X979779Y9140647D01*
X963879Y9137446D01*
X948436Y9132417D01*
X933703Y9125661D01*
X919784Y9117279D01*
X906932Y9107373D01*
X895299Y9096095D01*
X885037Y9083497D01*
X876249Y9069882D01*
X869137Y9055303D01*
X863650Y9040012D01*
X859993Y9024213D01*
X858113Y9008110D01*
X858113Y8991904D01*
X859993Y8975750D01*
X863650Y8959951D01*
X869137Y8944660D01*
X876249Y8930132D01*
X883564Y8918752D01*
X885088Y8914688D01*
X884783Y8910421D01*
X882700Y8906611D01*
X879246Y8904020D01*
X875030Y8903106D01*
X864463Y8903106D01*
X847547Y8901277D01*
X830884Y8897620D01*
X814781Y8892184D01*
X799287Y8885021D01*
X784707Y8876233D01*
X771144Y8865920D01*
X758748Y8854186D01*
X747725Y8841232D01*
X738174Y8827109D01*
X730199Y8812072D01*
X723900Y8796223D01*
X719328Y8779814D01*
X716584Y8763000D01*
X715670Y8745982D01*
X716584Y8728964D01*
X719328Y8712200D01*
X723900Y8695740D01*
X730199Y8679942D01*
X738174Y8664905D01*
X747725Y8650782D01*
X758748Y8637778D01*
X771144Y8626094D01*
X784707Y8615781D01*
X799287Y8606993D01*
X814781Y8599830D01*
X830884Y8594394D01*
X847547Y8590737D01*
G37*
G36*
X13192556Y8686190D02*
G01*
X13206679Y8687511D01*
X13220547Y8690711D01*
X13233907Y8695588D01*
X13246506Y8702192D01*
X13258139Y8710320D01*
X13268655Y8719870D01*
X13277850Y8730691D01*
X13285622Y8742578D01*
X13291769Y8755380D01*
X13296239Y8768892D01*
X13298982Y8782812D01*
X13299897Y8796985D01*
X13298982Y8811158D01*
X13296239Y8825128D01*
X13291769Y8838590D01*
X13285622Y8851392D01*
X13277850Y8863330D01*
X13268655Y8874150D01*
X13258139Y8883700D01*
X13246506Y8891828D01*
X13233907Y8898382D01*
X13220547Y8903309D01*
X13206679Y8906459D01*
X13192556Y8907830D01*
X13178332Y8907373D01*
X13164312Y8905087D01*
X13150697Y8901074D01*
X13137692Y8895334D01*
X13125551Y8887968D01*
X13114426Y8879078D01*
X13104571Y8868867D01*
X13096087Y8857488D01*
X13089077Y8845092D01*
X13083743Y8831935D01*
X13080136Y8818219D01*
X13078358Y8804097D01*
X13078358Y8789873D01*
X13080136Y8775801D01*
X13083743Y8762034D01*
X13089077Y8748877D01*
X13096087Y8736482D01*
X13104571Y8725103D01*
X13114426Y8714892D01*
X13125551Y8706053D01*
X13137692Y8698687D01*
X13150697Y8692946D01*
X13164312Y8688882D01*
X13178332Y8686647D01*
G37*
G36*
X11414556Y8686190D02*
G01*
X11428679Y8687511D01*
X11442547Y8690711D01*
X11455908Y8695588D01*
X11468506Y8702192D01*
X11480139Y8710320D01*
X11490655Y8719870D01*
X11499850Y8730691D01*
X11507622Y8742578D01*
X11513769Y8755380D01*
X11518239Y8768892D01*
X11520982Y8782812D01*
X11521897Y8796985D01*
X11520982Y8811158D01*
X11518239Y8825128D01*
X11513769Y8838590D01*
X11507622Y8851392D01*
X11499850Y8863330D01*
X11490655Y8874150D01*
X11480139Y8883700D01*
X11468506Y8891828D01*
X11455908Y8898382D01*
X11442547Y8903309D01*
X11428679Y8906459D01*
X11414556Y8907830D01*
X11400332Y8907373D01*
X11386312Y8905087D01*
X11372697Y8901074D01*
X11359692Y8895334D01*
X11347551Y8887968D01*
X11336426Y8879078D01*
X11326571Y8868867D01*
X11318087Y8857488D01*
X11311077Y8845092D01*
X11305743Y8831935D01*
X11302136Y8818219D01*
X11300358Y8804097D01*
X11300358Y8789873D01*
X11302136Y8775801D01*
X11305743Y8762034D01*
X11311077Y8748877D01*
X11318087Y8736482D01*
X11326571Y8725103D01*
X11336426Y8714892D01*
X11347551Y8706053D01*
X11359692Y8698687D01*
X11372697Y8692946D01*
X11386312Y8688882D01*
X11400332Y8686647D01*
G37*
G36*
X13192556Y8940190D02*
G01*
X13206679Y8941511D01*
X13220547Y8944711D01*
X13233907Y8949588D01*
X13246506Y8956192D01*
X13258139Y8964320D01*
X13268655Y8973870D01*
X13277850Y8984691D01*
X13285622Y8996578D01*
X13291769Y9009380D01*
X13296239Y9022892D01*
X13298982Y9036812D01*
X13299897Y9050985D01*
X13298982Y9065158D01*
X13296239Y9079128D01*
X13291769Y9092590D01*
X13285622Y9105392D01*
X13277850Y9117330D01*
X13268655Y9128150D01*
X13258139Y9137700D01*
X13246506Y9145828D01*
X13233907Y9152382D01*
X13220547Y9157309D01*
X13206679Y9160459D01*
X13192556Y9161830D01*
X13178332Y9161373D01*
X13164312Y9159087D01*
X13150697Y9155074D01*
X13137692Y9149334D01*
X13125551Y9141968D01*
X13114426Y9133078D01*
X13104571Y9122867D01*
X13096087Y9111488D01*
X13089077Y9099092D01*
X13083743Y9085935D01*
X13080136Y9072219D01*
X13078358Y9058097D01*
X13078358Y9043873D01*
X13080136Y9029801D01*
X13083743Y9016034D01*
X13089077Y9002877D01*
X13096087Y8990482D01*
X13104571Y8979103D01*
X13114426Y8968892D01*
X13125551Y8960053D01*
X13137692Y8952687D01*
X13150697Y8946946D01*
X13164312Y8942882D01*
X13178332Y8940647D01*
G37*
G36*
X11414556Y8940190D02*
G01*
X11428679Y8941511D01*
X11442547Y8944711D01*
X11455908Y8949588D01*
X11468506Y8956192D01*
X11480139Y8964320D01*
X11490655Y8973870D01*
X11499850Y8984691D01*
X11507622Y8996578D01*
X11513769Y9009380D01*
X11518239Y9022892D01*
X11520982Y9036812D01*
X11521897Y9050985D01*
X11520982Y9065158D01*
X11518239Y9079128D01*
X11513769Y9092590D01*
X11507622Y9105392D01*
X11499850Y9117330D01*
X11490655Y9128150D01*
X11480139Y9137700D01*
X11468506Y9145828D01*
X11455908Y9152382D01*
X11442547Y9157309D01*
X11428679Y9160459D01*
X11414556Y9161830D01*
X11400332Y9161373D01*
X11386312Y9159087D01*
X11372697Y9155074D01*
X11359692Y9149334D01*
X11347551Y9141968D01*
X11336426Y9133078D01*
X11326571Y9122867D01*
X11318087Y9111488D01*
X11311077Y9099092D01*
X11305743Y9085935D01*
X11302136Y9072219D01*
X11300358Y9058097D01*
X11300358Y9043873D01*
X11302136Y9029801D01*
X11305743Y9016034D01*
X11311077Y9002877D01*
X11318087Y8990482D01*
X11326571Y8979103D01*
X11336426Y8968892D01*
X11347551Y8960053D01*
X11359692Y8952687D01*
X11372697Y8946946D01*
X11386312Y8942882D01*
X11400332Y8940647D01*
G37*
G36*
X1570532Y9127490D02*
G01*
X1570532Y9189567D01*
X1508607Y9189567D01*
X1511249Y9184132D01*
X1520037Y9170466D01*
X1530299Y9157919D01*
X1541932Y9146590D01*
X1554784Y9136684D01*
X1568704Y9128302D01*
G37*
G36*
X9070543Y9127490D02*
G01*
X9070543Y9189567D01*
X9008618Y9189567D01*
X9011259Y9184132D01*
X9020048Y9170466D01*
X9030309Y9157919D01*
X9041942Y9146590D01*
X9054795Y9136684D01*
X9068714Y9128302D01*
G37*
G36*
X6570573Y9127490D02*
G01*
X6570573Y9189567D01*
X6508597Y9189567D01*
X6511290Y9184132D01*
X6520027Y9170466D01*
X6530289Y9157919D01*
X6541922Y9146590D01*
X6554774Y9136684D01*
X6568694Y9128302D01*
G37*
G36*
X4070553Y9127490D02*
G01*
X4070553Y9189567D01*
X4008628Y9189567D01*
X4011269Y9184132D01*
X4020058Y9170466D01*
X4030319Y9157919D01*
X4041952Y9146590D01*
X4054805Y9136684D01*
X4068673Y9128302D01*
G37*
G36*
X1699463Y9127591D02*
G01*
X1708404Y9132316D01*
X1721764Y9141460D01*
X1734057Y9152077D01*
X1744980Y9164066D01*
X1754530Y9177172D01*
X1761540Y9189567D01*
X1699463Y9189567D01*
G37*
G36*
X4199432Y9127591D02*
G01*
X4208373Y9132316D01*
X4221784Y9141460D01*
X4234027Y9152077D01*
X4245000Y9164066D01*
X4254550Y9177172D01*
X4261510Y9189567D01*
X4199432Y9189567D01*
G37*
G36*
X6699453Y9127591D02*
G01*
X6708394Y9132316D01*
X6721754Y9141460D01*
X6734048Y9152077D01*
X6745020Y9164066D01*
X6754520Y9177172D01*
X6761530Y9189567D01*
X6699453Y9189567D01*
G37*
G36*
X9199473Y9127591D02*
G01*
X9208363Y9132316D01*
X9221774Y9141460D01*
X9234017Y9152077D01*
X9244990Y9164066D01*
X9254540Y9177172D01*
X9261551Y9189567D01*
X9199473Y9189567D01*
G37*
G36*
X13237870Y9194088D02*
G01*
X13273430Y9194088D01*
X13279729Y9194800D01*
X13285216Y9196730D01*
X13290092Y9199778D01*
X13294207Y9203893D01*
X13297306Y9208770D01*
X13299186Y9214256D01*
X13299897Y9220555D01*
X13299897Y9256166D01*
X13237870Y9256166D01*
G37*
G36*
X11459870Y9194088D02*
G01*
X11495430Y9194088D01*
X11501729Y9194800D01*
X11507216Y9196730D01*
X11512092Y9199778D01*
X11516207Y9203893D01*
X11519306Y9208770D01*
X11521186Y9214256D01*
X11521897Y9220555D01*
X11521897Y9256166D01*
X11459870Y9256166D01*
G37*
G36*
X13104571Y9194088D02*
G01*
X13140131Y9194088D01*
X13140131Y9256166D01*
X13078104Y9256166D01*
X13078104Y9220555D01*
X13078815Y9214256D01*
X13080695Y9208770D01*
X13083794Y9203893D01*
X13087908Y9199778D01*
X13092785Y9196730D01*
X13098271Y9194800D01*
G37*
G36*
X11326571Y9194088D02*
G01*
X11362131Y9194088D01*
X11362131Y9256166D01*
X11300104Y9256166D01*
X11300104Y9220555D01*
X11300815Y9214256D01*
X11302695Y9208770D01*
X11305794Y9203893D01*
X11309908Y9199778D01*
X11314785Y9196730D01*
X11320272Y9194800D01*
G37*
G36*
X1699463Y9318447D02*
G01*
X1761540Y9318447D01*
X1754530Y9330842D01*
X1744980Y9343948D01*
X1734057Y9355886D01*
X1721764Y9366504D01*
X1708404Y9375698D01*
X1699463Y9380372D01*
G37*
G36*
X6699453Y9318447D02*
G01*
X6761530Y9318447D01*
X6754520Y9330842D01*
X6745020Y9343948D01*
X6734048Y9355886D01*
X6721754Y9366504D01*
X6708394Y9375698D01*
X6699453Y9380372D01*
G37*
G36*
X4199432Y9318447D02*
G01*
X4261510Y9318447D01*
X4254550Y9330842D01*
X4245000Y9343948D01*
X4234027Y9355886D01*
X4221784Y9366504D01*
X4208373Y9375698D01*
X4199432Y9380372D01*
G37*
G36*
X9199473Y9318447D02*
G01*
X9261551Y9318447D01*
X9254540Y9330842D01*
X9244990Y9343948D01*
X9234017Y9355886D01*
X9221774Y9366504D01*
X9208363Y9375698D01*
X9199473Y9380372D01*
G37*
G36*
X1508607Y9318447D02*
G01*
X1570532Y9318447D01*
X1570532Y9380524D01*
X1568704Y9379661D01*
X1554784Y9371279D01*
X1541932Y9361373D01*
X1530299Y9350095D01*
X1520037Y9337497D01*
X1511249Y9323882D01*
G37*
G36*
X4008628Y9318447D02*
G01*
X4070553Y9318447D01*
X4070553Y9380524D01*
X4068673Y9379661D01*
X4054805Y9371279D01*
X4041952Y9361373D01*
X4030319Y9350095D01*
X4020058Y9337497D01*
X4011269Y9323882D01*
G37*
G36*
X6508597Y9318447D02*
G01*
X6570573Y9318447D01*
X6570573Y9380524D01*
X6568694Y9379661D01*
X6554774Y9371279D01*
X6541922Y9361373D01*
X6530289Y9350095D01*
X6520027Y9337497D01*
X6511290Y9323882D01*
G37*
G36*
X9008618Y9318447D02*
G01*
X9070543Y9318447D01*
X9070543Y9380524D01*
X9068714Y9379661D01*
X9054795Y9371279D01*
X9041942Y9361373D01*
X9030309Y9350095D01*
X9020048Y9337497D01*
X9011259Y9323882D01*
G37*
G36*
X13078104Y9353854D02*
G01*
X13140131Y9353854D01*
X13140131Y9415932D01*
X13104571Y9415932D01*
X13098271Y9415221D01*
X13092785Y9413290D01*
X13087908Y9410192D01*
X13083794Y9406128D01*
X13080695Y9401200D01*
X13078815Y9395764D01*
X13078104Y9389414D01*
G37*
G36*
X13237870Y9353854D02*
G01*
X13299897Y9353854D01*
X13299897Y9389414D01*
X13299186Y9395764D01*
X13297306Y9401200D01*
X13294207Y9406128D01*
X13290092Y9410192D01*
X13285216Y9413290D01*
X13279729Y9415221D01*
X13273430Y9415932D01*
X13237870Y9415932D01*
G37*
G36*
X11459870Y9353854D02*
G01*
X11521897Y9353854D01*
X11521897Y9389414D01*
X11521186Y9395764D01*
X11519306Y9401200D01*
X11516207Y9406128D01*
X11512092Y9410192D01*
X11507216Y9413290D01*
X11501729Y9415221D01*
X11495430Y9415932D01*
X11459870Y9415932D01*
G37*
G36*
X11300104Y9353854D02*
G01*
X11362131Y9353854D01*
X11362131Y9415932D01*
X11326571Y9415932D01*
X11320272Y9415221D01*
X11314785Y9413290D01*
X11309908Y9410192D01*
X11305794Y9406128D01*
X11302695Y9401200D01*
X11300815Y9395764D01*
X11300104Y9389414D01*
G37*
G36*
X12054128Y9396171D02*
G01*
X12067590Y9396628D01*
X12080900Y9398863D01*
X12093752Y9402826D01*
X12105995Y9408515D01*
X12117374Y9415780D01*
X12127636Y9424466D01*
X12136678Y9434474D01*
X12144298Y9445599D01*
X12150394Y9457588D01*
X12154814Y9470339D01*
X12157506Y9483547D01*
X12158421Y9497009D01*
X12157506Y9510471D01*
X12154814Y9523679D01*
X12150394Y9536379D01*
X12144298Y9548418D01*
X12136678Y9559544D01*
X12127636Y9569500D01*
X12117374Y9578238D01*
X12105995Y9585452D01*
X12093752Y9591141D01*
X12080900Y9595154D01*
X12067590Y9597390D01*
X12054128Y9597847D01*
X12040717Y9596475D01*
X12027611Y9593376D01*
X12015063Y9588500D01*
X12003227Y9582048D01*
X11992356Y9574022D01*
X11982704Y9564674D01*
X11974322Y9554108D01*
X11967464Y9542526D01*
X11962180Y9530080D01*
X11958624Y9517075D01*
X11956846Y9503714D01*
X11956846Y9490252D01*
X11958624Y9476892D01*
X11962180Y9463887D01*
X11967464Y9451492D01*
X11974322Y9439910D01*
X11982704Y9429343D01*
X11992356Y9419945D01*
X12003227Y9411970D01*
X12015063Y9405467D01*
X12027611Y9400641D01*
X12040717Y9397492D01*
G37*
G36*
X12539116Y9396171D02*
G01*
X12552578Y9396628D01*
X12565888Y9398863D01*
X12578740Y9402826D01*
X12590983Y9408515D01*
X12602362Y9415780D01*
X12612624Y9424466D01*
X12621666Y9434474D01*
X12629286Y9445599D01*
X12635382Y9457588D01*
X12639802Y9470339D01*
X12642494Y9483547D01*
X12643408Y9497009D01*
X12642494Y9510471D01*
X12639802Y9523679D01*
X12635382Y9536379D01*
X12629286Y9548418D01*
X12621666Y9559544D01*
X12612624Y9569500D01*
X12602362Y9578238D01*
X12590983Y9585452D01*
X12578740Y9591141D01*
X12565888Y9595154D01*
X12552578Y9597390D01*
X12539116Y9597847D01*
X12525705Y9596475D01*
X12512598Y9593376D01*
X12500051Y9588500D01*
X12488214Y9582048D01*
X12477343Y9574022D01*
X12467691Y9564674D01*
X12459309Y9554108D01*
X12452451Y9542526D01*
X12447168Y9530080D01*
X12443612Y9517075D01*
X12441834Y9503714D01*
X12441834Y9490252D01*
X12443612Y9476892D01*
X12447168Y9463887D01*
X12452451Y9451492D01*
X12459309Y9439910D01*
X12467691Y9429343D01*
X12477343Y9419945D01*
X12488214Y9411970D01*
X12500051Y9405467D01*
X12512598Y9400641D01*
X12525705Y9397492D01*
G37*
G36*
X13192556Y9448190D02*
G01*
X13206679Y9449511D01*
X13220547Y9452711D01*
X13233907Y9457588D01*
X13246506Y9464192D01*
X13258139Y9472320D01*
X13268655Y9481870D01*
X13277850Y9492691D01*
X13285622Y9504578D01*
X13291769Y9517380D01*
X13296239Y9530892D01*
X13298982Y9544812D01*
X13299897Y9558985D01*
X13298982Y9573158D01*
X13296239Y9587128D01*
X13291769Y9600590D01*
X13285622Y9613392D01*
X13277850Y9625330D01*
X13268655Y9636150D01*
X13258139Y9645700D01*
X13246506Y9653828D01*
X13233907Y9660382D01*
X13220547Y9665309D01*
X13206679Y9668459D01*
X13192556Y9669830D01*
X13178332Y9669373D01*
X13164312Y9667087D01*
X13150697Y9663074D01*
X13137692Y9657334D01*
X13125551Y9649968D01*
X13114426Y9641078D01*
X13104571Y9630867D01*
X13096087Y9619488D01*
X13089077Y9607092D01*
X13083743Y9593935D01*
X13080136Y9580219D01*
X13078358Y9566097D01*
X13078358Y9551873D01*
X13080136Y9537801D01*
X13083743Y9524034D01*
X13089077Y9510877D01*
X13096087Y9498482D01*
X13104571Y9487103D01*
X13114426Y9476892D01*
X13125551Y9468053D01*
X13137692Y9460687D01*
X13150697Y9454946D01*
X13164312Y9450882D01*
X13178332Y9448647D01*
G37*
G36*
X11414556Y9448190D02*
G01*
X11428679Y9449511D01*
X11442547Y9452711D01*
X11455908Y9457588D01*
X11468506Y9464192D01*
X11480139Y9472320D01*
X11490655Y9481870D01*
X11499850Y9492691D01*
X11507622Y9504578D01*
X11513769Y9517380D01*
X11518239Y9530892D01*
X11520982Y9544812D01*
X11521897Y9558985D01*
X11520982Y9573158D01*
X11518239Y9587128D01*
X11513769Y9600590D01*
X11507622Y9613392D01*
X11499850Y9625330D01*
X11490655Y9636150D01*
X11480139Y9645700D01*
X11468506Y9653828D01*
X11455908Y9660382D01*
X11442547Y9665309D01*
X11428679Y9668459D01*
X11414556Y9669830D01*
X11400332Y9669373D01*
X11386312Y9667087D01*
X11372697Y9663074D01*
X11359692Y9657334D01*
X11347551Y9649968D01*
X11336426Y9641078D01*
X11326571Y9630867D01*
X11318087Y9619488D01*
X11311077Y9607092D01*
X11305743Y9593935D01*
X11302136Y9580219D01*
X11300358Y9566097D01*
X11300358Y9551873D01*
X11302136Y9537801D01*
X11305743Y9524034D01*
X11311077Y9510877D01*
X11318087Y9498482D01*
X11326571Y9487103D01*
X11336426Y9476892D01*
X11347551Y9468053D01*
X11359692Y9460687D01*
X11372697Y9454946D01*
X11386312Y9450882D01*
X11400332Y9448647D01*
G37*
G36*
X11737898Y9619691D02*
G01*
X11753342Y9621062D01*
X11768531Y9624263D01*
X11783212Y9629241D01*
X11797233Y9635896D01*
X11810339Y9644176D01*
X11822379Y9653930D01*
X11833199Y9665055D01*
X11842597Y9677400D01*
X11850471Y9690760D01*
X11856720Y9704933D01*
X11861292Y9719767D01*
X11864035Y9735058D01*
X11864949Y9750501D01*
X11864035Y9765995D01*
X11861292Y9781286D01*
X11856720Y9796068D01*
X11850471Y9810292D01*
X11842597Y9823653D01*
X11833199Y9835946D01*
X11822379Y9847072D01*
X11810339Y9856876D01*
X11797233Y9865156D01*
X11783212Y9871811D01*
X11768531Y9876790D01*
X11753342Y9879990D01*
X11737898Y9881362D01*
X11722404Y9880904D01*
X11707063Y9878618D01*
X11692128Y9874504D01*
X11677751Y9868662D01*
X11664188Y9861194D01*
X11651589Y9852152D01*
X11640108Y9841687D01*
X11629999Y9829952D01*
X11621312Y9817100D01*
X11614251Y9803282D01*
X11608866Y9788753D01*
X11605209Y9773666D01*
X11603380Y9758273D01*
X11603380Y9742779D01*
X11605209Y9727387D01*
X11608866Y9712299D01*
X11614251Y9697770D01*
X11621312Y9683953D01*
X11629999Y9671100D01*
X11640108Y9659366D01*
X11651589Y9648901D01*
X11664188Y9639858D01*
X11677751Y9632340D01*
X11692128Y9626498D01*
X11707063Y9622434D01*
X11722404Y9620148D01*
G37*
G36*
X12877901Y9619691D02*
G01*
X12893344Y9621062D01*
X12908534Y9624263D01*
X12923215Y9629241D01*
X12937236Y9635896D01*
X12950342Y9644176D01*
X12962382Y9653930D01*
X12973202Y9665055D01*
X12982600Y9677400D01*
X12990474Y9690760D01*
X12996722Y9704933D01*
X13001294Y9719767D01*
X13004038Y9735058D01*
X13004952Y9750501D01*
X13004038Y9765995D01*
X13001294Y9781286D01*
X12996722Y9796068D01*
X12990474Y9810292D01*
X12982600Y9823653D01*
X12973202Y9835946D01*
X12962382Y9847072D01*
X12950342Y9856876D01*
X12937236Y9865156D01*
X12923215Y9871811D01*
X12908534Y9876790D01*
X12893344Y9879990D01*
X12877901Y9881362D01*
X12862407Y9880904D01*
X12847066Y9878618D01*
X12832130Y9874504D01*
X12817754Y9868662D01*
X12804190Y9861194D01*
X12791592Y9852152D01*
X12780111Y9841687D01*
X12770002Y9829952D01*
X12761315Y9817100D01*
X12754254Y9803282D01*
X12748869Y9788753D01*
X12745212Y9773666D01*
X12743383Y9758273D01*
X12743383Y9742779D01*
X12745212Y9727387D01*
X12748869Y9712299D01*
X12754254Y9697770D01*
X12761315Y9683953D01*
X12770002Y9671100D01*
X12780111Y9659366D01*
X12791592Y9648901D01*
X12804190Y9639858D01*
X12817754Y9632340D01*
X12832130Y9626498D01*
X12847066Y9622434D01*
X12862407Y9620148D01*
G37*
G36*
X12565227Y9684359D02*
G01*
X12579756Y9684359D01*
X12594183Y9686188D01*
X12608306Y9689795D01*
X12621818Y9695129D01*
X12634569Y9702139D01*
X12646355Y9710724D01*
X12656972Y9720681D01*
X12666218Y9731857D01*
X12674041Y9744151D01*
X12680238Y9757359D01*
X12684709Y9771176D01*
X12687452Y9785451D01*
X12688366Y9799980D01*
X12687452Y9814509D01*
X12684709Y9828834D01*
X12680238Y9842652D01*
X12674041Y9855809D01*
X12666218Y9868103D01*
X12656972Y9879330D01*
X12646355Y9889286D01*
X12634569Y9897821D01*
X12621818Y9904831D01*
X12608306Y9910216D01*
X12594183Y9913823D01*
X12579756Y9915652D01*
X12565227Y9915652D01*
X12550800Y9913823D01*
X12536678Y9910216D01*
X12523165Y9904831D01*
X12510414Y9897821D01*
X12498628Y9889286D01*
X12488011Y9879330D01*
X12478766Y9868103D01*
X12470942Y9855809D01*
X12464745Y9842652D01*
X12460274Y9828834D01*
X12457531Y9814509D01*
X12456617Y9799980D01*
X12457531Y9785451D01*
X12460274Y9771176D01*
X12464745Y9757359D01*
X12470942Y9744151D01*
X12478766Y9731857D01*
X12488011Y9720681D01*
X12498628Y9710724D01*
X12510414Y9702139D01*
X12523165Y9695129D01*
X12536678Y9689795D01*
X12550800Y9686188D01*
G37*
G36*
X12020245Y9684359D02*
G01*
X12034774Y9684359D01*
X12049201Y9686188D01*
X12063323Y9689795D01*
X12076836Y9695129D01*
X12089587Y9702139D01*
X12101372Y9710724D01*
X12111990Y9720681D01*
X12121235Y9731857D01*
X12129058Y9744151D01*
X12135256Y9757359D01*
X12139726Y9771176D01*
X12142470Y9785451D01*
X12143384Y9799980D01*
X12142470Y9814509D01*
X12139726Y9828834D01*
X12135256Y9842652D01*
X12129058Y9855809D01*
X12121235Y9868103D01*
X12111990Y9879330D01*
X12101372Y9889286D01*
X12089587Y9897821D01*
X12076836Y9904831D01*
X12063323Y9910216D01*
X12049201Y9913823D01*
X12034774Y9915652D01*
X12020245Y9915652D01*
X12005818Y9913823D01*
X11991695Y9910216D01*
X11978182Y9904831D01*
X11965432Y9897821D01*
X11953646Y9889286D01*
X11943029Y9879330D01*
X11933783Y9868103D01*
X11925960Y9855809D01*
X11919762Y9842652D01*
X11915292Y9828834D01*
X11912549Y9814509D01*
X11911634Y9799980D01*
X11912549Y9785451D01*
X11915292Y9771176D01*
X11919762Y9757359D01*
X11925960Y9744151D01*
X11933783Y9731857D01*
X11943029Y9720681D01*
X11953646Y9710724D01*
X11965432Y9702139D01*
X11978182Y9695129D01*
X11991695Y9689795D01*
X12005818Y9686188D01*
G37*
G36*
X13192556Y9702190D02*
G01*
X13206679Y9703511D01*
X13220547Y9706711D01*
X13233907Y9711588D01*
X13246506Y9718192D01*
X13258139Y9726320D01*
X13268655Y9735870D01*
X13277850Y9746691D01*
X13285622Y9758578D01*
X13291769Y9771380D01*
X13296239Y9784892D01*
X13298982Y9798812D01*
X13299897Y9812985D01*
X13298982Y9827158D01*
X13296239Y9841128D01*
X13291769Y9854590D01*
X13285622Y9867392D01*
X13277850Y9879330D01*
X13268655Y9890150D01*
X13258139Y9899700D01*
X13246506Y9907828D01*
X13233907Y9914382D01*
X13220547Y9919309D01*
X13206679Y9922459D01*
X13192556Y9923830D01*
X13178332Y9923373D01*
X13164312Y9921087D01*
X13150697Y9917074D01*
X13137692Y9911334D01*
X13125551Y9903968D01*
X13114426Y9895078D01*
X13104571Y9884867D01*
X13096087Y9873488D01*
X13089077Y9861092D01*
X13083743Y9847935D01*
X13080136Y9834219D01*
X13078358Y9820097D01*
X13078358Y9805873D01*
X13080136Y9791801D01*
X13083743Y9778034D01*
X13089077Y9764877D01*
X13096087Y9752482D01*
X13104571Y9741103D01*
X13114426Y9730892D01*
X13125551Y9722053D01*
X13137692Y9714687D01*
X13150697Y9708946D01*
X13164312Y9704882D01*
X13178332Y9702647D01*
G37*
G36*
X13192556Y6146190D02*
G01*
X13206679Y6147511D01*
X13220547Y6150711D01*
X13233907Y6155588D01*
X13246506Y6162192D01*
X13258139Y6170320D01*
X13268655Y6179870D01*
X13277850Y6190691D01*
X13285622Y6202578D01*
X13291769Y6215380D01*
X13296239Y6228892D01*
X13298982Y6242812D01*
X13299897Y6256985D01*
X13298982Y6271158D01*
X13296239Y6285128D01*
X13291769Y6298590D01*
X13285622Y6311392D01*
X13277850Y6323330D01*
X13268655Y6334150D01*
X13258139Y6343700D01*
X13246506Y6351828D01*
X13233907Y6358382D01*
X13220547Y6363309D01*
X13206679Y6366459D01*
X13192556Y6367830D01*
X13178332Y6367373D01*
X13164312Y6365087D01*
X13150697Y6361074D01*
X13137692Y6355334D01*
X13125551Y6347968D01*
X13114426Y6339078D01*
X13104571Y6328867D01*
X13096087Y6317488D01*
X13089077Y6305092D01*
X13083743Y6291935D01*
X13080136Y6278219D01*
X13078358Y6264097D01*
X13078358Y6249873D01*
X13080136Y6235801D01*
X13083743Y6222034D01*
X13089077Y6208877D01*
X13096087Y6196482D01*
X13104571Y6185103D01*
X13114426Y6174892D01*
X13125551Y6166053D01*
X13137692Y6158687D01*
X13150697Y6152946D01*
X13164312Y6148882D01*
X13178332Y6146647D01*
G37*

%LPD*%
D14*
G01*
X11411000Y9813000D03*
G01*
X11411000Y9559000D03*
G36*
X11325999Y9390001D02*
G01*
X11496001Y9390001D01*
X11496001Y9219999D01*
X11325999Y9219999D01*
G37*
G01*
X11411000Y9051000D03*
G01*
X11411000Y8797000D03*
G01*
X11411000Y8543000D03*
G01*
X11411000Y8289000D03*
G36*
X11325999Y8120001D02*
G01*
X11496001Y8120001D01*
X11496001Y7949999D01*
X11325999Y7949999D01*
G37*
G01*
X11411000Y7781000D03*
G01*
X11411000Y7527000D03*
G01*
X11411000Y7273000D03*
G01*
X11411000Y7019000D03*
G36*
X11325999Y6850001D02*
G01*
X11496001Y6850001D01*
X11496001Y6679999D01*
X11325999Y6679999D01*
G37*
G01*
X11411000Y6511000D03*
G01*
X11411000Y6257000D03*
G01*
X11411000Y6003000D03*
G01*
X11411000Y5749000D03*
G36*
X11325999Y5580001D02*
G01*
X11496001Y5580001D01*
X11496001Y5409999D01*
X11325999Y5409999D01*
G37*
G01*
X11411000Y5241000D03*
G01*
X11411000Y4987000D03*
G01*
X13189000Y4987000D03*
G01*
X13189000Y5241000D03*
G36*
X13103999Y5580001D02*
G01*
X13274001Y5580001D01*
X13274001Y5409999D01*
X13103999Y5409999D01*
G37*
G01*
X13189000Y5749000D03*
G01*
X13189000Y6003000D03*
G01*
X13189000Y6257000D03*
G01*
X13189000Y6511000D03*
G36*
X13103999Y6850001D02*
G01*
X13274001Y6850001D01*
X13274001Y6679999D01*
X13103999Y6679999D01*
G37*
G01*
X13189000Y7019000D03*
G01*
X13189000Y7273000D03*
G01*
X13189000Y7527000D03*
G01*
X13189000Y7781000D03*
G36*
X13103999Y8120001D02*
G01*
X13274001Y8120001D01*
X13274001Y7949999D01*
X13103999Y7949999D01*
G37*
G01*
X13189000Y8289000D03*
G01*
X13189000Y8543000D03*
G01*
X13189000Y8797000D03*
G01*
X13189000Y9051000D03*
G36*
X13103999Y9390001D02*
G01*
X13274001Y9390001D01*
X13274001Y9219999D01*
X13103999Y9219999D01*
G37*
G01*
X13189000Y9559000D03*
G01*
X13189000Y9813000D03*
G01*
X12046000Y5010012D03*
G36*
X12214999Y5095013D02*
G01*
X12385001Y5095013D01*
X12385001Y4925011D01*
X12214999Y4925011D01*
G37*
G01*
X12554000Y5010012D03*
D16*
G01*
X1000000Y8999999D03*
G01*
X1635000Y9253999D03*
D17*
G01*
X1381000Y8745999D03*
D18*
G01*
X873000Y8745999D03*
G01*
X1889000Y8745999D03*
D16*
G01*
X3500000Y8999999D03*
G01*
X4135000Y9253999D03*
D17*
G01*
X3881000Y8745999D03*
D18*
G01*
X3373000Y8745999D03*
G01*
X4389000Y8745999D03*
D16*
G01*
X6000000Y8999999D03*
G01*
X6635000Y9253999D03*
D17*
G01*
X6381000Y8745999D03*
D18*
G01*
X5873000Y8745999D03*
G01*
X6889000Y8745999D03*
D16*
G01*
X8500000Y8999999D03*
G01*
X9135000Y9253999D03*
D17*
G01*
X8881000Y8745999D03*
D18*
G01*
X8373000Y8745999D03*
G01*
X9389000Y8745999D03*
D16*
G01*
X1000000Y6499999D03*
G01*
X1635000Y6753999D03*
D17*
G01*
X1381000Y6245999D03*
D18*
G01*
X873000Y6245999D03*
G01*
X1889000Y6245999D03*
D16*
G01*
X3500000Y6499999D03*
G01*
X4135000Y6753999D03*
D17*
G01*
X3881000Y6245999D03*
D18*
G01*
X3373000Y6245999D03*
G01*
X4389000Y6245999D03*
D16*
G01*
X6000000Y6499999D03*
G01*
X6635000Y6753999D03*
D17*
G01*
X6381000Y6245999D03*
D18*
G01*
X5873000Y6245999D03*
G01*
X6889000Y6245999D03*
D16*
G01*
X8500000Y6499999D03*
G01*
X9135000Y6753999D03*
D17*
G01*
X8881000Y6245999D03*
D18*
G01*
X8373000Y6245999D03*
G01*
X9389000Y6245999D03*
D16*
G01*
X1000000Y3999999D03*
G01*
X1635000Y4253999D03*
D17*
G01*
X1381000Y3745999D03*
D18*
G01*
X873000Y3745999D03*
G01*
X1889000Y3745999D03*
D16*
G01*
X3500000Y3999999D03*
G01*
X4135000Y4253999D03*
D17*
G01*
X3881000Y3745999D03*
D18*
G01*
X3373000Y3745999D03*
G01*
X4389000Y3745999D03*
D16*
G01*
X6000000Y3999999D03*
G01*
X6635000Y4253999D03*
D17*
G01*
X6381000Y3745999D03*
D18*
G01*
X5873000Y3745999D03*
G01*
X6889000Y3745999D03*
D16*
G01*
X8500000Y3999999D03*
G01*
X9135000Y4253999D03*
D17*
G01*
X8881000Y3745999D03*
D18*
G01*
X8373000Y3745999D03*
G01*
X9389000Y3745999D03*
D16*
G01*
X1000000Y1499999D03*
G01*
X1635000Y1753999D03*
D17*
G01*
X1381000Y1245999D03*
D18*
G01*
X873000Y1245999D03*
G01*
X1889000Y1245999D03*
D16*
G01*
X3500000Y1499999D03*
G01*
X4135000Y1753999D03*
D17*
G01*
X3881000Y1245999D03*
D18*
G01*
X3373000Y1245999D03*
G01*
X4389000Y1245999D03*
D16*
G01*
X6000000Y1499999D03*
G01*
X6635000Y1753999D03*
D17*
G01*
X6381000Y1245999D03*
D18*
G01*
X5873000Y1245999D03*
G01*
X6889000Y1245999D03*
D16*
G01*
X8500000Y1499999D03*
G01*
X9135000Y1753999D03*
D17*
G01*
X8881000Y1245999D03*
D18*
G01*
X8373000Y1245999D03*
G01*
X9389000Y1245999D03*
D11*
G01*
X12500000Y499998D03*
G01*
X11499999Y499998D03*
G01*
X10499999Y499998D03*
G01*
X9499998Y499998D03*
G01*
X8500000Y499998D03*
G01*
X7500000Y499998D03*
G01*
X6499999Y499998D03*
G01*
X5499999Y499998D03*
G01*
X4500001Y499998D03*
G01*
X3500000Y499998D03*
G01*
X2500000Y499998D03*
G01*
X1499999Y499998D03*
G01*
X499998Y499998D03*
G01*
X13500000Y1499999D03*
G01*
X13500000Y2500000D03*
G01*
X13500000Y3500000D03*
G01*
X13500000Y4500001D03*
G01*
X13499998Y5499999D03*
G01*
X13499998Y6499999D03*
G01*
X13499998Y7500000D03*
G01*
X13499998Y8500000D03*
G01*
X499998Y9499998D03*
G01*
X1499999Y9499998D03*
G01*
X2500000Y9499998D03*
G01*
X3500000Y9499998D03*
G01*
X4500001Y9499998D03*
G01*
X5499999Y9499998D03*
G01*
X499998Y8500000D03*
G01*
X499998Y7500000D03*
G01*
X499998Y6499999D03*
G01*
X499998Y5499999D03*
G01*
X499998Y4500001D03*
G01*
X499998Y3500000D03*
G01*
X499998Y2500000D03*
G01*
X499998Y1499999D03*
G01*
X13500000Y499998D03*
G01*
X13500000Y9499998D03*
M02*
